<?xml version="1.0" encoding="UTF-8"?>
<svg id="Ebene_5" data-name="Ebene 5" xmlns="http://www.w3.org/2000/svg" viewBox="0 0 5.11 7.05">
  <defs>
    <style>
      .cls-1 {
        fill: #fff;
      }
    </style>
  </defs>
  <g id="jCvsG5">
    <path class="cls-1" d="M2.87.02c.09-.06.21,0,.2.11-.03.62.1,1.26.42,1.8.49.85,1.31,1.08,1.56,2.16.5,2.17-1.97,3.64-3.81,2.63C.43,6.27-.09,5.1.01,4.2c.05-.46.26-.9.55-1.25.07-.08.2-.07.24.03.21.48.52.95,1.01,1.13.14.05.29.1.43,0,.23-.17.02-.44-.06-.63C1.67,2.23,1.79.94,2.86.02c0,0,0,0,0,0h0Z"/>
  </g>
</svg>