<?xml version="1.0" encoding="UTF-8"?>
<svg id="Ebene_5" data-name="Ebene 5" xmlns="http://www.w3.org/2000/svg" viewBox="0 0 5.01 7.69">
  <defs>
    <style>
      .cls-1 {
        stroke: #fff;
        stroke-miterlimit: 10;
        stroke-width: .25px;
      }

      .cls-1, .cls-2 {
        fill: #fff;
      }
    </style>
  </defs>
  <g>
    <path class="cls-2" d="M4.21,3.08l-1.49.02.55-2.28c0-.21-.26-.26-.36-.09L.67,4.3c-.08.12,0,.28.14.3h1.53l-.56,2.21c-.03.19.12.31.29.21.6-.93,1.2-1.86,1.78-2.8.15-.25.38-.56.51-.81.09-.18.04-.28-.15-.32Z"/>
    <path class="cls-2" d="M4.21,2.46l-1.49.02.6.79c.16-.67.33-1.34.49-2.01.02-.09.05-.18.06-.27.08-.41-.15-.85-.58-.96-.48-.12-.8.19-1.03.55l-1.23,1.96c-.3.48-.64.94-.91,1.44-.29.54.05,1.2.68,1.24.13,0,.25,0,.38,0h1.15l-.6-.79c-.11.44-.22.88-.33,1.32-.13.52-.45,1.24-.02,1.69.23.23.55.29.85.18.35-.12.52-.51.71-.8.33-.52.66-1.04.99-1.56.29-.46.61-.91.88-1.39.33-.57.24-1.18-.44-1.4-.77-.25-1.1.96-.33,1.21l-.19-.15-.09-.32s.04-.07-.02-.01c-.05.05-.09.15-.13.21-.08.13-.16.25-.25.37-.2.31-.4.63-.6.95-.42.66-.84,1.31-1.26,1.97l.37-.29h.01c.11.04.21.07.32.1l.02.02.16.28c.04.13-.04.23,0,.08.02-.09.04-.17.07-.26l.19-.75.28-1.11c.1-.39-.19-.79-.6-.79h-1.28c-.06,0-.12,0-.18,0-.09,0-.07-.04.02,0l.28.16h0c.03.11.06.22.09.32.01.2-.1.2-.03.12.03-.03.05-.08.08-.12l.24-.39.78-1.24.76-1.22.25-.41s.05-.07.07-.11c.1-.22.11.36-.4.16l-.28-.16-.07-.11v-.33c-.18.76-.37,1.52-.55,2.28-.09.39.19.8.6.79l1.49-.02c.8,0,.81-1.26,0-1.25Z"/>
  </g>
  <rect class="cls-1" x="3.12" y=".91" width=".39" height=".5"/>
</svg>