<?xml version="1.0" encoding="UTF-8"?>
<svg id="Ebene_5" data-name="Ebene 5" xmlns="http://www.w3.org/2000/svg" viewBox="0 0 7.28 7.06">
  <defs>
    <style>
      .cls-1 {
        fill: #fff;
        stroke: #fff;
        stroke-miterlimit: 10;
        stroke-width: .15px;
      }
    </style>
  </defs>
  <path class="cls-1" d="M3.76,3.32c.42-.08,2.36-.08,2.79-.01.5.08.63.64.54,1.07-.08.38-.58,1.69-.76,2.05-.16.33-.27.45-.65.49-.4.05-1.3.08-1.58-.24-.02-.02-.03-.04-.03-.06-.19-.67-1-2.13-.88-2.73.06-.28.29-.52.57-.57Z"/>
  <g>
    <path class="cls-1" d="M3.07,3.09c.11-.11.03-.3-.12-.3H.63c-.19,0-.54.52-.55.72-.04.53.75,1.95.9,2.58,0,.02.01.05.03.06.29.35,1.35.32,1.75.24.98-.2.06-1.42-.06-1.99s.04-.96.37-1.31Z"/>
    <path class="cls-1" d="M2.42.13c-1.85-.42-1.97,2.3-.32,2.26,1.38-.03,1.43-2.02.32-2.26Z"/>
  </g>
  <path class="cls-1" d="M4.84.65c1.91-.39,1.9,2.44.19,2.26-1.29-.14-1.3-2.03-.19-2.26Z"/>
</svg>