<?xml version="1.0" encoding="UTF-8"?>
<svg id="Ebene_5" data-name="Ebene 5" xmlns="http://www.w3.org/2000/svg" viewBox="0 0 5.13 7.04">
  <defs>
    <style>
      .cls-1 {
        fill: #fff;
      }
    </style>
  </defs>
  <path class="cls-1" d="M4,.42C3.46.07,2.86-.04,2.21.01,1.34.09.48.65.06,1.42c-.09.16-.09.2.05.33.16.15.66.54.85.65.09.05.18.08.28.03.34-.36.57-.8,1.13-.84.46-.03,1.09.24.92.8-.11.35-.47.44-.75.6-.41.24-.92.71-.96,1.22,0,.1-.01.36,0,.45.02.11.14.15.23.16.27.02,1.06.04,1.31,0,.21-.04.16-.17.21-.32.15-.47.64-.61.99-.87,1.2-.91.84-2.44-.32-3.18Z"/>
  <rect class="cls-1" x="1.57" y="5.3" width="1.75" height="1.74" rx=".29" ry=".29"/>
</svg>