<?xml version="1.0" encoding="UTF-8"?>
<svg xmlns="http://www.w3.org/2000/svg" xmlns:xlink="http://www.w3.org/1999/xlink" viewBox="0 0 167.24 260.79">
  <defs>
    <style>
      .cls-1, .cls-2, .cls-3, .cls-4, .cls-5, .cls-6, .cls-7, .cls-8, .cls-9, .cls-10, .cls-11, .cls-12 {
        fill: none;
      }

      .cls-13 {
        fill: #010101;
      }

      .cls-2, .cls-3, .cls-4, .cls-14, .cls-5, .cls-6, .cls-7, .cls-8, .cls-9, .cls-10, .cls-11, .cls-12 {
        stroke: #fff;
      }

      .cls-2, .cls-3, .cls-4, .cls-5, .cls-6, .cls-7, .cls-15, .cls-8, .cls-16, .cls-17, .cls-18, .cls-19, .cls-9, .cls-20, .cls-21, .cls-22, .cls-23, .cls-10, .cls-24, .cls-11, .cls-12 {
        font-family: QuicksandBold-Regular, Quicksand;
        font-size: 10px;
      }

      .cls-2, .cls-15 {
        letter-spacing: 0em;
      }

      .cls-25 {
        fill: #171717;
      }

      .cls-4, .cls-19 {
        letter-spacing: .02em;
      }

      .cls-14 {
        font-size: 12px;
        stroke-miterlimit: 10;
        stroke-width: .15px;
      }

      .cls-14, .cls-26 {
        font-family: Namaku, Namaku;
      }

      .cls-14, .cls-27, .cls-15, .cls-16, .cls-17, .cls-18, .cls-19, .cls-20, .cls-21, .cls-22, .cls-23, .cls-24 {
        fill: #fff;
      }

      .cls-5, .cls-20 {
        letter-spacing: -.03em;
      }

      .cls-6, .cls-23 {
        letter-spacing: -.09em;
      }

      .cls-28 {
        clip-path: url(#clippath-1);
      }

      .cls-29 {
        clip-path: url(#clippath-2);
      }

      .cls-26 {
        font-size: 15px;
      }

      .cls-26, .cls-30 {
        fill: #8d74b0;
      }

      .cls-7 {
        letter-spacing: -.04em;
      }

      .cls-8, .cls-21 {
        letter-spacing: -.02em;
      }

      .cls-16, .cls-10 {
        letter-spacing: -.04em;
      }

      .cls-17, .cls-12 {
        letter-spacing: -.04em;
      }

      .cls-18, .cls-9 {
        letter-spacing: -.04em;
      }

      .cls-31 {
        fill: #171715;
      }

      .cls-22, .cls-11 {
        letter-spacing: -.02em;
      }

      .cls-32 {
        clip-path: url(#clippath);
      }
    </style>
    <clipPath id="clippath">
      <rect class="cls-1" x="0" y="0" width="167.24" height="260.79"/>
    </clipPath>
    <clipPath id="clippath-1">
      <rect class="cls-1" x="0" y="0" width="167.24" height="260.79"/>
    </clipPath>
    <clipPath id="clippath-2">
      <rect class="cls-1" x="0" y="0" width="167.24" height="260.79"/>
    </clipPath>
  </defs>
  <g id="Background">
    <rect class="cls-30" width="167.24" height="260.79"/>
  </g>
  <g id="Rahmen">
    <path class="cls-13" d="M151.9,23.16c9.65,0,9.67-15,0-15s-9.67,15,0,15h0Z"/>
    <path class="cls-13" d="M152.22,254.59c9.65,0,9.67-15,0-15s-9.67,15,0,15h0Z"/>
    <path class="cls-13" d="M14.14,254.72c9.65,0,9.67-15,0-15s-9.67,15,0,15h0Z"/>
    <path class="cls-25" d="M11.56,15.67c18.49.32,36.98.69,55.46,1.04,19.51.36,39.05-.42,58.56-.82,10.18-.21,20.36-.38,30.54-.21l-3.75-3.75c-1.46,11.81-1.7,23.8-1.97,35.69-.33,14.15-.39,28.31-.37,42.46.01,9.3.14,18.61.07,27.91-.06,7.86-.43,15.71-.48,23.57-.07,11.29.08,22.59.37,33.88.56,22.38,1.59,44.74,2.18,67.12.07,2.79.14,5.57.2,8.36l3.75-3.75c-15.41-.13-30.81.06-46.22.48-24.85.69-49.67.84-74.52.24-8.25-.2-16.49-.49-24.74-.73l3.75,3.75c-.56-4.87-.34-9.89-.27-14.78.11-8.38.38-16.76.66-25.14.66-20.11,1.45-40.22,1.83-60.34.16-8.4.26-16.81.05-25.21-.13-5.24-.51-10.46-.61-15.7-.33-17.03-.19-34.08-.18-51.11,0-8.91,0-17.82-.06-26.73-.04-5.94-.04-11.89-.34-17.82-.04-.72-.08-1.43-.15-2.15-.19-1.95-1.59-3.85-3.75-3.75-1.87.08-3.96,1.66-3.75,3.75.48,4.83.39,9.76.44,14.61.09,8.42.1,16.84.11,25.25,0,17.78-.1,35.55.11,53.33.06,5.22.27,10.41.52,15.62.36,7.73.31,15.47.21,23.21-.24,20.03-1.02,40.04-1.7,60.06-.3,8.95-.6,17.9-.79,26.85-.13,5.9-.3,11.84,0,17.74.04.78.09,1.55.18,2.32.24,2.06,1.53,3.69,3.75,3.75,18.27.53,36.53,1.09,54.81,1.16,23.38.09,46.73-.97,70.1-1.19,6.85-.06,13.71-.03,20.56.02,2,.02,3.79-1.73,3.75-3.75-.48-22.44-1.5-44.87-2.16-67.3-.33-11.25-.57-22.51-.6-33.77-.03-10.16.25-20.29.47-30.44.18-8.23-.03-16.48-.05-24.72-.03-13.94,0-27.88.25-41.82.23-12.54.48-25.14,1.72-37.62.11-1.1.23-2.21.37-3.31.25-2.04-1.92-3.72-3.75-3.75-19.14-.32-38.3.42-57.44.81-9.78.2-19.58.45-29.37.27-7.76-.14-15.52-.3-23.28-.45-11.49-.22-22.99-.44-34.48-.63-1.96-.03-3.84,1.75-3.75,3.75s1.65,3.71,3.75,3.75h0Z"/>
    <polygon class="cls-25" points="26.61 14.43 14.5 29.16 14.18 13.04 26.61 14.43"/>
    <polygon class="cls-25" points="140.79 14.16 152.35 27.66 154.57 11.89 140.79 14.16"/>
    <polygon class="cls-25" points="139.48 248.15 153.14 235.93 156.07 248.65 139.48 248.15"/>
    <polygon class="cls-25" points="12.9 235.54 26.24 248.54 12.31 249.36 12.9 235.54"/>
    <rect class="cls-25" width="10.32" height="260.79"/>
    <rect class="cls-25" y="249.36" width="167.24" height="11.43"/>
    <rect class="cls-31" width="167.24" height="10.33"/>
    <rect class="cls-25" x="156.12" width="11.13" height="260.79"/>
    <path class="cls-25" d="M117.73,17.19c0-.85.31-3.85,0-4.78-.82-2.49-3.11-2.81-5.35-2.81h-57.51c-2.24,0-4.53.32-5.35,2.81-.31.93,0,3.93,0,4.78l-.25,5.71c-.49,5.31,7.64,4.59,10.71,4.59l17.71.37,5.93-.07h0l5.93.07,17.71-.37c3.08,0,11.2.72,10.71-4.59l-.24-5.71Z"/>
    <path class="cls-13" d="M151.9,23.16c9.65,0,9.67-15,0-15s-9.67,15,0,15h0Z"/>
    <path class="cls-13" d="M152.22,254.59c9.65,0,9.67-15,0-15s-9.67,15,0,15h0Z"/>
    <path class="cls-13" d="M14.14,254.72c9.65,0,9.67-15,0-15s-9.67,15,0,15h0Z"/>
    <path class="cls-25" d="M11.56,15.67c18.49.32,36.98.69,55.46,1.04,19.51.36,39.05-.42,58.56-.82,10.18-.21,20.36-.38,30.54-.21l-3.75-3.75c-1.46,11.81-1.7,23.8-1.97,35.69-.33,14.15-.39,28.31-.37,42.46.01,9.3.14,18.61.07,27.91-.06,7.86-.43,15.71-.48,23.57-.07,11.29.08,22.59.37,33.88.56,22.38,1.59,44.74,2.18,67.12.07,2.79.14,5.57.2,8.36l3.75-3.75c-15.41-.13-30.81.06-46.22.48-24.85.69-49.67.84-74.52.24-8.25-.2-16.49-.49-24.74-.73l3.75,3.75c-.56-4.87-.34-9.89-.27-14.78.11-8.38.38-16.76.66-25.14.66-20.11,1.45-40.22,1.83-60.34.16-8.4.26-16.81.05-25.21-.13-5.24-.51-10.46-.61-15.7-.33-17.03-.19-34.08-.18-51.11,0-8.91,0-17.82-.06-26.73-.04-5.94-.04-11.89-.34-17.82-.04-.72-.08-1.43-.15-2.15-.19-1.95-1.59-3.85-3.75-3.75-1.87.08-3.96,1.66-3.75,3.75.48,4.83.39,9.76.44,14.61.09,8.42.1,16.84.11,25.25,0,17.78-.1,35.55.11,53.33.06,5.22.27,10.41.52,15.62.36,7.73.31,15.47.21,23.21-.24,20.03-1.02,40.04-1.7,60.06-.3,8.95-.6,17.9-.79,26.85-.13,5.9-.3,11.84,0,17.74.04.78.09,1.55.18,2.32.24,2.06,1.53,3.69,3.75,3.75,18.27.53,36.53,1.09,54.81,1.16,23.38.09,46.73-.97,70.1-1.19,6.85-.06,13.71-.03,20.56.02,2,.02,3.79-1.73,3.75-3.75-.48-22.44-1.5-44.87-2.16-67.3-.33-11.25-.57-22.51-.6-33.77-.03-10.16.25-20.29.47-30.44.18-8.23-.03-16.48-.05-24.72-.03-13.94,0-27.88.25-41.82.23-12.54.48-25.14,1.72-37.62.11-1.1.23-2.21.37-3.31.25-2.04-1.92-3.72-3.75-3.75-19.14-.32-38.3.42-57.44.81-9.78.2-19.58.45-29.37.27-7.76-.14-15.52-.3-23.28-.45-11.49-.22-22.99-.44-34.48-.63-1.96-.03-3.84,1.75-3.75,3.75s1.65,3.71,3.75,3.75h0Z"/>
    <polygon class="cls-25" points="26.61 14.43 14.5 29.16 14.18 13.04 26.61 14.43"/>
    <polygon class="cls-25" points="140.79 14.16 152.35 27.66 154.57 11.89 140.79 14.16"/>
    <polygon class="cls-25" points="139.48 248.15 153.14 235.93 156.07 248.65 139.48 248.15"/>
    <polygon class="cls-25" points="12.9 235.54 26.24 248.54 12.31 249.36 12.9 235.54"/>
    <rect class="cls-25" width="10.32" height="260.79"/>
    <rect class="cls-25" y="249.36" width="167.24" height="11.43"/>
    <rect class="cls-31" width="167.24" height="10.33"/>
    <rect class="cls-25" x="156.12" width="11.13" height="260.79"/>
  </g>
  <g id="Kategorie_Name" data-name="Kategorie Name">
    <text class="cls-26" transform="translate(53.57 22.56) scale(1 1.09)"><tspan x="0" y="0">aufgabe</tspan></text>
  </g>
  <g id="Schlücke">
    <text class="cls-14" transform="translate(4.4 252.82)"><tspan x="0" y="0">+3</tspan></text>
    <text class="cls-14" transform="translate(147.68 19.77)"><tspan x="0" y="0">+3</tspan></text>
  </g>
  <g id="Motive">
    <g>
      <path class="cls-25" d="M83.3,89.23l1.46-.02.21-.3v-31.46c.89-6.34,9.8-6.47,10.79-.13v62.9c2.07,3.35,5.35,6.37,7.42,9.66.66,1.06.78,1.7.92,2.93.08,5.13,1.06,10.43,1.16,15.53.14,6.63-7.91,6.97-8.72.89l-1.1-15.08-5.2-6.74-.45-.19h-12.34s-.38.14-.38.14l-5.17,6.64-1.19,15.37c-.81,5.9-8.88,5.46-8.73-.9.13-5.53,1.14-11.33,1.34-16.89l.79-1.78,8.14-10.47.16-62.1c.66-4.36,6.12-6.22,9.26-3.04.74.75,1.62,2.47,1.62,3.52v31.52Z"/>
      <path class="cls-25" d="M82.37,129.33c7.36-.67,12.92,6.56,10.3,13.51s-12.18,8.72-17.07,2.82c-5.09-6.14-1.13-15.61,6.77-16.33Z"/>
    </g>
  </g>
  <g id="Kateg._Symbol" data-name="Kateg. Symbol">
    <g id="jCvsG5">
      <path class="cls-27" d="M14.94,10.67c.12-.09.3,0,.29.15-.04.89.15,1.8.59,2.57.7,1.21,1.87,1.54,2.22,3.08.71,3.1-2.81,5.2-5.44,3.74-1.15-.63-1.88-2.3-1.74-3.58.07-.65.37-1.28.78-1.78.1-.12.29-.09.35.05.29.68.74,1.35,1.45,1.62.21.08.41.15.61,0,.33-.24.03-.63-.08-.9-.74-1.8-.57-3.64.95-4.94,0,0,0,0,.01,0h0Z"/>
    </g>
    <g id="jCvsG5-2" data-name="jCvsG5">
      <path class="cls-27" d="M151.86,243.26c.12-.09.3,0,.29.15-.04.89.15,1.8.59,2.57.7,1.21,1.87,1.54,2.22,3.08.71,3.1-2.81,5.2-5.44,3.74-1.15-.63-1.88-2.3-1.74-3.58.07-.65.37-1.28.78-1.78.1-.12.29-.09.35.05.29.68.74,1.35,1.45,1.62.21.08.41.15.61,0,.33-.24.03-.63-.08-.9-.74-1.8-.57-3.64.95-4.94,0,0,0,0,.01,0h0Z"/>
    </g>
  </g>
  <g id="Kartentext">
    <g>
      <g class="cls-32">
        <text class="cls-6" transform="translate(46.77 179.29)"><tspan x="0" y="0">Ve</tspan></text>
        <text class="cls-11" transform="translate(59.05 179.29)"><tspan x="0" y="0">rsuche einen</tspan></text>
        <text class="cls-3" transform="translate(120.48 179.29)"><tspan x="0" y="0"> </tspan></text>
      </g>
      <text class="cls-23" transform="translate(46.77 179.29)"><tspan x="0" y="0">Ve</tspan></text>
      <text class="cls-22" transform="translate(59.05 179.29)"><tspan x="0" y="0">rsuche einen</tspan></text>
      <text class="cls-24" transform="translate(120.48 179.29)"><tspan x="0" y="0"> </tspan></text>
      <g class="cls-28">
        <text class="cls-8" transform="translate(25.51 191.28)"><tspan x="0" y="0">Ha</tspan></text>
        <text class="cls-9" transform="translate(38.29 191.28)"><tspan x="0" y="0">nd</tspan></text>
        <text class="cls-2" transform="translate(50.41 191.28)"><tspan x="0" y="0">st</tspan></text>
        <text class="cls-5" transform="translate(58.79 191.28)"><tspan x="0" y="0">and </tspan></text>
        <text class="cls-12" transform="translate(79.61 191.28)"><tspan x="0" y="0">un</tspan></text>
        <text class="cls-11" transform="translate(91.02 191.28)"><tspan x="0" y="0">d </tspan></text>
        <text class="cls-4" transform="translate(100.23 191.28)"><tspan x="0" y="0">ha</tspan></text>
        <text class="cls-11" transform="translate(112.69 191.28)"><tspan x="0" y="0">lt</tspan></text>
        <text class="cls-11" transform="translate(118.38 191.28)"><tspan x="0" y="0">e ih</tspan></text>
        <text class="cls-3" transform="translate(135.61 191.28)"><tspan x="0" y="0">n </tspan></text>
      </g>
      <text class="cls-21" transform="translate(25.51 191.28)"><tspan x="0" y="0">Ha</tspan></text>
      <text class="cls-18" transform="translate(38.29 191.28)"><tspan x="0" y="0">nd</tspan></text>
      <text class="cls-15" transform="translate(50.42 191.28)"><tspan x="0" y="0">st</tspan></text>
      <text class="cls-20" transform="translate(58.79 191.28)"><tspan x="0" y="0">and </tspan></text>
      <text class="cls-17" transform="translate(79.61 191.28)"><tspan x="0" y="0">un</tspan></text>
      <text class="cls-22" transform="translate(91.02 191.28)"><tspan x="0" y="0">d </tspan></text>
      <text class="cls-19" transform="translate(100.23 191.28)"><tspan x="0" y="0">ha</tspan></text>
      <text class="cls-22" transform="translate(112.69 191.28)"><tspan x="0" y="0">lt</tspan></text>
      <text class="cls-22" transform="translate(118.38 191.28)"><tspan x="0" y="0">e ihn</tspan></text>
      <text class="cls-24" transform="translate(141.73 191.28)"><tspan x="0" y="0"> </tspan></text>
      <g class="cls-29">
        <text class="cls-8" transform="translate(25.88 203.28)"><tspan x="0" y="0">min</tspan></text>
        <text class="cls-10" transform="translate(43.52 203.28)"><tspan x="0" y="0">de</tspan></text>
        <text class="cls-2" transform="translate(55.66 203.28)"><tspan x="0" y="0">st</tspan></text>
        <text class="cls-8" transform="translate(63.93 203.28)"><tspan x="0" y="0">ens 5 Sek</tspan></text>
        <text class="cls-7" transform="translate(109.58 203.28)"><tspan x="0" y="0">unde</tspan></text>
        <text class="cls-11" transform="translate(133.14 203.28)"><tspan x="0" y="0">n.</tspan></text>
      </g>
      <text class="cls-21" transform="translate(25.88 203.28)"><tspan x="0" y="0">min</tspan></text>
      <text class="cls-16" transform="translate(43.52 203.28)"><tspan x="0" y="0">de</tspan></text>
      <text class="cls-15" transform="translate(55.66 203.28)"><tspan x="0" y="0">st</tspan></text>
      <text class="cls-21" transform="translate(63.93 203.28)"><tspan x="0" y="0">ens 5 Sek</tspan></text>
      <text class="cls-17" transform="translate(109.58 203.28)"><tspan x="0" y="0">und</tspan></text>
      <text class="cls-22" transform="translate(127.25 203.28)"><tspan x="0" y="0">en.</tspan></text>
    </g>
  </g>
</svg>