<?xml version="1.0" encoding="UTF-8"?>
<svg xmlns="http://www.w3.org/2000/svg" xmlns:xlink="http://www.w3.org/1999/xlink" viewBox="0 0 167.24 260.79">
  <defs>
    <style>
      .cls-1, .cls-2, .cls-3, .cls-4 {
        fill: none;
      }

      .cls-5 {
        fill: #010101;
      }

      .cls-2, .cls-6, .cls-3, .cls-4 {
        stroke: #fff;
      }

      .cls-2, .cls-3, .cls-7, .cls-8, .cls-9, .cls-4 {
        font-family: QuicksandBold-Regular, Quicksand;
        font-size: 10px;
      }

      .cls-10 {
        fill: #171717;
      }

      .cls-6 {
        font-size: 12px;
        stroke-miterlimit: 10;
        stroke-width: .15px;
      }

      .cls-6, .cls-11 {
        font-family: Namaku, Namaku;
      }

      .cls-6, .cls-12, .cls-7, .cls-8, .cls-9 {
        fill: #fff;
      }

      .cls-13 {
        clip-path: url(#clippath-1);
      }

      .cls-14 {
        clip-path: url(#clippath-2);
      }

      .cls-11 {
        font-size: 15px;
      }

      .cls-11, .cls-15 {
        fill: #8d74b0;
      }

      .cls-3, .cls-7 {
        letter-spacing: -.02em;
      }

      .cls-16 {
        fill: #171715;
      }

      .cls-8, .cls-4 {
        letter-spacing: -.02em;
      }

      .cls-17 {
        clip-path: url(#clippath);
      }
    </style>
    <clipPath id="clippath">
      <rect class="cls-1" x="0" y="0" width="167.24" height="260.79"/>
    </clipPath>
    <clipPath id="clippath-1">
      <rect class="cls-1" x="0" y="0" width="167.24" height="260.79"/>
    </clipPath>
    <clipPath id="clippath-2">
      <rect class="cls-1" x="0" y="0" width="167.24" height="260.79"/>
    </clipPath>
  </defs>
  <g id="Background">
    <rect class="cls-15" x="0" width="167.24" height="260.79"/>
  </g>
  <g id="Rahmen">
    <path class="cls-5" d="M151.9,23.16c9.65,0,9.67-15,0-15s-9.67,15,0,15h0Z"/>
    <path class="cls-5" d="M152.22,254.59c9.65,0,9.67-15,0-15s-9.67,15,0,15h0Z"/>
    <path class="cls-5" d="M14.14,254.72c9.65,0,9.67-15,0-15s-9.67,15,0,15h0Z"/>
    <path class="cls-10" d="M11.56,15.67c18.49.32,36.98.69,55.46,1.04,19.51.36,39.05-.42,58.56-.82,10.18-.21,20.36-.38,30.54-.21l-3.75-3.75c-1.46,11.81-1.7,23.8-1.97,35.69-.33,14.15-.39,28.31-.37,42.46.01,9.3.14,18.61.07,27.91-.06,7.86-.43,15.71-.48,23.57-.07,11.29.08,22.59.37,33.88.56,22.38,1.59,44.74,2.18,67.12.07,2.79.14,5.57.2,8.36l3.75-3.75c-15.41-.13-30.81.06-46.22.48-24.85.69-49.67.84-74.52.24-8.25-.2-16.49-.49-24.74-.73l3.75,3.75c-.56-4.87-.34-9.89-.27-14.78.11-8.38.38-16.76.66-25.14.66-20.11,1.45-40.22,1.83-60.34.16-8.4.26-16.81.05-25.21-.13-5.24-.51-10.46-.61-15.7-.33-17.03-.19-34.08-.18-51.11,0-8.91,0-17.82-.06-26.73-.04-5.94-.04-11.89-.34-17.82-.04-.72-.08-1.43-.15-2.15-.19-1.95-1.59-3.85-3.75-3.75-1.87.08-3.96,1.66-3.75,3.75.48,4.83.39,9.76.44,14.61.09,8.42.1,16.84.11,25.25,0,17.78-.1,35.55.11,53.33.06,5.22.27,10.41.52,15.62.36,7.73.31,15.47.21,23.21-.24,20.03-1.02,40.04-1.7,60.06-.3,8.95-.6,17.9-.79,26.85-.13,5.9-.3,11.84,0,17.74.04.78.09,1.55.18,2.32.24,2.06,1.53,3.69,3.75,3.75,18.27.53,36.53,1.09,54.81,1.16,23.38.09,46.73-.97,70.1-1.19,6.85-.06,13.71-.03,20.56.02,2,.02,3.79-1.73,3.75-3.75-.48-22.44-1.5-44.87-2.16-67.3-.33-11.25-.57-22.51-.6-33.77-.03-10.16.25-20.29.47-30.44.18-8.23-.03-16.48-.05-24.72-.03-13.94,0-27.88.25-41.82.23-12.54.48-25.14,1.72-37.62.11-1.1.23-2.21.37-3.31.25-2.04-1.92-3.72-3.75-3.75-19.14-.32-38.3.42-57.44.81-9.78.2-19.58.45-29.37.27-7.76-.14-15.52-.3-23.28-.45-11.49-.22-22.99-.44-34.48-.63-1.96-.03-3.84,1.75-3.75,3.75s1.65,3.71,3.75,3.75h0Z"/>
    <polygon class="cls-10" points="26.61 14.43 14.5 29.16 14.18 13.04 26.61 14.43"/>
    <polygon class="cls-10" points="140.79 14.16 152.35 27.66 154.57 11.89 140.79 14.16"/>
    <polygon class="cls-10" points="139.48 248.15 153.14 235.93 156.07 248.65 139.48 248.15"/>
    <polygon class="cls-10" points="12.9 235.54 26.24 248.54 12.31 249.36 12.9 235.54"/>
    <rect class="cls-10" width="10.32" height="260.79"/>
    <rect class="cls-10" y="249.36" width="167.24" height="11.43"/>
    <rect class="cls-16" width="167.24" height="10.33"/>
    <rect class="cls-10" x="156.12" width="11.13" height="260.79"/>
    <path class="cls-10" d="M117.73,17.19c0-.85.31-3.85,0-4.78-.82-2.49-3.11-2.81-5.35-2.81h-57.51c-2.24,0-4.53.32-5.35,2.81-.31.93,0,3.93,0,4.78l-.25,5.71c-.49,5.31,7.64,4.59,10.71,4.59l17.71.37,5.93-.07h0l5.93.07,17.71-.37c3.08,0,11.2.72,10.71-4.59l-.24-5.71Z"/>
    <path class="cls-5" d="M151.9,23.16c9.65,0,9.67-15,0-15s-9.67,15,0,15h0Z"/>
    <path class="cls-5" d="M152.22,254.59c9.65,0,9.67-15,0-15s-9.67,15,0,15h0Z"/>
    <path class="cls-5" d="M14.14,254.72c9.65,0,9.67-15,0-15s-9.67,15,0,15h0Z"/>
    <path class="cls-10" d="M11.56,15.67c18.49.32,36.98.69,55.46,1.04,19.51.36,39.05-.42,58.56-.82,10.18-.21,20.36-.38,30.54-.21l-3.75-3.75c-1.46,11.81-1.7,23.8-1.97,35.69-.33,14.15-.39,28.31-.37,42.46.01,9.3.14,18.61.07,27.91-.06,7.86-.43,15.71-.48,23.57-.07,11.29.08,22.59.37,33.88.56,22.38,1.59,44.74,2.18,67.12.07,2.79.14,5.57.2,8.36l3.75-3.75c-15.41-.13-30.81.06-46.22.48-24.85.69-49.67.84-74.52.24-8.25-.2-16.49-.49-24.74-.73l3.75,3.75c-.56-4.87-.34-9.89-.27-14.78.11-8.38.38-16.76.66-25.14.66-20.11,1.45-40.22,1.83-60.34.16-8.4.26-16.81.05-25.21-.13-5.24-.51-10.46-.61-15.7-.33-17.03-.19-34.08-.18-51.11,0-8.91,0-17.82-.06-26.73-.04-5.94-.04-11.89-.34-17.82-.04-.72-.08-1.43-.15-2.15-.19-1.95-1.59-3.85-3.75-3.75-1.87.08-3.96,1.66-3.75,3.75.48,4.83.39,9.76.44,14.61.09,8.42.1,16.84.11,25.25,0,17.78-.1,35.55.11,53.33.06,5.22.27,10.41.52,15.62.36,7.73.31,15.47.21,23.21-.24,20.03-1.02,40.04-1.7,60.06-.3,8.95-.6,17.9-.79,26.85-.13,5.9-.3,11.84,0,17.74.04.78.09,1.55.18,2.32.24,2.06,1.53,3.69,3.75,3.75,18.27.53,36.53,1.09,54.81,1.16,23.38.09,46.73-.97,70.1-1.19,6.85-.06,13.71-.03,20.56.02,2,.02,3.79-1.73,3.75-3.75-.48-22.44-1.5-44.87-2.16-67.3-.33-11.25-.57-22.51-.6-33.77-.03-10.16.25-20.29.47-30.44.18-8.23-.03-16.48-.05-24.72-.03-13.94,0-27.88.25-41.82.23-12.54.48-25.14,1.72-37.62.11-1.1.23-2.21.37-3.31.25-2.04-1.92-3.72-3.75-3.75-19.14-.32-38.3.42-57.44.81-9.78.2-19.58.45-29.37.27-7.76-.14-15.52-.3-23.28-.45-11.49-.22-22.99-.44-34.48-.63-1.96-.03-3.84,1.75-3.75,3.75s1.65,3.71,3.75,3.75h0Z"/>
    <polygon class="cls-10" points="26.61 14.43 14.5 29.16 14.18 13.04 26.61 14.43"/>
    <polygon class="cls-10" points="140.79 14.16 152.35 27.66 154.57 11.89 140.79 14.16"/>
    <polygon class="cls-10" points="139.48 248.15 153.14 235.93 156.07 248.65 139.48 248.15"/>
    <polygon class="cls-10" points="12.9 235.54 26.24 248.54 12.31 249.36 12.9 235.54"/>
    <rect class="cls-10" width="10.32" height="260.79"/>
    <rect class="cls-10" y="249.36" width="167.24" height="11.43"/>
    <rect class="cls-16" width="167.24" height="10.33"/>
    <rect class="cls-10" x="156.12" width="11.13" height="260.79"/>
  </g>
  <g id="Kategorie_Name" data-name="Kategorie Name">
    <text class="cls-11" transform="translate(53.57 22.56) scale(1 1.09)"><tspan x="0" y="0">aufgabe</tspan></text>
  </g>
  <g id="Schlücke">
    <text class="cls-6" transform="translate(4.53 252.82)"><tspan x="0" y="0">+5</tspan></text>
    <text class="cls-6" transform="translate(147.81 19.77)"><tspan x="0" y="0">+5</tspan></text>
  </g>
  <g id="Motive">
    <g>
      <path class="cls-10" d="M118.7,67.32c-.31-.36-.71-.62-1.16-.77-2.74-.89-5.4-1.82-8.1-2.73-2.86-.95-5.74-1.87-8.61-2.81-1.32-.43-2.72.27-3.21,1.58-1.86,4.9-8.09,7.24-13.09,7.48-5.55.27-12.89-2.08-14.98-7.57-.48-1.27-1.9-1.91-3.19-1.48l-16.76,5.59c-.44.15-.84.41-1.14.77l-12.74,14.94c-.88,1.03-.81,2.56.16,3.51l8.25,8.02c.9.88,2.3.97,3.31.22l6.56-4.85c1.69-1.25,4.09-.04,4.09,2.06v52.26c0,1.42,1.15,2.57,2.57,2.57h45.91c1.42,0,2.57-1.15,2.57-2.57v-52.57c0-2.13,2.45-3.34,4.14-2.03l6.5,5.04c1.01.78,2.44.7,3.36-.19l8.21-7.97c.97-.94,1.04-2.48.16-3.51l-12.82-14.99ZM95.92,100.07c-1.28,2.81-4.99,5.27-7.23,7.43-.08.08-.29.24-.26.35l5.72,5.12c.09.08.17.16.25.25,1.32,1.5,2.11,3.18,2.32,5.2.13,1.23.11,2.47.09,3.71-.02,1.43,1.13,2.61,2.57,2.61h0c.21,0,.71.39.83.57.61.86.1,1.92-.91,2.05l-31.63-.06c-.88-.3-1.21-1.45-.54-2.14.1-.11.63-.42.74-.42h0c1.43,0,2.59-1.17,2.57-2.6-.02-.84-.03-1.68,0-2.51.15-3.38,1.1-5.13,3.5-7.41,1.57-1.51,3.31-2.86,4.88-4.38.02-.12-.33-.42-.43-.51-2.12-2-5.73-4.52-6.98-7.08-1.02-2.11-1.01-4.45-.97-6.77.02-1.43-1.13-2.6-2.56-2.6h0c-.22,0-.74-.42-.87-.62-.5-.76-.17-1.64.67-1.94l31.63-.06c1.23.14,1.62,1.71.56,2.4-.07.04-.44.22-.48.22h0c-1.43,0-2.59,1.17-2.56,2.6.04,2.25.05,4.52-.89,6.59Z"/>
      <path class="cls-10" d="M89.27,103.49l-3.33,3.02s-.06.05-.09.07l-1.32,1.02c-.54.42-1.3.39-1.81-.06l-4.61-4.04c-.99-.87-.38-2.5.94-2.5h9.26c1.31,0,1.93,1.61.96,2.49Z"/>
      <path class="cls-10" d="M73.68,119.5l5.92-6.46c.05-.06.1-.11.16-.16l2.35-2.18c.96-.89,2.31-.84,3.23.12l8.2,8.64c1.76,1.86.67,5.36-1.68,5.36h-16.46c-2.32,0-3.43-3.44-1.71-5.32Z"/>
    </g>
  </g>
  <g id="Kateg._Symbol" data-name="Kateg. Symbol">
    <g id="jCvsG5">
      <path class="cls-12" d="M14.94,10.67c.12-.09.3,0,.29.15-.04.89.15,1.8.59,2.57.7,1.21,1.87,1.54,2.22,3.08.71,3.1-2.81,5.2-5.44,3.74-1.15-.63-1.88-2.3-1.74-3.58.07-.65.37-1.28.78-1.78.1-.12.29-.09.35.05.29.68.74,1.35,1.45,1.62.21.08.41.15.61,0,.33-.24.03-.63-.08-.9-.74-1.8-.57-3.64.95-4.94,0,0,0,0,.01,0h0Z"/>
    </g>
    <g id="jCvsG5-2" data-name="jCvsG5">
      <path class="cls-12" d="M151.86,243.26c.12-.09.3,0,.29.15-.04.89.15,1.8.59,2.57.7,1.21,1.87,1.54,2.22,3.08.71,3.1-2.81,5.2-5.44,3.74-1.15-.63-1.88-2.3-1.74-3.58.07-.65.37-1.28.78-1.78.1-.12.29-.09.35.05.29.68.74,1.35,1.45,1.62.21.08.41.15.61,0,.33-.24.03-.63-.08-.9-.74-1.8-.57-3.64.95-4.94,0,0,0,0,.01,0h0Z"/>
    </g>
  </g>
  <g id="Kartentext">
    <g>
      <g class="cls-17">
        <text class="cls-4" transform="translate(44.05 179.29)"><tspan x="0" y="0">Zieh dich bis zu</tspan></text>
        <text class="cls-2" transform="translate(118.8 179.29)"><tspan x="0" y="0">r </tspan></text>
      </g>
      <text class="cls-8" transform="translate(44.05 179.29)"><tspan x="0" y="0">Zieh dich bis zur</tspan></text>
      <text class="cls-9" transform="translate(123.2 179.29)"><tspan x="0" y="0"> </tspan></text>
      <g class="cls-13">
        <text class="cls-4" transform="translate(25.22 191.28)"><tspan x="0" y="0">Unt</tspan></text>
        <text class="cls-2" transform="translate(42.48 191.28)"><tspan x="0" y="0">e</tspan></text>
        <text class="cls-4" transform="translate(48.16 191.28)"><tspan x="0" y="0">rwäsche aus für die</tspan></text>
        <text class="cls-2" transform="translate(142.03 191.28)"><tspan x="0" y="0"> </tspan></text>
      </g>
      <text class="cls-8" transform="translate(25.22 191.28)"><tspan x="0" y="0">Unt</tspan></text>
      <text class="cls-9" transform="translate(42.48 191.28)"><tspan x="0" y="0">e</tspan></text>
      <text class="cls-8" transform="translate(48.16 191.28)"><tspan x="0" y="0">rwäsche aus für die</tspan></text>
      <text class="cls-9" transform="translate(142.03 191.28)"><tspan x="0" y="0"> </tspan></text>
      <g class="cls-14">
        <text class="cls-4" transform="translate(36.28 203.28)"><tspan x="0" y="0">nächs</tspan></text>
        <text class="cls-2" transform="translate(64.06 203.28)"><tspan x="0" y="0">t</tspan></text>
        <text class="cls-3" transform="translate(67.46 203.28)"><tspan x="0" y="0">en 5 Minut</tspan></text>
        <text class="cls-4" transform="translate(116.84 203.28)"><tspan x="0" y="0">en</tspan></text>
        <text class="cls-2" transform="translate(128.66 203.28)"><tspan x="0" y="0">.</tspan></text>
      </g>
      <text class="cls-8" transform="translate(36.28 203.28)"><tspan x="0" y="0">nächs</tspan></text>
      <text class="cls-9" transform="translate(64.06 203.28)"><tspan x="0" y="0">t</tspan></text>
      <text class="cls-7" transform="translate(67.46 203.28)"><tspan x="0" y="0">en 5 Minut</tspan></text>
      <text class="cls-8" transform="translate(116.84 203.28)"><tspan x="0" y="0">en.</tspan></text>
    </g>
  </g>
</svg>