<?xml version="1.0" encoding="UTF-8"?>
<svg xmlns="http://www.w3.org/2000/svg" xmlns:xlink="http://www.w3.org/1999/xlink" viewBox="0 0 167.24 260.79">
  <defs>
    <style>
      .cls-1, .cls-2, .cls-3, .cls-4, .cls-5, .cls-6, .cls-7 {
        fill: none;
      }

      .cls-8 {
        fill: #010101;
      }

      .cls-2, .cls-3, .cls-4, .cls-9, .cls-5, .cls-6, .cls-7 {
        stroke: #fff;
      }

      .cls-2, .cls-3, .cls-4, .cls-10, .cls-5, .cls-11, .cls-12, .cls-13, .cls-14, .cls-15, .cls-6, .cls-7 {
        font-family: QuicksandBold-Regular, Quicksand;
        font-size: 10px;
      }

      .cls-2, .cls-10 {
        letter-spacing: 0em;
      }

      .cls-3, .cls-11 {
        letter-spacing: -.02em;
      }

      .cls-16 {
        fill: #171717;
      }

      .cls-9 {
        font-size: 12px;
        stroke-miterlimit: 10;
        stroke-width: .15px;
      }

      .cls-9, .cls-17 {
        font-family: Namaku, Namaku;
      }

      .cls-9, .cls-18, .cls-10, .cls-11, .cls-12, .cls-13, .cls-14, .cls-15 {
        fill: #fff;
      }

      .cls-19 {
        clip-path: url(#clippath-1);
      }

      .cls-17 {
        font-size: 15px;
      }

      .cls-17, .cls-20 {
        fill: #8d74b0;
      }

      .cls-5, .cls-13 {
        letter-spacing: -.02em;
      }

      .cls-21 {
        fill: #171715;
      }

      .cls-12, .cls-7 {
        letter-spacing: -.02em;
      }

      .cls-14, .cls-6 {
        letter-spacing: -.02em;
      }

      .cls-22 {
        clip-path: url(#clippath);
      }
    </style>
    <clipPath id="clippath">
      <rect class="cls-1" x="0" y="0" width="167.24" height="260.79"/>
    </clipPath>
    <clipPath id="clippath-1">
      <rect class="cls-1" x="0" y="0" width="167.24" height="260.79"/>
    </clipPath>
  </defs>
  <g id="Background">
    <rect class="cls-20" width="167.24" height="260.79"/>
  </g>
  <g id="Rahmen">
    <path class="cls-8" d="M151.9,23.16c9.65,0,9.67-15,0-15s-9.67,15,0,15h0Z"/>
    <path class="cls-8" d="M152.22,254.59c9.65,0,9.67-15,0-15s-9.67,15,0,15h0Z"/>
    <path class="cls-8" d="M14.14,254.72c9.65,0,9.67-15,0-15s-9.67,15,0,15h0Z"/>
    <path class="cls-16" d="M11.56,15.67c18.49.32,36.98.69,55.46,1.04,19.51.36,39.05-.42,58.56-.82,10.18-.21,20.36-.38,30.54-.21l-3.75-3.75c-1.46,11.81-1.7,23.8-1.97,35.69-.33,14.15-.39,28.31-.37,42.46.01,9.3.14,18.61.07,27.91-.06,7.86-.43,15.71-.48,23.57-.07,11.29.08,22.59.37,33.88.56,22.38,1.59,44.74,2.18,67.12.07,2.79.14,5.57.2,8.36l3.75-3.75c-15.41-.13-30.81.06-46.22.48-24.85.69-49.67.84-74.52.24-8.25-.2-16.49-.49-24.74-.73l3.75,3.75c-.56-4.87-.34-9.89-.27-14.78.11-8.38.38-16.76.66-25.14.66-20.11,1.45-40.22,1.83-60.34.16-8.4.26-16.81.05-25.21-.13-5.24-.51-10.46-.61-15.7-.33-17.03-.19-34.08-.18-51.11,0-8.91,0-17.82-.06-26.73-.04-5.94-.04-11.89-.34-17.82-.04-.72-.08-1.43-.15-2.15-.19-1.95-1.59-3.85-3.75-3.75-1.87.08-3.96,1.66-3.75,3.75.48,4.83.39,9.76.44,14.61.09,8.42.1,16.84.11,25.25,0,17.78-.1,35.55.11,53.33.06,5.22.27,10.41.52,15.62.36,7.73.31,15.47.21,23.21-.24,20.03-1.02,40.04-1.7,60.06-.3,8.95-.6,17.9-.79,26.85-.13,5.9-.3,11.84,0,17.74.04.78.09,1.55.18,2.32.24,2.06,1.53,3.69,3.75,3.75,18.27.53,36.53,1.09,54.81,1.16,23.38.09,46.73-.97,70.1-1.19,6.85-.06,13.71-.03,20.56.02,2,.02,3.79-1.73,3.75-3.75-.48-22.44-1.5-44.87-2.16-67.3-.33-11.25-.57-22.51-.6-33.77-.03-10.16.25-20.29.47-30.44.18-8.23-.03-16.48-.05-24.72-.03-13.94,0-27.88.25-41.82.23-12.54.48-25.14,1.72-37.62.11-1.1.23-2.21.37-3.31.25-2.04-1.92-3.72-3.75-3.75-19.14-.32-38.3.42-57.44.81-9.78.2-19.58.45-29.37.27-7.76-.14-15.52-.3-23.28-.45-11.49-.22-22.99-.44-34.48-.63-1.96-.03-3.84,1.75-3.75,3.75s1.65,3.71,3.75,3.75h0Z"/>
    <polygon class="cls-16" points="26.61 14.43 14.5 29.16 14.18 13.04 26.61 14.43"/>
    <polygon class="cls-16" points="140.79 14.16 152.35 27.66 154.57 11.89 140.79 14.16"/>
    <polygon class="cls-16" points="139.48 248.15 153.14 235.93 156.07 248.65 139.48 248.15"/>
    <polygon class="cls-16" points="12.9 235.54 26.24 248.54 12.31 249.36 12.9 235.54"/>
    <rect class="cls-16" width="10.32" height="260.79"/>
    <rect class="cls-16" y="249.36" width="167.24" height="11.43"/>
    <rect class="cls-21" width="167.24" height="10.33"/>
    <rect class="cls-16" x="156.12" width="11.13" height="260.79"/>
    <path class="cls-16" d="M117.73,17.19c0-.85.31-3.85,0-4.78-.82-2.49-3.11-2.81-5.35-2.81h-57.51c-2.24,0-4.53.32-5.35,2.81-.31.93,0,3.93,0,4.78l-.25,5.71c-.49,5.31,7.64,4.59,10.71,4.59l17.71.37,5.93-.07h0l5.93.07,17.71-.37c3.08,0,11.2.72,10.71-4.59l-.24-5.71Z"/>
    <path class="cls-8" d="M151.9,23.16c9.65,0,9.67-15,0-15s-9.67,15,0,15h0Z"/>
    <path class="cls-8" d="M152.22,254.59c9.65,0,9.67-15,0-15s-9.67,15,0,15h0Z"/>
    <path class="cls-8" d="M14.14,254.72c9.65,0,9.67-15,0-15s-9.67,15,0,15h0Z"/>
    <path class="cls-16" d="M11.56,15.67c18.49.32,36.98.69,55.46,1.04,19.51.36,39.05-.42,58.56-.82,10.18-.21,20.36-.38,30.54-.21l-3.75-3.75c-1.46,11.81-1.7,23.8-1.97,35.69-.33,14.15-.39,28.31-.37,42.46.01,9.3.14,18.61.07,27.91-.06,7.86-.43,15.71-.48,23.57-.07,11.29.08,22.59.37,33.88.56,22.38,1.59,44.74,2.18,67.12.07,2.79.14,5.57.2,8.36l3.75-3.75c-15.41-.13-30.81.06-46.22.48-24.85.69-49.67.84-74.52.24-8.25-.2-16.49-.49-24.74-.73l3.75,3.75c-.56-4.87-.34-9.89-.27-14.78.11-8.38.38-16.76.66-25.14.66-20.11,1.45-40.22,1.83-60.34.16-8.4.26-16.81.05-25.21-.13-5.24-.51-10.46-.61-15.7-.33-17.03-.19-34.08-.18-51.11,0-8.91,0-17.82-.06-26.73-.04-5.94-.04-11.89-.34-17.82-.04-.72-.08-1.43-.15-2.15-.19-1.95-1.59-3.85-3.75-3.75-1.87.08-3.96,1.66-3.75,3.75.48,4.83.39,9.76.44,14.61.09,8.42.1,16.84.11,25.25,0,17.78-.1,35.55.11,53.33.06,5.22.27,10.41.52,15.62.36,7.73.31,15.47.21,23.21-.24,20.03-1.02,40.04-1.7,60.06-.3,8.95-.6,17.9-.79,26.85-.13,5.9-.3,11.84,0,17.74.04.78.09,1.55.18,2.32.24,2.06,1.53,3.69,3.75,3.75,18.27.53,36.53,1.09,54.81,1.16,23.38.09,46.73-.97,70.1-1.19,6.85-.06,13.71-.03,20.56.02,2,.02,3.79-1.73,3.75-3.75-.48-22.44-1.5-44.87-2.16-67.3-.33-11.25-.57-22.51-.6-33.77-.03-10.16.25-20.29.47-30.44.18-8.23-.03-16.48-.05-24.72-.03-13.94,0-27.88.25-41.82.23-12.54.48-25.14,1.72-37.62.11-1.1.23-2.21.37-3.31.25-2.04-1.92-3.72-3.75-3.75-19.14-.32-38.3.42-57.44.81-9.78.2-19.58.45-29.37.27-7.76-.14-15.52-.3-23.28-.45-11.49-.22-22.99-.44-34.48-.63-1.96-.03-3.84,1.75-3.75,3.75s1.65,3.71,3.75,3.75h0Z"/>
    <polygon class="cls-16" points="26.61 14.43 14.5 29.16 14.18 13.04 26.61 14.43"/>
    <polygon class="cls-16" points="140.79 14.16 152.35 27.66 154.57 11.89 140.79 14.16"/>
    <polygon class="cls-16" points="139.48 248.15 153.14 235.93 156.07 248.65 139.48 248.15"/>
    <polygon class="cls-16" points="12.9 235.54 26.24 248.54 12.31 249.36 12.9 235.54"/>
    <rect class="cls-16" width="10.32" height="260.79"/>
    <rect class="cls-16" y="249.36" width="167.24" height="11.43"/>
    <rect class="cls-21" width="167.24" height="10.33"/>
    <rect class="cls-16" x="156.12" width="11.13" height="260.79"/>
  </g>
  <g id="Kategorie_Name" data-name="Kategorie Name">
    <text class="cls-17" transform="translate(53.57 22.56) scale(1 1.09)"><tspan x="0" y="0">aufgabe</tspan></text>
  </g>
  <g id="Schlücke">
    <text class="cls-9" transform="translate(4.4 252.82)"><tspan x="0" y="0">+3</tspan></text>
    <text class="cls-9" transform="translate(147.68 19.77)"><tspan x="0" y="0">+3</tspan></text>
  </g>
  <g id="Motive">
    <g>
      <path class="cls-16" d="M84.86,64.29v1.42c0,.42-.34.75-.76.74-15.89-.32-30.73,10.53-35.38,25.62-.2.66.5,1.22,1.09.88l1.64-.95c.34-.19.77-.1.99.22.27.39.61.88.82,1.29.18.35.06.78-.28.99l-6.7,4.03c-.73.31-1.52.16-2.01-.46l-4.07-6.74c-.21-.34-.11-.79.22-1.01.39-.26.87-.58,1.27-.79.35-.19.78-.06.99.28l1.54,2.53c.33.55,1.15.45,1.35-.15.57-1.7,1.08-3.41,1.81-5.05,6.28-14.17,21.16-23.99,36.75-23.59.41.01.73.35.73.76Z"/>
      <path class="cls-16" d="M83.43,139.78c15.64.22,30.21-10.36,35.01-25.11.27-.83-.64-1.56-1.39-1.12l-.96.55c-.46.26-1.04.11-1.3-.35l-.52-.9c-.26-.45-.11-1.03.34-1.29l6.22-3.71c.78-.43,1.63-.41,2.21.32l3.97,6.58c.26.43.14.99-.27,1.28-.29.2-.61.41-.9.59-.45.26-1.03.12-1.3-.33l-1.22-2.01c-.42-.69-1.47-.58-1.72.19-.51,1.56-1,3.12-1.67,4.63-6.25,14.11-21.03,23.9-36.55,23.6-.52-.01-.93-.44-.93-.96v-1.01c0-.53.44-.95.97-.94Z"/>
      <path class="cls-16" d="M72.61,141.11l-1.29-.3c-.46-.11-.74-.58-.61-1.04l.37-1.26c.13-.44.6-.69,1.04-.55l1.26.4c.41.13.65.55.56.96-.09.39-.24.85-.36,1.24-.13.41-.55.65-.97.55Z"/>
      <path class="cls-16" d="M89.82,66.9l-1.52-.18c-.39-.05-.67-.4-.63-.79l.17-1.46c.05-.4.42-.69.83-.62l1.57.27c.39.07.65.43.58.82l-.22,1.37c-.06.38-.41.64-.79.59Z"/>
      <path class="cls-16" d="M96.63,66.34l-.44,1.49c-.11.38-.52.6-.9.48l-1.46-.46c-.35-.11-.57-.47-.48-.83.1-.43.3-.99.44-1.43.11-.35.48-.56.84-.48l1.48.34c.4.09.64.5.52.9Z"/>
      <path class="cls-16" d="M79.62,140.41l-.14,1.23c-.06.47-.49.8-.96.72l-1.34-.23c-.45-.08-.75-.5-.68-.95l.19-1.15c.07-.43.47-.74.91-.69l1.3.15c.45.05.78.46.72.92Z"/>
      <path class="cls-16" d="M101.98,68.72l-.64,1.35c-.17.37-.62.51-.97.32l-1.22-.64c-.33-.17-.47-.57-.33-.91l.51-1.22c.15-.35.55-.53.91-.39l1.35.51c.39.15.57.6.39.97Z"/>
      <path class="cls-16" d="M66.97,138.95l-1.16-.44c-.44-.17-.66-.67-.46-1.11l.5-1.13c.19-.43.71-.61,1.13-.4l1.08.55c.39.2.55.66.39,1.05l-.43,1.01c-.17.41-.64.61-1.05.45Z"/>
      <path class="cls-16" d="M80.71,73.89c-19.65,1.63-31.81,23-23.97,40.98,8.66,19.88,35.67,23.79,49.52,6.99,16.74-20.33.62-50.14-25.55-47.97ZM61.63,117.69c-10.91-16.42-.16-39.22,19.42-40.89,18.81-1.61,33.41,15.97,27.82,34.15-6.5,21.17-34.95,25.22-47.25,6.74Z"/>
      <path class="cls-16" d="M81.4,79.71c-18.61,1.57-27.88,24.26-15.72,38.56,12.04,14.16,35.14,9.42,40.45-8.34,4.82-16.1-8.11-31.62-24.74-30.21ZM95.39,108.82c-.04.44-.12.9-.25,1.39-.12.49-.26.96-.41,1.41s-.26.78-.35,1c-.3.71-.7,1.34-1.19,1.9-.49.56-1.05,1.04-1.67,1.45-1.44.98-2.93,1.68-4.46,2.11-1.52.42-3.01.59-4.47.51s-2.87-.39-4.23-.94c-1.36-.55-2.59-1.29-3.7-2.25s-2.06-2.11-2.86-3.45-1.38-2.87-1.74-4.55c-.11.03-.32.05-.61.08-.3.03-.61.03-.94.02-.33-.01-.62-.05-.88-.1-.26-.05-.4-.15-.43-.29-.03-.13-.04-.28-.04-.45s-.01-.33-.04-.49c-.05-.51-.03-.88.08-1.1.11-.22.28-.35.53-.41.24-.05.53-.06.88-.02.34.04.71.06,1.12.06-.03-.22-.04-.42-.04-.59v-.59c-.44.03-.81.06-1.13.1-.31.04-.57.03-.78-.02-.21-.05-.36-.18-.47-.37-.11-.19-.18-.52-.21-.98-.03-.55.01-.93.12-1.15.11-.22.28-.35.51-.41.23-.05.52-.05.88,0,.35.05.78.08,1.27.08.44-2.7,1.3-4.96,2.6-6.8,1.29-1.84,2.88-3.27,4.76-4.29,1.88-1.02,3.99-1.66,6.33-1.9,2.34-.25,4.77-.12,7.27.37.27.05.6.12.98.18.38.07.76.16,1.15.29.38.12.73.26,1.06.43.33.16.58.37.78.61,0,1.25-.01,2.5-.04,3.74-.03,1.24-.01,2.48.04,3.74.03.44.06.86.1,1.27.04.41.06.83.06,1.27,0,.14-.03.29-.08.45-.05.16-.16.27-.33.33-.03,0-.22,0-.59-.02-.37-.01-.82-.03-1.35-.06-.53-.03-1.11-.07-1.74-.12-.63-.05-1.22-.1-1.78-.14-.56-.04-1.05-.07-1.47-.1-.42-.03-.67-.05-.75-.08l-.21-.25c-.03-.13-.03-.28-.02-.43.01-.15.02-.29.02-.43-.03-.82-.34-1.44-.94-1.88s-1.29-.61-2.08-.51c-.79.1-1.58.49-2.37,1.19-.79.69-1.38,1.78-1.76,3.25h3.68c.79,0,1.5.01,2.14.04s.99.08,1.04.16c.05.11.07.22.04.33-.03.11-.04.22-.04.33-.03.22-.01.5.04.84.05.34,0,.58-.16.72-.05.05-.24.1-.57.12-.33.03-.73.05-1.22.06-.49.01-1.02.02-1.57.02s-1.09,0-1.61-.02c-.52-.01-.97-.02-1.37-.02h-.8c0,.22,0,.44.02.68.01.23.03.46.06.67h3.82c.83,0,1.59.01,2.27.04.68.03,1.05.08,1.1.16.05.08.08.19.06.33-.01.14-.02.25-.02.33,0,.19.01.47.04.82.02.35-.03.6-.16.73-.08.08-.42.13-1.02.14s-1.27.02-2,.02h-3.47c.24.63.6,1.21,1.06,1.76.46.55.98.97,1.55,1.27.57.3,1.17.41,1.8.33.63-.08,1.23-.45,1.8-1.1.38-.41.63-.82.75-1.25.12-.42.28-.88.47-1.37.03-.08.23-.14.61-.19.38-.04.85-.05,1.41-.04.56.01,1.16.05,1.82.1.65.05,1.27.13,1.86.22.59.1,1.08.21,1.49.35s.67.27.78.41c.14.22.19.55.14.98Z"/>
    </g>
  </g>
  <g id="Kateg._Symbol" data-name="Kateg. Symbol">
    <g id="jCvsG5">
      <path class="cls-18" d="M14.94,10.67c.12-.09.3,0,.29.15-.04.89.15,1.8.59,2.57.7,1.21,1.87,1.54,2.22,3.08.71,3.1-2.81,5.2-5.44,3.74-1.15-.63-1.88-2.3-1.74-3.58.07-.65.37-1.28.78-1.78.1-.12.29-.09.35.05.29.68.74,1.35,1.45,1.62.21.08.41.15.61,0,.33-.24.03-.63-.08-.9-.74-1.8-.57-3.64.95-4.94,0,0,0,0,.01,0h0Z"/>
    </g>
    <g id="jCvsG5-2" data-name="jCvsG5">
      <path class="cls-18" d="M151.86,243.26c.12-.09.3,0,.29.15-.04.89.15,1.8.59,2.57.7,1.21,1.87,1.54,2.22,3.08.71,3.1-2.81,5.2-5.44,3.74-1.15-.63-1.88-2.3-1.74-3.58.07-.65.37-1.28.78-1.78.1-.12.29-.09.35.05.29.68.74,1.35,1.45,1.62.21.08.41.15.61,0,.33-.24.03-.63-.08-.9-.74-1.8-.57-3.64.95-4.94,0,0,0,0,.01,0h0Z"/>
    </g>
  </g>
  <g id="Kartentext">
    <g>
      <g class="cls-22">
        <text class="cls-4" transform="translate(22.02 179.29)"><tspan x="0" y="0">W</tspan></text>
        <text class="cls-6" transform="translate(32.69 179.29)"><tspan x="0" y="0">irf eine Münz</tspan></text>
        <text class="cls-7" transform="translate(94.12 179.29)"><tspan x="0" y="0">e, bei K</tspan></text>
        <text class="cls-6" transform="translate(129.16 179.29)"><tspan x="0" y="0">opf</tspan></text>
        <text class="cls-4" transform="translate(145.23 179.29)"><tspan x="0" y="0"> </tspan></text>
      </g>
      <text class="cls-15" transform="translate(22.02 179.29)"><tspan x="0" y="0">W</tspan></text>
      <text class="cls-14" transform="translate(32.69 179.29)"><tspan x="0" y="0">irf eine Münz</tspan></text>
      <text class="cls-12" transform="translate(94.12 179.29)"><tspan x="0" y="0">e, bei K</tspan></text>
      <text class="cls-14" transform="translate(129.16 179.29)"><tspan x="0" y="0">opf</tspan></text>
      <text class="cls-15" transform="translate(145.23 179.29)"><tspan x="0" y="0"> </tspan></text>
      <g class="cls-19">
        <text class="cls-5" transform="translate(42.84 191.28)"><tspan x="0" y="0">mus</tspan></text>
        <text class="cls-2" transform="translate(62.7 191.28)"><tspan x="0" y="0">st</tspan></text>
        <text class="cls-6" transform="translate(71.38 191.28)"><tspan x="0" y="0" xml:space="preserve"> du t</tspan></text>
        <text class="cls-3" transform="translate(92.41 191.28)"><tspan x="0" y="0">rink</tspan></text>
        <text class="cls-6" transform="translate(110.28 191.28)"><tspan x="0" y="0">en</tspan></text>
        <text class="cls-4" transform="translate(122.1 191.28)"><tspan x="0" y="0">.</tspan></text>
      </g>
      <text class="cls-13" transform="translate(42.84 191.28)"><tspan x="0" y="0">mus</tspan></text>
      <text class="cls-10" transform="translate(62.7 191.28)"><tspan x="0" y="0">st</tspan></text>
      <text class="cls-14" transform="translate(71.38 191.28)"><tspan x="0" y="0" xml:space="preserve"> du t</tspan></text>
      <text class="cls-11" transform="translate(92.41 191.28)"><tspan x="0" y="0">rink</tspan></text>
      <text class="cls-14" transform="translate(110.28 191.28)"><tspan x="0" y="0">en.</tspan></text>
    </g>
  </g>
</svg>