<?xml version="1.0" encoding="UTF-8"?>
<svg xmlns="http://www.w3.org/2000/svg" xmlns:xlink="http://www.w3.org/1999/xlink" viewBox="0 0 167.24 260.79">
  <defs>
    <style>
      .cls-1, .cls-2, .cls-3, .cls-4, .cls-5, .cls-6, .cls-7, .cls-8, .cls-9, .cls-10, .cls-11, .cls-12, .cls-13 {
        fill: none;
      }

      .cls-14 {
        fill: #010101;
      }

      .cls-15 {
        fill: #8d74b1;
      }

      .cls-2, .cls-3, .cls-16, .cls-4, .cls-5, .cls-6, .cls-7, .cls-8, .cls-9, .cls-10, .cls-11, .cls-12, .cls-13 {
        stroke: #fff;
      }

      .cls-2, .cls-3, .cls-4, .cls-5, .cls-6, .cls-7, .cls-8, .cls-17, .cls-18, .cls-19, .cls-20, .cls-21, .cls-9, .cls-22, .cls-23, .cls-24, .cls-25, .cls-26, .cls-10, .cls-11, .cls-12, .cls-27, .cls-13 {
        font-family: QuicksandBold-Regular, Quicksand;
        font-size: 10px;
      }

      .cls-28 {
        fill: #171717;
      }

      .cls-3, .cls-21 {
        letter-spacing: .02em;
      }

      .cls-16 {
        font-size: 12px;
        stroke-miterlimit: 10;
        stroke-width: .15px;
      }

      .cls-16, .cls-29 {
        font-family: Namaku, Namaku;
      }

      .cls-16, .cls-30, .cls-17, .cls-18, .cls-19, .cls-20, .cls-21, .cls-22, .cls-23, .cls-24, .cls-25, .cls-26, .cls-27 {
        fill: #fff;
      }

      .cls-4, .cls-18 {
        letter-spacing: -.05em;
      }

      .cls-31 {
        clip-path: url(#clippath-1);
      }

      .cls-32 {
        clip-path: url(#clippath-3);
      }

      .cls-33 {
        clip-path: url(#clippath-4);
      }

      .cls-34 {
        clip-path: url(#clippath-2);
      }

      .cls-35 {
        clip-path: url(#clippath-5);
      }

      .cls-5, .cls-17 {
        letter-spacing: -.05em;
      }

      .cls-29 {
        font-size: 15px;
      }

      .cls-29, .cls-36 {
        fill: #8d74b0;
      }

      .cls-6, .cls-25 {
        letter-spacing: -.08em;
      }

      .cls-7 {
        letter-spacing: -.02em;
      }

      .cls-8, .cls-22 {
        letter-spacing: -.02em;
      }

      .cls-19, .cls-12 {
        letter-spacing: -.04em;
      }

      .cls-20, .cls-11 {
        letter-spacing: -.04em;
      }

      .cls-37 {
        fill: #171715;
      }

      .cls-9, .cls-24 {
        letter-spacing: -.11em;
      }

      .cls-23, .cls-13 {
        letter-spacing: -.02em;
      }

      .cls-26, .cls-10 {
        letter-spacing: -.07em;
      }

      .cls-38 {
        clip-path: url(#clippath);
      }
    </style>
    <clipPath id="clippath">
      <rect class="cls-1" x="0" y="0" width="167.24" height="260.79"/>
    </clipPath>
    <clipPath id="clippath-1">
      <rect class="cls-1" x="0" y="0" width="167.24" height="260.79"/>
    </clipPath>
    <clipPath id="clippath-2">
      <rect class="cls-1" x="0" y="0" width="167.24" height="260.79"/>
    </clipPath>
    <clipPath id="clippath-3">
      <rect class="cls-1" x="0" y="0" width="167.24" height="260.79"/>
    </clipPath>
    <clipPath id="clippath-4">
      <rect class="cls-1" x="0" y="0" width="167.24" height="260.79"/>
    </clipPath>
    <clipPath id="clippath-5">
      <rect class="cls-1" x="0" y="0" width="167.24" height="260.79"/>
    </clipPath>
  </defs>
  <g id="Background">
    <rect class="cls-36" x="0" width="167.24" height="260.79"/>
  </g>
  <g id="Rahmen">
    <path class="cls-14" d="M151.9,23.16c9.65,0,9.67-15,0-15s-9.67,15,0,15h0Z"/>
    <path class="cls-14" d="M152.22,254.59c9.65,0,9.67-15,0-15s-9.67,15,0,15h0Z"/>
    <path class="cls-14" d="M14.14,254.72c9.65,0,9.67-15,0-15s-9.67,15,0,15h0Z"/>
    <path class="cls-28" d="M11.56,15.67c18.49.32,36.98.69,55.46,1.04,19.51.36,39.05-.42,58.56-.82,10.18-.21,20.36-.38,30.54-.21l-3.75-3.75c-1.46,11.81-1.7,23.8-1.97,35.69-.33,14.15-.39,28.31-.37,42.46.01,9.3.14,18.61.07,27.91-.06,7.86-.43,15.71-.48,23.57-.07,11.29.08,22.59.37,33.88.56,22.38,1.59,44.74,2.18,67.12.07,2.79.14,5.57.2,8.36l3.75-3.75c-15.41-.13-30.81.06-46.22.48-24.85.69-49.67.84-74.52.24-8.25-.2-16.49-.49-24.74-.73l3.75,3.75c-.56-4.87-.34-9.89-.27-14.78.11-8.38.38-16.76.66-25.14.66-20.11,1.45-40.22,1.83-60.34.16-8.4.26-16.81.05-25.21-.13-5.24-.51-10.46-.61-15.7-.33-17.03-.19-34.08-.18-51.11,0-8.91,0-17.82-.06-26.73-.04-5.94-.04-11.89-.34-17.82-.04-.72-.08-1.43-.15-2.15-.19-1.95-1.59-3.85-3.75-3.75-1.87.08-3.96,1.66-3.75,3.75.48,4.83.39,9.76.44,14.61.09,8.42.1,16.84.11,25.25,0,17.78-.1,35.55.11,53.33.06,5.22.27,10.41.52,15.62.36,7.73.31,15.47.21,23.21-.24,20.03-1.02,40.04-1.7,60.06-.3,8.95-.6,17.9-.79,26.85-.13,5.9-.3,11.84,0,17.74.04.78.09,1.55.18,2.32.24,2.06,1.53,3.69,3.75,3.75,18.27.53,36.53,1.09,54.81,1.16,23.38.09,46.73-.97,70.1-1.19,6.85-.06,13.71-.03,20.56.02,2,.02,3.79-1.73,3.75-3.75-.48-22.44-1.5-44.87-2.16-67.3-.33-11.25-.57-22.51-.6-33.77-.03-10.16.25-20.29.47-30.44.18-8.23-.03-16.48-.05-24.72-.03-13.94,0-27.88.25-41.82.23-12.54.48-25.14,1.72-37.62.11-1.1.23-2.21.37-3.31.25-2.04-1.92-3.72-3.75-3.75-19.14-.32-38.3.42-57.44.81-9.78.2-19.58.45-29.37.27-7.76-.14-15.52-.3-23.28-.45-11.49-.22-22.99-.44-34.48-.63-1.96-.03-3.84,1.75-3.75,3.75s1.65,3.71,3.75,3.75h0Z"/>
    <polygon class="cls-28" points="26.61 14.43 14.5 29.16 14.18 13.04 26.61 14.43"/>
    <polygon class="cls-28" points="140.79 14.16 152.35 27.66 154.57 11.89 140.79 14.16"/>
    <polygon class="cls-28" points="139.48 248.15 153.14 235.93 156.07 248.65 139.48 248.15"/>
    <polygon class="cls-28" points="12.9 235.54 26.24 248.54 12.31 249.36 12.9 235.54"/>
    <rect class="cls-28" width="10.32" height="260.79"/>
    <rect class="cls-28" y="249.36" width="167.24" height="11.43"/>
    <rect class="cls-37" width="167.24" height="10.33"/>
    <rect class="cls-28" x="156.12" width="11.13" height="260.79"/>
    <path class="cls-28" d="M117.73,17.19c0-.85.31-3.85,0-4.78-.82-2.49-3.11-2.81-5.35-2.81h-57.51c-2.24,0-4.53.32-5.35,2.81-.31.93,0,3.93,0,4.78l-.25,5.71c-.49,5.31,7.64,4.59,10.71,4.59l17.71.37,5.93-.07h0l5.93.07,17.71-.37c3.08,0,11.2.72,10.71-4.59l-.24-5.71Z"/>
    <path class="cls-14" d="M151.9,23.16c9.65,0,9.67-15,0-15s-9.67,15,0,15h0Z"/>
    <path class="cls-14" d="M152.22,254.59c9.65,0,9.67-15,0-15s-9.67,15,0,15h0Z"/>
    <path class="cls-14" d="M14.14,254.72c9.65,0,9.67-15,0-15s-9.67,15,0,15h0Z"/>
    <path class="cls-28" d="M11.56,15.67c18.49.32,36.98.69,55.46,1.04,19.51.36,39.05-.42,58.56-.82,10.18-.21,20.36-.38,30.54-.21l-3.75-3.75c-1.46,11.81-1.7,23.8-1.97,35.69-.33,14.15-.39,28.31-.37,42.46.01,9.3.14,18.61.07,27.91-.06,7.86-.43,15.71-.48,23.57-.07,11.29.08,22.59.37,33.88.56,22.38,1.59,44.74,2.18,67.12.07,2.79.14,5.57.2,8.36l3.75-3.75c-15.41-.13-30.81.06-46.22.48-24.85.69-49.67.84-74.52.24-8.25-.2-16.49-.49-24.74-.73l3.75,3.75c-.56-4.87-.34-9.89-.27-14.78.11-8.38.38-16.76.66-25.14.66-20.11,1.45-40.22,1.83-60.34.16-8.4.26-16.81.05-25.21-.13-5.24-.51-10.46-.61-15.7-.33-17.03-.19-34.08-.18-51.11,0-8.91,0-17.82-.06-26.73-.04-5.94-.04-11.89-.34-17.82-.04-.72-.08-1.43-.15-2.15-.19-1.95-1.59-3.85-3.75-3.75-1.87.08-3.96,1.66-3.75,3.75.48,4.83.39,9.76.44,14.61.09,8.42.1,16.84.11,25.25,0,17.78-.1,35.55.11,53.33.06,5.22.27,10.41.52,15.62.36,7.73.31,15.47.21,23.21-.24,20.03-1.02,40.04-1.7,60.06-.3,8.95-.6,17.9-.79,26.85-.13,5.9-.3,11.84,0,17.74.04.78.09,1.55.18,2.32.24,2.06,1.53,3.69,3.75,3.75,18.27.53,36.53,1.09,54.81,1.16,23.38.09,46.73-.97,70.1-1.19,6.85-.06,13.71-.03,20.56.02,2,.02,3.79-1.73,3.75-3.75-.48-22.44-1.5-44.87-2.16-67.3-.33-11.25-.57-22.51-.6-33.77-.03-10.16.25-20.29.47-30.44.18-8.23-.03-16.48-.05-24.72-.03-13.94,0-27.88.25-41.82.23-12.54.48-25.14,1.72-37.62.11-1.1.23-2.21.37-3.31.25-2.04-1.92-3.72-3.75-3.75-19.14-.32-38.3.42-57.44.81-9.78.2-19.58.45-29.37.27-7.76-.14-15.52-.3-23.28-.45-11.49-.22-22.99-.44-34.48-.63-1.96-.03-3.84,1.75-3.75,3.75s1.65,3.71,3.75,3.75h0Z"/>
    <polygon class="cls-28" points="26.61 14.43 14.5 29.16 14.18 13.04 26.61 14.43"/>
    <polygon class="cls-28" points="140.79 14.16 152.35 27.66 154.57 11.89 140.79 14.16"/>
    <polygon class="cls-28" points="139.48 248.15 153.14 235.93 156.07 248.65 139.48 248.15"/>
    <polygon class="cls-28" points="12.9 235.54 26.24 248.54 12.31 249.36 12.9 235.54"/>
    <rect class="cls-28" width="10.32" height="260.79"/>
    <rect class="cls-28" y="249.36" width="167.24" height="11.43"/>
    <rect class="cls-37" width="167.24" height="10.33"/>
    <rect class="cls-28" x="156.12" width="11.13" height="260.79"/>
  </g>
  <g id="Kategorie_Name" data-name="Kategorie Name">
    <text class="cls-29" transform="translate(53.57 22.56) scale(1 1.09)"><tspan x="0" y="0">aufgabe</tspan></text>
  </g>
  <g id="Schlücke">
    <text class="cls-16" transform="translate(4.25 252.82)"><tspan x="0" y="0">+4</tspan></text>
    <text class="cls-16" transform="translate(147.52 19.77)"><tspan x="0" y="0">+4</tspan></text>
  </g>
  <g id="Motive">
    <g>
      <path class="cls-28" d="M75.6,72.2c9.08,1.09,12.62,13.14,5.5,19.13-7.48,6.3-18.73.27-17.87-9.39.42-4.69,4.61-9.18,9.32-9.74.69-.08,2.36-.08,3.05,0Z"/>
      <path class="cls-28" d="M84.73,129.06c-.12.23-.17.48-.19.74-.76,6.92-1.01,14.33-2.06,21.15-.38,2.45-1.88,4.74-4.51,5.15-1.56.24-5.79.2-7.42.05-2.2-.2-4.06-1.84-4.74-3.9l-2.44-23.1c-2.3-.25-5.14.54-5.61-2.55l2.39-24.87c.27-2.68,2.14-4.76,4.81-5.19,5.76.46,12.49-.61,18.13,0,1.72.19,3.61,1.59,4.28,3.17,1.51,8.85,1.98,17.93,2.92,26.89-.45,3-3.28,2.43-5.57,2.48Z"/>
      <g>
        <path class="cls-28" d="M78.95,77.7c.07,1.65,1.86,2.7,3.3,1.8,1.55-.96,3.6-3.84,5.17-5.13.23-.19.52-.48.82-.53h17.89c1.8-.22,3.03-1.35,3.19-3.19.49-5.66-.37-12.02,0-17.76-.15-1.46-1.14-2.52-2.54-2.88l-24.92-.04c-1.77.23-2.78,1.43-2.91,3.19-.59,7.92.46,16.55,0,24.55ZM100.7,59.72c-2.58.01-5.47.03-7.71,0-1.13-.18-1.44-1.73-.28-2.16l8.09.02c.85.5.9,1.91-.1,2.13ZM87.68,64.14l13.41-.04c.92.48,1.01,1.75.01,2.19-4.19.03-9.86.04-13.41-.05-1.23-.11-1.01-1.95-.01-2.1Z"/>
        <path class="cls-15" d="M81.13,79.99c-3.27-.15-2.24-4.41-2.23-6.52.01-3.3-.13-6.6-.22-9.9s-.18-6.72.08-10.05c.14-1.85,1.03-3.52,3.07-3.71,1.79-.17,3.68,0,5.47,0l10.27.02h8.2c.29.01.59.02.88.01.08,0,.16,0,.23,0,.26.02-.38-.08-.08,0,1.05.29,1.97.95,2.42,1.98s.2,2.12.18,3.2c-.06,3.37.17,6.74.23,10.11.03,1.57.02,3.15-.08,4.72-.08,1.23-.26,2.44-1.27,3.28-1.64,1.37-4.4.87-6.35.87h-11.06c-.75,0-1.56-.08-2.3,0-1.23.15-2.3,1.72-3.06,2.56-1.12,1.25-2.55,3.33-4.38,3.44-1.6.09-1.61,2.59,0,2.5,3.77-.21,5.73-4.13,8.32-6.36l-.88.37c5.54,0,11.08,0,16.63,0,3.44,0,6.37-1.92,6.77-5.56s.14-7.05.02-10.55c-.06-1.71-.11-3.43-.09-5.14.02-1.11.2-2.23-.04-3.32-.48-2.19-2.31-4.13-4.56-4.54-.55-.1-1.14-.05-1.7-.05h-9c-3.5-.02-7-.02-10.51-.03-1.74,0-3.7-.26-5.41.18-2.91.75-4.23,3.22-4.43,6.03-.29,3.98-.14,7.99-.02,11.97s.27,7.79.07,11.68c-.14,2.9,1.91,5.19,4.82,5.33,1.61.07,1.6-2.43,0-2.5Z"/>
      </g>
    </g>
  </g>
  <g id="Kateg._Symbol" data-name="Kateg. Symbol">
    <g id="jCvsG5">
      <path class="cls-30" d="M14.94,10.67c.12-.09.3,0,.29.15-.04.89.15,1.8.59,2.57.7,1.21,1.87,1.54,2.22,3.08.71,3.1-2.81,5.2-5.44,3.74-1.15-.63-1.88-2.3-1.74-3.58.07-.65.37-1.28.78-1.78.1-.12.29-.09.35.05.29.68.74,1.35,1.45,1.62.21.08.41.15.61,0,.33-.24.03-.63-.08-.9-.74-1.8-.57-3.64.95-4.94,0,0,0,0,.01,0h0Z"/>
    </g>
    <g id="jCvsG5-2" data-name="jCvsG5">
      <path class="cls-30" d="M151.86,243.26c.12-.09.3,0,.29.15-.04.89.15,1.8.59,2.57.7,1.21,1.87,1.54,2.22,3.08.71,3.1-2.81,5.2-5.44,3.74-1.15-.63-1.88-2.3-1.74-3.58.07-.65.37-1.28.78-1.78.1-.12.29-.09.35.05.29.68.74,1.35,1.45,1.62.21.08.41.15.61,0,.33-.24.03-.63-.08-.9-.74-1.8-.57-3.64.95-4.94,0,0,0,0,.01,0h0Z"/>
    </g>
  </g>
  <g id="Kartentext">
    <g>
      <g class="cls-38">
        <text class="cls-13" transform="translate(41.87 178.29)"><tspan x="0" y="0">Umschr</tspan></text>
        <text class="cls-8" transform="translate(78.97 178.29)"><tspan x="0" y="0">eiben: Ein</tspan></text>
        <text class="cls-2" transform="translate(125.16 178.29)"><tspan x="0" y="0"> </tspan></text>
      </g>
      <text class="cls-23" transform="translate(41.87 178.29)"><tspan x="0" y="0">Umschr</tspan></text>
      <text class="cls-22" transform="translate(78.97 178.29)"><tspan x="0" y="0">eiben: Ein</tspan></text>
      <text class="cls-27" transform="translate(125.16 178.29)"><tspan x="0" y="0"> </tspan></text>
      <g class="cls-31">
        <text class="cls-13" transform="translate(26.6 190.29)"><tspan x="0" y="0">Mitsp</tspan></text>
        <text class="cls-13" transform="translate(52.06 190.29)"><tspan x="0" y="0">iel</tspan></text>
        <text class="cls-12" transform="translate(63.3 190.29)"><tspan x="0" y="0">er</tspan></text>
        <text class="cls-13" transform="translate(73.17 190.29)"><tspan x="0" y="0" xml:space="preserve"> gibt dir einen</tspan></text>
        <text class="cls-2" transform="translate(140.43 190.29)"><tspan x="0" y="0"> </tspan></text>
      </g>
      <text class="cls-23" transform="translate(26.6 190.29)"><tspan x="0" y="0">Mitsp</tspan></text>
      <text class="cls-23" transform="translate(52.06 190.29)"><tspan x="0" y="0">iel</tspan></text>
      <text class="cls-19" transform="translate(63.3 190.29)"><tspan x="0" y="0">er</tspan></text>
      <text class="cls-23" transform="translate(73.17 190.29)"><tspan x="0" y="0" xml:space="preserve"> gibt dir einen</tspan></text>
      <text class="cls-27" transform="translate(140.43 190.29)"><tspan x="0" y="0"> </tspan></text>
      <g class="cls-34">
        <text class="cls-13" transform="translate(27.95 202.29)"><tspan x="0" y="0">sch</tspan></text>
        <text class="cls-6" transform="translate(43.95 202.29)"><tspan x="0" y="0">wi</tspan></text>
        <text class="cls-2" transform="translate(54.36 202.29)"><tspan x="0" y="0">e</tspan></text>
        <text class="cls-13" transform="translate(60.03 202.29)"><tspan x="0" y="0">rigen Begriff </tspan></text>
        <text class="cls-5" transform="translate(122.33 202.29)"><tspan x="0" y="0">vo</tspan></text>
        <text class="cls-9" transform="translate(133.5 202.29)"><tspan x="0" y="0">r.</tspan></text>
        <text class="cls-2" transform="translate(139.09 202.29)"><tspan x="0" y="0"> </tspan></text>
      </g>
      <text class="cls-23" transform="translate(27.95 202.29)"><tspan x="0" y="0">sch</tspan></text>
      <text class="cls-25" transform="translate(43.95 202.29)"><tspan x="0" y="0">wi</tspan></text>
      <text class="cls-27" transform="translate(54.36 202.29)"><tspan x="0" y="0">e</tspan></text>
      <text class="cls-23" transform="translate(60.03 202.29)"><tspan x="0" y="0">rigen Begriff </tspan></text>
      <text class="cls-17" transform="translate(122.33 202.29)"><tspan x="0" y="0">vo</tspan></text>
      <text class="cls-24" transform="translate(133.5 202.29)"><tspan x="0" y="0">r.</tspan></text>
      <text class="cls-27" transform="translate(139.09 202.29)"><tspan x="0" y="0"> </tspan></text>
      <g class="cls-32">
        <text class="cls-13" transform="translate(24.85 214.29)"><tspan x="0" y="0">Die </tspan></text>
        <text class="cls-10" transform="translate(43.13 214.29)"><tspan x="0" y="0">re</tspan></text>
        <text class="cls-2" transform="translate(52.72 214.29)"><tspan x="0" y="0">s</tspan></text>
        <text class="cls-7" transform="translate(57.59 214.29)"><tspan x="0" y="0">tliche Gruppe </tspan></text>
        <text class="cls-3" transform="translate(125.87 214.29)"><tspan x="0" y="0">ha</tspan></text>
        <text class="cls-2" transform="translate(138.19 214.29)"><tspan x="0" y="0">t </tspan></text>
      </g>
      <text class="cls-23" transform="translate(24.85 214.29)"><tspan x="0" y="0">Die </tspan></text>
      <text class="cls-26" transform="translate(43.13 214.29)"><tspan x="0" y="0">re</tspan></text>
      <text class="cls-27" transform="translate(52.72 214.29)"><tspan x="0" y="0">s</tspan></text>
      <text class="cls-23" transform="translate(57.59 214.29)"><tspan x="0" y="0">tliche Gruppe </tspan></text>
      <text class="cls-21" transform="translate(125.87 214.29)"><tspan x="0" y="0">ha</tspan></text>
      <text class="cls-27" transform="translate(138.19 214.29)"><tspan x="0" y="0">t </tspan></text>
      <g class="cls-33">
        <text class="cls-8" transform="translate(26.59 226.29)"><tspan x="0" y="0">30 Sek</tspan></text>
        <text class="cls-11" transform="translate(59.85 226.29)"><tspan x="0" y="0">und</tspan></text>
        <text class="cls-8" transform="translate(77.52 226.29)"><tspan x="0" y="0">en Z</tspan></text>
        <text class="cls-13" transform="translate(98.36 226.29)"><tspan x="0" y="0">eit, es zu</tspan></text>
        <text class="cls-2" transform="translate(140.44 226.29)"><tspan x="0" y="0"> </tspan></text>
      </g>
      <text class="cls-22" transform="translate(26.59 226.29)"><tspan x="0" y="0">30 Sek</tspan></text>
      <text class="cls-20" transform="translate(59.85 226.29)"><tspan x="0" y="0">und</tspan></text>
      <text class="cls-22" transform="translate(77.52 226.29)"><tspan x="0" y="0">en Z</tspan></text>
      <text class="cls-23" transform="translate(98.36 226.29)"><tspan x="0" y="0">eit, es zu</tspan></text>
      <text class="cls-27" transform="translate(140.44 226.29)"><tspan x="0" y="0"> </tspan></text>
      <g class="cls-35">
        <text class="cls-12" transform="translate(64.85 238.29)"><tspan x="0" y="0">er</tspan></text>
        <text class="cls-4" transform="translate(74.73 238.29)"><tspan x="0" y="0">ra</tspan></text>
        <text class="cls-2" transform="translate(84.66 238.29)"><tspan x="0" y="0">t</tspan></text>
        <text class="cls-13" transform="translate(88.05 238.29)"><tspan x="0" y="0">en.</tspan></text>
      </g>
      <text class="cls-19" transform="translate(64.85 238.29)"><tspan x="0" y="0">er</tspan></text>
      <text class="cls-18" transform="translate(74.73 238.29)"><tspan x="0" y="0">ra</tspan></text>
      <text class="cls-27" transform="translate(84.66 238.29)"><tspan x="0" y="0">t</tspan></text>
      <text class="cls-23" transform="translate(88.05 238.29)"><tspan x="0" y="0">en.</tspan></text>
    </g>
  </g>
</svg>