<?xml version="1.0" encoding="UTF-8"?>
<svg xmlns="http://www.w3.org/2000/svg" viewBox="0 0 167.24 260.79">
  <defs>
    <style>
      .cls-1 {
        fill: #010101;
      }

      .cls-2, .cls-3 {
        fill: #171717;
      }

      .cls-3 {
        stroke: #171717;
        stroke-width: 2px;
      }

      .cls-3, .cls-4 {
        stroke-miterlimit: 10;
      }

      .cls-4 {
        stroke: #fff;
        stroke-width: .15px;
      }

      .cls-4, .cls-5 {
        fill: #fff;
      }

      .cls-6 {
        font-family: Namaku, Namaku;
        font-size: 15px;
      }

      .cls-6, .cls-7 {
        fill: #8d74b0;
      }

      .cls-8 {
        fill: #171715;
      }
    </style>
  </defs>
  <g id="Background">
    <rect class="cls-7" width="167.24" height="260.79"/>
  </g>
  <g id="Rahmen">
    <path class="cls-1" d="M151.9,23.16c9.65,0,9.67-15,0-15s-9.67,15,0,15h0Z"/>
    <path class="cls-1" d="M152.22,254.59c9.65,0,9.67-15,0-15s-9.67,15,0,15h0Z"/>
    <path class="cls-1" d="M14.14,254.72c9.65,0,9.67-15,0-15s-9.67,15,0,15h0Z"/>
    <path class="cls-2" d="M11.56,15.67c18.49.32,36.98.69,55.46,1.04,19.51.36,39.05-.42,58.56-.82,10.18-.21,20.36-.38,30.54-.21l-3.75-3.75c-1.46,11.81-1.7,23.8-1.97,35.69-.33,14.15-.39,28.31-.37,42.46.01,9.3.14,18.61.07,27.91-.06,7.86-.43,15.71-.48,23.57-.07,11.29.08,22.59.37,33.88.56,22.38,1.59,44.74,2.18,67.12.07,2.79.14,5.57.2,8.36l3.75-3.75c-15.41-.13-30.81.06-46.22.48-24.85.69-49.67.84-74.52.24-8.25-.2-16.49-.49-24.74-.73l3.75,3.75c-.56-4.87-.34-9.89-.27-14.78.11-8.38.38-16.76.66-25.14.66-20.11,1.45-40.22,1.83-60.34.16-8.4.26-16.81.05-25.21-.13-5.24-.51-10.46-.61-15.7-.33-17.03-.19-34.08-.18-51.11,0-8.91,0-17.82-.06-26.73-.04-5.94-.04-11.89-.34-17.82-.04-.72-.08-1.43-.15-2.15-.19-1.95-1.59-3.85-3.75-3.75-1.87.08-3.96,1.66-3.75,3.75.48,4.83.39,9.76.44,14.61.09,8.42.1,16.84.11,25.25,0,17.78-.1,35.55.11,53.33.06,5.22.27,10.41.52,15.62.36,7.73.31,15.47.21,23.21-.24,20.03-1.02,40.04-1.7,60.06-.3,8.95-.6,17.9-.79,26.85-.13,5.9-.3,11.84,0,17.74.04.78.09,1.55.18,2.32.24,2.06,1.53,3.69,3.75,3.75,18.27.53,36.53,1.09,54.81,1.16,23.38.09,46.73-.97,70.1-1.19,6.85-.06,13.71-.03,20.56.02,2,.02,3.79-1.73,3.75-3.75-.48-22.44-1.5-44.87-2.16-67.3-.33-11.25-.57-22.51-.6-33.77-.03-10.16.25-20.29.47-30.44.18-8.23-.03-16.48-.05-24.72-.03-13.94,0-27.88.25-41.82.23-12.54.48-25.14,1.72-37.62.11-1.1.23-2.21.37-3.31.25-2.04-1.92-3.72-3.75-3.75-19.14-.32-38.3.42-57.44.81-9.78.2-19.58.45-29.37.27-7.76-.14-15.52-.3-23.28-.45-11.49-.22-22.99-.44-34.48-.63-1.96-.03-3.84,1.75-3.75,3.75s1.65,3.71,3.75,3.75h0Z"/>
    <polygon class="cls-2" points="26.61 14.43 14.5 29.16 14.18 13.04 26.61 14.43"/>
    <polygon class="cls-2" points="140.79 14.16 152.35 27.66 154.57 11.89 140.79 14.16"/>
    <polygon class="cls-2" points="139.48 248.15 153.14 235.93 156.07 248.65 139.48 248.15"/>
    <polygon class="cls-2" points="12.9 235.54 26.24 248.54 12.31 249.36 12.9 235.54"/>
    <rect class="cls-2" width="10.32" height="260.79"/>
    <rect class="cls-2" y="249.36" width="167.24" height="11.43"/>
    <rect class="cls-8" width="167.24" height="10.33"/>
    <rect class="cls-2" x="156.12" width="11.13" height="260.79"/>
    <path class="cls-2" d="M117.73,17.19c0-.85.31-3.85,0-4.78-.82-2.49-3.11-2.81-5.35-2.81h-57.51c-2.24,0-4.53.32-5.35,2.81-.31.93,0,3.93,0,4.78l-.25,5.71c-.49,5.31,7.64,4.59,10.71,4.59l17.71.37,5.93-.07h0l5.93.07,17.71-.37c3.08,0,11.2.72,10.71-4.59l-.24-5.71Z"/>
    <path class="cls-1" d="M151.9,23.16c9.65,0,9.67-15,0-15s-9.67,15,0,15h0Z"/>
    <path class="cls-1" d="M152.22,254.59c9.65,0,9.67-15,0-15s-9.67,15,0,15h0Z"/>
    <path class="cls-1" d="M14.14,254.72c9.65,0,9.67-15,0-15s-9.67,15,0,15h0Z"/>
    <path class="cls-2" d="M11.56,15.67c18.49.32,36.98.69,55.46,1.04,19.51.36,39.05-.42,58.56-.82,10.18-.21,20.36-.38,30.54-.21l-3.75-3.75c-1.46,11.81-1.7,23.8-1.97,35.69-.33,14.15-.39,28.31-.37,42.46.01,9.3.14,18.61.07,27.91-.06,7.86-.43,15.71-.48,23.57-.07,11.29.08,22.59.37,33.88.56,22.38,1.59,44.74,2.18,67.12.07,2.79.14,5.57.2,8.36l3.75-3.75c-15.41-.13-30.81.06-46.22.48-24.85.69-49.67.84-74.52.24-8.25-.2-16.49-.49-24.74-.73l3.75,3.75c-.56-4.87-.34-9.89-.27-14.78.11-8.38.38-16.76.66-25.14.66-20.11,1.45-40.22,1.83-60.34.16-8.4.26-16.81.05-25.21-.13-5.24-.51-10.46-.61-15.7-.33-17.03-.19-34.08-.18-51.11,0-8.91,0-17.82-.06-26.73-.04-5.94-.04-11.89-.34-17.82-.04-.72-.08-1.43-.15-2.15-.19-1.95-1.59-3.85-3.75-3.75-1.87.08-3.96,1.66-3.75,3.75.48,4.83.39,9.76.44,14.61.09,8.42.1,16.84.11,25.25,0,17.78-.1,35.55.11,53.33.06,5.22.27,10.41.52,15.62.36,7.73.31,15.47.21,23.21-.24,20.03-1.02,40.04-1.7,60.06-.3,8.95-.6,17.9-.79,26.85-.13,5.9-.3,11.84,0,17.74.04.78.09,1.55.18,2.32.24,2.06,1.53,3.69,3.75,3.75,18.27.53,36.53,1.09,54.81,1.16,23.38.09,46.73-.97,70.1-1.19,6.85-.06,13.71-.03,20.56.02,2,.02,3.79-1.73,3.75-3.75-.48-22.44-1.5-44.87-2.16-67.3-.33-11.25-.57-22.51-.6-33.77-.03-10.16.25-20.29.47-30.44.18-8.23-.03-16.48-.05-24.72-.03-13.94,0-27.88.25-41.82.23-12.54.48-25.14,1.72-37.62.11-1.1.23-2.21.37-3.31.25-2.04-1.92-3.72-3.75-3.75-19.14-.32-38.3.42-57.44.81-9.78.2-19.58.45-29.37.27-7.76-.14-15.52-.3-23.28-.45-11.49-.22-22.99-.44-34.48-.63-1.96-.03-3.84,1.75-3.75,3.75s1.65,3.71,3.75,3.75h0Z"/>
    <polygon class="cls-2" points="26.61 14.43 14.5 29.16 14.18 13.04 26.61 14.43"/>
    <polygon class="cls-2" points="140.79 14.16 152.35 27.66 154.57 11.89 140.79 14.16"/>
    <polygon class="cls-2" points="139.48 248.15 153.14 235.93 156.07 248.65 139.48 248.15"/>
    <polygon class="cls-2" points="12.9 235.54 26.24 248.54 12.31 249.36 12.9 235.54"/>
    <rect class="cls-2" width="10.32" height="260.79"/>
    <rect class="cls-2" y="249.36" width="167.24" height="11.43"/>
    <rect class="cls-8" width="167.24" height="10.33"/>
    <rect class="cls-2" x="156.12" width="11.13" height="260.79"/>
  </g>
  <g id="Kategorie_Name" data-name="Kategorie Name">
    <text class="cls-6" transform="translate(53.57 22.56) scale(1 1.09)"><tspan x="0" y="0">aufgabe</tspan></text>
  </g>
  <g id="Schlücke">
    <g>
      <path class="cls-4" d="M9.42,250.32s0,.17,0,.37c0,.2,0,.41-.01.64,0,.23-.01.43-.02.61,0,.18-.01.27-.01.28-.03.08-.13.14-.31.17-.17.03-.36.05-.58.06s-.42,0-.62,0c-.2,0-.34-.01-.42-.01-.04,0-.09,0-.15,0-.06,0-.12,0-.18,0s-.12,0-.17-.02c-.05-.02-.09-.04-.1-.08,0-.02-.01-.07-.01-.16s0-.21,0-.35.01-.29.02-.45.01-.31.02-.46c0-.15,0-.28.01-.39,0-.11,0-.19,0-.24-.07,0-.21,0-.43.01s-.43.01-.67.02c-.23,0-.44,0-.64,0-.19,0-.31-.02-.35-.04-.06-.03-.11-.09-.13-.17,0-.03-.01-.15-.01-.34s0-.41.01-.65c0-.24.02-.46.03-.66.01-.2.02-.33.03-.39.02-.11.07-.19.16-.24.04-.02.15-.04.33-.05.18-.01.38-.02.59-.03s.42-.01.61-.02c.2,0,.33,0,.4,0,0-.07,0-.2-.02-.38-.02-.18-.03-.37-.04-.56,0-.19-.01-.37-.02-.53s0-.27.03-.31c.04-.07.1-.12.17-.14.02,0,.13-.01.33-.02.2,0,.41,0,.65,0,.24,0,.46,0,.67.01s.34,0,.39.02c.05,0,.09.02.14.04.04.02.08.05.1.1.02.06.05.17.07.34s.04.35.05.55c.01.2.02.38.04.56.01.18.02.31.02.39.12,0,.26,0,.41,0,.16,0,.31,0,.47.01.16,0,.32.01.47.02s.28.03.4.05c.06.05.11.09.14.13.03.04.05.1.05.19v.63c0,.16,0,.32,0,.5s0,.34-.01.49c0,.15,0,.27-.01.37,0,.1-.01.15-.02.16-.02.04-.12.06-.3.06s-.37,0-.58-.02c-.21-.01-.42-.03-.61-.05-.2-.02-.33-.03-.39-.03Z"/>
      <path class="cls-4" d="M16.67,247.92c.5.13.89.37,1.16.74.27.36.41.77.44,1.21.02.44-.07.89-.29,1.34s-.56.83-1.02,1.15c-.46.31-1.05.51-1.76.61s-1.54,0-2.49-.27c-.06-.02-.15-.04-.25-.06s-.19-.06-.28-.1-.15-.09-.2-.15c-.05-.06-.05-.14-.01-.23.08-.2.15-.4.2-.61.05-.21.09-.42.1-.62,0-.06.01-.15.01-.25s.03-.18.1-.22c.02,0,.08,0,.19.02.11.02.24.05.4.08.16.03.34.06.54.08.2.02.4.02.59,0,.2-.02.38-.08.56-.16s.33-.21.46-.38c.08-.1.13-.21.14-.33s0-.23-.03-.34c-.04-.11-.1-.21-.18-.29s-.19-.16-.31-.2c-.1-.03-.2-.05-.32-.06-.12,0-.24,0-.37,0-.12.01-.25.03-.37.04-.12.02-.23.03-.34.04h-.15c-.06,0-.1-.03-.11-.08.04-.21.08-.46.11-.76.03-.3.03-.55,0-.76.02-.04.13-.07.33-.09.2-.02.41-.06.65-.11.24-.05.45-.14.65-.25s.32-.29.36-.51c.03-.18-.01-.33-.13-.47-.12-.14-.26-.23-.42-.28-.21-.06-.45-.06-.73.02-.28.08-.54.16-.79.25s-.47.14-.64.16c-.18.02-.26-.06-.26-.23v-.84c0-.18,0-.34,0-.49,0-.15.01-.24.03-.27.04-.09.11-.15.2-.18.78-.27,1.49-.4,2.12-.38.63.02,1.17.13,1.61.33.45.2.8.48,1.07.82.26.34.42.7.47,1.08.05.38,0,.75-.18,1.12-.17.36-.47.67-.88.92Z"/>
    </g>
    <g>
      <path class="cls-4" d="M152.7,17.28s0,.17,0,.37c0,.2,0,.41-.01.64,0,.23,0,.43-.02.61,0,.18-.01.27-.01.28-.03.08-.13.14-.31.17-.17.03-.36.05-.58.06s-.42,0-.62,0c-.2,0-.34-.01-.42-.01-.04,0-.09,0-.15,0-.06,0-.12,0-.18,0s-.12,0-.17-.02c-.05-.02-.09-.04-.1-.08,0-.02-.01-.07-.01-.16s0-.21,0-.35,0-.29.02-.45.01-.31.02-.46c0-.15,0-.28.01-.39,0-.11,0-.19,0-.24-.07,0-.21,0-.43.01s-.43.01-.67.02c-.23,0-.44,0-.64,0-.19,0-.31-.02-.35-.04-.06-.03-.11-.09-.13-.17,0-.03-.01-.15-.01-.34s0-.41.01-.65c0-.24.02-.46.03-.66s.02-.33.03-.39c.02-.11.07-.19.16-.24.04-.02.15-.04.33-.05.18-.01.38-.02.59-.03s.42-.01.61-.02c.2,0,.33,0,.4,0,0-.07,0-.2-.02-.38s-.03-.37-.04-.56c0-.19-.01-.37-.02-.53s0-.27.03-.31c.04-.07.1-.12.17-.14.02,0,.13-.01.33-.02.2,0,.41,0,.65,0s.46,0,.67.01.34,0,.39.02c.05,0,.09.02.14.04.04.02.08.05.1.1.02.06.05.17.07.34.02.17.04.35.05.55s.02.38.04.56c.01.18.02.31.02.39.12,0,.26,0,.41,0,.16,0,.31,0,.47.01.16,0,.32.01.47.02.15.01.28.03.4.05.06.05.11.09.14.13.03.04.05.1.05.19v.63c0,.16,0,.32,0,.5s0,.34-.01.49c0,.15,0,.27-.01.37,0,.1,0,.15-.02.16-.02.04-.12.06-.3.06s-.37,0-.58-.02c-.21-.01-.42-.03-.61-.05-.2-.02-.33-.03-.39-.03Z"/>
      <path class="cls-4" d="M159.94,14.88c.5.13.89.37,1.16.74.27.36.41.77.44,1.21.02.44-.07.89-.29,1.34s-.56.83-1.02,1.15c-.46.31-1.05.51-1.76.61s-1.54,0-2.49-.27c-.06-.02-.15-.04-.25-.06-.1-.02-.19-.06-.28-.1s-.15-.09-.2-.15-.05-.14-.01-.23c.08-.2.15-.4.2-.61.05-.21.09-.42.1-.62,0-.06.01-.15.01-.25s.03-.18.1-.22c.02,0,.08,0,.19.02.11.02.24.05.4.08.16.03.34.06.54.08.2.02.4.02.59,0,.2-.02.38-.08.56-.16s.33-.21.46-.38c.08-.1.13-.21.14-.33.02-.12,0-.23-.03-.34-.04-.11-.1-.21-.18-.29s-.19-.16-.31-.2c-.1-.03-.2-.05-.32-.06-.12,0-.24,0-.37,0-.12.01-.25.03-.37.04-.12.02-.23.03-.34.04h-.15c-.06,0-.1-.03-.11-.08.04-.21.08-.46.11-.76s.03-.55,0-.76c.02-.04.13-.07.33-.09.2-.02.41-.06.65-.11.24-.05.45-.14.65-.25s.32-.29.36-.51c.03-.18-.01-.33-.13-.47-.12-.14-.26-.23-.42-.28-.21-.06-.45-.06-.73.02-.28.08-.54.16-.79.25s-.47.14-.64.16c-.18.02-.26-.06-.26-.23v-.84c0-.18,0-.34,0-.49,0-.15.01-.24.03-.27.04-.09.11-.15.2-.18.78-.27,1.49-.4,2.12-.38.63.02,1.17.13,1.61.33.45.2.8.48,1.07.82.26.34.42.7.47,1.08s0,.75-.18,1.12c-.17.36-.47.67-.88.92Z"/>
    </g>
  </g>
  <g id="Motive">
    <g>
      <g id="USkW5r">
        <g>
          <path class="cls-2" d="M96.57,115.95c.11.2-.05.88-.17,1.1-1.47,2.72-3.7,4.55-4.92,7.73-3.14,8.17,1.16,15.14,6.2,21.34.5.61,2.16,2.13,2.12,2.76-.04.66-.78,1.04-1.29,1.39-5.28,3.58-13.2,4.1-18.95,1.42-3.82-1.78-6.7-5-9.64-7.95-.37-.37-.17-1.01.34-1.1l.79-.15s.07-.02.1-.03c3.75-1.31,5.19-5.6,3.2-8.79-.24-.39,0-.89.43-.99,3.62-.82,5.88-4.79,4.23-8.22-.18-.38.02-.84.44-.93l1.24-.27s.08-.02.11-.04c1.92-.78,3.41-2.51,3.83-4.52.09-.4.51-.63.89-.48.78.32,1.55.67,2.39.76,2.14.23,4.37-.92,5.56-2.67.32-.47.51-.94.68-1.43.15-.44.7-.58,1.05-.27.53.46,1.14.95,1.36,1.34Z"/>
          <path class="cls-2" d="M99.93,107.58c2.71-3.7,8.58-2.22,8.88,2.3.17,2.66-.25,6-.28,8.74-.06,5.76.84,16.71-1.25,21.71-.92,2.2-3.12,5.37-5,6.82-.42.32-.89.21-1.29-.1-.5-.39-1.56-1.67-2.02-2.21-5.21-6.12-9.03-14.14-4.46-21.71,1.17-1.93,3.74-4.81,4.49-6.71.87-2.19-.79-6.48.93-8.83Z"/>
          <path class="cls-2" d="M62.22,102.06c1.76-2.32,4.4-2.16,6.48-.37,4.73,4.04,8.85,9.66,13.59,13.81,1.62,2.25.41,5.06-2,6.12s-4.11-.45-5.8-1.97c-3.39-3.06-7.5-7.2-10.58-10.58-1.82-1.99-3.71-4.35-1.7-7Z"/>
          <path class="cls-2" d="M59.08,113.65c1.53-2.1,4.08-2.62,6.12-.92,3,2.5,6.06,6.13,8.92,8.93,1.31,1.28,2.8,2.11,3.5,3.95.87,2.32-.73,4.74-3.04,5.39-2.12.6-3.67-.75-5.15-2.09-3.49-3.14-6.66-6.91-10.11-10.12-.95-1.54-1.4-3.57-.24-5.15Z"/>
          <path class="cls-2" d="M75.55,101.05c2.35-3.08,5.42-1.6,7.68.64,2.97,2.93,5.74,6.14,8.78,9.02,2.69,4.13-2.34,8.57-6.21,5.68-2.9-3.1-7.37-6.41-9.89-9.73-1.23-1.63-1.69-3.87-.36-5.61Z"/>
          <path class="cls-2" d="M60.56,128.92c.94-1.23,2.56-1.93,4.09-1.63s3.12,2.44,4.32,3.56c1.07.99,3.27,2.62,3.98,3.76,2.36,3.75-2.25,8.19-6.01,5.75-1.49-.97-6.05-5.59-6.81-7.13-.65-1.31-.47-3.15.42-4.32Z"/>
        </g>
      </g>
      <g>
        <path class="cls-3" d="M112.14,71.43c1.15,0,1.79,1.34,1.06,2.23-2.61,3.19-5.43,6.22-9.07,8.27-9.89,5.55-28.41,5.7-38.69,1.15-4.78-2.11-8.22-5.52-11.4-9.41-.73-.9-.1-2.24,1.05-2.24h12.86c4.13,0,9.94,3.58,15.6,3.61,5.82.03,11.54-3.61,15.76-3.61h12.83Z"/>
        <path class="cls-3" d="M113.19,65.62c.66.71.16,1.86-.8,1.86h-13.08c-4.13,0-9.91-3.58-15.6-3.61-5.82-.03-11.54,3.61-15.76,3.61h-13.06c-.97,0-1.46-1.15-.8-1.86,5.72-6.15,10.7-13.59,20.28-12.69,3.04.28,6.98,2.64,9.64,2.48,2.1-.13,4.82-1.65,7.03-2.11,10.72-2.24,15.9,5.61,22.15,12.33Z"/>
      </g>
    </g>
  </g>
  <g id="Kateg._Symbol" data-name="Kateg. Symbol">
    <g id="jCvsG5">
      <path class="cls-5" d="M14.94,10.67c.12-.09.3,0,.29.15-.04.89.15,1.8.59,2.57.7,1.21,1.87,1.54,2.22,3.08.71,3.1-2.81,5.2-5.44,3.74-1.15-.63-1.88-2.3-1.74-3.58.07-.65.37-1.28.78-1.78.1-.12.29-.09.35.05.29.68.74,1.35,1.45,1.62.21.08.41.15.61,0,.33-.24.03-.63-.08-.9-.74-1.8-.57-3.64.95-4.94,0,0,0,0,.01,0h0Z"/>
    </g>
    <g id="jCvsG5-2" data-name="jCvsG5">
      <path class="cls-5" d="M151.86,243.26c.12-.09.3,0,.29.15-.04.89.15,1.8.59,2.57.7,1.21,1.87,1.54,2.22,3.08.71,3.1-2.81,5.2-5.44,3.74-1.15-.63-1.88-2.3-1.74-3.58.07-.65.37-1.28.78-1.78.1-.12.29-.09.35.05.29.68.74,1.35,1.45,1.62.21.08.41.15.61,0,.33-.24.03-.63-.08-.9-.74-1.8-.57-3.64.95-4.94,0,0,0,0,.01,0h0Z"/>
    </g>
  </g>
  <g id="Kartentext">
    <g>
      <g>
        <path class="cls-5" d="M26.66,178.74v-5.85c0-.29.24-.55.55-.55s.55.26.55.55v2.87l3.24-3.25c.22-.22.56-.22.78,0,.21.21.21.56,0,.78l-2.2,2.19,2.22,2.91c.2.23.16.58-.08.77-.1.09-.22.13-.35.13-.15,0-.3-.07-.41-.2l-2.16-2.83-1.04,1.06v1.42c0,.3-.24.55-.55.55s-.55-.25-.55-.55Z"/>
        <path class="cls-5" d="M34.59,173.04c0,.3-.23.55-.54.55s-.54-.25-.54-.55v-.21c0-.3.24-.54.54-.54s.54.24.54.54v.21ZM34.59,174.85v3.9c0,.3-.23.54-.54.54s-.54-.24-.54-.54v-3.9c0-.32.24-.55.54-.55s.54.23.54.55Z"/>
        <path class="cls-5" d="M35.87,177.86c.18-.24.53-.27.75-.08.26.22.71.45,1.1.44.27,0,.52-.09.68-.19.14-.12.18-.22.18-.3,0-.05,0-.07-.03-.1-.01-.03-.05-.07-.13-.12-.14-.1-.44-.21-.8-.28h0c-.31-.06-.61-.14-.87-.26-.27-.13-.51-.31-.69-.58-.11-.18-.17-.4-.17-.63,0-.46.26-.85.59-1.1.35-.24.77-.37,1.23-.37.69,0,1.18.33,1.5.55.24.16.31.49.16.74-.16.24-.49.31-.74.14-.32-.21-.6-.37-.92-.37-.25,0-.47.08-.6.18-.13.09-.16.18-.16.23,0,.04,0,.05.02.08.01.02.04.06.11.1.13.09.39.18.73.24h0s.01,0,.01,0c.33.06.64.15.93.29.27.12.54.31.71.59.12.2.19.43.19.66,0,.49-.27.9-.63,1.16-.36.25-.81.4-1.3.4-.78,0-1.38-.37-1.78-.69-.22-.18-.25-.52-.07-.74Z"/>
        <path class="cls-5" d="M40.59,177.86c.18-.24.53-.27.75-.08.26.22.71.45,1.1.44.27,0,.52-.09.68-.19.14-.12.18-.22.18-.3,0-.05,0-.07-.03-.1-.01-.03-.05-.07-.13-.12-.14-.1-.44-.21-.8-.28h0c-.31-.06-.61-.14-.87-.26-.27-.13-.51-.31-.69-.58-.11-.18-.17-.4-.17-.63,0-.46.26-.85.59-1.1.35-.24.77-.37,1.23-.37.69,0,1.18.33,1.5.55.24.16.31.49.16.74-.16.24-.49.31-.74.14-.32-.21-.6-.37-.92-.37-.25,0-.47.08-.6.18-.13.09-.16.18-.16.23,0,.04,0,.05.02.08.01.02.04.06.11.1.13.09.39.18.73.24h0s.01,0,.01,0c.33.06.64.15.93.29.27.12.54.31.71.59.12.2.19.43.19.66,0,.49-.27.9-.63,1.16-.36.25-.81.4-1.3.4-.78,0-1.38-.37-1.78-.69-.22-.18-.25-.52-.07-.74Z"/>
      </g>
      <g>
        <path class="cls-5" d="M48.71,178.56c-.43-.44-.69-1.06-.69-1.76s.26-1.27.69-1.75c.45-.47,1.03-.76,1.72-.76s1.26.29,1.67.76c.45.48.7,1.07.7,1.75s-.25,1.32-.7,1.76c-.41.47-1.01.76-1.67.76s-1.27-.29-1.72-.76ZM49.11,176.8c0,.43.13.78.36,1.06.25.24.58.37.96.37.35,0,.67-.13.92-.37.25-.28.39-.63.39-1.06s-.14-.77-.39-1.04c-.25-.22-.57-.38-.92-.38-.38,0-.71.16-.96.38-.23.27-.36.63-.36,1.04Z"/>
        <path class="cls-5" d="M57.18,174.82c0,.28-.23.53-.53.53-.23,0-.43.06-.6.19-.19.12-.34.29-.46.48-.24.32-.36.7-.41.84v1.9c0,.29-.25.53-.55.53s-.53-.24-.53-.53v-3.94c0-.29.24-.52.53-.52s.55.23.55.52v.07c.06-.07.14-.15.21-.2.33-.22.76-.4,1.26-.39.3,0,.53.23.53.52Z"/>
      </g>
      <g>
        <path class="cls-5" d="M60.97,177.55c.18-.22.51-.25.73-.07.44.36,1.2.78,1.91.77.5,0,.95-.15,1.25-.37s.43-.47.43-.72c0-.13-.03-.22-.09-.32-.06-.1-.15-.2-.3-.3-.29-.19-.78-.36-1.37-.47h-.02c-.47-.09-.91-.21-1.29-.39s-.71-.43-.93-.78c-.15-.24-.23-.52-.23-.82,0-.6.34-1.12.8-1.46.47-.34,1.08-.53,1.73-.53.96,0,1.67.47,2.18.8.23.16.3.48.14.71-.15.24-.47.31-.71.15-.51-.34-1-.64-1.61-.64-.45,0-.85.14-1.12.34-.27.2-.38.42-.38.63,0,.12.02.2.07.28.05.08.14.17.27.26.26.18.71.34,1.25.44h.02c.51.1.98.23,1.38.42.41.2.77.46,1,.83.15.24.24.54.24.85,0,.64-.36,1.19-.86,1.55-.49.36-1.14.57-1.85.57-1.08-.01-1.99-.55-2.56-1-.22-.18-.25-.51-.08-.73Z"/>
        <path class="cls-5" d="M68.16,172.29c.31,0,.56.25.56.55v5.9c0,.3-.25.55-.56.55s-.55-.25-.55-.55v-5.9c0-.3.25-.55.55-.55Z"/>
        <path class="cls-5" d="M74.05,176.8v1.96c0,.29-.24.53-.53.53-.26,0-.46-.19-.52-.43-.38.27-.83.43-1.33.43-.68,0-1.27-.28-1.7-.73-.43-.46-.68-1.08-.68-1.76s.25-1.31.68-1.76c.43-.46,1.02-.75,1.7-.75.5,0,.95.17,1.33.44.06-.25.26-.44.52-.44.29,0,.53.24.53.54v1.97ZM72.99,176.8c0-.42-.15-.78-.39-1.03-.24-.27-.58-.41-.93-.41s-.7.14-.93.41c-.24.25-.38.61-.38,1.03s.14.77.38,1.03c.23.25.57.39.93.39s.69-.14.93-.39c.24-.26.39-.62.39-1.03Z"/>
        <path class="cls-5" d="M75.8,180.63v-3.82h0v-1.99c0-.29.24-.53.53-.53s.51.19.55.41c.37-.24.85-.41,1.36-.41,1.33,0,2.42,1.14,2.42,2.51s-1.09,2.48-2.42,2.48c-.5,0-.98-.15-1.34-.41v1.76c0,.28-.25.54-.57.54-.29,0-.53-.26-.53-.54ZM76.9,176.8c0,.39.13.77.39,1,.25.28.58.42.95.42.34,0,.68-.14.94-.42.23-.23.39-.61.39-1s-.16-.75-.39-1.01c-.26-.27-.6-.41-.94-.41-.37,0-.7.14-.95.41-.26.26-.39.62-.39,1.01Z"/>
        <path class="cls-5" d="M84.63,176.79c.01-1.36,1.07-2.5,2.44-2.5,1.3,0,2.33.97,2.41,2.32v.05s0,.07,0,.09c-.03.24-.24.4-.52.4h-3.18c.05.23.16.49.34.66.21.24.61.42.96.45.36.03.79-.06,1.04-.25.21-.22.62-.19.75-.03.13.14.23.44,0,.65-.49.45-1.08.66-1.79.66-1.37,0-2.43-1.14-2.44-2.5ZM85.72,176.3h2.83c-.1-.4-.61-.99-1.48-1.06-.85.04-1.27.65-1.35,1.06Z"/>
        <path class="cls-5" d="M91.95,173.04c0,.3-.23.55-.54.55s-.54-.25-.54-.55v-.21c0-.3.24-.54.54-.54s.54.24.54.54v.21ZM91.95,174.85v3.9c0,.3-.23.54-.54.54s-.54-.24-.54-.54v-3.9c0-.32.24-.55.54-.55s.54.23.54.55Z"/>
        <path class="cls-5" d="M97.63,176.37v2.39c0,.29-.23.53-.52.53s-.53-.24-.53-.53v-2.39c0-.56-.47-1.01-1.04-1.01s-1,.45-1,1.01v2.39s0,.06-.02.1c-.05.24-.27.43-.53.43-.3,0-.53-.24-.53-.53v-3.94c0-.29.23-.53.53-.53.21,0,.4.12.49.31.3-.19.67-.31,1.06-.31,1.16,0,2.09.95,2.09,2.08Z"/>
        <path class="cls-5" d="M99.03,176.79c0-1.36,1.07-2.5,2.44-2.5,1.3,0,2.33.97,2.41,2.32v.05s0,.07,0,.09c-.03.24-.24.4-.52.4h-3.18c.05.23.16.49.34.66.21.24.61.42.96.45.36.03.79-.06,1.04-.25.21-.22.62-.19.75-.03.13.14.23.44,0,.65-.49.45-1.08.66-1.79.66-1.37,0-2.43-1.14-2.44-2.5ZM100.12,176.3h2.83c-.1-.4-.61-.99-1.48-1.06-.85.04-1.27.65-1.35,1.06Z"/>
        <path class="cls-5" d="M110.5,176.57h-1.23v2.17c0,.3-.25.55-.56.55s-.55-.25-.55-.55v-5.9c0-.31.25-.55.55-.55h1.79c1.19,0,2.15.96,2.15,2.15s-.96,2.13-2.15,2.13ZM109.27,175.46h1.23c.58,0,1.03-.46,1.04-1.02-.01-.58-.46-1.04-1.04-1.04h-1.23v2.06Z"/>
        <path class="cls-5" d="M113.32,176.79c0-1.36,1.07-2.5,2.44-2.5,1.3,0,2.33.97,2.41,2.32v.05s0,.07,0,.09c-.03.24-.24.4-.52.4h-3.18c.05.23.16.49.34.66.21.24.61.42.96.45.36.03.79-.06,1.04-.25.21-.22.62-.19.75-.03.13.14.23.44,0,.65-.49.45-1.08.66-1.79.66-1.37,0-2.43-1.14-2.44-2.5ZM114.41,176.3h2.83c-.1-.4-.61-.99-1.48-1.06-.85.04-1.27.65-1.35,1.06Z"/>
      </g>
      <g>
        <path class="cls-5" d="M122.45,174.82c0,.28-.23.53-.53.53-.23,0-.43.06-.6.19-.19.12-.34.29-.46.48-.24.32-.36.7-.41.84v1.9c0,.29-.25.53-.55.53s-.53-.24-.53-.53v-3.94c0-.29.24-.52.53-.52s.55.23.55.52v.07c.06-.07.14-.15.21-.2.33-.22.76-.4,1.26-.39.3,0,.53.23.53.52Z"/>
        <path class="cls-5" d="M123.32,177.86c.18-.24.53-.27.75-.08.26.22.71.45,1.1.44.27,0,.52-.09.68-.19.14-.12.18-.22.18-.3,0-.05-.01-.07-.03-.1,0-.03-.05-.07-.13-.12-.14-.1-.44-.21-.8-.28h0c-.31-.06-.61-.14-.87-.26-.27-.13-.51-.31-.69-.58-.11-.18-.17-.4-.17-.63,0-.46.26-.85.59-1.1.35-.24.77-.37,1.23-.37.69,0,1.18.33,1.5.55.24.16.31.49.16.74-.16.24-.49.31-.74.14-.32-.21-.6-.37-.92-.37-.25,0-.47.08-.6.18-.13.09-.16.18-.16.23,0,.04,0,.05.02.08,0,.02.04.06.11.1.13.09.39.18.73.24h.01s0,0,0,0c.33.06.64.15.93.29.27.12.54.31.71.59.12.2.19.43.19.66,0,.49-.27.9-.63,1.16-.36.25-.81.4-1.3.4-.78,0-1.38-.37-1.78-.69-.22-.18-.25-.52-.07-.74Z"/>
        <path class="cls-5" d="M128.74,178.56c-.43-.44-.69-1.06-.69-1.76s.26-1.27.69-1.75c.45-.47,1.03-.76,1.72-.76s1.26.29,1.67.76c.45.48.7,1.07.7,1.75s-.25,1.32-.7,1.76c-.41.47-1.01.76-1.67.76s-1.27-.29-1.72-.76ZM129.14,176.8c0,.43.13.78.36,1.06.25.24.58.37.96.37.35,0,.67-.13.92-.37.25-.28.39-.63.39-1.06s-.14-.77-.39-1.04c-.25-.22-.57-.38-.92-.38-.38,0-.71.16-.96.38-.23.27-.36.63-.36,1.04Z"/>
        <path class="cls-5" d="M138.5,176.37v2.39c0,.29-.23.53-.52.53s-.53-.24-.53-.53v-2.39c0-.56-.47-1.01-1.04-1.01s-1,.45-1,1.01v2.39s0,.06-.02.1c-.05.24-.27.43-.53.43-.3,0-.53-.24-.53-.53v-3.94c0-.29.23-.53.53-.53.21,0,.4.12.49.31.3-.19.67-.31,1.06-.31,1.16,0,2.09.95,2.09,2.08Z"/>
        <path class="cls-5" d="M140.89,177.87c.41,0,.75.34.75.75s-.34.74-.75.74-.74-.33-.74-.74.33-.75.74-.75Z"/>
      </g>
    </g>
  </g>
</svg>