<?xml version="1.0" encoding="UTF-8"?>
<svg xmlns="http://www.w3.org/2000/svg" viewBox="0 0 167.24 260.79">
  <defs>
    <style>
      .cls-1 {
        fill: #010101;
      }

      .cls-2 {
        fill: #171717;
      }

      .cls-3 {
        font-size: 12px;
        stroke: #fff;
        stroke-miterlimit: 10;
        stroke-width: .15px;
      }

      .cls-3, .cls-4 {
        font-family: Namaku, Namaku;
      }

      .cls-3, .cls-5 {
        fill: #fff;
      }

      .cls-4 {
        font-size: 15px;
      }

      .cls-4, .cls-6 {
        fill: #8d74b0;
      }

      .cls-7 {
        fill: #171715;
      }
    </style>
  </defs>
  <g id="Background">
    <rect class="cls-6" width="167.24" height="260.79"/>
  </g>
  <g id="Rahmen">
    <path class="cls-1" d="M151.9,23.16c9.65,0,9.67-15,0-15s-9.67,15,0,15h0Z"/>
    <path class="cls-1" d="M152.22,254.59c9.65,0,9.67-15,0-15s-9.67,15,0,15h0Z"/>
    <path class="cls-1" d="M14.14,254.72c9.65,0,9.67-15,0-15s-9.67,15,0,15h0Z"/>
    <path class="cls-2" d="M11.56,15.67c18.49.32,36.98.69,55.46,1.04,19.51.36,39.05-.42,58.56-.82,10.18-.21,20.36-.38,30.54-.21l-3.75-3.75c-1.46,11.81-1.7,23.8-1.97,35.69-.33,14.15-.39,28.31-.37,42.46.01,9.3.14,18.61.07,27.91-.06,7.86-.43,15.71-.48,23.57-.07,11.29.08,22.59.37,33.88.56,22.38,1.59,44.74,2.18,67.12.07,2.79.14,5.57.2,8.36l3.75-3.75c-15.41-.13-30.81.06-46.22.48-24.85.69-49.67.84-74.52.24-8.25-.2-16.49-.49-24.74-.73l3.75,3.75c-.56-4.87-.34-9.89-.27-14.78.11-8.38.38-16.76.66-25.14.66-20.11,1.45-40.22,1.83-60.34.16-8.4.26-16.81.05-25.21-.13-5.24-.51-10.46-.61-15.7-.33-17.03-.19-34.08-.18-51.11,0-8.91,0-17.82-.06-26.73-.04-5.94-.04-11.89-.34-17.82-.04-.72-.08-1.43-.15-2.15-.19-1.95-1.59-3.85-3.75-3.75-1.87.08-3.96,1.66-3.75,3.75.48,4.83.39,9.76.44,14.61.09,8.42.1,16.84.11,25.25,0,17.78-.1,35.55.11,53.33.06,5.22.27,10.41.52,15.62.36,7.73.31,15.47.21,23.21-.24,20.03-1.02,40.04-1.7,60.06-.3,8.95-.6,17.9-.79,26.85-.13,5.9-.3,11.84,0,17.74.04.78.09,1.55.18,2.32.24,2.06,1.53,3.69,3.75,3.75,18.27.53,36.53,1.09,54.81,1.16,23.38.09,46.73-.97,70.1-1.19,6.85-.06,13.71-.03,20.56.02,2,.02,3.79-1.73,3.75-3.75-.48-22.44-1.5-44.87-2.16-67.3-.33-11.25-.57-22.51-.6-33.77-.03-10.16.25-20.29.47-30.44.18-8.23-.03-16.48-.05-24.72-.03-13.94,0-27.88.25-41.82.23-12.54.48-25.14,1.72-37.62.11-1.1.23-2.21.37-3.31.25-2.04-1.92-3.72-3.75-3.75-19.14-.32-38.3.42-57.44.81-9.78.2-19.58.45-29.37.27-7.76-.14-15.52-.3-23.28-.45-11.49-.22-22.99-.44-34.48-.63-1.96-.03-3.84,1.75-3.75,3.75s1.65,3.71,3.75,3.75h0Z"/>
    <polygon class="cls-2" points="26.61 14.43 14.5 29.16 14.18 13.04 26.61 14.43"/>
    <polygon class="cls-2" points="140.79 14.16 152.35 27.66 154.57 11.89 140.79 14.16"/>
    <polygon class="cls-2" points="139.48 248.15 153.14 235.93 156.07 248.65 139.48 248.15"/>
    <polygon class="cls-2" points="12.9 235.54 26.24 248.54 12.31 249.36 12.9 235.54"/>
    <rect class="cls-2" width="10.32" height="260.79"/>
    <rect class="cls-2" y="249.36" width="167.24" height="11.43"/>
    <rect class="cls-7" width="167.24" height="10.33"/>
    <rect class="cls-2" x="156.12" width="11.13" height="260.79"/>
    <path class="cls-2" d="M117.73,17.19c0-.85.31-3.85,0-4.78-.82-2.49-3.11-2.81-5.35-2.81h-57.51c-2.24,0-4.53.32-5.35,2.81-.31.93,0,3.93,0,4.78l-.25,5.71c-.49,5.31,7.64,4.59,10.71,4.59l17.71.37,5.93-.07h0l5.93.07,17.71-.37c3.08,0,11.2.72,10.71-4.59l-.24-5.71Z"/>
    <path class="cls-1" d="M151.9,23.16c9.65,0,9.67-15,0-15s-9.67,15,0,15h0Z"/>
    <path class="cls-1" d="M152.22,254.59c9.65,0,9.67-15,0-15s-9.67,15,0,15h0Z"/>
    <path class="cls-1" d="M14.14,254.72c9.65,0,9.67-15,0-15s-9.67,15,0,15h0Z"/>
    <path class="cls-2" d="M11.56,15.67c18.49.32,36.98.69,55.46,1.04,19.51.36,39.05-.42,58.56-.82,10.18-.21,20.36-.38,30.54-.21l-3.75-3.75c-1.46,11.81-1.7,23.8-1.97,35.69-.33,14.15-.39,28.31-.37,42.46.01,9.3.14,18.61.07,27.91-.06,7.86-.43,15.71-.48,23.57-.07,11.29.08,22.59.37,33.88.56,22.38,1.59,44.74,2.18,67.12.07,2.79.14,5.57.2,8.36l3.75-3.75c-15.41-.13-30.81.06-46.22.48-24.85.69-49.67.84-74.52.24-8.25-.2-16.49-.49-24.74-.73l3.75,3.75c-.56-4.87-.34-9.89-.27-14.78.11-8.38.38-16.76.66-25.14.66-20.11,1.45-40.22,1.83-60.34.16-8.4.26-16.81.05-25.21-.13-5.24-.51-10.46-.61-15.7-.33-17.03-.19-34.08-.18-51.11,0-8.91,0-17.82-.06-26.73-.04-5.94-.04-11.89-.34-17.82-.04-.72-.08-1.43-.15-2.15-.19-1.95-1.59-3.85-3.75-3.75-1.87.08-3.96,1.66-3.75,3.75.48,4.83.39,9.76.44,14.61.09,8.42.1,16.84.11,25.25,0,17.78-.1,35.55.11,53.33.06,5.22.27,10.41.52,15.62.36,7.73.31,15.47.21,23.21-.24,20.03-1.02,40.04-1.7,60.06-.3,8.95-.6,17.9-.79,26.85-.13,5.9-.3,11.84,0,17.74.04.78.09,1.55.18,2.32.24,2.06,1.53,3.69,3.75,3.75,18.27.53,36.53,1.09,54.81,1.16,23.38.09,46.73-.97,70.1-1.19,6.85-.06,13.71-.03,20.56.02,2,.02,3.79-1.73,3.75-3.75-.48-22.44-1.5-44.87-2.16-67.3-.33-11.25-.57-22.51-.6-33.77-.03-10.16.25-20.29.47-30.44.18-8.23-.03-16.48-.05-24.72-.03-13.94,0-27.88.25-41.82.23-12.54.48-25.14,1.72-37.62.11-1.1.23-2.21.37-3.31.25-2.04-1.92-3.72-3.75-3.75-19.14-.32-38.3.42-57.44.81-9.78.2-19.58.45-29.37.27-7.76-.14-15.52-.3-23.28-.45-11.49-.22-22.99-.44-34.48-.63-1.96-.03-3.84,1.75-3.75,3.75s1.65,3.71,3.75,3.75h0Z"/>
    <polygon class="cls-2" points="26.61 14.43 14.5 29.16 14.18 13.04 26.61 14.43"/>
    <polygon class="cls-2" points="140.79 14.16 152.35 27.66 154.57 11.89 140.79 14.16"/>
    <polygon class="cls-2" points="139.48 248.15 153.14 235.93 156.07 248.65 139.48 248.15"/>
    <polygon class="cls-2" points="12.9 235.54 26.24 248.54 12.31 249.36 12.9 235.54"/>
    <rect class="cls-2" width="10.32" height="260.79"/>
    <rect class="cls-2" y="249.36" width="167.24" height="11.43"/>
    <rect class="cls-7" width="167.24" height="10.33"/>
    <rect class="cls-2" x="156.12" width="11.13" height="260.79"/>
  </g>
  <g id="Kategorie_Name" data-name="Kategorie Name">
    <text class="cls-4" transform="translate(53.57 22.56) scale(1 1.09)"><tspan x="0" y="0">aufgabe</tspan></text>
  </g>
  <g id="Schlücke">
    <text class="cls-3" transform="translate(4.4 252.82)"><tspan x="0" y="0">+3</tspan></text>
    <text class="cls-3" transform="translate(147.68 19.77)"><tspan x="0" y="0">+3</tspan></text>
  </g>
  <g id="Motive">
    <path class="cls-2" d="M71.69,107.5c-.44-.88-.88-1.76-1.31-2.65.16,1.01.33,2.01.52,2.99.19.98.38,1.97.58,2.97.24-.13.49-.25.74-.37.26-.11.51-.21.77-.28-.42-.9-.85-1.78-1.3-2.66ZM71.69,107.5c-.44-.88-.88-1.76-1.31-2.65.16,1.01.33,2.01.52,2.99.19.98.38,1.97.58,2.97.24-.13.49-.25.74-.37.26-.11.51-.21.77-.28-.42-.9-.85-1.78-1.3-2.66ZM71.69,107.5c-.44-.88-.88-1.76-1.31-2.65.16,1.01.33,2.01.52,2.99.19.98.38,1.97.58,2.97.24-.13.49-.25.74-.37.26-.11.51-.21.77-.28-.42-.9-.85-1.78-1.3-2.66ZM97.88,96.95c-.44-.88-.88-1.76-1.31-2.65.16,1.01.34,2.01.53,2.99.18.98.38,1.97.58,2.96.23-.12.48-.24.74-.36.25-.11.51-.21.76-.29-.41-.89-.85-1.78-1.3-2.65ZM97.88,96.95c-.44-.88-.88-1.76-1.31-2.65.16,1.01.34,2.01.53,2.99.18.98.38,1.97.58,2.96.23-.12.48-.24.74-.36.25-.11.51-.21.76-.29-.41-.89-.85-1.78-1.3-2.65ZM71.69,107.5c-.44-.88-.88-1.76-1.31-2.65.16,1.01.33,2.01.52,2.99.19.98.38,1.97.58,2.97.24-.13.49-.25.74-.37.26-.11.51-.21.77-.28-.42-.9-.85-1.78-1.3-2.66ZM118.56,79.13c-3.59-1.89-7.62-2.11-11.53-1.17-.98.23-1.92.65-2.89.86-8.54-8.43-24.89-6.1-29.72,5.18-.98-.26-1.91-.67-2.89-.92-7.45-1.83-15.24,1.13-19.34,7.6-1.85,2.93-2.74,6.39-2.64,9.83-8.27,3.8-11.1,13.13-8.03,21.46,3.49,9.49,14.44,13.17,23.22,8.31,1.55.59,3.11,1.18,4.75,1.44,6.59,1.07,13.73-1.83,16.83-7.87.16-.03,1.2.84,1.45,1,3.22,2.12,8.19,3.68,12.05,3.21,1.78-.22,3.7-1.22,3.26-3.34-.17-.79-1.56-1.5-2.16-2.05-1.28-1.19-2.41-3.08-2.8-4.79,3.8,1.16,7.85,1.42,11.62,0,5.03-1.88,8.65-6.38,9.71-11.62,10.88-5.51,9.31-21.75-.89-27.13ZM65.77,118c-.32.17-.68.34-1.1.51-.42.17-.83.32-1.23.46-.4.14-.66.24-.8.29-.09.04-.16.04-.24,0-.07-.03-.13-.09-.19-.16-.06-.07-.11-.14-.16-.22-.04-.09-.08-.16-.1-.22-.37-.8-.69-1.61-.96-2.44-.28-.82-.61-1.63-1-2.42-.7.19-1.38.44-2.03.75.03.12.11.34.22.66.12.32.25.68.39,1.1.15.41.3.86.45,1.32s.29.89.42,1.28c.13.4.23.73.29,1,.07.27.09.42.08.45-.02.04-.05.06-.09.07-.05.01-.09.03-.13.04-.58.15-1.16.36-1.72.63-.56.27-1.12.5-1.69.7-.07.03-.15.05-.22.07-.07.01-.13-.03-.19-.12-.18-.34-.34-.74-.47-1.18-.13-.44-.27-.85-.41-1.22-.31-.84-.63-1.67-.96-2.5-.33-.82-.66-1.64-1-2.47-.21-.52-.42-1.03-.64-1.53-.21-.51-.44-1.01-.67-1.52-.04-.09-.06-.16-.08-.22-.02-.06.02-.12.09-.18.33-.16.61-.29.85-.41.24-.12.5-.25.78-.38.28-.14.55-.27.81-.39.25-.13.47-.23.66-.32.2-.1.32-.15.38-.18.07-.02.13-.04.2-.06.06-.01.13,0,.18.04.08.04.18.18.31.43.12.24.25.51.38.8.14.29.26.57.37.84.11.28.18.47.23.58.34-.18.68-.35,1.03-.5.34-.15.68-.31,1.04-.46-.04-.09-.11-.27-.22-.54s-.24-.59-.38-.96c-.15-.36-.31-.74-.48-1.14-.17-.4-.32-.77-.45-1.1-.14-.34-.25-.61-.33-.83-.09-.22-.13-.33-.12-.35.03-.1.17-.22.42-.37s.53-.3.83-.45c.31-.14.61-.28.9-.4.28-.12.49-.21.6-.25.07-.03.17-.07.3-.11.12-.05.25-.09.39-.13.13-.04.26-.07.39-.08.12-.01.21,0,.27.03.05.04.09.08.11.13s.04.1.06.14c.36,1.07.74,2.13,1.14,3.18.4,1.05.81,2.1,1.23,3.14.42,1.04.84,2.07,1.26,3.11s.83,2.08,1.24,3.13c.02.07.06.15.1.24.05.09.08.17.09.24.02.13-.12.28-.43.45ZM79.25,112.59s-.13.11-.33.2c-.19.09-.43.2-.71.32-.28.12-.59.25-.92.38-.34.14-.65.26-.94.37-.3.11-.55.21-.77.29-.22.08-.36.12-.41.13-.14.03-.23,0-.27-.08-.16-.21-.29-.45-.39-.71-.09-.26-.21-.51-.33-.75-.36.1-.72.23-1.07.37-.35.15-.7.3-1.04.44.02.07.05.2.1.36.06.17.11.34.16.52s.09.36.12.52c.03.16.03.26.01.31-.02.06-.16.14-.41.27-.26.12-.54.25-.85.38-.31.14-.61.26-.9.37-.28.12-.46.19-.55.23-.23.09-.41.14-.54.15-.14.01-.24-.13-.28-.42-.04-.19-.1-.52-.19-1-.09-.47-.2-1.04-.34-1.69-.13-.66-.27-1.38-.42-2.16-.15-.78-.3-1.57-.46-2.35-.15-.79-.29-1.55-.43-2.29-.14-.75-.26-1.41-.36-1.99-.1-.59-.18-1.07-.22-1.44-.05-.36-.06-.57-.03-.61.02-.02.06-.05.13-.09.07-.03.16-.07.25-.11.09-.03.18-.07.27-.1.09-.02.15-.05.19-.06.79-.29,1.53-.62,2.23-.99.7-.36,1.43-.74,2.18-1.11.12-.06.24-.08.36-.04.11.04.22.11.32.2.09.09.18.2.26.31.08.12.16.22.22.31.56.77,1.06,1.56,1.51,2.37s.89,1.62,1.33,2.44c.51.93,1.01,1.89,1.5,2.88.49.99,1.04,1.92,1.63,2.8.04.06.09.13.16.22.06.09.12.19.17.3.05.1.09.21.11.31.03.09.01.18-.05.24ZM91.96,107.45c-.31.17-.68.34-1.1.51-.42.17-.83.32-1.22.46-.4.14-.67.24-.8.29-.09.04-.17.03-.24,0-.07-.04-.14-.09-.19-.16-.06-.07-.11-.15-.16-.23s-.08-.15-.11-.21c-.37-.8-.69-1.62-.96-2.44-.27-.82-.61-1.63-1-2.42-.69.19-1.37.44-2.02.75.03.11.1.33.22.65.11.32.24.69.39,1.11.15.41.29.85.44,1.32.15.46.3.89.42,1.28.13.4.23.73.3.99.06.27.09.42.07.46-.01.03-.04.06-.09.07-.05.01-.09.02-.12.04-.59.15-1.16.36-1.72.63-.56.26-1.13.5-1.69.7-.08.03-.15.05-.22.06-.08.02-.14-.02-.19-.11-.18-.35-.34-.74-.48-1.18-.13-.44-.27-.85-.4-1.23-.31-.84-.63-1.67-.96-2.49-.34-.82-.67-1.65-1-2.48-.21-.52-.43-1.03-.64-1.53-.22-.5-.44-1.01-.68-1.52-.03-.08-.06-.15-.07-.21-.02-.06.01-.12.09-.18.32-.16.6-.3.84-.42.24-.11.5-.24.79-.38.28-.13.55-.26.8-.38.25-.13.47-.23.67-.33.19-.09.32-.15.38-.17.06-.03.13-.05.19-.06.07-.01.13,0,.19.03.07.05.17.19.3.43.13.25.26.51.39.81.13.29.25.57.36.84.11.27.19.46.23.58.35-.19.69-.35,1.03-.5.34-.16.69-.31,1.04-.47-.03-.08-.11-.26-.21-.53-.11-.28-.24-.59-.39-.96-.15-.36-.3-.75-.47-1.15-.17-.4-.32-.76-.46-1.1-.13-.33-.24-.61-.33-.82-.07-.2-.12-.32-.12-.35.04-.1.17-.23.42-.38.25-.15.53-.3.84-.44.31-.15.6-.28.89-.4.29-.13.49-.21.6-.26.07-.03.17-.06.3-.11.13-.04.26-.08.39-.12.14-.04.27-.07.39-.08.12-.02.21,0,.27.03.06.03.1.07.12.12.02.05.04.1.06.15.35,1.07.73,2.12,1.14,3.18.4,1.05.81,2.1,1.23,3.13.41,1.04.83,2.08,1.25,3.12.42,1.04.83,2.08,1.24,3.12.03.08.07.16.11.25.04.09.07.17.08.24.03.13-.12.28-.43.45ZM105.45,102.04s-.14.11-.33.2c-.2.09-.43.2-.72.32-.28.12-.59.25-.92.38-.33.14-.65.26-.94.37-.29.11-.55.2-.77.29-.22.08-.35.12-.41.13-.13.02-.22,0-.27-.09-.16-.21-.28-.44-.38-.7-.1-.27-.21-.52-.34-.75-.36.1-.71.22-1.06.37-.35.15-.7.29-1.05.43.02.08.05.21.11.37.05.17.1.34.15.52s.09.35.12.51c.03.16.04.27.01.32-.02.05-.16.14-.41.26-.25.13-.53.26-.85.39-.31.13-.61.26-.89.37-.29.12-.47.19-.56.23-.22.09-.4.14-.54.15s-.23-.13-.28-.43c-.03-.18-.1-.52-.19-.99-.09-.47-.2-1.04-.33-1.7-.14-.65-.28-1.37-.43-2.15-.15-.78-.3-1.57-.45-2.36-.15-.78-.3-1.55-.44-2.29s-.26-1.4-.36-1.99c-.1-.58-.17-1.06-.22-1.43s-.06-.57-.03-.61c.02-.02.06-.05.14-.09.07-.03.15-.07.24-.11.1-.04.19-.07.27-.1.09-.03.16-.05.19-.06.79-.29,1.54-.62,2.24-.99s1.43-.74,2.18-1.12c.12-.06.24-.07.35-.03.12.04.22.11.32.2.09.09.18.19.26.31.09.12.16.22.23.31.55.77,1.05,1.56,1.5,2.37s.89,1.62,1.34,2.44c.5.93,1,1.89,1.49,2.88.49.98,1.04,1.92,1.64,2.8.03.05.09.13.15.22s.12.18.17.29c.05.11.09.22.12.31.02.1.01.18-.05.25ZM107.16,96.17c-.15-.01-.35-.2-.6-.58-.26-.38-.53-.86-.83-1.45-.3-.58-.6-1.22-.9-1.91s-.58-1.35-.83-1.97c-.25-.63-.46-1.18-.64-1.66-.17-.47-.26-.79-.28-.96-.03-.12,0-.22.06-.29.06-.08.14-.14.25-.19.1-.05.21-.09.32-.12.11-.03.21-.05.3-.08.13-.03.37-.11.71-.23.35-.12.71-.23,1.1-.34.37-.11.72-.19,1.04-.25.31-.05.51-.03.59.06.06.08.12.2.17.36.05.16.1.33.15.51s.09.35.13.53c.03.17.06.31.09.41.26,1.04.56,2.05.9,3.04s.68,1.99,1.01,2.99c.03.11.08.27.14.48.06.2.06.37,0,.49-.03.07-.07.12-.11.14-.05.03-.1.06-.16.1-.09.05-.27.13-.53.23-.26.11-.53.21-.81.32-.28.1-.54.2-.78.27-.24.08-.41.11-.5.1ZM111.75,99.01c-.07.26-.26.5-.57.73s-.74.49-1.28.77c-.12.06-.25.11-.38.15-.12.03-.25.04-.37.02-.11-.02-.24-.12-.4-.33-.16-.2-.32-.42-.47-.67-.15-.25-.28-.49-.39-.73-.11-.23-.17-.41-.17-.52-.01-.21.07-.37.25-.48s.34-.22.48-.33c.1-.09.22-.18.37-.3.14-.12.3-.24.47-.35.17-.12.33-.22.5-.29.16-.07.31-.1.43-.08.11.03.2.07.28.13.07.05.15.12.22.21.42.48.72.88.89,1.21.16.32.22.61.14.86ZM96.57,94.3c.16,1.01.34,2.01.53,2.99.18.98.38,1.97.58,2.96.23-.12.48-.24.74-.36.25-.11.51-.21.76-.29-.41-.89-.85-1.78-1.3-2.65-.44-.88-.88-1.76-1.31-2.65ZM70.38,104.85c.16,1.01.33,2.01.52,2.99.19.98.38,1.97.58,2.97.24-.13.49-.25.74-.37.26-.11.51-.21.77-.28-.42-.9-.85-1.78-1.3-2.66-.44-.88-.88-1.76-1.31-2.65ZM71.69,107.5c-.44-.88-.88-1.76-1.31-2.65.16,1.01.33,2.01.52,2.99.19.98.38,1.97.58,2.97.24-.13.49-.25.74-.37.26-.11.51-.21.77-.28-.42-.9-.85-1.78-1.3-2.66ZM97.88,96.95c-.44-.88-.88-1.76-1.31-2.65.16,1.01.34,2.01.53,2.99.18.98.38,1.97.58,2.96.23-.12.48-.24.74-.36.25-.11.51-.21.76-.29-.41-.89-.85-1.78-1.3-2.65ZM97.88,96.95c-.44-.88-.88-1.76-1.31-2.65.16,1.01.34,2.01.53,2.99.18.98.38,1.97.58,2.96.23-.12.48-.24.74-.36.25-.11.51-.21.76-.29-.41-.89-.85-1.78-1.3-2.65ZM71.69,107.5c-.44-.88-.88-1.76-1.31-2.65.16,1.01.33,2.01.52,2.99.19.98.38,1.97.58,2.97.24-.13.49-.25.74-.37.26-.11.51-.21.77-.28-.42-.9-.85-1.78-1.3-2.66ZM71.69,107.5c-.44-.88-.88-1.76-1.31-2.65.16,1.01.33,2.01.52,2.99.19.98.38,1.97.58,2.97.24-.13.49-.25.74-.37.26-.11.51-.21.77-.28-.42-.9-.85-1.78-1.3-2.66ZM71.69,107.5c-.44-.88-.88-1.76-1.31-2.65.16,1.01.33,2.01.52,2.99.19.98.38,1.97.58,2.97.24-.13.49-.25.74-.37.26-.11.51-.21.77-.28-.42-.9-.85-1.78-1.3-2.66Z"/>
  </g>
  <g id="Kateg._Symbol" data-name="Kateg. Symbol">
    <g id="jCvsG5">
      <path class="cls-5" d="M14.94,10.67c.12-.09.3,0,.29.15-.04.89.15,1.8.59,2.57.7,1.21,1.87,1.54,2.22,3.08.71,3.1-2.81,5.2-5.44,3.74-1.15-.63-1.88-2.3-1.74-3.58.07-.65.37-1.28.78-1.78.1-.12.29-.09.35.05.29.68.74,1.35,1.45,1.62.21.08.41.15.61,0,.33-.24.03-.63-.08-.9-.74-1.8-.57-3.64.95-4.94,0,0,0,0,.01,0h0Z"/>
    </g>
    <g id="jCvsG5-2" data-name="jCvsG5">
      <path class="cls-5" d="M151.86,243.26c.12-.09.3,0,.29.15-.04.89.15,1.8.59,2.57.7,1.21,1.87,1.54,2.22,3.08.71,3.1-2.81,5.2-5.44,3.74-1.15-.63-1.88-2.3-1.74-3.58.07-.65.37-1.28.78-1.78.1-.12.29-.09.35.05.29.68.74,1.35,1.45,1.62.21.08.41.15.61,0,.33-.24.03-.63-.08-.9-.74-1.8-.57-3.64.95-4.94,0,0,0,0,.01,0h0Z"/>
    </g>
  </g>
</svg>