<?xml version="1.0" encoding="UTF-8"?>
<svg xmlns="http://www.w3.org/2000/svg" viewBox="0 0 167.24 260.79">
  <defs>
    <style>
      .cls-1 {
        fill: #010101;
      }

      .cls-2, .cls-3 {
        fill: #171717;
      }

      .cls-4 {
        font-size: 12px;
        stroke: #fff;
        stroke-width: .15px;
      }

      .cls-4, .cls-3 {
        stroke-miterlimit: 10;
      }

      .cls-4, .cls-5 {
        font-family: Namaku, Namaku;
      }

      .cls-4, .cls-6 {
        fill: #fff;
      }

      .cls-3 {
        stroke: #171717;
        stroke-width: 2px;
      }

      .cls-5 {
        font-size: 15px;
      }

      .cls-5, .cls-7 {
        fill: #8d74b0;
      }

      .cls-8 {
        fill: #171715;
      }
    </style>
  </defs>
  <g id="Background">
    <rect class="cls-7" width="167.24" height="260.79"/>
  </g>
  <g id="Rahmen">
    <path class="cls-1" d="M151.9,23.16c9.65,0,9.67-15,0-15s-9.67,15,0,15h0Z"/>
    <path class="cls-1" d="M152.22,254.59c9.65,0,9.67-15,0-15s-9.67,15,0,15h0Z"/>
    <path class="cls-1" d="M14.14,254.72c9.65,0,9.67-15,0-15s-9.67,15,0,15h0Z"/>
    <path class="cls-2" d="M11.56,15.67c18.49.32,36.98.69,55.46,1.04,19.51.36,39.05-.42,58.56-.82,10.18-.21,20.36-.38,30.54-.21l-3.75-3.75c-1.46,11.81-1.7,23.8-1.97,35.69-.33,14.15-.39,28.31-.37,42.46.01,9.3.14,18.61.07,27.91-.06,7.86-.43,15.71-.48,23.57-.07,11.29.08,22.59.37,33.88.56,22.38,1.59,44.74,2.18,67.12.07,2.79.14,5.57.2,8.36l3.75-3.75c-15.41-.13-30.81.06-46.22.48-24.85.69-49.67.84-74.52.24-8.25-.2-16.49-.49-24.74-.73l3.75,3.75c-.56-4.87-.34-9.89-.27-14.78.11-8.38.38-16.76.66-25.14.66-20.11,1.45-40.22,1.83-60.34.16-8.4.26-16.81.05-25.21-.13-5.24-.51-10.46-.61-15.7-.33-17.03-.19-34.08-.18-51.11,0-8.91,0-17.82-.06-26.73-.04-5.94-.04-11.89-.34-17.82-.04-.72-.08-1.43-.15-2.15-.19-1.95-1.59-3.85-3.75-3.75-1.87.08-3.96,1.66-3.75,3.75.48,4.83.39,9.76.44,14.61.09,8.42.1,16.84.11,25.25,0,17.78-.1,35.55.11,53.33.06,5.22.27,10.41.52,15.62.36,7.73.31,15.47.21,23.21-.24,20.03-1.02,40.04-1.7,60.06-.3,8.95-.6,17.9-.79,26.85-.13,5.9-.3,11.84,0,17.74.04.78.09,1.55.18,2.32.24,2.06,1.53,3.69,3.75,3.75,18.27.53,36.53,1.09,54.81,1.16,23.38.09,46.73-.97,70.1-1.19,6.85-.06,13.71-.03,20.56.02,2,.02,3.79-1.73,3.75-3.75-.48-22.44-1.5-44.87-2.16-67.3-.33-11.25-.57-22.51-.6-33.77-.03-10.16.25-20.29.47-30.44.18-8.23-.03-16.48-.05-24.72-.03-13.94,0-27.88.25-41.82.23-12.54.48-25.14,1.72-37.62.11-1.1.23-2.21.37-3.31.25-2.04-1.92-3.72-3.75-3.75-19.14-.32-38.3.42-57.44.81-9.78.2-19.58.45-29.37.27-7.76-.14-15.52-.3-23.28-.45-11.49-.22-22.99-.44-34.48-.63-1.96-.03-3.84,1.75-3.75,3.75s1.65,3.71,3.75,3.75h0Z"/>
    <polygon class="cls-2" points="26.61 14.43 14.5 29.16 14.18 13.04 26.61 14.43"/>
    <polygon class="cls-2" points="140.79 14.16 152.35 27.66 154.57 11.89 140.79 14.16"/>
    <polygon class="cls-2" points="139.48 248.15 153.14 235.93 156.07 248.65 139.48 248.15"/>
    <polygon class="cls-2" points="12.9 235.54 26.24 248.54 12.31 249.36 12.9 235.54"/>
    <rect class="cls-2" width="10.32" height="260.79"/>
    <rect class="cls-2" y="249.36" width="167.24" height="11.43"/>
    <rect class="cls-8" width="167.24" height="10.33"/>
    <rect class="cls-2" x="156.12" width="11.13" height="260.79"/>
    <path class="cls-2" d="M117.73,17.19c0-.85.31-3.85,0-4.78-.82-2.49-3.11-2.81-5.35-2.81h-57.51c-2.24,0-4.53.32-5.35,2.81-.31.93,0,3.93,0,4.78l-.25,5.71c-.49,5.31,7.64,4.59,10.71,4.59l17.71.37,5.93-.07h0l5.93.07,17.71-.37c3.08,0,11.2.72,10.71-4.59l-.24-5.71Z"/>
    <path class="cls-1" d="M151.9,23.16c9.65,0,9.67-15,0-15s-9.67,15,0,15h0Z"/>
    <path class="cls-1" d="M152.22,254.59c9.65,0,9.67-15,0-15s-9.67,15,0,15h0Z"/>
    <path class="cls-1" d="M14.14,254.72c9.65,0,9.67-15,0-15s-9.67,15,0,15h0Z"/>
    <path class="cls-2" d="M11.56,15.67c18.49.32,36.98.69,55.46,1.04,19.51.36,39.05-.42,58.56-.82,10.18-.21,20.36-.38,30.54-.21l-3.75-3.75c-1.46,11.81-1.7,23.8-1.97,35.69-.33,14.15-.39,28.31-.37,42.46.01,9.3.14,18.61.07,27.91-.06,7.86-.43,15.71-.48,23.57-.07,11.29.08,22.59.37,33.88.56,22.38,1.59,44.74,2.18,67.12.07,2.79.14,5.57.2,8.36l3.75-3.75c-15.41-.13-30.81.06-46.22.48-24.85.69-49.67.84-74.52.24-8.25-.2-16.49-.49-24.74-.73l3.75,3.75c-.56-4.87-.34-9.89-.27-14.78.11-8.38.38-16.76.66-25.14.66-20.11,1.45-40.22,1.83-60.34.16-8.4.26-16.81.05-25.21-.13-5.24-.51-10.46-.61-15.7-.33-17.03-.19-34.08-.18-51.11,0-8.91,0-17.82-.06-26.73-.04-5.94-.04-11.89-.34-17.82-.04-.72-.08-1.43-.15-2.15-.19-1.95-1.59-3.85-3.75-3.75-1.87.08-3.96,1.66-3.75,3.75.48,4.83.39,9.76.44,14.61.09,8.42.1,16.84.11,25.25,0,17.78-.1,35.55.11,53.33.06,5.22.27,10.41.52,15.62.36,7.73.31,15.47.21,23.21-.24,20.03-1.02,40.04-1.7,60.06-.3,8.95-.6,17.9-.79,26.85-.13,5.9-.3,11.84,0,17.74.04.78.09,1.55.18,2.32.24,2.06,1.53,3.69,3.75,3.75,18.27.53,36.53,1.09,54.81,1.16,23.38.09,46.73-.97,70.1-1.19,6.85-.06,13.71-.03,20.56.02,2,.02,3.79-1.73,3.75-3.75-.48-22.44-1.5-44.87-2.16-67.3-.33-11.25-.57-22.51-.6-33.77-.03-10.16.25-20.29.47-30.44.18-8.23-.03-16.48-.05-24.72-.03-13.94,0-27.88.25-41.82.23-12.54.48-25.14,1.72-37.62.11-1.1.23-2.21.37-3.31.25-2.04-1.92-3.72-3.75-3.75-19.14-.32-38.3.42-57.44.81-9.78.2-19.58.45-29.37.27-7.76-.14-15.52-.3-23.28-.45-11.49-.22-22.99-.44-34.48-.63-1.96-.03-3.84,1.75-3.75,3.75s1.65,3.71,3.75,3.75h0Z"/>
    <polygon class="cls-2" points="26.61 14.43 14.5 29.16 14.18 13.04 26.61 14.43"/>
    <polygon class="cls-2" points="140.79 14.16 152.35 27.66 154.57 11.89 140.79 14.16"/>
    <polygon class="cls-2" points="139.48 248.15 153.14 235.93 156.07 248.65 139.48 248.15"/>
    <polygon class="cls-2" points="12.9 235.54 26.24 248.54 12.31 249.36 12.9 235.54"/>
    <rect class="cls-2" width="10.32" height="260.79"/>
    <rect class="cls-2" y="249.36" width="167.24" height="11.43"/>
    <rect class="cls-8" width="167.24" height="10.33"/>
    <rect class="cls-2" x="156.12" width="11.13" height="260.79"/>
  </g>
  <g id="Kategorie_Name" data-name="Kategorie Name">
    <text class="cls-5" transform="translate(53.57 22.56) scale(1 1.09)"><tspan x="0" y="0">aufgabe</tspan></text>
  </g>
  <g id="Schlücke">
    <text class="cls-4" transform="translate(4.4 252.82)"><tspan x="0" y="0">+3</tspan></text>
    <text class="cls-4" transform="translate(147.68 19.77)"><tspan x="0" y="0">+3</tspan></text>
  </g>
  <g id="Motive">
    <g>
      <g id="USkW5r">
        <g>
          <path class="cls-2" d="M96.57,115.95c.11.2-.05.88-.17,1.1-1.47,2.72-3.7,4.55-4.92,7.73-3.14,8.17,1.16,15.14,6.2,21.34.5.61,2.16,2.13,2.12,2.76-.04.66-.78,1.04-1.29,1.39-5.28,3.58-13.2,4.1-18.95,1.42-3.82-1.78-6.7-5-9.64-7.95-.37-.37-.17-1.01.34-1.1l.79-.15s.07-.02.1-.03c3.75-1.31,5.19-5.6,3.2-8.79-.24-.39,0-.89.43-.99,3.62-.82,5.88-4.79,4.23-8.22-.18-.38.02-.84.44-.93l1.24-.27s.08-.02.11-.04c1.92-.78,3.41-2.51,3.83-4.52.09-.4.51-.63.89-.48.78.32,1.55.67,2.39.76,2.14.23,4.37-.92,5.56-2.67.32-.47.51-.94.68-1.43.15-.44.7-.58,1.05-.27.53.46,1.14.95,1.36,1.34Z"/>
          <path class="cls-2" d="M99.93,107.58c2.71-3.7,8.58-2.22,8.88,2.3.17,2.66-.25,6-.28,8.74-.06,5.76.84,16.71-1.25,21.71-.92,2.2-3.12,5.37-5,6.82-.42.32-.89.21-1.29-.1-.5-.39-1.56-1.67-2.02-2.21-5.21-6.12-9.03-14.14-4.46-21.71,1.17-1.93,3.74-4.81,4.49-6.71.87-2.19-.79-6.48.93-8.83Z"/>
          <path class="cls-2" d="M62.22,102.06c1.76-2.32,4.4-2.16,6.48-.37,4.73,4.04,8.85,9.66,13.59,13.81,1.62,2.25.41,5.06-2,6.12s-4.11-.45-5.8-1.97c-3.39-3.06-7.5-7.2-10.58-10.58-1.82-1.99-3.71-4.35-1.7-7Z"/>
          <path class="cls-2" d="M59.08,113.65c1.53-2.1,4.08-2.62,6.12-.92,3,2.5,6.06,6.13,8.92,8.93,1.31,1.28,2.8,2.11,3.5,3.95.87,2.32-.73,4.74-3.04,5.39-2.12.6-3.67-.75-5.15-2.09-3.49-3.14-6.66-6.91-10.11-10.12-.95-1.54-1.4-3.57-.24-5.15Z"/>
          <path class="cls-2" d="M75.55,101.05c2.35-3.08,5.42-1.6,7.68.64,2.97,2.93,5.74,6.14,8.78,9.02,2.69,4.13-2.34,8.57-6.21,5.68-2.9-3.1-7.37-6.41-9.89-9.73-1.23-1.63-1.69-3.87-.36-5.61Z"/>
          <path class="cls-2" d="M60.56,128.92c.94-1.23,2.56-1.93,4.09-1.63s3.12,2.44,4.32,3.56c1.07.99,3.27,2.62,3.98,3.76,2.36,3.75-2.25,8.19-6.01,5.75-1.49-.97-6.05-5.59-6.81-7.13-.65-1.31-.47-3.15.42-4.32Z"/>
        </g>
      </g>
      <g>
        <path class="cls-3" d="M112.14,71.43c1.15,0,1.79,1.34,1.06,2.23-2.61,3.19-5.43,6.22-9.07,8.27-9.89,5.55-28.41,5.7-38.69,1.15-4.78-2.11-8.22-5.52-11.4-9.41-.73-.9-.1-2.24,1.05-2.24h12.86c4.13,0,9.94,3.58,15.6,3.61,5.82.03,11.54-3.61,15.76-3.61h12.83Z"/>
        <path class="cls-3" d="M113.19,65.62c.66.71.16,1.86-.8,1.86h-13.08c-4.13,0-9.91-3.58-15.6-3.61-5.82-.03-11.54,3.61-15.76,3.61h-13.06c-.97,0-1.46-1.15-.8-1.86,5.72-6.15,10.7-13.59,20.28-12.69,3.04.28,6.98,2.64,9.64,2.48,2.1-.13,4.82-1.65,7.03-2.11,10.72-2.24,15.9,5.61,22.15,12.33Z"/>
      </g>
    </g>
  </g>
  <g id="Kateg._Symbol" data-name="Kateg. Symbol">
    <g id="jCvsG5">
      <path class="cls-6" d="M14.94,10.67c.12-.09.3,0,.29.15-.04.89.15,1.8.59,2.57.7,1.21,1.87,1.54,2.22,3.08.71,3.1-2.81,5.2-5.44,3.74-1.15-.63-1.88-2.3-1.74-3.58.07-.65.37-1.28.78-1.78.1-.12.29-.09.35.05.29.68.74,1.35,1.45,1.62.21.08.41.15.61,0,.33-.24.03-.63-.08-.9-.74-1.8-.57-3.64.95-4.94,0,0,0,0,.01,0h0Z"/>
    </g>
    <g id="jCvsG5-2" data-name="jCvsG5">
      <path class="cls-6" d="M151.86,243.26c.12-.09.3,0,.29.15-.04.89.15,1.8.59,2.57.7,1.21,1.87,1.54,2.22,3.08.71,3.1-2.81,5.2-5.44,3.74-1.15-.63-1.88-2.3-1.74-3.58.07-.65.37-1.28.78-1.78.1-.12.29-.09.35.05.29.68.74,1.35,1.45,1.62.21.08.41.15.61,0,.33-.24.03-.63-.08-.9-.74-1.8-.57-3.64.95-4.94,0,0,0,0,.01,0h0Z"/>
    </g>
  </g>
</svg>