<?xml version="1.0" encoding="UTF-8"?>
<svg xmlns="http://www.w3.org/2000/svg" xmlns:xlink="http://www.w3.org/1999/xlink" viewBox="0 0 167.24 260.79">
  <defs>
    <style>
      .cls-1, .cls-2, .cls-3, .cls-4, .cls-5, .cls-6, .cls-7 {
        fill: none;
      }

      .cls-8 {
        fill: #010101;
      }

      .cls-2, .cls-9, .cls-3, .cls-4, .cls-5, .cls-6, .cls-7 {
        stroke: #fff;
      }

      .cls-2, .cls-3, .cls-4, .cls-5, .cls-10, .cls-6, .cls-11, .cls-12, .cls-13, .cls-14, .cls-15, .cls-7 {
        font-family: QuicksandBold-Regular, Quicksand;
        font-size: 10px;
      }

      .cls-16 {
        fill: #171717;
      }

      .cls-9 {
        font-size: 12px;
        stroke-miterlimit: 10;
        stroke-width: .15px;
      }

      .cls-9, .cls-17 {
        font-family: Namaku, Namaku;
      }

      .cls-9, .cls-18, .cls-10, .cls-11, .cls-12, .cls-13, .cls-14, .cls-15 {
        fill: #fff;
      }

      .cls-3, .cls-14 {
        letter-spacing: -.06em;
      }

      .cls-19 {
        clip-path: url(#clippath-1);
      }

      .cls-4, .cls-10 {
        letter-spacing: -.05em;
      }

      .cls-17 {
        font-size: 15px;
      }

      .cls-17, .cls-20 {
        fill: #8d74b0;
      }

      .cls-5, .cls-11 {
        letter-spacing: -.02em;
      }

      .cls-21 {
        fill: #171715;
      }

      .cls-6, .cls-13 {
        letter-spacing: -.15em;
      }

      .cls-12, .cls-7 {
        letter-spacing: -.02em;
      }

      .cls-22 {
        clip-path: url(#clippath);
      }
    </style>
    <clipPath id="clippath">
      <rect class="cls-1" x="0" y="0" width="167.24" height="260.79"/>
    </clipPath>
    <clipPath id="clippath-1">
      <rect class="cls-1" x="0" y="0" width="167.24" height="260.79"/>
    </clipPath>
  </defs>
  <g id="Background">
    <rect class="cls-20" width="167.24" height="260.79"/>
  </g>
  <g id="Rahmen">
    <path class="cls-8" d="M151.9,23.16c9.65,0,9.67-15,0-15s-9.67,15,0,15h0Z"/>
    <path class="cls-8" d="M152.22,254.59c9.65,0,9.67-15,0-15s-9.67,15,0,15h0Z"/>
    <path class="cls-8" d="M14.14,254.72c9.65,0,9.67-15,0-15s-9.67,15,0,15h0Z"/>
    <path class="cls-16" d="M11.56,15.67c18.49.32,36.98.69,55.46,1.04,19.51.36,39.05-.42,58.56-.82,10.18-.21,20.36-.38,30.54-.21l-3.75-3.75c-1.46,11.81-1.7,23.8-1.97,35.69-.33,14.15-.39,28.31-.37,42.46.01,9.3.14,18.61.07,27.91-.06,7.86-.43,15.71-.48,23.57-.07,11.29.08,22.59.37,33.88.56,22.38,1.59,44.74,2.18,67.12.07,2.79.14,5.57.2,8.36l3.75-3.75c-15.41-.13-30.81.06-46.22.48-24.85.69-49.67.84-74.52.24-8.25-.2-16.49-.49-24.74-.73l3.75,3.75c-.56-4.87-.34-9.89-.27-14.78.11-8.38.38-16.76.66-25.14.66-20.11,1.45-40.22,1.83-60.34.16-8.4.26-16.81.05-25.21-.13-5.24-.51-10.46-.61-15.7-.33-17.03-.19-34.08-.18-51.11,0-8.91,0-17.82-.06-26.73-.04-5.94-.04-11.89-.34-17.82-.04-.72-.08-1.43-.15-2.15-.19-1.95-1.59-3.85-3.75-3.75-1.87.08-3.96,1.66-3.75,3.75.48,4.83.39,9.76.44,14.61.09,8.42.1,16.84.11,25.25,0,17.78-.1,35.55.11,53.33.06,5.22.27,10.41.52,15.62.36,7.73.31,15.47.21,23.21-.24,20.03-1.02,40.04-1.7,60.06-.3,8.95-.6,17.9-.79,26.85-.13,5.9-.3,11.84,0,17.74.04.78.09,1.55.18,2.32.24,2.06,1.53,3.69,3.75,3.75,18.27.53,36.53,1.09,54.81,1.16,23.38.09,46.73-.97,70.1-1.19,6.85-.06,13.71-.03,20.56.02,2,.02,3.79-1.73,3.75-3.75-.48-22.44-1.5-44.87-2.16-67.3-.33-11.25-.57-22.51-.6-33.77-.03-10.16.25-20.29.47-30.44.18-8.23-.03-16.48-.05-24.72-.03-13.94,0-27.88.25-41.82.23-12.54.48-25.14,1.72-37.62.11-1.1.23-2.21.37-3.31.25-2.04-1.92-3.72-3.75-3.75-19.14-.32-38.3.42-57.44.81-9.78.2-19.58.45-29.37.27-7.76-.14-15.52-.3-23.28-.45-11.49-.22-22.99-.44-34.48-.63-1.96-.03-3.84,1.75-3.75,3.75s1.65,3.71,3.75,3.75h0Z"/>
    <polygon class="cls-16" points="26.61 14.43 14.5 29.16 14.18 13.04 26.61 14.43"/>
    <polygon class="cls-16" points="140.79 14.16 152.35 27.66 154.57 11.89 140.79 14.16"/>
    <polygon class="cls-16" points="139.48 248.15 153.14 235.93 156.07 248.65 139.48 248.15"/>
    <polygon class="cls-16" points="12.9 235.54 26.24 248.54 12.31 249.36 12.9 235.54"/>
    <rect class="cls-16" width="10.32" height="260.79"/>
    <rect class="cls-16" y="249.36" width="167.24" height="11.43"/>
    <rect class="cls-21" width="167.24" height="10.33"/>
    <rect class="cls-16" x="156.12" width="11.13" height="260.79"/>
    <path class="cls-16" d="M117.73,17.19c0-.85.31-3.85,0-4.78-.82-2.49-3.11-2.81-5.35-2.81h-57.51c-2.24,0-4.53.32-5.35,2.81-.31.93,0,3.93,0,4.78l-.25,5.71c-.49,5.31,7.64,4.59,10.71,4.59l17.71.37,5.93-.07h0l5.93.07,17.71-.37c3.08,0,11.2.72,10.71-4.59l-.24-5.71Z"/>
    <path class="cls-8" d="M151.9,23.16c9.65,0,9.67-15,0-15s-9.67,15,0,15h0Z"/>
    <path class="cls-8" d="M152.22,254.59c9.65,0,9.67-15,0-15s-9.67,15,0,15h0Z"/>
    <path class="cls-8" d="M14.14,254.72c9.65,0,9.67-15,0-15s-9.67,15,0,15h0Z"/>
    <path class="cls-16" d="M11.56,15.67c18.49.32,36.98.69,55.46,1.04,19.51.36,39.05-.42,58.56-.82,10.18-.21,20.36-.38,30.54-.21l-3.75-3.75c-1.46,11.81-1.7,23.8-1.97,35.69-.33,14.15-.39,28.31-.37,42.46.01,9.3.14,18.61.07,27.91-.06,7.86-.43,15.71-.48,23.57-.07,11.29.08,22.59.37,33.88.56,22.38,1.59,44.74,2.18,67.12.07,2.79.14,5.57.2,8.36l3.75-3.75c-15.41-.13-30.81.06-46.22.48-24.85.69-49.67.84-74.52.24-8.25-.2-16.49-.49-24.74-.73l3.75,3.75c-.56-4.87-.34-9.89-.27-14.78.11-8.38.38-16.76.66-25.14.66-20.11,1.45-40.22,1.83-60.34.16-8.4.26-16.81.05-25.21-.13-5.24-.51-10.46-.61-15.7-.33-17.03-.19-34.08-.18-51.11,0-8.91,0-17.82-.06-26.73-.04-5.94-.04-11.89-.34-17.82-.04-.72-.08-1.43-.15-2.15-.19-1.95-1.59-3.85-3.75-3.75-1.87.08-3.96,1.66-3.75,3.75.48,4.83.39,9.76.44,14.61.09,8.42.1,16.84.11,25.25,0,17.78-.1,35.55.11,53.33.06,5.22.27,10.41.52,15.62.36,7.73.31,15.47.21,23.21-.24,20.03-1.02,40.04-1.7,60.06-.3,8.95-.6,17.9-.79,26.85-.13,5.9-.3,11.84,0,17.74.04.78.09,1.55.18,2.32.24,2.06,1.53,3.69,3.75,3.75,18.27.53,36.53,1.09,54.81,1.16,23.38.09,46.73-.97,70.1-1.19,6.85-.06,13.71-.03,20.56.02,2,.02,3.79-1.73,3.75-3.75-.48-22.44-1.5-44.87-2.16-67.3-.33-11.25-.57-22.51-.6-33.77-.03-10.16.25-20.29.47-30.44.18-8.23-.03-16.48-.05-24.72-.03-13.94,0-27.88.25-41.82.23-12.54.48-25.14,1.72-37.62.11-1.1.23-2.21.37-3.31.25-2.04-1.92-3.72-3.75-3.75-19.14-.32-38.3.42-57.44.81-9.78.2-19.58.45-29.37.27-7.76-.14-15.52-.3-23.28-.45-11.49-.22-22.99-.44-34.48-.63-1.96-.03-3.84,1.75-3.75,3.75s1.65,3.71,3.75,3.75h0Z"/>
    <polygon class="cls-16" points="26.61 14.43 14.5 29.16 14.18 13.04 26.61 14.43"/>
    <polygon class="cls-16" points="140.79 14.16 152.35 27.66 154.57 11.89 140.79 14.16"/>
    <polygon class="cls-16" points="139.48 248.15 153.14 235.93 156.07 248.65 139.48 248.15"/>
    <polygon class="cls-16" points="12.9 235.54 26.24 248.54 12.31 249.36 12.9 235.54"/>
    <rect class="cls-16" width="10.32" height="260.79"/>
    <rect class="cls-16" y="249.36" width="167.24" height="11.43"/>
    <rect class="cls-21" width="167.24" height="10.33"/>
    <rect class="cls-16" x="156.12" width="11.13" height="260.79"/>
  </g>
  <g id="Kategorie_Name" data-name="Kategorie Name">
    <text class="cls-17" transform="translate(53.57 22.56) scale(1 1.09)"><tspan x="0" y="0">aufgabe</tspan></text>
  </g>
  <g id="Schlücke">
    <text class="cls-9" transform="translate(4.4 252.82)"><tspan x="0" y="0">+3</tspan></text>
    <text class="cls-9" transform="translate(147.68 19.77)"><tspan x="0" y="0">+3</tspan></text>
  </g>
  <g id="Motive">
    <g id="lze4UM">
      <g>
        <path class="cls-16" d="M68.6,51.5c.06,0,.13,0,.19.02,2.9.71,3.58,4.17,4.88,6.53,3.48,6.32,8.27,12.82,13.61,17.67,2.98,2.71,4.39,3.58,8.26,4.78,1.62.5,4.73.93,5.97,1.95.05.04.09.08.12.13,2.59,3.43,5.31,6.78,7.87,10.23,1.01,1.36,3.19,3.75,3.15,5.43-.05,1.87-1.2,2.82-2.74,3.53-4.92,2.26-10.73,3.6-15.8,5.59-.03,0-.05.02-.08.03-3.19.91-5.54-2.51-3.94-5.24.77-1.32,2.58-1.78,3.92-2.33,2.57-1.05,5.22-1.93,7.82-2.9.49-.18.67-.78.36-1.2l-1.55-2.09c-.45-.61-1.41-.29-1.41.47v1.57c0,.28-.15.54-.39.68-4.05,2.26-12.62,2.79-10.33,9.42,1.77,5.15,7,2.64,10.77,1.41.45-.15.92.14,1.01.6,1.36,6.94,3.84,13.78,6.78,20.18,3.39,7.37,7.85,13.96,12.18,20.79.03.04.05.08.07.13,1.44,3.5-2.67,6.68-5.69,4.35-1.31-1.01-5.46-7.98-6.6-9.85-5.62-9.21-10.12-18.97-12.94-29.42-.12-.43-.56-.68-.98-.55l-1.32.4c-.35.11-.58.44-.55.8l.35,5.03c.05.72-.83,1.12-1.34.6l-6.12-6.19c-.06-.06-.12-.13-.15-.22-.57-1.28-.38-6.39-.47-7.91-.31-5.18-.81-10.34-.54-15.56l.69-7.6c.02-.25-.08-.5-.27-.66-5.16-4.46-9.68-9.87-13.35-15.61-1.07-1.66-2.48-3.85-3.36-5.58-.13-.25-.67-1.48-.68-1.66-.03-.51.57-1.21.67-1.82.29-1.71-.27-2.61-1.18-3.77-.24-.3-.22-.74.05-1.02.51-.53,1.24-.82,1.93-1.1.09-.04.19-.06.29-.06h.83Z"/>
        <path class="cls-16" d="M79.59,137.08c1.72,4.51,4.29,8.61,6.84,12.68.03.04.05.08.06.13,1.08,3.69-3.47,6.45-6.19,3.78-1.92-1.89-5.07-8.08-6.29-10.69-.25-.54-1.32-3.37-1.82-4.28-.1-.17-.29-.28-.49-.26l-2.92.26c-.26.02-.45.24-.46.49,0,.36-.02.71,0,1.07.22,3.27,1.06,6.78,1.25,10.01.12,2.12-.81,4.13-3.12,4.38-2.81.31-3.92-1.38-4.35-3.87-.68-3.88-.83-8.07-1.25-12.01-.02-.22-.19-.4-.41-.44-3.03-.57-5.98-1.68-8.57-3.35-.41-.26-.57-.79-.39-1.24,2.03-4.95,3.65-10.08,4.64-15.35.43-2.29.66-4.6,1.02-6.9.09-.58.51-1.06,1.07-1.23l15.18-4.49c.55-.16,1.14,0,1.53.41l17.85,18.81c.26.2.35.67.09,1.03-3.04,4.94-7.52,8.44-12.97,10.39-.27.1-.41.39-.31.65Z"/>
        <path class="cls-16" d="M59.5,65.9c-1.82,2.64-3.7,5.27-5.54,7.9-.01.02-.03.04-.03.07-.19.69.37,1.69.67,2.36.94,2.09,4.15,6.91,6.1,8.02,1.14.65,1.93.35,3.05.52,2.64.4,5.98.84,8.52,1.49,1.74.45,2.27.84,2.77,2.6.79,2.79,1.95,8.53,2.21,11.38.16,1.72-.4,2.83-2.02,3.47-6.1,2.43-13.63,3.51-19.87,5.84,0,0-.02,0-.03,0-3.52.82-5.25-3.45-2.37-5.38.02-.01.04-.02.06-.03l17.69-5.34c.09-.03.16-.12.16-.21,0-.57-.33-2.04-.44-2.44h0c-.06-.23-.37-.22-.42,0-.14.59-.32,1.34-.69,1.6-.02.01-.04.02-.06.03l-11.04,3.27c-.62.18-1.24-.25-1.3-.89-.29-3.28.74-6.49,1.71-9.6.03-.08,0-.17-.07-.23-3.28-2.75-6.19-5.8-8.29-9.57-1.08-1.95-3.27-6.26-2.46-8.39,0-.02.02-.04.03-.05l11.86-17.05c1.55-2.6,5.79-1.53,5.62,1.5-.09,1.6-4.64,7.44-5.81,9.13Z"/>
        <path class="cls-16" d="M93.43,62.11c10.89-1.48,11.62,14.55,1.74,14.97-9.54.41-10.3-13.81-1.74-14.97Z"/>
        <path class="cls-16" d="M60.94,75.73c-3.46-.38-4.95-4.77-1.95-6.88.65-.47,2.55-1.29,4.82.34.58.56.72,1.27,1.18,1.87,6.09-1.83,10.95,5.08,7.03,10.11-4.22,5.41-12.69,1.11-11.08-5.44Z"/>
        <path class="cls-16" d="M92.63,130.91c.76,6.76,1.87,13.48,3.21,20.14.01.07.02.15.01.22-.3,3.38-4.65,4.71-6.69,1.93-.98-1.34-1.68-6.3-2.01-8.18-.57-3.19-.86-5.53-1.38-8.73-.28-.99-.07-1.11.44-1.53.56-.61,1.93-1.5,2.73-2.19s1.61-1.34,2.33-2.12c.45-.5,1.29-.23,1.36.44Z"/>
      </g>
    </g>
  </g>
  <g id="Kateg._Symbol" data-name="Kateg. Symbol">
    <g id="jCvsG5">
      <path class="cls-18" d="M14.94,10.67c.12-.09.3,0,.29.15-.04.89.15,1.8.59,2.57.7,1.21,1.87,1.54,2.22,3.08.71,3.1-2.81,5.2-5.44,3.74-1.15-.63-1.88-2.3-1.74-3.58.07-.65.37-1.28.78-1.78.1-.12.29-.09.35.05.29.68.74,1.35,1.45,1.62.21.08.41.15.61,0,.33-.24.03-.63-.08-.9-.74-1.8-.57-3.64.95-4.94,0,0,0,0,.01,0h0Z"/>
    </g>
    <g id="jCvsG5-2" data-name="jCvsG5">
      <path class="cls-18" d="M151.86,243.26c.12-.09.3,0,.29.15-.04.89.15,1.8.59,2.57.7,1.21,1.87,1.54,2.22,3.08.71,3.1-2.81,5.2-5.44,3.74-1.15-.63-1.88-2.3-1.74-3.58.07-.65.37-1.28.78-1.78.1-.12.29-.09.35.05.29.68.74,1.35,1.45,1.62.21.08.41.15.61,0,.33-.24.03-.63-.08-.9-.74-1.8-.57-3.64.95-4.94,0,0,0,0,.01,0h0Z"/>
    </g>
  </g>
  <g id="Kartentext">
    <g>
      <g class="cls-22">
        <text class="cls-2" transform="translate(37.73 179.29)"><tspan x="0" y="0">Z</tspan></text>
        <text class="cls-5" transform="translate(43.94 179.29)"><tspan x="0" y="0">eig d</tspan></text>
        <text class="cls-5" transform="translate(67.89 179.29)"><tspan x="0" y="0">einen bes</tspan></text>
        <text class="cls-3" transform="translate(114.1 179.29)"><tspan x="0" y="0">te</tspan></text>
        <text class="cls-2" transform="translate(123.39 179.29)"><tspan x="0" y="0">n </tspan></text>
      </g>
      <text class="cls-15" transform="translate(37.73 179.29)"><tspan x="0" y="0">Z</tspan></text>
      <text class="cls-11" transform="translate(43.94 179.29)"><tspan x="0" y="0">eig d</tspan></text>
      <text class="cls-11" transform="translate(67.89 179.29)"><tspan x="0" y="0">einen bes</tspan></text>
      <text class="cls-14" transform="translate(114.1 179.29)"><tspan x="0" y="0">te</tspan></text>
      <text class="cls-15" transform="translate(123.39 179.29)"><tspan x="0" y="0">n </tspan></text>
      <g class="cls-19">
        <text class="cls-6" transform="translate(58.34 191.28)"><tspan x="0" y="0">Ta</tspan></text>
        <text class="cls-7" transform="translate(69.16 191.28)"><tspan x="0" y="0">nzm</tspan></text>
        <text class="cls-4" transform="translate(89.74 191.28)"><tspan x="0" y="0">ove</tspan></text>
        <text class="cls-2" transform="translate(106.6 191.28)"><tspan x="0" y="0">.</tspan></text>
      </g>
      <text class="cls-13" transform="translate(58.34 191.28)"><tspan x="0" y="0">Ta</tspan></text>
      <text class="cls-12" transform="translate(69.16 191.28)"><tspan x="0" y="0">nzm</tspan></text>
      <text class="cls-10" transform="translate(89.74 191.28)"><tspan x="0" y="0">ove</tspan></text>
      <text class="cls-15" transform="translate(106.6 191.28)"><tspan x="0" y="0">.</tspan></text>
    </g>
  </g>
</svg>