<?xml version="1.0" encoding="UTF-8"?>
<svg xmlns="http://www.w3.org/2000/svg" xmlns:xlink="http://www.w3.org/1999/xlink" viewBox="0 0 167.24 260.79">
  <defs>
    <style>
      .cls-1, .cls-2, .cls-3, .cls-4, .cls-5, .cls-6, .cls-7, .cls-8, .cls-9, .cls-10, .cls-11, .cls-12, .cls-13, .cls-14 {
        fill: none;
      }

      .cls-15 {
        fill: #010101;
      }

      .cls-2, .cls-3, .cls-4, .cls-16, .cls-5, .cls-6, .cls-7, .cls-8, .cls-9, .cls-10, .cls-11, .cls-12, .cls-13, .cls-14 {
        stroke: #fff;
      }

      .cls-2, .cls-3, .cls-4, .cls-5, .cls-6, .cls-7, .cls-17, .cls-18, .cls-19, .cls-20, .cls-21, .cls-8, .cls-22, .cls-9, .cls-10, .cls-23, .cls-24, .cls-25, .cls-26, .cls-27, .cls-28, .cls-11, .cls-12, .cls-13, .cls-29, .cls-14 {
        font-family: QuicksandBold-Regular, Quicksand;
        font-size: 10px;
      }

      .cls-2, .cls-23 {
        letter-spacing: -.02em;
      }

      .cls-30 {
        fill: #171717;
      }

      .cls-4, .cls-22 {
        letter-spacing: .02em;
      }

      .cls-16 {
        font-size: 12px;
        stroke-miterlimit: 10;
        stroke-width: .15px;
      }

      .cls-16, .cls-31 {
        font-family: Namaku, Namaku;
      }

      .cls-16, .cls-32, .cls-17, .cls-18, .cls-19, .cls-20, .cls-21, .cls-22, .cls-23, .cls-24, .cls-25, .cls-26, .cls-27, .cls-28, .cls-29 {
        fill: #fff;
      }

      .cls-5, .cls-18 {
        letter-spacing: -.05em;
      }

      .cls-33 {
        clip-path: url(#clippath-1);
      }

      .cls-34 {
        clip-path: url(#clippath-3);
      }

      .cls-35 {
        clip-path: url(#clippath-4);
      }

      .cls-36 {
        clip-path: url(#clippath-2);
      }

      .cls-6, .cls-17 {
        letter-spacing: -.05em;
      }

      .cls-31 {
        font-size: 15px;
      }

      .cls-31, .cls-37 {
        fill: #8d74b0;
      }

      .cls-7, .cls-24 {
        letter-spacing: -.02em;
      }

      .cls-19, .cls-13 {
        letter-spacing: -.04em;
      }

      .cls-20, .cls-12 {
        letter-spacing: -.04em;
      }

      .cls-21, .cls-8 {
        letter-spacing: -.04em;
      }

      .cls-9, .cls-27 {
        letter-spacing: -.08em;
      }

      .cls-38 {
        fill: #171715;
      }

      .cls-10, .cls-26 {
        letter-spacing: -.11em;
      }

      .cls-25, .cls-14 {
        letter-spacing: -.02em;
      }

      .cls-28, .cls-11 {
        letter-spacing: -.07em;
      }

      .cls-39 {
        clip-path: url(#clippath);
      }
    </style>
    <clipPath id="clippath">
      <rect class="cls-1" x="0" y="0" width="167.24" height="260.79"/>
    </clipPath>
    <clipPath id="clippath-1">
      <rect class="cls-1" x="0" y="0" width="167.24" height="260.79"/>
    </clipPath>
    <clipPath id="clippath-2">
      <rect class="cls-1" x="0" y="0" width="167.24" height="260.79"/>
    </clipPath>
    <clipPath id="clippath-3">
      <rect class="cls-1" x="0" y="0" width="167.24" height="260.79"/>
    </clipPath>
    <clipPath id="clippath-4">
      <rect class="cls-1" x="0" y="0" width="167.24" height="260.79"/>
    </clipPath>
  </defs>
  <g id="Background">
    <rect class="cls-37" width="167.24" height="260.79"/>
  </g>
  <g id="Rahmen">
    <path class="cls-15" d="M151.9,23.16c9.65,0,9.67-15,0-15s-9.67,15,0,15h0Z"/>
    <path class="cls-15" d="M152.22,254.59c9.65,0,9.67-15,0-15s-9.67,15,0,15h0Z"/>
    <path class="cls-15" d="M14.14,254.72c9.65,0,9.67-15,0-15s-9.67,15,0,15h0Z"/>
    <path class="cls-30" d="M11.56,15.67c18.49.32,36.98.69,55.46,1.04,19.51.36,39.05-.42,58.56-.82,10.18-.21,20.36-.38,30.54-.21l-3.75-3.75c-1.46,11.81-1.7,23.8-1.97,35.69-.33,14.15-.39,28.31-.37,42.46.01,9.3.14,18.61.07,27.91-.06,7.86-.43,15.71-.48,23.57-.07,11.29.08,22.59.37,33.88.56,22.38,1.59,44.74,2.18,67.12.07,2.79.14,5.57.2,8.36l3.75-3.75c-15.41-.13-30.81.06-46.22.48-24.85.69-49.67.84-74.52.24-8.25-.2-16.49-.49-24.74-.73l3.75,3.75c-.56-4.87-.34-9.89-.27-14.78.11-8.38.38-16.76.66-25.14.66-20.11,1.45-40.22,1.83-60.34.16-8.4.26-16.81.05-25.21-.13-5.24-.51-10.46-.61-15.7-.33-17.03-.19-34.08-.18-51.11,0-8.91,0-17.82-.06-26.73-.04-5.94-.04-11.89-.34-17.82-.04-.72-.08-1.43-.15-2.15-.19-1.95-1.59-3.85-3.75-3.75-1.87.08-3.96,1.66-3.75,3.75.48,4.83.39,9.76.44,14.61.09,8.42.1,16.84.11,25.25,0,17.78-.1,35.55.11,53.33.06,5.22.27,10.41.52,15.62.36,7.73.31,15.47.21,23.21-.24,20.03-1.02,40.04-1.7,60.06-.3,8.95-.6,17.9-.79,26.85-.13,5.9-.3,11.84,0,17.74.04.78.09,1.55.18,2.32.24,2.06,1.53,3.69,3.75,3.75,18.27.53,36.53,1.09,54.81,1.16,23.38.09,46.73-.97,70.1-1.19,6.85-.06,13.71-.03,20.56.02,2,.02,3.79-1.73,3.75-3.75-.48-22.44-1.5-44.87-2.16-67.3-.33-11.25-.57-22.51-.6-33.77-.03-10.16.25-20.29.47-30.44.18-8.23-.03-16.48-.05-24.72-.03-13.94,0-27.88.25-41.82.23-12.54.48-25.14,1.72-37.62.11-1.1.23-2.21.37-3.31.25-2.04-1.92-3.72-3.75-3.75-19.14-.32-38.3.42-57.44.81-9.78.2-19.58.45-29.37.27-7.76-.14-15.52-.3-23.28-.45-11.49-.22-22.99-.44-34.48-.63-1.96-.03-3.84,1.75-3.75,3.75s1.65,3.71,3.75,3.75h0Z"/>
    <polygon class="cls-30" points="26.61 14.43 14.5 29.16 14.18 13.04 26.61 14.43"/>
    <polygon class="cls-30" points="140.79 14.16 152.35 27.66 154.57 11.89 140.79 14.16"/>
    <polygon class="cls-30" points="139.48 248.15 153.14 235.93 156.07 248.65 139.48 248.15"/>
    <polygon class="cls-30" points="12.9 235.54 26.24 248.54 12.31 249.36 12.9 235.54"/>
    <rect class="cls-30" width="10.32" height="260.79"/>
    <rect class="cls-30" y="249.36" width="167.24" height="11.43"/>
    <rect class="cls-38" width="167.24" height="10.33"/>
    <rect class="cls-30" x="156.12" width="11.13" height="260.79"/>
    <path class="cls-30" d="M117.73,17.19c0-.85.31-3.85,0-4.78-.82-2.49-3.11-2.81-5.35-2.81h-57.51c-2.24,0-4.53.32-5.35,2.81-.31.93,0,3.93,0,4.78l-.25,5.71c-.49,5.31,7.64,4.59,10.71,4.59l17.71.37,5.93-.07h0l5.93.07,17.71-.37c3.08,0,11.2.72,10.71-4.59l-.24-5.71Z"/>
    <path class="cls-15" d="M151.9,23.16c9.65,0,9.67-15,0-15s-9.67,15,0,15h0Z"/>
    <path class="cls-15" d="M152.22,254.59c9.65,0,9.67-15,0-15s-9.67,15,0,15h0Z"/>
    <path class="cls-15" d="M14.14,254.72c9.65,0,9.67-15,0-15s-9.67,15,0,15h0Z"/>
    <path class="cls-30" d="M11.56,15.67c18.49.32,36.98.69,55.46,1.04,19.51.36,39.05-.42,58.56-.82,10.18-.21,20.36-.38,30.54-.21l-3.75-3.75c-1.46,11.81-1.7,23.8-1.97,35.69-.33,14.15-.39,28.31-.37,42.46.01,9.3.14,18.61.07,27.91-.06,7.86-.43,15.71-.48,23.57-.07,11.29.08,22.59.37,33.88.56,22.38,1.59,44.74,2.18,67.12.07,2.79.14,5.57.2,8.36l3.75-3.75c-15.41-.13-30.81.06-46.22.48-24.85.69-49.67.84-74.52.24-8.25-.2-16.49-.49-24.74-.73l3.75,3.75c-.56-4.87-.34-9.89-.27-14.78.11-8.38.38-16.76.66-25.14.66-20.11,1.45-40.22,1.83-60.34.16-8.4.26-16.81.05-25.21-.13-5.24-.51-10.46-.61-15.7-.33-17.03-.19-34.08-.18-51.11,0-8.91,0-17.82-.06-26.73-.04-5.94-.04-11.89-.34-17.82-.04-.72-.08-1.43-.15-2.15-.19-1.95-1.59-3.85-3.75-3.75-1.87.08-3.96,1.66-3.75,3.75.48,4.83.39,9.76.44,14.61.09,8.42.1,16.84.11,25.25,0,17.78-.1,35.55.11,53.33.06,5.22.27,10.41.52,15.62.36,7.73.31,15.47.21,23.21-.24,20.03-1.02,40.04-1.7,60.06-.3,8.95-.6,17.9-.79,26.85-.13,5.9-.3,11.84,0,17.74.04.78.09,1.55.18,2.32.24,2.06,1.53,3.69,3.75,3.75,18.27.53,36.53,1.09,54.81,1.16,23.38.09,46.73-.97,70.1-1.19,6.85-.06,13.71-.03,20.56.02,2,.02,3.79-1.73,3.75-3.75-.48-22.44-1.5-44.87-2.16-67.3-.33-11.25-.57-22.51-.6-33.77-.03-10.16.25-20.29.47-30.44.18-8.23-.03-16.48-.05-24.72-.03-13.94,0-27.88.25-41.82.23-12.54.48-25.14,1.72-37.62.11-1.1.23-2.21.37-3.31.25-2.04-1.92-3.72-3.75-3.75-19.14-.32-38.3.42-57.44.81-9.78.2-19.58.45-29.37.27-7.76-.14-15.52-.3-23.28-.45-11.49-.22-22.99-.44-34.48-.63-1.96-.03-3.84,1.75-3.75,3.75s1.65,3.71,3.75,3.75h0Z"/>
    <polygon class="cls-30" points="26.61 14.43 14.5 29.16 14.18 13.04 26.61 14.43"/>
    <polygon class="cls-30" points="140.79 14.16 152.35 27.66 154.57 11.89 140.79 14.16"/>
    <polygon class="cls-30" points="139.48 248.15 153.14 235.93 156.07 248.65 139.48 248.15"/>
    <polygon class="cls-30" points="12.9 235.54 26.24 248.54 12.31 249.36 12.9 235.54"/>
    <rect class="cls-30" width="10.32" height="260.79"/>
    <rect class="cls-30" y="249.36" width="167.24" height="11.43"/>
    <rect class="cls-38" width="167.24" height="10.33"/>
    <rect class="cls-30" x="156.12" width="11.13" height="260.79"/>
  </g>
  <g id="Kategorie_Name" data-name="Kategorie Name">
    <text class="cls-31" transform="translate(53.57 22.56) scale(1 1.09)"><tspan x="0" y="0">aufgabe</tspan></text>
  </g>
  <g id="Schlücke">
    <text class="cls-16" transform="translate(4.25 252.82)"><tspan x="0" y="0">+4</tspan></text>
    <text class="cls-16" transform="translate(147.52 19.77)"><tspan x="0" y="0">+4</tspan></text>
  </g>
  <g id="Motive">
    <g>
      <path class="cls-30" d="M61.44,87.87l44.41-.03c5.24,2.66,4.48,9.92-.94,11.85-.27,9.01-6.5,17.11-15.1,19.69-13.52,4.05-27.07-5.71-27.6-19.69-1.06-.73-2.09-1.09-2.92-2.14-2.55-3.2-1.57-7.98,2.17-9.69ZM74.26,91.2c-1.36.16-3.68,1.18-4.46,2.34-1.2,1.79.18,4.11,2.35,3.77,1.26-.2,1.59-1.63,3.49-1.42,1.03.12,1.55,1.04,2.33,1.3,2.61.87,4.34-2.29,2.09-4.3-1.5-1.35-3.82-1.94-5.8-1.7ZM90.87,91.2c-1.36.16-3.68,1.18-4.46,2.34-1.2,1.79.18,4.11,2.35,3.77,1.26-.2,1.59-1.63,3.49-1.42,1.03.12,1.55,1.04,2.33,1.3,2.61.87,4.34-2.29,2.09-4.3-1.5-1.35-3.82-1.94-5.8-1.7ZM75.05,104.47c-.35.04-1.12.42-1.39.67-2.45,2.3,2.23,6.24,4.12,7.29,4.98,2.75,11.21,1.65,14.87-2.7,1.19-1.41,2.5-3.38.56-4.82-2.44-1.81-3.38,1.04-4.66,2.3-2.8,2.74-7.56,2.63-10.21-.24-.95-1.03-1.43-2.72-3.28-2.5Z"/>
      <path class="cls-30" d="M86,67.78c6.72.27,13.4,2.68,18.87,6.51,2.09,1.46,5.85,4.41,6.6,6.84s0,5.12-1.91,6.8l-51.85.05c-1.04-1.24-1.95-2.64-2.09-4.32-.26-3.29,1.68-5.16,3.95-7.12,5.95-5.12,13.79-8.42,21.67-8.77-.14-3.59,4.87-3.59,4.74,0Z"/>
      <path class="cls-30" d="M46.4,129.3l27.75-.02c.45,0,.88.18,1.22.48,4.76,4.19,11.61,4.2,16.37,0,.34-.3.77-.48,1.22-.48h28.87c.33.01.36.24.48.47.94,1.8,1.71,7.04,1.6,9.07-.06,1.23-1.14,2.33-2.39,2.32l-76.08-.02c-1.17-.13-2.09-1.29-2.12-2.44-.03-1.42.25-3.56.52-4.99.08-.43.46-2.02.84-3.17.25-.74.94-1.23,1.71-1.23Z"/>
      <path class="cls-30" d="M117.32,124.53h-21.15c-.67,0-1.17-.62-1.03-1.27l.13-.59c.07-.31.27-.56.55-.7,2.94-1.51,5.59-3.76,7.75-6.22.37-.42,1.23-1.93,1.67-1.98.74-.08,4.61,1.81,5.46,2.29,2.06,1.16,5.48,4.58,7.41,6.71.61.68.14,1.76-.78,1.76Z"/>
      <path class="cls-30" d="M49.62,124.53c-.86,0-1.35-.99-.83-1.68.48-.62.96-1.21,1.07-1.33,2.46-2.78,5.74-5.18,9.15-6.67.47-.21,2.55-1.09,2.88-1.07.37.02,1.3,1.56,1.66,1.97,2.18,2.48,4.81,4.69,7.76,6.22.27.14.47.39.54.7l.13.6c.14.65-.35,1.26-1.02,1.26h-21.33Z"/>
      <path class="cls-30" d="M88.59,126.14c-2.66,2.75-7.5,2.71-10.16-.07-.55-.58,0-1.53.78-1.4s1.53.29,2.29.33c2.14.13,4.27,0,6.38-.31.81-.12,1.28.86.71,1.45Z"/>
    </g>
  </g>
  <g id="Kateg._Symbol" data-name="Kateg. Symbol">
    <g id="jCvsG5">
      <path class="cls-32" d="M14.94,10.67c.12-.09.3,0,.29.15-.04.89.15,1.8.59,2.57.7,1.21,1.87,1.54,2.22,3.08.71,3.1-2.81,5.2-5.44,3.74-1.15-.63-1.88-2.3-1.74-3.58.07-.65.37-1.28.78-1.78.1-.12.29-.09.35.05.29.68.74,1.35,1.45,1.62.21.08.41.15.61,0,.33-.24.03-.63-.08-.9-.74-1.8-.57-3.64.95-4.94,0,0,0,0,.01,0h0Z"/>
    </g>
    <g id="jCvsG5-2" data-name="jCvsG5">
      <path class="cls-32" d="M151.86,243.26c.12-.09.3,0,.29.15-.04.89.15,1.8.59,2.57.7,1.21,1.87,1.54,2.22,3.08.71,3.1-2.81,5.2-5.44,3.74-1.15-.63-1.88-2.3-1.74-3.58.07-.65.37-1.28.78-1.78.1-.12.29-.09.35.05.29.68.74,1.35,1.45,1.62.21.08.41.15.61,0,.33-.24.03-.63-.08-.9-.74-1.8-.57-3.64.95-4.94,0,0,0,0,.01,0h0Z"/>
    </g>
  </g>
  <g id="Kartentext">
    <g>
      <g class="cls-39">
        <text class="cls-14" transform="translate(22.06 179.29)"><tspan x="0" y="0">Pant</tspan></text>
        <text class="cls-14" transform="translate(43.17 179.29)"><tspan x="0" y="0">omime: Ein Mitsp</tspan></text>
        <text class="cls-2" transform="translate(123.87 179.29)"><tspan x="0" y="0">iel</tspan></text>
        <text class="cls-8" transform="translate(135.11 179.29)"><tspan x="0" y="0">er</tspan></text>
        <text class="cls-3" transform="translate(145.17 179.29)"><tspan x="0" y="0"> </tspan></text>
      </g>
      <text class="cls-25" transform="translate(22.06 179.29)"><tspan x="0" y="0">Pant</tspan></text>
      <text class="cls-25" transform="translate(43.17 179.29)"><tspan x="0" y="0">omime: Ein Mitsp</tspan></text>
      <text class="cls-23" transform="translate(123.87 179.29)"><tspan x="0" y="0">iel</tspan></text>
      <text class="cls-21" transform="translate(135.11 179.29)"><tspan x="0" y="0">er</tspan></text>
      <text class="cls-29" transform="translate(145.17 179.29)"><tspan x="0" y="0"> </tspan></text>
      <g class="cls-33">
        <text class="cls-14" transform="translate(25.07 191.28)"><tspan x="0" y="0">gibt dir ein </tspan></text>
        <text class="cls-9" transform="translate(80.31 191.28)"><tspan x="0" y="0">Wo</tspan></text>
        <text class="cls-2" transform="translate(96.34 191.28)"><tspan x="0" y="0">rt </tspan></text>
        <text class="cls-6" transform="translate(107.12 191.28)"><tspan x="0" y="0">vo</tspan></text>
        <text class="cls-10" transform="translate(118.29 191.28)"><tspan x="0" y="0">r.</tspan></text>
        <text class="cls-14" transform="translate(123.68 191.28)"><tspan x="0" y="0" xml:space="preserve"> Die</tspan></text>
        <text class="cls-3" transform="translate(142.17 191.28)"><tspan x="0" y="0"> </tspan></text>
      </g>
      <text class="cls-25" transform="translate(25.07 191.28)"><tspan x="0" y="0">gibt dir ein </tspan></text>
      <text class="cls-27" transform="translate(80.31 191.28)"><tspan x="0" y="0">Wo</tspan></text>
      <text class="cls-23" transform="translate(96.34 191.28)"><tspan x="0" y="0">rt </tspan></text>
      <text class="cls-17" transform="translate(107.12 191.28)"><tspan x="0" y="0">vo</tspan></text>
      <text class="cls-26" transform="translate(118.29 191.28)"><tspan x="0" y="0">r.</tspan></text>
      <text class="cls-25" transform="translate(123.68 191.28)"><tspan x="0" y="0" xml:space="preserve"> Die</tspan></text>
      <text class="cls-29" transform="translate(142.17 191.28)"><tspan x="0" y="0"> </tspan></text>
      <g class="cls-36">
        <text class="cls-11" transform="translate(34.09 203.28)"><tspan x="0" y="0">re</tspan></text>
        <text class="cls-3" transform="translate(43.68 203.28)"><tspan x="0" y="0">s</tspan></text>
        <text class="cls-14" transform="translate(48.55 203.28)"><tspan x="0" y="0">tliche Gruppe </tspan></text>
        <text class="cls-4" transform="translate(116.83 203.28)"><tspan x="0" y="0">ha</tspan></text>
        <text class="cls-3" transform="translate(129.15 203.28)"><tspan x="0" y="0">t </tspan></text>
      </g>
      <text class="cls-28" transform="translate(34.09 203.28)"><tspan x="0" y="0">re</tspan></text>
      <text class="cls-29" transform="translate(43.68 203.28)"><tspan x="0" y="0">s</tspan></text>
      <text class="cls-25" transform="translate(48.55 203.28)"><tspan x="0" y="0">tliche Gruppe </tspan></text>
      <text class="cls-22" transform="translate(116.83 203.28)"><tspan x="0" y="0">ha</tspan></text>
      <text class="cls-29" transform="translate(129.15 203.28)"><tspan x="0" y="0">t </tspan></text>
      <g class="cls-34">
        <text class="cls-7" transform="translate(26.54 215.28)"><tspan x="0" y="0">60 Sek</tspan></text>
        <text class="cls-12" transform="translate(60.12 215.28)"><tspan x="0" y="0">und</tspan></text>
        <text class="cls-7" transform="translate(77.79 215.28)"><tspan x="0" y="0">en Z</tspan></text>
        <text class="cls-14" transform="translate(98.62 215.28)"><tspan x="0" y="0">eit, es zu</tspan></text>
        <text class="cls-3" transform="translate(140.71 215.28)"><tspan x="0" y="0"> </tspan></text>
      </g>
      <text class="cls-24" transform="translate(26.54 215.28)"><tspan x="0" y="0">60 Sek</tspan></text>
      <text class="cls-20" transform="translate(60.12 215.28)"><tspan x="0" y="0">und</tspan></text>
      <text class="cls-24" transform="translate(77.79 215.28)"><tspan x="0" y="0">en Z</tspan></text>
      <text class="cls-25" transform="translate(98.62 215.28)"><tspan x="0" y="0">eit, es zu</tspan></text>
      <text class="cls-29" transform="translate(140.71 215.28)"><tspan x="0" y="0"> </tspan></text>
      <g class="cls-35">
        <text class="cls-13" transform="translate(64.96 227.28)"><tspan x="0" y="0">er</tspan></text>
        <text class="cls-5" transform="translate(74.84 227.28)"><tspan x="0" y="0">ra</tspan></text>
        <text class="cls-3" transform="translate(84.76 227.28)"><tspan x="0" y="0">t</tspan></text>
        <text class="cls-14" transform="translate(88.16 227.28)"><tspan x="0" y="0">en.</tspan></text>
      </g>
      <text class="cls-19" transform="translate(64.96 227.28)"><tspan x="0" y="0">er</tspan></text>
      <text class="cls-18" transform="translate(74.84 227.28)"><tspan x="0" y="0">ra</tspan></text>
      <text class="cls-29" transform="translate(84.76 227.28)"><tspan x="0" y="0">t</tspan></text>
      <text class="cls-25" transform="translate(88.16 227.28)"><tspan x="0" y="0">en.</tspan></text>
    </g>
  </g>
</svg>