<?xml version="1.0" encoding="UTF-8"?>
<svg xmlns="http://www.w3.org/2000/svg" xmlns:xlink="http://www.w3.org/1999/xlink" viewBox="0 0 167.24 260.79">
  <defs>
    <style>
      .cls-1, .cls-2, .cls-3, .cls-4, .cls-5, .cls-6, .cls-7, .cls-8, .cls-9, .cls-10 {
        fill: none;
      }

      .cls-11 {
        fill: #010101;
      }

      .cls-2, .cls-3, .cls-4, .cls-5, .cls-12, .cls-6, .cls-7, .cls-8, .cls-9, .cls-10 {
        stroke: #fff;
      }

      .cls-2, .cls-3, .cls-4, .cls-5, .cls-13, .cls-6, .cls-14, .cls-15, .cls-7, .cls-16, .cls-8, .cls-9, .cls-17, .cls-18, .cls-19, .cls-20, .cls-21, .cls-10 {
        font-family: QuicksandBold-Regular, Quicksand;
        font-size: 10px;
      }

      .cls-2, .cls-13 {
        letter-spacing: 0em;
      }

      .cls-3, .cls-17 {
        letter-spacing: -.02em;
      }

      .cls-22 {
        fill: #171717;
      }

      .cls-5, .cls-16 {
        letter-spacing: .02em;
      }

      .cls-12 {
        font-size: 12px;
        stroke-miterlimit: 10;
        stroke-width: .15px;
      }

      .cls-12, .cls-23 {
        font-family: Namaku, Namaku;
      }

      .cls-12, .cls-24, .cls-13, .cls-14, .cls-15, .cls-16, .cls-17, .cls-18, .cls-19, .cls-20, .cls-21 {
        fill: #fff;
      }

      .cls-25 {
        clip-path: url(#clippath-1);
      }

      .cls-26 {
        clip-path: url(#clippath-3);
      }

      .cls-27 {
        clip-path: url(#clippath-4);
      }

      .cls-28 {
        clip-path: url(#clippath-2);
      }

      .cls-23 {
        font-size: 15px;
      }

      .cls-23, .cls-29 {
        fill: #8d74b0;
      }

      .cls-6, .cls-18 {
        letter-spacing: -.02em;
      }

      .cls-14, .cls-7 {
        letter-spacing: -.04em;
      }

      .cls-15, .cls-8 {
        letter-spacing: -.04em;
      }

      .cls-9, .cls-20 {
        letter-spacing: -.09em;
      }

      .cls-30 {
        fill: #171715;
      }

      .cls-19, .cls-10 {
        letter-spacing: -.02em;
      }

      .cls-31 {
        clip-path: url(#clippath);
      }
    </style>
    <clipPath id="clippath">
      <rect class="cls-1" x="0" y="0" width="167.24" height="260.79"/>
    </clipPath>
    <clipPath id="clippath-1">
      <rect class="cls-1" x="0" y="0" width="167.24" height="260.79"/>
    </clipPath>
    <clipPath id="clippath-2">
      <rect class="cls-1" x="0" y="0" width="167.24" height="260.79"/>
    </clipPath>
    <clipPath id="clippath-3">
      <rect class="cls-1" x="0" y="0" width="167.24" height="260.79"/>
    </clipPath>
    <clipPath id="clippath-4">
      <rect class="cls-1" x="0" y="0" width="167.24" height="260.79"/>
    </clipPath>
  </defs>
  <g id="Background">
    <rect class="cls-29" width="167.24" height="260.79"/>
  </g>
  <g id="Rahmen">
    <path class="cls-11" d="M151.9,23.16c9.65,0,9.67-15,0-15s-9.67,15,0,15h0Z"/>
    <path class="cls-11" d="M152.22,254.59c9.65,0,9.67-15,0-15s-9.67,15,0,15h0Z"/>
    <path class="cls-11" d="M14.14,254.72c9.65,0,9.67-15,0-15s-9.67,15,0,15h0Z"/>
    <path class="cls-22" d="M11.56,15.67c18.49.32,36.98.69,55.46,1.04,19.51.36,39.05-.42,58.56-.82,10.18-.21,20.36-.38,30.54-.21l-3.75-3.75c-1.46,11.81-1.7,23.8-1.97,35.69-.33,14.15-.39,28.31-.37,42.46.01,9.3.14,18.61.07,27.91-.06,7.86-.43,15.71-.48,23.57-.07,11.29.08,22.59.37,33.88.56,22.38,1.59,44.74,2.18,67.12.07,2.79.14,5.57.2,8.36l3.75-3.75c-15.41-.13-30.81.06-46.22.48-24.85.69-49.67.84-74.52.24-8.25-.2-16.49-.49-24.74-.73l3.75,3.75c-.56-4.87-.34-9.89-.27-14.78.11-8.38.38-16.76.66-25.14.66-20.11,1.45-40.22,1.83-60.34.16-8.4.26-16.81.05-25.21-.13-5.24-.51-10.46-.61-15.7-.33-17.03-.19-34.08-.18-51.11,0-8.91,0-17.82-.06-26.73-.04-5.94-.04-11.89-.34-17.82-.04-.72-.08-1.43-.15-2.15-.19-1.95-1.59-3.85-3.75-3.75-1.87.08-3.96,1.66-3.75,3.75.48,4.83.39,9.76.44,14.61.09,8.42.1,16.84.11,25.25,0,17.78-.1,35.55.11,53.33.06,5.22.27,10.41.52,15.62.36,7.73.31,15.47.21,23.21-.24,20.03-1.02,40.04-1.7,60.06-.3,8.95-.6,17.9-.79,26.85-.13,5.9-.3,11.84,0,17.74.04.78.09,1.55.18,2.32.24,2.06,1.53,3.69,3.75,3.75,18.27.53,36.53,1.09,54.81,1.16,23.38.09,46.73-.97,70.1-1.19,6.85-.06,13.71-.03,20.56.02,2,.02,3.79-1.73,3.75-3.75-.48-22.44-1.5-44.87-2.16-67.3-.33-11.25-.57-22.51-.6-33.77-.03-10.16.25-20.29.47-30.44.18-8.23-.03-16.48-.05-24.72-.03-13.94,0-27.88.25-41.82.23-12.54.48-25.14,1.72-37.62.11-1.1.23-2.21.37-3.31.25-2.04-1.92-3.72-3.75-3.75-19.14-.32-38.3.42-57.44.81-9.78.2-19.58.45-29.37.27-7.76-.14-15.52-.3-23.28-.45-11.49-.22-22.99-.44-34.48-.63-1.96-.03-3.84,1.75-3.75,3.75s1.65,3.71,3.75,3.75h0Z"/>
    <polygon class="cls-22" points="26.61 14.43 14.5 29.16 14.18 13.04 26.61 14.43"/>
    <polygon class="cls-22" points="140.79 14.16 152.35 27.66 154.57 11.89 140.79 14.16"/>
    <polygon class="cls-22" points="139.48 248.15 153.14 235.93 156.07 248.65 139.48 248.15"/>
    <polygon class="cls-22" points="12.9 235.54 26.24 248.54 12.31 249.36 12.9 235.54"/>
    <rect class="cls-22" width="10.32" height="260.79"/>
    <rect class="cls-22" y="249.36" width="167.24" height="11.43"/>
    <rect class="cls-30" width="167.24" height="10.33"/>
    <rect class="cls-22" x="156.12" width="11.13" height="260.79"/>
    <path class="cls-22" d="M117.73,17.19c0-.85.31-3.85,0-4.78-.82-2.49-3.11-2.81-5.35-2.81h-57.51c-2.24,0-4.53.32-5.35,2.81-.31.93,0,3.93,0,4.78l-.25,5.71c-.49,5.31,7.64,4.59,10.71,4.59l17.71.37,5.93-.07h0l5.93.07,17.71-.37c3.08,0,11.2.72,10.71-4.59l-.24-5.71Z"/>
    <path class="cls-11" d="M151.9,23.16c9.65,0,9.67-15,0-15s-9.67,15,0,15h0Z"/>
    <path class="cls-11" d="M152.22,254.59c9.65,0,9.67-15,0-15s-9.67,15,0,15h0Z"/>
    <path class="cls-11" d="M14.14,254.72c9.65,0,9.67-15,0-15s-9.67,15,0,15h0Z"/>
    <path class="cls-22" d="M11.56,15.67c18.49.32,36.98.69,55.46,1.04,19.51.36,39.05-.42,58.56-.82,10.18-.21,20.36-.38,30.54-.21l-3.75-3.75c-1.46,11.81-1.7,23.8-1.97,35.69-.33,14.15-.39,28.31-.37,42.46.01,9.3.14,18.61.07,27.91-.06,7.86-.43,15.71-.48,23.57-.07,11.29.08,22.59.37,33.88.56,22.38,1.59,44.74,2.18,67.12.07,2.79.14,5.57.2,8.36l3.75-3.75c-15.41-.13-30.81.06-46.22.48-24.85.69-49.67.84-74.52.24-8.25-.2-16.49-.49-24.74-.73l3.75,3.75c-.56-4.87-.34-9.89-.27-14.78.11-8.38.38-16.76.66-25.14.66-20.11,1.45-40.22,1.83-60.34.16-8.4.26-16.81.05-25.21-.13-5.24-.51-10.46-.61-15.7-.33-17.03-.19-34.08-.18-51.11,0-8.91,0-17.82-.06-26.73-.04-5.94-.04-11.89-.34-17.82-.04-.72-.08-1.43-.15-2.15-.19-1.95-1.59-3.85-3.75-3.75-1.87.08-3.96,1.66-3.75,3.75.48,4.83.39,9.76.44,14.61.09,8.42.1,16.84.11,25.25,0,17.78-.1,35.55.11,53.33.06,5.22.27,10.41.52,15.62.36,7.73.31,15.47.21,23.21-.24,20.03-1.02,40.04-1.7,60.06-.3,8.95-.6,17.9-.79,26.85-.13,5.9-.3,11.84,0,17.74.04.78.09,1.55.18,2.32.24,2.06,1.53,3.69,3.75,3.75,18.27.53,36.53,1.09,54.81,1.16,23.38.09,46.73-.97,70.1-1.19,6.85-.06,13.71-.03,20.56.02,2,.02,3.79-1.73,3.75-3.75-.48-22.44-1.5-44.87-2.16-67.3-.33-11.25-.57-22.51-.6-33.77-.03-10.16.25-20.29.47-30.44.18-8.23-.03-16.48-.05-24.72-.03-13.94,0-27.88.25-41.82.23-12.54.48-25.14,1.72-37.62.11-1.1.23-2.21.37-3.31.25-2.04-1.92-3.72-3.75-3.75-19.14-.32-38.3.42-57.44.81-9.78.2-19.58.45-29.37.27-7.76-.14-15.52-.3-23.28-.45-11.49-.22-22.99-.44-34.48-.63-1.96-.03-3.84,1.75-3.75,3.75s1.65,3.71,3.75,3.75h0Z"/>
    <polygon class="cls-22" points="26.61 14.43 14.5 29.16 14.18 13.04 26.61 14.43"/>
    <polygon class="cls-22" points="140.79 14.16 152.35 27.66 154.57 11.89 140.79 14.16"/>
    <polygon class="cls-22" points="139.48 248.15 153.14 235.93 156.07 248.65 139.48 248.15"/>
    <polygon class="cls-22" points="12.9 235.54 26.24 248.54 12.31 249.36 12.9 235.54"/>
    <rect class="cls-22" width="10.32" height="260.79"/>
    <rect class="cls-22" y="249.36" width="167.24" height="11.43"/>
    <rect class="cls-30" width="167.24" height="10.33"/>
    <rect class="cls-22" x="156.12" width="11.13" height="260.79"/>
  </g>
  <g id="Kategorie_Name" data-name="Kategorie Name">
    <text class="cls-23" transform="translate(53.57 22.56) scale(1 1.09)"><tspan x="0" y="0">aufgabe</tspan></text>
  </g>
  <g id="Schlücke">
    <text class="cls-12" transform="translate(4.25 252.82)"><tspan x="0" y="0">+4</tspan></text>
    <text class="cls-12" transform="translate(147.52 19.77)"><tspan x="0" y="0">+4</tspan></text>
  </g>
  <g id="Motive">
    <g>
      <path class="cls-22" d="M77.55,86.09c4.25-1.49,7.89-1.48,12.13,0l1.23-3.3c-2.18-2.14-2.23-6.39-1.84-9.28.44-3.23,3.74-5.62,6.84-5.93,3.86-.39,12.78-.42,16.61,0,5.88.64,7.53,6.06,6.78,11.25-.22,1.56-1.81,3.57-1.81,4.23,0,1,1.94,3.49,1.59,4.94,2.04-.08,5.72-.29,5.42,2.7-.33,3.23-4.04,1.54-5.12,2.25-2.14,9.93-12.03,15.47-21.6,11.4-5.46-2.32-8.13-7.35-9.05-12.98-3.24-2.24-7.21-2.26-10.37.16-1.8,18.03-26.83,18.99-30.49,1.42-1.13-.75-4.14.95-4.98-1.73-1.04-3.28,3.06-3.43,5.28-3.22-.29-1.61,1.83-4.19,1.48-5.42-.16-.58-1-1.41-1.3-2.24-1.87-5.21.25-12.1,6.38-12.76,3.83-.42,12.75-.38,16.61,0,3.1.31,6.4,2.7,6.84,5.93.4,2.88.35,7.13-1.84,9.28l1.23,3.3ZM53.97,85.19c-4.06,8.49,2.06,17,11.53,15.51,6.46-1.02,10.18-9.97,6.63-15.41l-18.16-.1ZM113.27,85.19l-18.16.1c-3.55,5.44.17,14.39,6.63,15.41,9.47,1.49,15.59-7.03,11.53-15.51Z"/>
      <path class="cls-22" d="M66.04,113.99c.04.27.13.58.32.79,9.26,9.73,25.24,9.73,34.51,0,.19-.2.28-.51.32-.79,1.24.41,2.16,1.32,3.39,1.86,3.88,1.73,7.59,1.77,11.51.1,1.85-.78,4.83-3.71,6.3-3.57,2.22.22,2.19,2.61,2.12,4.32-.95,21.29-34.55,33.63-40.58,7.33-.11-.5.21-.55-.63-.48-2.9,22.51-31.8,18-38.89.4-.99-2.45-3.76-12.07,1.01-11.58.98.1,4.26,2.98,5.94,3.66,3.64,1.47,6.95,1.5,10.62.09,1.51-.58,2.6-1.57,4.06-2.15Z"/>
      <path class="cls-22" d="M78.44,100.61c1.95-4.22,7.91-4.39,10.16-.33.17.3.28.52.3.6.54,1.74-.39,4.81.49,6.21.77,1.22,4.36.53,6.17,3.09s-.14,3.39-2.37,4.61c-6.03,3.32-13.39,3.3-19.38-.11-2.09-1.19-3.81-1.9-2.29-4.31,1.77-2.81,5.49-2.01,6.3-3.28.89-1.4-.05-4.47.49-6.21.02-.06.06-.15.11-.26Z"/>
    </g>
  </g>
  <g id="Kateg._Symbol" data-name="Kateg. Symbol">
    <g id="jCvsG5">
      <path class="cls-24" d="M14.94,10.67c.12-.09.3,0,.29.15-.04.89.15,1.8.59,2.57.7,1.21,1.87,1.54,2.22,3.08.71,3.1-2.81,5.2-5.44,3.74-1.15-.63-1.88-2.3-1.74-3.58.07-.65.37-1.28.78-1.78.1-.12.29-.09.35.05.29.68.74,1.35,1.45,1.62.21.08.41.15.61,0,.33-.24.03-.63-.08-.9-.74-1.8-.57-3.64.95-4.94,0,0,0,0,.01,0h0Z"/>
    </g>
    <g id="jCvsG5-2" data-name="jCvsG5">
      <path class="cls-24" d="M151.86,243.26c.12-.09.3,0,.29.15-.04.89.15,1.8.59,2.57.7,1.21,1.87,1.54,2.22,3.08.71,3.1-2.81,5.2-5.44,3.74-1.15-.63-1.88-2.3-1.74-3.58.07-.65.37-1.28.78-1.78.1-.12.29-.09.35.05.29.68.74,1.35,1.45,1.62.21.08.41.15.61,0,.33-.24.03-.63-.08-.9-.74-1.8-.57-3.64.95-4.94,0,0,0,0,.01,0h0Z"/>
    </g>
  </g>
  <g id="Kartentext">
    <g>
      <g class="cls-31">
        <text class="cls-9" transform="translate(53.79 179.29)"><tspan x="0" y="0">We</tspan></text>
        <text class="cls-10" transform="translate(69.64 179.29)"><tspan x="0" y="0">r bin ich</tspan></text>
        <text class="cls-4" transform="translate(108.12 179.29)"><tspan x="0" y="0">? </tspan></text>
      </g>
      <text class="cls-20" transform="translate(53.79 179.29)"><tspan x="0" y="0">We</tspan></text>
      <text class="cls-19" transform="translate(69.64 179.29)"><tspan x="0" y="0">r bin ich</tspan></text>
      <text class="cls-21" transform="translate(108.12 179.29)"><tspan x="0" y="0">? </tspan></text>
      <g class="cls-25">
        <text class="cls-10" transform="translate(26.83 191.28)"><tspan x="0" y="0">Deine Mitsp</tspan></text>
        <text class="cls-3" transform="translate(82.4 191.28)"><tspan x="0" y="0">iel</tspan></text>
        <text class="cls-7" transform="translate(93.64 191.28)"><tspan x="0" y="0">er</tspan></text>
        <text class="cls-10" transform="translate(103.51 191.28)"><tspan x="0" y="0" xml:space="preserve"> suchen</tspan></text>
        <text class="cls-4" transform="translate(140.41 191.28)"><tspan x="0" y="0"> </tspan></text>
      </g>
      <text class="cls-19" transform="translate(26.83 191.28)"><tspan x="0" y="0">Deine Mitsp</tspan></text>
      <text class="cls-17" transform="translate(82.4 191.28)"><tspan x="0" y="0">iel</tspan></text>
      <text class="cls-14" transform="translate(93.64 191.28)"><tspan x="0" y="0">er</tspan></text>
      <text class="cls-19" transform="translate(103.51 191.28)"><tspan x="0" y="0" xml:space="preserve"> suchen</tspan></text>
      <text class="cls-21" transform="translate(140.41 191.28)"><tspan x="0" y="0"> </tspan></text>
      <g class="cls-28">
        <text class="cls-6" transform="translate(21.51 203.28)"><tspan x="0" y="0">jema</tspan></text>
        <text class="cls-8" transform="translate(44.89 203.28)"><tspan x="0" y="0">nd</tspan></text>
        <text class="cls-6" transform="translate(56.87 203.28)"><tspan x="0" y="0">en für dich aus. Du</tspan></text>
        <text class="cls-4" transform="translate(145.73 203.28)"><tspan x="0" y="0"> </tspan></text>
      </g>
      <text class="cls-18" transform="translate(21.51 203.28)"><tspan x="0" y="0">jema</tspan></text>
      <text class="cls-15" transform="translate(44.89 203.28)"><tspan x="0" y="0">nd</tspan></text>
      <text class="cls-18" transform="translate(56.87 203.28)"><tspan x="0" y="0">en für dich aus. Du</tspan></text>
      <text class="cls-21" transform="translate(145.73 203.28)"><tspan x="0" y="0"> </tspan></text>
      <g class="cls-26">
        <text class="cls-5" transform="translate(22.23 215.28)"><tspan x="0" y="0">ha</tspan></text>
        <text class="cls-2" transform="translate(34.55 215.28)"><tspan x="0" y="0">st</tspan></text>
        <text class="cls-10" transform="translate(43.22 215.28)"><tspan x="0" y="0" xml:space="preserve"> 10 Fr</tspan></text>
        <text class="cls-4" transform="translate(68.66 215.28)"><tspan x="0" y="0">a</tspan></text>
        <text class="cls-10" transform="translate(75 215.28)"><tspan x="0" y="0">gen Z</tspan></text>
        <text class="cls-10" transform="translate(102.24 215.28)"><tspan x="0" y="0">eit, sons</tspan></text>
        <text class="cls-4" transform="translate(141.01 215.28)"><tspan x="0" y="0">t </tspan></text>
      </g>
      <text class="cls-16" transform="translate(22.23 215.28)"><tspan x="0" y="0">ha</tspan></text>
      <text class="cls-13" transform="translate(34.55 215.28)"><tspan x="0" y="0">st</tspan></text>
      <text class="cls-19" transform="translate(43.22 215.28)"><tspan x="0" y="0" xml:space="preserve"> 10 Fr</tspan></text>
      <text class="cls-21" transform="translate(68.66 215.28)"><tspan x="0" y="0">a</tspan></text>
      <text class="cls-19" transform="translate(75 215.28)"><tspan x="0" y="0">gen Z</tspan></text>
      <text class="cls-19" transform="translate(102.24 215.28)"><tspan x="0" y="0">eit, sons</tspan></text>
      <text class="cls-21" transform="translate(141.01 215.28)"><tspan x="0" y="0">t </tspan></text>
      <g class="cls-27">
        <text class="cls-4" transform="translate(59.95 227.28)"><tspan x="0" y="0">t</tspan></text>
        <text class="cls-10" transform="translate(63.05 227.28)"><tspan x="0" y="0">rinks</tspan></text>
        <text class="cls-10" transform="translate(86.05 227.28)"><tspan x="0" y="0">t du.</tspan></text>
      </g>
      <text class="cls-21" transform="translate(59.95 227.28)"><tspan x="0" y="0">t</tspan></text>
      <text class="cls-19" transform="translate(63.05 227.28)"><tspan x="0" y="0">rinks</tspan></text>
      <text class="cls-19" transform="translate(86.05 227.28)"><tspan x="0" y="0">t du.</tspan></text>
    </g>
  </g>
</svg>