<?xml version="1.0" encoding="UTF-8"?>
<svg xmlns="http://www.w3.org/2000/svg" xmlns:xlink="http://www.w3.org/1999/xlink" viewBox="0 0 167.24 260.79">
  <defs>
    <style>
      .cls-1, .cls-2, .cls-3, .cls-4, .cls-5, .cls-6, .cls-7 {
        fill: none;
      }

      .cls-8 {
        fill: #010101;
      }

      .cls-2, .cls-3, .cls-9, .cls-4, .cls-5, .cls-6, .cls-7 {
        stroke: #fff;
      }

      .cls-2, .cls-3, .cls-4, .cls-10, .cls-5, .cls-11, .cls-12, .cls-13, .cls-14, .cls-6, .cls-15, .cls-7 {
        font-family: QuicksandBold-Regular, Quicksand;
        font-size: 10px;
      }

      .cls-2, .cls-12 {
        letter-spacing: -.02em;
      }

      .cls-16 {
        fill: #171717;
      }

      .cls-9 {
        font-size: 12px;
        stroke-miterlimit: 10;
        stroke-width: .15px;
      }

      .cls-9, .cls-17 {
        font-family: Namaku, Namaku;
      }

      .cls-9, .cls-18, .cls-10, .cls-11, .cls-12, .cls-13, .cls-14, .cls-15 {
        fill: #fff;
      }

      .cls-19 {
        clip-path: url(#clippath-1);
      }

      .cls-20 {
        clip-path: url(#clippath-3);
      }

      .cls-21 {
        clip-path: url(#clippath-2);
      }

      .cls-17 {
        font-size: 15px;
      }

      .cls-17, .cls-22 {
        fill: #8d74b0;
      }

      .cls-4 {
        letter-spacing: -.02em;
      }

      .cls-10 {
        letter-spacing: 0em;
      }

      .cls-5, .cls-13 {
        letter-spacing: -.02em;
      }

      .cls-11, .cls-6 {
        letter-spacing: -.04em;
      }

      .cls-23 {
        fill: #171715;
      }

      .cls-14, .cls-7 {
        letter-spacing: -.02em;
      }

      .cls-24 {
        clip-path: url(#clippath);
      }
    </style>
    <clipPath id="clippath">
      <rect class="cls-1" x="0" y="0" width="167.24" height="260.79"/>
    </clipPath>
    <clipPath id="clippath-1">
      <rect class="cls-1" x="0" y="0" width="167.24" height="260.79"/>
    </clipPath>
    <clipPath id="clippath-2">
      <rect class="cls-1" x="0" y="0" width="167.24" height="260.79"/>
    </clipPath>
    <clipPath id="clippath-3">
      <rect class="cls-1" x="0" y="0" width="167.24" height="260.79"/>
    </clipPath>
  </defs>
  <g id="Background">
    <rect class="cls-22" width="167.24" height="260.79"/>
  </g>
  <g id="Rahmen">
    <path class="cls-8" d="M151.9,23.16c9.65,0,9.67-15,0-15s-9.67,15,0,15h0Z"/>
    <path class="cls-8" d="M152.22,254.59c9.65,0,9.67-15,0-15s-9.67,15,0,15h0Z"/>
    <path class="cls-8" d="M14.14,254.72c9.65,0,9.67-15,0-15s-9.67,15,0,15h0Z"/>
    <path class="cls-16" d="M11.56,15.67c18.49.32,36.98.69,55.46,1.04,19.51.36,39.05-.42,58.56-.82,10.18-.21,20.36-.38,30.54-.21l-3.75-3.75c-1.46,11.81-1.7,23.8-1.97,35.69-.33,14.15-.39,28.31-.37,42.46.01,9.3.14,18.61.07,27.91-.06,7.86-.43,15.71-.48,23.57-.07,11.29.08,22.59.37,33.88.56,22.38,1.59,44.74,2.18,67.12.07,2.79.14,5.57.2,8.36l3.75-3.75c-15.41-.13-30.81.06-46.22.48-24.85.69-49.67.84-74.52.24-8.25-.2-16.49-.49-24.74-.73l3.75,3.75c-.56-4.87-.34-9.89-.27-14.78.11-8.38.38-16.76.66-25.14.66-20.11,1.45-40.22,1.83-60.34.16-8.4.26-16.81.05-25.21-.13-5.24-.51-10.46-.61-15.7-.33-17.03-.19-34.08-.18-51.11,0-8.91,0-17.82-.06-26.73-.04-5.94-.04-11.89-.34-17.82-.04-.72-.08-1.43-.15-2.15-.19-1.95-1.59-3.85-3.75-3.75-1.87.08-3.96,1.66-3.75,3.75.48,4.83.39,9.76.44,14.61.09,8.42.1,16.84.11,25.25,0,17.78-.1,35.55.11,53.33.06,5.22.27,10.41.52,15.62.36,7.73.31,15.47.21,23.21-.24,20.03-1.02,40.04-1.7,60.06-.3,8.95-.6,17.9-.79,26.85-.13,5.9-.3,11.84,0,17.74.04.78.09,1.55.18,2.32.24,2.06,1.53,3.69,3.75,3.75,18.27.53,36.53,1.09,54.81,1.16,23.38.09,46.73-.97,70.1-1.19,6.85-.06,13.71-.03,20.56.02,2,.02,3.79-1.73,3.75-3.75-.48-22.44-1.5-44.87-2.16-67.3-.33-11.25-.57-22.51-.6-33.77-.03-10.16.25-20.29.47-30.44.18-8.23-.03-16.48-.05-24.72-.03-13.94,0-27.88.25-41.82.23-12.54.48-25.14,1.72-37.62.11-1.1.23-2.21.37-3.31.25-2.04-1.92-3.72-3.75-3.75-19.14-.32-38.3.42-57.44.81-9.78.2-19.58.45-29.37.27-7.76-.14-15.52-.3-23.28-.45-11.49-.22-22.99-.44-34.48-.63-1.96-.03-3.84,1.75-3.75,3.75s1.65,3.71,3.75,3.75h0Z"/>
    <polygon class="cls-16" points="26.61 14.43 14.5 29.16 14.18 13.04 26.61 14.43"/>
    <polygon class="cls-16" points="140.79 14.16 152.35 27.66 154.57 11.89 140.79 14.16"/>
    <polygon class="cls-16" points="139.48 248.15 153.14 235.93 156.07 248.65 139.48 248.15"/>
    <polygon class="cls-16" points="12.9 235.54 26.24 248.54 12.31 249.36 12.9 235.54"/>
    <rect class="cls-16" width="10.32" height="260.79"/>
    <rect class="cls-16" y="249.36" width="167.24" height="11.43"/>
    <rect class="cls-23" width="167.24" height="10.33"/>
    <rect class="cls-16" x="156.12" width="11.13" height="260.79"/>
    <path class="cls-16" d="M117.73,17.19c0-.85.31-3.85,0-4.78-.82-2.49-3.11-2.81-5.35-2.81h-57.51c-2.24,0-4.53.32-5.35,2.81-.31.93,0,3.93,0,4.78l-.25,5.71c-.49,5.31,7.64,4.59,10.71,4.59l17.71.37,5.93-.07h0l5.93.07,17.71-.37c3.08,0,11.2.72,10.71-4.59l-.24-5.71Z"/>
    <path class="cls-8" d="M151.9,23.16c9.65,0,9.67-15,0-15s-9.67,15,0,15h0Z"/>
    <path class="cls-8" d="M152.22,254.59c9.65,0,9.67-15,0-15s-9.67,15,0,15h0Z"/>
    <path class="cls-8" d="M14.14,254.72c9.65,0,9.67-15,0-15s-9.67,15,0,15h0Z"/>
    <path class="cls-16" d="M11.56,15.67c18.49.32,36.98.69,55.46,1.04,19.51.36,39.05-.42,58.56-.82,10.18-.21,20.36-.38,30.54-.21l-3.75-3.75c-1.46,11.81-1.7,23.8-1.97,35.69-.33,14.15-.39,28.31-.37,42.46.01,9.3.14,18.61.07,27.91-.06,7.86-.43,15.71-.48,23.57-.07,11.29.08,22.59.37,33.88.56,22.38,1.59,44.74,2.18,67.12.07,2.79.14,5.57.2,8.36l3.75-3.75c-15.41-.13-30.81.06-46.22.48-24.85.69-49.67.84-74.52.24-8.25-.2-16.49-.49-24.74-.73l3.75,3.75c-.56-4.87-.34-9.89-.27-14.78.11-8.38.38-16.76.66-25.14.66-20.11,1.45-40.22,1.83-60.34.16-8.4.26-16.81.05-25.21-.13-5.24-.51-10.46-.61-15.7-.33-17.03-.19-34.08-.18-51.11,0-8.91,0-17.82-.06-26.73-.04-5.94-.04-11.89-.34-17.82-.04-.72-.08-1.43-.15-2.15-.19-1.95-1.59-3.85-3.75-3.75-1.87.08-3.96,1.66-3.75,3.75.48,4.83.39,9.76.44,14.61.09,8.42.1,16.84.11,25.25,0,17.78-.1,35.55.11,53.33.06,5.22.27,10.41.52,15.62.36,7.73.31,15.47.21,23.21-.24,20.03-1.02,40.04-1.7,60.06-.3,8.95-.6,17.9-.79,26.85-.13,5.9-.3,11.84,0,17.74.04.78.09,1.55.18,2.32.24,2.06,1.53,3.69,3.75,3.75,18.27.53,36.53,1.09,54.81,1.16,23.38.09,46.73-.97,70.1-1.19,6.85-.06,13.71-.03,20.56.02,2,.02,3.79-1.73,3.75-3.75-.48-22.44-1.5-44.87-2.16-67.3-.33-11.25-.57-22.51-.6-33.77-.03-10.16.25-20.29.47-30.44.18-8.23-.03-16.48-.05-24.72-.03-13.94,0-27.88.25-41.82.23-12.54.48-25.14,1.72-37.62.11-1.1.23-2.21.37-3.31.25-2.04-1.92-3.72-3.75-3.75-19.14-.32-38.3.42-57.44.81-9.78.2-19.58.45-29.37.27-7.76-.14-15.52-.3-23.28-.45-11.49-.22-22.99-.44-34.48-.63-1.96-.03-3.84,1.75-3.75,3.75s1.65,3.71,3.75,3.75h0Z"/>
    <polygon class="cls-16" points="26.61 14.43 14.5 29.16 14.18 13.04 26.61 14.43"/>
    <polygon class="cls-16" points="140.79 14.16 152.35 27.66 154.57 11.89 140.79 14.16"/>
    <polygon class="cls-16" points="139.48 248.15 153.14 235.93 156.07 248.65 139.48 248.15"/>
    <polygon class="cls-16" points="12.9 235.54 26.24 248.54 12.31 249.36 12.9 235.54"/>
    <rect class="cls-16" width="10.32" height="260.79"/>
    <rect class="cls-16" y="249.36" width="167.24" height="11.43"/>
    <rect class="cls-23" width="167.24" height="10.33"/>
    <rect class="cls-16" x="156.12" width="11.13" height="260.79"/>
  </g>
  <g id="Kategorie_Name" data-name="Kategorie Name">
    <text class="cls-17" transform="translate(53.57 22.56) scale(1 1.09)"><tspan x="0" y="0">aufgabe</tspan></text>
  </g>
  <g id="Schlücke">
    <text class="cls-9" transform="translate(4.4 252.82)"><tspan x="0" y="0">+3</tspan></text>
    <text class="cls-9" transform="translate(147.68 19.77)"><tspan x="0" y="0">+3</tspan></text>
  </g>
  <g id="Motive">
    <g>
      <g>
        <path class="cls-16" d="M91.04,120.1c-.17-.17-.7-.34-.96-.4-3.4-.74-9.81-.25-12.43-2.36-4.02-3.25-2.04-9.86,3.07-10.45,7.17.39,14.91-.53,22.02,0,7.06.52,12.8,6.75,12.9,13.81.16,11.54-7.51,23.9-18.29,28.25-16.39,6.61-27.2-16.96-10.12-25.26,1.11-.54,5.8-1.58,3.81-3.58Z"/>
        <path class="cls-16" d="M79.33,104.34c-3.17.84-5.76,3.42-6.42,6.66-.29,1.4-.19,2.42-.05,3.82-2.88-.26-5.53-2.55-5.78-5.49-.49-5.69.38-12.09,0-17.86,1.12-7.05,11.14-7.07,12.28,0l-.03,12.88Z"/>
        <path class="cls-16" d="M62.51,115.48c-3.36,3.41-9.37,1.85-10.5-2.81-.53-2.18-.53-11.9-.04-14.12,1.04-4.69,6.93-6.41,10.4-3.09s1.18,12.14,1.82,16.57c-.24,1.23-.8,2.55-1.69,3.45Z"/>
        <path class="cls-16" d="M102.27,82.1c-1.91-4.69-3.55-9.58-6.03-14-.3-.53-.2-1.19.23-1.63,3.86-3.91,10.89-.87,10.49,4.98-.1,1.54-3.24,9.05-4.11,10.68h0c-.13.24-.48.22-.58-.03Z"/>
        <path class="cls-16" d="M90.63,104.18h-7.47c-.51,0-.92-.41-.92-.92v-3.85c0-.12.03-.25.07-.36l3.25-7.6c.24-.56,1.03-.55,1.26.01l4.65,11.46c.24.6-.2,1.26-.85,1.26Z"/>
      </g>
      <path class="cls-16" d="M81.49,148.94c1.15.74.5,2.54-.86,2.35-4.1-.58-8.09-1.94-11.62-4.04-.17-.1-.43-.27-.73-.47-.37-.25-.74-.5-1.09-.75-2.45-1.71-4.58-3.51-6.1-5.53,0,0,0,0,0,0-.78-1.25-2.65-3.74-3.11-4.56-2.63-4.72-3.99-10.13-3.92-15.55,0-.57.58-.95,1.12-.76,4.14,1.45,8.57-.44,10.77-4.17.27-.45.87-.57,1.27-.22,1.34,1.19,3.12,2.08,4.85,2.28.52.06,1.94-.1,2.2.06.09.05.79,1.16,1.03,1.4,2.08,2.03,4.65,2.42,7.34,2.68.76.07,1.03,1.04.42,1.5l-2.3,1.73s-.06.05-.09.08c-6.8,6.69-6.42,17.62.72,23.9.03.03.07.06.11.08h0Z"/>
      <path class="cls-16" d="M109.13,105.81c-4.49-2.27-9.25-1.43-14.08-1.71l-12-29.12c-1.59-7.21,8.08-10.87,11.62-4.22l9.01,21.66,1.83,4.29,3.62,9.11Z"/>
    </g>
  </g>
  <g id="Kateg._Symbol" data-name="Kateg. Symbol">
    <g id="jCvsG5">
      <path class="cls-18" d="M14.94,10.67c.12-.09.3,0,.29.15-.04.89.15,1.8.59,2.57.7,1.21,1.87,1.54,2.22,3.08.71,3.1-2.81,5.2-5.44,3.74-1.15-.63-1.88-2.3-1.74-3.58.07-.65.37-1.28.78-1.78.1-.12.29-.09.35.05.29.68.74,1.35,1.45,1.62.21.08.41.15.61,0,.33-.24.03-.63-.08-.9-.74-1.8-.57-3.64.95-4.94,0,0,0,0,.01,0h0Z"/>
    </g>
    <g id="jCvsG5-2" data-name="jCvsG5">
      <path class="cls-18" d="M151.86,243.26c.12-.09.3,0,.29.15-.04.89.15,1.8.59,2.57.7,1.21,1.87,1.54,2.22,3.08.71,3.1-2.81,5.2-5.44,3.74-1.15-.63-1.88-2.3-1.74-3.58.07-.65.37-1.28.78-1.78.1-.12.29-.09.35.05.29.68.74,1.35,1.45,1.62.21.08.41.15.61,0,.33-.24.03-.63-.08-.9-.74-1.8-.57-3.64.95-4.94,0,0,0,0,.01,0h0Z"/>
    </g>
  </g>
  <g id="Kartentext">
    <g>
      <g class="cls-24">
        <text class="cls-7" transform="translate(32.35 179.29)"><tspan x="0" y="0">Sa</tspan></text>
        <text class="cls-7" transform="translate(45.16 179.29)"><tspan x="0" y="0">g zw</tspan></text>
        <text class="cls-5" transform="translate(67.51 179.29)"><tspan x="0" y="0">ei W</tspan></text>
        <text class="cls-2" transform="translate(88.93 179.29)"><tspan x="0" y="0">ahrheit</tspan></text>
        <text class="cls-7" transform="translate(122.88 179.29)"><tspan x="0" y="0">en</tspan></text>
        <text class="cls-3" transform="translate(134.89 179.29)"><tspan x="0" y="0"> </tspan></text>
      </g>
      <text class="cls-14" transform="translate(32.35 179.29)"><tspan x="0" y="0">Sa</tspan></text>
      <text class="cls-14" transform="translate(45.16 179.29)"><tspan x="0" y="0">g zw</tspan></text>
      <text class="cls-13" transform="translate(67.51 179.29)"><tspan x="0" y="0">ei W</tspan></text>
      <text class="cls-12" transform="translate(88.93 179.29)"><tspan x="0" y="0">ahrheit</tspan></text>
      <text class="cls-14" transform="translate(122.88 179.29)"><tspan x="0" y="0">en</tspan></text>
      <text class="cls-15" transform="translate(134.89 179.29)"><tspan x="0" y="0"> </tspan></text>
      <g class="cls-19">
        <text class="cls-6" transform="translate(26.85 191.28)"><tspan x="0" y="0">un</tspan></text>
        <text class="cls-7" transform="translate(38.27 191.28)"><tspan x="0" y="0">d eine Lüge. Errät die</tspan></text>
        <text class="cls-3" transform="translate(140.39 191.28)"><tspan x="0" y="0"> </tspan></text>
      </g>
      <text class="cls-11" transform="translate(26.85 191.28)"><tspan x="0" y="0">un</tspan></text>
      <text class="cls-14" transform="translate(38.27 191.28)"><tspan x="0" y="0">d eine Lüge. Errät die</tspan></text>
      <text class="cls-15" transform="translate(140.39 191.28)"><tspan x="0" y="0"> </tspan></text>
      <g class="cls-21">
        <text class="cls-4" transform="translate(26.46 203.28)"><tspan x="0" y="0">Gruppe die Lüge, muss</tspan></text>
        <text class="cls-3" transform="translate(136.79 203.28)"><tspan x="0" y="0">t </tspan></text>
      </g>
      <text class="cls-14" transform="translate(26.46 203.28)"><tspan x="0" y="0">Gruppe die Lüge, mus</tspan></text>
      <text class="cls-10" transform="translate(131.91 203.28)"><tspan x="0" y="0">st</tspan></text>
      <text class="cls-15" transform="translate(140.79 203.28)"><tspan x="0" y="0"> </tspan></text>
      <g class="cls-20">
        <text class="cls-7" transform="translate(58.51 215.28)"><tspan x="0" y="0">du t</tspan></text>
        <text class="cls-7" transform="translate(76.73 215.28)"><tspan x="0" y="0">rink</tspan></text>
        <text class="cls-7" transform="translate(94.62 215.28)"><tspan x="0" y="0">en.</tspan></text>
        <text class="cls-3" transform="translate(108.73 215.28)"><tspan x="0" y="0"> </tspan></text>
      </g>
      <text class="cls-14" transform="translate(58.51 215.28)"><tspan x="0" y="0">du t</tspan></text>
      <text class="cls-14" transform="translate(76.73 215.28)"><tspan x="0" y="0">rink</tspan></text>
      <text class="cls-14" transform="translate(94.62 215.28)"><tspan x="0" y="0">en.</tspan></text>
      <text class="cls-15" transform="translate(108.73 215.28)"><tspan x="0" y="0"> </tspan></text>
    </g>
  </g>
</svg>