<?xml version="1.0" encoding="UTF-8"?>
<svg xmlns="http://www.w3.org/2000/svg" xmlns:xlink="http://www.w3.org/1999/xlink" viewBox="0 0 167.24 260.79">
  <defs>
    <style>
      .cls-1, .cls-2, .cls-3, .cls-4, .cls-5, .cls-6, .cls-7 {
        fill: none;
      }

      .cls-8 {
        fill: #010101;
      }

      .cls-2, .cls-3, .cls-9, .cls-4, .cls-5, .cls-6, .cls-7 {
        stroke: #fff;
      }

      .cls-2, .cls-3, .cls-4, .cls-5, .cls-10, .cls-11, .cls-12, .cls-13, .cls-14, .cls-15, .cls-6, .cls-7 {
        font-family: QuicksandBold-Regular, Quicksand;
        font-size: 10px;
      }

      .cls-2, .cls-12 {
        letter-spacing: -.02em;
      }

      .cls-16 {
        fill: #171717;
      }

      .cls-9 {
        font-size: 12px;
        stroke-miterlimit: 10;
        stroke-width: .15px;
      }

      .cls-9, .cls-17 {
        font-family: Namaku, Namaku;
      }

      .cls-9, .cls-18, .cls-10, .cls-11, .cls-12, .cls-13, .cls-14, .cls-15 {
        fill: #fff;
      }

      .cls-4, .cls-10 {
        letter-spacing: -.04em;
      }

      .cls-19 {
        clip-path: url(#clippath-1);
      }

      .cls-17 {
        font-size: 15px;
      }

      .cls-17, .cls-20 {
        fill: #8d74b0;
      }

      .cls-5, .cls-13 {
        letter-spacing: -.02em;
      }

      .cls-11, .cls-6 {
        letter-spacing: -.03em;
      }

      .cls-21 {
        fill: #171715;
      }

      .cls-14, .cls-7 {
        letter-spacing: -.02em;
      }

      .cls-22 {
        clip-path: url(#clippath);
      }
    </style>
    <clipPath id="clippath">
      <rect class="cls-1" x="0" y="0" width="167.24" height="260.79"/>
    </clipPath>
    <clipPath id="clippath-1">
      <rect class="cls-1" x="0" y="0" width="167.24" height="260.79"/>
    </clipPath>
  </defs>
  <g id="Background">
    <rect class="cls-20" x="0" width="167.24" height="260.79"/>
  </g>
  <g id="Rahmen">
    <path class="cls-8" d="M151.9,23.16c9.65,0,9.67-15,0-15s-9.67,15,0,15h0Z"/>
    <path class="cls-8" d="M152.22,254.59c9.65,0,9.67-15,0-15s-9.67,15,0,15h0Z"/>
    <path class="cls-8" d="M14.14,254.72c9.65,0,9.67-15,0-15s-9.67,15,0,15h0Z"/>
    <path class="cls-16" d="M11.56,15.67c18.49.32,36.98.69,55.46,1.04,19.51.36,39.05-.42,58.56-.82,10.18-.21,20.36-.38,30.54-.21l-3.75-3.75c-1.46,11.81-1.7,23.8-1.97,35.69-.33,14.15-.39,28.31-.37,42.46.01,9.3.14,18.61.07,27.91-.06,7.86-.43,15.71-.48,23.57-.07,11.29.08,22.59.37,33.88.56,22.38,1.59,44.74,2.18,67.12.07,2.79.14,5.57.2,8.36l3.75-3.75c-15.41-.13-30.81.06-46.22.48-24.85.69-49.67.84-74.52.24-8.25-.2-16.49-.49-24.74-.73l3.75,3.75c-.56-4.87-.34-9.89-.27-14.78.11-8.38.38-16.76.66-25.14.66-20.11,1.45-40.22,1.83-60.34.16-8.4.26-16.81.05-25.21-.13-5.24-.51-10.46-.61-15.7-.33-17.03-.19-34.08-.18-51.11,0-8.91,0-17.82-.06-26.73-.04-5.94-.04-11.89-.34-17.82-.04-.72-.08-1.43-.15-2.15-.19-1.95-1.59-3.85-3.75-3.75-1.87.08-3.96,1.66-3.75,3.75.48,4.83.39,9.76.44,14.61.09,8.42.1,16.84.11,25.25,0,17.78-.1,35.55.11,53.33.06,5.22.27,10.41.52,15.62.36,7.73.31,15.47.21,23.21-.24,20.03-1.02,40.04-1.7,60.06-.3,8.95-.6,17.9-.79,26.85-.13,5.9-.3,11.84,0,17.74.04.78.09,1.55.18,2.32.24,2.06,1.53,3.69,3.75,3.75,18.27.53,36.53,1.09,54.81,1.16,23.38.09,46.73-.97,70.1-1.19,6.85-.06,13.71-.03,20.56.02,2,.02,3.79-1.73,3.75-3.75-.48-22.44-1.5-44.87-2.16-67.3-.33-11.25-.57-22.51-.6-33.77-.03-10.16.25-20.29.47-30.44.18-8.23-.03-16.48-.05-24.72-.03-13.94,0-27.88.25-41.82.23-12.54.48-25.14,1.72-37.62.11-1.1.23-2.21.37-3.31.25-2.04-1.92-3.72-3.75-3.75-19.14-.32-38.3.42-57.44.81-9.78.2-19.58.45-29.37.27-7.76-.14-15.52-.3-23.28-.45-11.49-.22-22.99-.44-34.48-.63-1.96-.03-3.84,1.75-3.75,3.75s1.65,3.71,3.75,3.75h0Z"/>
    <polygon class="cls-16" points="26.61 14.43 14.5 29.16 14.18 13.04 26.61 14.43"/>
    <polygon class="cls-16" points="140.79 14.16 152.35 27.66 154.57 11.89 140.79 14.16"/>
    <polygon class="cls-16" points="139.48 248.15 153.14 235.93 156.07 248.65 139.48 248.15"/>
    <polygon class="cls-16" points="12.9 235.54 26.24 248.54 12.31 249.36 12.9 235.54"/>
    <rect class="cls-16" width="10.32" height="260.79"/>
    <rect class="cls-16" y="249.36" width="167.24" height="11.43"/>
    <rect class="cls-21" width="167.24" height="10.33"/>
    <rect class="cls-16" x="156.12" width="11.13" height="260.79"/>
    <path class="cls-16" d="M117.73,17.19c0-.85.31-3.85,0-4.78-.82-2.49-3.11-2.81-5.35-2.81h-57.51c-2.24,0-4.53.32-5.35,2.81-.31.93,0,3.93,0,4.78l-.25,5.71c-.49,5.31,7.64,4.59,10.71,4.59l17.71.37,5.93-.07h0l5.93.07,17.71-.37c3.08,0,11.2.72,10.71-4.59l-.24-5.71Z"/>
    <path class="cls-8" d="M151.9,23.16c9.65,0,9.67-15,0-15s-9.67,15,0,15h0Z"/>
    <path class="cls-8" d="M152.22,254.59c9.65,0,9.67-15,0-15s-9.67,15,0,15h0Z"/>
    <path class="cls-8" d="M14.14,254.72c9.65,0,9.67-15,0-15s-9.67,15,0,15h0Z"/>
    <path class="cls-16" d="M11.56,15.67c18.49.32,36.98.69,55.46,1.04,19.51.36,39.05-.42,58.56-.82,10.18-.21,20.36-.38,30.54-.21l-3.75-3.75c-1.46,11.81-1.7,23.8-1.97,35.69-.33,14.15-.39,28.31-.37,42.46.01,9.3.14,18.61.07,27.91-.06,7.86-.43,15.71-.48,23.57-.07,11.29.08,22.59.37,33.88.56,22.38,1.59,44.74,2.18,67.12.07,2.79.14,5.57.2,8.36l3.75-3.75c-15.41-.13-30.81.06-46.22.48-24.85.69-49.67.84-74.52.24-8.25-.2-16.49-.49-24.74-.73l3.75,3.75c-.56-4.87-.34-9.89-.27-14.78.11-8.38.38-16.76.66-25.14.66-20.11,1.45-40.22,1.83-60.34.16-8.4.26-16.81.05-25.21-.13-5.24-.51-10.46-.61-15.7-.33-17.03-.19-34.08-.18-51.11,0-8.91,0-17.82-.06-26.73-.04-5.94-.04-11.89-.34-17.82-.04-.72-.08-1.43-.15-2.15-.19-1.95-1.59-3.85-3.75-3.75-1.87.08-3.96,1.66-3.75,3.75.48,4.83.39,9.76.44,14.61.09,8.42.1,16.84.11,25.25,0,17.78-.1,35.55.11,53.33.06,5.22.27,10.41.52,15.62.36,7.73.31,15.47.21,23.21-.24,20.03-1.02,40.04-1.7,60.06-.3,8.95-.6,17.9-.79,26.85-.13,5.9-.3,11.84,0,17.74.04.78.09,1.55.18,2.32.24,2.06,1.53,3.69,3.75,3.75,18.27.53,36.53,1.09,54.81,1.16,23.38.09,46.73-.97,70.1-1.19,6.85-.06,13.71-.03,20.56.02,2,.02,3.79-1.73,3.75-3.75-.48-22.44-1.5-44.87-2.16-67.3-.33-11.25-.57-22.51-.6-33.77-.03-10.16.25-20.29.47-30.44.18-8.23-.03-16.48-.05-24.72-.03-13.94,0-27.88.25-41.82.23-12.54.48-25.14,1.72-37.62.11-1.1.23-2.21.37-3.31.25-2.04-1.92-3.72-3.75-3.75-19.14-.32-38.3.42-57.44.81-9.78.2-19.58.45-29.37.27-7.76-.14-15.52-.3-23.28-.45-11.49-.22-22.99-.44-34.48-.63-1.96-.03-3.84,1.75-3.75,3.75s1.65,3.71,3.75,3.75h0Z"/>
    <polygon class="cls-16" points="26.61 14.43 14.5 29.16 14.18 13.04 26.61 14.43"/>
    <polygon class="cls-16" points="140.79 14.16 152.35 27.66 154.57 11.89 140.79 14.16"/>
    <polygon class="cls-16" points="139.48 248.15 153.14 235.93 156.07 248.65 139.48 248.15"/>
    <polygon class="cls-16" points="12.9 235.54 26.24 248.54 12.31 249.36 12.9 235.54"/>
    <rect class="cls-16" width="10.32" height="260.79"/>
    <rect class="cls-16" y="249.36" width="167.24" height="11.43"/>
    <rect class="cls-21" width="167.24" height="10.33"/>
    <rect class="cls-16" x="156.12" width="11.13" height="260.79"/>
  </g>
  <g id="Kategorie_Name" data-name="Kategorie Name">
    <text class="cls-17" transform="translate(53.57 22.56) scale(1 1.09)"><tspan x="0" y="0">aufgabe</tspan></text>
  </g>
  <g id="Schlücke">
    <text class="cls-9" transform="translate(4.53 252.82)"><tspan x="0" y="0">+5</tspan></text>
    <text class="cls-9" transform="translate(147.81 19.77)"><tspan x="0" y="0">+5</tspan></text>
  </g>
  <g id="Motive">
    <g>
      <path class="cls-16" d="M63.66,74.06c1.43-.19,2.66.23,3.82,1.05,2.83,3.77,6.76,7.89,9.23,11.86,3.34,5.38-6.66,7.01-4.89,11.98,1.89,5.32,9.43,12.56,14.33,15.26,1.38.76,2.3,1.37,3.96,1.02,1.39-.29,4-3.74,5.3-4.8,2.74-2.22,4.31-.56,6.54,1.08,2.78,2.05,6.89,4.89,9.32,7.16,1.95,1.83,2.22,4.71.7,6.89-7.22,6.26-12.85,17.53-24.18,12.33-13.19-6.05-27.49-20.15-35.15-32.36-4.13-6.59-7.95-13.11-1.97-20.19,3.27-2.9,6.3-6.55,9.57-9.39,1.01-.88,2.03-1.72,3.42-1.9Z"/>
      <path class="cls-16" d="M92.01,66.96c.96-.14,1.96.32,2.57,1.07.92,1.13.73,2.05.44,3.36-1.33,5.81-4.41,11.97-5.94,17.8-1.07,2.31-4.3,2.27-5.26-.12-.41-1.01-.27-1.35-.04-2.34,1.37-5.91,4.37-12.04,5.97-17.95.3-.87,1.37-1.69,2.26-1.82Z"/>
      <path class="cls-16" d="M116.11,91.42c3.54-.55,4.98,3.74,1.77,5.49l-18.51,5.94c-3.46.7-5.08-3.79-1.88-5.43l18.63-6Z"/>
      <path class="cls-16" d="M104.06,79.19c2.51-.43,4.45,2.32,2.88,4.48l-12.77,12.75c-2.83,1.6-5.71-1.6-3.71-4.24,4.16-3.57,7.94-8.74,12.13-12.14.44-.35.89-.74,1.46-.84Z"/>
    </g>
  </g>
  <g id="Kateg._Symbol" data-name="Kateg. Symbol">
    <g id="jCvsG5">
      <path class="cls-18" d="M14.94,10.67c.12-.09.3,0,.29.15-.04.89.15,1.8.59,2.57.7,1.21,1.87,1.54,2.22,3.08.71,3.1-2.81,5.2-5.44,3.74-1.15-.63-1.88-2.3-1.74-3.58.07-.65.37-1.28.78-1.78.1-.12.29-.09.35.05.29.68.74,1.35,1.45,1.62.21.08.41.15.61,0,.33-.24.03-.63-.08-.9-.74-1.8-.57-3.64.95-4.94,0,0,0,0,.01,0h0Z"/>
    </g>
    <g id="jCvsG5-2" data-name="jCvsG5">
      <path class="cls-18" d="M151.86,243.26c.12-.09.3,0,.29.15-.04.89.15,1.8.59,2.57.7,1.21,1.87,1.54,2.22,3.08.71,3.1-2.81,5.2-5.44,3.74-1.15-.63-1.88-2.3-1.74-3.58.07-.65.37-1.28.78-1.78.1-.12.29-.09.35.05.29.68.74,1.35,1.45,1.62.21.08.41.15.61,0,.33-.24.03-.63-.08-.9-.74-1.8-.57-3.64.95-4.94,0,0,0,0,.01,0h0Z"/>
    </g>
  </g>
  <g id="Kartentext">
    <g>
      <g class="cls-22">
        <text class="cls-7" transform="translate(21.59 179.29)"><tspan x="0" y="0">Mache einen Pr</tspan></text>
        <text class="cls-6" transform="translate(94.56 179.29)"><tspan x="0" y="0">an</tspan></text>
        <text class="cls-4" transform="translate(106.39 179.29)"><tspan x="0" y="0">kc</tspan></text>
        <text class="cls-3" transform="translate(117.05 179.29)"><tspan x="0" y="0">a</tspan></text>
        <text class="cls-7" transform="translate(123.18 179.29)"><tspan x="0" y="0">ll bei</tspan></text>
        <text class="cls-3" transform="translate(145.66 179.29)"><tspan x="0" y="0"> </tspan></text>
      </g>
      <text class="cls-14" transform="translate(21.59 179.29)"><tspan x="0" y="0">Mache einen Pr</tspan></text>
      <text class="cls-11" transform="translate(94.56 179.29)"><tspan x="0" y="0">an</tspan></text>
      <text class="cls-10" transform="translate(106.39 179.29)"><tspan x="0" y="0">kc</tspan></text>
      <text class="cls-15" transform="translate(117.05 179.29)"><tspan x="0" y="0">a</tspan></text>
      <text class="cls-14" transform="translate(123.18 179.29)"><tspan x="0" y="0">ll bei</tspan></text>
      <text class="cls-15" transform="translate(145.66 179.29)"><tspan x="0" y="0"> </tspan></text>
      <g class="cls-19">
        <text class="cls-3" transform="translate(51.21 191.28)"><tspan x="0" y="0">d</tspan></text>
        <text class="cls-5" transform="translate(57.46 191.28)"><tspan x="0" y="0">einen Elt</tspan></text>
        <text class="cls-3" transform="translate(97.93 191.28)"><tspan x="0" y="0">e</tspan></text>
        <text class="cls-2" transform="translate(103.61 191.28)"><tspan x="0" y="0">rn.</tspan></text>
      </g>
      <text class="cls-15" transform="translate(51.21 191.28)"><tspan x="0" y="0">d</tspan></text>
      <text class="cls-13" transform="translate(57.46 191.28)"><tspan x="0" y="0">einen Elt</tspan></text>
      <text class="cls-15" transform="translate(97.93 191.28)"><tspan x="0" y="0">e</tspan></text>
      <text class="cls-12" transform="translate(103.61 191.28)"><tspan x="0" y="0">rn.</tspan></text>
    </g>
  </g>
</svg>