<?xml version="1.0" encoding="UTF-8"?>
<svg xmlns="http://www.w3.org/2000/svg" xmlns:xlink="http://www.w3.org/1999/xlink" viewBox="0 0 167.24 260.79">
  <defs>
    <style>
      .cls-1, .cls-2, .cls-3, .cls-4, .cls-5, .cls-6 {
        fill: none;
      }

      .cls-7 {
        fill: #010101;
      }

      .cls-2, .cls-3, .cls-8, .cls-4, .cls-5, .cls-6 {
        stroke: #fff;
      }

      .cls-2, .cls-3, .cls-4, .cls-9, .cls-10, .cls-11, .cls-12, .cls-13, .cls-5, .cls-6 {
        font-family: QuicksandBold-Regular, Quicksand;
        font-size: 10px;
      }

      .cls-2, .cls-10 {
        letter-spacing: -.02em;
      }

      .cls-14 {
        fill: #171717;
      }

      .cls-8 {
        font-size: 12px;
        stroke-miterlimit: 10;
        stroke-width: .15px;
      }

      .cls-8, .cls-15 {
        font-family: Namaku, Namaku;
      }

      .cls-8, .cls-16, .cls-9, .cls-10, .cls-11, .cls-12, .cls-13 {
        fill: #fff;
      }

      .cls-17 {
        clip-path: url(#clippath-1);
      }

      .cls-18 {
        clip-path: url(#clippath-2);
      }

      .cls-15 {
        font-size: 15px;
      }

      .cls-15, .cls-19 {
        fill: #8d74b0;
      }

      .cls-4, .cls-11 {
        letter-spacing: -.02em;
      }

      .cls-9, .cls-5 {
        letter-spacing: -.03em;
      }

      .cls-20 {
        fill: #171715;
      }

      .cls-12, .cls-6 {
        letter-spacing: -.02em;
      }

      .cls-21 {
        clip-path: url(#clippath);
      }
    </style>
    <clipPath id="clippath">
      <rect class="cls-1" x="0" y="0" width="167.24" height="260.79"/>
    </clipPath>
    <clipPath id="clippath-1">
      <rect class="cls-1" x="0" y="0" width="167.24" height="260.79"/>
    </clipPath>
    <clipPath id="clippath-2">
      <rect class="cls-1" x="0" y="0" width="167.24" height="260.79"/>
    </clipPath>
  </defs>
  <g id="Background">
    <rect class="cls-19" x="0" width="167.24" height="260.79"/>
  </g>
  <g id="Rahmen">
    <path class="cls-7" d="M151.9,23.16c9.65,0,9.67-15,0-15s-9.67,15,0,15h0Z"/>
    <path class="cls-7" d="M152.22,254.59c9.65,0,9.67-15,0-15s-9.67,15,0,15h0Z"/>
    <path class="cls-7" d="M14.14,254.72c9.65,0,9.67-15,0-15s-9.67,15,0,15h0Z"/>
    <path class="cls-14" d="M11.56,15.67c18.49.32,36.98.69,55.46,1.04,19.51.36,39.05-.42,58.56-.82,10.18-.21,20.36-.38,30.54-.21l-3.75-3.75c-1.46,11.81-1.7,23.8-1.97,35.69-.33,14.15-.39,28.31-.37,42.46.01,9.3.14,18.61.07,27.91-.06,7.86-.43,15.71-.48,23.57-.07,11.29.08,22.59.37,33.88.56,22.38,1.59,44.74,2.18,67.12.07,2.79.14,5.57.2,8.36l3.75-3.75c-15.41-.13-30.81.06-46.22.48-24.85.69-49.67.84-74.52.24-8.25-.2-16.49-.49-24.74-.73l3.75,3.75c-.56-4.87-.34-9.89-.27-14.78.11-8.38.38-16.76.66-25.14.66-20.11,1.45-40.22,1.83-60.34.16-8.4.26-16.81.05-25.21-.13-5.24-.51-10.46-.61-15.7-.33-17.03-.19-34.08-.18-51.11,0-8.91,0-17.82-.06-26.73-.04-5.94-.04-11.89-.34-17.82-.04-.72-.08-1.43-.15-2.15-.19-1.95-1.59-3.85-3.75-3.75-1.87.08-3.96,1.66-3.75,3.75.48,4.83.39,9.76.44,14.61.09,8.42.1,16.84.11,25.25,0,17.78-.1,35.55.11,53.33.06,5.22.27,10.41.52,15.62.36,7.73.31,15.47.21,23.21-.24,20.03-1.02,40.04-1.7,60.06-.3,8.95-.6,17.9-.79,26.85-.13,5.9-.3,11.84,0,17.74.04.78.09,1.55.18,2.32.24,2.06,1.53,3.69,3.75,3.75,18.27.53,36.53,1.09,54.81,1.16,23.38.09,46.73-.97,70.1-1.19,6.85-.06,13.71-.03,20.56.02,2,.02,3.79-1.73,3.75-3.75-.48-22.44-1.5-44.87-2.16-67.3-.33-11.25-.57-22.51-.6-33.77-.03-10.16.25-20.29.47-30.44.18-8.23-.03-16.48-.05-24.72-.03-13.94,0-27.88.25-41.82.23-12.54.48-25.14,1.72-37.62.11-1.1.23-2.21.37-3.31.25-2.04-1.92-3.72-3.75-3.75-19.14-.32-38.3.42-57.44.81-9.78.2-19.58.45-29.37.27-7.76-.14-15.52-.3-23.28-.45-11.49-.22-22.99-.44-34.48-.63-1.96-.03-3.84,1.75-3.75,3.75s1.65,3.71,3.75,3.75h0Z"/>
    <polygon class="cls-14" points="26.61 14.43 14.5 29.16 14.18 13.04 26.61 14.43"/>
    <polygon class="cls-14" points="140.79 14.16 152.35 27.66 154.57 11.89 140.79 14.16"/>
    <polygon class="cls-14" points="139.48 248.15 153.14 235.93 156.07 248.65 139.48 248.15"/>
    <polygon class="cls-14" points="12.9 235.54 26.24 248.54 12.31 249.36 12.9 235.54"/>
    <rect class="cls-14" width="10.32" height="260.79"/>
    <rect class="cls-14" y="249.36" width="167.24" height="11.43"/>
    <rect class="cls-20" width="167.24" height="10.33"/>
    <rect class="cls-14" x="156.12" width="11.13" height="260.79"/>
    <path class="cls-14" d="M117.73,17.19c0-.85.31-3.85,0-4.78-.82-2.49-3.11-2.81-5.35-2.81h-57.51c-2.24,0-4.53.32-5.35,2.81-.31.93,0,3.93,0,4.78l-.25,5.71c-.49,5.31,7.64,4.59,10.71,4.59l17.71.37,5.93-.07h0l5.93.07,17.71-.37c3.08,0,11.2.72,10.71-4.59l-.24-5.71Z"/>
    <path class="cls-7" d="M151.9,23.16c9.65,0,9.67-15,0-15s-9.67,15,0,15h0Z"/>
    <path class="cls-7" d="M152.22,254.59c9.65,0,9.67-15,0-15s-9.67,15,0,15h0Z"/>
    <path class="cls-7" d="M14.14,254.72c9.65,0,9.67-15,0-15s-9.67,15,0,15h0Z"/>
    <path class="cls-14" d="M11.56,15.67c18.49.32,36.98.69,55.46,1.04,19.51.36,39.05-.42,58.56-.82,10.18-.21,20.36-.38,30.54-.21l-3.75-3.75c-1.46,11.81-1.7,23.8-1.97,35.69-.33,14.15-.39,28.31-.37,42.46.01,9.3.14,18.61.07,27.91-.06,7.86-.43,15.71-.48,23.57-.07,11.29.08,22.59.37,33.88.56,22.38,1.59,44.74,2.18,67.12.07,2.79.14,5.57.2,8.36l3.75-3.75c-15.41-.13-30.81.06-46.22.48-24.85.69-49.67.84-74.52.24-8.25-.2-16.49-.49-24.74-.73l3.75,3.75c-.56-4.87-.34-9.89-.27-14.78.11-8.38.38-16.76.66-25.14.66-20.11,1.45-40.22,1.83-60.34.16-8.4.26-16.81.05-25.21-.13-5.24-.51-10.46-.61-15.7-.33-17.03-.19-34.08-.18-51.11,0-8.91,0-17.82-.06-26.73-.04-5.94-.04-11.89-.34-17.82-.04-.72-.08-1.43-.15-2.15-.19-1.95-1.59-3.85-3.75-3.75-1.87.08-3.96,1.66-3.75,3.75.48,4.83.39,9.76.44,14.61.09,8.42.1,16.84.11,25.25,0,17.78-.1,35.55.11,53.33.06,5.22.27,10.41.52,15.62.36,7.73.31,15.47.21,23.21-.24,20.03-1.02,40.04-1.7,60.06-.3,8.95-.6,17.9-.79,26.85-.13,5.9-.3,11.84,0,17.74.04.78.09,1.55.18,2.32.24,2.06,1.53,3.69,3.75,3.75,18.27.53,36.53,1.09,54.81,1.16,23.38.09,46.73-.97,70.1-1.19,6.85-.06,13.71-.03,20.56.02,2,.02,3.79-1.73,3.75-3.75-.48-22.44-1.5-44.87-2.16-67.3-.33-11.25-.57-22.51-.6-33.77-.03-10.16.25-20.29.47-30.44.18-8.23-.03-16.48-.05-24.72-.03-13.94,0-27.88.25-41.82.23-12.54.48-25.14,1.72-37.62.11-1.1.23-2.21.37-3.31.25-2.04-1.92-3.72-3.75-3.75-19.14-.32-38.3.42-57.44.81-9.78.2-19.58.45-29.37.27-7.76-.14-15.52-.3-23.28-.45-11.49-.22-22.99-.44-34.48-.63-1.96-.03-3.84,1.75-3.75,3.75s1.65,3.71,3.75,3.75h0Z"/>
    <polygon class="cls-14" points="26.61 14.43 14.5 29.16 14.18 13.04 26.61 14.43"/>
    <polygon class="cls-14" points="140.79 14.16 152.35 27.66 154.57 11.89 140.79 14.16"/>
    <polygon class="cls-14" points="139.48 248.15 153.14 235.93 156.07 248.65 139.48 248.15"/>
    <polygon class="cls-14" points="12.9 235.54 26.24 248.54 12.31 249.36 12.9 235.54"/>
    <rect class="cls-14" width="10.32" height="260.79"/>
    <rect class="cls-14" y="249.36" width="167.24" height="11.43"/>
    <rect class="cls-20" width="167.24" height="10.33"/>
    <rect class="cls-14" x="156.12" width="11.13" height="260.79"/>
  </g>
  <g id="Kategorie_Name" data-name="Kategorie Name">
    <text class="cls-15" transform="translate(53.57 22.56) scale(1 1.09)"><tspan x="0" y="0">aufgabe</tspan></text>
  </g>
  <g id="Schlücke">
    <text class="cls-8" transform="translate(4.25 252.82)"><tspan x="0" y="0">+4</tspan></text>
    <text class="cls-8" transform="translate(147.52 19.77)"><tspan x="0" y="0">+4</tspan></text>
  </g>
  <g id="Motive">
    <path class="cls-14" d="M131.34,81.69l-12.59-14.72c-.34-.4-.79-.69-1.29-.86-2.71-.87-5.34-1.8-8.02-2.7-2.74-.92-5.49-1.79-8.24-2.69-1.44-.47-3.07.19-3.63,1.6-1.93,4.8-8.09,7.09-13.04,7.34-5.46.27-12.65-2.01-14.87-7.32-.58-1.4-2.12-2.13-3.55-1.65l-16.43,5.48c-.49.17-.93.46-1.27.86l-12.51,14.66c-.97,1.15-.89,2.86.19,3.91l7.87,7.64c1.01.98,2.57,1.08,3.69.25l5.89-4.36c1.89-1.39,4.56-.05,4.56,2.3v51.39c0,1.58,1.28,2.86,2.86,2.86h45.33c1.57,0,2.85-1.28,2.85-2.86v-51.68c0-2.37,2.74-3.71,4.61-2.26l5.83,4.53c1.13.87,2.72.78,3.75-.21l7.83-7.6c1.08-1.05,1.16-2.77.18-3.91ZM76.06,104.68c-.03-.19-.18-.35-.38-.38-3.2-.36-6.88,1.31-7.76,4.62-.27,1.02.04,2.77-1.03,3.46-.55.35-1.47.42-2.18.17-.62-.22-1.01-.83-1.01-1.48,0-6.33-.37-13.54,3.72-16.95,2.71-2.25,4.97-2.3,8.32-2.35.21,0,.39-.15.44-.35.27-1.23-.44-4.89,2.98-3.61.22.08.41.21.57.37,1.11,1.11,5.95,5.97,7.9,7.93.53.53.83,1.25.83,2s-.31,1.49-.85,2.02l-7.94,7.83c-.22.22-.5.37-.81.43-2.92.54-2.44-1.48-2.8-3.71ZM99.82,121.68c-2.71,2.25-4.96,2.3-8.32,2.36-.2,0-.39.14-.43.35-.28,1.23.43,4.89-2.99,3.61-.21-.08-.41-.21-.57-.37-1.11-1.12-5.94-5.97-7.9-7.93-.53-.54-.82-1.25-.82-2s.3-1.49.84-2.03l7.94-7.82c.22-.22.5-.38.81-.43,2.92-.54,2.44,1.48,2.8,3.7.03.2.19.36.39.38,3.19.37,6.88-1.3,7.76-4.61.27-1.02-.05-2.77,1.03-3.46.54-.35,1.46-.42,2.18-.17.61.21,1,.82,1,1.48,0,6.33.37,13.54-3.72,16.94Z"/>
  </g>
  <g id="Kateg._Symbol" data-name="Kateg. Symbol">
    <g id="jCvsG5">
      <path class="cls-16" d="M14.94,10.67c.12-.09.3,0,.29.15-.04.89.15,1.8.59,2.57.7,1.21,1.87,1.54,2.22,3.08.71,3.1-2.81,5.2-5.44,3.74-1.15-.63-1.88-2.3-1.74-3.58.07-.65.37-1.28.78-1.78.1-.12.29-.09.35.05.29.68.74,1.35,1.45,1.62.21.08.41.15.61,0,.33-.24.03-.63-.08-.9-.74-1.8-.57-3.64.95-4.94,0,0,0,0,.01,0h0Z"/>
    </g>
    <g id="jCvsG5-2" data-name="jCvsG5">
      <path class="cls-16" d="M151.86,243.26c.12-.09.3,0,.29.15-.04.89.15,1.8.59,2.57.7,1.21,1.87,1.54,2.22,3.08.71,3.1-2.81,5.2-5.44,3.74-1.15-.63-1.88-2.3-1.74-3.58.07-.65.37-1.28.78-1.78.1-.12.29-.09.35.05.29.68.74,1.35,1.45,1.62.21.08.41.15.61,0,.33-.24.03-.63-.08-.9-.74-1.8-.57-3.64.95-4.94,0,0,0,0,.01,0h0Z"/>
    </g>
  </g>
  <g id="Kartentext">
    <g>
      <g class="cls-21">
        <text class="cls-3" transform="translate(55.46 179.29)"><tspan x="0" y="0">T</tspan></text>
        <text class="cls-6" transform="translate(60.38 179.29)"><tspan x="0" y="0">ausche ein</tspan></text>
        <text class="cls-3" transform="translate(111.79 179.29)"><tspan x="0" y="0"> </tspan></text>
      </g>
      <text class="cls-13" transform="translate(55.46 179.29)"><tspan x="0" y="0">T</tspan></text>
      <text class="cls-12" transform="translate(60.38 179.29)"><tspan x="0" y="0">ausche ein</tspan></text>
      <text class="cls-13" transform="translate(111.79 179.29)"><tspan x="0" y="0"> </tspan></text>
      <g class="cls-17">
        <text class="cls-4" transform="translate(24.34 191.28)"><tspan x="0" y="0">Kl</tspan></text>
        <text class="cls-4" transform="translate(34.03 191.28)"><tspan x="0" y="0">eidu</tspan></text>
        <text class="cls-6" transform="translate(54.63 191.28)"><tspan x="0" y="0">ngss</tspan></text>
        <text class="cls-6" transform="translate(76.44 191.28)"><tspan x="0" y="0">tück mit eine</tspan></text>
        <text class="cls-3" transform="translate(138.51 191.28)"><tspan x="0" y="0">r </tspan></text>
      </g>
      <text class="cls-11" transform="translate(24.34 191.28)"><tspan x="0" y="0">Kl</tspan></text>
      <text class="cls-11" transform="translate(34.03 191.28)"><tspan x="0" y="0">eidu</tspan></text>
      <text class="cls-12" transform="translate(54.63 191.28)"><tspan x="0" y="0">ngss</tspan></text>
      <text class="cls-12" transform="translate(76.44 191.28)"><tspan x="0" y="0">tück mit eine</tspan></text>
      <text class="cls-13" transform="translate(138.51 191.28)"><tspan x="0" y="0">r </tspan></text>
      <g class="cls-18">
        <text class="cls-5" transform="translate(36.18 203.28)"><tspan x="0" y="0">Pe</tspan></text>
        <text class="cls-6" transform="translate(47.39 203.28)"><tspan x="0" y="0">rson d</tspan></text>
        <text class="cls-4" transform="translate(77.34 203.28)"><tspan x="0" y="0">eine</tspan></text>
        <text class="cls-2" transform="translate(97.44 203.28)"><tspan x="0" y="0">r W</tspan></text>
        <text class="cls-2" transform="translate(114.55 203.28)"><tspan x="0" y="0">ahl</tspan></text>
        <text class="cls-3" transform="translate(128.76 203.28)"><tspan x="0" y="0">.</tspan></text>
      </g>
      <text class="cls-9" transform="translate(36.18 203.28)"><tspan x="0" y="0">Pe</tspan></text>
      <text class="cls-12" transform="translate(47.39 203.28)"><tspan x="0" y="0">rson d</tspan></text>
      <text class="cls-11" transform="translate(77.34 203.28)"><tspan x="0" y="0">eine</tspan></text>
      <text class="cls-10" transform="translate(97.44 203.28)"><tspan x="0" y="0">r W</tspan></text>
      <text class="cls-10" transform="translate(114.55 203.28)"><tspan x="0" y="0">ahl.</tspan></text>
    </g>
  </g>
</svg>