<?xml version="1.0" encoding="UTF-8"?>
<svg xmlns="http://www.w3.org/2000/svg" xmlns:xlink="http://www.w3.org/1999/xlink" viewBox="0 0 167.24 260.79">
  <defs>
    <style>
      .cls-1, .cls-2, .cls-3, .cls-4, .cls-5, .cls-6, .cls-7, .cls-8, .cls-9, .cls-10 {
        fill: none;
      }

      .cls-2, .cls-3, .cls-4, .cls-5, .cls-11, .cls-6, .cls-7, .cls-8, .cls-9, .cls-10 {
        stroke: #fff;
      }

      .cls-2, .cls-3, .cls-4, .cls-5, .cls-6, .cls-7, .cls-12, .cls-8, .cls-13, .cls-14, .cls-15, .cls-16, .cls-17, .cls-18, .cls-19, .cls-9, .cls-20, .cls-10 {
        font-family: QuicksandBold-Regular, Quicksand;
        font-size: 10px;
      }

      .cls-2, .cls-16 {
        letter-spacing: .02em;
      }

      .cls-21 {
        fill: #010101;
      }

      .cls-3, .cls-12 {
        letter-spacing: 0em;
      }

      .cls-4, .cls-17 {
        letter-spacing: -.02em;
      }

      .cls-22 {
        fill: #171717;
      }

      .cls-11 {
        font-size: 12px;
        stroke-miterlimit: 10;
        stroke-width: .15px;
      }

      .cls-11, .cls-23 {
        font-family: Namaku, Namaku;
      }

      .cls-11, .cls-24, .cls-12, .cls-13, .cls-14, .cls-15, .cls-16, .cls-17, .cls-18, .cls-19, .cls-20 {
        fill: #fff;
      }

      .cls-25 {
        clip-path: url(#clippath-1);
      }

      .cls-26 {
        clip-path: url(#clippath-3);
      }

      .cls-27 {
        clip-path: url(#clippath-4);
      }

      .cls-28 {
        clip-path: url(#clippath-2);
      }

      .cls-6, .cls-14 {
        letter-spacing: -.05em;
      }

      .cls-23 {
        font-size: 15px;
      }

      .cls-23, .cls-29 {
        fill: #8d74b0;
      }

      .cls-7, .cls-13 {
        letter-spacing: -.04em;
      }

      .cls-8, .cls-18 {
        letter-spacing: -.02em;
      }

      .cls-15, .cls-9 {
        letter-spacing: -.03em;
      }

      .cls-30 {
        fill: #171715;
      }

      .cls-19, .cls-10 {
        letter-spacing: -.02em;
      }

      .cls-31 {
        clip-path: url(#clippath);
      }
    </style>
    <clipPath id="clippath">
      <rect class="cls-1" x="0" y="0" width="167.24" height="260.79"/>
    </clipPath>
    <clipPath id="clippath-1">
      <rect class="cls-1" x="0" y="0" width="167.24" height="260.79"/>
    </clipPath>
    <clipPath id="clippath-2">
      <rect class="cls-1" x="0" y="0" width="167.24" height="260.79"/>
    </clipPath>
    <clipPath id="clippath-3">
      <rect class="cls-1" x="0" y="0" width="167.24" height="260.79"/>
    </clipPath>
    <clipPath id="clippath-4">
      <rect class="cls-1" x="0" y="0" width="167.24" height="260.79"/>
    </clipPath>
  </defs>
  <g id="Background">
    <rect class="cls-29" x="0" width="167.24" height="260.79"/>
  </g>
  <g id="Rahmen">
    <path class="cls-21" d="M151.9,23.16c9.65,0,9.67-15,0-15s-9.67,15,0,15h0Z"/>
    <path class="cls-21" d="M152.22,254.59c9.65,0,9.67-15,0-15s-9.67,15,0,15h0Z"/>
    <path class="cls-21" d="M14.14,254.72c9.65,0,9.67-15,0-15s-9.67,15,0,15h0Z"/>
    <path class="cls-22" d="M11.56,15.67c18.49.32,36.98.69,55.46,1.04,19.51.36,39.05-.42,58.56-.82,10.18-.21,20.36-.38,30.54-.21l-3.75-3.75c-1.46,11.81-1.7,23.8-1.97,35.69-.33,14.15-.39,28.31-.37,42.46.01,9.3.14,18.61.07,27.91-.06,7.86-.43,15.71-.48,23.57-.07,11.29.08,22.59.37,33.88.56,22.38,1.59,44.74,2.18,67.12.07,2.79.14,5.57.2,8.36l3.75-3.75c-15.41-.13-30.81.06-46.22.48-24.85.69-49.67.84-74.52.24-8.25-.2-16.49-.49-24.74-.73l3.75,3.75c-.56-4.87-.34-9.89-.27-14.78.11-8.38.38-16.76.66-25.14.66-20.11,1.45-40.22,1.83-60.34.16-8.4.26-16.81.05-25.21-.13-5.24-.51-10.46-.61-15.7-.33-17.03-.19-34.08-.18-51.11,0-8.91,0-17.82-.06-26.73-.04-5.94-.04-11.89-.34-17.82-.04-.72-.08-1.43-.15-2.15-.19-1.95-1.59-3.85-3.75-3.75-1.87.08-3.96,1.66-3.75,3.75.48,4.83.39,9.76.44,14.61.09,8.42.1,16.84.11,25.25,0,17.78-.1,35.55.11,53.33.06,5.22.27,10.41.52,15.62.36,7.73.31,15.47.21,23.21-.24,20.03-1.02,40.04-1.7,60.06-.3,8.95-.6,17.9-.79,26.85-.13,5.9-.3,11.84,0,17.74.04.78.09,1.55.18,2.32.24,2.06,1.53,3.69,3.75,3.75,18.27.53,36.53,1.09,54.81,1.16,23.38.09,46.73-.97,70.1-1.19,6.85-.06,13.71-.03,20.56.02,2,.02,3.79-1.73,3.75-3.75-.48-22.44-1.5-44.87-2.16-67.3-.33-11.25-.57-22.51-.6-33.77-.03-10.16.25-20.29.47-30.44.18-8.23-.03-16.48-.05-24.72-.03-13.94,0-27.88.25-41.82.23-12.54.48-25.14,1.72-37.62.11-1.1.23-2.21.37-3.31.25-2.04-1.92-3.72-3.75-3.75-19.14-.32-38.3.42-57.44.81-9.78.2-19.58.45-29.37.27-7.76-.14-15.52-.3-23.28-.45-11.49-.22-22.99-.44-34.48-.63-1.96-.03-3.84,1.75-3.75,3.75s1.65,3.71,3.75,3.75h0Z"/>
    <polygon class="cls-22" points="26.61 14.43 14.5 29.16 14.18 13.04 26.61 14.43"/>
    <polygon class="cls-22" points="140.79 14.16 152.35 27.66 154.57 11.89 140.79 14.16"/>
    <polygon class="cls-22" points="139.48 248.15 153.14 235.93 156.07 248.65 139.48 248.15"/>
    <polygon class="cls-22" points="12.9 235.54 26.24 248.54 12.31 249.36 12.9 235.54"/>
    <rect class="cls-22" width="10.32" height="260.79"/>
    <rect class="cls-22" y="249.36" width="167.24" height="11.43"/>
    <rect class="cls-30" width="167.24" height="10.33"/>
    <rect class="cls-22" x="156.12" width="11.13" height="260.79"/>
    <path class="cls-22" d="M117.73,17.19c0-.85.31-3.85,0-4.78-.82-2.49-3.11-2.81-5.35-2.81h-57.51c-2.24,0-4.53.32-5.35,2.81-.31.93,0,3.93,0,4.78l-.25,5.71c-.49,5.31,7.64,4.59,10.71,4.59l17.71.37,5.93-.07h0l5.93.07,17.71-.37c3.08,0,11.2.72,10.71-4.59l-.24-5.71Z"/>
    <path class="cls-21" d="M151.9,23.16c9.65,0,9.67-15,0-15s-9.67,15,0,15h0Z"/>
    <path class="cls-21" d="M152.22,254.59c9.65,0,9.67-15,0-15s-9.67,15,0,15h0Z"/>
    <path class="cls-21" d="M14.14,254.72c9.65,0,9.67-15,0-15s-9.67,15,0,15h0Z"/>
    <path class="cls-22" d="M11.56,15.67c18.49.32,36.98.69,55.46,1.04,19.51.36,39.05-.42,58.56-.82,10.18-.21,20.36-.38,30.54-.21l-3.75-3.75c-1.46,11.81-1.7,23.8-1.97,35.69-.33,14.15-.39,28.31-.37,42.46.01,9.3.14,18.61.07,27.91-.06,7.86-.43,15.71-.48,23.57-.07,11.29.08,22.59.37,33.88.56,22.38,1.59,44.74,2.18,67.12.07,2.79.14,5.57.2,8.36l3.75-3.75c-15.41-.13-30.81.06-46.22.48-24.85.69-49.67.84-74.52.24-8.25-.2-16.49-.49-24.74-.73l3.75,3.75c-.56-4.87-.34-9.89-.27-14.78.11-8.38.38-16.76.66-25.14.66-20.11,1.45-40.22,1.83-60.34.16-8.4.26-16.81.05-25.21-.13-5.24-.51-10.46-.61-15.7-.33-17.03-.19-34.08-.18-51.11,0-8.91,0-17.82-.06-26.73-.04-5.94-.04-11.89-.34-17.82-.04-.72-.08-1.43-.15-2.15-.19-1.95-1.59-3.85-3.75-3.75-1.87.08-3.96,1.66-3.75,3.75.48,4.83.39,9.76.44,14.61.09,8.42.1,16.84.11,25.25,0,17.78-.1,35.55.11,53.33.06,5.22.27,10.41.52,15.62.36,7.73.31,15.47.21,23.21-.24,20.03-1.02,40.04-1.7,60.06-.3,8.95-.6,17.9-.79,26.85-.13,5.9-.3,11.84,0,17.74.04.78.09,1.55.18,2.32.24,2.06,1.53,3.69,3.75,3.75,18.27.53,36.53,1.09,54.81,1.16,23.38.09,46.73-.97,70.1-1.19,6.85-.06,13.71-.03,20.56.02,2,.02,3.79-1.73,3.75-3.75-.48-22.44-1.5-44.87-2.16-67.3-.33-11.25-.57-22.51-.6-33.77-.03-10.16.25-20.29.47-30.44.18-8.23-.03-16.48-.05-24.72-.03-13.94,0-27.88.25-41.82.23-12.54.48-25.14,1.72-37.62.11-1.1.23-2.21.37-3.31.25-2.04-1.92-3.72-3.75-3.75-19.14-.32-38.3.42-57.44.81-9.78.2-19.58.45-29.37.27-7.76-.14-15.52-.3-23.28-.45-11.49-.22-22.99-.44-34.48-.63-1.96-.03-3.84,1.75-3.75,3.75s1.65,3.71,3.75,3.75h0Z"/>
    <polygon class="cls-22" points="26.61 14.43 14.5 29.16 14.18 13.04 26.61 14.43"/>
    <polygon class="cls-22" points="140.79 14.16 152.35 27.66 154.57 11.89 140.79 14.16"/>
    <polygon class="cls-22" points="139.48 248.15 153.14 235.93 156.07 248.65 139.48 248.15"/>
    <polygon class="cls-22" points="12.9 235.54 26.24 248.54 12.31 249.36 12.9 235.54"/>
    <rect class="cls-22" width="10.32" height="260.79"/>
    <rect class="cls-22" y="249.36" width="167.24" height="11.43"/>
    <rect class="cls-30" width="167.24" height="10.33"/>
    <rect class="cls-22" x="156.12" width="11.13" height="260.79"/>
  </g>
  <g id="Kategorie_Name" data-name="Kategorie Name">
    <text class="cls-23" transform="translate(53.57 22.56) scale(1 1.09)"><tspan x="0" y="0">aufgabe</tspan></text>
  </g>
  <g id="Schlücke">
    <text class="cls-11" transform="translate(5.24 252.82)"><tspan x="0" y="0">+1</tspan></text>
    <text class="cls-11" transform="translate(148.51 19.77)"><tspan x="0" y="0">+1</tspan></text>
  </g>
  <g id="Motive">
    <g>
      <path class="cls-22" d="M105.68,91.42c.28-1.32,2.18-1.32,2.49,0,.21.9.33,1.72.38,2.19,1.64,15.27-7.6,18.52-11.2,31.03-.16.55-.65.94-1.22.94l-24.53.07c-.72,0-1.29-.6-1.28-1.32.12-6.28-4.31-7.97-7.31-12.2-7.56-10.67-4.95-25.58,3.71-34.68.72-.75,1.95-.38,2.17.64,1.09,5.06,6.64,9.16,9.27,2.95,2.54-5.98-6.01-19.66,3.74-25.81.78-.49,1.83-.02,1.95.9,1.16,8.64,7.31,4.99,6.54-2.18-.13-1.16,1.26-1.89,2.12-1.1,6.93,6.39,9.61,15.2,8.46,24.98-.4,3.37-2.31,6.72-2.71,9.83-1.48,11.6,5.83,11.17,7.41,3.78ZM102.77,106.47c.36-1.16-.92-2.12-1.93-1.45-15.36,10.32-8.25-6.93-9.49-16.41-.29-2.24-1.34-5.34-2.66-7.79-.54-.99-2.01-.83-2.33.26-2.8,9.44-9.22,22.85-17.82,12.46-.6-.73-1.77-.57-2.15.29-2.68,6.24-1.91,11.77,1.09,16.99.73,1.28,2.69.51,2.35-.92-.66-2.82-.74-5.67.83-8.35,1.32-2.24,3.4,2.38,5.04,2.81,3.36.88,7.41-5.74,8.88-10.36.37-1.15,1.99-1.22,2.41-.08,2.9,7.86-1.81,22.16,8.45,16.99.98-.49,2.06.43,1.72,1.47l-.04.11c-.48,1.44,1.49,2.38,2.28,1.11,1.43-2.29,2.73-5.04,3.37-7.12Z"/>
      <path class="cls-22" d="M68.9,137.27h29.62c.88,0,1.6-.72,1.6-1.6v-16.26c0-4.56,12.74-6.69,13.59,1.91.47,4.77-1.47,5.99-5.34,6.27-.82.06-1.48.71-1.51,1.54l-.45,12.54c-.01.28-.08.57-.24.8-1.12,1.62-2.72,1.44-4.55,1.62-7.91.77-29.17,1-36.78-.01-6.81-.9-3.85-9.36-4.17-15-.05-.79-.7-1.39-1.49-1.46-11.93-.93-2.85-17.72,6.12-11.03.56.41,2,2.41,2,2.82v16.26c0,.88.72,1.6,1.6,1.6Z"/>
      <rect class="cls-22" x="70.2" y="128.59" width="27.03" height="5.79" rx="2.06" ry="2.06"/>
      <path class="cls-22" d="M69,147.69l-.61,4.63c-.1.75-.74,1.32-1.5,1.33l-1.91.02c-.85.01-1.55-.68-1.55-1.53v-4.65c0-.85.69-1.53,1.53-1.53h2.52c.92,0,1.63.82,1.51,1.73Z"/>
      <path class="cls-22" d="M103.98,147.49v4.65c0,.85-.7,1.54-1.55,1.53l-1.91-.02c-.76,0-1.4-.57-1.5-1.33l-.61-4.63c-.12-.92.59-1.73,1.51-1.73h2.52c.85,0,1.53.68,1.53,1.53Z"/>
    </g>
  </g>
  <g id="Kateg._Symbol" data-name="Kateg. Symbol">
    <g id="jCvsG5">
      <path class="cls-24" d="M14.94,10.67c.12-.09.3,0,.29.15-.04.89.15,1.8.59,2.57.7,1.21,1.87,1.54,2.22,3.08.71,3.1-2.81,5.2-5.44,3.74-1.15-.63-1.88-2.3-1.74-3.58.07-.65.37-1.28.78-1.78.1-.12.29-.09.35.05.29.68.74,1.35,1.45,1.62.21.08.41.15.61,0,.33-.24.03-.63-.08-.9-.74-1.8-.57-3.64.95-4.94,0,0,0,0,.01,0h0Z"/>
    </g>
    <g id="jCvsG5-2" data-name="jCvsG5">
      <path class="cls-24" d="M151.86,243.26c.12-.09.3,0,.29.15-.04.89.15,1.8.59,2.57.7,1.21,1.87,1.54,2.22,3.08.71,3.1-2.81,5.2-5.44,3.74-1.15-.63-1.88-2.3-1.74-3.58.07-.65.37-1.28.78-1.78.1-.12.29-.09.35.05.29.68.74,1.35,1.45,1.62.21.08.41.15.61,0,.33-.24.03-.63-.08-.9-.74-1.8-.57-3.64.95-4.94,0,0,0,0,.01,0h0Z"/>
    </g>
  </g>
  <g id="Kartentext">
    <g>
      <g class="cls-31">
        <text class="cls-8" transform="translate(27.02 179.29)"><tspan x="0" y="0">Ho</tspan></text>
        <text class="cls-10" transform="translate(39.76 179.29)"><tspan x="0" y="0">t Seat: </tspan></text>
        <text class="cls-2" transform="translate(73.51 179.29)"><tspan x="0" y="0">Je</tspan></text>
        <text class="cls-9" transform="translate(85.55 179.29)"><tspan x="0" y="0">de</tspan></text>
        <text class="cls-4" transform="translate(97.48 179.29)"><tspan x="0" y="0">r aus </tspan></text>
        <text class="cls-9" transform="translate(123.91 179.29)"><tspan x="0" y="0">de</tspan></text>
        <text class="cls-5" transform="translate(135.84 179.29)"><tspan x="0" y="0">r </tspan></text>
      </g>
      <text class="cls-18" transform="translate(27.02 179.29)"><tspan x="0" y="0">Ho</tspan></text>
      <text class="cls-19" transform="translate(39.76 179.29)"><tspan x="0" y="0">t Seat: </tspan></text>
      <text class="cls-16" transform="translate(73.51 179.29)"><tspan x="0" y="0">Je</tspan></text>
      <text class="cls-15" transform="translate(85.55 179.29)"><tspan x="0" y="0">de</tspan></text>
      <text class="cls-17" transform="translate(97.48 179.29)"><tspan x="0" y="0">r aus </tspan></text>
      <text class="cls-15" transform="translate(123.91 179.29)"><tspan x="0" y="0">de</tspan></text>
      <text class="cls-20" transform="translate(135.84 179.29)"><tspan x="0" y="0">r </tspan></text>
      <g class="cls-25">
        <text class="cls-10" transform="translate(34.23 191.28)"><tspan x="0" y="0">Gruppe darf dir eine</tspan></text>
        <text class="cls-5" transform="translate(133.01 191.28)"><tspan x="0" y="0"> </tspan></text>
      </g>
      <text class="cls-19" transform="translate(34.23 191.28)"><tspan x="0" y="0">Gruppe darf dir eine</tspan></text>
      <text class="cls-20" transform="translate(133.01 191.28)"><tspan x="0" y="0"> </tspan></text>
      <g class="cls-28">
        <text class="cls-8" transform="translate(30.41 203.28)"><tspan x="0" y="0">Fr</tspan></text>
        <text class="cls-5" transform="translate(40.2 203.28)"><tspan x="0" y="0">a</tspan></text>
        <text class="cls-10" transform="translate(46.55 203.28)"><tspan x="0" y="0">ge </tspan></text>
        <text class="cls-3" transform="translate(61.63 203.28)"><tspan x="0" y="0">st</tspan></text>
        <text class="cls-8" transform="translate(69.91 203.28)"><tspan x="0" y="0">ell</tspan></text>
        <text class="cls-10" transform="translate(80.82 203.28)"><tspan x="0" y="0">en. Für jed</tspan></text>
        <text class="cls-5" transform="translate(130.74 203.28)"><tspan x="0" y="0">e </tspan></text>
      </g>
      <text class="cls-18" transform="translate(30.41 203.28)"><tspan x="0" y="0">Fr</tspan></text>
      <text class="cls-20" transform="translate(40.2 203.28)"><tspan x="0" y="0">a</tspan></text>
      <text class="cls-19" transform="translate(46.55 203.28)"><tspan x="0" y="0">ge </tspan></text>
      <text class="cls-12" transform="translate(61.63 203.28)"><tspan x="0" y="0">st</tspan></text>
      <text class="cls-18" transform="translate(69.91 203.28)"><tspan x="0" y="0">ell</tspan></text>
      <text class="cls-19" transform="translate(80.82 203.28)"><tspan x="0" y="0">en. Für jed</tspan></text>
      <text class="cls-20" transform="translate(130.74 203.28)"><tspan x="0" y="0">e </tspan></text>
      <g class="cls-26">
        <text class="cls-6" transform="translate(34.6 215.28)"><tspan x="0" y="0">ve</tspan></text>
        <text class="cls-10" transform="translate(45.59 215.28)"><tspan x="0" y="0">rw</tspan></text>
        <text class="cls-8" transform="translate(57.59 215.28)"><tspan x="0" y="0">eige</tspan></text>
        <text class="cls-10" transform="translate(78.18 215.28)"><tspan x="0" y="0">rt</tspan></text>
        <text class="cls-10" transform="translate(85.77 215.28)"><tspan x="0" y="0">e Antw</tspan></text>
        <text class="cls-7" transform="translate(118.61 215.28)"><tspan x="0" y="0">or</tspan></text>
        <text class="cls-5" transform="translate(128.65 215.28)"><tspan x="0" y="0">t </tspan></text>
      </g>
      <text class="cls-14" transform="translate(34.6 215.28)"><tspan x="0" y="0">ve</tspan></text>
      <text class="cls-19" transform="translate(45.59 215.28)"><tspan x="0" y="0">rw</tspan></text>
      <text class="cls-18" transform="translate(57.59 215.28)"><tspan x="0" y="0">eige</tspan></text>
      <text class="cls-19" transform="translate(78.18 215.28)"><tspan x="0" y="0">rt</tspan></text>
      <text class="cls-19" transform="translate(85.77 215.28)"><tspan x="0" y="0">e Antw</tspan></text>
      <text class="cls-13" transform="translate(118.61 215.28)"><tspan x="0" y="0">or</tspan></text>
      <text class="cls-20" transform="translate(128.65 215.28)"><tspan x="0" y="0">t </tspan></text>
      <g class="cls-27">
        <text class="cls-8" transform="translate(42.84 227.28)"><tspan x="0" y="0">mus</tspan></text>
        <text class="cls-3" transform="translate(62.7 227.28)"><tspan x="0" y="0">st</tspan></text>
        <text class="cls-10" transform="translate(71.37 227.28)"><tspan x="0" y="0" xml:space="preserve"> du t</tspan></text>
        <text class="cls-4" transform="translate(92.41 227.28)"><tspan x="0" y="0">rink</tspan></text>
        <text class="cls-10" transform="translate(110.28 227.28)"><tspan x="0" y="0">en</tspan></text>
        <text class="cls-5" transform="translate(122.1 227.28)"><tspan x="0" y="0">.</tspan></text>
      </g>
      <text class="cls-18" transform="translate(42.84 227.28)"><tspan x="0" y="0">mus</tspan></text>
      <text class="cls-12" transform="translate(62.7 227.28)"><tspan x="0" y="0">st</tspan></text>
      <text class="cls-19" transform="translate(71.37 227.28)"><tspan x="0" y="0" xml:space="preserve"> du t</tspan></text>
      <text class="cls-17" transform="translate(92.41 227.28)"><tspan x="0" y="0">rink</tspan></text>
      <text class="cls-19" transform="translate(110.28 227.28)"><tspan x="0" y="0">en.</tspan></text>
    </g>
  </g>
</svg>