<?xml version="1.0" encoding="UTF-8"?>
<svg xmlns="http://www.w3.org/2000/svg" xmlns:xlink="http://www.w3.org/1999/xlink" viewBox="0 0 167.24 260.79">
  <defs>
    <style>
      .cls-1, .cls-2, .cls-3, .cls-4, .cls-5, .cls-6, .cls-7, .cls-8, .cls-9 {
        fill: none;
      }

      .cls-10 {
        fill: #010101;
      }

      .cls-2, .cls-3, .cls-4, .cls-11, .cls-5, .cls-6, .cls-7, .cls-8, .cls-9 {
        stroke: #fff;
      }

      .cls-2, .cls-3, .cls-4, .cls-5, .cls-12, .cls-6, .cls-13, .cls-7, .cls-14, .cls-15, .cls-16, .cls-17, .cls-8, .cls-18, .cls-9 {
        font-family: QuicksandBold-Regular, Quicksand;
        font-size: 10px;
      }

      .cls-2, .cls-12 {
        letter-spacing: 0em;
      }

      .cls-3, .cls-14 {
        letter-spacing: -.02em;
      }

      .cls-19 {
        fill: #171717;
      }

      .cls-11 {
        font-size: 12px;
        stroke-miterlimit: 10;
        stroke-width: .15px;
      }

      .cls-11, .cls-20 {
        font-family: Namaku, Namaku;
      }

      .cls-11, .cls-21, .cls-12, .cls-13, .cls-14, .cls-15, .cls-16, .cls-17, .cls-18 {
        fill: #fff;
      }

      .cls-5 {
        letter-spacing: -.09em;
      }

      .cls-22 {
        clip-path: url(#clippath-1);
      }

      .cls-23 {
        clip-path: url(#clippath-2);
      }

      .cls-20 {
        font-size: 15px;
      }

      .cls-20, .cls-24 {
        fill: #8d74b0;
      }

      .cls-6, .cls-15 {
        letter-spacing: -.02em;
      }

      .cls-13, .cls-8 {
        letter-spacing: -.04em;
      }

      .cls-25 {
        fill: #171715;
      }

      .cls-7, .cls-17 {
        letter-spacing: -.15em;
      }

      .cls-16, .cls-9 {
        letter-spacing: -.02em;
      }

      .cls-26 {
        clip-path: url(#clippath);
      }
    </style>
    <clipPath id="clippath">
      <rect class="cls-1" x="0" y="0" width="167.24" height="260.79"/>
    </clipPath>
    <clipPath id="clippath-1">
      <rect class="cls-1" x="0" y="0" width="167.24" height="260.79"/>
    </clipPath>
    <clipPath id="clippath-2">
      <rect class="cls-1" x="0" y="0" width="167.24" height="260.79"/>
    </clipPath>
  </defs>
  <g id="Background">
    <rect class="cls-24" width="167.24" height="260.79"/>
  </g>
  <g id="Rahmen">
    <path class="cls-10" d="M151.9,23.16c9.65,0,9.67-15,0-15s-9.67,15,0,15h0Z"/>
    <path class="cls-10" d="M152.22,254.59c9.65,0,9.67-15,0-15s-9.67,15,0,15h0Z"/>
    <path class="cls-10" d="M14.14,254.72c9.65,0,9.67-15,0-15s-9.67,15,0,15h0Z"/>
    <path class="cls-19" d="M11.56,15.67c18.49.32,36.98.69,55.46,1.04,19.51.36,39.05-.42,58.56-.82,10.18-.21,20.36-.38,30.54-.21l-3.75-3.75c-1.46,11.81-1.7,23.8-1.97,35.69-.33,14.15-.39,28.31-.37,42.46.01,9.3.14,18.61.07,27.91-.06,7.86-.43,15.71-.48,23.57-.07,11.29.08,22.59.37,33.88.56,22.38,1.59,44.74,2.18,67.12.07,2.79.14,5.57.2,8.36l3.75-3.75c-15.41-.13-30.81.06-46.22.48-24.85.69-49.67.84-74.52.24-8.25-.2-16.49-.49-24.74-.73l3.75,3.75c-.56-4.87-.34-9.89-.27-14.78.11-8.38.38-16.76.66-25.14.66-20.11,1.45-40.22,1.83-60.34.16-8.4.26-16.81.05-25.21-.13-5.24-.51-10.46-.61-15.7-.33-17.03-.19-34.08-.18-51.11,0-8.91,0-17.82-.06-26.73-.04-5.94-.04-11.89-.34-17.82-.04-.72-.08-1.43-.15-2.15-.19-1.95-1.59-3.85-3.75-3.75-1.87.08-3.96,1.66-3.75,3.75.48,4.83.39,9.76.44,14.61.09,8.42.1,16.84.11,25.25,0,17.78-.1,35.55.11,53.33.06,5.22.27,10.41.52,15.62.36,7.73.31,15.47.21,23.21-.24,20.03-1.02,40.04-1.7,60.06-.3,8.95-.6,17.9-.79,26.85-.13,5.9-.3,11.84,0,17.74.04.78.09,1.55.18,2.32.24,2.06,1.53,3.69,3.75,3.75,18.27.53,36.53,1.09,54.81,1.16,23.38.09,46.73-.97,70.1-1.19,6.85-.06,13.71-.03,20.56.02,2,.02,3.79-1.73,3.75-3.75-.48-22.44-1.5-44.87-2.16-67.3-.33-11.25-.57-22.51-.6-33.77-.03-10.16.25-20.29.47-30.44.18-8.23-.03-16.48-.05-24.72-.03-13.94,0-27.88.25-41.82.23-12.54.48-25.14,1.72-37.62.11-1.1.23-2.21.37-3.31.25-2.04-1.92-3.72-3.75-3.75-19.14-.32-38.3.42-57.44.81-9.78.2-19.58.45-29.37.27-7.76-.14-15.52-.3-23.28-.45-11.49-.22-22.99-.44-34.48-.63-1.96-.03-3.84,1.75-3.75,3.75s1.65,3.71,3.75,3.75h0Z"/>
    <polygon class="cls-19" points="26.61 14.43 14.5 29.16 14.18 13.04 26.61 14.43"/>
    <polygon class="cls-19" points="140.79 14.16 152.35 27.66 154.57 11.89 140.79 14.16"/>
    <polygon class="cls-19" points="139.48 248.15 153.14 235.93 156.07 248.65 139.48 248.15"/>
    <polygon class="cls-19" points="12.9 235.54 26.24 248.54 12.31 249.36 12.9 235.54"/>
    <rect class="cls-19" width="10.32" height="260.79"/>
    <rect class="cls-19" y="249.36" width="167.24" height="11.43"/>
    <rect class="cls-25" width="167.24" height="10.33"/>
    <rect class="cls-19" x="156.12" width="11.13" height="260.79"/>
    <path class="cls-19" d="M117.73,17.19c0-.85.31-3.85,0-4.78-.82-2.49-3.11-2.81-5.35-2.81h-57.51c-2.24,0-4.53.32-5.35,2.81-.31.93,0,3.93,0,4.78l-.25,5.71c-.49,5.31,7.64,4.59,10.71,4.59l17.71.37,5.93-.07h0l5.93.07,17.71-.37c3.08,0,11.2.72,10.71-4.59l-.24-5.71Z"/>
    <path class="cls-10" d="M151.9,23.16c9.65,0,9.67-15,0-15s-9.67,15,0,15h0Z"/>
    <path class="cls-10" d="M152.22,254.59c9.65,0,9.67-15,0-15s-9.67,15,0,15h0Z"/>
    <path class="cls-10" d="M14.14,254.72c9.65,0,9.67-15,0-15s-9.67,15,0,15h0Z"/>
    <path class="cls-19" d="M11.56,15.67c18.49.32,36.98.69,55.46,1.04,19.51.36,39.05-.42,58.56-.82,10.18-.21,20.36-.38,30.54-.21l-3.75-3.75c-1.46,11.81-1.7,23.8-1.97,35.69-.33,14.15-.39,28.31-.37,42.46.01,9.3.14,18.61.07,27.91-.06,7.86-.43,15.71-.48,23.57-.07,11.29.08,22.59.37,33.88.56,22.38,1.59,44.74,2.18,67.12.07,2.79.14,5.57.2,8.36l3.75-3.75c-15.41-.13-30.81.06-46.22.48-24.85.69-49.67.84-74.52.24-8.25-.2-16.49-.49-24.74-.73l3.75,3.75c-.56-4.87-.34-9.89-.27-14.78.11-8.38.38-16.76.66-25.14.66-20.11,1.45-40.22,1.83-60.34.16-8.4.26-16.81.05-25.21-.13-5.24-.51-10.46-.61-15.7-.33-17.03-.19-34.08-.18-51.11,0-8.91,0-17.82-.06-26.73-.04-5.94-.04-11.89-.34-17.82-.04-.72-.08-1.43-.15-2.15-.19-1.95-1.59-3.85-3.75-3.75-1.87.08-3.96,1.66-3.75,3.75.48,4.83.39,9.76.44,14.61.09,8.42.1,16.84.11,25.25,0,17.78-.1,35.55.11,53.33.06,5.22.27,10.41.52,15.62.36,7.73.31,15.47.21,23.21-.24,20.03-1.02,40.04-1.7,60.06-.3,8.95-.6,17.9-.79,26.85-.13,5.9-.3,11.84,0,17.74.04.78.09,1.55.18,2.32.24,2.06,1.53,3.69,3.75,3.75,18.27.53,36.53,1.09,54.81,1.16,23.38.09,46.73-.97,70.1-1.19,6.85-.06,13.71-.03,20.56.02,2,.02,3.79-1.73,3.75-3.75-.48-22.44-1.5-44.87-2.16-67.3-.33-11.25-.57-22.51-.6-33.77-.03-10.16.25-20.29.47-30.44.18-8.23-.03-16.48-.05-24.72-.03-13.94,0-27.88.25-41.82.23-12.54.48-25.14,1.72-37.62.11-1.1.23-2.21.37-3.31.25-2.04-1.92-3.72-3.75-3.75-19.14-.32-38.3.42-57.44.81-9.78.2-19.58.45-29.37.27-7.76-.14-15.52-.3-23.28-.45-11.49-.22-22.99-.44-34.48-.63-1.96-.03-3.84,1.75-3.75,3.75s1.65,3.71,3.75,3.75h0Z"/>
    <polygon class="cls-19" points="26.61 14.43 14.5 29.16 14.18 13.04 26.61 14.43"/>
    <polygon class="cls-19" points="140.79 14.16 152.35 27.66 154.57 11.89 140.79 14.16"/>
    <polygon class="cls-19" points="139.48 248.15 153.14 235.93 156.07 248.65 139.48 248.15"/>
    <polygon class="cls-19" points="12.9 235.54 26.24 248.54 12.31 249.36 12.9 235.54"/>
    <rect class="cls-19" width="10.32" height="260.79"/>
    <rect class="cls-19" y="249.36" width="167.24" height="11.43"/>
    <rect class="cls-25" width="167.24" height="10.33"/>
    <rect class="cls-19" x="156.12" width="11.13" height="260.79"/>
  </g>
  <g id="Kategorie_Name" data-name="Kategorie Name">
    <text class="cls-20" transform="translate(53.57 22.56) scale(1 1.09)"><tspan x="0" y="0">aufgabe</tspan></text>
  </g>
  <g id="Schlücke">
    <text class="cls-11" transform="translate(4.4 252.82)"><tspan x="0" y="0">+3</tspan></text>
    <text class="cls-11" transform="translate(147.68 19.77)"><tspan x="0" y="0">+3</tspan></text>
  </g>
  <g id="Motive">
    <g>
      <path class="cls-19" d="M120.45,129.54v1.58c-.85,2.36-2.94,1.48-4.83,1.86l-1.97,14.7c-.33,1.72-2.04,3.32-3.78,3.55-1.33.17-4.96.16-6.32.01-2.35-.26-3.64-2.14-4.06-4.28-.64-3.32-.75-6.92-1.34-10.27,2.52-1.24,3.95-3.68,3.9-6.5-.93-6.75-1.13-13.63-2.04-20.38-.2-1.47-.45-2.93-1.26-4.21l.2-.33h15.67c1.28,0,3.56,2.18,3.62,3.56l2.05,20.37.15.35Z"/>
      <path class="cls-19" d="M61.91,84.48c7.7.92,10.71,11.15,4.67,16.23-6.35,5.35-15.89.23-15.16-7.97.35-3.98,3.91-7.79,7.91-8.26.59-.07,2-.07,2.59,0Z"/>
      <path class="cls-19" d="M84.92,84.48c7.7.92,10.71,11.15,4.67,16.23-6.35,5.35-15.89.23-15.16-7.97.35-3.98,3.91-7.79,7.91-8.26.59-.07,2-.07,2.59,0Z"/>
      <path class="cls-19" d="M107.92,84.48c7.7.92,10.71,11.15,4.67,16.23-6.35,5.35-15.89.23-15.16-7.97.35-3.98,3.91-7.79,7.91-8.26.59-.07,2-.07,2.59,0Z"/>
      <path class="cls-19" d="M92.72,132.87c-.1.19-.14.41-.16.63-.65,5.87-.85,12.16-1.74,17.94-.32,2.08-1.59,4.02-3.83,4.37-1.32.21-4.91.17-6.3.04-1.86-.17-3.45-1.56-4.02-3.31l-2.07-19.6c-1.95-.21-4.36.46-4.76-2.17l2.03-21.11c.23-2.28,1.82-4.04,4.08-4.4,4.89.39,10.6-.52,15.39,0,1.46.16,3.06,1.35,3.63,2.69,1.28,7.51,1.68,15.22,2.48,22.82-.38,2.54-2.78,2.06-4.72,2.1Z"/>
      <path class="cls-19" d="M68.54,105.41c-.48,1.12-.93,2.02-1.13,3.25-1.2,7.25-1.24,15.2-2.16,22.52.32,2.42,1.66,4.45,3.88,5.5l-1.49,11.15c-.4,1.55-1.95,3.06-3.55,3.35-1.18.21-5.6.22-6.8.03-1.58-.25-3.2-1.74-3.63-3.27l-2-14.95c-.19-.28-2.23-.08-2.74-.13-1.52-.17-2.28-1.49-2.08-2.95.99-6.6,1.05-13.54,2.01-20.12.35-2.4,1.53-3.97,3.96-4.52,4.87.24,10.12-.36,14.95-.02.28.02.52.08.78.15Z"/>
      <g>
        <path class="cls-19" d="M70.85,67.85c.89-1.21.28-2.79-1.2-3.08-1.17-.23-2.46-.27-3.61-.52-.21-.05-.3-.11-.41-.3-.63-1.04-1.05-2.31-1.67-3.37-.37-.63-1.01-.99-1.74-.95-.68.03-1.24.4-1.58.98-.6,1.03-1.03,2.26-1.62,3.29-.11.19-.21.3-.44.35-1.2.27-2.57.27-3.76.55-1.46.34-1.93,2.11-.92,3.21.65.7,1.42,1.36,2.1,2.03.19.19.65.58.69.83-.12,1.26-.47,2.52-.62,3.77-.11.9.3,1.73,1.16,2.07.69.27,1.17.13,1.8-.18,1.07-.53,2.1-1.16,3.19-1.65.23-.04.44.11.64.21.99.49,2.09,1.23,3.09,1.62,1.41.56,2.73-.55,2.61-2.02-.1-1.18-.52-2.45-.63-3.63-.02-.17,0-.33.12-.45l2.8-2.75Z"/>
        <path class="cls-19" d="M113.44,67.85c.89-1.21.28-2.79-1.2-3.08-1.17-.23-2.46-.27-3.61-.52-.21-.05-.3-.11-.41-.3-.63-1.04-1.05-2.31-1.67-3.37-.37-.63-1.01-.99-1.74-.95-.68.03-1.24.4-1.58.98-.6,1.03-1.03,2.26-1.62,3.29-.11.19-.21.3-.44.35-1.2.27-2.57.27-3.76.55-1.46.34-1.93,2.11-.92,3.21.65.7,1.42,1.36,2.1,2.03.19.19.65.58.69.83-.12,1.26-.47,2.52-.62,3.77-.11.9.3,1.73,1.16,2.07.69.27,1.17.13,1.8-.18,1.07-.53,2.1-1.16,3.19-1.65.23-.04.44.11.64.21.99.49,2.09,1.23,3.09,1.62,1.41.56,2.73-.55,2.61-2.02-.1-1.18-.52-2.45-.63-3.63-.02-.17,0-.33.12-.45l2.8-2.75Z"/>
        <path class="cls-19" d="M97.2,55.33c.55-.75.17-1.72-.73-1.89-.72-.14-1.51-.16-2.22-.32-.13-.03-.19-.07-.25-.18-.38-.64-.65-1.42-1.03-2.07-.22-.38-.62-.61-1.07-.59-.42.02-.76.25-.97.6-.37.63-.63,1.39-1,2.02-.07.12-.13.18-.27.21-.73.16-1.58.17-2.31.34-.9.21-1.19,1.3-.56,1.97.4.43.87.83,1.29,1.25.12.12.4.36.42.51-.08.77-.29,1.55-.38,2.32-.07.55.19,1.06.71,1.27.42.17.72.08,1.11-.11.66-.33,1.29-.71,1.96-1.02.14-.03.27.07.39.13.61.3,1.29.75,1.9,1,.87.34,1.68-.34,1.6-1.24-.06-.72-.32-1.51-.39-2.23,0-.1,0-.2.08-.28l1.72-1.69Z"/>
        <path class="cls-19" d="M80.98,55.33c.55-.75.17-1.72-.73-1.89-.72-.14-1.51-.16-2.22-.32-.13-.03-.19-.07-.25-.18-.38-.64-.65-1.42-1.03-2.07-.22-.38-.62-.61-1.07-.59-.42.02-.76.25-.97.6-.37.63-.63,1.39-1,2.02-.07.12-.13.18-.27.21-.73.16-1.58.17-2.31.34-.9.21-1.19,1.3-.56,1.97.4.43.87.83,1.29,1.25.12.12.4.36.42.51-.08.77-.29,1.55-.38,2.32-.07.55.19,1.06.71,1.27.42.17.72.08,1.11-.11.66-.33,1.29-.71,1.96-1.02.14-.03.27.07.39.13.61.3,1.29.75,1.9,1,.87.34,1.68-.34,1.6-1.24-.06-.72-.32-1.51-.39-2.23,0-.1,0-.2.08-.28l1.72-1.69Z"/>
      </g>
    </g>
  </g>
  <g id="Kateg._Symbol" data-name="Kateg. Symbol">
    <g id="jCvsG5">
      <path class="cls-21" d="M14.94,10.67c.12-.09.3,0,.29.15-.04.89.15,1.8.59,2.57.7,1.21,1.87,1.54,2.22,3.08.71,3.1-2.81,5.2-5.44,3.74-1.15-.63-1.88-2.3-1.74-3.58.07-.65.37-1.28.78-1.78.1-.12.29-.09.35.05.29.68.74,1.35,1.45,1.62.21.08.41.15.61,0,.33-.24.03-.63-.08-.9-.74-1.8-.57-3.64.95-4.94,0,0,0,0,.01,0h0Z"/>
    </g>
    <g id="jCvsG5-2" data-name="jCvsG5">
      <path class="cls-21" d="M151.86,243.26c.12-.09.3,0,.29.15-.04.89.15,1.8.59,2.57.7,1.21,1.87,1.54,2.22,3.08.71,3.1-2.81,5.2-5.44,3.74-1.15-.63-1.88-2.3-1.74-3.58.07-.65.37-1.28.78-1.78.1-.12.29-.09.35.05.29.68.74,1.35,1.45,1.62.21.08.41.15.61,0,.33-.24.03-.63-.08-.9-.74-1.8-.57-3.64.95-4.94,0,0,0,0,.01,0h0Z"/>
    </g>
  </g>
  <g id="Kartentext">
    <g>
      <g class="cls-26">
        <text class="cls-4" transform="translate(28.88 179.29)"><tspan x="0" y="0">Z</tspan></text>
        <text class="cls-6" transform="translate(35.1 179.29)"><tspan x="0" y="0">eige ein </tspan></text>
        <text class="cls-7" transform="translate(75.92 179.29)"><tspan x="0" y="0">Ta</tspan></text>
        <text class="cls-4" transform="translate(86.98 179.29)"><tspan x="0" y="0">l</tspan></text>
        <text class="cls-9" transform="translate(89.72 179.29)"><tspan x="0" y="0">ent. W</tspan></text>
        <text class="cls-9" transform="translate(120.41 179.29)"><tspan x="0" y="0">enn</tspan></text>
        <text class="cls-4" transform="translate(138.36 179.29)"><tspan x="0" y="0"> </tspan></text>
      </g>
      <text class="cls-18" transform="translate(28.88 179.29)"><tspan x="0" y="0">Z</tspan></text>
      <text class="cls-15" transform="translate(35.1 179.29)"><tspan x="0" y="0">eige ein </tspan></text>
      <text class="cls-17" transform="translate(75.92 179.29)"><tspan x="0" y="0">Ta</tspan></text>
      <text class="cls-18" transform="translate(86.98 179.29)"><tspan x="0" y="0">l</tspan></text>
      <text class="cls-16" transform="translate(89.72 179.29)"><tspan x="0" y="0">ent. W</tspan></text>
      <text class="cls-16" transform="translate(120.41 179.29)"><tspan x="0" y="0">enn</tspan></text>
      <text class="cls-18" transform="translate(138.36 179.29)"><tspan x="0" y="0"> </tspan></text>
      <g class="cls-22">
        <text class="cls-9" transform="translate(28.23 191.28)"><tspan x="0" y="0">die Gruppe es schl</tspan></text>
        <text class="cls-9" transform="translate(117.69 191.28)"><tspan x="0" y="0">echt</tspan></text>
        <text class="cls-4" transform="translate(139.02 191.28)"><tspan x="0" y="0"> </tspan></text>
      </g>
      <text class="cls-16" transform="translate(28.23 191.28)"><tspan x="0" y="0">die Gruppe es schl</tspan></text>
      <text class="cls-16" transform="translate(117.69 191.28)"><tspan x="0" y="0">echt</tspan></text>
      <text class="cls-18" transform="translate(139.02 191.28)"><tspan x="0" y="0"> </tspan></text>
      <g class="cls-23">
        <text class="cls-9" transform="translate(27.8 203.28)"><tspan x="0" y="0">fin</tspan></text>
        <text class="cls-8" transform="translate(39.55 203.28)"><tspan x="0" y="0">de</tspan></text>
        <text class="cls-9" transform="translate(51.3 203.28)"><tspan x="0" y="0">t mus</tspan></text>
        <text class="cls-2" transform="translate(77.75 203.28)"><tspan x="0" y="0">st</tspan></text>
        <text class="cls-9" transform="translate(86.42 203.28)"><tspan x="0" y="0" xml:space="preserve"> du </tspan></text>
        <text class="cls-5" transform="translate(104.35 203.28)"><tspan x="0" y="0">tr</tspan></text>
        <text class="cls-3" transform="translate(111.64 203.28)"><tspan x="0" y="0">ink</tspan></text>
        <text class="cls-9" transform="translate(125.33 203.28)"><tspan x="0" y="0">en.</tspan></text>
      </g>
      <text class="cls-16" transform="translate(27.8 203.28)"><tspan x="0" y="0">fin</tspan></text>
      <text class="cls-13" transform="translate(39.55 203.28)"><tspan x="0" y="0">de</tspan></text>
      <text class="cls-16" transform="translate(51.3 203.28)"><tspan x="0" y="0">t mus</tspan></text>
      <text class="cls-12" transform="translate(77.75 203.28)"><tspan x="0" y="0">st</tspan></text>
      <text class="cls-16" transform="translate(86.42 203.28)"><tspan x="0" y="0" xml:space="preserve"> du t</tspan></text>
      <text class="cls-14" transform="translate(107.45 203.28)"><tspan x="0" y="0">rink</tspan></text>
      <text class="cls-16" transform="translate(125.33 203.28)"><tspan x="0" y="0">en.</tspan></text>
    </g>
  </g>
</svg>