<?xml version="1.0" encoding="UTF-8"?>
<svg xmlns="http://www.w3.org/2000/svg" xmlns:xlink="http://www.w3.org/1999/xlink" viewBox="0 0 167.24 260.79">
  <defs>
    <style>
      .cls-1, .cls-2, .cls-3, .cls-4, .cls-5, .cls-6, .cls-7, .cls-8, .cls-9, .cls-10 {
        fill: none;
      }

      .cls-11 {
        fill: #010101;
      }

      .cls-12 {
        font-size: 15px;
      }

      .cls-12, .cls-13 {
        font-family: Namaku, Namaku;
      }

      .cls-12, .cls-14 {
        fill: #f5ae36;
      }

      .cls-2, .cls-3, .cls-13, .cls-4, .cls-5, .cls-6, .cls-7, .cls-8, .cls-9, .cls-10 {
        stroke: #fff;
      }

      .cls-2, .cls-3, .cls-4, .cls-5, .cls-6, .cls-15, .cls-16, .cls-7, .cls-8, .cls-17, .cls-18, .cls-19, .cls-20, .cls-21, .cls-22, .cls-9, .cls-10 {
        font-family: QuicksandBold-Regular, Quicksand;
        font-size: 10px;
      }

      .cls-2, .cls-17 {
        letter-spacing: -.02em;
      }

      .cls-23 {
        fill: #171717;
      }

      .cls-13 {
        font-size: 12px;
        stroke-miterlimit: 10;
        stroke-width: .15px;
      }

      .cls-13, .cls-24, .cls-15, .cls-16, .cls-17, .cls-18, .cls-19, .cls-20, .cls-21, .cls-22 {
        fill: #fff;
      }

      .cls-25 {
        clip-path: url(#clippath-1);
      }

      .cls-26 {
        clip-path: url(#clippath-3);
      }

      .cls-27 {
        clip-path: url(#clippath-2);
      }

      .cls-4, .cls-15 {
        letter-spacing: -.04em;
      }

      .cls-5 {
        letter-spacing: -.02em;
      }

      .cls-6, .cls-18 {
        letter-spacing: -.02em;
      }

      .cls-16, .cls-7 {
        letter-spacing: -.04em;
      }

      .cls-8, .cls-20 {
        letter-spacing: -.08em;
      }

      .cls-28 {
        fill: #171715;
      }

      .cls-19, .cls-10 {
        letter-spacing: -.02em;
      }

      .cls-21, .cls-9 {
        letter-spacing: -.09em;
      }

      .cls-29 {
        clip-path: url(#clippath);
      }
    </style>
    <clipPath id="clippath">
      <rect class="cls-1" x="0" y="0" width="167.24" height="260.79"/>
    </clipPath>
    <clipPath id="clippath-1">
      <rect class="cls-1" x="0" y="0" width="167.24" height="260.79"/>
    </clipPath>
    <clipPath id="clippath-2">
      <rect class="cls-1" x="0" y="0" width="167.24" height="260.79"/>
    </clipPath>
    <clipPath id="clippath-3">
      <rect class="cls-1" x="0" y="0" width="167.24" height="260.79"/>
    </clipPath>
  </defs>
  <g id="Background">
    <rect class="cls-14" width="167.24" height="260.79"/>
  </g>
  <g id="Rahmen">
    <path class="cls-11" d="M151.9,23.16c9.65,0,9.67-15,0-15s-9.67,15,0,15h0Z"/>
    <path class="cls-11" d="M152.22,254.59c9.65,0,9.67-15,0-15s-9.67,15,0,15h0Z"/>
    <path class="cls-11" d="M14.14,254.72c9.65,0,9.67-15,0-15s-9.67,15,0,15h0Z"/>
    <path class="cls-23" d="M11.56,15.67c18.49.32,36.98.69,55.46,1.04,19.51.36,39.05-.42,58.56-.82,10.18-.21,20.36-.38,30.54-.21l-3.75-3.75c-1.46,11.81-1.7,23.8-1.97,35.69-.33,14.15-.39,28.31-.37,42.46.01,9.3.14,18.61.07,27.91-.06,7.86-.43,15.71-.48,23.57-.07,11.29.08,22.59.37,33.88.56,22.38,1.59,44.74,2.18,67.12.07,2.79.14,5.57.2,8.36l3.75-3.75c-15.41-.13-30.81.06-46.22.48-24.85.69-49.67.84-74.52.24-8.25-.2-16.49-.49-24.74-.73l3.75,3.75c-.56-4.87-.34-9.89-.27-14.78.11-8.38.38-16.76.66-25.14.66-20.11,1.45-40.22,1.83-60.34.16-8.4.26-16.81.05-25.21-.13-5.24-.51-10.46-.61-15.7-.33-17.03-.19-34.08-.18-51.11,0-8.91,0-17.82-.06-26.73-.04-5.94-.04-11.89-.34-17.82-.04-.72-.08-1.43-.15-2.15-.19-1.95-1.59-3.85-3.75-3.75-1.87.08-3.96,1.66-3.75,3.75.48,4.83.39,9.76.44,14.61.09,8.42.1,16.84.11,25.25,0,17.78-.1,35.55.11,53.33.06,5.22.27,10.41.52,15.62.36,7.73.31,15.47.21,23.21-.24,20.03-1.02,40.04-1.7,60.06-.3,8.95-.6,17.9-.79,26.85-.13,5.9-.3,11.84,0,17.74.04.78.09,1.55.18,2.32.24,2.06,1.53,3.69,3.75,3.75,18.27.53,36.53,1.09,54.81,1.16,23.38.09,46.73-.97,70.1-1.19,6.85-.06,13.71-.03,20.56.02,2,.02,3.79-1.73,3.75-3.75-.48-22.44-1.5-44.87-2.16-67.3-.33-11.25-.57-22.51-.6-33.77-.03-10.16.25-20.29.47-30.44.18-8.23-.03-16.48-.05-24.72-.03-13.94,0-27.88.25-41.82.23-12.54.48-25.14,1.72-37.62.11-1.1.23-2.21.37-3.31.25-2.04-1.92-3.72-3.75-3.75-19.14-.32-38.3.42-57.44.81-9.78.2-19.58.45-29.37.27-7.76-.14-15.52-.3-23.28-.45-11.49-.22-22.99-.44-34.48-.63-1.96-.03-3.84,1.75-3.75,3.75s1.65,3.71,3.75,3.75h0Z"/>
    <polygon class="cls-23" points="26.61 14.43 14.5 29.16 14.18 13.04 26.61 14.43"/>
    <polygon class="cls-23" points="140.79 14.16 152.35 27.66 154.57 11.89 140.79 14.16"/>
    <polygon class="cls-23" points="139.48 248.15 153.14 235.93 156.07 248.65 139.48 248.15"/>
    <polygon class="cls-23" points="12.9 235.54 26.24 248.54 12.31 249.36 12.9 235.54"/>
    <rect class="cls-23" width="10.32" height="260.79"/>
    <rect class="cls-23" y="249.36" width="167.24" height="11.43"/>
    <rect class="cls-28" width="167.24" height="10.33"/>
    <rect class="cls-23" x="156.12" width="11.13" height="260.79"/>
    <path class="cls-23" d="M107.87,17.19c0-.85.22-3.85,0-4.78-.58-2.49-2.21-2.81-3.8-2.81h-40.89c-1.59,0-3.22.32-3.8,2.81-.22.93,0,3.93,0,4.78l-.17,5.71c-.35,5.31,5.43,4.59,7.62,4.59l12.59.37,4.21-.07h0l4.21.07,12.59-.37c2.19,0,7.96.72,7.62-4.59l-.17-5.71Z"/>
    <path class="cls-11" d="M151.9,23.16c9.65,0,9.67-15,0-15s-9.67,15,0,15h0Z"/>
    <path class="cls-11" d="M152.22,254.59c9.65,0,9.67-15,0-15s-9.67,15,0,15h0Z"/>
    <path class="cls-11" d="M14.14,254.72c9.65,0,9.67-15,0-15s-9.67,15,0,15h0Z"/>
    <path class="cls-23" d="M11.56,15.67c18.49.32,36.98.69,55.46,1.04,19.51.36,39.05-.42,58.56-.82,10.18-.21,20.36-.38,30.54-.21l-3.75-3.75c-1.46,11.81-1.7,23.8-1.97,35.69-.33,14.15-.39,28.31-.37,42.46.01,9.3.14,18.61.07,27.91-.06,7.86-.43,15.71-.48,23.57-.07,11.29.08,22.59.37,33.88.56,22.38,1.59,44.74,2.18,67.12.07,2.79.14,5.57.2,8.36l3.75-3.75c-15.41-.13-30.81.06-46.22.48-24.85.69-49.67.84-74.52.24-8.25-.2-16.49-.49-24.74-.73l3.75,3.75c-.56-4.87-.34-9.89-.27-14.78.11-8.38.38-16.76.66-25.14.66-20.11,1.45-40.22,1.83-60.34.16-8.4.26-16.81.05-25.21-.13-5.24-.51-10.46-.61-15.7-.33-17.03-.19-34.08-.18-51.11,0-8.91,0-17.82-.06-26.73-.04-5.94-.04-11.89-.34-17.82-.04-.72-.08-1.43-.15-2.15-.19-1.95-1.59-3.85-3.75-3.75-1.87.08-3.96,1.66-3.75,3.75.48,4.83.39,9.76.44,14.61.09,8.42.1,16.84.11,25.25,0,17.78-.1,35.55.11,53.33.06,5.22.27,10.41.52,15.62.36,7.73.31,15.47.21,23.21-.24,20.03-1.02,40.04-1.7,60.06-.3,8.95-.6,17.9-.79,26.85-.13,5.9-.3,11.84,0,17.74.04.78.09,1.55.18,2.32.24,2.06,1.53,3.69,3.75,3.75,18.27.53,36.53,1.09,54.81,1.16,23.38.09,46.73-.97,70.1-1.19,6.85-.06,13.71-.03,20.56.02,2,.02,3.79-1.73,3.75-3.75-.48-22.44-1.5-44.87-2.16-67.3-.33-11.25-.57-22.51-.6-33.77-.03-10.16.25-20.29.47-30.44.18-8.23-.03-16.48-.05-24.72-.03-13.94,0-27.88.25-41.82.23-12.54.48-25.14,1.72-37.62.11-1.1.23-2.21.37-3.31.25-2.04-1.92-3.72-3.75-3.75-19.14-.32-38.3.42-57.44.81-9.78.2-19.58.45-29.37.27-7.76-.14-15.52-.3-23.28-.45-11.49-.22-22.99-.44-34.48-.63-1.96-.03-3.84,1.75-3.75,3.75s1.65,3.71,3.75,3.75h0Z"/>
    <polygon class="cls-23" points="26.61 14.43 14.5 29.16 14.18 13.04 26.61 14.43"/>
    <polygon class="cls-23" points="140.79 14.16 152.35 27.66 154.57 11.89 140.79 14.16"/>
    <polygon class="cls-23" points="139.48 248.15 153.14 235.93 156.07 248.65 139.48 248.15"/>
    <polygon class="cls-23" points="12.9 235.54 26.24 248.54 12.31 249.36 12.9 235.54"/>
    <rect class="cls-23" width="10.32" height="260.79"/>
    <rect class="cls-23" y="249.36" width="167.24" height="11.43"/>
    <rect class="cls-28" width="167.24" height="10.33"/>
    <rect class="cls-23" x="156.12" width="11.13" height="260.79"/>
  </g>
  <g id="Kategorie_Name" data-name="Kategorie Name">
    <text class="cls-12" transform="translate(63.91 22.56) scale(1 1.09)"><tspan x="0" y="0">duell</tspan></text>
  </g>
  <g id="Schlücke">
    <text class="cls-13" transform="translate(4.4 252.82)"><tspan x="0" y="0">+3</tspan></text>
    <text class="cls-13" transform="translate(147.68 19.77)"><tspan x="0" y="0">+3</tspan></text>
  </g>
  <g id="Motive">
    <path class="cls-23" d="M70.94,109.81c.24-.73.84-1.28,1.59-1.47,1.56-.39,3.14-.73,4.74-.95,5.44-.72,11.36-.6,16.72.95,1.39.4,2.04,2,1.33,3.26-.6,1.06-1.06,2.2-.49,2.86.17.19.83.46,1.08.45,1.1-.02,1.56-1.89,2.05-2.71,4.19-7,12.35-10.69,20.41-8.64.1.03.21.05.32.08.99.25,1.69,1.14,1.69,2.17l.12,31.87c.05,1.41-1.82,1.66-2.91,1.87-3.18.63-6.24.37-9.24-.52-1-.3-1.15-1.65-.24-2.15,1.17-.64,2.4-1.32,2.88-2.08.56-.89,0-2-1.07-2.01-.46,0-3.63,2.23-4.44,2.66-12.6,6.63-35.31,5.23-48.45.44-2.3-.84-8.75-3.63-9.87-5.7-.56-1.04-.41-2.89-.38-4.1.38-16.39,4.79-34.37,11.24-49.36.89-2.08,2.09-5.07,3.24-6.94,1.71-2.79,3.94-1.9,6.74-2.05,3.12-.17,6.27-.45,9.38-.8,1.6-.18,3.56-.72,5.11-.76,2.12-.05,2.87,2.58,3.87,4.16.74,1.16,2.45,3.13,2.54,4.4.11,1.55-1.08,3.02-2.17,4.4-.78,1-2.24,1.15-3.21.33-.73-.61-1.45-1.23-2.2-1.77-.5-.36-1.05-.92-1.72-.84-1.21.15-1.36,1.55-.59,2.37,1.53,1.62,4.14,3.01,5.87,4.64.74.7.95,1.84.42,2.71-.26.42-.65.75-1.15.85-1.42.29-3.75-1.5-5.2-1.97-.99-.32-1.92-.31-2.87-.53-2.62-.61-5.32-2.31-7.08-4.33-.73-.84-2.01-3.72-3.4-2.16-.82.92.09,2.17.88,3.12.41.49.59,1.13.49,1.77l-.42,2.81c-.02.12-.03.24-.03.37.06,3.36,1.85,5.26,2.7,8.21,1.41,4.89.72,11.07-1.24,15.72-.31.74-1.51,2.7-1.43,3.28.14,1.11,1.38,1.53,2.22.74.9-.85,1.63-3.04,2.17-4.66ZM97.78,121.92c-1.14-1.25-2.65.8-3.66,1.4-5.17,3.07-17.03,2.89-21.96-.69-.68-.49-1.44-1.76-2.54-.84-1.64,1.37,1.55,3.44,2.61,4.01,5.57,2.95,16.91,2.99,22.52.16,1.11-.56,4.41-2.54,3.03-4.04Z"/>
  </g>
  <g id="Kateg._Symbol" data-name="Kateg. Symbol">
    <g>
      <path class="cls-24" d="M16.91,14.58l-2.12.03.79-3.25c0-.3-.37-.37-.52-.12l-3.2,5.08c-.11.17,0,.4.2.43h2.18l-.8,3.16c-.04.26.17.44.41.3.86-1.32,1.71-2.66,2.54-4,.22-.35.55-.8.73-1.16.13-.25.06-.4-.21-.46Z"/>
      <path class="cls-24" d="M16.91,13.95l-2.12.03.6.79.7-2.86c.14-.56.17-1.23-.55-1.42-.56-.14-.9.25-1.16.66l-1.76,2.8c-.43.68-.92,1.35-1.29,2.05-.32.6.05,1.3.74,1.37.18.02.36,0,.54,0h1.64l-.6-.79c-.16.63-.32,1.25-.48,1.88s-.61,1.62-.1,2.15c.25.26.62.32.95.19.41-.16.62-.67.85-1.02.48-.74.95-1.48,1.42-2.22.41-.66.86-1.3,1.25-1.98s.34-1.35-.46-1.61-1.1.96-.33,1.21l-.18-.41s-.05.08-.07.12c-.07.07-.13.21-.18.29-.11.18-.23.35-.35.53-.29.45-.57.9-.85,1.36-.59.94-1.19,1.87-1.8,2.81l.37-.29c.19.51.31.66.36.46v-.04s.02-.07.03-.09c.04-.12.06-.25.09-.37l.27-1.07.4-1.58c.1-.39-.19-.79-.6-.79h-1.86c-.07,0-.15-.01-.22,0-.02,0-.06,0-.08,0-.21.07.24.57.32.51.13-.1.24-.38.32-.52l.74-1.17,1.64-2.62c.14-.22.37-.48.46-.73s-.48-.62-.6-.36c-.06.13-.08.32-.11.46l-.67,2.74c-.09.39.19.8.6.79l2.12-.03c.8,0,.81-1.26,0-1.25Z"/>
    </g>
    <g>
      <path class="cls-24" d="M153.83,247.16l-2.12.03.79-3.25c0-.3-.37-.37-.52-.12l-3.2,5.08c-.11.17,0,.4.2.43h2.18l-.8,3.16c-.04.26.17.44.41.3.86-1.32,1.71-2.66,2.54-4,.22-.35.55-.8.73-1.16.13-.25.06-.4-.21-.46Z"/>
      <path class="cls-24" d="M153.83,246.54l-2.12.03.6.79.7-2.86c.14-.56.17-1.23-.55-1.42-.56-.14-.9.25-1.16.66l-1.76,2.8c-.43.68-.92,1.35-1.29,2.05-.32.6.05,1.3.74,1.37.18.02.36,0,.54,0h1.64l-.6-.79c-.16.63-.32,1.25-.48,1.88s-.61,1.62-.1,2.15c.25.26.62.32.95.19.41-.16.62-.67.85-1.02.48-.74.95-1.48,1.42-2.22.41-.66.86-1.3,1.25-1.98s.34-1.35-.46-1.61-1.1.96-.33,1.21l-.18-.41s-.05.08-.07.12c-.07.07-.13.21-.18.29-.11.18-.23.35-.35.53-.29.45-.57.9-.85,1.36-.59.94-1.19,1.87-1.8,2.81l.37-.29c.19.51.31.66.36.46v-.04s.02-.07.03-.09c.04-.12.06-.25.09-.37l.27-1.07c.13-.53.27-1.05.4-1.58.1-.39-.19-.79-.6-.79h-1.86c-.07,0-.15-.01-.22,0-.02,0-.06,0-.08,0-.21.07.24.57.32.51.13-.1.24-.38.32-.52l.74-1.17,1.64-2.62c.14-.22.37-.48.46-.73s-.48-.62-.6-.36c-.06.13-.08.32-.11.46l-.67,2.74c-.09.39.19.8.6.79l2.12-.03c.8,0,.81-1.26,0-1.25Z"/>
    </g>
  </g>
  <g id="Text_Karte" data-name="Text Karte">
    <g>
      <g class="cls-29">
        <text class="cls-10" transform="translate(34.96 179.29)"><tspan x="0" y="0">Lieges</tspan></text>
        <text class="cls-10" transform="translate(66.05 179.29)"><tspan x="0" y="0">tütz</tspan></text>
        <text class="cls-10" transform="translate(84.77 179.29)"><tspan x="0" y="0">e: </tspan></text>
        <text class="cls-9" transform="translate(95.66 179.29)"><tspan x="0" y="0">Fo</tspan></text>
        <text class="cls-4" transform="translate(106.63 179.29)"><tspan x="0" y="0">rder</tspan></text>
        <text class="cls-3" transform="translate(126.19 179.29)"><tspan x="0" y="0">e </tspan></text>
      </g>
      <text class="cls-19" transform="translate(34.96 179.29)"><tspan x="0" y="0">Lieges</tspan></text>
      <text class="cls-19" transform="translate(66.05 179.29)"><tspan x="0" y="0">tütz</tspan></text>
      <text class="cls-19" transform="translate(84.77 179.29)"><tspan x="0" y="0">e: </tspan></text>
      <text class="cls-21" transform="translate(95.66 179.29)"><tspan x="0" y="0">Fo</tspan></text>
      <text class="cls-15" transform="translate(106.63 179.29)"><tspan x="0" y="0">rder</tspan></text>
      <text class="cls-22" transform="translate(126.19 179.29)"><tspan x="0" y="0">e </tspan></text>
      <g class="cls-25">
        <text class="cls-6" transform="translate(29.97 191.28)"><tspan x="0" y="0">jema</tspan></text>
        <text class="cls-7" transform="translate(53.34 191.28)"><tspan x="0" y="0">nd</tspan></text>
        <text class="cls-6" transform="translate(65.33 191.28)"><tspan x="0" y="0">en he</tspan></text>
        <text class="cls-3" transform="translate(91.55 191.28)"><tspan x="0" y="0">r</tspan></text>
        <text class="cls-2" transform="translate(95.5 191.28)"><tspan x="0" y="0">aus. </tspan></text>
        <text class="cls-8" transform="translate(117.04 191.28)"><tspan x="0" y="0">We</tspan></text>
        <text class="cls-3" transform="translate(132.88 191.28)"><tspan x="0" y="0">r </tspan></text>
      </g>
      <text class="cls-18" transform="translate(29.97 191.28)"><tspan x="0" y="0">jema</tspan></text>
      <text class="cls-16" transform="translate(53.34 191.28)"><tspan x="0" y="0">nd</tspan></text>
      <text class="cls-18" transform="translate(65.33 191.28)"><tspan x="0" y="0">en he</tspan></text>
      <text class="cls-22" transform="translate(91.55 191.28)"><tspan x="0" y="0">r</tspan></text>
      <text class="cls-17" transform="translate(95.5 191.28)"><tspan x="0" y="0">aus. </tspan></text>
      <text class="cls-20" transform="translate(117.04 191.28)"><tspan x="0" y="0">We</tspan></text>
      <text class="cls-22" transform="translate(132.88 191.28)"><tspan x="0" y="0">r </tspan></text>
      <g class="cls-27">
        <text class="cls-3" transform="translate(31.53 203.28)"><tspan x="0" y="0">w</tspan></text>
        <text class="cls-6" transform="translate(39.34 203.28)"><tspan x="0" y="0">enige</tspan></text>
        <text class="cls-10" transform="translate(65.85 203.28)"><tspan x="0" y="0">r sch</tspan></text>
        <text class="cls-5" transform="translate(89.4 203.28)"><tspan x="0" y="0">afft, muss</tspan></text>
        <text class="cls-3" transform="translate(135.71 203.28)"><tspan x="0" y="0"> </tspan></text>
      </g>
      <text class="cls-22" transform="translate(31.53 203.28)"><tspan x="0" y="0">w</tspan></text>
      <text class="cls-18" transform="translate(39.34 203.28)"><tspan x="0" y="0">enige</tspan></text>
      <text class="cls-19" transform="translate(65.85 203.28)"><tspan x="0" y="0">r sch</tspan></text>
      <text class="cls-17" transform="translate(89.4 203.28)"><tspan x="0" y="0">afft, mus</tspan></text>
      <text class="cls-22" transform="translate(130.79 203.28)"><tspan x="0" y="0">s </tspan></text>
      <g class="cls-26">
        <text class="cls-3" transform="translate(66.08 215.28)"><tspan x="0" y="0">t</tspan></text>
        <text class="cls-10" transform="translate(69.17 215.28)"><tspan x="0" y="0">rink</tspan></text>
        <text class="cls-10" transform="translate(87.05 215.28)"><tspan x="0" y="0">en.</tspan></text>
      </g>
      <text class="cls-22" transform="translate(66.08 215.28)"><tspan x="0" y="0">t</tspan></text>
      <text class="cls-19" transform="translate(69.17 215.28)"><tspan x="0" y="0">rink</tspan></text>
      <text class="cls-19" transform="translate(87.05 215.28)"><tspan x="0" y="0">en.</tspan></text>
    </g>
  </g>
</svg>