<?xml version="1.0" encoding="UTF-8"?>
<svg xmlns="http://www.w3.org/2000/svg" xmlns:xlink="http://www.w3.org/1999/xlink" viewBox="0 0 167.24 260.79">
  <defs>
    <style>
      .cls-1, .cls-2, .cls-3, .cls-4, .cls-5, .cls-6, .cls-7 {
        fill: none;
      }

      .cls-8 {
        fill: #010101;
      }

      .cls-9 {
        font-size: 15px;
      }

      .cls-9, .cls-10 {
        font-family: Namaku, Namaku;
      }

      .cls-9, .cls-11 {
        fill: #f5ae36;
      }

      .cls-2, .cls-3, .cls-10, .cls-4, .cls-5, .cls-6, .cls-7 {
        stroke: #fff;
      }

      .cls-2, .cls-3, .cls-4, .cls-12, .cls-5, .cls-13, .cls-14, .cls-15, .cls-16, .cls-6, .cls-17, .cls-7 {
        font-family: QuicksandBold-Regular, Quicksand;
        font-size: 10px;
      }

      .cls-2, .cls-13 {
        letter-spacing: -.02em;
      }

      .cls-18 {
        fill: #171717;
      }

      .cls-10 {
        font-size: 12px;
        stroke-miterlimit: 10;
        stroke-width: .15px;
      }

      .cls-10, .cls-19, .cls-12, .cls-13, .cls-14, .cls-15, .cls-16, .cls-17 {
        fill: #fff;
      }

      .cls-20 {
        clip-path: url(#clippath-1);
      }

      .cls-21 {
        clip-path: url(#clippath-2);
      }

      .cls-4, .cls-14 {
        letter-spacing: -.02em;
      }

      .cls-12, .cls-6 {
        letter-spacing: -.04em;
      }

      .cls-5, .cls-16 {
        letter-spacing: -.08em;
      }

      .cls-22 {
        fill: #171715;
      }

      .cls-15, .cls-7 {
        letter-spacing: -.02em;
      }

      .cls-23 {
        clip-path: url(#clippath);
      }
    </style>
    <clipPath id="clippath">
      <rect class="cls-1" x="0" y="0" width="167.24" height="260.79"/>
    </clipPath>
    <clipPath id="clippath-1">
      <rect class="cls-1" x="0" y="0" width="167.24" height="260.79"/>
    </clipPath>
    <clipPath id="clippath-2">
      <rect class="cls-1" x="0" y="0" width="167.24" height="260.79"/>
    </clipPath>
  </defs>
  <g id="Background">
    <rect class="cls-11" width="167.24" height="260.79"/>
  </g>
  <g id="Rahmen">
    <path class="cls-8" d="M151.9,23.16c9.65,0,9.67-15,0-15s-9.67,15,0,15h0Z"/>
    <path class="cls-8" d="M152.22,254.59c9.65,0,9.67-15,0-15s-9.67,15,0,15h0Z"/>
    <path class="cls-8" d="M14.14,254.72c9.65,0,9.67-15,0-15s-9.67,15,0,15h0Z"/>
    <path class="cls-18" d="M11.56,15.67c18.49.32,36.98.69,55.46,1.04,19.51.36,39.05-.42,58.56-.82,10.18-.21,20.36-.38,30.54-.21l-3.75-3.75c-1.46,11.81-1.7,23.8-1.97,35.69-.33,14.15-.39,28.31-.37,42.46.01,9.3.14,18.61.07,27.91-.06,7.86-.43,15.71-.48,23.57-.07,11.29.08,22.59.37,33.88.56,22.38,1.59,44.74,2.18,67.12.07,2.79.14,5.57.2,8.36l3.75-3.75c-15.41-.13-30.81.06-46.22.48-24.85.69-49.67.84-74.52.24-8.25-.2-16.49-.49-24.74-.73l3.75,3.75c-.56-4.87-.34-9.89-.27-14.78.11-8.38.38-16.76.66-25.14.66-20.11,1.45-40.22,1.83-60.34.16-8.4.26-16.81.05-25.21-.13-5.24-.51-10.46-.61-15.7-.33-17.03-.19-34.08-.18-51.11,0-8.91,0-17.82-.06-26.73-.04-5.94-.04-11.89-.34-17.82-.04-.72-.08-1.43-.15-2.15-.19-1.95-1.59-3.85-3.75-3.75-1.87.08-3.96,1.66-3.75,3.75.48,4.83.39,9.76.44,14.61.09,8.42.1,16.84.11,25.25,0,17.78-.1,35.55.11,53.33.06,5.22.27,10.41.52,15.62.36,7.73.31,15.47.21,23.21-.24,20.03-1.02,40.04-1.7,60.06-.3,8.95-.6,17.9-.79,26.85-.13,5.9-.3,11.84,0,17.74.04.78.09,1.55.18,2.32.24,2.06,1.53,3.69,3.75,3.75,18.27.53,36.53,1.09,54.81,1.16,23.38.09,46.73-.97,70.1-1.19,6.85-.06,13.71-.03,20.56.02,2,.02,3.79-1.73,3.75-3.75-.48-22.44-1.5-44.87-2.16-67.3-.33-11.25-.57-22.51-.6-33.77-.03-10.16.25-20.29.47-30.44.18-8.23-.03-16.48-.05-24.72-.03-13.94,0-27.88.25-41.82.23-12.54.48-25.14,1.72-37.62.11-1.1.23-2.21.37-3.31.25-2.04-1.92-3.72-3.75-3.75-19.14-.32-38.3.42-57.44.81-9.78.2-19.58.45-29.37.27-7.76-.14-15.52-.3-23.28-.45-11.49-.22-22.99-.44-34.48-.63-1.96-.03-3.84,1.75-3.75,3.75s1.65,3.71,3.75,3.75h0Z"/>
    <polygon class="cls-18" points="26.61 14.43 14.5 29.16 14.18 13.04 26.61 14.43"/>
    <polygon class="cls-18" points="140.79 14.16 152.35 27.66 154.57 11.89 140.79 14.16"/>
    <polygon class="cls-18" points="139.48 248.15 153.14 235.93 156.07 248.65 139.48 248.15"/>
    <polygon class="cls-18" points="12.9 235.54 26.24 248.54 12.31 249.36 12.9 235.54"/>
    <rect class="cls-18" width="10.32" height="260.79"/>
    <rect class="cls-18" y="249.36" width="167.24" height="11.43"/>
    <rect class="cls-22" width="167.24" height="10.33"/>
    <rect class="cls-18" x="156.12" width="11.13" height="260.79"/>
    <path class="cls-18" d="M107.87,17.19c0-.85.22-3.85,0-4.78-.58-2.49-2.21-2.81-3.8-2.81h-40.89c-1.59,0-3.22.32-3.8,2.81-.22.93,0,3.93,0,4.78l-.17,5.71c-.35,5.31,5.43,4.59,7.62,4.59l12.59.37,4.21-.07h0l4.21.07,12.59-.37c2.19,0,7.96.72,7.62-4.59l-.17-5.71Z"/>
    <path class="cls-8" d="M151.9,23.16c9.65,0,9.67-15,0-15s-9.67,15,0,15h0Z"/>
    <path class="cls-8" d="M152.22,254.59c9.65,0,9.67-15,0-15s-9.67,15,0,15h0Z"/>
    <path class="cls-8" d="M14.14,254.72c9.65,0,9.67-15,0-15s-9.67,15,0,15h0Z"/>
    <path class="cls-18" d="M11.56,15.67c18.49.32,36.98.69,55.46,1.04,19.51.36,39.05-.42,58.56-.82,10.18-.21,20.36-.38,30.54-.21l-3.75-3.75c-1.46,11.81-1.7,23.8-1.97,35.69-.33,14.15-.39,28.31-.37,42.46.01,9.3.14,18.61.07,27.91-.06,7.86-.43,15.71-.48,23.57-.07,11.29.08,22.59.37,33.88.56,22.38,1.59,44.74,2.18,67.12.07,2.79.14,5.57.2,8.36l3.75-3.75c-15.41-.13-30.81.06-46.22.48-24.85.69-49.67.84-74.52.24-8.25-.2-16.49-.49-24.74-.73l3.75,3.75c-.56-4.87-.34-9.89-.27-14.78.11-8.38.38-16.76.66-25.14.66-20.11,1.45-40.22,1.83-60.34.16-8.4.26-16.81.05-25.21-.13-5.24-.51-10.46-.61-15.7-.33-17.03-.19-34.08-.18-51.11,0-8.91,0-17.82-.06-26.73-.04-5.94-.04-11.89-.34-17.82-.04-.72-.08-1.43-.15-2.15-.19-1.95-1.59-3.85-3.75-3.75-1.87.08-3.96,1.66-3.75,3.75.48,4.83.39,9.76.44,14.61.09,8.42.1,16.84.11,25.25,0,17.78-.1,35.55.11,53.33.06,5.22.27,10.41.52,15.62.36,7.73.31,15.47.21,23.21-.24,20.03-1.02,40.04-1.7,60.06-.3,8.95-.6,17.9-.79,26.85-.13,5.9-.3,11.84,0,17.74.04.78.09,1.55.18,2.32.24,2.06,1.53,3.69,3.75,3.75,18.27.53,36.53,1.09,54.81,1.16,23.38.09,46.73-.97,70.1-1.19,6.85-.06,13.71-.03,20.56.02,2,.02,3.79-1.73,3.75-3.75-.48-22.44-1.5-44.87-2.16-67.3-.33-11.25-.57-22.51-.6-33.77-.03-10.16.25-20.29.47-30.44.18-8.23-.03-16.48-.05-24.72-.03-13.94,0-27.88.25-41.82.23-12.54.48-25.14,1.72-37.62.11-1.1.23-2.21.37-3.31.25-2.04-1.92-3.72-3.75-3.75-19.14-.32-38.3.42-57.44.81-9.78.2-19.58.45-29.37.27-7.76-.14-15.52-.3-23.28-.45-11.49-.22-22.99-.44-34.48-.63-1.96-.03-3.84,1.75-3.75,3.75s1.65,3.71,3.75,3.75h0Z"/>
    <polygon class="cls-18" points="26.61 14.43 14.5 29.16 14.18 13.04 26.61 14.43"/>
    <polygon class="cls-18" points="140.79 14.16 152.35 27.66 154.57 11.89 140.79 14.16"/>
    <polygon class="cls-18" points="139.48 248.15 153.14 235.93 156.07 248.65 139.48 248.15"/>
    <polygon class="cls-18" points="12.9 235.54 26.24 248.54 12.31 249.36 12.9 235.54"/>
    <rect class="cls-18" width="10.32" height="260.79"/>
    <rect class="cls-18" y="249.36" width="167.24" height="11.43"/>
    <rect class="cls-22" width="167.24" height="10.33"/>
    <rect class="cls-18" x="156.12" width="11.13" height="260.79"/>
  </g>
  <g id="Kategorie_Name" data-name="Kategorie Name">
    <text class="cls-9" transform="translate(63.91 22.56) scale(1 1.09)"><tspan x="0" y="0">duell</tspan></text>
  </g>
  <g id="Schlücke">
    <text class="cls-10" transform="translate(4.4 252.82)"><tspan x="0" y="0">+3</tspan></text>
    <text class="cls-10" transform="translate(147.68 19.77)"><tspan x="0" y="0">+3</tspan></text>
  </g>
  <g id="Motive">
    <g>
      <path class="cls-18" d="M115.66,78.57l.47-.21c.14-.06.31-.05.44.04l.7.46c.46.66-.45,1.11-.41,1.59.12,1.55,2.28,2.28,2.04,4.21-.09.71-1.05,2.32-1.44,3.07-1.63,3.18-3.75,6.31-5.47,9.47-.04.07-.09.13-.16.17-.9.56-1.73.81-2.81.49-.71-.21-3.46-2.48-5.49-4.06-.43-.33-.98.21-.65.65l4.21,5.57s.04.05.07.07c.69.6,1.42,1.12,2.32,1.2.24.02.44.22.44.46v3.6c0,.23-.17.42-.4.46-3.72.57-7.45.91-11.2.9-1.19,0-2.14-.98-2.14-2.16v-16.27c0-1.1,1.87-3.01,2.98-3.3,1.25-.33,5.92-.29,7.26-.07,2.7.45,2.79,1.89,1.13,3.59-.11.12-.28.16-.44.12h0c-.5-.13-.8.54-.37.83l2.02,1.37c.22.15.52.08.66-.15l3.65-6.14c.07-.13.09-.28.03-.41l-.68-1.66c-.07-.17-.23-.28-.42-.29l-.71-.02c-.25,0-.45-.21-.45-.46v-1.19c0-.25.2-.46.45-.46l.7-.02c.16,0,.31-.09.39-.24.1-.19.25-.4.25-.47v-4.59c0-.14.06-.27.17-.36.57-.47,1.52-.45,2.06,0,.11.09.17.22.17.36v3.44c0,.33.34.56.65.42Z"/>
      <path class="cls-18" d="M54.61,79.3c.02.11.15.29.25.46.08.15.23.24.4.25l.7.02c.25,0,.45.22.45.47v1.18c0,.25-.2.46-.46.47l-.7.02c-.19,0-.35.12-.42.29l-.68,1.65c-.06.14-.04.29.03.42l3.65,6.13c.14.23.44.3.67.15l1.99-1.35c.43-.29.13-.97-.38-.84h0c-.17.04-.35-.01-.47-.14-.33-.37-.82-1.12-.91-1.34-.57-1.41.82-2.02,2.08-2.23,1.34-.23,6.01-.26,7.26.07,1.11.29,2.98,2.2,2.98,3.3v16.73c0,.93-.75,1.69-1.68,1.7-3.91.04-7.79-.3-11.66-.89-.23-.03-.4-.23-.4-.46v-3.59c0-.25.19-.44.44-.47.9-.08,1.63-.6,2.32-1.2.03-.02.05-.05.07-.07l4.19-5.54c.33-.44-.23-.99-.66-.65-2.03,1.57-4.76,3.82-5.46,4.03-1.08.32-1.9.07-2.81-.49-.07-.04-.12-.1-.16-.17-1.72-3.16-3.83-6.29-5.47-9.46-.38-.75-1.35-2.36-1.44-3.07-.24-1.93,1.92-2.66,2.04-4.21.04-.53-1.37-1.57.33-2.13.11-.04.22-.03.33.02l.54.23c.31.14.66-.09.66-.43v-3.48c0-.11.03-.22.1-.3.51-.54,2.29-.34,2.29.16.17,1.47-.24,3.39,0,4.78Z"/>
      <path class="cls-18" d="M62.09,108.89c.82.1,1.47.77,1.53,1.6.03.39.04.77-.04,1.04-.07.24-.69.39-.97.88-1.46,2.58-3.43,6.57-4.43,9.33-1.88,5.23-2.88,12.89-5.1,17.62-1.63,3.47-6.79,2.16-6.55-1.81,0-.14.04-.29.09-.42,2.23-6.38,3.35-13.63,5.93-19.81,1.11-2.65,2.76-5.2,3.95-7.88.31-.69,1.03-1.09,1.78-1l3.81.45Z"/>
      <path class="cls-18" d="M103.72,111.68c-.13-.22-.14-.66-.11-1.12.05-.86.71-1.55,1.57-1.63l3.91-.37c.75-.07,1.46.36,1.75,1.05,1.4,3.26,3.41,6.28,4.61,9.61,2.03,5.65,3.1,12.02,5.13,17.73.03.08.05.16.07.24.73,3.82-4.38,5.77-6.31,2.53-.07-.11-.11-.23-.15-.35-2.87-9.26-4.74-18.45-9.57-26.97-.29-.5-.82-.61-.89-.74Z"/>
      <path class="cls-18" d="M70.48,70.46c6.21-1.28,5.76,4.49.01,4.84.12,8.91-12.36,9.09-12.04,0-1.6-.63-4.16-.43-4.44-2.61-.35-2.72,2.52-2.76,4.47-2.22l1.69-5.65c1.96.29,3.57.73,5.61.54.9-.08,2.06-.84,2.87-.43.95.48,1.3,4.44,1.82,5.52Z"/>
      <path class="cls-18" d="M108.74,70.48c.27.23,3.7-1.28,4.42,1.12.86,2.85-2.51,3.2-4.39,3.71.33,9.07-12.15,8.92-12.04,0-5.76-.36-6.19-6.12.01-4.84.6-1.18.74-5.51,2.27-5.66.68-.07,2.01.54,2.97.61,1.93.13,3.42-.55,5.26-.48l1.49,5.55Z"/>
      <path class="cls-18" d="M63.58,119.67c.33,1.63,2.48,2.93,4.16,2.87.18,0,.34.12.38.31l2.65,15.03s0,.05,0,.07c.07,3.83-5.17,4.72-6.52,1.08-.79-2.13-3.27-14.03-3.26-16.12,0-1.48,1.29-5.38,1.77-7.04.04-.14.08-.31.13-.51.1-.44.75-.35.73.1-.06,1.45-.28,3.07-.05,4.21Z"/>
      <path class="cls-18" d="M103.65,115.59c0-.44.62-.51.72-.08.03.13.06.25.09.35.48,1.66,1.76,5.56,1.77,7.04.01,2.09-2.47,13.99-3.26,16.12-1.15,3.11-5.19,3.07-6.41.09-.02-.05-.03-.1-.03-.15-.01-5.4,2.14-10.67,2.6-16.05.02-.19.18-.35.37-.34,1.54.11,4.14-1.61,4.14-2.9v-4.07Z"/>
      <path class="cls-18" d="M71.25,111.55c-.85,2.78-2.63,7.28-2.93,8.22-.77.35-2.34-.1-2.34-.99v-8.97l.45-.45h3.2c1.14,0,1.96,1.1,1.63,2.19Z"/>
      <path class="cls-18" d="M101.26,118.77c-.18.88-1.06,1.18-1.88,1.09-.27-.03-.5-.21-.58-.46-.89-2.6-2.09-5.25-2.78-7.92-.28-1.07.54-2.12,1.65-2.12h2.87c.18,0,.36.07.48.2h.01c.15.16.22.37.2.58-.26,2.59.52,6.34.04,8.64Z"/>
    </g>
  </g>
  <g id="Kateg._Symbol" data-name="Kateg. Symbol">
    <g>
      <path class="cls-19" d="M16.91,14.58l-2.12.03.79-3.25c0-.3-.37-.37-.52-.12l-3.2,5.08c-.11.17,0,.4.2.43h2.18l-.8,3.16c-.04.26.17.44.41.3.86-1.32,1.71-2.66,2.54-4,.22-.35.55-.8.73-1.16.13-.25.06-.4-.21-.46Z"/>
      <path class="cls-19" d="M16.91,13.95l-2.12.03.6.79.7-2.86c.14-.56.17-1.23-.55-1.42-.56-.14-.9.25-1.16.66l-1.76,2.8c-.43.68-.92,1.35-1.29,2.05-.32.6.05,1.3.74,1.37.18.02.36,0,.54,0h1.64l-.6-.79c-.16.63-.32,1.25-.48,1.88s-.61,1.62-.1,2.15c.25.26.62.32.95.19.41-.16.62-.67.85-1.02.48-.74.95-1.48,1.42-2.22.41-.66.86-1.3,1.25-1.98s.34-1.35-.46-1.61-1.1.96-.33,1.21l-.18-.41s-.05.08-.07.12c-.07.07-.13.21-.18.29-.11.18-.23.35-.35.53-.29.45-.57.9-.85,1.36-.59.94-1.19,1.87-1.8,2.81l.37-.29c.19.51.31.66.36.46v-.04s.02-.07.03-.09c.04-.12.06-.25.09-.37l.27-1.07.4-1.58c.1-.39-.19-.79-.6-.79h-1.86c-.07,0-.15-.01-.22,0-.02,0-.06,0-.08,0-.21.07.24.57.32.51.13-.1.24-.38.32-.52l.74-1.17,1.64-2.62c.14-.22.37-.48.46-.73s-.48-.62-.6-.36c-.06.13-.08.32-.11.46l-.67,2.74c-.09.39.19.8.6.79l2.12-.03c.8,0,.81-1.26,0-1.25Z"/>
    </g>
    <g>
      <path class="cls-19" d="M153.83,247.16l-2.12.03.79-3.25c0-.3-.37-.37-.52-.12l-3.2,5.08c-.11.17,0,.4.2.43h2.18l-.8,3.16c-.04.26.17.44.41.3.86-1.32,1.71-2.66,2.54-4,.22-.35.55-.8.73-1.16.13-.25.06-.4-.21-.46Z"/>
      <path class="cls-19" d="M153.83,246.54l-2.12.03.6.79.7-2.86c.14-.56.17-1.23-.55-1.42-.56-.14-.9.25-1.16.66l-1.76,2.8c-.43.68-.92,1.35-1.29,2.05-.32.6.05,1.3.74,1.37.18.02.36,0,.54,0h1.64l-.6-.79c-.16.63-.32,1.25-.48,1.88s-.61,1.62-.1,2.15c.25.26.62.32.95.19.41-.16.62-.67.85-1.02.48-.74.95-1.48,1.42-2.22.41-.66.86-1.3,1.25-1.98s.34-1.35-.46-1.61-1.1.96-.33,1.21l-.18-.41s-.05.08-.07.12c-.07.07-.13.21-.18.29-.11.18-.23.35-.35.53-.29.45-.57.9-.85,1.36-.59.94-1.19,1.87-1.8,2.81l.37-.29c.19.51.31.66.36.46v-.04s.02-.07.03-.09c.04-.12.06-.25.09-.37l.27-1.07c.13-.53.27-1.05.4-1.58.1-.39-.19-.79-.6-.79h-1.86c-.07,0-.15-.01-.22,0-.02,0-.06,0-.08,0-.21.07.24.57.32.51.13-.1.24-.38.32-.52l.74-1.17,1.64-2.62c.14-.22.37-.48.46-.73s-.48-.62-.6-.36c-.06.13-.08.32-.11.46l-.67,2.74c-.09.39.19.8.6.79l2.12-.03c.8,0,.81-1.26,0-1.25Z"/>
    </g>
  </g>
  <g id="Text_Karte" data-name="Text Karte">
    <g>
      <g class="cls-23">
        <text class="cls-7" transform="translate(32.65 179.29)"><tspan x="0" y="0">Blick</tspan></text>
        <text class="cls-7" transform="translate(53.95 179.29)"><tspan x="0" y="0">duell: </tspan></text>
        <text class="cls-5" transform="translate(81.75 179.29)"><tspan x="0" y="0">We</tspan></text>
        <text class="cls-2" transform="translate(97.59 179.29)"><tspan x="0" y="0">r zue</tspan></text>
        <text class="cls-2" transform="translate(121.54 179.29)"><tspan x="0" y="0">rs</tspan></text>
        <text class="cls-3" transform="translate(130.59 179.29)"><tspan x="0" y="0">t </tspan></text>
      </g>
      <text class="cls-15" transform="translate(32.65 179.29)"><tspan x="0" y="0">Blick</tspan></text>
      <text class="cls-15" transform="translate(53.95 179.29)"><tspan x="0" y="0">duell: </tspan></text>
      <text class="cls-16" transform="translate(81.75 179.29)"><tspan x="0" y="0">We</tspan></text>
      <text class="cls-13" transform="translate(97.59 179.29)"><tspan x="0" y="0">r zue</tspan></text>
      <text class="cls-13" transform="translate(121.54 179.29)"><tspan x="0" y="0">rs</tspan></text>
      <text class="cls-17" transform="translate(130.59 179.29)"><tspan x="0" y="0">t </tspan></text>
      <g class="cls-20">
        <text class="cls-4" transform="translate(25.94 191.28)"><tspan x="0" y="0">lacht od</tspan></text>
        <text class="cls-6" transform="translate(64.55 191.28)"><tspan x="0" y="0">er</tspan></text>
        <text class="cls-7" transform="translate(74.43 191.28)"><tspan x="0" y="0" xml:space="preserve"> blinz</tspan></text>
        <text class="cls-7" transform="translate(99.65 191.28)"><tspan x="0" y="0">elt, mus</tspan></text>
        <text class="cls-3" transform="translate(136.39 191.28)"><tspan x="0" y="0">s </tspan></text>
      </g>
      <text class="cls-14" transform="translate(25.94 191.28)"><tspan x="0" y="0">lacht od</tspan></text>
      <text class="cls-12" transform="translate(64.55 191.28)"><tspan x="0" y="0">er</tspan></text>
      <text class="cls-15" transform="translate(74.43 191.28)"><tspan x="0" y="0" xml:space="preserve"> blinz</tspan></text>
      <text class="cls-15" transform="translate(99.65 191.28)"><tspan x="0" y="0">elt, mus</tspan></text>
      <text class="cls-17" transform="translate(136.39 191.28)"><tspan x="0" y="0">s </tspan></text>
      <g class="cls-21">
        <text class="cls-3" transform="translate(66.08 203.28)"><tspan x="0" y="0">t</tspan></text>
        <text class="cls-7" transform="translate(69.17 203.28)"><tspan x="0" y="0">rink</tspan></text>
        <text class="cls-7" transform="translate(87.05 203.28)"><tspan x="0" y="0">en.</tspan></text>
      </g>
      <text class="cls-17" transform="translate(66.08 203.28)"><tspan x="0" y="0">t</tspan></text>
      <text class="cls-15" transform="translate(69.17 203.28)"><tspan x="0" y="0">rink</tspan></text>
      <text class="cls-15" transform="translate(87.05 203.28)"><tspan x="0" y="0">en.</tspan></text>
    </g>
  </g>
</svg>