<?xml version="1.0" encoding="UTF-8"?>
<svg xmlns="http://www.w3.org/2000/svg" xmlns:xlink="http://www.w3.org/1999/xlink" viewBox="0 0 167.24 260.79">
  <defs>
    <style>
      .cls-1, .cls-2, .cls-3, .cls-4, .cls-5, .cls-6 {
        fill: none;
      }

      .cls-7 {
        fill: #010101;
      }

      .cls-8 {
        font-size: 15px;
      }

      .cls-8, .cls-9 {
        font-family: Namaku, Namaku;
      }

      .cls-8, .cls-10 {
        fill: #f5ae36;
      }

      .cls-2, .cls-3, .cls-4, .cls-9, .cls-5, .cls-6 {
        stroke: #fff;
      }

      .cls-2, .cls-3, .cls-4, .cls-11, .cls-5, .cls-12, .cls-13, .cls-14, .cls-15, .cls-6 {
        font-family: QuicksandBold-Regular, Quicksand;
        font-size: 10px;
      }

      .cls-2, .cls-11 {
        letter-spacing: 0em;
      }

      .cls-3, .cls-12 {
        letter-spacing: -.02em;
      }

      .cls-16 {
        fill: #171717;
      }

      .cls-9 {
        font-size: 12px;
        stroke-miterlimit: 10;
        stroke-width: .15px;
      }

      .cls-9, .cls-17, .cls-11, .cls-12, .cls-13, .cls-14, .cls-15 {
        fill: #fff;
      }

      .cls-18 {
        clip-path: url(#clippath-1);
      }

      .cls-19 {
        clip-path: url(#clippath-3);
      }

      .cls-20 {
        clip-path: url(#clippath-2);
      }

      .cls-5, .cls-13 {
        letter-spacing: -.02em;
      }

      .cls-21 {
        fill: #171715;
      }

      .cls-14, .cls-6 {
        letter-spacing: -.02em;
      }

      .cls-22 {
        clip-path: url(#clippath);
      }
    </style>
    <clipPath id="clippath">
      <rect class="cls-1" x="0" y="0" width="167.24" height="260.79"/>
    </clipPath>
    <clipPath id="clippath-1">
      <rect class="cls-1" x="0" y="0" width="167.24" height="260.79"/>
    </clipPath>
    <clipPath id="clippath-2">
      <rect class="cls-1" x="0" y="0" width="167.24" height="260.79"/>
    </clipPath>
    <clipPath id="clippath-3">
      <rect class="cls-1" x="0" y="0" width="167.24" height="260.79"/>
    </clipPath>
  </defs>
  <g id="Background">
    <rect class="cls-10" width="167.24" height="260.79"/>
  </g>
  <g id="Rahmen">
    <path class="cls-7" d="M151.9,23.16c9.65,0,9.67-15,0-15s-9.67,15,0,15h0Z"/>
    <path class="cls-7" d="M152.22,254.59c9.65,0,9.67-15,0-15s-9.67,15,0,15h0Z"/>
    <path class="cls-7" d="M14.14,254.72c9.65,0,9.67-15,0-15s-9.67,15,0,15h0Z"/>
    <path class="cls-16" d="M11.56,15.67c18.49.32,36.98.69,55.46,1.04,19.51.36,39.05-.42,58.56-.82,10.18-.21,20.36-.38,30.54-.21l-3.75-3.75c-1.46,11.81-1.7,23.8-1.97,35.69-.33,14.15-.39,28.31-.37,42.46.01,9.3.14,18.61.07,27.91-.06,7.86-.43,15.71-.48,23.57-.07,11.29.08,22.59.37,33.88.56,22.38,1.59,44.74,2.18,67.12.07,2.79.14,5.57.2,8.36l3.75-3.75c-15.41-.13-30.81.06-46.22.48-24.85.69-49.67.84-74.52.24-8.25-.2-16.49-.49-24.74-.73l3.75,3.75c-.56-4.87-.34-9.89-.27-14.78.11-8.38.38-16.76.66-25.14.66-20.11,1.45-40.22,1.83-60.34.16-8.4.26-16.81.05-25.21-.13-5.24-.51-10.46-.61-15.7-.33-17.03-.19-34.08-.18-51.11,0-8.91,0-17.82-.06-26.73-.04-5.94-.04-11.89-.34-17.82-.04-.72-.08-1.43-.15-2.15-.19-1.95-1.59-3.85-3.75-3.75-1.87.08-3.96,1.66-3.75,3.75.48,4.83.39,9.76.44,14.61.09,8.42.1,16.84.11,25.25,0,17.78-.1,35.55.11,53.33.06,5.22.27,10.41.52,15.62.36,7.73.31,15.47.21,23.21-.24,20.03-1.02,40.04-1.7,60.06-.3,8.95-.6,17.9-.79,26.85-.13,5.9-.3,11.84,0,17.74.04.78.09,1.55.18,2.32.24,2.06,1.53,3.69,3.75,3.75,18.27.53,36.53,1.09,54.81,1.16,23.38.09,46.73-.97,70.1-1.19,6.85-.06,13.71-.03,20.56.02,2,.02,3.79-1.73,3.75-3.75-.48-22.44-1.5-44.87-2.16-67.3-.33-11.25-.57-22.51-.6-33.77-.03-10.16.25-20.29.47-30.44.18-8.23-.03-16.48-.05-24.72-.03-13.94,0-27.88.25-41.82.23-12.54.48-25.14,1.72-37.62.11-1.1.23-2.21.37-3.31.25-2.04-1.92-3.72-3.75-3.75-19.14-.32-38.3.42-57.44.81-9.78.2-19.58.45-29.37.27-7.76-.14-15.52-.3-23.28-.45-11.49-.22-22.99-.44-34.48-.63-1.96-.03-3.84,1.75-3.75,3.75s1.65,3.71,3.75,3.75h0Z"/>
    <polygon class="cls-16" points="26.61 14.43 14.5 29.16 14.18 13.04 26.61 14.43"/>
    <polygon class="cls-16" points="140.79 14.16 152.35 27.66 154.57 11.89 140.79 14.16"/>
    <polygon class="cls-16" points="139.48 248.15 153.14 235.93 156.07 248.65 139.48 248.15"/>
    <polygon class="cls-16" points="12.9 235.54 26.24 248.54 12.31 249.36 12.9 235.54"/>
    <rect class="cls-16" width="10.32" height="260.79"/>
    <rect class="cls-16" y="249.36" width="167.24" height="11.43"/>
    <rect class="cls-21" width="167.24" height="10.33"/>
    <rect class="cls-16" x="156.12" width="11.13" height="260.79"/>
    <path class="cls-16" d="M107.87,17.19c0-.85.22-3.85,0-4.78-.58-2.49-2.21-2.81-3.8-2.81h-40.89c-1.59,0-3.22.32-3.8,2.81-.22.93,0,3.93,0,4.78l-.17,5.71c-.35,5.31,5.43,4.59,7.62,4.59l12.59.37,4.21-.07h0l4.21.07,12.59-.37c2.19,0,7.96.72,7.62-4.59l-.17-5.71Z"/>
    <path class="cls-7" d="M151.9,23.16c9.65,0,9.67-15,0-15s-9.67,15,0,15h0Z"/>
    <path class="cls-7" d="M152.22,254.59c9.65,0,9.67-15,0-15s-9.67,15,0,15h0Z"/>
    <path class="cls-7" d="M14.14,254.72c9.65,0,9.67-15,0-15s-9.67,15,0,15h0Z"/>
    <path class="cls-16" d="M11.56,15.67c18.49.32,36.98.69,55.46,1.04,19.51.36,39.05-.42,58.56-.82,10.18-.21,20.36-.38,30.54-.21l-3.75-3.75c-1.46,11.81-1.7,23.8-1.97,35.69-.33,14.15-.39,28.31-.37,42.46.01,9.3.14,18.61.07,27.91-.06,7.86-.43,15.71-.48,23.57-.07,11.29.08,22.59.37,33.88.56,22.38,1.59,44.74,2.18,67.12.07,2.79.14,5.57.2,8.36l3.75-3.75c-15.41-.13-30.81.06-46.22.48-24.85.69-49.67.84-74.52.24-8.25-.2-16.49-.49-24.74-.73l3.75,3.75c-.56-4.87-.34-9.89-.27-14.78.11-8.38.38-16.76.66-25.14.66-20.11,1.45-40.22,1.83-60.34.16-8.4.26-16.81.05-25.21-.13-5.24-.51-10.46-.61-15.7-.33-17.03-.19-34.08-.18-51.11,0-8.91,0-17.82-.06-26.73-.04-5.94-.04-11.89-.34-17.82-.04-.72-.08-1.43-.15-2.15-.19-1.95-1.59-3.85-3.75-3.75-1.87.08-3.96,1.66-3.75,3.75.48,4.83.39,9.76.44,14.61.09,8.42.1,16.84.11,25.25,0,17.78-.1,35.55.11,53.33.06,5.22.27,10.41.52,15.62.36,7.73.31,15.47.21,23.21-.24,20.03-1.02,40.04-1.7,60.06-.3,8.95-.6,17.9-.79,26.85-.13,5.9-.3,11.84,0,17.74.04.78.09,1.55.18,2.32.24,2.06,1.53,3.69,3.75,3.75,18.27.53,36.53,1.09,54.81,1.16,23.38.09,46.73-.97,70.1-1.19,6.85-.06,13.71-.03,20.56.02,2,.02,3.79-1.73,3.75-3.75-.48-22.44-1.5-44.87-2.16-67.3-.33-11.25-.57-22.51-.6-33.77-.03-10.16.25-20.29.47-30.44.18-8.23-.03-16.48-.05-24.72-.03-13.94,0-27.88.25-41.82.23-12.54.48-25.14,1.72-37.62.11-1.1.23-2.21.37-3.31.25-2.04-1.92-3.72-3.75-3.75-19.14-.32-38.3.42-57.44.81-9.78.2-19.58.45-29.37.27-7.76-.14-15.52-.3-23.28-.45-11.49-.22-22.99-.44-34.48-.63-1.96-.03-3.84,1.75-3.75,3.75s1.65,3.71,3.75,3.75h0Z"/>
    <polygon class="cls-16" points="26.61 14.43 14.5 29.16 14.18 13.04 26.61 14.43"/>
    <polygon class="cls-16" points="140.79 14.16 152.35 27.66 154.57 11.89 140.79 14.16"/>
    <polygon class="cls-16" points="139.48 248.15 153.14 235.93 156.07 248.65 139.48 248.15"/>
    <polygon class="cls-16" points="12.9 235.54 26.24 248.54 12.31 249.36 12.9 235.54"/>
    <rect class="cls-16" width="10.32" height="260.79"/>
    <rect class="cls-16" y="249.36" width="167.24" height="11.43"/>
    <rect class="cls-21" width="167.24" height="10.33"/>
    <rect class="cls-16" x="156.12" width="11.13" height="260.79"/>
  </g>
  <g id="Kategorie_Name" data-name="Kategorie Name">
    <text class="cls-8" transform="translate(63.91 22.56) scale(1 1.09)"><tspan x="0" y="0">duell</tspan></text>
  </g>
  <g id="Schlücke">
    <text class="cls-9" transform="translate(4.4 252.82)"><tspan x="0" y="0">+3</tspan></text>
    <text class="cls-9" transform="translate(147.68 19.77)"><tspan x="0" y="0">+3</tspan></text>
  </g>
  <g id="Motive">
    <g>
      <path class="cls-16" d="M78.37,66.75c-16.2-7.27-32.77,8.2-27.33,24.93.48,1.51,1.39,2.78,1.89,4.27-1.24,2.06-9.94,5.94-6.68,8.84.51.45,1.1.63,1.78.6,11.96-1.14,27.09,3.6,36.38-6.06,9.63-10.02,6.67-26.88-6.04-32.58ZM72.81,80.69c-.11,1.26-.18,2.53-.23,3.82-.02.28-.03.67-.05,1.16-.02.49-.03,1.03-.05,1.62-.02.6-.03,1.21-.04,1.86-.01.64-.01,1.24-.01,1.81s.01,1.07.02,1.52c.02.45.05.79.11,1,.01.05.03.1.06.15.02.05.02.1-.01.15-.07.14-.25.24-.55.32-.31.07-.67.12-1.09.14-.43.03-.87.03-1.34,0-.47-.02-.9-.06-1.31-.12s-.75-.13-1.01-.21c-.27-.09-.41-.18-.43-.28-.03-.33-.04-.69-.01-1.09.02-.39.03-.76.03-1.11.04-1.25.07-2.5.09-3.75.03-1.25.07-2.5.12-3.75.01-.48.02-.96.01-1.42,0-.31,0-.52,0-.83.01-.23-.39-.38-.58-.13-.15.12-.3.25-.45.38-.35.3-.71.57-1.08.8-.14.1-.31.09-.48-.05-.18-.13-.35-.32-.53-.57-.17-.25-.34-.54-.51-.85-.17-.32-.31-.62-.42-.91-.12-.3-.21-.55-.28-.75-.07-.21-.09-.33-.08-.37,0-.01.11-.1.33-.25.22-.15.48-.33.8-.56.32-.23.67-.47,1.05-.74.38-.26.75-.52,1.1-.76.35-.24.65-.45.91-.64.26-.18.43-.3.51-.35.22.04.6.06,1.16.06.55.01,1.12.02,1.71.02s1.12,0,1.6.01c.47.01.75.04.83.09.14.08.2.19.2.33v.42c.04,1.3,0,2.58-.09,3.83Z"/>
      <path class="cls-16" d="M119.2,123.24c-7.67-.45-15.94.56-23.54,0-8.27-.61-15.55-6.25-17.99-14.16-.04-.42.2-.5.49-.67.81-.46,2.32-.82,3.38-1.39,3.53-1.88,6.57-5.07,9.11-8.12.03-.04,2.78.16,3.74.16.96.01,1.89.02,2.79.02-.12.3-.32.81-.59,1.53-.27.73-.58,1.55-.91,2.48-.34.92-.66,1.9-.99,2.92-.33,1.03-.6,1.99-.84,2.88-.23.89-.38,1.66-.45,2.31-.06.65-.01,1.06.18,1.23.1.1.36.19.8.27.43.08.9.16,1.41.21.51.06.99.11,1.45.15.46.05.78.07.96.07.27,0,.5-.1.7-.3.05-.07.12-.24.2-.53.09-.28.18-.63.28-1.05.1-.41.2-.86.3-1.34.1-.47.19-.93.29-1.37.09-.44.17-.84.25-1.2.07-.36.12-.61.16-.76.33-1.35.71-2.69,1.12-4.02.42-1.32.89-2.63,1.4-3.93.05-.14.16-.39.33-.77.16-.37.32-.76.47-1.17s.25-.78.3-1.11c.05-.34-.01-.53-.17-.58-.1-.03-.31-.06-.61-.07-.31-.02-.65-.03-1.02-.04-.36-.01-.72-.02-1.06-.04-.34-.01-.6-.03-.76-.05-1.09-.1-2.16-.2-3.24-.31-1.07-.11-2.15-.25-3.21-.41-.29-.04-.56-.09-.84-.15.13-.37.24-.72.35-1.05.87-2.66,1.24-5.41,1.23-8.19,0-.87.7-1.58,1.57-1.61.91-.04,1.85-.1,2.71-.01,6.42.64,12.98,5.15,15.97,10.81,3.36,6.34,2.93,13.04-.26,19.2-.38.73-.13,1.62.55,2.08,1.95,1.3,4.57,2.82,5.78,4.19,1.57,1.77.44,3.88-1.79,3.89Z"/>
      <path class="cls-16" d="M66.78,115.19c-.27-.37-.4-.72-.39-1.07.01-.34.1-.64.29-.9.18-.25.43-.47.75-.65.31-.17.66-.28,1.02-.31.37-.03.73.01,1.09.11.36.11.67.31.94.59.35.38.49.8.42,1.25-.06.45-.27.84-.61,1.16-.34.33-.78.54-1.32.64-.55.1-1.11-.02-1.69-.37-.18-.1-.35-.25-.5-.45Z"/>
      <path class="cls-16" d="M66.2,123.15c-.06-.31-.1-.62-.1-.94.02-.63.24-1.14.67-1.52.42-.39.91-.62,1.47-.7.56-.09,1.11-.02,1.65.21.54.22.93.62,1.16,1.19.29.68.3,1.3.03,1.85-.27.55-.66.96-1.18,1.25-.51.28-1.08.39-1.71.33-.62-.05-1.15-.34-1.59-.86-.2-.23-.33-.5-.4-.81Z"/>
      <path class="cls-16" d="M88.75,127.98c-2.3,7.16-9.43,12.4-16.93,13.06-7.61.67-16-.4-23.72.02-.24.02-.48-.02-.7-.11-5.26-2.24,1.87-5.92,4.72-8.45.52-.46.66-1.23.37-1.86-.78-1.74-1.67-3.4-2.08-5.31-1.1-5.2-.05-10.09,2.38-14.65.28-.52.83-.84,1.42-.84,1.7,0,7.71-.02,10.24-.02.35.09.21.41.03.48-.56.3-1.03.67-1.4,1.09-.4.45-.71.95-.91,1.52-.21.57-.31,1.13-.29,1.7s.16,1.11.44,1.61c.14.26.31.49.52.7.33.33.36.86.02,1.18-.56.53-1.01,1.12-1.36,1.76-.48.9-.72,1.92-.72,3.05s.28,1.99.84,2.73c.55.73,1.25,1.32,2.1,1.76.84.44,1.75.75,2.75.92.69.13,1.36.2,2,.22,1.5.05,3-.3,4.33-.99.54-.28,1.06-.6,1.55-.96.59-.45,1.01-1,1.28-1.63.28-.7.47-1.45.56-2.26.09-.81.05-1.58-.14-2.31-.18-.64-.47-1.23-.87-1.78-.21-.29-.44-.54-.7-.77-.33-.29-.44-.79-.17-1.13.17-.21.3-.43.4-.67.08-.21.15-.42.21-.64.08-.27.48-.3.63-.04,2.74,4.77,7.13,8.53,12.27,10.62.77.32,1.17,1.19.91,1.99Z"/>
    </g>
  </g>
  <g id="Kateg._Symbol" data-name="Kateg. Symbol">
    <g>
      <path class="cls-17" d="M16.91,14.58l-2.12.03.79-3.25c0-.3-.37-.37-.52-.12l-3.2,5.08c-.11.17,0,.4.2.43h2.18l-.8,3.16c-.04.26.17.44.41.3.86-1.32,1.71-2.66,2.54-4,.22-.35.55-.8.73-1.16.13-.25.06-.4-.21-.46Z"/>
      <path class="cls-17" d="M16.91,13.95l-2.12.03.6.79.7-2.86c.14-.56.17-1.23-.55-1.42-.56-.14-.9.25-1.16.66l-1.76,2.8c-.43.68-.92,1.35-1.29,2.05-.32.6.05,1.3.74,1.37.18.02.36,0,.54,0h1.64l-.6-.79c-.16.63-.32,1.25-.48,1.88s-.61,1.62-.1,2.15c.25.26.62.32.95.19.41-.16.62-.67.85-1.02.48-.74.95-1.48,1.42-2.22.41-.66.86-1.3,1.25-1.98s.34-1.35-.46-1.61-1.1.96-.33,1.21l-.18-.41s-.05.08-.07.12c-.07.07-.13.21-.18.29-.11.18-.23.35-.35.53-.29.45-.57.9-.85,1.36-.59.94-1.19,1.87-1.8,2.81l.37-.29c.19.51.31.66.36.46v-.04s.02-.07.03-.09c.04-.12.06-.25.09-.37l.27-1.07.4-1.58c.1-.39-.19-.79-.6-.79h-1.86c-.07,0-.15-.01-.22,0-.02,0-.06,0-.08,0-.21.07.24.57.32.51.13-.1.24-.38.32-.52l.74-1.17,1.64-2.62c.14-.22.37-.48.46-.73s-.48-.62-.6-.36c-.06.13-.08.32-.11.46l-.67,2.74c-.09.39.19.8.6.79l2.12-.03c.8,0,.81-1.26,0-1.25Z"/>
    </g>
    <g>
      <path class="cls-17" d="M153.83,247.16l-2.12.03.79-3.25c0-.3-.37-.37-.52-.12l-3.2,5.08c-.11.17,0,.4.2.43h2.18l-.8,3.16c-.04.26.17.44.41.3.86-1.32,1.71-2.66,2.54-4,.22-.35.55-.8.73-1.16.13-.25.06-.4-.21-.46Z"/>
      <path class="cls-17" d="M153.83,246.54l-2.12.03.6.79.7-2.86c.14-.56.17-1.23-.55-1.42-.56-.14-.9.25-1.16.66l-1.76,2.8c-.43.68-.92,1.35-1.29,2.05-.32.6.05,1.3.74,1.37.18.02.36,0,.54,0h1.64l-.6-.79c-.16.63-.32,1.25-.48,1.88s-.61,1.62-.1,2.15c.25.26.62.32.95.19.41-.16.62-.67.85-1.02.48-.74.95-1.48,1.42-2.22.41-.66.86-1.3,1.25-1.98s.34-1.35-.46-1.61-1.1.96-.33,1.21l-.18-.41s-.05.08-.07.12c-.07.07-.13.21-.18.29-.11.18-.23.35-.35.53-.29.45-.57.9-.85,1.36-.59.94-1.19,1.87-1.8,2.81l.37-.29c.19.51.31.66.36.46v-.04s.02-.07.03-.09c.04-.12.06-.25.09-.37l.27-1.07.4-1.58c.1-.39-.19-.79-.6-.79h-1.86c-.07,0-.15-.01-.22,0-.02,0-.06,0-.08,0-.21.07.24.57.32.51.13-.1.24-.38.32-.52l.74-1.17,1.64-2.62c.14-.22.37-.48.46-.73s-.48-.62-.6-.36c-.06.13-.08.32-.11.46l-.67,2.74c-.09.39.19.8.6.79l2.12-.03c.8,0,.81-1.26,0-1.25Z"/>
    </g>
  </g>
  <g id="Text_Karte" data-name="Text Karte">
    <g>
      <g class="cls-22">
        <text class="cls-6" transform="translate(28.24 179.29)"><tspan x="0" y="0">Nennt gl</tspan></text>
        <text class="cls-5" transform="translate(69.24 179.29)"><tspan x="0" y="0">eichz</tspan></text>
        <text class="cls-6" transform="translate(94.37 179.29)"><tspan x="0" y="0">eitig eine</tspan></text>
        <text class="cls-4" transform="translate(139 179.29)"><tspan x="0" y="0"> </tspan></text>
      </g>
      <text class="cls-14" transform="translate(28.24 179.29)"><tspan x="0" y="0">Nennt gl</tspan></text>
      <text class="cls-13" transform="translate(69.24 179.29)"><tspan x="0" y="0">eichz</tspan></text>
      <text class="cls-14" transform="translate(94.37 179.29)"><tspan x="0" y="0">eitig eine</tspan></text>
      <text class="cls-15" transform="translate(139 179.29)"><tspan x="0" y="0"> </tspan></text>
      <g class="cls-18">
        <text class="cls-6" transform="translate(29.16 191.28)"><tspan x="0" y="0">Zahl v</tspan></text>
        <text class="cls-6" transform="translate(57.96 191.28)"><tspan x="0" y="0">on 1 bis 10</tspan></text>
        <text class="cls-6" transform="translate(105.06 191.28)"><tspan x="0" y="0">. W</tspan></text>
        <text class="cls-6" transform="translate(120.14 191.28)"><tspan x="0" y="0">enn</tspan></text>
        <text class="cls-4" transform="translate(138.09 191.28)"><tspan x="0" y="0"> </tspan></text>
      </g>
      <text class="cls-14" transform="translate(29.16 191.28)"><tspan x="0" y="0">Zahl v</tspan></text>
      <text class="cls-14" transform="translate(57.96 191.28)"><tspan x="0" y="0">on 1 bis 10</tspan></text>
      <text class="cls-14" transform="translate(105.07 191.28)"><tspan x="0" y="0">. W</tspan></text>
      <text class="cls-14" transform="translate(120.14 191.28)"><tspan x="0" y="0">enn</tspan></text>
      <text class="cls-15" transform="translate(138.09 191.28)"><tspan x="0" y="0"> </tspan></text>
      <g class="cls-20">
        <text class="cls-6" transform="translate(25.46 203.28)"><tspan x="0" y="0">ihr euch nicht einig seid,</tspan></text>
        <text class="cls-4" transform="translate(141.79 203.28)"><tspan x="0" y="0"> </tspan></text>
      </g>
      <text class="cls-14" transform="translate(25.46 203.28)"><tspan x="0" y="0">ihr euch nicht einig seid,</tspan></text>
      <text class="cls-15" transform="translate(141.79 203.28)"><tspan x="0" y="0"> </tspan></text>
      <g class="cls-19">
        <text class="cls-5" transform="translate(42.64 215.28)"><tspan x="0" y="0">müs</tspan></text>
        <text class="cls-2" transform="translate(62.5 215.28)"><tspan x="0" y="0">st</tspan></text>
        <text class="cls-6" transform="translate(71.17 215.28)"><tspan x="0" y="0" xml:space="preserve"> ihr t</tspan></text>
        <text class="cls-3" transform="translate(92.6 215.28)"><tspan x="0" y="0">rink</tspan></text>
        <text class="cls-6" transform="translate(110.48 215.28)"><tspan x="0" y="0">en</tspan></text>
        <text class="cls-4" transform="translate(122.3 215.28)"><tspan x="0" y="0">.</tspan></text>
      </g>
      <text class="cls-13" transform="translate(42.64 215.28)"><tspan x="0" y="0">müs</tspan></text>
      <text class="cls-11" transform="translate(62.5 215.28)"><tspan x="0" y="0">st</tspan></text>
      <text class="cls-14" transform="translate(71.17 215.28)"><tspan x="0" y="0" xml:space="preserve"> ihr t</tspan></text>
      <text class="cls-12" transform="translate(92.6 215.28)"><tspan x="0" y="0">rink</tspan></text>
      <text class="cls-14" transform="translate(110.48 215.28)"><tspan x="0" y="0">en.</tspan></text>
    </g>
  </g>
</svg>