<?xml version="1.0" encoding="UTF-8"?>
<svg xmlns="http://www.w3.org/2000/svg" xmlns:xlink="http://www.w3.org/1999/xlink" viewBox="0 0 167.24 260.79">
  <defs>
    <style>
      .cls-1, .cls-2, .cls-3, .cls-4, .cls-5, .cls-6, .cls-7, .cls-8, .cls-9, .cls-10, .cls-11 {
        fill: none;
      }

      .cls-12 {
        fill: #010101;
      }

      .cls-13 {
        font-size: 15px;
      }

      .cls-13, .cls-14 {
        font-family: Namaku, Namaku;
      }

      .cls-13, .cls-15 {
        fill: #f5ae36;
      }

      .cls-2, .cls-3, .cls-14, .cls-4, .cls-5, .cls-6, .cls-7, .cls-8, .cls-9, .cls-10, .cls-11 {
        stroke: #fff;
      }

      .cls-2, .cls-3, .cls-4, .cls-5, .cls-6, .cls-16, .cls-17, .cls-18, .cls-7, .cls-8, .cls-19, .cls-20, .cls-21, .cls-22, .cls-23, .cls-24, .cls-9, .cls-25, .cls-10, .cls-11 {
        font-family: QuicksandBold-Regular, Quicksand;
        font-size: 10px;
      }

      .cls-2, .cls-19 {
        letter-spacing: -.02em;
      }

      .cls-26 {
        fill: #171717;
      }

      .cls-14 {
        font-size: 12px;
        stroke-miterlimit: 10;
        stroke-width: .15px;
      }

      .cls-14, .cls-27, .cls-16, .cls-17, .cls-18, .cls-19, .cls-20, .cls-21, .cls-22, .cls-23, .cls-24, .cls-25 {
        fill: #fff;
      }

      .cls-4, .cls-23 {
        letter-spacing: -.09em;
      }

      .cls-28 {
        clip-path: url(#clippath-1);
      }

      .cls-29 {
        clip-path: url(#clippath-2);
      }

      .cls-5, .cls-16 {
        letter-spacing: -.05em;
      }

      .cls-6, .cls-20 {
        letter-spacing: -.02em;
      }

      .cls-17, .cls-7 {
        letter-spacing: -.04em;
      }

      .cls-18, .cls-10 {
        letter-spacing: -.03em;
      }

      .cls-8, .cls-22 {
        letter-spacing: -.09em;
      }

      .cls-30 {
        fill: #171715;
      }

      .cls-21, .cls-11 {
        letter-spacing: -.02em;
      }

      .cls-24, .cls-9 {
        letter-spacing: -.07em;
      }

      .cls-31 {
        clip-path: url(#clippath);
      }
    </style>
    <clipPath id="clippath">
      <rect class="cls-1" x="0" y="0" width="167.24" height="260.79"/>
    </clipPath>
    <clipPath id="clippath-1">
      <rect class="cls-1" x="0" y="0" width="167.24" height="260.79"/>
    </clipPath>
    <clipPath id="clippath-2">
      <rect class="cls-1" x="0" y="0" width="167.24" height="260.79"/>
    </clipPath>
  </defs>
  <g id="Background">
    <rect class="cls-15" width="167.24" height="260.79"/>
  </g>
  <g id="Rahmen">
    <path class="cls-12" d="M151.9,23.16c9.65,0,9.67-15,0-15s-9.67,15,0,15h0Z"/>
    <path class="cls-12" d="M152.22,254.59c9.65,0,9.67-15,0-15s-9.67,15,0,15h0Z"/>
    <path class="cls-12" d="M14.14,254.72c9.65,0,9.67-15,0-15s-9.67,15,0,15h0Z"/>
    <path class="cls-26" d="M11.56,15.67c18.49.32,36.98.69,55.46,1.04,19.51.36,39.05-.42,58.56-.82,10.18-.21,20.36-.38,30.54-.21l-3.75-3.75c-1.46,11.81-1.7,23.8-1.97,35.69-.33,14.15-.39,28.31-.37,42.46.01,9.3.14,18.61.07,27.91-.06,7.86-.43,15.71-.48,23.57-.07,11.29.08,22.59.37,33.88.56,22.38,1.59,44.74,2.18,67.12.07,2.79.14,5.57.2,8.36l3.75-3.75c-15.41-.13-30.81.06-46.22.48-24.85.69-49.67.84-74.52.24-8.25-.2-16.49-.49-24.74-.73l3.75,3.75c-.56-4.87-.34-9.89-.27-14.78.11-8.38.38-16.76.66-25.14.66-20.11,1.45-40.22,1.83-60.34.16-8.4.26-16.81.05-25.21-.13-5.24-.51-10.46-.61-15.7-.33-17.03-.19-34.08-.18-51.11,0-8.91,0-17.82-.06-26.73-.04-5.94-.04-11.89-.34-17.82-.04-.72-.08-1.43-.15-2.15-.19-1.95-1.59-3.85-3.75-3.75-1.87.08-3.96,1.66-3.75,3.75.48,4.83.39,9.76.44,14.61.09,8.42.1,16.84.11,25.25,0,17.78-.1,35.55.11,53.33.06,5.22.27,10.41.52,15.62.36,7.73.31,15.47.21,23.21-.24,20.03-1.02,40.04-1.7,60.06-.3,8.95-.6,17.9-.79,26.85-.13,5.9-.3,11.84,0,17.74.04.78.09,1.55.18,2.32.24,2.06,1.53,3.69,3.75,3.75,18.27.53,36.53,1.09,54.81,1.16,23.38.09,46.73-.97,70.1-1.19,6.85-.06,13.71-.03,20.56.02,2,.02,3.79-1.73,3.75-3.75-.48-22.44-1.5-44.87-2.16-67.3-.33-11.25-.57-22.51-.6-33.77-.03-10.16.25-20.29.47-30.44.18-8.23-.03-16.48-.05-24.72-.03-13.94,0-27.88.25-41.82.23-12.54.48-25.14,1.72-37.62.11-1.1.23-2.21.37-3.31.25-2.04-1.92-3.72-3.75-3.75-19.14-.32-38.3.42-57.44.81-9.78.2-19.58.45-29.37.27-7.76-.14-15.52-.3-23.28-.45-11.49-.22-22.99-.44-34.48-.63-1.96-.03-3.84,1.75-3.75,3.75s1.65,3.71,3.75,3.75h0Z"/>
    <polygon class="cls-26" points="26.61 14.43 14.5 29.16 14.18 13.04 26.61 14.43"/>
    <polygon class="cls-26" points="140.79 14.16 152.35 27.66 154.57 11.89 140.79 14.16"/>
    <polygon class="cls-26" points="139.48 248.15 153.14 235.93 156.07 248.65 139.48 248.15"/>
    <polygon class="cls-26" points="12.9 235.54 26.24 248.54 12.31 249.36 12.9 235.54"/>
    <rect class="cls-26" width="10.32" height="260.79"/>
    <rect class="cls-26" y="249.36" width="167.24" height="11.43"/>
    <rect class="cls-30" width="167.24" height="10.33"/>
    <rect class="cls-26" x="156.12" width="11.13" height="260.79"/>
    <path class="cls-26" d="M107.87,17.19c0-.85.22-3.85,0-4.78-.58-2.49-2.21-2.81-3.8-2.81h-40.89c-1.59,0-3.22.32-3.8,2.81-.22.93,0,3.93,0,4.78l-.17,5.71c-.35,5.31,5.43,4.59,7.62,4.59l12.59.37,4.21-.07h0l4.21.07,12.59-.37c2.19,0,7.96.72,7.62-4.59l-.17-5.71Z"/>
    <path class="cls-12" d="M151.9,23.16c9.65,0,9.67-15,0-15s-9.67,15,0,15h0Z"/>
    <path class="cls-12" d="M152.22,254.59c9.65,0,9.67-15,0-15s-9.67,15,0,15h0Z"/>
    <path class="cls-12" d="M14.14,254.72c9.65,0,9.67-15,0-15s-9.67,15,0,15h0Z"/>
    <path class="cls-26" d="M11.56,15.67c18.49.32,36.98.69,55.46,1.04,19.51.36,39.05-.42,58.56-.82,10.18-.21,20.36-.38,30.54-.21l-3.75-3.75c-1.46,11.81-1.7,23.8-1.97,35.69-.33,14.15-.39,28.31-.37,42.46.01,9.3.14,18.61.07,27.91-.06,7.86-.43,15.71-.48,23.57-.07,11.29.08,22.59.37,33.88.56,22.38,1.59,44.74,2.18,67.12.07,2.79.14,5.57.2,8.36l3.75-3.75c-15.41-.13-30.81.06-46.22.48-24.85.69-49.67.84-74.52.24-8.25-.2-16.49-.49-24.74-.73l3.75,3.75c-.56-4.87-.34-9.89-.27-14.78.11-8.38.38-16.76.66-25.14.66-20.11,1.45-40.22,1.83-60.34.16-8.4.26-16.81.05-25.21-.13-5.24-.51-10.46-.61-15.7-.33-17.03-.19-34.08-.18-51.11,0-8.91,0-17.82-.06-26.73-.04-5.94-.04-11.89-.34-17.82-.04-.72-.08-1.43-.15-2.15-.19-1.95-1.59-3.85-3.75-3.75-1.87.08-3.96,1.66-3.75,3.75.48,4.83.39,9.76.44,14.61.09,8.42.1,16.84.11,25.25,0,17.78-.1,35.55.11,53.33.06,5.22.27,10.41.52,15.62.36,7.73.31,15.47.21,23.21-.24,20.03-1.02,40.04-1.7,60.06-.3,8.95-.6,17.9-.79,26.85-.13,5.9-.3,11.84,0,17.74.04.78.09,1.55.18,2.32.24,2.06,1.53,3.69,3.75,3.75,18.27.53,36.53,1.09,54.81,1.16,23.38.09,46.73-.97,70.1-1.19,6.85-.06,13.71-.03,20.56.02,2,.02,3.79-1.73,3.75-3.75-.48-22.44-1.5-44.87-2.16-67.3-.33-11.25-.57-22.51-.6-33.77-.03-10.16.25-20.29.47-30.44.18-8.23-.03-16.48-.05-24.72-.03-13.94,0-27.88.25-41.82.23-12.54.48-25.14,1.72-37.62.11-1.1.23-2.21.37-3.31.25-2.04-1.92-3.72-3.75-3.75-19.14-.32-38.3.42-57.44.81-9.78.2-19.58.45-29.37.27-7.76-.14-15.52-.3-23.28-.45-11.49-.22-22.99-.44-34.48-.63-1.96-.03-3.84,1.75-3.75,3.75s1.65,3.71,3.75,3.75h0Z"/>
    <polygon class="cls-26" points="26.61 14.43 14.5 29.16 14.18 13.04 26.61 14.43"/>
    <polygon class="cls-26" points="140.79 14.16 152.35 27.66 154.57 11.89 140.79 14.16"/>
    <polygon class="cls-26" points="139.48 248.15 153.14 235.93 156.07 248.65 139.48 248.15"/>
    <polygon class="cls-26" points="12.9 235.54 26.24 248.54 12.31 249.36 12.9 235.54"/>
    <rect class="cls-26" width="10.32" height="260.79"/>
    <rect class="cls-26" y="249.36" width="167.24" height="11.43"/>
    <rect class="cls-30" width="167.24" height="10.33"/>
    <rect class="cls-26" x="156.12" width="11.13" height="260.79"/>
  </g>
  <g id="Kategorie_Name" data-name="Kategorie Name">
    <text class="cls-13" transform="translate(63.91 22.56) scale(1 1.09)"><tspan x="0" y="0">duell</tspan></text>
  </g>
  <g id="Schlücke">
    <text class="cls-14" transform="translate(4.4 252.82)"><tspan x="0" y="0">+3</tspan></text>
    <text class="cls-14" transform="translate(147.68 19.77)"><tspan x="0" y="0">+3</tspan></text>
  </g>
  <g id="Motive">
    <g>
      <path class="cls-26" d="M103.29,113.14c1.01,0,1.82.82,1.82,1.82v17.25c0,2.17,3.48,3.35,4.51,1.54.09-.16.62-2.07.62-2.18v-16.61c0-1.01.82-1.82,1.82-1.82h5.65c1.01,0,1.82.82,1.82,1.82v27.83c0,.83-1.5,1.35-2.27,1.45-.07.01-.15.01-.22.01-9.2-.02-19.58-.02-28.77,0-.64.03-2.07-.85-2.07-1.46v-27.83c0-1.01.82-1.82,1.82-1.82h15.27ZM96.69,120.25c-2.92.6-2.14,5.36,1.13,4.7,2.92-.6,2.14-5.36-1.13-4.7ZM96.68,130.54c-1.34-1.66-4.28-.77-4.09,1.99.3,4.33,6.66,1.2,4.09-1.99Z"/>
      <path class="cls-26" d="M80.47,117.79c-.47,1.44-1.15,2.8-2.1,3.98-.46.57-.54,1.35-.2,1.99,1.3,2.48,2.62,4.91,2.89,7.81.15,1.58.19,10.98-.3,11.79-.04.07-1.07.86-1.14.86h-4.41c-1.02,0-1.83-.83-1.82-1.85.02-2-.17-4.18-2.41-4.27-2.57-.1-2.77,2.16-2.75,4.28,0,1.01-.81,1.84-1.82,1.84h-4.01c-1.02,0-1.83-.83-1.82-1.85.02-2-.17-4.18-2.41-4.27-2.57-.1-2.77,2.16-2.75,4.28,0,1.01-.81,1.84-1.82,1.84h-4.41c-.07,0-1.1-.79-1.14-.86-.49-.81-.44-10.21-.3-11.79.27-2.91,1.59-5.34,2.9-7.82.33-.64.27-1.41-.18-1.97-.96-1.19-1.69-2.56-2.17-4.02-.39-1.17.51-2.38,1.74-2.38h28.73c1.25,0,2.12,1.22,1.73,2.41Z"/>
      <path class="cls-26" d="M69.75,76.91c.96,0,1.74.74,1.82,1.69.09,1.19.26,2.41.78,3.34.87,1.54,3.12,2.38,4.39,3.62,1.55,1.53,2.85,3.71,3.65,5.91.43,1.18-.46,2.42-1.72,2.42h-28.55c-1.27,0-2.14-1.26-1.71-2.45.77-2.12,2-4.15,3.52-5.69,1.25-1.26,3.73-2.42,4.52-3.82.53-.94.69-2.16.78-3.34.07-.95.86-1.69,1.82-1.69h10.7Z"/>
      <rect class="cls-26" x="47.73" y="99.03" width="33.34" height="11.54" rx="1.85" ry="1.85"/>
      <path class="cls-26" d="M105.11,98.03v8.1c0,1.04-.84,1.88-1.88,1.88h-15.15c-1.04,0-1.88-.84-1.88-1.88v-8.54c0-.37,1.31-1.44,1.44-1.44h15.59c1.04,0,1.88.84,1.88,1.88Z"/>
      <path class="cls-26" d="M57.34,63.61c.18-.96,1.54-1.39,2.38-1.46,2.07-.19,8.02-.27,9.94.04.54.09,1.78.86,1.78,1.42v6.3c0,1.21-.98,2.19-2.19,2.19h-9.65c-1.18,0-2.16-.94-2.19-2.12-.06-2.17-.4-4.6-.07-6.38Z"/>
      <path class="cls-26" d="M118.01,96.22c1.38.13,1.52.49,1.52,1.58v8.38c0,1.01-.82,1.83-1.83,1.83h-5.64c-1.01,0-1.83-.82-1.83-1.83v-8.12c0-1,.8-1.8,1.79-1.83,2.06-.05,4.44-.07,5.98-.01Z"/>
      <path class="cls-26" d="M105.74,82.59c.41-.45,1.13-.77,1.66-.86.07-.01.13-.02.2-.01,1.93,0,8.56-.04,10.29.09.08,0,.16.02.24.04,1.51.44,1.84,2.6,1.1,3.83-.04.07-1.07.86-1.14.86h-6.89c-.71,0-1.28.57-1.28,1.28v7.05c0,.71-.57,1.28-1.28,1.28h-1.92c-.71,0-1.28-.57-1.28-1.28,0-3.67-.01-8.19,0-11.45,0-.31.1-.61.31-.83Z"/>
    </g>
  </g>
  <g id="Kateg._Symbol" data-name="Kateg. Symbol">
    <g>
      <path class="cls-27" d="M16.91,14.58l-2.12.03.79-3.25c0-.3-.37-.37-.52-.12l-3.2,5.08c-.11.17,0,.4.2.43h2.18l-.8,3.16c-.04.26.17.44.41.3.86-1.32,1.71-2.66,2.54-4,.22-.35.55-.8.73-1.16.13-.25.06-.4-.21-.46Z"/>
      <path class="cls-27" d="M16.91,13.95l-2.12.03.6.79.7-2.86c.14-.56.17-1.23-.55-1.42-.56-.14-.9.25-1.16.66l-1.76,2.8c-.43.68-.92,1.35-1.29,2.05-.32.6.05,1.3.74,1.37.18.02.36,0,.54,0h1.64l-.6-.79c-.16.63-.32,1.25-.48,1.88s-.61,1.62-.1,2.15c.25.26.62.32.95.19.41-.16.62-.67.85-1.02.48-.74.95-1.48,1.42-2.22.41-.66.86-1.3,1.25-1.98s.34-1.35-.46-1.61-1.1.96-.33,1.21l-.18-.41s-.05.08-.07.12c-.07.07-.13.21-.18.29-.11.18-.23.35-.35.53-.29.45-.57.9-.85,1.36-.59.94-1.19,1.87-1.8,2.81l.37-.29c.19.51.31.66.36.46v-.04s.02-.07.03-.09c.04-.12.06-.25.09-.37l.27-1.07c.13-.53.27-1.05.4-1.58.1-.39-.19-.79-.6-.79h-1.86c-.07,0-.15-.01-.22,0-.02,0-.06,0-.08,0-.21.07.24.57.32.51.13-.1.24-.38.32-.52l.74-1.17,1.64-2.62c.14-.22.37-.48.46-.73s-.48-.62-.6-.36c-.06.13-.08.32-.11.46l-.67,2.74c-.09.39.19.8.6.79l2.12-.03c.8,0,.81-1.26,0-1.25Z"/>
    </g>
    <g>
      <path class="cls-27" d="M153.83,247.16l-2.12.03.79-3.25c0-.3-.37-.37-.52-.12l-3.2,5.08c-.11.17,0,.4.2.43h2.18l-.8,3.16c-.04.26.17.44.41.3.86-1.32,1.71-2.66,2.54-4,.22-.35.55-.8.73-1.16.13-.25.06-.4-.21-.46Z"/>
      <path class="cls-27" d="M153.83,246.54l-2.12.03.6.79.7-2.86c.14-.56.17-1.23-.55-1.42-.56-.14-.9.25-1.16.66l-1.76,2.8c-.43.68-.92,1.35-1.29,2.05-.32.6.05,1.3.74,1.37.18.02.36,0,.54,0h1.64l-.6-.79c-.16.63-.32,1.25-.48,1.88s-.61,1.62-.1,2.15c.25.26.62.32.95.19.41-.16.62-.67.85-1.02.48-.74.95-1.48,1.42-2.22.41-.66.86-1.3,1.25-1.98s.34-1.35-.46-1.61-1.1.96-.33,1.21l-.18-.41s-.05.08-.07.12c-.07.07-.13.21-.18.29-.11.18-.23.35-.35.53-.29.45-.57.9-.85,1.36-.59.94-1.19,1.87-1.8,2.81l.37-.29c.19.51.31.66.36.46v-.04s.02-.07.03-.09c.04-.12.06-.25.09-.37l.27-1.07.4-1.58c.1-.39-.19-.79-.6-.79h-1.86c-.07,0-.15-.01-.22,0-.02,0-.06,0-.08,0-.21.07.24.57.32.51.13-.1.24-.38.32-.52l.74-1.17,1.64-2.62c.14-.22.37-.48.46-.73s-.48-.62-.6-.36c-.06.13-.08.32-.11.46l-.67,2.74c-.09.39.19.8.6.79l2.12-.03c.8,0,.81-1.26,0-1.25Z"/>
    </g>
  </g>
  <g id="Text_Karte" data-name="Text Karte">
    <g>
      <g class="cls-31">
        <text class="cls-8" transform="translate(25.36 179.29)"><tspan x="0" y="0">We</tspan></text>
        <text class="cls-11" transform="translate(41.21 179.29)"><tspan x="0" y="0">r sch</tspan></text>
        <text class="cls-11" transform="translate(64.76 179.29)"><tspan x="0" y="0">afft es schnell</tspan></text>
        <text class="cls-7" transform="translate(130.61 179.29)"><tspan x="0" y="0">er</tspan></text>
        <text class="cls-3" transform="translate(139.58 179.29)"><tspan x="0" y="0">, </tspan></text>
      </g>
      <text class="cls-22" transform="translate(25.36 179.29)"><tspan x="0" y="0">We</tspan></text>
      <text class="cls-21" transform="translate(41.21 179.29)"><tspan x="0" y="0">r sch</tspan></text>
      <text class="cls-21" transform="translate(64.76 179.29)"><tspan x="0" y="0">afft es schnell</tspan></text>
      <text class="cls-17" transform="translate(130.61 179.29)"><tspan x="0" y="0">er</tspan></text>
      <text class="cls-25" transform="translate(139.58 179.29)"><tspan x="0" y="0">, </tspan></text>
      <g class="cls-28">
        <text class="cls-6" transform="translate(23.24 191.28)"><tspan x="0" y="0">ein Glas </tspan></text>
        <text class="cls-4" transform="translate(64.21 191.28)"><tspan x="0" y="0">Wa</tspan></text>
        <text class="cls-10" transform="translate(80.32 191.28)"><tspan x="0" y="0">ss</tspan></text>
        <text class="cls-7" transform="translate(89.66 191.28)"><tspan x="0" y="0">er</tspan></text>
        <text class="cls-11" transform="translate(99.53 191.28)"><tspan x="0" y="0" xml:space="preserve"> zu </tspan></text>
        <text class="cls-5" transform="translate(116.4 191.28)"><tspan x="0" y="0">ex</tspan></text>
        <text class="cls-11" transform="translate(127.14 191.28)"><tspan x="0" y="0">en</tspan></text>
        <text class="cls-3" transform="translate(138.66 191.28)"><tspan x="0" y="0">? </tspan></text>
      </g>
      <text class="cls-20" transform="translate(23.24 191.28)"><tspan x="0" y="0">ein Glas </tspan></text>
      <text class="cls-23" transform="translate(64.21 191.28)"><tspan x="0" y="0">Wa</tspan></text>
      <text class="cls-18" transform="translate(80.32 191.28)"><tspan x="0" y="0">ss</tspan></text>
      <text class="cls-17" transform="translate(89.66 191.28)"><tspan x="0" y="0">er</tspan></text>
      <text class="cls-21" transform="translate(99.53 191.28)"><tspan x="0" y="0" xml:space="preserve"> zu </tspan></text>
      <text class="cls-16" transform="translate(116.4 191.28)"><tspan x="0" y="0">ex</tspan></text>
      <text class="cls-21" transform="translate(127.14 191.28)"><tspan x="0" y="0">en</tspan></text>
      <text class="cls-25" transform="translate(138.66 191.28)"><tspan x="0" y="0">? </tspan></text>
      <g class="cls-29">
        <text class="cls-11" transform="translate(20.85 203.28)"><tspan x="0" y="0">De</tspan></text>
        <text class="cls-11" transform="translate(33.52 203.28)"><tspan x="0" y="0">r </tspan></text>
        <text class="cls-4" transform="translate(40.51 203.28)"><tspan x="0" y="0">Ve</tspan></text>
        <text class="cls-11" transform="translate(52.79 203.28)"><tspan x="0" y="0">rlie</tspan></text>
        <text class="cls-9" transform="translate(67.56 203.28)"><tspan x="0" y="0">re</tspan></text>
        <text class="cls-11" transform="translate(76.93 203.28)"><tspan x="0" y="0">r muss t</tspan></text>
        <text class="cls-2" transform="translate(114.39 203.28)"><tspan x="0" y="0">rink</tspan></text>
        <text class="cls-11" transform="translate(132.27 203.28)"><tspan x="0" y="0">en</tspan></text>
        <text class="cls-3" transform="translate(144.09 203.28)"><tspan x="0" y="0">.</tspan></text>
      </g>
      <text class="cls-21" transform="translate(20.85 203.28)"><tspan x="0" y="0">De</tspan></text>
      <text class="cls-21" transform="translate(33.52 203.28)"><tspan x="0" y="0">r </tspan></text>
      <text class="cls-23" transform="translate(40.51 203.28)"><tspan x="0" y="0">Ve</tspan></text>
      <text class="cls-21" transform="translate(52.79 203.28)"><tspan x="0" y="0">rlie</tspan></text>
      <text class="cls-24" transform="translate(67.56 203.28)"><tspan x="0" y="0">re</tspan></text>
      <text class="cls-21" transform="translate(76.93 203.28)"><tspan x="0" y="0">r muss t</tspan></text>
      <text class="cls-19" transform="translate(114.39 203.28)"><tspan x="0" y="0">rink</tspan></text>
      <text class="cls-21" transform="translate(132.27 203.28)"><tspan x="0" y="0">en.</tspan></text>
    </g>
  </g>
</svg>