<?xml version="1.0" encoding="UTF-8"?>
<svg xmlns="http://www.w3.org/2000/svg" xmlns:xlink="http://www.w3.org/1999/xlink" viewBox="0 0 167.24 260.79">
  <defs>
    <style>
      .cls-1, .cls-2, .cls-3, .cls-4, .cls-5, .cls-6, .cls-7, .cls-8, .cls-9, .cls-10 {
        fill: none;
      }

      .cls-11 {
        fill: #010101;
      }

      .cls-12 {
        font-size: 15px;
      }

      .cls-12, .cls-13 {
        font-family: Namaku, Namaku;
      }

      .cls-12, .cls-14 {
        fill: #f5ae36;
      }

      .cls-2, .cls-3, .cls-13, .cls-4, .cls-5, .cls-6, .cls-7, .cls-8, .cls-9, .cls-10 {
        stroke: #fff;
      }

      .cls-2, .cls-3, .cls-4, .cls-5, .cls-15, .cls-16, .cls-17, .cls-6, .cls-18, .cls-19, .cls-20, .cls-21, .cls-22, .cls-7, .cls-8, .cls-23, .cls-9, .cls-10 {
        font-family: QuicksandBold-Regular, Quicksand;
        font-size: 10px;
      }

      .cls-2, .cls-18 {
        letter-spacing: -.02em;
      }

      .cls-24 {
        fill: #171717;
      }

      .cls-13 {
        font-size: 12px;
        stroke-miterlimit: 10;
        stroke-width: .15px;
      }

      .cls-13, .cls-25, .cls-15, .cls-16, .cls-17, .cls-18, .cls-19, .cls-20, .cls-21, .cls-22, .cls-23 {
        fill: #fff;
      }

      .cls-26 {
        clip-path: url(#clippath-1);
      }

      .cls-27 {
        clip-path: url(#clippath-2);
      }

      .cls-4, .cls-15 {
        letter-spacing: -.05em;
      }

      .cls-5, .cls-20 {
        letter-spacing: -.02em;
      }

      .cls-16, .cls-7 {
        letter-spacing: -.04em;
      }

      .cls-17, .cls-8 {
        letter-spacing: -.04em;
      }

      .cls-6, .cls-22 {
        letter-spacing: -.08em;
      }

      .cls-28 {
        fill: #171715;
      }

      .cls-19, .cls-10 {
        letter-spacing: -.02em;
      }

      .cls-21, .cls-9 {
        letter-spacing: -.02em;
      }

      .cls-29 {
        clip-path: url(#clippath);
      }
    </style>
    <clipPath id="clippath">
      <rect class="cls-1" x="0" y="0" width="167.24" height="260.79"/>
    </clipPath>
    <clipPath id="clippath-1">
      <rect class="cls-1" x="0" y="0" width="167.24" height="260.79"/>
    </clipPath>
    <clipPath id="clippath-2">
      <rect class="cls-1" x="0" y="0" width="167.24" height="260.79"/>
    </clipPath>
  </defs>
  <g id="Background">
    <rect class="cls-14" width="167.24" height="260.79"/>
  </g>
  <g id="Rahmen">
    <path class="cls-11" d="M151.9,23.16c9.65,0,9.67-15,0-15s-9.67,15,0,15h0Z"/>
    <path class="cls-11" d="M152.22,254.59c9.65,0,9.67-15,0-15s-9.67,15,0,15h0Z"/>
    <path class="cls-11" d="M14.14,254.72c9.65,0,9.67-15,0-15s-9.67,15,0,15h0Z"/>
    <path class="cls-24" d="M11.56,15.67c18.49.32,36.98.69,55.46,1.04,19.51.36,39.05-.42,58.56-.82,10.18-.21,20.36-.38,30.54-.21l-3.75-3.75c-1.46,11.81-1.7,23.8-1.97,35.69-.33,14.15-.39,28.31-.37,42.46.01,9.3.14,18.61.07,27.91-.06,7.86-.43,15.71-.48,23.57-.07,11.29.08,22.59.37,33.88.56,22.38,1.59,44.74,2.18,67.12.07,2.79.14,5.57.2,8.36l3.75-3.75c-15.41-.13-30.81.06-46.22.48-24.85.69-49.67.84-74.52.24-8.25-.2-16.49-.49-24.74-.73l3.75,3.75c-.56-4.87-.34-9.89-.27-14.78.11-8.38.38-16.76.66-25.14.66-20.11,1.45-40.22,1.83-60.34.16-8.4.26-16.81.05-25.21-.13-5.24-.51-10.46-.61-15.7-.33-17.03-.19-34.08-.18-51.11,0-8.91,0-17.82-.06-26.73-.04-5.94-.04-11.89-.34-17.82-.04-.72-.08-1.43-.15-2.15-.19-1.95-1.59-3.85-3.75-3.75-1.87.08-3.96,1.66-3.75,3.75.48,4.83.39,9.76.44,14.61.09,8.42.1,16.84.11,25.25,0,17.78-.1,35.55.11,53.33.06,5.22.27,10.41.52,15.62.36,7.73.31,15.47.21,23.21-.24,20.03-1.02,40.04-1.7,60.06-.3,8.95-.6,17.9-.79,26.85-.13,5.9-.3,11.84,0,17.74.04.78.09,1.55.18,2.32.24,2.06,1.53,3.69,3.75,3.75,18.27.53,36.53,1.09,54.81,1.16,23.38.09,46.73-.97,70.1-1.19,6.85-.06,13.71-.03,20.56.02,2,.02,3.79-1.73,3.75-3.75-.48-22.44-1.5-44.87-2.16-67.3-.33-11.25-.57-22.51-.6-33.77-.03-10.16.25-20.29.47-30.44.18-8.23-.03-16.48-.05-24.72-.03-13.94,0-27.88.25-41.82.23-12.54.48-25.14,1.72-37.62.11-1.1.23-2.21.37-3.31.25-2.04-1.92-3.72-3.75-3.75-19.14-.32-38.3.42-57.44.81-9.78.2-19.58.45-29.37.27-7.76-.14-15.52-.3-23.28-.45-11.49-.22-22.99-.44-34.48-.63-1.96-.03-3.84,1.75-3.75,3.75s1.65,3.71,3.75,3.75h0Z"/>
    <polygon class="cls-24" points="26.61 14.43 14.5 29.16 14.18 13.04 26.61 14.43"/>
    <polygon class="cls-24" points="140.79 14.16 152.35 27.66 154.57 11.89 140.79 14.16"/>
    <polygon class="cls-24" points="139.48 248.15 153.14 235.93 156.07 248.65 139.48 248.15"/>
    <polygon class="cls-24" points="12.9 235.54 26.24 248.54 12.31 249.36 12.9 235.54"/>
    <rect class="cls-24" width="10.32" height="260.79"/>
    <rect class="cls-24" y="249.36" width="167.24" height="11.43"/>
    <rect class="cls-28" width="167.24" height="10.33"/>
    <rect class="cls-24" x="156.12" width="11.13" height="260.79"/>
    <path class="cls-24" d="M107.87,17.19c0-.85.22-3.85,0-4.78-.58-2.49-2.21-2.81-3.8-2.81h-40.89c-1.59,0-3.22.32-3.8,2.81-.22.93,0,3.93,0,4.78l-.17,5.71c-.35,5.31,5.43,4.59,7.62,4.59l12.59.37,4.21-.07h0l4.21.07,12.59-.37c2.19,0,7.96.72,7.62-4.59l-.17-5.71Z"/>
    <path class="cls-11" d="M151.9,23.16c9.65,0,9.67-15,0-15s-9.67,15,0,15h0Z"/>
    <path class="cls-11" d="M152.22,254.59c9.65,0,9.67-15,0-15s-9.67,15,0,15h0Z"/>
    <path class="cls-11" d="M14.14,254.72c9.65,0,9.67-15,0-15s-9.67,15,0,15h0Z"/>
    <path class="cls-24" d="M11.56,15.67c18.49.32,36.98.69,55.46,1.04,19.51.36,39.05-.42,58.56-.82,10.18-.21,20.36-.38,30.54-.21l-3.75-3.75c-1.46,11.81-1.7,23.8-1.97,35.69-.33,14.15-.39,28.31-.37,42.46.01,9.3.14,18.61.07,27.91-.06,7.86-.43,15.71-.48,23.57-.07,11.29.08,22.59.37,33.88.56,22.38,1.59,44.74,2.18,67.12.07,2.79.14,5.57.2,8.36l3.75-3.75c-15.41-.13-30.81.06-46.22.48-24.85.69-49.67.84-74.52.24-8.25-.2-16.49-.49-24.74-.73l3.75,3.75c-.56-4.87-.34-9.89-.27-14.78.11-8.38.38-16.76.66-25.14.66-20.11,1.45-40.22,1.83-60.34.16-8.4.26-16.81.05-25.21-.13-5.24-.51-10.46-.61-15.7-.33-17.03-.19-34.08-.18-51.11,0-8.91,0-17.82-.06-26.73-.04-5.94-.04-11.89-.34-17.82-.04-.72-.08-1.43-.15-2.15-.19-1.95-1.59-3.85-3.75-3.75-1.87.08-3.96,1.66-3.75,3.75.48,4.83.39,9.76.44,14.61.09,8.42.1,16.84.11,25.25,0,17.78-.1,35.55.11,53.33.06,5.22.27,10.41.52,15.62.36,7.73.31,15.47.21,23.21-.24,20.03-1.02,40.04-1.7,60.06-.3,8.95-.6,17.9-.79,26.85-.13,5.9-.3,11.84,0,17.74.04.78.09,1.55.18,2.32.24,2.06,1.53,3.69,3.75,3.75,18.27.53,36.53,1.09,54.81,1.16,23.38.09,46.73-.97,70.1-1.19,6.85-.06,13.71-.03,20.56.02,2,.02,3.79-1.73,3.75-3.75-.48-22.44-1.5-44.87-2.16-67.3-.33-11.25-.57-22.51-.6-33.77-.03-10.16.25-20.29.47-30.44.18-8.23-.03-16.48-.05-24.72-.03-13.94,0-27.88.25-41.82.23-12.54.48-25.14,1.72-37.62.11-1.1.23-2.21.37-3.31.25-2.04-1.92-3.72-3.75-3.75-19.14-.32-38.3.42-57.44.81-9.78.2-19.58.45-29.37.27-7.76-.14-15.52-.3-23.28-.45-11.49-.22-22.99-.44-34.48-.63-1.96-.03-3.84,1.75-3.75,3.75s1.65,3.71,3.75,3.75h0Z"/>
    <polygon class="cls-24" points="26.61 14.43 14.5 29.16 14.18 13.04 26.61 14.43"/>
    <polygon class="cls-24" points="140.79 14.16 152.35 27.66 154.57 11.89 140.79 14.16"/>
    <polygon class="cls-24" points="139.48 248.15 153.14 235.93 156.07 248.65 139.48 248.15"/>
    <polygon class="cls-24" points="12.9 235.54 26.24 248.54 12.31 249.36 12.9 235.54"/>
    <rect class="cls-24" width="10.32" height="260.79"/>
    <rect class="cls-24" y="249.36" width="167.24" height="11.43"/>
    <rect class="cls-28" width="167.24" height="10.33"/>
    <rect class="cls-24" x="156.12" width="11.13" height="260.79"/>
  </g>
  <g id="Kategorie_Name" data-name="Kategorie Name">
    <text class="cls-12" transform="translate(63.91 22.56) scale(1 1.09)"><tspan x="0" y="0">duell</tspan></text>
  </g>
  <g id="Schlücke">
    <text class="cls-13" transform="translate(4.4 252.82)"><tspan x="0" y="0">+3</tspan></text>
    <text class="cls-13" transform="translate(147.68 19.77)"><tspan x="0" y="0">+3</tspan></text>
  </g>
  <g id="Motive">
    <g>
      <path class="cls-24" d="M119.94,83.06c.66,0,1.19.53,1.19,1.19v43.88c0,1.22-2.3,3.21-3.53,3.21h-5.48c-.22,0-.4-.18-.4-.4v-6.8c0-2.68-2.19-4.87-4.87-4.87h-2.72c-.22,0-.4-.18-.4-.4v-8.3c0-1.75-2.55-4.62-4.31-4.62h-3.28c-.22,0-.4-.18-.4-.4v-5.12c0-.16.1-.31.25-.37,3.74-1.44,2.32-7,.14-9.32-1.69-1.8-3.35-.53-4.34,1.15-1.75,2.98-2.25,6.44,1.08,8.38.13.07.21.2.21.35v4.93c0,.22-.18.4-.4.4h-7.35c-.11,0-.21-.04-.28-.12h0c-.08-.08-.12-.18-.12-.28v-6.38c0-.16.09-.31.24-.37,3.65-1.5,2.61-6.29.67-8.9-3.27-4.41-6.5,2.83-6.07,5.92.16,1.14,1.25,2.54,2.39,2.99.16.06.26.21.26.37v6.36c0,.11-.04.21-.12.28h0c-.08.08-.18.12-.28.12h-7.35c-.22,0-.4-.18-.4-.4v-4.92c0-.15.09-.29.22-.36,3.37-1.79,2.77-5.48,1.06-8.38-2.21-3.75-4.61-1.68-5.86,1.41-1.04,2.58-1.12,5.46,1.67,6.74.15.07.24.21.24.37v5.14c0,.22-.18.4-.4.4h-3.28c-1.76,0-4.31,2.87-4.31,4.62v8.3c0,.22-.18.4-.4.4h-2.57c-2.76,0-5.03,2.26-5.03,5.03v6.64c0,.22-.18.4-.4.4h-5.48c-1.23,0-3.53-1.99-3.53-3.21v-43.88c0-.66.53-1.19,1.19-1.19h72.56Z"/>
      <path class="cls-24" d="M46.19,75.61c.12-.72,1.05-1.99,1.65-2.43,1.33-.98,2.86-.8,4.41-.78.36,0,.64.3.63.65-.23,6.26,8.26,6.21,8.09-.01,0-.36.28-.65.63-.65h3.97c.36,0,.64.29.63.65-.16,6.2,8.33,6.28,8.1.02-.01-.36.28-.66.64-.66l4.64.06h0c.08.12.11.27.1.41-.57,6.53,8.68,6.47,7.91-.23.05-.2.19-.22.37-.26,1.21-.22,2.96.08,4.38.05.37,0,.67.29.66.66-.2,6.2,8.26,6.16,8.1-.06,0-.36.28-.65.63-.65h3.97c.36,0,.64.29.63.65-.16,6.19,8.34,6.29,8.09,0-.01-.35.27-.65.62-.66,2-.04,3.95-.16,5.28,1.65.16.22.78,1.4.78,1.57v3.75c0,.66-.53,1.19-1.19,1.19H47.42c-.64,0-1.17-.51-1.19-1.16-.03-1.28-.22-2.7-.04-3.78Z"/>
      <path class="cls-24" d="M109.06,129.43v5.86c0,.77-.62,1.39-1.39,1.39h-48.02c-.77,0-1.39-.62-1.39-1.39v-5.89c0-1.07,1.16-1.74,2.08-1.2.64.38,1.26.8,1.96,1.08,2.08.82,4.29.91,6.43.24,1.87-.59,3.07-2.03,5.13-2.24,4.75-.48,6.38,3.99,12.46,2.27,2.18-.61,3.43-2.16,5.87-2.28,3.69-.17,5.68,2.98,10.04,2.67,2.02-.14,3.32-1.03,4.83-1.75.92-.44,1.99.23,1.99,1.25Z"/>
      <path class="cls-24" d="M106.68,121.93c1.77.11,2.16,2.58.51,3.25s-3.12,1.92-4.95,2.08c-3.83.33-5.81-2.76-9.88-2.67-4.73.1-6.62,4.42-11.83,1.96-2.46-1.16-3.42-2.17-6.51-1.95-4.3.3-6.15,4.27-11.05,2.11-.8-.35-1.54-1-2.4-1.36-.07-.03-.14-.06-.22-.09-1.34-.52-1.57-2.37-.36-3.14.18-.11.36-.18.55-.2h46.1s.03,0,.04,0Z"/>
      <path class="cls-24" d="M56.49,135.48l54.45.05c1.06.45,1.06,3.02,0,3.47l-54.02.11c-1.59.17-1.82-3.2-.43-3.63Z"/>
      <path class="cls-24" d="M98.44,108.51c1.81.28,2.34,2.64.86,3.72-1.36.98-2.4,2.32-4.46,1.43-.71-.31-1.07-.96-1.63-1.35-1.84-1.3-4.25-1.4-6.21-.28-1.65.95-2.46,2.88-4.86,1.47-2.11-1.24-2.34-2.54-5.45-2.23-2.49.25-3.55,2.66-5.49,2.68-1.32,0-2.21-1.03-3.24-1.79-1.52-1.11-.87-3.52,1.01-3.69.03,0,.06,0,.09,0,.08,0,.15,0,.23,0,9.34.47,19.32-.65,28.58-.02.2.01.4.04.58.06Z"/>
      <path class="cls-24" d="M101.06,117.53h0c0,.96-.78,1.74-1.74,1.74h-31.32c-.96,0-1.74-.78-1.74-1.74h0c0-1.29,1.36-2.13,2.51-1.56,1.1.54,2.28.77,3.76.4,2.52-.62,3.83-3.89,6.73-1.88,2.06,1.43,2.88,2.61,5.82,1.88,1.77-.44,2.9-2.24,4.16-2.42,2.65-.38,3.15,1.84,5.55,2.42,1.48.36,2.67.13,3.77-.41s2.51.27,2.51,1.56Z"/>
      <path class="cls-24" d="M83.3,67.1c1.04-.23,1.66.49,1.77,1.46.12,1.04.14,4.32-.04,5.29-.31,1.73-2.56,1.72-2.78-.28-.12-1.09-.14-4.09.01-5.16.08-.57.43-1.18,1.04-1.32Z"/>
      <path class="cls-24" d="M56.5,67.1c.91-.2,1.67.4,1.77,1.3.13,1.08.15,4.61-.01,5.64-.22,1.4-2.47,1.47-2.66-.14-.13-1.11-.15-4.73.01-5.79.07-.46.42-.89.89-1Z"/>
      <path class="cls-24" d="M69.98,67.1c.87-.19,1.51.27,1.61,1.14.13,1.11.15,4.73-.01,5.79-.22,1.4-2.47,1.47-2.66-.14-.13-1.07-.15-4.61.01-5.64.08-.49.56-1.05,1.05-1.15Z"/>
      <path class="cls-24" d="M96.63,67.1c.91-.2,1.67.4,1.77,1.3.13,1.08.15,4.61-.01,5.64-.22,1.4-2.47,1.47-2.66-.14-.13-1.11-.15-4.73.01-5.79.07-.46.42-.89.89-1Z"/>
      <path class="cls-24" d="M110.11,67.1c.87-.19,1.51.27,1.61,1.14.13,1.11.15,4.73-.01,5.79-.22,1.4-2.47,1.47-2.66-.14-.13-1.07-.15-4.61.01-5.64.08-.49.56-1.05,1.05-1.15Z"/>
      <path class="cls-24" d="M83.81,91.52c.57,1.09,1.8,3.45.86,4.54-.63.73-1.61.52-2.11-.23-.76-1.14.34-3.15.93-4.21l.32-.1Z"/>
      <path class="cls-24" d="M73.15,92.94c.58,1.14,1.26,2.34,1.1,3.69-.21,1.8-2.76,1.51-2.67-.47.02-.45.97-3.64,1.57-3.22Z"/>
      <path class="cls-24" d="M94.17,92.94c.6-.42,1.55,2.77,1.57,3.22.09,2-2.45,2.24-2.68.47-.17-1.32.54-2.56,1.11-3.69Z"/>
    </g>
  </g>
  <g id="Kateg._Symbol" data-name="Kateg. Symbol">
    <g>
      <path class="cls-25" d="M16.91,14.58l-2.12.03.79-3.25c0-.3-.37-.37-.52-.12l-3.2,5.08c-.11.17,0,.4.2.43h2.18l-.8,3.16c-.04.26.17.44.41.3.86-1.32,1.71-2.66,2.54-4,.22-.35.55-.8.73-1.16.13-.25.06-.4-.21-.46Z"/>
      <path class="cls-25" d="M16.91,13.95l-2.12.03.6.79.7-2.86c.14-.56.17-1.23-.55-1.42-.56-.14-.9.25-1.16.66l-1.76,2.8c-.43.68-.92,1.35-1.29,2.05-.32.6.05,1.3.74,1.37.18.02.36,0,.54,0h1.64l-.6-.79-.48,1.88c-.15.61-.61,1.62-.1,2.15.25.26.62.32.95.19.41-.16.62-.67.85-1.02.48-.74.95-1.48,1.42-2.22.41-.66.86-1.3,1.25-1.98s.34-1.35-.46-1.61-1.1.96-.33,1.21l-.18-.41s-.05.08-.07.12c-.07.07-.13.21-.18.29-.11.18-.23.35-.35.53-.29.45-.57.9-.85,1.36-.59.94-1.19,1.87-1.8,2.81l.37-.29c.19.51.31.66.36.46v-.04s.02-.07.03-.09c.04-.12.06-.25.09-.37l.27-1.07.4-1.58c.1-.39-.19-.79-.6-.79h-1.86c-.07,0-.15-.01-.22,0-.02,0-.06,0-.08,0-.21.07.24.57.32.51.13-.1.24-.38.32-.52l.74-1.17,1.64-2.62c.14-.22.37-.48.46-.73s-.48-.62-.6-.36c-.06.13-.08.32-.11.46l-.67,2.74c-.09.39.19.8.6.79l2.12-.03c.8,0,.81-1.26,0-1.25Z"/>
    </g>
    <g>
      <path class="cls-25" d="M153.83,247.16l-2.12.03.79-3.25c0-.3-.37-.37-.52-.12l-3.2,5.08c-.11.17,0,.4.2.43h2.18l-.8,3.16c-.04.26.17.44.41.3.86-1.32,1.71-2.66,2.54-4,.22-.35.55-.8.73-1.16.13-.25.06-.4-.21-.46Z"/>
      <path class="cls-25" d="M153.83,246.54l-2.12.03.6.79.7-2.86c.14-.56.17-1.23-.55-1.42-.56-.14-.9.25-1.16.66l-1.76,2.8c-.43.68-.92,1.35-1.29,2.05-.32.6.05,1.3.74,1.37.18.02.36,0,.54,0h1.64l-.6-.79-.48,1.88c-.15.61-.61,1.62-.1,2.15.25.26.62.32.95.19.41-.16.62-.67.85-1.02.48-.74.95-1.48,1.42-2.22.41-.66.86-1.3,1.25-1.98s.34-1.35-.46-1.61-1.1.96-.33,1.21l-.18-.41s-.05.08-.07.12c-.07.07-.13.21-.18.29-.11.18-.23.35-.35.53-.29.45-.57.9-.85,1.36-.59.94-1.19,1.87-1.8,2.81l.37-.29c.19.51.31.66.36.46v-.04s.02-.07.03-.09c.04-.12.06-.25.09-.37l.27-1.07.4-1.58c.1-.39-.19-.79-.6-.79h-1.86c-.07,0-.15-.01-.22,0-.02,0-.06,0-.08,0-.21.07.24.57.32.51.13-.1.24-.38.32-.52l.74-1.17,1.64-2.62c.14-.22.37-.48.46-.73s-.48-.62-.6-.36c-.06.13-.08.32-.11.46l-.67,2.74c-.09.39.19.8.6.79l2.12-.03c.8,0,.81-1.26,0-1.25Z"/>
    </g>
  </g>
  <g id="Text_Karte" data-name="Text Karte">
    <g>
      <g class="cls-29">
        <text class="cls-9" transform="translate(29.52 179.29)"><tspan x="0" y="0">Nennt d</tspan></text>
        <text class="cls-5" transform="translate(67.64 179.29)"><tspan x="0" y="0">en Geburts</tspan></text>
        <text class="cls-4" transform="translate(121.27 179.29)"><tspan x="0" y="0">ta</tspan></text>
        <text class="cls-3" transform="translate(131.12 179.29)"><tspan x="0" y="0">g </tspan></text>
      </g>
      <text class="cls-21" transform="translate(29.52 179.29)"><tspan x="0" y="0">Nennt d</tspan></text>
      <text class="cls-20" transform="translate(67.64 179.29)"><tspan x="0" y="0">en Geburts</tspan></text>
      <text class="cls-15" transform="translate(121.27 179.29)"><tspan x="0" y="0">ta</tspan></text>
      <text class="cls-23" transform="translate(131.12 179.29)"><tspan x="0" y="0">g </tspan></text>
      <g class="cls-26">
        <text class="cls-3" transform="translate(26.37 191.28)"><tspan x="0" y="0">d</tspan></text>
        <text class="cls-10" transform="translate(32.62 191.28)"><tspan x="0" y="0">es an</tspan></text>
        <text class="cls-8" transform="translate(57.65 191.28)"><tspan x="0" y="0">der</tspan></text>
        <text class="cls-5" transform="translate(73.27 191.28)"><tspan x="0" y="0">en. </tspan></text>
        <text class="cls-6" transform="translate(89.98 191.28)"><tspan x="0" y="0">We</tspan></text>
        <text class="cls-2" transform="translate(105.84 191.28)"><tspan x="0" y="0">r </tspan></text>
        <text class="cls-7" transform="translate(112.83 191.28)"><tspan x="0" y="0">fa</tspan></text>
        <text class="cls-9" transform="translate(122.23 191.28)"><tspan x="0" y="0">lsch</tspan></text>
        <text class="cls-3" transform="translate(140.87 191.28)"><tspan x="0" y="0"> </tspan></text>
      </g>
      <text class="cls-23" transform="translate(26.37 191.28)"><tspan x="0" y="0">d</tspan></text>
      <text class="cls-19" transform="translate(32.62 191.28)"><tspan x="0" y="0">es an</tspan></text>
      <text class="cls-17" transform="translate(57.65 191.28)"><tspan x="0" y="0">der</tspan></text>
      <text class="cls-20" transform="translate(73.27 191.28)"><tspan x="0" y="0">en. </tspan></text>
      <text class="cls-22" transform="translate(89.98 191.28)"><tspan x="0" y="0">We</tspan></text>
      <text class="cls-18" transform="translate(105.84 191.28)"><tspan x="0" y="0">r </tspan></text>
      <text class="cls-16" transform="translate(112.83 191.28)"><tspan x="0" y="0">fa</tspan></text>
      <text class="cls-21" transform="translate(122.23 191.28)"><tspan x="0" y="0">lsch</tspan></text>
      <text class="cls-23" transform="translate(140.87 191.28)"><tspan x="0" y="0"> </tspan></text>
      <g class="cls-27">
        <text class="cls-5" transform="translate(39.44 203.28)"><tspan x="0" y="0">liegt, muss t</tspan></text>
        <text class="cls-2" transform="translate(95.8 203.28)"><tspan x="0" y="0">rink</tspan></text>
        <text class="cls-9" transform="translate(113.69 203.28)"><tspan x="0" y="0">en</tspan></text>
        <text class="cls-3" transform="translate(125.51 203.28)"><tspan x="0" y="0">.</tspan></text>
      </g>
      <text class="cls-20" transform="translate(39.44 203.28)"><tspan x="0" y="0">liegt, muss t</tspan></text>
      <text class="cls-18" transform="translate(95.8 203.28)"><tspan x="0" y="0">rink</tspan></text>
      <text class="cls-21" transform="translate(113.69 203.28)"><tspan x="0" y="0">en.</tspan></text>
    </g>
  </g>
</svg>