<?xml version="1.0" encoding="UTF-8"?>
<svg xmlns="http://www.w3.org/2000/svg" xmlns:xlink="http://www.w3.org/1999/xlink" viewBox="0 0 167.24 260.79">
  <defs>
    <style>
      .cls-1, .cls-2, .cls-3, .cls-4, .cls-5, .cls-6, .cls-7, .cls-8, .cls-9, .cls-10, .cls-11 {
        fill: none;
      }

      .cls-12 {
        fill: #010101;
      }

      .cls-13 {
        font-size: 15px;
      }

      .cls-13, .cls-14 {
        font-family: Namaku, Namaku;
      }

      .cls-13, .cls-15 {
        fill: #f5ae36;
      }

      .cls-2, .cls-3, .cls-14, .cls-4, .cls-5, .cls-6, .cls-7, .cls-8, .cls-9, .cls-10, .cls-11 {
        stroke: #fff;
      }

      .cls-2, .cls-3, .cls-4, .cls-5, .cls-6, .cls-7, .cls-16, .cls-17, .cls-18, .cls-19, .cls-20, .cls-21, .cls-22, .cls-23, .cls-24, .cls-8, .cls-25, .cls-9, .cls-10, .cls-11 {
        font-family: QuicksandBold-Regular, Quicksand;
        font-size: 10px;
      }

      .cls-2, .cls-18 {
        letter-spacing: -.02em;
      }

      .cls-26 {
        fill: #171717;
      }

      .cls-14 {
        font-size: 12px;
        stroke-miterlimit: 10;
        stroke-width: .15px;
      }

      .cls-14, .cls-27, .cls-16, .cls-17, .cls-18, .cls-19, .cls-20, .cls-21, .cls-22, .cls-23, .cls-24, .cls-25 {
        fill: #fff;
      }

      .cls-4, .cls-22 {
        letter-spacing: -.09em;
      }

      .cls-28 {
        clip-path: url(#clippath-1);
      }

      .cls-29 {
        clip-path: url(#clippath-2);
      }

      .cls-5, .cls-17 {
        letter-spacing: -.04em;
      }

      .cls-6, .cls-20 {
        letter-spacing: -.02em;
      }

      .cls-7, .cls-16 {
        letter-spacing: -.04em;
      }

      .cls-30 {
        fill: #171715;
      }

      .cls-19, .cls-11 {
        letter-spacing: -.02em;
      }

      .cls-21, .cls-10 {
        letter-spacing: -.02em;
      }

      .cls-23, .cls-9 {
        letter-spacing: -.09em;
      }

      .cls-24, .cls-8 {
        letter-spacing: -.07em;
      }

      .cls-31 {
        clip-path: url(#clippath);
      }
    </style>
    <clipPath id="clippath">
      <rect class="cls-1" x="0" y="0" width="167.24" height="260.79"/>
    </clipPath>
    <clipPath id="clippath-1">
      <rect class="cls-1" x="0" y="0" width="167.24" height="260.79"/>
    </clipPath>
    <clipPath id="clippath-2">
      <rect class="cls-1" x="0" y="0" width="167.24" height="260.79"/>
    </clipPath>
  </defs>
  <g id="Background">
    <rect class="cls-15" width="167.24" height="260.79"/>
  </g>
  <g id="Rahmen">
    <path class="cls-12" d="M151.9,23.16c9.65,0,9.67-15,0-15s-9.67,15,0,15h0Z"/>
    <path class="cls-12" d="M152.22,254.59c9.65,0,9.67-15,0-15s-9.67,15,0,15h0Z"/>
    <path class="cls-12" d="M14.14,254.72c9.65,0,9.67-15,0-15s-9.67,15,0,15h0Z"/>
    <path class="cls-26" d="M11.56,15.67c18.49.32,36.98.69,55.46,1.04,19.51.36,39.05-.42,58.56-.82,10.18-.21,20.36-.38,30.54-.21l-3.75-3.75c-1.46,11.81-1.7,23.8-1.97,35.69-.33,14.15-.39,28.31-.37,42.46.01,9.3.14,18.61.07,27.91-.06,7.86-.43,15.71-.48,23.57-.07,11.29.08,22.59.37,33.88.56,22.38,1.59,44.74,2.18,67.12.07,2.79.14,5.57.2,8.36l3.75-3.75c-15.41-.13-30.81.06-46.22.48-24.85.69-49.67.84-74.52.24-8.25-.2-16.49-.49-24.74-.73l3.75,3.75c-.56-4.87-.34-9.89-.27-14.78.11-8.38.38-16.76.66-25.14.66-20.11,1.45-40.22,1.83-60.34.16-8.4.26-16.81.05-25.21-.13-5.24-.51-10.46-.61-15.7-.33-17.03-.19-34.08-.18-51.11,0-8.91,0-17.82-.06-26.73-.04-5.94-.04-11.89-.34-17.82-.04-.72-.08-1.43-.15-2.15-.19-1.95-1.59-3.85-3.75-3.75-1.87.08-3.96,1.66-3.75,3.75.48,4.83.39,9.76.44,14.61.09,8.42.1,16.84.11,25.25,0,17.78-.1,35.55.11,53.33.06,5.22.27,10.41.52,15.62.36,7.73.31,15.47.21,23.21-.24,20.03-1.02,40.04-1.7,60.06-.3,8.95-.6,17.9-.79,26.85-.13,5.9-.3,11.84,0,17.74.04.78.09,1.55.18,2.32.24,2.06,1.53,3.69,3.75,3.75,18.27.53,36.53,1.09,54.81,1.16,23.38.09,46.73-.97,70.1-1.19,6.85-.06,13.71-.03,20.56.02,2,.02,3.79-1.73,3.75-3.75-.48-22.44-1.5-44.87-2.16-67.3-.33-11.25-.57-22.51-.6-33.77-.03-10.16.25-20.29.47-30.44.18-8.23-.03-16.48-.05-24.72-.03-13.94,0-27.88.25-41.82.23-12.54.48-25.14,1.72-37.62.11-1.1.23-2.21.37-3.31.25-2.04-1.92-3.72-3.75-3.75-19.14-.32-38.3.42-57.44.81-9.78.2-19.58.45-29.37.27-7.76-.14-15.52-.3-23.28-.45-11.49-.22-22.99-.44-34.48-.63-1.96-.03-3.84,1.75-3.75,3.75s1.65,3.71,3.75,3.75h0Z"/>
    <polygon class="cls-26" points="26.61 14.43 14.5 29.16 14.18 13.04 26.61 14.43"/>
    <polygon class="cls-26" points="140.79 14.16 152.35 27.66 154.57 11.89 140.79 14.16"/>
    <polygon class="cls-26" points="139.48 248.15 153.14 235.93 156.07 248.65 139.48 248.15"/>
    <polygon class="cls-26" points="12.9 235.54 26.24 248.54 12.31 249.36 12.9 235.54"/>
    <rect class="cls-26" width="10.32" height="260.79"/>
    <rect class="cls-26" y="249.36" width="167.24" height="11.43"/>
    <rect class="cls-30" width="167.24" height="10.33"/>
    <rect class="cls-26" x="156.12" width="11.13" height="260.79"/>
    <path class="cls-26" d="M107.87,17.19c0-.85.22-3.85,0-4.78-.58-2.49-2.21-2.81-3.8-2.81h-40.89c-1.59,0-3.22.32-3.8,2.81-.22.93,0,3.93,0,4.78l-.17,5.71c-.35,5.31,5.43,4.59,7.62,4.59l12.59.37,4.21-.07h0l4.21.07,12.59-.37c2.19,0,7.96.72,7.62-4.59l-.17-5.71Z"/>
    <path class="cls-12" d="M151.9,23.16c9.65,0,9.67-15,0-15s-9.67,15,0,15h0Z"/>
    <path class="cls-12" d="M152.22,254.59c9.65,0,9.67-15,0-15s-9.67,15,0,15h0Z"/>
    <path class="cls-12" d="M14.14,254.72c9.65,0,9.67-15,0-15s-9.67,15,0,15h0Z"/>
    <path class="cls-26" d="M11.56,15.67c18.49.32,36.98.69,55.46,1.04,19.51.36,39.05-.42,58.56-.82,10.18-.21,20.36-.38,30.54-.21l-3.75-3.75c-1.46,11.81-1.7,23.8-1.97,35.69-.33,14.15-.39,28.31-.37,42.46.01,9.3.14,18.61.07,27.91-.06,7.86-.43,15.71-.48,23.57-.07,11.29.08,22.59.37,33.88.56,22.38,1.59,44.74,2.18,67.12.07,2.79.14,5.57.2,8.36l3.75-3.75c-15.41-.13-30.81.06-46.22.48-24.85.69-49.67.84-74.52.24-8.25-.2-16.49-.49-24.74-.73l3.75,3.75c-.56-4.87-.34-9.89-.27-14.78.11-8.38.38-16.76.66-25.14.66-20.11,1.45-40.22,1.83-60.34.16-8.4.26-16.81.05-25.21-.13-5.24-.51-10.46-.61-15.7-.33-17.03-.19-34.08-.18-51.11,0-8.91,0-17.82-.06-26.73-.04-5.94-.04-11.89-.34-17.82-.04-.72-.08-1.43-.15-2.15-.19-1.95-1.59-3.85-3.75-3.75-1.87.08-3.96,1.66-3.75,3.75.48,4.83.39,9.76.44,14.61.09,8.42.1,16.84.11,25.25,0,17.78-.1,35.55.11,53.33.06,5.22.27,10.41.52,15.62.36,7.73.31,15.47.21,23.21-.24,20.03-1.02,40.04-1.7,60.06-.3,8.95-.6,17.9-.79,26.85-.13,5.9-.3,11.84,0,17.74.04.78.09,1.55.18,2.32.24,2.06,1.53,3.69,3.75,3.75,18.27.53,36.53,1.09,54.81,1.16,23.38.09,46.73-.97,70.1-1.19,6.85-.06,13.71-.03,20.56.02,2,.02,3.79-1.73,3.75-3.75-.48-22.44-1.5-44.87-2.16-67.3-.33-11.25-.57-22.51-.6-33.77-.03-10.16.25-20.29.47-30.44.18-8.23-.03-16.48-.05-24.72-.03-13.94,0-27.88.25-41.82.23-12.54.48-25.14,1.72-37.62.11-1.1.23-2.21.37-3.31.25-2.04-1.92-3.72-3.75-3.75-19.14-.32-38.3.42-57.44.81-9.78.2-19.58.45-29.37.27-7.76-.14-15.52-.3-23.28-.45-11.49-.22-22.99-.44-34.48-.63-1.96-.03-3.84,1.75-3.75,3.75s1.65,3.71,3.75,3.75h0Z"/>
    <polygon class="cls-26" points="26.61 14.43 14.5 29.16 14.18 13.04 26.61 14.43"/>
    <polygon class="cls-26" points="140.79 14.16 152.35 27.66 154.57 11.89 140.79 14.16"/>
    <polygon class="cls-26" points="139.48 248.15 153.14 235.93 156.07 248.65 139.48 248.15"/>
    <polygon class="cls-26" points="12.9 235.54 26.24 248.54 12.31 249.36 12.9 235.54"/>
    <rect class="cls-26" width="10.32" height="260.79"/>
    <rect class="cls-26" y="249.36" width="167.24" height="11.43"/>
    <rect class="cls-30" width="167.24" height="10.33"/>
    <rect class="cls-26" x="156.12" width="11.13" height="260.79"/>
  </g>
  <g id="Kategorie_Name" data-name="Kategorie Name">
    <text class="cls-13" transform="translate(63.91 22.56) scale(1 1.09)"><tspan x="0" y="0">duell</tspan></text>
  </g>
  <g id="Schlücke">
    <text class="cls-14" transform="translate(4.4 252.82)"><tspan x="0" y="0">+3</tspan></text>
    <text class="cls-14" transform="translate(147.68 19.77)"><tspan x="0" y="0">+3</tspan></text>
  </g>
  <g id="Motive">
    <g>
      <g>
        <g>
          <path class="cls-26" d="M57.15,117.88c.15-.1.01-.48.21-.39l1.85,1.48-.15.5c-2.31.72-2.95,2.71-2.27,4.56.32.87-.24,1.78-1.12,2.04-.37.11-.73.25-1.11.42-.67.31-3.21,1.95-2.62,2.81.62.91,2.58-1.17,3.41-1.53,1.82-.79,3.53-.52,5.17.58,1.09.73,1.6,2.24,3.12,1.93.08-.59-.07-.98-.38-1.46-.89-1.42-4.77-4.14-5.17-5.41-.6-1.89,1.5-3.29,3.22-2.23.58.36,5.54,5.37,6.02,6.04,3.33,4.66-4.14,9.43-8.46,8.95-.85-.09-1.81-.65-2.52-.71-1.07-.08-2.35,1.66-3.53,2.87-.64.66-1.7.66-2.34,0l-6.61-6.76c-.63-.64-.62-1.67.01-2.3l2.41-2.42c.4-.4.56-.98.43-1.53-.19-.84-.56-1.93-.57-2.54-.04-2.78,1.23-4.7,2.92-6.44.8-.83,2.14-.58,2.67.45.97,1.89,3.17,2.69,5.42,1.09Z"/>
          <path class="cls-26" d="M81.02,116.91l-12.46,7.52c-.67.4-1.52.32-2.1-.2l-3.4-3.06c-.84-.76-.77-2.1.15-2.76h0c.19-.14.35-.31.47-.5l6.99-11.23c1.52-1.45,3.72-.32,3.46,1.72l-6.44,10.57c-.36.89.11,1.57,1.05,1.05l10.3-6.45c2.13-.38,3.4,1.71,1.99,3.35Z"/>
          <path class="cls-26" d="M56.92,108.93c1.78-.41,2.94.96,2.42,2.67-.11.37-2.65,4.6-2.95,4.92-1.6,1.69-4.17.32-3.47-1.99.12-.4,2.63-4.51,2.98-4.9.31-.34.54-.59,1.02-.7Z"/>
          <path class="cls-26" d="M62.83,109.66c1.77-.39,2.87.96,2.41,2.67-.19.71-2.75,4.88-3.31,5.3-1.53,1.14-3.57-.21-3.11-2.11.11-.45,2.62-4.75,2.99-5.15.31-.34.56-.6,1.02-.71Z"/>
        </g>
        <path class="cls-26" d="M114.85,126.88c.12-1.29-1.17-1.79-1.71-3.05-1.18-2.78-.12-4.34,1.43-6.19.52-.62.51-1.54-.05-2.13-1.58-1.67-4.51-3.61-3.98-5.35s2.23-1.7,3.47-.73,6.57,6.46,7.46,7.79c1.4,2.11,1.59,4.75.79,7.11-.2.59-.52,1.09-.8,1.61-.32.59-.24,1.32.21,1.82l1.8,2.04c.56.63.53,1.59-.07,2.19l-6.36,6.36c-.61.61-1.59.63-2.22.04l-2.46-2.27c-.37-.35-.89-.5-1.39-.4-2.22.46-4.4.62-6.51-.5-1.69-.89-8.15-7.42-9.77-9.18-.43-.46-2.3-2.42-2.41-2.77-.37-1.22.47-2.35,1.6-2.53.47-.08.94.1,1.28.42l5.2,4.86c.6.29,1.19.24,1.13-.49-.09-1.07-8.81-8.76-9.99-10.33-1.29-1.94.56-3.9,2.6-2.85l8.15,8.11c.58.38,1.18.07,1.22-.59l-10.99-11.31c-1.13-1.97.98-3.99,2.85-2.6l10.57,10.6c1.02.67,1.79-.1,1.08-1.09l-8.4-8.33c-.87-2.2,1.25-3.81,3.15-2.4l10.8,10.79c.59.59.63,1.54.09,2.17-.16.19-.31.36-.38.5-1.17,2.15-1.52,3.94-.42,6.24.47.99,1.83,3.23,3.07,2.43Z"/>
      </g>
      <g>
        <path class="cls-26" d="M91.61,68.81v4.21c0,.49.24.96.66,1.22,2.38,1.49,4.61,3.96,4.98,6.78.18,1.38-.05,2.91-.01,4.36.02.9-.78,1.56-1.68,1.46-.66-.07-1.29-.03-1.9.25-.56.26-1.24.17-1.67-.29-1.14-1.22-2.52-1.46-4.14-.92-.59.2-1.22,0-1.64-.45-.45-.49-1-.81-1.61-.99-.94-.27-1.27-1.44-.71-2.24.05-.07.09-.13.12-.17.74-1.32,1.48-3.7,1.19-5.21-.1-.51-.3-.68-.86-.63-.95.09-.52,1.38-.65,2.08-.92,5.16-3.94,6.17-8.82,6.07l-.02,1.05c.19.81,8.02.18,9.37.53,2.3.6,2.12,4.48-.36,4.82-1.51.2-9.7.2-10.97-.13-1.98-.52-2.82-2.84-2.96-4.67-.41-5.49,1.94-10.85,7.83-11.76.06-.04.31-.52.31-.56v-4.81c0-.81.66-1.47,1.47-1.47h10.6c.81,0,1.47.66,1.47,1.47Z"/>
        <path class="cls-26" d="M88.84,87.07c.63-.13,1.57.15,2.02.58,1.03.99.94,6.57.64,8-.56,2.67-4.01,2.53-4.33-.13-.16-1.33-.16-5.32.06-6.59.14-.8.77-1.69,1.6-1.86Z"/>
        <path class="cls-26" d="M93.66,95.81c-.77-.7-.75-4.85-.52-5.9.47-2.11,3.67-2.09,4.08-.25.17.78.17,4.52,0,5.31-.34,1.51-2.52,1.78-3.56.84Z"/>
        <path class="cls-26" d="M84.53,92.09c.61-.12,1.17.35,1.17.98v4.42c0,.52-1.38,1.47-1.91,1.56-3.11.51-2.64-4.74-2.41-6.62l.3-.2c1.02-.04,1.93.04,2.85-.14Z"/>
        <path class="cls-26" d="M78.89,92.2c.5,0,.91.41.91.91v2.9c0,.59-1.39,1.61-2.09,1.61-.58,0-2.09-1.01-2.09-1.37v-3.15c0-.5.41-.91.91-.91h2.36Z"/>
      </g>
    </g>
  </g>
  <g id="Kateg._Symbol" data-name="Kateg. Symbol">
    <g>
      <path class="cls-27" d="M16.91,14.58l-2.12.03.79-3.25c0-.3-.37-.37-.52-.12l-3.2,5.08c-.11.17,0,.4.2.43h2.18l-.8,3.16c-.04.26.17.44.41.3.86-1.32,1.71-2.66,2.54-4,.22-.35.55-.8.73-1.16.13-.25.06-.4-.21-.46Z"/>
      <path class="cls-27" d="M16.91,13.95l-2.12.03.6.79.7-2.86c.14-.56.17-1.23-.55-1.42-.56-.14-.9.25-1.16.66l-1.76,2.8c-.43.68-.92,1.35-1.29,2.05-.32.6.05,1.3.74,1.37.18.02.36,0,.54,0h1.64l-.6-.79c-.16.63-.32,1.25-.48,1.88s-.61,1.62-.1,2.15c.25.26.62.32.95.19.41-.16.62-.67.85-1.02.48-.74.95-1.48,1.42-2.22.41-.66.86-1.3,1.25-1.98s.34-1.35-.46-1.61-1.1.96-.33,1.21l-.18-.41s-.05.08-.07.12c-.07.07-.13.21-.18.29-.11.18-.23.35-.35.53-.29.45-.57.9-.85,1.36-.59.94-1.19,1.87-1.8,2.81l.37-.29c.19.51.31.66.36.46v-.04s.02-.07.03-.09c.04-.12.06-.25.09-.37l.27-1.07.4-1.58c.1-.39-.19-.79-.6-.79h-1.86c-.07,0-.15-.01-.22,0-.02,0-.06,0-.08,0-.21.07.24.57.32.51.13-.1.24-.38.32-.52l.74-1.17,1.64-2.62c.14-.22.37-.48.46-.73s-.48-.62-.6-.36c-.06.13-.08.32-.11.46l-.67,2.74c-.09.39.19.8.6.79l2.12-.03c.8,0,.81-1.26,0-1.25Z"/>
    </g>
    <g>
      <path class="cls-27" d="M153.83,247.16l-2.12.03.79-3.25c0-.3-.37-.37-.52-.12l-3.2,5.08c-.11.17,0,.4.2.43h2.18l-.8,3.16c-.04.26.17.44.41.3.86-1.32,1.71-2.66,2.54-4,.22-.35.55-.8.73-1.16.13-.25.06-.4-.21-.46Z"/>
      <path class="cls-27" d="M153.83,246.54l-2.12.03.6.79.7-2.86c.14-.56.17-1.23-.55-1.42-.56-.14-.9.25-1.16.66l-1.76,2.8c-.43.68-.92,1.35-1.29,2.05-.32.6.05,1.3.74,1.37.18.02.36,0,.54,0h1.64l-.6-.79c-.16.63-.32,1.25-.48,1.88s-.61,1.62-.1,2.15c.25.26.62.32.95.19.41-.16.62-.67.85-1.02.48-.74.95-1.48,1.42-2.22.41-.66.86-1.3,1.25-1.98s.34-1.35-.46-1.61-1.1.96-.33,1.21l-.18-.41s-.05.08-.07.12c-.07.07-.13.21-.18.29-.11.18-.23.35-.35.53-.29.45-.57.9-.85,1.36-.59.94-1.19,1.87-1.8,2.81l.37-.29c.19.51.31.66.36.46v-.04s.02-.07.03-.09c.04-.12.06-.25.09-.37l.27-1.07c.13-.53.27-1.05.4-1.58.1-.39-.19-.79-.6-.79h-1.86c-.07,0-.15-.01-.22,0-.02,0-.06,0-.08,0-.21.07.24.57.32.51.13-.1.24-.38.32-.52l.74-1.17,1.64-2.62c.14-.22.37-.48.46-.73s-.48-.62-.6-.36c-.06.13-.08.32-.11.46l-.67,2.74c-.09.39.19.8.6.79l2.12-.03c.8,0,.81-1.26,0-1.25Z"/>
    </g>
  </g>
  <g id="Text_Karte" data-name="Text Karte">
    <g>
      <g class="cls-31">
        <text class="cls-10" transform="translate(33.77 179.29)"><tspan x="0" y="0">Sche</tspan></text>
        <text class="cls-8" transform="translate(57.36 179.29)"><tspan x="0" y="0">re</tspan></text>
        <text class="cls-11" transform="translate(66.84 179.29)"><tspan x="0" y="0">, St</tspan></text>
        <text class="cls-10" transform="translate(81.55 179.29)"><tspan x="0" y="0">ein, Pap</tspan></text>
        <text class="cls-2" transform="translate(118.6 179.29)"><tspan x="0" y="0">ie</tspan></text>
        <text class="cls-2" transform="translate(126.88 179.29)"><tspan x="0" y="0">r:</tspan></text>
        <text class="cls-3" transform="translate(133.48 179.29)"><tspan x="0" y="0"> </tspan></text>
      </g>
      <text class="cls-21" transform="translate(33.77 179.29)"><tspan x="0" y="0">Sche</tspan></text>
      <text class="cls-24" transform="translate(57.36 179.29)"><tspan x="0" y="0">re</tspan></text>
      <text class="cls-19" transform="translate(66.84 179.29)"><tspan x="0" y="0">, St</tspan></text>
      <text class="cls-21" transform="translate(81.55 179.29)"><tspan x="0" y="0">ein, Pap</tspan></text>
      <text class="cls-18" transform="translate(118.6 179.29)"><tspan x="0" y="0">ie</tspan></text>
      <text class="cls-18" transform="translate(126.88 179.29)"><tspan x="0" y="0">r:</tspan></text>
      <text class="cls-25" transform="translate(133.48 179.29)"><tspan x="0" y="0"> </tspan></text>
      <g class="cls-28">
        <text class="cls-9" transform="translate(21.78 191.28)"><tspan x="0" y="0">Fo</tspan></text>
        <text class="cls-7" transform="translate(32.75 191.28)"><tspan x="0" y="0">rder</tspan></text>
        <text class="cls-6" transform="translate(52.31 191.28)"><tspan x="0" y="0">e jema</tspan></text>
        <text class="cls-5" transform="translate(84.38 191.28)"><tspan x="0" y="0">nd</tspan></text>
        <text class="cls-10" transform="translate(96.36 191.28)"><tspan x="0" y="0">en he</tspan></text>
        <text class="cls-3" transform="translate(122.59 191.28)"><tspan x="0" y="0">r</tspan></text>
        <text class="cls-2" transform="translate(126.53 191.28)"><tspan x="0" y="0">aus</tspan></text>
        <text class="cls-3" transform="translate(143.16 191.28)"><tspan x="0" y="0">. </tspan></text>
      </g>
      <text class="cls-23" transform="translate(21.78 191.28)"><tspan x="0" y="0">Fo</tspan></text>
      <text class="cls-16" transform="translate(32.75 191.28)"><tspan x="0" y="0">rder</tspan></text>
      <text class="cls-20" transform="translate(52.31 191.28)"><tspan x="0" y="0">e jema</tspan></text>
      <text class="cls-17" transform="translate(84.38 191.28)"><tspan x="0" y="0">nd</tspan></text>
      <text class="cls-21" transform="translate(96.36 191.28)"><tspan x="0" y="0">en he</tspan></text>
      <text class="cls-25" transform="translate(122.59 191.28)"><tspan x="0" y="0">r</tspan></text>
      <text class="cls-18" transform="translate(126.53 191.28)"><tspan x="0" y="0">aus.</tspan></text>
      <text class="cls-25" transform="translate(145.47 191.28)"><tspan x="0" y="0"> </tspan></text>
      <g class="cls-29">
        <text class="cls-10" transform="translate(20.85 203.28)"><tspan x="0" y="0">De</tspan></text>
        <text class="cls-10" transform="translate(33.52 203.28)"><tspan x="0" y="0">r </tspan></text>
        <text class="cls-4" transform="translate(40.51 203.28)"><tspan x="0" y="0">Ve</tspan></text>
        <text class="cls-10" transform="translate(52.79 203.28)"><tspan x="0" y="0">rlie</tspan></text>
        <text class="cls-8" transform="translate(67.56 203.28)"><tspan x="0" y="0">re</tspan></text>
        <text class="cls-10" transform="translate(76.93 203.28)"><tspan x="0" y="0">r muss t</tspan></text>
        <text class="cls-2" transform="translate(114.39 203.28)"><tspan x="0" y="0">rink</tspan></text>
        <text class="cls-10" transform="translate(132.27 203.28)"><tspan x="0" y="0">en</tspan></text>
        <text class="cls-3" transform="translate(144.09 203.28)"><tspan x="0" y="0">.</tspan></text>
      </g>
      <text class="cls-21" transform="translate(20.85 203.28)"><tspan x="0" y="0">De</tspan></text>
      <text class="cls-21" transform="translate(33.52 203.28)"><tspan x="0" y="0">r </tspan></text>
      <text class="cls-22" transform="translate(40.51 203.28)"><tspan x="0" y="0">Ve</tspan></text>
      <text class="cls-21" transform="translate(52.79 203.28)"><tspan x="0" y="0">rlie</tspan></text>
      <text class="cls-24" transform="translate(67.56 203.28)"><tspan x="0" y="0">re</tspan></text>
      <text class="cls-21" transform="translate(76.93 203.28)"><tspan x="0" y="0">r muss t</tspan></text>
      <text class="cls-18" transform="translate(114.39 203.28)"><tspan x="0" y="0">rink</tspan></text>
      <text class="cls-21" transform="translate(132.27 203.28)"><tspan x="0" y="0">en.</tspan></text>
    </g>
  </g>
</svg>