<?xml version="1.0" encoding="UTF-8"?>
<svg xmlns="http://www.w3.org/2000/svg" xmlns:xlink="http://www.w3.org/1999/xlink" viewBox="0 0 167.24 260.79">
  <defs>
    <style>
      .cls-1, .cls-2, .cls-3, .cls-4, .cls-5, .cls-6, .cls-7, .cls-8, .cls-9 {
        fill: none;
      }

      .cls-10 {
        fill: #010101;
      }

      .cls-11 {
        font-size: 15px;
      }

      .cls-11, .cls-12 {
        font-family: Namaku, Namaku;
      }

      .cls-11, .cls-13 {
        fill: #f5ae36;
      }

      .cls-2, .cls-3, .cls-12, .cls-4, .cls-5, .cls-6, .cls-7, .cls-8, .cls-9 {
        stroke: #fff;
      }

      .cls-2, .cls-3, .cls-4, .cls-5, .cls-14, .cls-6, .cls-15, .cls-16, .cls-17, .cls-18, .cls-19, .cls-20, .cls-7, .cls-21, .cls-8, .cls-9 {
        font-family: QuicksandBold-Regular, Quicksand;
        font-size: 10px;
      }

      .cls-2, .cls-15 {
        letter-spacing: -.02em;
      }

      .cls-22 {
        fill: #171717;
      }

      .cls-12 {
        font-size: 12px;
        stroke-miterlimit: 10;
        stroke-width: .15px;
      }

      .cls-12, .cls-23, .cls-14, .cls-15, .cls-16, .cls-17, .cls-18, .cls-19, .cls-20, .cls-21 {
        fill: #fff;
      }

      .cls-4, .cls-19 {
        letter-spacing: -.09em;
      }

      .cls-24 {
        clip-path: url(#clippath-1);
      }

      .cls-25 {
        clip-path: url(#clippath-2);
      }

      .cls-5, .cls-16 {
        letter-spacing: -.02em;
      }

      .cls-14, .cls-8 {
        letter-spacing: -.03em;
      }

      .cls-6, .cls-18 {
        letter-spacing: -.09em;
      }

      .cls-26 {
        fill: #171715;
      }

      .cls-17, .cls-9 {
        letter-spacing: -.02em;
      }

      .cls-20, .cls-7 {
        letter-spacing: -.07em;
      }

      .cls-27 {
        clip-path: url(#clippath);
      }
    </style>
    <clipPath id="clippath">
      <rect class="cls-1" x="0" y="0" width="167.24" height="260.79"/>
    </clipPath>
    <clipPath id="clippath-1">
      <rect class="cls-1" x="0" y="0" width="167.24" height="260.79"/>
    </clipPath>
    <clipPath id="clippath-2">
      <rect class="cls-1" x="0" y="0" width="167.24" height="260.79"/>
    </clipPath>
  </defs>
  <g id="Background">
    <rect class="cls-13" width="167.24" height="260.79"/>
  </g>
  <g id="Rahmen">
    <path class="cls-10" d="M151.9,23.16c9.65,0,9.67-15,0-15s-9.67,15,0,15h0Z"/>
    <path class="cls-10" d="M152.22,254.59c9.65,0,9.67-15,0-15s-9.67,15,0,15h0Z"/>
    <path class="cls-10" d="M14.14,254.72c9.65,0,9.67-15,0-15s-9.67,15,0,15h0Z"/>
    <path class="cls-22" d="M11.56,15.67c18.49.32,36.98.69,55.46,1.04,19.51.36,39.05-.42,58.56-.82,10.18-.21,20.36-.38,30.54-.21l-3.75-3.75c-1.46,11.81-1.7,23.8-1.97,35.69-.33,14.15-.39,28.31-.37,42.46.01,9.3.14,18.61.07,27.91-.06,7.86-.43,15.71-.48,23.57-.07,11.29.08,22.59.37,33.88.56,22.38,1.59,44.74,2.18,67.12.07,2.79.14,5.57.2,8.36l3.75-3.75c-15.41-.13-30.81.06-46.22.48-24.85.69-49.67.84-74.52.24-8.25-.2-16.49-.49-24.74-.73l3.75,3.75c-.56-4.87-.34-9.89-.27-14.78.11-8.38.38-16.76.66-25.14.66-20.11,1.45-40.22,1.83-60.34.16-8.4.26-16.81.05-25.21-.13-5.24-.51-10.46-.61-15.7-.33-17.03-.19-34.08-.18-51.11,0-8.91,0-17.82-.06-26.73-.04-5.94-.04-11.89-.34-17.82-.04-.72-.08-1.43-.15-2.15-.19-1.95-1.59-3.85-3.75-3.75-1.87.08-3.96,1.66-3.75,3.75.48,4.83.39,9.76.44,14.61.09,8.42.1,16.84.11,25.25,0,17.78-.1,35.55.11,53.33.06,5.22.27,10.41.52,15.62.36,7.73.31,15.47.21,23.21-.24,20.03-1.02,40.04-1.7,60.06-.3,8.95-.6,17.9-.79,26.85-.13,5.9-.3,11.84,0,17.74.04.78.09,1.55.18,2.32.24,2.06,1.53,3.69,3.75,3.75,18.27.53,36.53,1.09,54.81,1.16,23.38.09,46.73-.97,70.1-1.19,6.85-.06,13.71-.03,20.56.02,2,.02,3.79-1.73,3.75-3.75-.48-22.44-1.5-44.87-2.16-67.3-.33-11.25-.57-22.51-.6-33.77-.03-10.16.25-20.29.47-30.44.18-8.23-.03-16.48-.05-24.72-.03-13.94,0-27.88.25-41.82.23-12.54.48-25.14,1.72-37.62.11-1.1.23-2.21.37-3.31.25-2.04-1.92-3.72-3.75-3.75-19.14-.32-38.3.42-57.44.81-9.78.2-19.58.45-29.37.27-7.76-.14-15.52-.3-23.28-.45-11.49-.22-22.99-.44-34.48-.63-1.96-.03-3.84,1.75-3.75,3.75s1.65,3.71,3.75,3.75h0Z"/>
    <polygon class="cls-22" points="26.61 14.43 14.5 29.16 14.18 13.04 26.61 14.43"/>
    <polygon class="cls-22" points="140.79 14.16 152.35 27.66 154.57 11.89 140.79 14.16"/>
    <polygon class="cls-22" points="139.48 248.15 153.14 235.93 156.07 248.65 139.48 248.15"/>
    <polygon class="cls-22" points="12.9 235.54 26.24 248.54 12.31 249.36 12.9 235.54"/>
    <rect class="cls-22" width="10.32" height="260.79"/>
    <rect class="cls-22" y="249.36" width="167.24" height="11.43"/>
    <rect class="cls-26" width="167.24" height="10.33"/>
    <rect class="cls-22" x="156.12" width="11.13" height="260.79"/>
    <path class="cls-22" d="M107.87,17.19c0-.85.22-3.85,0-4.78-.58-2.49-2.21-2.81-3.8-2.81h-40.89c-1.59,0-3.22.32-3.8,2.81-.22.93,0,3.93,0,4.78l-.17,5.71c-.35,5.31,5.43,4.59,7.62,4.59l12.59.37,4.21-.07h0l4.21.07,12.59-.37c2.19,0,7.96.72,7.62-4.59l-.17-5.71Z"/>
    <path class="cls-10" d="M151.9,23.16c9.65,0,9.67-15,0-15s-9.67,15,0,15h0Z"/>
    <path class="cls-10" d="M152.22,254.59c9.65,0,9.67-15,0-15s-9.67,15,0,15h0Z"/>
    <path class="cls-10" d="M14.14,254.72c9.65,0,9.67-15,0-15s-9.67,15,0,15h0Z"/>
    <path class="cls-22" d="M11.56,15.67c18.49.32,36.98.69,55.46,1.04,19.51.36,39.05-.42,58.56-.82,10.18-.21,20.36-.38,30.54-.21l-3.75-3.75c-1.46,11.81-1.7,23.8-1.97,35.69-.33,14.15-.39,28.31-.37,42.46.01,9.3.14,18.61.07,27.91-.06,7.86-.43,15.71-.48,23.57-.07,11.29.08,22.59.37,33.88.56,22.38,1.59,44.74,2.18,67.12.07,2.79.14,5.57.2,8.36l3.75-3.75c-15.41-.13-30.81.06-46.22.48-24.85.69-49.67.84-74.52.24-8.25-.2-16.49-.49-24.74-.73l3.75,3.75c-.56-4.87-.34-9.89-.27-14.78.11-8.38.38-16.76.66-25.14.66-20.11,1.45-40.22,1.83-60.34.16-8.4.26-16.81.05-25.21-.13-5.24-.51-10.46-.61-15.7-.33-17.03-.19-34.08-.18-51.11,0-8.91,0-17.82-.06-26.73-.04-5.94-.04-11.89-.34-17.82-.04-.72-.08-1.43-.15-2.15-.19-1.95-1.59-3.85-3.75-3.75-1.87.08-3.96,1.66-3.75,3.75.48,4.83.39,9.76.44,14.61.09,8.42.1,16.84.11,25.25,0,17.78-.1,35.55.11,53.33.06,5.22.27,10.41.52,15.62.36,7.73.31,15.47.21,23.21-.24,20.03-1.02,40.04-1.7,60.06-.3,8.95-.6,17.9-.79,26.85-.13,5.9-.3,11.84,0,17.74.04.78.09,1.55.18,2.32.24,2.06,1.53,3.69,3.75,3.75,18.27.53,36.53,1.09,54.81,1.16,23.38.09,46.73-.97,70.1-1.19,6.85-.06,13.71-.03,20.56.02,2,.02,3.79-1.73,3.75-3.75-.48-22.44-1.5-44.87-2.16-67.3-.33-11.25-.57-22.51-.6-33.77-.03-10.16.25-20.29.47-30.44.18-8.23-.03-16.48-.05-24.72-.03-13.94,0-27.88.25-41.82.23-12.54.48-25.14,1.72-37.62.11-1.1.23-2.21.37-3.31.25-2.04-1.92-3.72-3.75-3.75-19.14-.32-38.3.42-57.44.81-9.78.2-19.58.45-29.37.27-7.76-.14-15.52-.3-23.28-.45-11.49-.22-22.99-.44-34.48-.63-1.96-.03-3.84,1.75-3.75,3.75s1.65,3.71,3.75,3.75h0Z"/>
    <polygon class="cls-22" points="26.61 14.43 14.5 29.16 14.18 13.04 26.61 14.43"/>
    <polygon class="cls-22" points="140.79 14.16 152.35 27.66 154.57 11.89 140.79 14.16"/>
    <polygon class="cls-22" points="139.48 248.15 153.14 235.93 156.07 248.65 139.48 248.15"/>
    <polygon class="cls-22" points="12.9 235.54 26.24 248.54 12.31 249.36 12.9 235.54"/>
    <rect class="cls-22" width="10.32" height="260.79"/>
    <rect class="cls-22" y="249.36" width="167.24" height="11.43"/>
    <rect class="cls-26" width="167.24" height="10.33"/>
    <rect class="cls-22" x="156.12" width="11.13" height="260.79"/>
  </g>
  <g id="Kategorie_Name" data-name="Kategorie Name">
    <text class="cls-11" transform="translate(63.91 22.56) scale(1 1.09)"><tspan x="0" y="0">duell</tspan></text>
  </g>
  <g id="Schlücke">
    <text class="cls-12" transform="translate(4.4 252.82)"><tspan x="0" y="0">+3</tspan></text>
    <text class="cls-12" transform="translate(147.68 19.77)"><tspan x="0" y="0">+3</tspan></text>
  </g>
  <g id="Motive">
    <g>
      <path class="cls-22" d="M69.64,76.57c11.49.53,24.08-.98,35.45-.09,20.31,1.59,20.61,34.45-.87,35.79-6.71.42-8.17-1.71-13.31-4.44-5.52-2.94-7.79,2-12.54,3.52-24.9,7.98-33.04-30.47-8.73-34.78ZM71.93,80.86c-17.08,1.74-15.43,29.02,3.61,26.8,5.44-.64,6.94-5.39,13.22-4.85,4.33.38,6.61,4.42,11.16,4.88,19.29,1.92,20.58-25.59,2.87-26.92-9.95.68-21.05-.9-30.86.1Z"/>
      <path class="cls-22" d="M73.07,124.37c2.19-.35,9.42-.35,11.65-.04,6.89.94,7.98,12.1,1.11,14.51-2.7.95-10.75.97-13.49.15-6.96-2.08-6.36-13.5.73-14.62ZM77.65,127.23c-5.36.99-4,10.13,1.86,9.33,6.16-.85,5.37-10.67-1.86-9.33Z"/>
      <path class="cls-22" d="M57.46,112.03c.5,5.01,3.38,9.77,7.71,12.3.9.53,1.26,1.64.84,2.6-.55,1.24-1.02,2.53-1.17,3.84-.16,1.41-1.74,2.19-2.99,1.52-7.34-3.95-12.33-11.7-12.99-20.05-.1-1.21.89-2.24,2.1-2.2l4.54.15c1.02.03,1.86.82,1.96,1.83Z"/>
      <path class="cls-22" d="M49.58,66.82c1.6-.27,6.99-.27,8.3.45.84.46,1.13.96,1.24,1.91.2,1.68.2,6.07,0,7.74-.16,1.37-.74,2.26-2.15,2.43-1.19.14-7.92.14-8.67-.22-.71-.33-1.13-1.47-1.22-2.22-.19-1.57-.21-6.49.02-8.01.2-1.26,1.32-1.9,2.49-2.1Z"/>
      <path class="cls-22" d="M100.87,114.75c.52.07.86.58.75,1.09-1.08,4.96-7.49-.28-10.5-1.08-2.41-.64-4.35-.64-6.75,0s-9.53,5.61-10.58,1.58c-.61-2.33,1.03-1.54,2.57-1.86,4.82-1,5.77-2.78,9.47-4.56,3.18-1.53,4.53.9,6.99,2.29s5.19,2.13,8.06,2.54Z"/>
      <path class="cls-22" d="M53.44,81.93c1.21,0,1.97,1.3,1.38,2.35-.2.37-.37.67-.43.81-1.59,3.65-2.24,7.49-1.8,11.41.11.95-.62,1.79-1.57,1.78-.23,0-.47-.01-.7-.02-.85-.04-1.51-.73-1.51-1.58v-13.17c0-.87.71-1.58,1.58-1.58h3.06Z"/>
      <path class="cls-22" d="M50.08,107.69c-1.67-.28-3.03-1.88-3.03-3.58,0-2.93,2.88-3.86,5.35-3.59.59.07,1.07.49,1.25,1.06.43,1.35,1.07,2.61,1.78,3.84.56.98-.11,2.2-1.24,2.26-1.44.08-2.92.21-4.12.01Z"/>
      <path class="cls-22" d="M71.51,83.46c.09-.01.18-.02.27-.01,10.1.49,21.35-.95,31.3-.1,12.23,1.05,13.08,19.7,1.1,21.73-7.54,1.28-9.17-4.36-15.42-4.84-7.16-.54-9.28,5.15-15.48,5.1-13.21-.1-14.49-19.88-1.78-21.88ZM82.23,86.27c-.28.08-3.72,2.99-3.9,3.27-.89,1.38.25,2.63,1.68,1.97.24-.11,3.76-3.34,3.87-3.58.07-.14.15-.27.16-.44.02-1.04-.86-1.5-1.81-1.22ZM80.09,98.17c.49.49,1.42.38,1.92-.09l9.37-8.2c.26-.23.42-.55.45-.89v-.03c.06-.73-.5-1.37-1.23-1.41h0c-.35-.02-.69.1-.95.33l-9.19,8.08c-.64.49-.97,1.61-.36,2.22ZM90.97,97.6c.29.29,1.04.43,1.44.32.44-.12,2.79-2.27,3.78-3.45.36-.42.43-1.03.14-1.5-.79-1.27-2.37.23-3.43,1.12-.83.7-3,2.46-1.93,3.51Z"/>
      <path class="cls-22" d="M80.5,130.11c2.5,2.29-1.79,5.6-3.37,2.93-1.41-2.39,1.47-4.67,3.37-2.93Z"/>
    </g>
  </g>
  <g id="Kateg._Symbol" data-name="Kateg. Symbol">
    <g>
      <path class="cls-23" d="M16.91,14.58l-2.12.03.79-3.25c0-.3-.37-.37-.52-.12l-3.2,5.08c-.11.17,0,.4.2.43h2.18l-.8,3.16c-.04.26.17.44.41.3.86-1.32,1.71-2.66,2.54-4,.22-.35.55-.8.73-1.16.13-.25.06-.4-.21-.46Z"/>
      <path class="cls-23" d="M16.91,13.95l-2.12.03.6.79.7-2.86c.14-.56.17-1.23-.55-1.42-.56-.14-.9.25-1.16.66l-1.76,2.8c-.43.68-.92,1.35-1.29,2.05-.32.6.05,1.3.74,1.37.18.02.36,0,.54,0h1.64l-.6-.79c-.16.63-.32,1.25-.48,1.88s-.61,1.62-.1,2.15c.25.26.62.32.95.19.41-.16.62-.67.85-1.02.48-.74.95-1.48,1.42-2.22.41-.66.86-1.3,1.25-1.98s.34-1.35-.46-1.61-1.1.96-.33,1.21l-.18-.41s-.05.08-.07.12c-.07.07-.13.21-.18.29-.11.18-.23.35-.35.53-.29.45-.57.9-.85,1.36-.59.94-1.19,1.87-1.8,2.81l.37-.29c.19.51.31.66.36.46v-.04s.02-.07.03-.09c.04-.12.06-.25.09-.37l.27-1.07c.13-.53.27-1.05.4-1.58.1-.39-.19-.79-.6-.79h-1.86c-.07,0-.15-.01-.22,0-.02,0-.06,0-.08,0-.21.07.24.57.32.51.13-.1.24-.38.32-.52l.74-1.17,1.64-2.62c.14-.22.37-.48.46-.73s-.48-.62-.6-.36c-.06.13-.08.32-.11.46l-.67,2.74c-.09.39.19.8.6.79l2.12-.03c.8,0,.81-1.26,0-1.25Z"/>
    </g>
    <g>
      <path class="cls-23" d="M153.83,247.16l-2.12.03.79-3.25c0-.3-.37-.37-.52-.12l-3.2,5.08c-.11.17,0,.4.2.43h2.18l-.8,3.16c-.04.26.17.44.41.3.86-1.32,1.71-2.66,2.54-4,.22-.35.55-.8.73-1.16.13-.25.06-.4-.21-.46Z"/>
      <path class="cls-23" d="M153.83,246.54l-2.12.03.6.79.7-2.86c.14-.56.17-1.23-.55-1.42-.56-.14-.9.25-1.16.66l-1.76,2.8c-.43.68-.92,1.35-1.29,2.05-.32.6.05,1.3.74,1.37.18.02.36,0,.54,0h1.64l-.6-.79-.48,1.88c-.15.61-.61,1.62-.1,2.15.25.26.62.32.95.19.41-.16.62-.67.85-1.02.48-.74.95-1.48,1.42-2.22.41-.66.86-1.3,1.25-1.98s.34-1.35-.46-1.61-1.1.96-.33,1.21l-.18-.41s-.05.08-.07.12c-.07.07-.13.21-.18.29-.11.18-.23.35-.35.53-.29.45-.57.9-.85,1.36-.59.94-1.19,1.87-1.8,2.81l.37-.29c.19.51.31.66.36.46v-.04s.02-.07.03-.09c.04-.12.06-.25.09-.37l.27-1.07.4-1.58c.1-.39-.19-.79-.6-.79h-1.86c-.07,0-.15-.01-.22,0-.02,0-.06,0-.08,0-.21.07.24.57.32.51.13-.1.24-.38.32-.52l.74-1.17,1.64-2.62c.14-.22.37-.48.46-.73s-.48-.62-.6-.36c-.06.13-.08.32-.11.46l-.67,2.74c-.09.39.19.8.6.79l2.12-.03c.8,0,.81-1.26,0-1.25Z"/>
    </g>
  </g>
  <g id="Text_Karte" data-name="Text Karte">
    <g>
      <g class="cls-27">
        <text class="cls-6" transform="translate(27.37 179.29)"><tspan x="0" y="0">We</tspan></text>
        <text class="cls-9" transform="translate(43.22 179.29)"><tspan x="0" y="0">r hält länge</tspan></text>
        <text class="cls-2" transform="translate(96.41 179.29)"><tspan x="0" y="0">r die Luft</tspan></text>
        <text class="cls-3" transform="translate(139.87 179.29)"><tspan x="0" y="0"> </tspan></text>
      </g>
      <text class="cls-18" transform="translate(27.37 179.29)"><tspan x="0" y="0">We</tspan></text>
      <text class="cls-17" transform="translate(43.22 179.29)"><tspan x="0" y="0">r hält länge</tspan></text>
      <text class="cls-15" transform="translate(96.41 179.29)"><tspan x="0" y="0">r die Luft</tspan></text>
      <text class="cls-21" transform="translate(139.87 179.29)"><tspan x="0" y="0"> </tspan></text>
      <g class="cls-24">
        <text class="cls-8" transform="translate(29.97 191.28)"><tspan x="0" y="0">an</tspan></text>
        <text class="cls-5" transform="translate(41.49 191.28)"><tspan x="0" y="0">? De</tspan></text>
        <text class="cls-9" transform="translate(62.09 191.28)"><tspan x="0" y="0">r </tspan></text>
        <text class="cls-4" transform="translate(69.09 191.28)"><tspan x="0" y="0">Ve</tspan></text>
        <text class="cls-2" transform="translate(81.37 191.28)"><tspan x="0" y="0">rlie</tspan></text>
        <text class="cls-7" transform="translate(96.14 191.28)"><tspan x="0" y="0">re</tspan></text>
        <text class="cls-2" transform="translate(105.51 191.28)"><tspan x="0" y="0">r mus</tspan></text>
        <text class="cls-3" transform="translate(132.36 191.28)"><tspan x="0" y="0">s </tspan></text>
      </g>
      <text class="cls-14" transform="translate(29.97 191.28)"><tspan x="0" y="0">an</tspan></text>
      <text class="cls-16" transform="translate(41.49 191.28)"><tspan x="0" y="0">? De</tspan></text>
      <text class="cls-17" transform="translate(62.09 191.28)"><tspan x="0" y="0">r </tspan></text>
      <text class="cls-19" transform="translate(69.09 191.28)"><tspan x="0" y="0">Ve</tspan></text>
      <text class="cls-15" transform="translate(81.37 191.28)"><tspan x="0" y="0">rlie</tspan></text>
      <text class="cls-20" transform="translate(96.14 191.28)"><tspan x="0" y="0">re</tspan></text>
      <text class="cls-15" transform="translate(105.51 191.28)"><tspan x="0" y="0">r mus</tspan></text>
      <text class="cls-21" transform="translate(132.36 191.28)"><tspan x="0" y="0">s </tspan></text>
      <g class="cls-25">
        <text class="cls-3" transform="translate(66.08 203.28)"><tspan x="0" y="0">t</tspan></text>
        <text class="cls-9" transform="translate(69.17 203.28)"><tspan x="0" y="0">rink</tspan></text>
        <text class="cls-9" transform="translate(87.05 203.28)"><tspan x="0" y="0">en.</tspan></text>
      </g>
      <text class="cls-21" transform="translate(66.08 203.28)"><tspan x="0" y="0">t</tspan></text>
      <text class="cls-17" transform="translate(69.17 203.28)"><tspan x="0" y="0">rink</tspan></text>
      <text class="cls-17" transform="translate(87.05 203.28)"><tspan x="0" y="0">en.</tspan></text>
    </g>
  </g>
</svg>