<?xml version="1.0" encoding="UTF-8"?>
<svg xmlns="http://www.w3.org/2000/svg" viewBox="0 0 167.24 260.79">
  <defs>
    <style>
      .cls-1 {
        fill: #010101;
      }

      .cls-2 {
        font-size: 15px;
      }

      .cls-2, .cls-3 {
        font-family: Namaku, Namaku;
      }

      .cls-2, .cls-4 {
        fill: #f5ae36;
      }

      .cls-5 {
        fill: #171717;
      }

      .cls-3 {
        font-size: 12px;
        stroke: #fff;
        stroke-miterlimit: 10;
        stroke-width: .15px;
      }

      .cls-3, .cls-6 {
        fill: #fff;
      }

      .cls-7 {
        fill: #171715;
      }
    </style>
  </defs>
  <g id="Background">
    <rect class="cls-4" width="167.24" height="260.79"/>
  </g>
  <g id="Rahmen">
    <path class="cls-1" d="M151.9,23.16c9.65,0,9.67-15,0-15s-9.67,15,0,15h0Z"/>
    <path class="cls-1" d="M152.22,254.59c9.65,0,9.67-15,0-15s-9.67,15,0,15h0Z"/>
    <path class="cls-1" d="M14.14,254.72c9.65,0,9.67-15,0-15s-9.67,15,0,15h0Z"/>
    <path class="cls-5" d="M11.56,15.67c18.49.32,36.98.69,55.46,1.04,19.51.36,39.05-.42,58.56-.82,10.18-.21,20.36-.38,30.54-.21l-3.75-3.75c-1.46,11.81-1.7,23.8-1.97,35.69-.33,14.15-.39,28.31-.37,42.46.01,9.3.14,18.61.07,27.91-.06,7.86-.43,15.71-.48,23.57-.07,11.29.08,22.59.37,33.88.56,22.38,1.59,44.74,2.18,67.12.07,2.79.14,5.57.2,8.36l3.75-3.75c-15.41-.13-30.81.06-46.22.48-24.85.69-49.67.84-74.52.24-8.25-.2-16.49-.49-24.74-.73l3.75,3.75c-.56-4.87-.34-9.89-.27-14.78.11-8.38.38-16.76.66-25.14.66-20.11,1.45-40.22,1.83-60.34.16-8.4.26-16.81.05-25.21-.13-5.24-.51-10.46-.61-15.7-.33-17.03-.19-34.08-.18-51.11,0-8.91,0-17.82-.06-26.73-.04-5.94-.04-11.89-.34-17.82-.04-.72-.08-1.43-.15-2.15-.19-1.95-1.59-3.85-3.75-3.75-1.87.08-3.96,1.66-3.75,3.75.48,4.83.39,9.76.44,14.61.09,8.42.1,16.84.11,25.25,0,17.78-.1,35.55.11,53.33.06,5.22.27,10.41.52,15.62.36,7.73.31,15.47.21,23.21-.24,20.03-1.02,40.04-1.7,60.06-.3,8.95-.6,17.9-.79,26.85-.13,5.9-.3,11.84,0,17.74.04.78.09,1.55.18,2.32.24,2.06,1.53,3.69,3.75,3.75,18.27.53,36.53,1.09,54.81,1.16,23.38.09,46.73-.97,70.1-1.19,6.85-.06,13.71-.03,20.56.02,2,.02,3.79-1.73,3.75-3.75-.48-22.44-1.5-44.87-2.16-67.3-.33-11.25-.57-22.51-.6-33.77-.03-10.16.25-20.29.47-30.44.18-8.23-.03-16.48-.05-24.72-.03-13.94,0-27.88.25-41.82.23-12.54.48-25.14,1.72-37.62.11-1.1.23-2.21.37-3.31.25-2.04-1.92-3.72-3.75-3.75-19.14-.32-38.3.42-57.44.81-9.78.2-19.58.45-29.37.27-7.76-.14-15.52-.3-23.28-.45-11.49-.22-22.99-.44-34.48-.63-1.96-.03-3.84,1.75-3.75,3.75s1.65,3.71,3.75,3.75h0Z"/>
    <polygon class="cls-5" points="26.61 14.43 14.5 29.16 14.18 13.04 26.61 14.43"/>
    <polygon class="cls-5" points="140.79 14.16 152.35 27.66 154.57 11.89 140.79 14.16"/>
    <polygon class="cls-5" points="139.48 248.15 153.14 235.93 156.07 248.65 139.48 248.15"/>
    <polygon class="cls-5" points="12.9 235.54 26.24 248.54 12.31 249.36 12.9 235.54"/>
    <rect class="cls-5" width="10.32" height="260.79"/>
    <rect class="cls-5" y="249.36" width="167.24" height="11.43"/>
    <rect class="cls-7" width="167.24" height="10.33"/>
    <rect class="cls-5" x="156.12" width="11.13" height="260.79"/>
    <path class="cls-5" d="M107.87,17.19c0-.85.22-3.85,0-4.78-.58-2.49-2.21-2.81-3.8-2.81h-40.89c-1.59,0-3.22.32-3.8,2.81-.22.93,0,3.93,0,4.78l-.17,5.71c-.35,5.31,5.43,4.59,7.62,4.59l12.59.37,4.21-.07h0l4.21.07,12.59-.37c2.19,0,7.96.72,7.62-4.59l-.17-5.71Z"/>
    <path class="cls-1" d="M151.9,23.16c9.65,0,9.67-15,0-15s-9.67,15,0,15h0Z"/>
    <path class="cls-1" d="M152.22,254.59c9.65,0,9.67-15,0-15s-9.67,15,0,15h0Z"/>
    <path class="cls-1" d="M14.14,254.72c9.65,0,9.67-15,0-15s-9.67,15,0,15h0Z"/>
    <path class="cls-5" d="M11.56,15.67c18.49.32,36.98.69,55.46,1.04,19.51.36,39.05-.42,58.56-.82,10.18-.21,20.36-.38,30.54-.21l-3.75-3.75c-1.46,11.81-1.7,23.8-1.97,35.69-.33,14.15-.39,28.31-.37,42.46.01,9.3.14,18.61.07,27.91-.06,7.86-.43,15.71-.48,23.57-.07,11.29.08,22.59.37,33.88.56,22.38,1.59,44.74,2.18,67.12.07,2.79.14,5.57.2,8.36l3.75-3.75c-15.41-.13-30.81.06-46.22.48-24.85.69-49.67.84-74.52.24-8.25-.2-16.49-.49-24.74-.73l3.75,3.75c-.56-4.87-.34-9.89-.27-14.78.11-8.38.38-16.76.66-25.14.66-20.11,1.45-40.22,1.83-60.34.16-8.4.26-16.81.05-25.21-.13-5.24-.51-10.46-.61-15.7-.33-17.03-.19-34.08-.18-51.11,0-8.91,0-17.82-.06-26.73-.04-5.94-.04-11.89-.34-17.82-.04-.72-.08-1.43-.15-2.15-.19-1.95-1.59-3.85-3.75-3.75-1.87.08-3.96,1.66-3.75,3.75.48,4.83.39,9.76.44,14.61.09,8.42.1,16.84.11,25.25,0,17.78-.1,35.55.11,53.33.06,5.22.27,10.41.52,15.62.36,7.73.31,15.47.21,23.21-.24,20.03-1.02,40.04-1.7,60.06-.3,8.95-.6,17.9-.79,26.85-.13,5.9-.3,11.84,0,17.74.04.78.09,1.55.18,2.32.24,2.06,1.53,3.69,3.75,3.75,18.27.53,36.53,1.09,54.81,1.16,23.38.09,46.73-.97,70.1-1.19,6.85-.06,13.71-.03,20.56.02,2,.02,3.79-1.73,3.75-3.75-.48-22.44-1.5-44.87-2.16-67.3-.33-11.25-.57-22.51-.6-33.77-.03-10.16.25-20.29.47-30.44.18-8.23-.03-16.48-.05-24.72-.03-13.94,0-27.88.25-41.82.23-12.54.48-25.14,1.72-37.62.11-1.1.23-2.21.37-3.31.25-2.04-1.92-3.72-3.75-3.75-19.14-.32-38.3.42-57.44.81-9.78.2-19.58.45-29.37.27-7.76-.14-15.52-.3-23.28-.45-11.49-.22-22.99-.44-34.48-.63-1.96-.03-3.84,1.75-3.75,3.75s1.65,3.71,3.75,3.75h0Z"/>
    <polygon class="cls-5" points="26.61 14.43 14.5 29.16 14.18 13.04 26.61 14.43"/>
    <polygon class="cls-5" points="140.79 14.16 152.35 27.66 154.57 11.89 140.79 14.16"/>
    <polygon class="cls-5" points="139.48 248.15 153.14 235.93 156.07 248.65 139.48 248.15"/>
    <polygon class="cls-5" points="12.9 235.54 26.24 248.54 12.31 249.36 12.9 235.54"/>
    <rect class="cls-5" width="10.32" height="260.79"/>
    <rect class="cls-5" y="249.36" width="167.24" height="11.43"/>
    <rect class="cls-7" width="167.24" height="10.33"/>
    <rect class="cls-5" x="156.12" width="11.13" height="260.79"/>
  </g>
  <g id="Kategorie_Name" data-name="Kategorie Name">
    <text class="cls-2" transform="translate(63.91 22.56) scale(1 1.09)"><tspan x="0" y="0">duell</tspan></text>
  </g>
  <g id="Schlücke">
    <text class="cls-3" transform="translate(4.4 252.82)"><tspan x="0" y="0">+3</tspan></text>
    <text class="cls-3" transform="translate(147.68 19.77)"><tspan x="0" y="0">+3</tspan></text>
  </g>
  <g id="Motive">
    <g>
      <path class="cls-5" d="M89.61,131.89c3.89.48,7.92-1.94,8.99-5.65.19-.66.86-1.06,1.54-.91l2.69.6c1.15.26,1.92-.36,1.92-1.2h0c0-.68-.52-1.25-1.19-1.3-1.38-.11-2.6-.72-3.81-1.43-.35-.21-.58-.58-.62-.99-.16-1.53.21-2.86.67-4.27.19-.59-.06-1.24-.6-1.54l-.17-.1c-.61-.35-1.4-.15-1.76.45-1.97,3.35.03,8.49-2.05,11.29-3.13,4.2-9.53,2.16-10.15-2.99-.58-4.83-.58-15.18,2.59-19.02,1.55-1.88,2.86-.91,5-1.24,4.13-.64,8.02-2.13,11.65-4.12,3.3-1.81,2.86-3.38,7.13-1.33,5.74,2.74,9.02,11.64,11.21,17.39,4.83,12.72-1.38,20.85-13.21,25.22-8.87,3.27-22.13,4.88-21.26-7.66.05-.73.71-1.27,1.44-1.19Z"/>
      <path class="cls-5" d="M80.64,127.56c-2.42,2.26-6.44,1.96-8.43-.71-1.68-2.25-.76-4.64-.99-7.22-.18-2.08-.98-6.18-3.18-4.58-.47.34-.64.97-.46,1.52.48,1.47.89,2.85.72,4.45-.04.41-.27.78-.62.99-1.21.72-2.43,1.32-3.81,1.43-.67.05-1.19.62-1.19,1.3h0c0,.84.77,1.46,1.59,1.27l3.02-.67c.67-.15,1.35.25,1.54.91,1.07,3.72,5.11,6.13,8.99,5.65.72-.09,1.38.46,1.43,1.18.87,12.54-12.38,10.94-21.26,7.67-8.26-3.04-15.51-8.73-15.03-18.48.2-3.97,6.41-18.56,9.18-21.38,1.34-1.36,5.49-4.04,7.39-3.77.55.08,2.74,1.91,3.58,2.37,4.05,2.22,7.94,3.58,12.55,4.21.84.11,1.81-.14,2.62.01,1.51.28,3.27,4.15,3.64,5.56.77,2.99.82,11.43.44,14.6-.15,1.26-.79,2.83-1.72,3.7Z"/>
      <path class="cls-5" d="M80.33,92.52c.43,0,.76.39.67.81-.45,2.04-2.15,7.12-2.37,7.39-.59.71-3.11.11-4.62-.2-.4-.08-.63-.51-.49-.9,2.2-5.93-5.15-7.69-9.34-9.96-.29-.16-.41-.51-.3-.82.09-.25.2-.54.31-.82.15-.4.64-.56,1-.32,4.4,2.87,9.87,4.78,15.14,4.8Z"/>
      <path class="cls-5" d="M103.21,89.82c-4.33,2.03-11.41,4.01-9.3,9.8.15.4-.09.84-.5.92-1.51.31-4.01.89-4.6.19-.22-.27-1.91-5.32-2.37-7.37-.1-.43.24-.83.68-.83,5.25-.02,10.7-1.92,15.09-4.77.38-.25.88-.08,1.03.34l.31.87c.12.33-.03.71-.35.86Z"/>
      <path class="cls-5" d="M100.92,86.29c-3.94,2.73-9.04,4.14-13.88,4.62-.92.09-1.26-1.18-.43-1.58,3.45-1.64,9.41-3.86,13.71-4.56.87-.14,1.32,1.01.59,1.52Z"/>
      <path class="cls-5" d="M80.31,91.07c-4.78-.15-9.72-2.03-13.89-4.52-.8-.48-.34-1.71.58-1.53,3.74.73,9.86,2.48,13.74,4.48.79.41.46,1.6-.42,1.57Z"/>
      <path class="cls-5" d="M70.45,96.15c1.37,1.39-.26,3.64-2.03,2.82-2.39-1.11-5.98-3.06-6.42-3.64-.34-.45-.26-.97-.04-1.5.37-.92,1.46-1.32,2.36-.91,2.21,1.01,5.88,2.97,6.1,3.19.01.01.02.02.04.04Z"/>
      <path class="cls-5" d="M97.58,95.8c1.4-1.19,3.8-1.9,5.65-2.69.99-.42,2.16.12,2.39,1.16.08.37.05.73-.19,1.05-.41.54-3.59,2.29-5.95,3.42-1.86.89-3.48-1.61-1.9-2.94Z"/>
      <path class="cls-5" d="M92.74,81.56l-5.21-11.24c.44-.68.72-1.48.76-2.34.11-2.59-2.02-4.85-4.61-4.88s-4.73,2.07-4.73,4.67c0,1.01.33,1.95.87,2.71l-5.15,11.1c-.26.56.05,1.21.64,1.38l.61.17c.44.12.9-.07,1.13-.46,1.15-2.04,3.52-7.51,5.01-10.5.49.17,1.01.27,1.56.27s1.12-.11,1.63-.3l5.03,10.43c.2.42.68.65,1.14.53l.67-.17c.6-.15.92-.82.66-1.38Z"/>
    </g>
  </g>
  <g id="Kateg._Symbol" data-name="Kateg. Symbol">
    <g>
      <path class="cls-6" d="M16.91,14.58l-2.12.03.79-3.25c0-.3-.37-.37-.52-.12l-3.2,5.08c-.11.17,0,.4.2.43h2.18l-.8,3.16c-.04.26.17.44.41.3.86-1.32,1.71-2.66,2.54-4,.22-.35.55-.8.73-1.16.13-.25.06-.4-.21-.46Z"/>
      <path class="cls-6" d="M16.91,13.95l-2.12.03.6.79.7-2.86c.14-.56.17-1.23-.55-1.42-.56-.14-.9.25-1.16.66l-1.76,2.8c-.43.68-.92,1.35-1.29,2.05-.32.6.05,1.3.74,1.37.18.02.36,0,.54,0h1.64l-.6-.79-.48,1.88c-.15.61-.61,1.62-.1,2.15.25.26.62.32.95.19.41-.16.62-.67.85-1.02.48-.74.95-1.48,1.42-2.22.41-.66.86-1.3,1.25-1.98s.34-1.35-.46-1.61-1.1.96-.33,1.21l-.18-.41s-.05.08-.07.12c-.07.07-.13.21-.18.29-.11.18-.23.35-.35.53-.29.45-.57.9-.85,1.36-.59.94-1.19,1.87-1.8,2.81l.37-.29c.19.51.31.66.36.46v-.04s.02-.07.03-.09c.04-.12.06-.25.09-.37l.27-1.07.4-1.58c.1-.39-.19-.79-.6-.79h-1.86c-.07,0-.15-.01-.22,0-.02,0-.06,0-.08,0-.21.07.24.57.32.51.13-.1.24-.38.32-.52l.74-1.17,1.64-2.62c.14-.22.37-.48.46-.73s-.48-.62-.6-.36c-.06.13-.08.32-.11.46l-.67,2.74c-.09.39.19.8.6.79l2.12-.03c.8,0,.81-1.26,0-1.25Z"/>
    </g>
    <g>
      <path class="cls-6" d="M153.83,247.16l-2.12.03.79-3.25c0-.3-.37-.37-.52-.12l-3.2,5.08c-.11.17,0,.4.2.43h2.18l-.8,3.16c-.04.26.17.44.41.3.86-1.32,1.71-2.66,2.54-4,.22-.35.55-.8.73-1.16.13-.25.06-.4-.21-.46Z"/>
      <path class="cls-6" d="M153.83,246.54l-2.12.03.6.79.7-2.86c.14-.56.17-1.23-.55-1.42-.56-.14-.9.25-1.16.66l-1.76,2.8c-.43.68-.92,1.35-1.29,2.05-.32.6.05,1.3.74,1.37.18.02.36,0,.54,0h1.64l-.6-.79c-.16.63-.32,1.25-.48,1.88s-.61,1.62-.1,2.15c.25.26.62.32.95.19.41-.16.62-.67.85-1.02.48-.74.95-1.48,1.42-2.22.41-.66.86-1.3,1.25-1.98s.34-1.35-.46-1.61-1.1.96-.33,1.21l-.18-.41s-.05.08-.07.12c-.07.07-.13.21-.18.29-.11.18-.23.35-.35.53-.29.45-.57.9-.85,1.36-.59.94-1.19,1.87-1.8,2.81l.37-.29c.19.51.31.66.36.46v-.04s.02-.07.03-.09c.04-.12.06-.25.09-.37l.27-1.07c.13-.53.27-1.05.4-1.58.1-.39-.19-.79-.6-.79h-1.86c-.07,0-.15-.01-.22,0-.02,0-.06,0-.08,0-.21.07.24.57.32.51.13-.1.24-.38.32-.52l.74-1.17,1.64-2.62c.14-.22.37-.48.46-.73s-.48-.62-.6-.36c-.06.13-.08.32-.11.46l-.67,2.74c-.09.39.19.8.6.79l2.12-.03c.8,0,.81-1.26,0-1.25Z"/>
    </g>
  </g>
</svg>