<?xml version="1.0" encoding="UTF-8"?>
<svg xmlns="http://www.w3.org/2000/svg" xmlns:xlink="http://www.w3.org/1999/xlink" viewBox="0 0 167.24 260.79">
  <defs>
    <style>
      .cls-1, .cls-2, .cls-3, .cls-4, .cls-5, .cls-6, .cls-7, .cls-8 {
        fill: none;
      }

      .cls-9 {
        fill: #010101;
      }

      .cls-2, .cls-3, .cls-10, .cls-4, .cls-11, .cls-5, .cls-6, .cls-7, .cls-8 {
        stroke: #fff;
      }

      .cls-2, .cls-3, .cls-4, .cls-5, .cls-12, .cls-13, .cls-6, .cls-14, .cls-15, .cls-16, .cls-17, .cls-7, .cls-18, .cls-8 {
        font-family: QuicksandBold-Regular, Quicksand;
        font-size: 10px;
      }

      .cls-2, .cls-14 {
        letter-spacing: -.02em;
      }

      .cls-19 {
        fill: #171717;
      }

      .cls-10 {
        font-size: 12px;
        stroke-width: .15px;
      }

      .cls-10, .cls-11 {
        stroke-miterlimit: 10;
      }

      .cls-10, .cls-11, .cls-12, .cls-13, .cls-14, .cls-15, .cls-16, .cls-17, .cls-18 {
        fill: #fff;
      }

      .cls-10, .cls-20 {
        font-family: Namaku, Namaku;
      }

      .cls-21, .cls-20 {
        fill: #5baf33;
      }

      .cls-4, .cls-12 {
        letter-spacing: -.05em;
      }

      .cls-11 {
        stroke-width: .15px;
      }

      .cls-20 {
        font-size: 15px;
      }

      .cls-22 {
        clip-path: url(#clippath-1);
      }

      .cls-23 {
        clip-path: url(#clippath-3);
      }

      .cls-24 {
        clip-path: url(#clippath-2);
      }

      .cls-5, .cls-15 {
        letter-spacing: -.02em;
      }

      .cls-13, .cls-7 {
        letter-spacing: -.04em;
      }

      .cls-6, .cls-17 {
        letter-spacing: -.09em;
      }

      .cls-25 {
        fill: #171715;
      }

      .cls-16, .cls-8 {
        letter-spacing: -.02em;
      }

      .cls-26 {
        clip-path: url(#clippath);
      }
    </style>
    <clipPath id="clippath">
      <rect class="cls-1" x="0" y="0" width="167.24" height="260.79"/>
    </clipPath>
    <clipPath id="clippath-1">
      <rect class="cls-1" x="0" y="0" width="167.24" height="260.79"/>
    </clipPath>
    <clipPath id="clippath-2">
      <rect class="cls-1" x="0" y="0" width="167.24" height="260.79"/>
    </clipPath>
    <clipPath id="clippath-3">
      <rect class="cls-1" x="0" y="0" width="167.24" height="260.79"/>
    </clipPath>
  </defs>
  <g id="Background">
    <rect class="cls-21" width="167.24" height="260.79"/>
  </g>
  <g id="Rahmen">
    <path class="cls-9" d="M151.9,23.16c9.65,0,9.67-15,0-15s-9.67,15,0,15h0Z"/>
    <path class="cls-9" d="M152.22,254.59c9.65,0,9.67-15,0-15s-9.67,15,0,15h0Z"/>
    <path class="cls-9" d="M14.14,254.72c9.65,0,9.67-15,0-15s-9.67,15,0,15h0Z"/>
    <path class="cls-19" d="M11.56,15.67c18.49.32,36.98.69,55.46,1.04,19.51.36,39.05-.42,58.56-.82,10.18-.21,20.36-.38,30.54-.21l-3.75-3.75c-1.46,11.81-1.7,23.8-1.97,35.69-.33,14.15-.39,28.31-.37,42.46.01,9.3.14,18.61.07,27.91-.06,7.86-.43,15.71-.48,23.57-.07,11.29.08,22.59.37,33.88.56,22.38,1.59,44.74,2.18,67.12.07,2.79.14,5.57.2,8.36l3.75-3.75c-15.41-.13-30.81.06-46.22.48-24.85.69-49.67.84-74.52.24-8.25-.2-16.49-.49-24.74-.73l3.75,3.75c-.56-4.87-.34-9.89-.27-14.78.11-8.38.38-16.76.66-25.14.66-20.11,1.45-40.22,1.83-60.34.16-8.4.26-16.81.05-25.21-.13-5.24-.51-10.46-.61-15.7-.33-17.03-.19-34.08-.18-51.11,0-8.91,0-17.82-.06-26.73-.04-5.94-.04-11.89-.34-17.82-.04-.72-.08-1.43-.15-2.15-.19-1.95-1.59-3.85-3.75-3.75-1.87.08-3.96,1.66-3.75,3.75.48,4.83.39,9.76.44,14.61.09,8.42.1,16.84.11,25.25,0,17.78-.1,35.55.11,53.33.06,5.22.27,10.41.52,15.62.36,7.73.31,15.47.21,23.21-.24,20.03-1.02,40.04-1.7,60.06-.3,8.95-.6,17.9-.79,26.85-.13,5.9-.3,11.84,0,17.74.04.78.09,1.55.18,2.32.24,2.06,1.53,3.69,3.75,3.75,18.27.53,36.53,1.09,54.81,1.16,23.38.09,46.73-.97,70.1-1.19,6.85-.06,13.71-.03,20.56.02,2,.02,3.79-1.73,3.75-3.75-.48-22.44-1.5-44.87-2.16-67.3-.33-11.25-.57-22.51-.6-33.77-.03-10.16.25-20.29.47-30.44.18-8.23-.03-16.48-.05-24.72-.03-13.94,0-27.88.25-41.82.23-12.54.48-25.14,1.72-37.62.11-1.1.23-2.21.37-3.31.25-2.04-1.92-3.72-3.75-3.75-19.14-.32-38.3.42-57.44.81-9.78.2-19.58.45-29.37.27-7.76-.14-15.52-.3-23.28-.45-11.49-.22-22.99-.44-34.48-.63-1.96-.03-3.84,1.75-3.75,3.75s1.65,3.71,3.75,3.75h0Z"/>
    <polygon class="cls-19" points="26.61 14.43 14.5 29.16 14.18 13.04 26.61 14.43"/>
    <polygon class="cls-19" points="140.79 14.16 152.35 27.66 154.57 11.89 140.79 14.16"/>
    <polygon class="cls-19" points="139.48 248.15 153.14 235.93 156.07 248.65 139.48 248.15"/>
    <polygon class="cls-19" points="12.9 235.54 26.24 248.54 12.31 249.36 12.9 235.54"/>
    <rect class="cls-19" width="10.32" height="260.79"/>
    <rect class="cls-19" y="249.36" width="167.24" height="11.43"/>
    <rect class="cls-25" width="167.24" height="10.33"/>
    <rect class="cls-19" x="156.12" width="11.13" height="260.79"/>
    <path class="cls-19" d="M114.94,17.19c0-.85.28-3.85,0-4.78-.75-2.49-2.85-2.81-4.91-2.81h-52.81c-2.06,0-4.16.32-4.91,2.81-.28.93,0,3.93,0,4.78l-.22,5.71c-.45,5.31,7.01,4.59,9.84,4.59l16.26.37,5.44-.07h0l5.44.07,16.26-.37c2.82,0,10.28.72,9.84-4.59l-.22-5.71Z"/>
    <path class="cls-9" d="M151.9,23.16c9.65,0,9.67-15,0-15s-9.67,15,0,15h0Z"/>
    <path class="cls-9" d="M152.22,254.59c9.65,0,9.67-15,0-15s-9.67,15,0,15h0Z"/>
    <path class="cls-9" d="M14.14,254.72c9.65,0,9.67-15,0-15s-9.67,15,0,15h0Z"/>
    <path class="cls-19" d="M11.56,15.67c18.49.32,36.98.69,55.46,1.04,19.51.36,39.05-.42,58.56-.82,10.18-.21,20.36-.38,30.54-.21l-3.75-3.75c-1.46,11.81-1.7,23.8-1.97,35.69-.33,14.15-.39,28.31-.37,42.46.01,9.3.14,18.61.07,27.91-.06,7.86-.43,15.71-.48,23.57-.07,11.29.08,22.59.37,33.88.56,22.38,1.59,44.74,2.18,67.12.07,2.79.14,5.57.2,8.36l3.75-3.75c-15.41-.13-30.81.06-46.22.48-24.85.69-49.67.84-74.52.24-8.25-.2-16.49-.49-24.74-.73l3.75,3.75c-.56-4.87-.34-9.89-.27-14.78.11-8.38.38-16.76.66-25.14.66-20.11,1.45-40.22,1.83-60.34.16-8.4.26-16.81.05-25.21-.13-5.24-.51-10.46-.61-15.7-.33-17.03-.19-34.08-.18-51.11,0-8.91,0-17.82-.06-26.73-.04-5.94-.04-11.89-.34-17.82-.04-.72-.08-1.43-.15-2.15-.19-1.95-1.59-3.85-3.75-3.75-1.87.08-3.96,1.66-3.75,3.75.48,4.83.39,9.76.44,14.61.09,8.42.1,16.84.11,25.25,0,17.78-.1,35.55.11,53.33.06,5.22.27,10.41.52,15.62.36,7.73.31,15.47.21,23.21-.24,20.03-1.02,40.04-1.7,60.06-.3,8.95-.6,17.9-.79,26.85-.13,5.9-.3,11.84,0,17.74.04.78.09,1.55.18,2.32.24,2.06,1.53,3.69,3.75,3.75,18.27.53,36.53,1.09,54.81,1.16,23.38.09,46.73-.97,70.1-1.19,6.85-.06,13.71-.03,20.56.02,2,.02,3.79-1.73,3.75-3.75-.48-22.44-1.5-44.87-2.16-67.3-.33-11.25-.57-22.51-.6-33.77-.03-10.16.25-20.29.47-30.44.18-8.23-.03-16.48-.05-24.72-.03-13.94,0-27.88.25-41.82.23-12.54.48-25.14,1.72-37.62.11-1.1.23-2.21.37-3.31.25-2.04-1.92-3.72-3.75-3.75-19.14-.32-38.3.42-57.44.81-9.78.2-19.58.45-29.37.27-7.76-.14-15.52-.3-23.28-.45-11.49-.22-22.99-.44-34.48-.63-1.96-.03-3.84,1.75-3.75,3.75s1.65,3.71,3.75,3.75h0Z"/>
    <polygon class="cls-19" points="26.61 14.43 14.5 29.16 14.18 13.04 26.61 14.43"/>
    <polygon class="cls-19" points="140.79 14.16 152.35 27.66 154.57 11.89 140.79 14.16"/>
    <polygon class="cls-19" points="139.48 248.15 153.14 235.93 156.07 248.65 139.48 248.15"/>
    <polygon class="cls-19" points="12.9 235.54 26.24 248.54 12.31 249.36 12.9 235.54"/>
    <rect class="cls-19" width="10.32" height="260.79"/>
    <rect class="cls-19" y="249.36" width="167.24" height="11.43"/>
    <rect class="cls-25" width="167.24" height="10.33"/>
    <rect class="cls-19" x="156.12" width="11.13" height="260.79"/>
  </g>
  <g id="Kategorie_Name" data-name="Kategorie Name">
    <text class="cls-20" transform="translate(56.77 22.56) scale(1 1.09)"><tspan x="0" y="0">gRUPPE</tspan></text>
  </g>
  <g id="Schlücke">
    <text class="cls-10" transform="translate(4.4 252.82)"><tspan x="0" y="0">+3</tspan></text>
    <text class="cls-10" transform="translate(147.68 19.77)"><tspan x="0" y="0">+3</tspan></text>
  </g>
  <g id="Motive">
    <g>
      <path class="cls-19" d="M65.3,64.97c.2-.2.47-.31.75-.31l35.13-.08c.5,0,.89.21,1.21.59,1.31,1.56-.04,31.1.34,36.58.03.36-.14.72-.43.93-.89.62-2.73.75-3.6,1.04-10.91,3.65-17.41,14.01-14.29,25.52.62,2.29,3.13,5.3-.82,5.69-.04,0-.08,0-.12,0l-36.53-.08c-.11,0-.23-.02-.34-.06-.7-.25-1.28-.7-1.26-1.51l.08-47.99c0-.28.11-.55.31-.75l19.58-19.58ZM53.61,83.75h8.78c1.16,0,2.11-.95,2.11-2.11v-8.78c0-.95-1.15-1.43-1.82-.75l-9.83,9.83c-.67.67-.2,1.82.75,1.82ZM82.61,87.04c-2.13-.35-5.02.13-7.43.07-.6-.01-1.1.46-1.1,1.06v13.83c0,.68-.62,1.21-1.29,1.06-3.66-.81-8.84,1.03-8.22,5.29.65,4.51,8.34,5.25,11.28,2.44.4-.38,1.53-2.24,1.53-2.66v-17.04c0-.59.48-1.07,1.07-1.07h4.17c1.19,0,1.5-2.74,0-2.99Z"/>
      <path class="cls-19" d="M102.08,106.6c-20.1,2.3-19.66,33.4,1.12,34.92,25.19,1.84,25.09-37.92-1.12-34.92ZM107.41,135.54c0,.57-.47,1.04-1.04,1.04h-4.16c-.57,0-1.04-.47-1.04-1.04v-4.15c0-.57.47-1.04,1.04-1.04h4.16c.57,0,1.04.47,1.04,1.04v4.15ZM111.02,124.32c-1.25.95-3,1.46-3.55,3.12-.18.54,0,1.03-.75,1.15-.9.15-3.71.11-4.68.02-.35-.03-.76-.16-.83-.56-.06-.31-.04-1.27,0-1.61.16-1.8,1.97-3.48,3.43-4.34.99-.59,2.3-.91,2.68-2.16.6-1.99-1.63-2.97-3.29-2.85-1.99.15-2.8,1.71-4.03,3.01-.36.18-.67.06-.99-.12-.67-.39-2.46-1.76-3.05-2.3-.5-.46-.49-.61-.17-1.19,1.49-2.73,4.56-4.75,7.68-5.01,2.3-.19,4.45.22,6.4,1.47,4.16,2.66,5.44,8.12,1.16,11.37Z"/>
    </g>
  </g>
  <g id="Kateg._Symbol" data-name="Kateg. Symbol">
    <g>
      <path class="cls-11" d="M14.73,15.52c.61-.11,3.37-.11,3.98-.02.71.11.9.91.77,1.53-.11.54-.83,2.4-1.09,2.92-.23.47-.38.64-.93.7-.57.06-1.85.12-2.26-.34-.02-.03-.04-.06-.05-.09-.28-.96-1.43-3.03-1.26-3.89.08-.39.42-.74.81-.81Z"/>
      <g>
        <path class="cls-11" d="M13.74,15.19c.15-.16.04-.43-.18-.43h-3.3c-.27,0-.77.74-.79,1.02-.06.75,1.06,2.78,1.28,3.67,0,.03.02.06.04.09.42.49,1.93.46,2.5.34,1.4-.28.09-2.03-.08-2.84s.06-1.37.53-1.87Z"/>
        <path class="cls-11" d="M12.82,10.96c-2.64-.6-2.81,3.28-.46,3.23,1.96-.04,2.03-2.87.46-3.23Z"/>
      </g>
      <path class="cls-11" d="M16.26,11.7c2.72-.56,2.71,3.48.28,3.22-1.84-.19-1.85-2.89-.28-3.22Z"/>
    </g>
    <g>
      <path class="cls-11" d="M151.65,247.97c.61-.11,3.37-.11,3.98-.02.71.11.9.91.77,1.53-.11.54-.83,2.4-1.09,2.92-.23.47-.38.64-.93.7-.57.06-1.85.12-2.26-.34-.02-.03-.04-.06-.05-.09-.28-.96-1.43-3.03-1.26-3.89.08-.39.42-.74.81-.81Z"/>
      <g>
        <path class="cls-11" d="M150.66,247.64c.15-.16.04-.43-.18-.43h-3.3c-.27,0-.77.74-.79,1.02-.06.75,1.06,2.78,1.28,3.67,0,.03.02.06.04.09.42.49,1.93.46,2.5.34,1.4-.28.09-2.03-.08-2.84s.06-1.37.53-1.87Z"/>
        <path class="cls-11" d="M149.74,243.42c-2.64-.6-2.81,3.28-.46,3.23,1.96-.04,2.03-2.87.46-3.23Z"/>
      </g>
      <path class="cls-11" d="M153.18,244.15c2.72-.56,2.71,3.48.28,3.22-1.84-.19-1.85-2.89-.28-3.22Z"/>
    </g>
  </g>
  <g id="Text_Karten" data-name="Text Karten">
    <g>
      <g class="cls-26">
        <text class="cls-8" transform="translate(34.84 179.29)"><tspan x="0" y="0">Song </tspan></text>
        <text class="cls-7" transform="translate(62.49 179.29)"><tspan x="0" y="0">er</tspan></text>
        <text class="cls-4" transform="translate(72.36 179.29)"><tspan x="0" y="0">ra</tspan></text>
        <text class="cls-3" transform="translate(82.29 179.29)"><tspan x="0" y="0">t</tspan></text>
        <text class="cls-8" transform="translate(85.7 179.29)"><tspan x="0" y="0">en: Sp</tspan></text>
        <text class="cls-2" transform="translate(115.07 179.29)"><tspan x="0" y="0">iel</tspan></text>
        <text class="cls-3" transform="translate(126.31 179.29)"><tspan x="0" y="0">e </tspan></text>
      </g>
      <text class="cls-16" transform="translate(34.84 179.29)"><tspan x="0" y="0">Song </tspan></text>
      <text class="cls-13" transform="translate(62.49 179.29)"><tspan x="0" y="0">er</tspan></text>
      <text class="cls-12" transform="translate(72.36 179.29)"><tspan x="0" y="0">ra</tspan></text>
      <text class="cls-18" transform="translate(82.29 179.29)"><tspan x="0" y="0">t</tspan></text>
      <text class="cls-16" transform="translate(85.7 179.29)"><tspan x="0" y="0">en: Sp</tspan></text>
      <text class="cls-14" transform="translate(115.07 179.29)"><tspan x="0" y="0">iel</tspan></text>
      <text class="cls-18" transform="translate(126.31 179.29)"><tspan x="0" y="0">e </tspan></text>
      <g class="cls-22">
        <text class="cls-5" transform="translate(23.76 191.28)"><tspan x="0" y="0">einen zufälligen Song ab</tspan></text>
        <text class="cls-3" transform="translate(141.19 191.28)"><tspan x="0" y="0">. </tspan></text>
      </g>
      <text class="cls-15" transform="translate(23.76 191.28)"><tspan x="0" y="0">einen zufälligen Song ab</tspan></text>
      <text class="cls-18" transform="translate(141.19 191.28)"><tspan x="0" y="0">. </tspan></text>
      <g class="cls-24">
        <text class="cls-6" transform="translate(20.72 203.28)"><tspan x="0" y="0">We</tspan></text>
        <text class="cls-8" transform="translate(36.57 203.28)"><tspan x="0" y="0">r ihn zue</tspan></text>
        <text class="cls-8" transform="translate(77.78 203.28)"><tspan x="0" y="0">rs</tspan></text>
        <text class="cls-8" transform="translate(86.84 203.28)"><tspan x="0" y="0">t e</tspan></text>
        <text class="cls-2" transform="translate(99.13 203.28)"><tspan x="0" y="0">rrät, mus</tspan></text>
        <text class="cls-3" transform="translate(141.6 203.28)"><tspan x="0" y="0">s </tspan></text>
      </g>
      <text class="cls-17" transform="translate(20.72 203.28)"><tspan x="0" y="0">We</tspan></text>
      <text class="cls-16" transform="translate(36.57 203.28)"><tspan x="0" y="0">r ihn zue</tspan></text>
      <text class="cls-16" transform="translate(77.78 203.28)"><tspan x="0" y="0">rs</tspan></text>
      <text class="cls-16" transform="translate(86.84 203.28)"><tspan x="0" y="0">t e</tspan></text>
      <text class="cls-14" transform="translate(99.13 203.28)"><tspan x="0" y="0">rrät, mus</tspan></text>
      <text class="cls-18" transform="translate(141.6 203.28)"><tspan x="0" y="0">s </tspan></text>
      <g class="cls-23">
        <text class="cls-8" transform="translate(52.78 215.28)"><tspan x="0" y="0">nicht t</tspan></text>
        <text class="cls-2" transform="translate(82.46 215.28)"><tspan x="0" y="0">rink</tspan></text>
        <text class="cls-8" transform="translate(100.34 215.28)"><tspan x="0" y="0">en.</tspan></text>
      </g>
      <text class="cls-16" transform="translate(52.78 215.28)"><tspan x="0" y="0">nicht t</tspan></text>
      <text class="cls-14" transform="translate(82.46 215.28)"><tspan x="0" y="0">rink</tspan></text>
      <text class="cls-16" transform="translate(100.34 215.28)"><tspan x="0" y="0">en.</tspan></text>
    </g>
  </g>
</svg>