<?xml version="1.0" encoding="UTF-8"?>
<svg xmlns="http://www.w3.org/2000/svg" xmlns:xlink="http://www.w3.org/1999/xlink" viewBox="0 0 167.24 260.79">
  <defs>
    <style>
      .cls-1, .cls-2, .cls-3, .cls-4, .cls-5, .cls-6, .cls-7, .cls-8, .cls-9, .cls-10, .cls-11, .cls-12 {
        fill: none;
      }

      .cls-2, .cls-3, .cls-4, .cls-13, .cls-14, .cls-5, .cls-6, .cls-7, .cls-8, .cls-9, .cls-10, .cls-11, .cls-12 {
        stroke: #fff;
      }

      .cls-2, .cls-3, .cls-4, .cls-5, .cls-6, .cls-7, .cls-8, .cls-15, .cls-16, .cls-17, .cls-18, .cls-9, .cls-19, .cls-20, .cls-21, .cls-22, .cls-23, .cls-24, .cls-10, .cls-11, .cls-25, .cls-12 {
        font-family: QuicksandBold-Regular, Quicksand;
        font-size: 10px;
      }

      .cls-2, .cls-19 {
        letter-spacing: .02em;
      }

      .cls-26 {
        fill: #010101;
      }

      .cls-3, .cls-21 {
        letter-spacing: -.02em;
      }

      .cls-27 {
        fill: #171717;
      }

      .cls-13 {
        font-size: 12px;
        stroke-width: .15px;
      }

      .cls-13, .cls-14 {
        stroke-miterlimit: 10;
      }

      .cls-13, .cls-14, .cls-15, .cls-16, .cls-17, .cls-18, .cls-19, .cls-20, .cls-21, .cls-22, .cls-23, .cls-24, .cls-25 {
        fill: #fff;
      }

      .cls-13, .cls-28 {
        font-family: Namaku, Namaku;
      }

      .cls-29, .cls-28 {
        fill: #5baf33;
      }

      .cls-14 {
        stroke-width: .15px;
      }

      .cls-5, .cls-24 {
        letter-spacing: -.06em;
      }

      .cls-28 {
        font-size: 15px;
      }

      .cls-30 {
        clip-path: url(#clippath-1);
      }

      .cls-31 {
        clip-path: url(#clippath-3);
      }

      .cls-32 {
        clip-path: url(#clippath-4);
      }

      .cls-33 {
        clip-path: url(#clippath-2);
      }

      .cls-34 {
        clip-path: url(#clippath-6);
      }

      .cls-35 {
        clip-path: url(#clippath-5);
      }

      .cls-6, .cls-15 {
        letter-spacing: -.04em;
      }

      .cls-7, .cls-20 {
        letter-spacing: -.02em;
      }

      .cls-8, .cls-22 {
        letter-spacing: -.02em;
      }

      .cls-16, .cls-10 {
        letter-spacing: -.04em;
      }

      .cls-17, .cls-11 {
        letter-spacing: -.04em;
      }

      .cls-18, .cls-9 {
        letter-spacing: -.04em;
      }

      .cls-36 {
        fill: #171715;
      }

      .cls-23, .cls-12 {
        letter-spacing: -.02em;
      }

      .cls-37 {
        clip-path: url(#clippath);
      }
    </style>
    <clipPath id="clippath">
      <rect class="cls-1" x="0" y="0" width="167.24" height="260.79"/>
    </clipPath>
    <clipPath id="clippath-1">
      <rect class="cls-1" x="0" y="0" width="167.24" height="260.79"/>
    </clipPath>
    <clipPath id="clippath-2">
      <rect class="cls-1" x="0" y="0" width="167.24" height="260.79"/>
    </clipPath>
    <clipPath id="clippath-3">
      <rect class="cls-1" x="0" y="0" width="167.24" height="260.79"/>
    </clipPath>
    <clipPath id="clippath-4">
      <rect class="cls-1" x="0" y="0" width="167.24" height="260.79"/>
    </clipPath>
    <clipPath id="clippath-5">
      <rect class="cls-1" x="0" y="0" width="167.24" height="260.79"/>
    </clipPath>
    <clipPath id="clippath-6">
      <rect class="cls-1" x="0" y="0" width="167.24" height="260.79"/>
    </clipPath>
  </defs>
  <g id="Background">
    <rect class="cls-29" width="167.24" height="260.79"/>
  </g>
  <g id="Rahmen">
    <path class="cls-26" d="M151.9,23.16c9.65,0,9.67-15,0-15s-9.67,15,0,15h0Z"/>
    <path class="cls-26" d="M152.22,254.59c9.65,0,9.67-15,0-15s-9.67,15,0,15h0Z"/>
    <path class="cls-26" d="M14.14,254.72c9.65,0,9.67-15,0-15s-9.67,15,0,15h0Z"/>
    <path class="cls-27" d="M11.56,15.67c18.49.32,36.98.69,55.46,1.04,19.51.36,39.05-.42,58.56-.82,10.18-.21,20.36-.38,30.54-.21l-3.75-3.75c-1.46,11.81-1.7,23.8-1.97,35.69-.33,14.15-.39,28.31-.37,42.46.01,9.3.14,18.61.07,27.91-.06,7.86-.43,15.71-.48,23.57-.07,11.29.08,22.59.37,33.88.56,22.38,1.59,44.74,2.18,67.12.07,2.79.14,5.57.2,8.36l3.75-3.75c-15.41-.13-30.81.06-46.22.48-24.85.69-49.67.84-74.52.24-8.25-.2-16.49-.49-24.74-.73l3.75,3.75c-.56-4.87-.34-9.89-.27-14.78.11-8.38.38-16.76.66-25.14.66-20.11,1.45-40.22,1.83-60.34.16-8.4.26-16.81.05-25.21-.13-5.24-.51-10.46-.61-15.7-.33-17.03-.19-34.08-.18-51.11,0-8.91,0-17.82-.06-26.73-.04-5.94-.04-11.89-.34-17.82-.04-.72-.08-1.43-.15-2.15-.19-1.95-1.59-3.85-3.75-3.75-1.87.08-3.96,1.66-3.75,3.75.48,4.83.39,9.76.44,14.61.09,8.42.1,16.84.11,25.25,0,17.78-.1,35.55.11,53.33.06,5.22.27,10.41.52,15.62.36,7.73.31,15.47.21,23.21-.24,20.03-1.02,40.04-1.7,60.06-.3,8.95-.6,17.9-.79,26.85-.13,5.9-.3,11.84,0,17.74.04.78.09,1.55.18,2.32.24,2.06,1.53,3.69,3.75,3.75,18.27.53,36.53,1.09,54.81,1.16,23.38.09,46.73-.97,70.1-1.19,6.85-.06,13.71-.03,20.56.02,2,.02,3.79-1.73,3.75-3.75-.48-22.44-1.5-44.87-2.16-67.3-.33-11.25-.57-22.51-.6-33.77-.03-10.16.25-20.29.47-30.44.18-8.23-.03-16.48-.05-24.72-.03-13.94,0-27.88.25-41.82.23-12.54.48-25.14,1.72-37.62.11-1.1.23-2.21.37-3.31.25-2.04-1.92-3.72-3.75-3.75-19.14-.32-38.3.42-57.44.81-9.78.2-19.58.45-29.37.27-7.76-.14-15.52-.3-23.28-.45-11.49-.22-22.99-.44-34.48-.63-1.96-.03-3.84,1.75-3.75,3.75s1.65,3.71,3.75,3.75h0Z"/>
    <polygon class="cls-27" points="26.61 14.43 14.5 29.16 14.18 13.04 26.61 14.43"/>
    <polygon class="cls-27" points="140.79 14.16 152.35 27.66 154.57 11.89 140.79 14.16"/>
    <polygon class="cls-27" points="139.48 248.15 153.14 235.93 156.07 248.65 139.48 248.15"/>
    <polygon class="cls-27" points="12.9 235.54 26.24 248.54 12.31 249.36 12.9 235.54"/>
    <rect class="cls-27" width="10.32" height="260.79"/>
    <rect class="cls-27" y="249.36" width="167.24" height="11.43"/>
    <rect class="cls-36" width="167.24" height="10.33"/>
    <rect class="cls-27" x="156.12" width="11.13" height="260.79"/>
    <path class="cls-27" d="M114.94,17.19c0-.85.28-3.85,0-4.78-.75-2.49-2.85-2.81-4.91-2.81h-52.81c-2.06,0-4.16.32-4.91,2.81-.28.93,0,3.93,0,4.78l-.22,5.71c-.45,5.31,7.01,4.59,9.84,4.59l16.26.37,5.44-.07h0l5.44.07,16.26-.37c2.82,0,10.28.72,9.84-4.59l-.22-5.71Z"/>
    <path class="cls-26" d="M151.9,23.16c9.65,0,9.67-15,0-15s-9.67,15,0,15h0Z"/>
    <path class="cls-26" d="M152.22,254.59c9.65,0,9.67-15,0-15s-9.67,15,0,15h0Z"/>
    <path class="cls-26" d="M14.14,254.72c9.65,0,9.67-15,0-15s-9.67,15,0,15h0Z"/>
    <path class="cls-27" d="M11.56,15.67c18.49.32,36.98.69,55.46,1.04,19.51.36,39.05-.42,58.56-.82,10.18-.21,20.36-.38,30.54-.21l-3.75-3.75c-1.46,11.81-1.7,23.8-1.97,35.69-.33,14.15-.39,28.31-.37,42.46.01,9.3.14,18.61.07,27.91-.06,7.86-.43,15.71-.48,23.57-.07,11.29.08,22.59.37,33.88.56,22.38,1.59,44.74,2.18,67.12.07,2.79.14,5.57.2,8.36l3.75-3.75c-15.41-.13-30.81.06-46.22.48-24.85.69-49.67.84-74.52.24-8.25-.2-16.49-.49-24.74-.73l3.75,3.75c-.56-4.87-.34-9.89-.27-14.78.11-8.38.38-16.76.66-25.14.66-20.11,1.45-40.22,1.83-60.34.16-8.4.26-16.81.05-25.21-.13-5.24-.51-10.46-.61-15.7-.33-17.03-.19-34.08-.18-51.11,0-8.91,0-17.82-.06-26.73-.04-5.94-.04-11.89-.34-17.82-.04-.72-.08-1.43-.15-2.15-.19-1.95-1.59-3.85-3.75-3.75-1.87.08-3.96,1.66-3.75,3.75.48,4.83.39,9.76.44,14.61.09,8.42.1,16.84.11,25.25,0,17.78-.1,35.55.11,53.33.06,5.22.27,10.41.52,15.62.36,7.73.31,15.47.21,23.21-.24,20.03-1.02,40.04-1.7,60.06-.3,8.95-.6,17.9-.79,26.85-.13,5.9-.3,11.84,0,17.74.04.78.09,1.55.18,2.32.24,2.06,1.53,3.69,3.75,3.75,18.27.53,36.53,1.09,54.81,1.16,23.38.09,46.73-.97,70.1-1.19,6.85-.06,13.71-.03,20.56.02,2,.02,3.79-1.73,3.75-3.75-.48-22.44-1.5-44.87-2.16-67.3-.33-11.25-.57-22.51-.6-33.77-.03-10.16.25-20.29.47-30.44.18-8.23-.03-16.48-.05-24.72-.03-13.94,0-27.88.25-41.82.23-12.54.48-25.14,1.72-37.62.11-1.1.23-2.21.37-3.31.25-2.04-1.92-3.72-3.75-3.75-19.14-.32-38.3.42-57.44.81-9.78.2-19.58.45-29.37.27-7.76-.14-15.52-.3-23.28-.45-11.49-.22-22.99-.44-34.48-.63-1.96-.03-3.84,1.75-3.75,3.75s1.65,3.71,3.75,3.75h0Z"/>
    <polygon class="cls-27" points="26.61 14.43 14.5 29.16 14.18 13.04 26.61 14.43"/>
    <polygon class="cls-27" points="140.79 14.16 152.35 27.66 154.57 11.89 140.79 14.16"/>
    <polygon class="cls-27" points="139.48 248.15 153.14 235.93 156.07 248.65 139.48 248.15"/>
    <polygon class="cls-27" points="12.9 235.54 26.24 248.54 12.31 249.36 12.9 235.54"/>
    <rect class="cls-27" width="10.32" height="260.79"/>
    <rect class="cls-27" y="249.36" width="167.24" height="11.43"/>
    <rect class="cls-36" width="167.24" height="10.33"/>
    <rect class="cls-27" x="156.12" width="11.13" height="260.79"/>
  </g>
  <g id="Kategorie_Name" data-name="Kategorie Name">
    <text class="cls-28" transform="translate(56.77 22.56) scale(1 1.09)"><tspan x="0" y="0">gRUPPE</tspan></text>
  </g>
  <g id="Schlücke">
    <text class="cls-13" transform="translate(4.53 252.82)"><tspan x="0" y="0">+5</tspan></text>
    <text class="cls-13" transform="translate(147.81 19.77)"><tspan x="0" y="0">+5</tspan></text>
  </g>
  <g id="Motive">
    <g>
      <path class="cls-27" d="M89.58,93.49c-.57.55-.28,1.47.24,1.95,5.13,6.24,11.97,11.81,17.04,17.98.72.87,1.56,1.86,1.69,3.01.41,3.51-3.57,6-6.45,3.94l-18.07-19.14c-1.83-1.58-3.66-.16-1.72,2.34,4.1,5.27,10.59,10.65,15.16,15.8.61.68,2.42,2.62,2.72,3.22,1.09,2.2,0,5.27-2.48,5.78-3.94.81-2.81-.52-3.43-3-.82-3.32-3.94-5.29-7.29-5.06.62-4.51-2.96-8.34-7.5-7.82.7-4.4-3.02-8.76-7.5-7.82.71-4.39-2.56-8.34-7.04-8.15-4.13.17-8.17,5.99-11.25,8.46-10.04-8.76-10.05-24.23.68-32.46,8.09-6.2,20.18-5.27,27.01,2.29l-.48.8c-2.69,3.18-9.01,7.2-11.06,10.51-3.67,5.92,3.94,10.88,9.64,8.7,4.01-1.53,8.62-8.62,12.22-10.92.6-.38,1.16-.71,1.85-.33l22.16,23.51c2.58,4.17-2.06,8.62-5.9,5.58l-18.27-19.26c-.47-.47-1.54-.32-1.97.1Z"/>
      <path class="cls-27" d="M115.77,102.79c-.59.09-.9-.41-1.25-.77-5.84-6.02-11.31-12.47-17.18-18.46-2.16-2.2-4.02-3.96-7.18-1.85s-6.68,6.95-9.71,9.36c-2.4,1.91-5.76,2.54-8.02.04s.56-4.54,2.23-6.15c4.69-4.55,12.92-13.2,18.76-15.32,17.77-6.44,34.03,12.5,25.03,29.09-.78,1.44-1.94,2.6-2.67,4.06Z"/>
      <path class="cls-27" d="M75.64,108.21c1.38,1.34,1.58,3.38.74,5.07-.38.77-6.21,6.4-7.2,7.18-.46.36-1.37,1.11-1.87,1.26-3.81,1.14-6.88-2.36-5.03-5.96.48-.93,7.71-7.77,8.68-8.2,1.47-.66,3.5-.48,4.67.66Z"/>
      <path class="cls-27" d="M64.09,99.43c3.61-.75,6.58,2.47,4.84,5.77-.57,1.08-4.11,4.42-5.21,5.42-2.4,2.16-5.5,5.43-8.46,1.88-1.18-1.42-1.38-2.97-.52-4.61.52-.99,6.41-6.57,7.56-7.45.51-.39,1.16-.88,1.8-1.01Z"/>
      <path class="cls-27" d="M86.61,123.19c3.55-.74,6.21,2.44,4.85,5.79-.27.67-4.09,4.34-4.92,5.09-2.34,2.13-5.6,5.79-8.73,2.46s.51-6.19,2.78-8.42c1.05-1.03,4.92-4.69,6.02-4.92Z"/>
      <path class="cls-27" d="M78.78,115.37c3.63-.83,6.51,2.09,5.06,5.69-.43,1.06-2.07,2.47-2.93,3.32-1.02,1-4.09,4.03-5.06,4.63-3.69,2.29-7.89-.91-6.33-4.77.47-1.15,4.29-4.79,5.43-5.82.68-.62,3.19-2.91,3.83-3.05Z"/>
    </g>
  </g>
  <g id="Kateg._Symbol" data-name="Kateg. Symbol">
    <g>
      <path class="cls-14" d="M14.73,15.52c.61-.11,3.37-.11,3.98-.02.71.11.9.91.77,1.53-.11.54-.83,2.4-1.09,2.92-.23.47-.38.64-.93.7-.57.06-1.85.12-2.26-.34-.02-.03-.04-.06-.05-.09-.28-.96-1.43-3.03-1.26-3.89.08-.39.42-.74.81-.81Z"/>
      <g>
        <path class="cls-14" d="M13.74,15.19c.15-.16.04-.43-.18-.43h-3.3c-.27,0-.77.74-.79,1.02-.06.75,1.06,2.78,1.28,3.67,0,.03.02.06.04.09.42.49,1.93.46,2.5.34,1.4-.28.09-2.03-.08-2.84s.06-1.37.53-1.87Z"/>
        <path class="cls-14" d="M12.82,10.96c-2.64-.6-2.81,3.28-.46,3.23,1.96-.04,2.03-2.87.46-3.23Z"/>
      </g>
      <path class="cls-14" d="M16.26,11.7c2.72-.56,2.71,3.48.28,3.22-1.84-.19-1.85-2.89-.28-3.22Z"/>
    </g>
    <g>
      <path class="cls-14" d="M151.65,247.97c.61-.11,3.37-.11,3.98-.02.71.11.9.91.77,1.53-.11.54-.83,2.4-1.09,2.92-.23.47-.38.64-.93.7-.57.06-1.85.12-2.26-.34-.02-.03-.04-.06-.05-.09-.28-.96-1.43-3.03-1.26-3.89.08-.39.42-.74.81-.81Z"/>
      <g>
        <path class="cls-14" d="M150.66,247.64c.15-.16.04-.43-.18-.43h-3.3c-.27,0-.77.74-.79,1.02-.06.75,1.06,2.78,1.28,3.67,0,.03.02.06.04.09.42.49,1.93.46,2.5.34,1.4-.28.09-2.03-.08-2.84s.06-1.37.53-1.87Z"/>
        <path class="cls-14" d="M149.74,243.42c-2.64-.6-2.81,3.28-.46,3.23,1.96-.04,2.03-2.87.46-3.23Z"/>
      </g>
      <path class="cls-14" d="M153.18,244.15c2.72-.56,2.71,3.48.28,3.22-1.84-.19-1.85-2.89-.28-3.22Z"/>
    </g>
  </g>
  <g id="Text_Karten" data-name="Text Karten">
    <g>
      <g class="cls-37">
        <text class="cls-2" transform="translate(34.25 163.41)"><tspan x="0" y="0">Je</tspan></text>
        <text class="cls-10" transform="translate(46.29 163.41)"><tspan x="0" y="0">de</tspan></text>
        <text class="cls-12" transform="translate(58.22 163.41)"><tspan x="0" y="0">r bi</tspan></text>
        <text class="cls-5" transform="translate(74.22 163.41)"><tspan x="0" y="0">ete</tspan></text>
        <text class="cls-12" transform="translate(88.6 163.41)"><tspan x="0" y="0">t, w</tspan></text>
        <text class="cls-3" transform="translate(105.09 163.41)"><tspan x="0" y="0">ie viel</tspan></text>
        <text class="cls-4" transform="translate(133 163.41)"><tspan x="0" y="0"> </tspan></text>
      </g>
      <text class="cls-19" transform="translate(34.25 163.41)"><tspan x="0" y="0">Je</tspan></text>
      <text class="cls-16" transform="translate(46.29 163.41)"><tspan x="0" y="0">de</tspan></text>
      <text class="cls-23" transform="translate(58.22 163.41)"><tspan x="0" y="0">r bi</tspan></text>
      <text class="cls-24" transform="translate(74.22 163.41)"><tspan x="0" y="0">ete</tspan></text>
      <text class="cls-23" transform="translate(88.6 163.41)"><tspan x="0" y="0">t, w</tspan></text>
      <text class="cls-21" transform="translate(105.09 163.41)"><tspan x="0" y="0">ie viel</tspan></text>
      <text class="cls-25" transform="translate(133 163.41)"><tspan x="0" y="0"> </tspan></text>
      <g class="cls-30">
        <text class="cls-11" transform="translate(35.04 175.4)"><tspan x="0" y="0">er</tspan></text>
        <text class="cls-12" transform="translate(44.91 175.4)"><tspan x="0" y="0" xml:space="preserve"> v</tspan></text>
        <text class="cls-12" transform="translate(53.03 175.4)"><tspan x="0" y="0">on </tspan></text>
        <text class="cls-5" transform="translate(67.8 175.4)"><tspan x="0" y="0">et</tspan></text>
        <text class="cls-4" transform="translate(77.09 175.4)"><tspan x="0" y="0">w</tspan></text>
        <text class="cls-3" transform="translate(85.3 175.4)"><tspan x="0" y="0">as sch</tspan></text>
        <text class="cls-4" transform="translate(115.37 175.4)"><tspan x="0" y="0">a</tspan></text>
        <text class="cls-12" transform="translate(121.37 175.4)"><tspan x="0" y="0">fft</tspan></text>
        <text class="cls-4" transform="translate(132.2 175.4)"><tspan x="0" y="0"> </tspan></text>
      </g>
      <text class="cls-17" transform="translate(35.04 175.4)"><tspan x="0" y="0">er</tspan></text>
      <text class="cls-23" transform="translate(44.91 175.4)"><tspan x="0" y="0" xml:space="preserve"> v</tspan></text>
      <text class="cls-23" transform="translate(53.03 175.4)"><tspan x="0" y="0">on </tspan></text>
      <text class="cls-24" transform="translate(67.8 175.4)"><tspan x="0" y="0">et</tspan></text>
      <text class="cls-25" transform="translate(77.09 175.4)"><tspan x="0" y="0">w</tspan></text>
      <text class="cls-21" transform="translate(85.3 175.4)"><tspan x="0" y="0">as sch</tspan></text>
      <text class="cls-21" transform="translate(115.37 175.4)"><tspan x="0" y="0">afft</tspan></text>
      <text class="cls-25" transform="translate(132.2 175.4)"><tspan x="0" y="0"> </tspan></text>
      <g class="cls-33">
        <text class="cls-8" transform="translate(30.4 187.41)"><tspan x="0" y="0">(z. B. Lieges</tspan></text>
        <text class="cls-12" transform="translate(86.47 187.41)"><tspan x="0" y="0">tütz</tspan></text>
        <text class="cls-4" transform="translate(105.19 187.41)"><tspan x="0" y="0">e</tspan></text>
        <text class="cls-12" transform="translate(110.78 187.41)"><tspan x="0" y="0">). De</tspan></text>
        <text class="cls-4" transform="translate(132.45 187.41)"><tspan x="0" y="0">r </tspan></text>
      </g>
      <text class="cls-22" transform="translate(30.4 187.41)"><tspan x="0" y="0">(z. B. Lieges</tspan></text>
      <text class="cls-23" transform="translate(86.47 187.41)"><tspan x="0" y="0">tütz</tspan></text>
      <text class="cls-25" transform="translate(105.19 187.41)"><tspan x="0" y="0">e</tspan></text>
      <text class="cls-23" transform="translate(110.78 187.41)"><tspan x="0" y="0">). De</tspan></text>
      <text class="cls-25" transform="translate(132.45 187.41)"><tspan x="0" y="0">r </tspan></text>
      <g class="cls-31">
        <text class="cls-8" transform="translate(25.7 199.4)"><tspan x="0" y="0">Höchs</tspan></text>
        <text class="cls-12" transform="translate(55.09 199.4)"><tspan x="0" y="0">tbi</tspan></text>
        <text class="cls-5" transform="translate(67.91 199.4)"><tspan x="0" y="0">ete</tspan></text>
        <text class="cls-6" transform="translate(82.69 199.4)"><tspan x="0" y="0">nd</tspan></text>
        <text class="cls-12" transform="translate(94.67 199.4)"><tspan x="0" y="0">e muss es</tspan></text>
        <text class="cls-4" transform="translate(141.55 199.4)"><tspan x="0" y="0"> </tspan></text>
      </g>
      <text class="cls-22" transform="translate(25.7 199.4)"><tspan x="0" y="0">Höchs</tspan></text>
      <text class="cls-23" transform="translate(55.09 199.4)"><tspan x="0" y="0">tbi</tspan></text>
      <text class="cls-24" transform="translate(67.91 199.4)"><tspan x="0" y="0">ete</tspan></text>
      <text class="cls-15" transform="translate(82.69 199.4)"><tspan x="0" y="0">nd</tspan></text>
      <text class="cls-23" transform="translate(94.67 199.4)"><tspan x="0" y="0">e muss es</tspan></text>
      <text class="cls-25" transform="translate(141.55 199.4)"><tspan x="0" y="0"> </tspan></text>
      <g class="cls-32">
        <text class="cls-8" transform="translate(28.22 211.4)"><tspan x="0" y="0">machen – sch</tspan></text>
        <text class="cls-3" transform="translate(94.02 211.4)"><tspan x="0" y="0">afft </tspan></text>
        <text class="cls-9" transform="translate(113.45 211.4)"><tspan x="0" y="0">er</tspan></text>
        <text class="cls-12" transform="translate(123.31 211.4)"><tspan x="0" y="0" xml:space="preserve"> es,</tspan></text>
        <text class="cls-4" transform="translate(139.02 211.4)"><tspan x="0" y="0"> </tspan></text>
      </g>
      <text class="cls-22" transform="translate(28.22 211.4)"><tspan x="0" y="0">machen – sch</tspan></text>
      <text class="cls-21" transform="translate(94.02 211.4)"><tspan x="0" y="0">afft </tspan></text>
      <text class="cls-18" transform="translate(113.45 211.4)"><tspan x="0" y="0">er</tspan></text>
      <text class="cls-23" transform="translate(123.31 211.4)"><tspan x="0" y="0" xml:space="preserve"> es,</tspan></text>
      <text class="cls-25" transform="translate(139.03 211.4)"><tspan x="0" y="0"> </tspan></text>
      <g class="cls-35">
        <text class="cls-4" transform="translate(27.4 223.41)"><tspan x="0" y="0">t</tspan></text>
        <text class="cls-7" transform="translate(30.5 223.41)"><tspan x="0" y="0">rinkt die Gruppe, sons</tspan></text>
        <text class="cls-4" transform="translate(135.84 223.41)"><tspan x="0" y="0">t </tspan></text>
      </g>
      <text class="cls-25" transform="translate(27.4 223.41)"><tspan x="0" y="0">t</tspan></text>
      <text class="cls-20" transform="translate(30.5 223.41)"><tspan x="0" y="0">rinkt die Gruppe, sons</tspan></text>
      <text class="cls-25" transform="translate(135.84 223.41)"><tspan x="0" y="0">t </tspan></text>
      <g class="cls-34">
        <text class="cls-4" transform="translate(64.12 235.4)"><tspan x="0" y="0">t</tspan></text>
        <text class="cls-12" transform="translate(67.22 235.4)"><tspan x="0" y="0">rinkt </tspan></text>
        <text class="cls-9" transform="translate(91.85 235.4)"><tspan x="0" y="0">er</tspan></text>
        <text class="cls-4" transform="translate(100.82 235.4)"><tspan x="0" y="0">.</tspan></text>
      </g>
      <text class="cls-25" transform="translate(64.12 235.4)"><tspan x="0" y="0">t</tspan></text>
      <text class="cls-23" transform="translate(67.22 235.4)"><tspan x="0" y="0">rinkt </tspan></text>
      <text class="cls-18" transform="translate(91.85 235.4)"><tspan x="0" y="0">er</tspan></text>
      <text class="cls-25" transform="translate(100.82 235.4)"><tspan x="0" y="0">.</tspan></text>
    </g>
  </g>
</svg>