<?xml version="1.0" encoding="UTF-8"?>
<svg xmlns="http://www.w3.org/2000/svg" xmlns:xlink="http://www.w3.org/1999/xlink" viewBox="0 0 167.24 260.79">
  <defs>
    <style>
      .cls-1, .cls-2, .cls-3, .cls-4, .cls-5 {
        fill: none;
      }

      .cls-6 {
        fill: #010101;
      }

      .cls-2, .cls-7, .cls-8, .cls-3, .cls-4, .cls-5 {
        stroke: #fff;
      }

      .cls-2, .cls-3, .cls-4, .cls-9, .cls-10, .cls-11, .cls-12, .cls-5 {
        font-family: QuicksandBold-Regular, Quicksand;
        font-size: 10px;
      }

      .cls-13 {
        fill: #171717;
      }

      .cls-7 {
        font-size: 12px;
        stroke-width: .15px;
      }

      .cls-7, .cls-8 {
        stroke-miterlimit: 10;
      }

      .cls-7, .cls-8, .cls-9, .cls-10, .cls-11, .cls-12 {
        fill: #fff;
      }

      .cls-7, .cls-14 {
        font-family: Namaku, Namaku;
      }

      .cls-15, .cls-14 {
        fill: #5baf33;
      }

      .cls-8 {
        stroke-width: .15px;
      }

      .cls-14 {
        font-size: 15px;
      }

      .cls-16 {
        clip-path: url(#clippath-1);
      }

      .cls-17 {
        clip-path: url(#clippath-2);
      }

      .cls-3, .cls-9 {
        letter-spacing: -.02em;
      }

      .cls-4, .cls-11 {
        letter-spacing: -.08em;
      }

      .cls-18 {
        fill: #171715;
      }

      .cls-10, .cls-5 {
        letter-spacing: -.02em;
      }

      .cls-19 {
        clip-path: url(#clippath);
      }
    </style>
    <clipPath id="clippath">
      <rect class="cls-1" x="0" y="0" width="167.24" height="260.79"/>
    </clipPath>
    <clipPath id="clippath-1">
      <rect class="cls-1" x="0" y="0" width="167.24" height="260.79"/>
    </clipPath>
    <clipPath id="clippath-2">
      <rect class="cls-1" x="0" y="0" width="167.24" height="260.79"/>
    </clipPath>
  </defs>
  <g id="Background">
    <rect class="cls-15" width="167.24" height="260.79"/>
  </g>
  <g id="Rahmen">
    <path class="cls-6" d="M151.9,23.16c9.65,0,9.67-15,0-15s-9.67,15,0,15h0Z"/>
    <path class="cls-6" d="M152.22,254.59c9.65,0,9.67-15,0-15s-9.67,15,0,15h0Z"/>
    <path class="cls-6" d="M14.14,254.72c9.65,0,9.67-15,0-15s-9.67,15,0,15h0Z"/>
    <path class="cls-13" d="M11.56,15.67c18.49.32,36.98.69,55.46,1.04,19.51.36,39.05-.42,58.56-.82,10.18-.21,20.36-.38,30.54-.21l-3.75-3.75c-1.46,11.81-1.7,23.8-1.97,35.69-.33,14.15-.39,28.31-.37,42.46.01,9.3.14,18.61.07,27.91-.06,7.86-.43,15.71-.48,23.57-.07,11.29.08,22.59.37,33.88.56,22.38,1.59,44.74,2.18,67.12.07,2.79.14,5.57.2,8.36l3.75-3.75c-15.41-.13-30.81.06-46.22.48-24.85.69-49.67.84-74.52.24-8.25-.2-16.49-.49-24.74-.73l3.75,3.75c-.56-4.87-.34-9.89-.27-14.78.11-8.38.38-16.76.66-25.14.66-20.11,1.45-40.22,1.83-60.34.16-8.4.26-16.81.05-25.21-.13-5.24-.51-10.46-.61-15.7-.33-17.03-.19-34.08-.18-51.11,0-8.91,0-17.82-.06-26.73-.04-5.94-.04-11.89-.34-17.82-.04-.72-.08-1.43-.15-2.15-.19-1.95-1.59-3.85-3.75-3.75-1.87.08-3.96,1.66-3.75,3.75.48,4.83.39,9.76.44,14.61.09,8.42.1,16.84.11,25.25,0,17.78-.1,35.55.11,53.33.06,5.22.27,10.41.52,15.62.36,7.73.31,15.47.21,23.21-.24,20.03-1.02,40.04-1.7,60.06-.3,8.95-.6,17.9-.79,26.85-.13,5.9-.3,11.84,0,17.74.04.78.09,1.55.18,2.32.24,2.06,1.53,3.69,3.75,3.75,18.27.53,36.53,1.09,54.81,1.16,23.38.09,46.73-.97,70.1-1.19,6.85-.06,13.71-.03,20.56.02,2,.02,3.79-1.73,3.75-3.75-.48-22.44-1.5-44.87-2.16-67.3-.33-11.25-.57-22.51-.6-33.77-.03-10.16.25-20.29.47-30.44.18-8.23-.03-16.48-.05-24.72-.03-13.94,0-27.88.25-41.82.23-12.54.48-25.14,1.72-37.62.11-1.1.23-2.21.37-3.31.25-2.04-1.92-3.72-3.75-3.75-19.14-.32-38.3.42-57.44.81-9.78.2-19.58.45-29.37.27-7.76-.14-15.52-.3-23.28-.45-11.49-.22-22.99-.44-34.48-.63-1.96-.03-3.84,1.75-3.75,3.75s1.65,3.71,3.75,3.75h0Z"/>
    <polygon class="cls-13" points="26.61 14.43 14.5 29.16 14.18 13.04 26.61 14.43"/>
    <polygon class="cls-13" points="140.79 14.16 152.35 27.66 154.57 11.89 140.79 14.16"/>
    <polygon class="cls-13" points="139.48 248.15 153.14 235.93 156.07 248.65 139.48 248.15"/>
    <polygon class="cls-13" points="12.9 235.54 26.24 248.54 12.31 249.36 12.9 235.54"/>
    <rect class="cls-13" width="10.32" height="260.79"/>
    <rect class="cls-13" y="249.36" width="167.24" height="11.43"/>
    <rect class="cls-18" width="167.24" height="10.33"/>
    <rect class="cls-13" x="156.12" width="11.13" height="260.79"/>
    <path class="cls-13" d="M114.94,17.19c0-.85.28-3.85,0-4.78-.75-2.49-2.85-2.81-4.91-2.81h-52.81c-2.06,0-4.16.32-4.91,2.81-.28.93,0,3.93,0,4.78l-.22,5.71c-.45,5.31,7.01,4.59,9.84,4.59l16.26.37,5.44-.07h0l5.44.07,16.26-.37c2.82,0,10.28.72,9.84-4.59l-.22-5.71Z"/>
    <path class="cls-6" d="M151.9,23.16c9.65,0,9.67-15,0-15s-9.67,15,0,15h0Z"/>
    <path class="cls-6" d="M152.22,254.59c9.65,0,9.67-15,0-15s-9.67,15,0,15h0Z"/>
    <path class="cls-6" d="M14.14,254.72c9.65,0,9.67-15,0-15s-9.67,15,0,15h0Z"/>
    <path class="cls-13" d="M11.56,15.67c18.49.32,36.98.69,55.46,1.04,19.51.36,39.05-.42,58.56-.82,10.18-.21,20.36-.38,30.54-.21l-3.75-3.75c-1.46,11.81-1.7,23.8-1.97,35.69-.33,14.15-.39,28.31-.37,42.46.01,9.3.14,18.61.07,27.91-.06,7.86-.43,15.71-.48,23.57-.07,11.29.08,22.59.37,33.88.56,22.38,1.59,44.74,2.18,67.12.07,2.79.14,5.57.2,8.36l3.75-3.75c-15.41-.13-30.81.06-46.22.48-24.85.69-49.67.84-74.52.24-8.25-.2-16.49-.49-24.74-.73l3.75,3.75c-.56-4.87-.34-9.89-.27-14.78.11-8.38.38-16.76.66-25.14.66-20.11,1.45-40.22,1.83-60.34.16-8.4.26-16.81.05-25.21-.13-5.24-.51-10.46-.61-15.7-.33-17.03-.19-34.08-.18-51.11,0-8.91,0-17.82-.06-26.73-.04-5.94-.04-11.89-.34-17.82-.04-.72-.08-1.43-.15-2.15-.19-1.95-1.59-3.85-3.75-3.75-1.87.08-3.96,1.66-3.75,3.75.48,4.83.39,9.76.44,14.61.09,8.42.1,16.84.11,25.25,0,17.78-.1,35.55.11,53.33.06,5.22.27,10.41.52,15.62.36,7.73.31,15.47.21,23.21-.24,20.03-1.02,40.04-1.7,60.06-.3,8.95-.6,17.9-.79,26.85-.13,5.9-.3,11.84,0,17.74.04.78.09,1.55.18,2.32.24,2.06,1.53,3.69,3.75,3.75,18.27.53,36.53,1.09,54.81,1.16,23.38.09,46.73-.97,70.1-1.19,6.85-.06,13.71-.03,20.56.02,2,.02,3.79-1.73,3.75-3.75-.48-22.44-1.5-44.87-2.16-67.3-.33-11.25-.57-22.51-.6-33.77-.03-10.16.25-20.29.47-30.44.18-8.23-.03-16.48-.05-24.72-.03-13.94,0-27.88.25-41.82.23-12.54.48-25.14,1.72-37.62.11-1.1.23-2.21.37-3.31.25-2.04-1.92-3.72-3.75-3.75-19.14-.32-38.3.42-57.44.81-9.78.2-19.58.45-29.37.27-7.76-.14-15.52-.3-23.28-.45-11.49-.22-22.99-.44-34.48-.63-1.96-.03-3.84,1.75-3.75,3.75s1.65,3.71,3.75,3.75h0Z"/>
    <polygon class="cls-13" points="26.61 14.43 14.5 29.16 14.18 13.04 26.61 14.43"/>
    <polygon class="cls-13" points="140.79 14.16 152.35 27.66 154.57 11.89 140.79 14.16"/>
    <polygon class="cls-13" points="139.48 248.15 153.14 235.93 156.07 248.65 139.48 248.15"/>
    <polygon class="cls-13" points="12.9 235.54 26.24 248.54 12.31 249.36 12.9 235.54"/>
    <rect class="cls-13" width="10.32" height="260.79"/>
    <rect class="cls-13" y="249.36" width="167.24" height="11.43"/>
    <rect class="cls-18" width="167.24" height="10.33"/>
    <rect class="cls-13" x="156.12" width="11.13" height="260.79"/>
  </g>
  <g id="Kategorie_Name" data-name="Kategorie Name">
    <text class="cls-14" transform="translate(56.77 22.56) scale(1 1.09)"><tspan x="0" y="0">gRUPPE</tspan></text>
  </g>
  <g id="Schlücke">
    <text class="cls-7" transform="translate(4.4 252.82)"><tspan x="0" y="0">+3</tspan></text>
    <text class="cls-7" transform="translate(147.68 19.77)"><tspan x="0" y="0">+3</tspan></text>
  </g>
  <g id="Motive">
    <path class="cls-13" d="M83.62,62.77c-22.26,0-40.32,18.05-40.32,40.32s18.06,40.32,40.32,40.32,40.32-18.05,40.32-40.32-18.06-40.32-40.32-40.32ZM56.41,119.88c-1.32-1.05-3.47-7.05-3.92-8.87-7.3-29.74,26.37-51.51,50.69-33.5v-3.63c0-.74,3.04-2.21,3.65.36.28,1.21.27,6.08.09,7.39-.13.87-.49,1.65-1.41,1.85-.91.2-7.56.19-8.36-.06-1.71-.53-1.36-3.05.25-3.53.69-.21,1.38.01,2.02-.24-22.75-15.39-52,7.59-42.32,33.53.44,1.17,2.34,4.38,2.4,5.14.13,1.62-1.76,2.63-3.09,1.57ZM92.07,120.5c-.16,1.77-1.56,3.15-3.33,3.33-2.29.23-8.32.28-10.55-.01-1.26-.16-3.18-1.65-3.18-2.99v-2.68h10.48c.54,0,.86-.91.9-1.38.32-3.56-.26-7.6,0-11.22.09-.4-.59-1.21-.9-1.21h-10.48c.14-2.1.92-4.03,2.27-5.62.57-.67,2.5-2.41,3.33-2.52.76-.11,5.87-.08,6.38.13.87.34,2.97,2.47,3.52,3.3,3.18,4.8.82,15.15,1.56,20.86ZM75.01,115.71v-8.94h8.94v8.94h-8.94ZM80.38,85.81c.11-.86-.15-2.04,0-2.85.09-.49.78-.7,1.21-.74.9-.09,3.39-.12,4.23.02.28.05.9.44.9.72v2.85h-6.33ZM86.71,88.41v5.36h-6.33v-5.36h6.33ZM64.06,128.65v3.63c0,.74-3.04,2.21-3.65-.36-.28-1.21-.27-6.08-.09-7.39.12-.87.49-1.65,1.41-1.85.9-.2,7.56-.18,8.36.06,1.71.53,1.36,3.05-.25,3.53-.69.21-1.38-.01-2.02.24,13.2,9.22,31.68,4.96,39.97-8.67,4.58-7.51,5.43-16.61,2.35-24.86-.44-1.17-2.34-4.38-2.41-5.14-.13-1.62,1.76-2.63,3.1-1.57,1.32,1.05,3.47,7.05,3.92,8.87,7.3,29.74-26.36,51.52-50.69,33.5Z"/>
  </g>
  <g id="Kateg._Symbol" data-name="Kateg. Symbol">
    <g>
      <path class="cls-8" d="M14.73,15.52c.61-.11,3.37-.11,3.98-.02.71.11.9.91.77,1.53-.11.54-.83,2.4-1.09,2.92-.23.47-.38.64-.93.7-.57.06-1.85.12-2.26-.34-.02-.03-.04-.06-.05-.09-.28-.96-1.43-3.03-1.26-3.89.08-.39.42-.74.81-.81Z"/>
      <g>
        <path class="cls-8" d="M13.74,15.19c.15-.16.04-.43-.18-.43h-3.3c-.27,0-.77.74-.79,1.02-.06.75,1.06,2.78,1.28,3.67,0,.03.02.06.04.09.42.49,1.93.46,2.5.34,1.4-.28.09-2.03-.08-2.84s.06-1.37.53-1.87Z"/>
        <path class="cls-8" d="M12.82,10.96c-2.64-.6-2.81,3.28-.46,3.23,1.96-.04,2.03-2.87.46-3.23Z"/>
      </g>
      <path class="cls-8" d="M16.26,11.7c2.72-.56,2.71,3.48.28,3.22-1.84-.19-1.85-2.89-.28-3.22Z"/>
    </g>
    <g>
      <path class="cls-8" d="M151.65,247.97c.61-.11,3.37-.11,3.98-.02.71.11.9.91.77,1.53-.11.54-.83,2.4-1.09,2.92-.23.47-.38.64-.93.7-.57.06-1.85.12-2.26-.34-.02-.03-.04-.06-.05-.09-.28-.96-1.43-3.03-1.26-3.89.08-.39.42-.74.81-.81Z"/>
      <g>
        <path class="cls-8" d="M150.66,247.64c.15-.16.04-.43-.18-.43h-3.3c-.27,0-.77.74-.79,1.02-.06.75,1.06,2.78,1.28,3.67,0,.03.02.06.04.09.42.49,1.93.46,2.5.34,1.4-.28.09-2.03-.08-2.84s.06-1.37.53-1.87Z"/>
        <path class="cls-8" d="M149.74,243.42c-2.64-.6-2.81,3.28-.46,3.23,1.96-.04,2.03-2.87.46-3.23Z"/>
      </g>
      <path class="cls-8" d="M153.18,244.15c2.72-.56,2.71,3.48.28,3.22-1.84-.19-1.85-2.89-.28-3.22Z"/>
    </g>
  </g>
  <g id="Text_Karten" data-name="Text Karten">
    <g>
      <g class="cls-19">
        <text class="cls-3" transform="translate(24.23 179.29)"><tspan x="0" y="0">Flaschen</tspan></text>
        <text class="cls-5" transform="translate(66.14 179.29)"><tspan x="0" y="0">dr</tspan></text>
        <text class="cls-3" transform="translate(76.23 179.29)"><tspan x="0" y="0">ehen: Auf </tspan></text>
        <text class="cls-4" transform="translate(123.19 179.29)"><tspan x="0" y="0">we</tspan></text>
        <text class="cls-2" transform="translate(136.88 179.29)"><tspan x="0" y="0">n </tspan></text>
      </g>
      <text class="cls-9" transform="translate(24.23 179.29)"><tspan x="0" y="0">Flaschen</tspan></text>
      <text class="cls-10" transform="translate(66.14 179.29)"><tspan x="0" y="0">dr</tspan></text>
      <text class="cls-9" transform="translate(76.23 179.29)"><tspan x="0" y="0">ehen: Auf </tspan></text>
      <text class="cls-11" transform="translate(123.19 179.29)"><tspan x="0" y="0">we</tspan></text>
      <text class="cls-12" transform="translate(136.88 179.29)"><tspan x="0" y="0">n </tspan></text>
      <g class="cls-16">
        <text class="cls-5" transform="translate(28.5 191.28)"><tspan x="0" y="0">die Flasche z</tspan></text>
        <text class="cls-5" transform="translate(90.37 191.28)"><tspan x="0" y="0">eigt, mus</tspan></text>
        <text class="cls-2" transform="translate(133.83 191.28)"><tspan x="0" y="0">s </tspan></text>
      </g>
      <text class="cls-10" transform="translate(28.5 191.28)"><tspan x="0" y="0">die Flasche z</tspan></text>
      <text class="cls-10" transform="translate(90.37 191.28)"><tspan x="0" y="0">eigt, mus</tspan></text>
      <text class="cls-12" transform="translate(133.83 191.28)"><tspan x="0" y="0">s </tspan></text>
      <g class="cls-17">
        <text class="cls-2" transform="translate(66.08 203.28)"><tspan x="0" y="0">t</tspan></text>
        <text class="cls-5" transform="translate(69.17 203.28)"><tspan x="0" y="0">rink</tspan></text>
        <text class="cls-5" transform="translate(87.05 203.28)"><tspan x="0" y="0">en.</tspan></text>
      </g>
      <text class="cls-12" transform="translate(66.08 203.28)"><tspan x="0" y="0">t</tspan></text>
      <text class="cls-10" transform="translate(69.17 203.28)"><tspan x="0" y="0">rink</tspan></text>
      <text class="cls-10" transform="translate(87.05 203.28)"><tspan x="0" y="0">en.</tspan></text>
    </g>
  </g>
</svg>