<?xml version="1.0" encoding="UTF-8"?>
<svg xmlns="http://www.w3.org/2000/svg" xmlns:xlink="http://www.w3.org/1999/xlink" viewBox="0 0 167.24 260.79">
  <defs>
    <style>
      .cls-1, .cls-2, .cls-3, .cls-4, .cls-5, .cls-6, .cls-7, .cls-8, .cls-9, .cls-10, .cls-11 {
        fill: none;
      }

      .cls-12 {
        fill: #010101;
      }

      .cls-2, .cls-3, .cls-13, .cls-14, .cls-4, .cls-5, .cls-6, .cls-7, .cls-8, .cls-9, .cls-10, .cls-11 {
        stroke: #fff;
      }

      .cls-2, .cls-3, .cls-4, .cls-5, .cls-15, .cls-16, .cls-17, .cls-6, .cls-7, .cls-8, .cls-18, .cls-19, .cls-20, .cls-21, .cls-22, .cls-9, .cls-10, .cls-23, .cls-11 {
        font-family: QuicksandBold-Regular, Quicksand;
        font-size: 10px;
      }

      .cls-2, .cls-18 {
        letter-spacing: -.02em;
      }

      .cls-24 {
        fill: #171717;
      }

      .cls-13 {
        font-size: 12px;
        stroke-width: .15px;
      }

      .cls-13, .cls-14 {
        stroke-miterlimit: 10;
      }

      .cls-13, .cls-14, .cls-15, .cls-16, .cls-17, .cls-18, .cls-19, .cls-20, .cls-21, .cls-22, .cls-23 {
        fill: #fff;
      }

      .cls-13, .cls-25 {
        font-family: Namaku, Namaku;
      }

      .cls-26, .cls-25 {
        fill: #5baf33;
      }

      .cls-14 {
        stroke-width: .15px;
      }

      .cls-4 {
        letter-spacing: -.04em;
      }

      .cls-25 {
        font-size: 15px;
      }

      .cls-27 {
        clip-path: url(#clippath-1);
      }

      .cls-28 {
        clip-path: url(#clippath-3);
      }

      .cls-29 {
        clip-path: url(#clippath-4);
      }

      .cls-30 {
        clip-path: url(#clippath-2);
      }

      .cls-5, .cls-19 {
        letter-spacing: -.02em;
      }

      .cls-15, .cls-9 {
        letter-spacing: -.04em;
      }

      .cls-16, .cls-10 {
        letter-spacing: -.04em;
      }

      .cls-17, .cls-6 {
        letter-spacing: -.04em;
      }

      .cls-7, .cls-22 {
        letter-spacing: -.08em;
      }

      .cls-8, .cls-21 {
        letter-spacing: -.09em;
      }

      .cls-31 {
        fill: #171715;
      }

      .cls-20, .cls-11 {
        letter-spacing: -.02em;
      }

      .cls-32 {
        clip-path: url(#clippath);
      }
    </style>
    <clipPath id="clippath">
      <rect class="cls-1" x="0" y="0" width="167.24" height="260.79"/>
    </clipPath>
    <clipPath id="clippath-1">
      <rect class="cls-1" x="0" y="0" width="167.24" height="260.79"/>
    </clipPath>
    <clipPath id="clippath-2">
      <rect class="cls-1" x="0" y="0" width="167.24" height="260.79"/>
    </clipPath>
    <clipPath id="clippath-3">
      <rect class="cls-1" x="0" y="0" width="167.24" height="260.79"/>
    </clipPath>
    <clipPath id="clippath-4">
      <rect class="cls-1" x="0" y="0" width="167.24" height="260.79"/>
    </clipPath>
  </defs>
  <g id="Background">
    <rect class="cls-26" width="167.24" height="260.79"/>
  </g>
  <g id="Rahmen">
    <path class="cls-12" d="M151.9,23.16c9.65,0,9.67-15,0-15s-9.67,15,0,15h0Z"/>
    <path class="cls-12" d="M152.22,254.59c9.65,0,9.67-15,0-15s-9.67,15,0,15h0Z"/>
    <path class="cls-12" d="M14.14,254.72c9.65,0,9.67-15,0-15s-9.67,15,0,15h0Z"/>
    <path class="cls-24" d="M11.56,15.67c18.49.32,36.98.69,55.46,1.04,19.51.36,39.05-.42,58.56-.82,10.18-.21,20.36-.38,30.54-.21l-3.75-3.75c-1.46,11.81-1.7,23.8-1.97,35.69-.33,14.15-.39,28.31-.37,42.46.01,9.3.14,18.61.07,27.91-.06,7.86-.43,15.71-.48,23.57-.07,11.29.08,22.59.37,33.88.56,22.38,1.59,44.74,2.18,67.12.07,2.79.14,5.57.2,8.36l3.75-3.75c-15.41-.13-30.81.06-46.22.48-24.85.69-49.67.84-74.52.24-8.25-.2-16.49-.49-24.74-.73l3.75,3.75c-.56-4.87-.34-9.89-.27-14.78.11-8.38.38-16.76.66-25.14.66-20.11,1.45-40.22,1.83-60.34.16-8.4.26-16.81.05-25.21-.13-5.24-.51-10.46-.61-15.7-.33-17.03-.19-34.08-.18-51.11,0-8.91,0-17.82-.06-26.73-.04-5.94-.04-11.89-.34-17.82-.04-.72-.08-1.43-.15-2.15-.19-1.95-1.59-3.85-3.75-3.75-1.87.08-3.96,1.66-3.75,3.75.48,4.83.39,9.76.44,14.61.09,8.42.1,16.84.11,25.25,0,17.78-.1,35.55.11,53.33.06,5.22.27,10.41.52,15.62.36,7.73.31,15.47.21,23.21-.24,20.03-1.02,40.04-1.7,60.06-.3,8.95-.6,17.9-.79,26.85-.13,5.9-.3,11.84,0,17.74.04.78.09,1.55.18,2.32.24,2.06,1.53,3.69,3.75,3.75,18.27.53,36.53,1.09,54.81,1.16,23.38.09,46.73-.97,70.1-1.19,6.85-.06,13.71-.03,20.56.02,2,.02,3.79-1.73,3.75-3.75-.48-22.44-1.5-44.87-2.16-67.3-.33-11.25-.57-22.51-.6-33.77-.03-10.16.25-20.29.47-30.44.18-8.23-.03-16.48-.05-24.72-.03-13.94,0-27.88.25-41.82.23-12.54.48-25.14,1.72-37.62.11-1.1.23-2.21.37-3.31.25-2.04-1.92-3.72-3.75-3.75-19.14-.32-38.3.42-57.44.81-9.78.2-19.58.45-29.37.27-7.76-.14-15.52-.3-23.28-.45-11.49-.22-22.99-.44-34.48-.63-1.96-.03-3.84,1.75-3.75,3.75s1.65,3.71,3.75,3.75h0Z"/>
    <polygon class="cls-24" points="26.61 14.43 14.5 29.16 14.18 13.04 26.61 14.43"/>
    <polygon class="cls-24" points="140.79 14.16 152.35 27.66 154.57 11.89 140.79 14.16"/>
    <polygon class="cls-24" points="139.48 248.15 153.14 235.93 156.07 248.65 139.48 248.15"/>
    <polygon class="cls-24" points="12.9 235.54 26.24 248.54 12.31 249.36 12.9 235.54"/>
    <rect class="cls-24" width="10.32" height="260.79"/>
    <rect class="cls-24" y="249.36" width="167.24" height="11.43"/>
    <rect class="cls-31" width="167.24" height="10.33"/>
    <rect class="cls-24" x="156.12" width="11.13" height="260.79"/>
    <path class="cls-24" d="M114.94,17.19c0-.85.28-3.85,0-4.78-.75-2.49-2.85-2.81-4.91-2.81h-52.81c-2.06,0-4.16.32-4.91,2.81-.28.93,0,3.93,0,4.78l-.22,5.71c-.45,5.31,7.01,4.59,9.84,4.59l16.26.37,5.44-.07h0l5.44.07,16.26-.37c2.82,0,10.28.72,9.84-4.59l-.22-5.71Z"/>
    <path class="cls-12" d="M151.9,23.16c9.65,0,9.67-15,0-15s-9.67,15,0,15h0Z"/>
    <path class="cls-12" d="M152.22,254.59c9.65,0,9.67-15,0-15s-9.67,15,0,15h0Z"/>
    <path class="cls-12" d="M14.14,254.72c9.65,0,9.67-15,0-15s-9.67,15,0,15h0Z"/>
    <path class="cls-24" d="M11.56,15.67c18.49.32,36.98.69,55.46,1.04,19.51.36,39.05-.42,58.56-.82,10.18-.21,20.36-.38,30.54-.21l-3.75-3.75c-1.46,11.81-1.7,23.8-1.97,35.69-.33,14.15-.39,28.31-.37,42.46.01,9.3.14,18.61.07,27.91-.06,7.86-.43,15.71-.48,23.57-.07,11.29.08,22.59.37,33.88.56,22.38,1.59,44.74,2.18,67.12.07,2.79.14,5.57.2,8.36l3.75-3.75c-15.41-.13-30.81.06-46.22.48-24.85.69-49.67.84-74.52.24-8.25-.2-16.49-.49-24.74-.73l3.75,3.75c-.56-4.87-.34-9.89-.27-14.78.11-8.38.38-16.76.66-25.14.66-20.11,1.45-40.22,1.83-60.34.16-8.4.26-16.81.05-25.21-.13-5.24-.51-10.46-.61-15.7-.33-17.03-.19-34.08-.18-51.11,0-8.91,0-17.82-.06-26.73-.04-5.94-.04-11.89-.34-17.82-.04-.72-.08-1.43-.15-2.15-.19-1.95-1.59-3.85-3.75-3.75-1.87.08-3.96,1.66-3.75,3.75.48,4.83.39,9.76.44,14.61.09,8.42.1,16.84.11,25.25,0,17.78-.1,35.55.11,53.33.06,5.22.27,10.41.52,15.62.36,7.73.31,15.47.21,23.21-.24,20.03-1.02,40.04-1.7,60.06-.3,8.95-.6,17.9-.79,26.85-.13,5.9-.3,11.84,0,17.74.04.78.09,1.55.18,2.32.24,2.06,1.53,3.69,3.75,3.75,18.27.53,36.53,1.09,54.81,1.16,23.38.09,46.73-.97,70.1-1.19,6.85-.06,13.71-.03,20.56.02,2,.02,3.79-1.73,3.75-3.75-.48-22.44-1.5-44.87-2.16-67.3-.33-11.25-.57-22.51-.6-33.77-.03-10.16.25-20.29.47-30.44.18-8.23-.03-16.48-.05-24.72-.03-13.94,0-27.88.25-41.82.23-12.54.48-25.14,1.72-37.62.11-1.1.23-2.21.37-3.31.25-2.04-1.92-3.72-3.75-3.75-19.14-.32-38.3.42-57.44.81-9.78.2-19.58.45-29.37.27-7.76-.14-15.52-.3-23.28-.45-11.49-.22-22.99-.44-34.48-.63-1.96-.03-3.84,1.75-3.75,3.75s1.65,3.71,3.75,3.75h0Z"/>
    <polygon class="cls-24" points="26.61 14.43 14.5 29.16 14.18 13.04 26.61 14.43"/>
    <polygon class="cls-24" points="140.79 14.16 152.35 27.66 154.57 11.89 140.79 14.16"/>
    <polygon class="cls-24" points="139.48 248.15 153.14 235.93 156.07 248.65 139.48 248.15"/>
    <polygon class="cls-24" points="12.9 235.54 26.24 248.54 12.31 249.36 12.9 235.54"/>
    <rect class="cls-24" width="10.32" height="260.79"/>
    <rect class="cls-24" y="249.36" width="167.24" height="11.43"/>
    <rect class="cls-31" width="167.24" height="10.33"/>
    <rect class="cls-24" x="156.12" width="11.13" height="260.79"/>
  </g>
  <g id="Kategorie_Name" data-name="Kategorie Name">
    <text class="cls-25" transform="translate(56.77 22.56) scale(1 1.09)"><tspan x="0" y="0">gRUPPE</tspan></text>
  </g>
  <g id="Schlücke">
    <text class="cls-13" transform="translate(4.53 252.82)"><tspan x="0" y="0">+5</tspan></text>
    <text class="cls-13" transform="translate(147.81 19.77)"><tspan x="0" y="0">+5</tspan></text>
  </g>
  <g id="Motive">
    <g>
      <path class="cls-24" d="M121.98,122.68c-1.6-7.55-5.19-17.74-9.06-24.4-2.21-3.82-2.25-2.84-6.41-1.99-7.78,1.58-15.55,4.73-22.68,8.18-.38.18-.6.58-.55,1,.36,3.35.93,6.74,1.09,10.09.32,6.63-.79,8.77,2.04,15.18.48,1.09,3.73,7.69,4.26,7.99,1.01.56,5.32-.59,6.7-.92,6.36-1.51,13.85-4.24,19.7-7.13.73-.36,5.1-2.57,5.32-2.79.82-.84-.15-4.02-.41-5.22ZM106.47,126.43c-1.87.72-3.66.97-5.36.76-1.71-.21-3.21-.86-4.51-1.94-1.3-1.07-2.29-2.51-2.98-4.29-.69-1.78-.9-3.52-.65-5.2.25-1.68.94-3.17,2.05-4.47,1.12-1.29,2.58-2.29,4.38-2.98,2.21-.85,4.41-.93,6.59-.23.57.18.86.81.62,1.35l-.74,1.68c-.2.44-.68.69-1.15.56-1.26-.35-2.54-.28-3.83.22-1.04.4-1.88.99-2.5,1.75-.63.76-1,1.64-1.12,2.64-.12,1,.03,2.03.44,3.11.42,1.07,1,1.94,1.76,2.6.75.66,1.62,1.06,2.6,1.2.98.15,1.98.02,3.03-.38.83-.32,1.56-.77,2.21-1.37.42-.38.77-.8,1.06-1.26.27-.43.83-.59,1.29-.35l1.65.84c.5.25.7.88.42,1.36-1.19,2.04-2.94,3.51-5.26,4.41Z"/>
      <path class="cls-24" d="M64.05,118.55h-4.05c-.52,0-.95-.42-.95-.95v-1.8c0-.52.42-.95.95-.95h4.05c.67,0,1.2.16,1.58.49.38.33.57.78.57,1.37s-.19,1.04-.56,1.36-.9.48-1.6.48Z"/>
      <path class="cls-24" d="M66.74,124.11c0,.65-.22,1.17-.65,1.54-.44.37-1.04.56-1.82.56h-4.26c-.53,0-.95-.43-.95-.95v-2.3c0-.53.43-.95.95-.95h4.26c.78,0,1.39.18,1.82.55.44.36.65.88.65,1.56Z"/>
      <path class="cls-24" d="M81.73,114.88c-.13-2.7-.49-7.28-1.09-9.84-.12-.49-.32-1.3-.72-1.6-.68-.52-6.7-1.18-7.98-1.29-6.71-.6-14.16-.47-20.83.37-.54.07-1.82.22-2.94.44-1.16.22-2.04,1.15-2.25,2.3-1.77,9.9-1.9,20.44.02,30.31.23,1.17,1.17,2.08,2.36,2.26,9.88,1.55,20.33,1.67,30.17-.11,1.16-.21,2.08-1.11,2.3-2.27.97-5.09,1.1-18.09.98-20.57ZM69.15,128.49c-1.25.92-2.97,1.38-5.17,1.38h-8.25c-.53,0-.95-.43-.95-.95v-16.7c0-.53.43-.95.95-.95h8.25c2,0,3.58.44,4.73,1.33,1.15.88,1.73,2.09,1.73,3.62,0,.9-.21,1.69-.62,2.38-.19.3-.4.58-.65.81-.42.4-.38,1.07.08,1.44.38.31.71.67.99,1.1.53.8.8,1.71.8,2.73,0,1.63-.62,2.9-1.87,3.83Z"/>
      <path class="cls-24" d="M81.04,80.34l1.6,3.9c.26.62-.2,1.31-.88,1.31h-3.22c-.68,0-1.14-.69-.88-1.31l1.62-3.9c.33-.78,1.43-.78,1.76,0Z"/>
      <path class="cls-24" d="M98.28,74.82c-.15-1.35-.35-2.9-.7-4.3-.26-1.03-1.06-1.83-2.1-2.06-2.54-.55-7.16-1.03-8.3-1.09-4.03-.23-9.23-.22-13.27-.02-1.22.06-6.04.51-8.75,1.07-1.09.22-1.95,1.07-2.18,2.16-1.77,8.53-1.63,17.51-.74,26.21.14,1.37,1.27,2.44,2.65,2.5,4.11.19,8.25.28,12.31.92.96.15,2.15.29,3.05.59.85.29,1.85,1.33,2.29,1.34.56.01,6.59-2.97,7.8-3.47,2.05-.84,4.17-1.58,6.3-2.24,1.02-.32,1.76-1.19,1.91-2.25.03-.2.05-.37.06-.49.6-5.81.32-13.05-.33-18.87ZM85.86,92.07l-.9-2.18c-.15-.35-.49-.59-.87-.59h-7.91c-.38,0-.73.23-.88.59l-.9,2.18c-.15.35-.49.59-.88.59h-2.56c-.69,0-1.14-.71-.86-1.33l7.5-16.72c.15-.34.49-.56.86-.56h3.43c.37,0,.71.22.86.56l7.45,16.72c.28.63-.18,1.33-.86,1.33h-2.61c-.38,0-.73-.23-.87-.59Z"/>
    </g>
  </g>
  <g id="Kateg._Symbol" data-name="Kateg. Symbol">
    <g>
      <path class="cls-14" d="M14.73,15.52c.61-.11,3.37-.11,3.98-.02.71.11.9.91.77,1.53-.11.54-.83,2.4-1.09,2.92-.23.47-.38.64-.93.7-.57.06-1.85.12-2.26-.34-.02-.03-.04-.06-.05-.09-.28-.96-1.43-3.03-1.26-3.89.08-.39.42-.74.81-.81Z"/>
      <g>
        <path class="cls-14" d="M13.74,15.19c.15-.16.04-.43-.18-.43h-3.3c-.27,0-.77.74-.79,1.02-.06.75,1.06,2.78,1.28,3.67,0,.03.02.06.04.09.42.49,1.93.46,2.5.34,1.4-.28.09-2.03-.08-2.84s.06-1.37.53-1.87Z"/>
        <path class="cls-14" d="M12.82,10.96c-2.64-.6-2.81,3.28-.46,3.23,1.96-.04,2.03-2.87.46-3.23Z"/>
      </g>
      <path class="cls-14" d="M16.26,11.7c2.72-.56,2.71,3.48.28,3.22-1.84-.19-1.85-2.89-.28-3.22Z"/>
    </g>
    <g>
      <path class="cls-14" d="M151.65,247.97c.61-.11,3.37-.11,3.98-.02.71.11.9.91.77,1.53-.11.54-.83,2.4-1.09,2.92-.23.47-.38.64-.93.7-.57.06-1.85.12-2.26-.34-.02-.03-.04-.06-.05-.09-.28-.96-1.43-3.03-1.26-3.89.08-.39.42-.74.81-.81Z"/>
      <g>
        <path class="cls-14" d="M150.66,247.64c.15-.16.04-.43-.18-.43h-3.3c-.27,0-.77.74-.79,1.02-.06.75,1.06,2.78,1.28,3.67,0,.03.02.06.04.09.42.49,1.93.46,2.5.34,1.4-.28.09-2.03-.08-2.84s.06-1.37.53-1.87Z"/>
        <path class="cls-14" d="M149.74,243.42c-2.64-.6-2.81,3.28-.46,3.23,1.96-.04,2.03-2.87.46-3.23Z"/>
      </g>
      <path class="cls-14" d="M153.18,244.15c2.72-.56,2.71,3.48.28,3.22-1.84-.19-1.85-2.89-.28-3.22Z"/>
    </g>
  </g>
  <g id="Text_Karten" data-name="Text Karten">
    <g>
      <g class="cls-32">
        <text class="cls-11" transform="translate(26.21 179.29)"><tspan x="0" y="0">Nennt nacheina</tspan></text>
        <text class="cls-6" transform="translate(101.75 179.29)"><tspan x="0" y="0">nder</tspan></text>
        <text class="cls-11" transform="translate(123.6 179.29)"><tspan x="0" y="0" xml:space="preserve"> ein</tspan></text>
        <text class="cls-3" transform="translate(141.03 179.29)"><tspan x="0" y="0"> </tspan></text>
      </g>
      <text class="cls-20" transform="translate(26.21 179.29)"><tspan x="0" y="0">Nennt nacheina</tspan></text>
      <text class="cls-17" transform="translate(101.75 179.29)"><tspan x="0" y="0">nder</tspan></text>
      <text class="cls-20" transform="translate(123.6 179.29)"><tspan x="0" y="0" xml:space="preserve"> ein</tspan></text>
      <text class="cls-23" transform="translate(141.03 179.29)"><tspan x="0" y="0"> </tspan></text>
      <g class="cls-27">
        <text class="cls-8" transform="translate(28.71 191.28)"><tspan x="0" y="0">Wo</tspan></text>
        <text class="cls-11" transform="translate(44.73 191.28)"><tspan x="0" y="0">rt in a</tspan></text>
        <text class="cls-5" transform="translate(72.99 191.28)"><tspan x="0" y="0">lph</tspan></text>
        <text class="cls-2" transform="translate(88.02 191.28)"><tspan x="0" y="0">abe</tspan></text>
        <text class="cls-11" transform="translate(105.89 191.28)"><tspan x="0" y="0">tische</tspan></text>
        <text class="cls-3" transform="translate(134.14 191.28)"><tspan x="0" y="0">r </tspan></text>
      </g>
      <text class="cls-21" transform="translate(28.71 191.28)"><tspan x="0" y="0">Wo</tspan></text>
      <text class="cls-20" transform="translate(44.73 191.28)"><tspan x="0" y="0">rt in a</tspan></text>
      <text class="cls-19" transform="translate(72.99 191.28)"><tspan x="0" y="0">lph</tspan></text>
      <text class="cls-18" transform="translate(88.02 191.28)"><tspan x="0" y="0">abe</tspan></text>
      <text class="cls-20" transform="translate(105.89 191.28)"><tspan x="0" y="0">tische</tspan></text>
      <text class="cls-23" transform="translate(134.14 191.28)"><tspan x="0" y="0">r </tspan></text>
      <g class="cls-30">
        <text class="cls-3" transform="translate(29.48 203.28)"><tspan x="0" y="0">R</tspan></text>
        <text class="cls-5" transform="translate(35.44 203.28)"><tspan x="0" y="0">eihenf</tspan></text>
        <text class="cls-11" transform="translate(64.98 203.28)"><tspan x="0" y="0">olge. </tspan></text>
        <text class="cls-7" transform="translate(90.41 203.28)"><tspan x="0" y="0">We</tspan></text>
        <text class="cls-2" transform="translate(106.27 203.28)"><tspan x="0" y="0">r k</tspan></text>
        <text class="cls-11" transform="translate(118.41 203.28)"><tspan x="0" y="0">eins</tspan></text>
        <text class="cls-3" transform="translate(137.76 203.28)"><tspan x="0" y="0"> </tspan></text>
      </g>
      <text class="cls-23" transform="translate(29.48 203.28)"><tspan x="0" y="0">R</tspan></text>
      <text class="cls-19" transform="translate(35.44 203.28)"><tspan x="0" y="0">eihenf</tspan></text>
      <text class="cls-20" transform="translate(64.98 203.28)"><tspan x="0" y="0">olge. </tspan></text>
      <text class="cls-22" transform="translate(90.41 203.28)"><tspan x="0" y="0">We</tspan></text>
      <text class="cls-18" transform="translate(106.27 203.28)"><tspan x="0" y="0">r k</tspan></text>
      <text class="cls-20" transform="translate(118.41 203.28)"><tspan x="0" y="0">eins</tspan></text>
      <text class="cls-23" transform="translate(137.75 203.28)"><tspan x="0" y="0"> </tspan></text>
      <g class="cls-28">
        <text class="cls-11" transform="translate(35.75 215.28)"><tspan x="0" y="0">fin</tspan></text>
        <text class="cls-9" transform="translate(47.52 215.28)"><tspan x="0" y="0">de</tspan></text>
        <text class="cls-11" transform="translate(59.25 215.28)"><tspan x="0" y="0">t od</tspan></text>
        <text class="cls-10" transform="translate(78.16 215.28)"><tspan x="0" y="0">er</tspan></text>
        <text class="cls-11" transform="translate(88.02 215.28)"><tspan x="0" y="0" xml:space="preserve"> zu lang</tspan></text>
        <text class="cls-3" transform="translate(125.4 215.28)"><tspan x="0" y="0">e </tspan></text>
      </g>
      <text class="cls-20" transform="translate(35.75 215.28)"><tspan x="0" y="0">fin</tspan></text>
      <text class="cls-15" transform="translate(47.52 215.28)"><tspan x="0" y="0">de</tspan></text>
      <text class="cls-20" transform="translate(59.25 215.28)"><tspan x="0" y="0">t od</tspan></text>
      <text class="cls-16" transform="translate(78.16 215.28)"><tspan x="0" y="0">er</tspan></text>
      <text class="cls-20" transform="translate(88.02 215.28)"><tspan x="0" y="0" xml:space="preserve"> zu lange</tspan></text>
      <text class="cls-23" transform="translate(131.49 215.28)"><tspan x="0" y="0"> </tspan></text>
      <g class="cls-29">
        <text class="cls-11" transform="translate(31.18 227.28)"><tspan x="0" y="0">br</tspan></text>
        <text class="cls-11" transform="translate(41.52 227.28)"><tspan x="0" y="0">aucht, muss t</tspan></text>
        <text class="cls-2" transform="translate(104.06 227.28)"><tspan x="0" y="0">rin</tspan></text>
        <text class="cls-4" transform="translate(116.79 227.28)"><tspan x="0" y="0">ke</tspan></text>
        <text class="cls-11" transform="translate(127.83 227.28)"><tspan x="0" y="0">n.</tspan></text>
      </g>
      <text class="cls-20" transform="translate(31.18 227.28)"><tspan x="0" y="0">br</tspan></text>
      <text class="cls-20" transform="translate(41.52 227.28)"><tspan x="0" y="0">aucht, muss t</tspan></text>
      <text class="cls-18" transform="translate(104.06 227.28)"><tspan x="0" y="0">rink</tspan></text>
      <text class="cls-20" transform="translate(121.95 227.28)"><tspan x="0" y="0">en.</tspan></text>
    </g>
  </g>
</svg>