<?xml version="1.0" encoding="UTF-8"?>
<svg xmlns="http://www.w3.org/2000/svg" xmlns:xlink="http://www.w3.org/1999/xlink" viewBox="0 0 167.24 260.79">
  <defs>
    <style>
      .cls-1, .cls-2, .cls-3, .cls-4, .cls-5, .cls-6, .cls-7 {
        fill: none;
      }

      .cls-8 {
        fill: #010101;
      }

      .cls-2, .cls-3, .cls-9, .cls-10, .cls-4, .cls-5, .cls-6, .cls-7 {
        stroke: #fff;
      }

      .cls-2, .cls-3, .cls-4, .cls-5, .cls-11, .cls-6, .cls-12, .cls-13, .cls-14, .cls-15, .cls-16, .cls-7 {
        font-family: QuicksandBold-Regular, Quicksand;
        font-size: 10px;
      }

      .cls-2, .cls-12 {
        letter-spacing: -.02em;
      }

      .cls-17 {
        fill: #171717;
      }

      .cls-9 {
        font-size: 12px;
        stroke-width: .15px;
      }

      .cls-9, .cls-10 {
        stroke-miterlimit: 10;
      }

      .cls-9, .cls-10, .cls-11, .cls-12, .cls-13, .cls-14, .cls-15, .cls-16 {
        fill: #fff;
      }

      .cls-9, .cls-18 {
        font-family: Namaku, Namaku;
      }

      .cls-19, .cls-18 {
        fill: #5baf33;
      }

      .cls-10 {
        stroke-width: .15px;
      }

      .cls-18 {
        font-size: 15px;
      }

      .cls-20 {
        clip-path: url(#clippath-1);
      }

      .cls-21 {
        clip-path: url(#clippath-3);
      }

      .cls-22 {
        clip-path: url(#clippath-2);
      }

      .cls-4, .cls-11 {
        letter-spacing: -.05em;
      }

      .cls-5, .cls-13 {
        letter-spacing: -.02em;
      }

      .cls-6, .cls-15 {
        letter-spacing: -.08em;
      }

      .cls-23 {
        fill: #171715;
      }

      .cls-14, .cls-7 {
        letter-spacing: -.02em;
      }

      .cls-24 {
        clip-path: url(#clippath);
      }
    </style>
    <clipPath id="clippath">
      <rect class="cls-1" x="0" y="0" width="167.24" height="260.79"/>
    </clipPath>
    <clipPath id="clippath-1">
      <rect class="cls-1" x="0" y="0" width="167.24" height="260.79"/>
    </clipPath>
    <clipPath id="clippath-2">
      <rect class="cls-1" x="0" y="0" width="167.24" height="260.79"/>
    </clipPath>
    <clipPath id="clippath-3">
      <rect class="cls-1" x="0" y="0" width="167.24" height="260.79"/>
    </clipPath>
  </defs>
  <g id="Background">
    <rect class="cls-19" x="0" width="167.24" height="260.79"/>
  </g>
  <g id="Rahmen">
    <path class="cls-8" d="M151.9,23.16c9.65,0,9.67-15,0-15s-9.67,15,0,15h0Z"/>
    <path class="cls-8" d="M152.22,254.59c9.65,0,9.67-15,0-15s-9.67,15,0,15h0Z"/>
    <path class="cls-8" d="M14.14,254.72c9.65,0,9.67-15,0-15s-9.67,15,0,15h0Z"/>
    <path class="cls-17" d="M11.56,15.67c18.49.32,36.98.69,55.46,1.04,19.51.36,39.05-.42,58.56-.82,10.18-.21,20.36-.38,30.54-.21l-3.75-3.75c-1.46,11.81-1.7,23.8-1.97,35.69-.33,14.15-.39,28.31-.37,42.46.01,9.3.14,18.61.07,27.91-.06,7.86-.43,15.71-.48,23.57-.07,11.29.08,22.59.37,33.88.56,22.38,1.59,44.74,2.18,67.12.07,2.79.14,5.57.2,8.36l3.75-3.75c-15.41-.13-30.81.06-46.22.48-24.85.69-49.67.84-74.52.24-8.25-.2-16.49-.49-24.74-.73l3.75,3.75c-.56-4.87-.34-9.89-.27-14.78.11-8.38.38-16.76.66-25.14.66-20.11,1.45-40.22,1.83-60.34.16-8.4.26-16.81.05-25.21-.13-5.24-.51-10.46-.61-15.7-.33-17.03-.19-34.08-.18-51.11,0-8.91,0-17.82-.06-26.73-.04-5.94-.04-11.89-.34-17.82-.04-.72-.08-1.43-.15-2.15-.19-1.95-1.59-3.85-3.75-3.75-1.87.08-3.96,1.66-3.75,3.75.48,4.83.39,9.76.44,14.61.09,8.42.1,16.84.11,25.25,0,17.78-.1,35.55.11,53.33.06,5.22.27,10.41.52,15.62.36,7.73.31,15.47.21,23.21-.24,20.03-1.02,40.04-1.7,60.06-.3,8.95-.6,17.9-.79,26.85-.13,5.9-.3,11.84,0,17.74.04.78.09,1.55.18,2.32.24,2.06,1.53,3.69,3.75,3.75,18.27.53,36.53,1.09,54.81,1.16,23.38.09,46.73-.97,70.1-1.19,6.85-.06,13.71-.03,20.56.02,2,.02,3.79-1.73,3.75-3.75-.48-22.44-1.5-44.87-2.16-67.3-.33-11.25-.57-22.51-.6-33.77-.03-10.16.25-20.29.47-30.44.18-8.23-.03-16.48-.05-24.72-.03-13.94,0-27.88.25-41.82.23-12.54.48-25.14,1.72-37.62.11-1.1.23-2.21.37-3.31.25-2.04-1.92-3.72-3.75-3.75-19.14-.32-38.3.42-57.44.81-9.78.2-19.58.45-29.37.27-7.76-.14-15.52-.3-23.28-.45-11.49-.22-22.99-.44-34.48-.63-1.96-.03-3.84,1.75-3.75,3.75s1.65,3.71,3.75,3.75h0Z"/>
    <polygon class="cls-17" points="26.61 14.43 14.5 29.16 14.18 13.04 26.61 14.43"/>
    <polygon class="cls-17" points="140.79 14.16 152.35 27.66 154.57 11.89 140.79 14.16"/>
    <polygon class="cls-17" points="139.48 248.15 153.14 235.93 156.07 248.65 139.48 248.15"/>
    <polygon class="cls-17" points="12.9 235.54 26.24 248.54 12.31 249.36 12.9 235.54"/>
    <rect class="cls-17" width="10.32" height="260.79"/>
    <rect class="cls-17" y="249.36" width="167.24" height="11.43"/>
    <rect class="cls-23" width="167.24" height="10.33"/>
    <rect class="cls-17" x="156.12" width="11.13" height="260.79"/>
    <path class="cls-17" d="M114.94,17.19c0-.85.28-3.85,0-4.78-.75-2.49-2.85-2.81-4.91-2.81h-52.81c-2.06,0-4.16.32-4.91,2.81-.28.93,0,3.93,0,4.78l-.22,5.71c-.45,5.31,7.01,4.59,9.84,4.59l16.26.37,5.44-.07h0l5.44.07,16.26-.37c2.82,0,10.28.72,9.84-4.59l-.22-5.71Z"/>
    <path class="cls-8" d="M151.9,23.16c9.65,0,9.67-15,0-15s-9.67,15,0,15h0Z"/>
    <path class="cls-8" d="M152.22,254.59c9.65,0,9.67-15,0-15s-9.67,15,0,15h0Z"/>
    <path class="cls-8" d="M14.14,254.72c9.65,0,9.67-15,0-15s-9.67,15,0,15h0Z"/>
    <path class="cls-17" d="M11.56,15.67c18.49.32,36.98.69,55.46,1.04,19.51.36,39.05-.42,58.56-.82,10.18-.21,20.36-.38,30.54-.21l-3.75-3.75c-1.46,11.81-1.7,23.8-1.97,35.69-.33,14.15-.39,28.31-.37,42.46.01,9.3.14,18.61.07,27.91-.06,7.86-.43,15.71-.48,23.57-.07,11.29.08,22.59.37,33.88.56,22.38,1.59,44.74,2.18,67.12.07,2.79.14,5.57.2,8.36l3.75-3.75c-15.41-.13-30.81.06-46.22.48-24.85.69-49.67.84-74.52.24-8.25-.2-16.49-.49-24.74-.73l3.75,3.75c-.56-4.87-.34-9.89-.27-14.78.11-8.38.38-16.76.66-25.14.66-20.11,1.45-40.22,1.83-60.34.16-8.4.26-16.81.05-25.21-.13-5.24-.51-10.46-.61-15.7-.33-17.03-.19-34.08-.18-51.11,0-8.91,0-17.82-.06-26.73-.04-5.94-.04-11.89-.34-17.82-.04-.72-.08-1.43-.15-2.15-.19-1.95-1.59-3.85-3.75-3.75-1.87.08-3.96,1.66-3.75,3.75.48,4.83.39,9.76.44,14.61.09,8.42.1,16.84.11,25.25,0,17.78-.1,35.55.11,53.33.06,5.22.27,10.41.52,15.62.36,7.73.31,15.47.21,23.21-.24,20.03-1.02,40.04-1.7,60.06-.3,8.95-.6,17.9-.79,26.85-.13,5.9-.3,11.84,0,17.74.04.78.09,1.55.18,2.32.24,2.06,1.53,3.69,3.75,3.75,18.27.53,36.53,1.09,54.81,1.16,23.38.09,46.73-.97,70.1-1.19,6.85-.06,13.71-.03,20.56.02,2,.02,3.79-1.73,3.75-3.75-.48-22.44-1.5-44.87-2.16-67.3-.33-11.25-.57-22.51-.6-33.77-.03-10.16.25-20.29.47-30.44.18-8.23-.03-16.48-.05-24.72-.03-13.94,0-27.88.25-41.82.23-12.54.48-25.14,1.72-37.62.11-1.1.23-2.21.37-3.31.25-2.04-1.92-3.72-3.75-3.75-19.14-.32-38.3.42-57.44.81-9.78.2-19.58.45-29.37.27-7.76-.14-15.52-.3-23.28-.45-11.49-.22-22.99-.44-34.48-.63-1.96-.03-3.84,1.75-3.75,3.75s1.65,3.71,3.75,3.75h0Z"/>
    <polygon class="cls-17" points="26.61 14.43 14.5 29.16 14.18 13.04 26.61 14.43"/>
    <polygon class="cls-17" points="140.79 14.16 152.35 27.66 154.57 11.89 140.79 14.16"/>
    <polygon class="cls-17" points="139.48 248.15 153.14 235.93 156.07 248.65 139.48 248.15"/>
    <polygon class="cls-17" points="12.9 235.54 26.24 248.54 12.31 249.36 12.9 235.54"/>
    <rect class="cls-17" width="10.32" height="260.79"/>
    <rect class="cls-17" y="249.36" width="167.24" height="11.43"/>
    <rect class="cls-23" width="167.24" height="10.33"/>
    <rect class="cls-17" x="156.12" width="11.13" height="260.79"/>
  </g>
  <g id="Kategorie_Name" data-name="Kategorie Name">
    <text class="cls-18" transform="translate(56.77 22.56) scale(1 1.09)"><tspan x="0" y="0">gRUPPE</tspan></text>
  </g>
  <g id="Schlücke">
    <text class="cls-9" transform="translate(4.4 252.82)"><tspan x="0" y="0">+3</tspan></text>
    <text class="cls-9" transform="translate(147.68 19.77)"><tspan x="0" y="0">+3</tspan></text>
  </g>
  <g id="Motive">
    <g>
      <path class="cls-17" d="M55.66,76.42l-5.03-5.16c-.44-.45-.44-1.16-.01-1.61l2.56-2.72c.45-.48,1.21-.49,1.68-.03l61.4,61.37c.47.47.45,1.23-.03,1.68l-2.72,2.55c-.46.43-1.17.42-1.62-.02l-11.03-10.87c-.22-.21-.51-.34-.82-.34l-25.43-.05c-.31,0-.6.12-.82.33l-16.64,16.32c-4.04,3.55-9.96,1.28-10.49-4.08,0-.05,0-.1,0-.14v-49.65c-.22-2.05,2.86-5.61,4.76-5.61h3.41c1.03,0,1.56-1.24.84-1.98ZM74.06,94.82l-3.9-3.99c-.22-.22-.52-.35-.83-.35h-9.12c-.64,0-1.17.52-1.17,1.17v3.99c0,.64.52,1.17,1.17,1.17h13.02c1.03,0,1.56-1.24.83-1.98ZM86.13,106.89l-3.61-3.7c-.22-.22-.52-.35-.84-.35h-21.49c-.64,0-1.17.52-1.17,1.17v3.7c0,.64.52,1.17,1.17,1.17h25.1c1.03,0,1.56-1.24.84-1.98Z"/>
      <path class="cls-17" d="M96.36,96.8h10.38c.64,0,1.17-.52,1.17-1.17v-3.99c0-.64-.52-1.17-1.17-1.17h-19.19c-.31,0-.61-.12-.83-.35l-9.62-9.74c-.73-.74-.21-1.99.83-1.99h37.6c.19,0,1.84.82,2.14,1.02,1.54,1.05,2.42,2.74,2.6,4.58.99,9.89-.72,21.37,0,31.45,0,.11,0,.21-.02.32-.31,1.48-.96,3.07-2.16,4.02-.45.36-1.11.3-1.52-.11l-21.02-20.89c-.74-.73-.22-2,.82-2Z"/>
    </g>
  </g>
  <g id="Kateg._Symbol" data-name="Kateg. Symbol">
    <g>
      <path class="cls-10" d="M14.73,15.52c.61-.11,3.37-.11,3.98-.02.71.11.9.91.77,1.53-.11.54-.83,2.4-1.09,2.92-.23.47-.38.64-.93.7-.57.06-1.85.12-2.26-.34-.02-.03-.04-.06-.05-.09-.28-.96-1.43-3.03-1.26-3.89.08-.39.42-.74.81-.81Z"/>
      <g>
        <path class="cls-10" d="M13.74,15.19c.15-.16.04-.43-.18-.43h-3.3c-.27,0-.77.74-.79,1.02-.06.75,1.06,2.78,1.28,3.67,0,.03.02.06.04.09.42.49,1.93.46,2.5.34,1.4-.28.09-2.03-.08-2.84s.06-1.37.53-1.87Z"/>
        <path class="cls-10" d="M12.82,10.96c-2.64-.6-2.81,3.28-.46,3.23,1.96-.04,2.03-2.87.46-3.23Z"/>
      </g>
      <path class="cls-10" d="M16.26,11.7c2.72-.56,2.71,3.48.28,3.22-1.84-.19-1.85-2.89-.28-3.22Z"/>
    </g>
    <g>
      <path class="cls-10" d="M151.65,247.97c.61-.11,3.37-.11,3.98-.02.71.11.9.91.77,1.53-.11.54-.83,2.4-1.09,2.92-.23.47-.38.64-.93.7-.57.06-1.85.12-2.26-.34-.02-.03-.04-.06-.05-.09-.28-.96-1.43-3.03-1.26-3.89.08-.39.42-.74.81-.81Z"/>
      <g>
        <path class="cls-10" d="M150.66,247.64c.15-.16.04-.43-.18-.43h-3.3c-.27,0-.77.74-.79,1.02-.06.75,1.06,2.78,1.28,3.67,0,.03.02.06.04.09.42.49,1.93.46,2.5.34,1.4-.28.09-2.03-.08-2.84s.06-1.37.53-1.87Z"/>
        <path class="cls-10" d="M149.74,243.42c-2.64-.6-2.81,3.28-.46,3.23,1.96-.04,2.03-2.87.46-3.23Z"/>
      </g>
      <path class="cls-10" d="M153.18,244.15c2.72-.56,2.71,3.48.28,3.22-1.84-.19-1.85-2.89-.28-3.22Z"/>
    </g>
  </g>
  <g id="Text_Karten" data-name="Text Karten">
    <g>
      <g class="cls-24">
        <text class="cls-7" transform="translate(28.14 179.29)"><tspan x="0" y="0">Wählt ein </tspan></text>
        <text class="cls-6" transform="translate(76.55 179.29)"><tspan x="0" y="0">Wo</tspan></text>
        <text class="cls-2" transform="translate(92.57 179.29)"><tspan x="0" y="0">rt, das für</tspan></text>
        <text class="cls-3" transform="translate(139.11 179.29)"><tspan x="0" y="0"> </tspan></text>
      </g>
      <text class="cls-14" transform="translate(28.14 179.29)"><tspan x="0" y="0">Wählt ein </tspan></text>
      <text class="cls-15" transform="translate(76.55 179.29)"><tspan x="0" y="0">Wo</tspan></text>
      <text class="cls-12" transform="translate(92.57 179.29)"><tspan x="0" y="0">rt, das für</tspan></text>
      <text class="cls-16" transform="translate(139.11 179.29)"><tspan x="0" y="0"> </tspan></text>
      <g class="cls-20">
        <text class="cls-7" transform="translate(28.48 191.28)"><tspan x="0" y="0">die nächs</tspan></text>
        <text class="cls-3" transform="translate(73.96 191.28)"><tspan x="0" y="0">t</tspan></text>
        <text class="cls-5" transform="translate(77.36 191.28)"><tspan x="0" y="0">en 5 Minut</tspan></text>
        <text class="cls-7" transform="translate(126.74 191.28)"><tspan x="0" y="0">en</tspan></text>
        <text class="cls-3" transform="translate(138.76 191.28)"><tspan x="0" y="0"> </tspan></text>
      </g>
      <text class="cls-14" transform="translate(28.48 191.28)"><tspan x="0" y="0">die nächs</tspan></text>
      <text class="cls-16" transform="translate(73.96 191.28)"><tspan x="0" y="0">t</tspan></text>
      <text class="cls-13" transform="translate(77.36 191.28)"><tspan x="0" y="0">en 5 Minut</tspan></text>
      <text class="cls-14" transform="translate(126.74 191.28)"><tspan x="0" y="0">en</tspan></text>
      <text class="cls-16" transform="translate(138.76 191.28)"><tspan x="0" y="0"> </tspan></text>
      <g class="cls-22">
        <text class="cls-4" transform="translate(22.89 203.28)"><tspan x="0" y="0">ve</tspan></text>
        <text class="cls-7" transform="translate(33.89 203.28)"><tspan x="0" y="0">rbo</tspan></text>
        <text class="cls-3" transform="translate(50.34 203.28)"><tspan x="0" y="0">t</tspan></text>
        <text class="cls-5" transform="translate(53.74 203.28)"><tspan x="0" y="0">en is</tspan></text>
        <text class="cls-7" transform="translate(75.84 203.28)"><tspan x="0" y="0">t. </tspan></text>
        <text class="cls-6" transform="translate(84.54 203.28)"><tspan x="0" y="0">We</tspan></text>
        <text class="cls-2" transform="translate(100.39 203.28)"><tspan x="0" y="0">r es sa</tspan></text>
        <text class="cls-7" transform="translate(131.85 203.28)"><tspan x="0" y="0">gt,</tspan></text>
        <text class="cls-3" transform="translate(144.35 203.28)"><tspan x="0" y="0"> </tspan></text>
      </g>
      <text class="cls-11" transform="translate(22.89 203.28)"><tspan x="0" y="0">ve</tspan></text>
      <text class="cls-14" transform="translate(33.89 203.28)"><tspan x="0" y="0">rbo</tspan></text>
      <text class="cls-16" transform="translate(50.34 203.28)"><tspan x="0" y="0">t</tspan></text>
      <text class="cls-13" transform="translate(53.74 203.28)"><tspan x="0" y="0">en is</tspan></text>
      <text class="cls-14" transform="translate(75.84 203.28)"><tspan x="0" y="0">t. </tspan></text>
      <text class="cls-15" transform="translate(84.54 203.28)"><tspan x="0" y="0">We</tspan></text>
      <text class="cls-12" transform="translate(100.39 203.28)"><tspan x="0" y="0">r es sa</tspan></text>
      <text class="cls-14" transform="translate(131.85 203.28)"><tspan x="0" y="0">gt,</tspan></text>
      <text class="cls-16" transform="translate(144.35 203.28)"><tspan x="0" y="0"> </tspan></text>
      <g class="cls-21">
        <text class="cls-5" transform="translate(52.38 215.28)"><tspan x="0" y="0">muss t</tspan></text>
        <text class="cls-2" transform="translate(82.86 215.28)"><tspan x="0" y="0">rink</tspan></text>
        <text class="cls-7" transform="translate(100.74 215.28)"><tspan x="0" y="0">en.</tspan></text>
      </g>
      <text class="cls-13" transform="translate(52.38 215.28)"><tspan x="0" y="0">muss t</tspan></text>
      <text class="cls-12" transform="translate(82.86 215.28)"><tspan x="0" y="0">rink</tspan></text>
      <text class="cls-14" transform="translate(100.74 215.28)"><tspan x="0" y="0">en.</tspan></text>
    </g>
  </g>
</svg>