<?xml version="1.0" encoding="UTF-8"?>
<svg xmlns="http://www.w3.org/2000/svg" xmlns:xlink="http://www.w3.org/1999/xlink" viewBox="0 0 167.24 260.79">
  <defs>
    <style>
      .cls-1, .cls-2, .cls-3, .cls-4, .cls-5, .cls-6, .cls-7, .cls-8, .cls-9 {
        fill: none;
      }

      .cls-10 {
        fill: #010101;
      }

      .cls-2, .cls-3, .cls-11, .cls-4, .cls-5, .cls-6, .cls-7, .cls-8, .cls-9 {
        stroke: #fff;
      }

      .cls-2, .cls-3, .cls-4, .cls-5, .cls-6, .cls-7, .cls-12, .cls-13, .cls-8, .cls-14, .cls-15, .cls-16, .cls-17, .cls-18, .cls-9 {
        font-family: QuicksandBold-Regular, Quicksand;
        font-size: 10px;
      }

      .cls-2, .cls-14 {
        letter-spacing: -.02em;
      }

      .cls-19 {
        fill: #171717;
      }

      .cls-11 {
        font-size: 12px;
        stroke-miterlimit: 10;
        stroke-width: .15px;
      }

      .cls-11, .cls-20, .cls-12, .cls-13, .cls-14, .cls-15, .cls-16, .cls-17, .cls-18 {
        fill: #fff;
      }

      .cls-11, .cls-21 {
        font-family: Namaku, Namaku;
      }

      .cls-4 {
        letter-spacing: -.02em;
      }

      .cls-22 {
        clip-path: url(#clippath-1);
      }

      .cls-23 {
        clip-path: url(#clippath-3);
      }

      .cls-24 {
        clip-path: url(#clippath-2);
      }

      .cls-5, .cls-13 {
        letter-spacing: -.05em;
      }

      .cls-6, .cls-12 {
        letter-spacing: -.04em;
      }

      .cls-7, .cls-15 {
        letter-spacing: -.02em;
      }

      .cls-8, .cls-17 {
        letter-spacing: -.09em;
      }

      .cls-25 {
        fill: #171715;
      }

      .cls-16, .cls-9 {
        letter-spacing: -.02em;
      }

      .cls-21 {
        font-size: 15px;
      }

      .cls-21, .cls-26 {
        fill: #0a90ce;
      }

      .cls-27 {
        clip-path: url(#clippath);
      }
    </style>
    <clipPath id="clippath">
      <rect class="cls-1" x="0" y="0" width="167.24" height="260.79"/>
    </clipPath>
    <clipPath id="clippath-1">
      <rect class="cls-1" x="0" y="0" width="167.24" height="260.79"/>
    </clipPath>
    <clipPath id="clippath-2">
      <rect class="cls-1" x="0" y="0" width="167.24" height="260.79"/>
    </clipPath>
    <clipPath id="clippath-3">
      <rect class="cls-1" x="0" y="0" width="167.24" height="260.79"/>
    </clipPath>
  </defs>
  <g id="Background">
    <rect class="cls-26" width="167.24" height="260.79"/>
  </g>
  <g id="Rahmen">
    <path class="cls-10" d="M151.9,23.16c9.65,0,9.67-15,0-15s-9.67,15,0,15h0Z"/>
    <path class="cls-10" d="M152.22,254.59c9.65,0,9.67-15,0-15s-9.67,15,0,15h0Z"/>
    <path class="cls-10" d="M14.14,254.72c9.65,0,9.67-15,0-15s-9.67,15,0,15h0Z"/>
    <path class="cls-19" d="M11.56,15.67c18.49.32,36.98.69,55.46,1.04,19.51.36,39.05-.42,58.56-.82,10.18-.21,20.36-.38,30.54-.21l-3.75-3.75c-1.46,11.81-1.7,23.8-1.97,35.69-.33,14.15-.39,28.31-.37,42.46.01,9.3.14,18.61.07,27.91-.06,7.86-.43,15.71-.48,23.57-.07,11.29.08,22.59.37,33.88.56,22.38,1.59,44.74,2.18,67.12.07,2.79.14,5.57.2,8.36l3.75-3.75c-15.41-.13-30.81.06-46.22.48-24.85.69-49.67.84-74.52.24-8.25-.2-16.49-.49-24.74-.73l3.75,3.75c-.56-4.87-.34-9.89-.27-14.78.11-8.38.38-16.76.66-25.14.66-20.11,1.45-40.22,1.83-60.34.16-8.4.26-16.81.05-25.21-.13-5.24-.51-10.46-.61-15.7-.33-17.03-.19-34.08-.18-51.11,0-8.91,0-17.82-.06-26.73-.04-5.94-.04-11.89-.34-17.82-.04-.72-.08-1.43-.15-2.15-.19-1.95-1.59-3.85-3.75-3.75-1.87.08-3.96,1.66-3.75,3.75.48,4.83.39,9.76.44,14.61.09,8.42.1,16.84.11,25.25,0,17.78-.1,35.55.11,53.33.06,5.22.27,10.41.52,15.62.36,7.73.31,15.47.21,23.21-.24,20.03-1.02,40.04-1.7,60.06-.3,8.95-.6,17.9-.79,26.85-.13,5.9-.3,11.84,0,17.74.04.78.09,1.55.18,2.32.24,2.06,1.53,3.69,3.75,3.75,18.27.53,36.53,1.09,54.81,1.16,23.38.09,46.73-.97,70.1-1.19,6.85-.06,13.71-.03,20.56.02,2,.02,3.79-1.73,3.75-3.75-.48-22.44-1.5-44.87-2.16-67.3-.33-11.25-.57-22.51-.6-33.77-.03-10.16.25-20.29.47-30.44.18-8.23-.03-16.48-.05-24.72-.03-13.94,0-27.88.25-41.82.23-12.54.48-25.14,1.72-37.62.11-1.1.23-2.21.37-3.31.25-2.04-1.92-3.72-3.75-3.75-19.14-.32-38.3.42-57.44.81-9.78.2-19.58.45-29.37.27-7.76-.14-15.52-.3-23.28-.45-11.49-.22-22.99-.44-34.48-.63-1.96-.03-3.84,1.75-3.75,3.75s1.65,3.71,3.75,3.75h0Z"/>
    <polygon class="cls-19" points="26.61 14.43 14.5 29.16 14.18 13.04 26.61 14.43"/>
    <polygon class="cls-19" points="140.79 14.16 152.35 27.66 154.57 11.89 140.79 14.16"/>
    <polygon class="cls-19" points="139.48 248.15 153.14 235.93 156.07 248.65 139.48 248.15"/>
    <polygon class="cls-19" points="12.9 235.54 26.24 248.54 12.31 249.36 12.9 235.54"/>
    <rect class="cls-19" width="10.32" height="260.79"/>
    <rect class="cls-19" y="249.36" width="167.24" height="11.43"/>
    <rect class="cls-25" width="167.24" height="10.33"/>
    <rect class="cls-19" x="156.12" width="11.13" height="260.79"/>
    <path class="cls-19" d="M122.85,17.19c0-.85.35-3.85,0-4.78-.94-2.49-3.57-2.81-6.15-2.81H50.54c-2.58,0-5.21.32-6.15,2.81-.35.93,0,3.93,0,4.78l-.28,5.71c-.56,5.31,8.78,4.59,12.32,4.59l20.37.37,6.82-.07h0l6.82.07,20.37-.37c3.54,0,12.88.72,12.32-4.59l-.28-5.71Z"/>
  </g>
  <g id="Kategorie_Name" data-name="Kategorie Name">
    <text class="cls-21" transform="translate(48.55 22.56) scale(1 1.09)"><tspan x="0" y="0">Wahrheit</tspan></text>
  </g>
  <g id="Schlücke">
    <text class="cls-11" transform="translate(4.4 252.82)"><tspan x="0" y="0">+3</tspan></text>
    <text class="cls-11" transform="translate(147.68 19.77)"><tspan x="0" y="0">+3</tspan></text>
  </g>
  <g id="Motive">
    <g>
      <path class="cls-19" d="M39.19,124.68c.06-.5.47-1.73.68-2.26,1.46-3.73,5.08-6.44,9.11-6.72,2.23-8.65,13.02-11.28,18.75-4.22,7.24-6.04,18.07-1.56,19.34,7.64,11.47,1.81,9.14,18.14-2.36,16.68-3.3,6.46-11.61,8.09-17,3.14-4.89,2.9-10.96,1.87-14.41-2.68-5.19,1.77-11.09-.66-13.25-5.78-.29-.7-.78-2.08-.86-2.79s-.08-2.32,0-3.03Z"/>
      <path class="cls-19" d="M127.53,124.93c-6.58,8.67-16.88,14.03-27.69,14.7-3.2.2-7.17-.23-8.25-.46s-.85-1.37.06-1.49c.34-.12-.06.03,0,0,8.66-4.77,7.82-16.96-.92-20.86-.63-.28-1.14-.81-1.39-1.46-3.03-7.93-12.04-11.84-19.91-8.59-.83.35-1.78.26-2.55-.22-1.49-.92-3.09-1.65-4.8-1.97-1.33-.25-2.34-1.35-2.34-2.7-.01-17.11,11.83-32.6,28.58-36.7,1.45-.35,2.88-.59,4.32-.77,2.13-.26,3.75,1.91,2.9,3.89-.65,1.49-1.22,3.01-1.65,4.59-5.55,20.36,6.42,41.27,26.73,46.58,1.65.43,3.32.75,5,.96,2.18.27,3.24,2.76,1.91,4.5Z"/>
      <path class="cls-19" d="M120.46,98.11l-.2,1.63c-.03.25.06.5.24.67l1.19,1.15c.46.45.23,1.23-.4,1.36l-1.62.32c-.24.05-.44.2-.55.42l-.78,1.51c-.3.58-1.12.57-1.42,0l-.7-1.37c-.12-.23-.35-.39-.61-.43l-1.65-.21c-.64-.08-.92-.84-.5-1.32l1.17-1.33c.16-.18.23-.43.19-.67l-.29-1.57c-.12-.64.54-1.14,1.12-.87l1.52.71c.23.11.5.1.72-.02l1.39-.77c.57-.31,1.26.15,1.18.79Z"/>
      <path class="cls-19" d="M49.43,97.17l-1.37-.65c-.15-.07-.33-.07-.49,0l-1.35.64c-.41.2-.88-.15-.81-.61l.24-1.47c.03-.17-.02-.35-.14-.48-.26-.29-.76-.73-1.16-1.12-.33-.33-.14-.9.32-.96l1.62-.23c.19-.03.36-.15.44-.33l.58-1.27c.2-.43.81-.45,1.02-.02.34.66.71,1.48.91,1.6.23.14.97.22,1.6.32.46.07.64.63.32.96l-1.01,1.02c-.13.13-.19.31-.16.49l.23,1.51c.07.45-.39.79-.81.6Z"/>
      <path class="cls-19" d="M106.17,86.96c.39-.18.83.16.74.58-.09.49-.23.98-.1,1.41.1.32.51.64.92.95.37.28.22.87-.24.94l-1.11.18c-.18.03-.33.14-.4.31l-.47,1.06c-.18.4-.73.42-.94.05l-.56-.98c-.08-.13-.21-.22-.35-.25l-1.26-.25c-.41-.08-.57-.58-.28-.89l.73-.76c.11-.12.16-.28.14-.43l-.17-1.31c-.05-.42.38-.73.76-.54l.96.47c.14.07.31.07.46,0l1.18-.55Z"/>
    </g>
  </g>
  <g id="Kategorien">
    <g>
      <path class="cls-20" d="M16.88,11.24c-.78-.5-1.64-.67-2.56-.59-1.24.1-2.47.91-3.06,2-.13.23-.13.29.07.48.23.22.95.76,1.22.92.13.07.25.12.39.05.49-.52.81-1.14,1.61-1.2.66-.05,1.55.34,1.31,1.14-.15.5-.67.63-1.07.86-.58.35-1.31,1.02-1.37,1.73-.01.14-.02.52,0,.64.03.16.19.21.33.22.39.03,1.51.05,1.87,0,.3-.05.23-.25.3-.46.22-.67.92-.87,1.42-1.25,1.71-1.3,1.2-3.47-.46-4.54Z"/>
      <rect class="cls-20" x="13.41" y="18.19" width="2.49" height="2.49" rx=".42" ry=".42"/>
    </g>
    <g>
      <path class="cls-20" d="M153.52,243.89c-.78-.5-1.64-.67-2.56-.59-1.24.1-2.47.91-3.06,2-.13.23-.13.29.07.48.23.22.95.76,1.22.92.13.07.25.12.39.05.49-.52.81-1.14,1.61-1.2.66-.05,1.55.34,1.31,1.14-.15.5-.67.63-1.07.86-.58.35-1.31,1.02-1.37,1.73-.01.14-.02.52,0,.64.03.16.19.21.33.22.39.03,1.51.05,1.87,0,.3-.05.23-.25.3-.46.22-.67.92-.87,1.42-1.25,1.71-1.3,1.2-3.47-.46-4.54Z"/>
      <rect class="cls-20" x="150.05" y="250.83" width="2.49" height="2.49" rx=".42" ry=".42"/>
    </g>
  </g>
  <g id="Text_Karte" data-name="Text Karte">
    <g>
      <g class="cls-27">
        <text class="cls-7" transform="translate(26.42 179.29)"><tspan x="0" y="0">Ich h</tspan></text>
        <text class="cls-9" transform="translate(49.84 179.29)"><tspan x="0" y="0">abe noch nie einen</tspan></text>
        <text class="cls-3" transform="translate(140.82 179.29)"><tspan x="0" y="0"> </tspan></text>
      </g>
      <text class="cls-15" transform="translate(26.42 179.29)"><tspan x="0" y="0">Ich h</tspan></text>
      <text class="cls-16" transform="translate(49.84 179.29)"><tspan x="0" y="0">abe noch nie einen</tspan></text>
      <text class="cls-18" transform="translate(140.82 179.29)"><tspan x="0" y="0"> </tspan></text>
      <g class="cls-22">
        <text class="cls-9" transform="translate(22.63 191.28)"><tspan x="0" y="0">One-Night-S</tspan></text>
        <text class="cls-5" transform="translate(83.19 191.28)"><tspan x="0" y="0">ta</tspan></text>
        <text class="cls-6" transform="translate(92.57 191.28)"><tspan x="0" y="0">nd</tspan></text>
        <text class="cls-9" transform="translate(104.7 191.28)"><tspan x="0" y="0" xml:space="preserve"> geh</tspan></text>
        <text class="cls-2" transform="translate(126.12 191.28)"><tspan x="0" y="0">abt.</tspan></text>
        <text class="cls-3" transform="translate(144.61 191.28)"><tspan x="0" y="0"> </tspan></text>
      </g>
      <text class="cls-16" transform="translate(22.63 191.28)"><tspan x="0" y="0">One-Night-S</tspan></text>
      <text class="cls-13" transform="translate(83.19 191.28)"><tspan x="0" y="0">ta</tspan></text>
      <text class="cls-12" transform="translate(92.57 191.28)"><tspan x="0" y="0">nd</tspan></text>
      <text class="cls-16" transform="translate(104.7 191.28)"><tspan x="0" y="0" xml:space="preserve"> geh</tspan></text>
      <text class="cls-14" transform="translate(126.12 191.28)"><tspan x="0" y="0">abt.</tspan></text>
      <text class="cls-18" transform="translate(144.61 191.28)"><tspan x="0" y="0"> </tspan></text>
      <g class="cls-24">
        <text class="cls-8" transform="translate(27.12 203.28)"><tspan x="0" y="0">We</tspan></text>
        <text class="cls-9" transform="translate(42.98 203.28)"><tspan x="0" y="0">r es schon h</tspan></text>
        <text class="cls-4" transform="translate(100.64 203.28)"><tspan x="0" y="0">at, muss</tspan></text>
        <text class="cls-3" transform="translate(140.12 203.28)"><tspan x="0" y="0"> </tspan></text>
      </g>
      <text class="cls-17" transform="translate(27.12 203.28)"><tspan x="0" y="0">We</tspan></text>
      <text class="cls-16" transform="translate(42.98 203.28)"><tspan x="0" y="0">r es schon h</tspan></text>
      <text class="cls-14" transform="translate(100.64 203.28)"><tspan x="0" y="0">at, mus</tspan></text>
      <text class="cls-18" transform="translate(135.2 203.28)"><tspan x="0" y="0">s </tspan></text>
      <g class="cls-23">
        <text class="cls-3" transform="translate(66.08 215.28)"><tspan x="0" y="0">t</tspan></text>
        <text class="cls-9" transform="translate(69.17 215.28)"><tspan x="0" y="0">rink</tspan></text>
        <text class="cls-9" transform="translate(87.05 215.28)"><tspan x="0" y="0">en.</tspan></text>
      </g>
      <text class="cls-18" transform="translate(66.08 215.28)"><tspan x="0" y="0">t</tspan></text>
      <text class="cls-16" transform="translate(69.17 215.28)"><tspan x="0" y="0">rink</tspan></text>
      <text class="cls-16" transform="translate(87.05 215.28)"><tspan x="0" y="0">en.</tspan></text>
    </g>
  </g>
</svg>