<?xml version="1.0" encoding="UTF-8"?>
<svg xmlns="http://www.w3.org/2000/svg" xmlns:xlink="http://www.w3.org/1999/xlink" viewBox="0 0 167.24 260.79">
  <defs>
    <style>
      .cls-1, .cls-2, .cls-3, .cls-4, .cls-5, .cls-6, .cls-7, .cls-8, .cls-9 {
        fill: none;
      }

      .cls-10 {
        fill: #010101;
      }

      .cls-2, .cls-3, .cls-4, .cls-11, .cls-5, .cls-6, .cls-7, .cls-8, .cls-9 {
        stroke: #fff;
      }

      .cls-2, .cls-3, .cls-4, .cls-5, .cls-6, .cls-12, .cls-7, .cls-13, .cls-14, .cls-15, .cls-16, .cls-17, .cls-8, .cls-18, .cls-9 {
        font-family: QuicksandBold-Regular, Quicksand;
        font-size: 10px;
      }

      .cls-2, .cls-12 {
        letter-spacing: 0em;
      }

      .cls-3, .cls-15 {
        letter-spacing: -.02em;
      }

      .cls-19 {
        fill: #171717;
      }

      .cls-11 {
        font-size: 12px;
        stroke-miterlimit: 10;
        stroke-width: .15px;
      }

      .cls-11, .cls-20, .cls-12, .cls-13, .cls-14, .cls-15, .cls-16, .cls-17, .cls-18 {
        fill: #fff;
      }

      .cls-11, .cls-21 {
        font-family: Namaku, Namaku;
      }

      .cls-5 {
        letter-spacing: -.02em;
      }

      .cls-22 {
        clip-path: url(#clippath-1);
      }

      .cls-23 {
        clip-path: url(#clippath-2);
      }

      .cls-6, .cls-13 {
        letter-spacing: -.05em;
      }

      .cls-7, .cls-16 {
        letter-spacing: -.02em;
      }

      .cls-14, .cls-8 {
        letter-spacing: -.04em;
      }

      .cls-24 {
        fill: #171715;
      }

      .cls-17, .cls-9 {
        letter-spacing: -.02em;
      }

      .cls-21 {
        font-size: 15px;
      }

      .cls-21, .cls-25 {
        fill: #0a90ce;
      }

      .cls-26 {
        clip-path: url(#clippath);
      }
    </style>
    <clipPath id="clippath">
      <rect class="cls-1" x="0" y="0" width="167.24" height="260.79"/>
    </clipPath>
    <clipPath id="clippath-1">
      <rect class="cls-1" x="0" y="0" width="167.24" height="260.79"/>
    </clipPath>
    <clipPath id="clippath-2">
      <rect class="cls-1" x="0" y="0" width="167.24" height="260.79"/>
    </clipPath>
  </defs>
  <g id="Background">
    <rect class="cls-25" width="167.24" height="260.79"/>
  </g>
  <g id="Rahmen">
    <path class="cls-10" d="M151.9,23.16c9.65,0,9.67-15,0-15s-9.67,15,0,15h0Z"/>
    <path class="cls-10" d="M152.22,254.59c9.65,0,9.67-15,0-15s-9.67,15,0,15h0Z"/>
    <path class="cls-10" d="M14.14,254.72c9.65,0,9.67-15,0-15s-9.67,15,0,15h0Z"/>
    <path class="cls-19" d="M11.56,15.67c18.49.32,36.98.69,55.46,1.04,19.51.36,39.05-.42,58.56-.82,10.18-.21,20.36-.38,30.54-.21l-3.75-3.75c-1.46,11.81-1.7,23.8-1.97,35.69-.33,14.15-.39,28.31-.37,42.46.01,9.3.14,18.61.07,27.91-.06,7.86-.43,15.71-.48,23.57-.07,11.29.08,22.59.37,33.88.56,22.38,1.59,44.74,2.18,67.12.07,2.79.14,5.57.2,8.36l3.75-3.75c-15.41-.13-30.81.06-46.22.48-24.85.69-49.67.84-74.52.24-8.25-.2-16.49-.49-24.74-.73l3.75,3.75c-.56-4.87-.34-9.89-.27-14.78.11-8.38.38-16.76.66-25.14.66-20.11,1.45-40.22,1.83-60.34.16-8.4.26-16.81.05-25.21-.13-5.24-.51-10.46-.61-15.7-.33-17.03-.19-34.08-.18-51.11,0-8.91,0-17.82-.06-26.73-.04-5.94-.04-11.89-.34-17.82-.04-.72-.08-1.43-.15-2.15-.19-1.95-1.59-3.85-3.75-3.75-1.87.08-3.96,1.66-3.75,3.75.48,4.83.39,9.76.44,14.61.09,8.42.1,16.84.11,25.25,0,17.78-.1,35.55.11,53.33.06,5.22.27,10.41.52,15.62.36,7.73.31,15.47.21,23.21-.24,20.03-1.02,40.04-1.7,60.06-.3,8.95-.6,17.9-.79,26.85-.13,5.9-.3,11.84,0,17.74.04.78.09,1.55.18,2.32.24,2.06,1.53,3.69,3.75,3.75,18.27.53,36.53,1.09,54.81,1.16,23.38.09,46.73-.97,70.1-1.19,6.85-.06,13.71-.03,20.56.02,2,.02,3.79-1.73,3.75-3.75-.48-22.44-1.5-44.87-2.16-67.3-.33-11.25-.57-22.51-.6-33.77-.03-10.16.25-20.29.47-30.44.18-8.23-.03-16.48-.05-24.72-.03-13.94,0-27.88.25-41.82.23-12.54.48-25.14,1.72-37.62.11-1.1.23-2.21.37-3.31.25-2.04-1.92-3.72-3.75-3.75-19.14-.32-38.3.42-57.44.81-9.78.2-19.58.45-29.37.27-7.76-.14-15.52-.3-23.28-.45-11.49-.22-22.99-.44-34.48-.63-1.96-.03-3.84,1.75-3.75,3.75s1.65,3.71,3.75,3.75h0Z"/>
    <polygon class="cls-19" points="26.61 14.43 14.5 29.16 14.18 13.04 26.61 14.43"/>
    <polygon class="cls-19" points="140.79 14.16 152.35 27.66 154.57 11.89 140.79 14.16"/>
    <polygon class="cls-19" points="139.48 248.15 153.14 235.93 156.07 248.65 139.48 248.15"/>
    <polygon class="cls-19" points="12.9 235.54 26.24 248.54 12.31 249.36 12.9 235.54"/>
    <rect class="cls-19" width="10.32" height="260.79"/>
    <rect class="cls-19" y="249.36" width="167.24" height="11.43"/>
    <rect class="cls-24" width="167.24" height="10.33"/>
    <rect class="cls-19" x="156.12" width="11.13" height="260.79"/>
    <path class="cls-19" d="M122.85,17.19c0-.85.35-3.85,0-4.78-.94-2.49-3.57-2.81-6.15-2.81H50.54c-2.58,0-5.21.32-6.15,2.81-.35.93,0,3.93,0,4.78l-.28,5.71c-.56,5.31,8.78,4.59,12.32,4.59l20.37.37,6.82-.07h0l6.82.07,20.37-.37c3.54,0,12.88.72,12.32-4.59l-.28-5.71Z"/>
    <path class="cls-10" d="M151.9,23.16c9.65,0,9.67-15,0-15s-9.67,15,0,15h0Z"/>
    <path class="cls-10" d="M152.22,254.59c9.65,0,9.67-15,0-15s-9.67,15,0,15h0Z"/>
    <path class="cls-10" d="M14.14,254.72c9.65,0,9.67-15,0-15s-9.67,15,0,15h0Z"/>
    <path class="cls-19" d="M11.56,15.67c18.49.32,36.98.69,55.46,1.04,19.51.36,39.05-.42,58.56-.82,10.18-.21,20.36-.38,30.54-.21l-3.75-3.75c-1.46,11.81-1.7,23.8-1.97,35.69-.33,14.15-.39,28.31-.37,42.46.01,9.3.14,18.61.07,27.91-.06,7.86-.43,15.71-.48,23.57-.07,11.29.08,22.59.37,33.88.56,22.38,1.59,44.74,2.18,67.12.07,2.79.14,5.57.2,8.36l3.75-3.75c-15.41-.13-30.81.06-46.22.48-24.85.69-49.67.84-74.52.24-8.25-.2-16.49-.49-24.74-.73l3.75,3.75c-.56-4.87-.34-9.89-.27-14.78.11-8.38.38-16.76.66-25.14.66-20.11,1.45-40.22,1.83-60.34.16-8.4.26-16.81.05-25.21-.13-5.24-.51-10.46-.61-15.7-.33-17.03-.19-34.08-.18-51.11,0-8.91,0-17.82-.06-26.73-.04-5.94-.04-11.89-.34-17.82-.04-.72-.08-1.43-.15-2.15-.19-1.95-1.59-3.85-3.75-3.75-1.87.08-3.96,1.66-3.75,3.75.48,4.83.39,9.76.44,14.61.09,8.42.1,16.84.11,25.25,0,17.78-.1,35.55.11,53.33.06,5.22.27,10.41.52,15.62.36,7.73.31,15.47.21,23.21-.24,20.03-1.02,40.04-1.7,60.06-.3,8.95-.6,17.9-.79,26.85-.13,5.9-.3,11.84,0,17.74.04.78.09,1.55.18,2.32.24,2.06,1.53,3.69,3.75,3.75,18.27.53,36.53,1.09,54.81,1.16,23.38.09,46.73-.97,70.1-1.19,6.85-.06,13.71-.03,20.56.02,2,.02,3.79-1.73,3.75-3.75-.48-22.44-1.5-44.87-2.16-67.3-.33-11.25-.57-22.51-.6-33.77-.03-10.16.25-20.29.47-30.44.18-8.23-.03-16.48-.05-24.72-.03-13.94,0-27.88.25-41.82.23-12.54.48-25.14,1.72-37.62.11-1.1.23-2.21.37-3.31.25-2.04-1.92-3.72-3.75-3.75-19.14-.32-38.3.42-57.44.81-9.78.2-19.58.45-29.37.27-7.76-.14-15.52-.3-23.28-.45-11.49-.22-22.99-.44-34.48-.63-1.96-.03-3.84,1.75-3.75,3.75s1.65,3.71,3.75,3.75h0Z"/>
    <polygon class="cls-19" points="26.61 14.43 14.5 29.16 14.18 13.04 26.61 14.43"/>
    <polygon class="cls-19" points="140.79 14.16 152.35 27.66 154.57 11.89 140.79 14.16"/>
    <polygon class="cls-19" points="139.48 248.15 153.14 235.93 156.07 248.65 139.48 248.15"/>
    <polygon class="cls-19" points="12.9 235.54 26.24 248.54 12.31 249.36 12.9 235.54"/>
    <rect class="cls-19" width="10.32" height="260.79"/>
    <rect class="cls-19" y="249.36" width="167.24" height="11.43"/>
    <rect class="cls-24" width="167.24" height="10.33"/>
    <rect class="cls-19" x="156.12" width="11.13" height="260.79"/>
    <path class="cls-19" d="M122.85,17.19c0-.85.35-3.85,0-4.78-.94-2.49-3.57-2.81-6.15-2.81H50.54c-2.58,0-5.21.32-6.15,2.81-.35.93,0,3.93,0,4.78l-.28,5.71c-.56,5.31,8.78,4.59,12.32,4.59l20.37.37,6.82-.07h0l6.82.07,20.37-.37c3.54,0,12.88.72,12.32-4.59l-.28-5.71Z"/>
  </g>
  <g id="Kategorie_Name" data-name="Kategorie Name">
    <text class="cls-21" transform="translate(48.55 22.56) scale(1 1.09)"><tspan x="0" y="0">Wahrheit</tspan></text>
  </g>
  <g id="Schlücke">
    <text class="cls-11" transform="translate(4.4 252.82)"><tspan x="0" y="0">+3</tspan></text>
    <text class="cls-11" transform="translate(147.68 19.77)"><tspan x="0" y="0">+3</tspan></text>
  </g>
  <g id="Motive">
    <g>
      <path class="cls-19" d="M89.59,128.84c-.58,0-1.23-.02-1.8-.1-.7-.09-1.8-.21-2.07-.94-.33-.87.35-4.24.54-5.35.98-5.85,2.49-11.61,3.86-17.36-.21-1.48-2.11-1.92-2.84-.56l-3.17,11.92c-.07.07-1.42-.81-1.58-.94-.71-.53-1.85-1.61-1.87-2.56,1.57-8.23,2.78-17.14,5.58-25.04,1.56-4.4,3.16-6.04,8.01-6.33h11.2c-.07.49-.29.94-.4,1.42-.96,4.31,1.23,8.32,5.53,9.47-2.88,3.35-3.21,8.45-.8,12.17-3.68,1.71-5.43,5.45-5.66,9.37-.26,4.53.11,9.42.12,13.96.3,1.58,1.2,3.02,2.46,4,.27.21,1,.52,1.05.81l.05,16.42-.74.96c-2.31,2.22-5.91,1.83-7.38-1.08-.07-.15-.38-.88-.4-1.01-.07-.4.13-.94-.29-1.17,0,.61-.24,1.38-.5,1.93-1.22,2.63-4.46,3.55-6.89,1.96-.95-.62-1.99-2.57-1.99-3.67v-18.27Z"/>
      <path class="cls-19" d="M87.82,79.46c.14.15-.49.41-.61.49-3.62,2.66-4.92,8.14-6.02,12.3s-2.07,8.74-2.9,13.12c-.39,2.08-1.2,5.31-1.27,7.31-.1,2.96,3.51,6.49,5.91,7.87-.31,1.69-.77,3.37-1.01,5.07-.28,2.06-.53,4.54,1.51,5.79.7.43,1.57.62,2.26,1.01l.02,13.97c-.39,5.89-8.34,6.98-10.24,1.47l-.38-1.61c-.04.7-.24,1.5-.54,2.14-1.4,2.99-5.25,4-7.97,2.08-.5-.35-1.73-1.74-1.75-2.33,0-.28.08-.5.09-.78.05-6.17-.06-12.36.01-18.53.95-.37,1.77-1.01,2.36-1.84,1.04-1.48,1.27-3.25,1.35-5.02.18-4.34.18-9.56,0-13.9-.11-2.69-.63-5.71-2.09-8-1.08-1.69-2.72-3.01-4.64-3.64.45-.8,1.01-1.52,1.4-2.36,2.02-4.3,1.23-9.45-2.02-12.91,1.53-1.62,3.48-2.64,5.66-3.1.91-.2,2.04-.35,2.97-.39,3.5-.18,8.49-.23,11.94.09,2.08.19,4.12.73,5.97,1.68Z"/>
      <path class="cls-19" d="M61.28,126v20.4c.05,2.18-.86,4.23-3.08,4.88-1.96.57-4.3-.34-5.14-2.25-.03-.07-.34-1.44-.54-1.17.12.79-.39,1.59-.89,2.17-1.86,2.16-5.46,1.86-6.85-.67-.22-.41-.32-.91-.58-1.21v-22.15c-1.4-.04-2.93-.5-3.7-1.74s-.61-3.41-.64-4.85c-.07-3.32.06-6.64,0-9.96,6.58,2.37,12.67-3.78,10.18-10.35,4.51.25,10.54-1.13,13.75,2.93,1.2,1.52,1.72,3.97,1.83,5.87.26,4.75-.19,9.73-.02,14.5-.22,2.45-2,3.55-4.32,3.59Z"/>
      <path class="cls-19" d="M127.16,108.79c1.47,1.24,2.14,3.62,2.25,5.49.24,4.11-.19,8.44,0,12.57-.16,2.01-1.73,2.98-3.63,2.96v16.68c-.08,2.07-.18,3.91-2.37,4.79-1.63.65-3.82-.04-4.54-1.7-.06-.14-.25-1.04-.31-1.02-.33.09-.18.3-.26.53-1.27,3.6-6.5,3.08-6.94-.77v-18.53c-1.77.06-3.36-.88-3.63-2.71.18-4.26-.27-8.77-.01-13,.29-4.61,2.89-6.79,7.39-7.04,2.05-.11,4.77-.11,6.82,0,1.82.1,3.81.53,5.23,1.72Z"/>
      <path class="cls-19" d="M82.48,57.2c3.86,3.35,4.46,9.37,1.52,13.53-4.96,7.02-15.97,5.13-18.23-3.15-2.69-9.84,8.97-17.11,16.71-10.38Z"/>
      <path class="cls-19" d="M98.42,60.29c7.87-.66,13.13,7.98,8.81,14.65-3.55,5.49-11.63,5.76-15.56.53-4.45-5.92-.6-14.57,6.74-15.19Z"/>
      <path class="cls-19" d="M47.06,94.83c-4.58-4.58-2.08-12.58,4.28-13.66,6.19-1.05,11.14,4.99,8.91,10.86-2.04,5.36-9.13,6.86-13.2,2.8Z"/>
      <path class="cls-19" d="M123.16,103.48c-4.96,4.54-12.65.04-11.22-6.57.75-3.44,4.31-5.71,7.75-5.12,5.52.94,7.63,7.88,3.47,11.69Z"/>
      <path class="cls-19" d="M110.72,79.57c1.53-.21,4.1,2.04,5.2,3.07,1.25,1.17,2.2,2.12,1.47,3.96-2.7,6.85-12.75,2.63-9.14-4.54.49-.97,1.3-2.33,2.47-2.48Z"/>
      <path class="cls-19" d="M39.27,105.89c-.94-.96-1.92-3.02-1.35-4.34s4.87-4.62,6.32-4.74c2.2-.18,3.67,3.56,3.68,5.35.03,4.44-5.64,6.83-8.65,3.73Z"/>
    </g>
  </g>
  <g id="Kategorien">
    <g>
      <path class="cls-20" d="M16.88,11.24c-.78-.5-1.64-.67-2.56-.59-1.24.1-2.47.91-3.06,2-.13.23-.13.29.07.48.23.22.95.76,1.22.92.13.07.25.12.39.05.49-.52.81-1.14,1.61-1.2.66-.05,1.55.34,1.31,1.14-.15.5-.67.63-1.07.86-.58.35-1.31,1.02-1.37,1.73-.01.14-.02.52,0,.64.03.16.19.21.33.22.39.03,1.51.05,1.87,0,.3-.05.23-.25.3-.46.22-.67.92-.87,1.42-1.25,1.71-1.3,1.2-3.47-.46-4.54Z"/>
      <rect class="cls-20" x="13.41" y="18.19" width="2.49" height="2.49" rx=".42" ry=".42"/>
    </g>
    <g>
      <path class="cls-20" d="M153.52,243.89c-.78-.5-1.64-.67-2.56-.59-1.24.1-2.47.91-3.06,2-.13.23-.13.29.07.48.23.22.95.76,1.22.92.13.07.25.12.39.05.49-.52.81-1.14,1.61-1.2.66-.05,1.55.34,1.31,1.14-.15.5-.67.63-1.07.86-.58.35-1.31,1.02-1.37,1.73-.01.14-.02.52,0,.64.03.16.19.21.33.22.39.03,1.51.05,1.87,0,.3-.05.23-.25.3-.46.22-.67.92-.87,1.42-1.25,1.71-1.3,1.2-3.47-.46-4.54Z"/>
      <rect class="cls-20" x="150.05" y="250.83" width="2.49" height="2.49" rx=".42" ry=".42"/>
    </g>
  </g>
  <g id="Text_Karte" data-name="Text Karte">
    <g>
      <g class="cls-26">
        <text class="cls-4" transform="translate(33.62 179.29)"><tspan x="0" y="0">W</tspan></text>
        <text class="cls-7" transform="translate(43.8 179.29)"><tspan x="0" y="0">en aus </tspan></text>
        <text class="cls-8" transform="translate(77.85 179.29)"><tspan x="0" y="0">de</tspan></text>
        <text class="cls-5" transform="translate(89.78 179.29)"><tspan x="0" y="0">r Gruppe</tspan></text>
        <text class="cls-4" transform="translate(133.62 179.29)"><tspan x="0" y="0"> </tspan></text>
      </g>
      <text class="cls-18" transform="translate(33.62 179.29)"><tspan x="0" y="0">W</tspan></text>
      <text class="cls-16" transform="translate(43.8 179.29)"><tspan x="0" y="0">en aus </tspan></text>
      <text class="cls-14" transform="translate(77.85 179.29)"><tspan x="0" y="0">de</tspan></text>
      <text class="cls-15" transform="translate(89.78 179.29)"><tspan x="0" y="0">r Grupp</tspan></text>
      <text class="cls-18" transform="translate(127.53 179.29)"><tspan x="0" y="0">e </tspan></text>
      <g class="cls-22">
        <text class="cls-7" transform="translate(25.48 191.28)"><tspan x="0" y="0">wür</tspan></text>
        <text class="cls-8" transform="translate(43.76 191.28)"><tspan x="0" y="0">de</tspan></text>
        <text class="cls-2" transform="translate(55.89 191.28)"><tspan x="0" y="0">st</tspan></text>
        <text class="cls-9" transform="translate(64.56 191.28)"><tspan x="0" y="0" xml:space="preserve"> du nicht d</tspan></text>
        <text class="cls-9" transform="translate(115.32 191.28)"><tspan x="0" y="0">einen</tspan></text>
        <text class="cls-4" transform="translate(141.77 191.28)"><tspan x="0" y="0"> </tspan></text>
      </g>
      <text class="cls-16" transform="translate(25.48 191.28)"><tspan x="0" y="0">wür</tspan></text>
      <text class="cls-14" transform="translate(43.76 191.28)"><tspan x="0" y="0">de</tspan></text>
      <text class="cls-12" transform="translate(55.89 191.28)"><tspan x="0" y="0">st</tspan></text>
      <text class="cls-17" transform="translate(64.56 191.28)"><tspan x="0" y="0" xml:space="preserve"> du nicht d</tspan></text>
      <text class="cls-17" transform="translate(115.32 191.28)"><tspan x="0" y="0">einen</tspan></text>
      <text class="cls-18" transform="translate(141.77 191.28)"><tspan x="0" y="0"> </tspan></text>
      <g class="cls-23">
        <text class="cls-7" transform="translate(42.91 203.28)"><tspan x="0" y="0">Elt</tspan></text>
        <text class="cls-4" transform="translate(54.33 203.28)"><tspan x="0" y="0">e</tspan></text>
        <text class="cls-9" transform="translate(60.01 203.28)"><tspan x="0" y="0">rn </tspan></text>
        <text class="cls-6" transform="translate(72.92 203.28)"><tspan x="0" y="0">vo</tspan></text>
        <text class="cls-3" transform="translate(84.09 203.28)"><tspan x="0" y="0">rs</tspan></text>
        <text class="cls-4" transform="translate(93.16 203.28)"><tspan x="0" y="0">t</tspan></text>
        <text class="cls-9" transform="translate(96.55 203.28)"><tspan x="0" y="0">ell</tspan></text>
        <text class="cls-9" transform="translate(107.48 203.28)"><tspan x="0" y="0">en</tspan></text>
        <text class="cls-4" transform="translate(119 203.28)"><tspan x="0" y="0">?</tspan></text>
      </g>
      <text class="cls-16" transform="translate(42.91 203.28)"><tspan x="0" y="0">Elt</tspan></text>
      <text class="cls-18" transform="translate(54.33 203.28)"><tspan x="0" y="0">e</tspan></text>
      <text class="cls-17" transform="translate(60.01 203.28)"><tspan x="0" y="0">rn </tspan></text>
      <text class="cls-13" transform="translate(72.92 203.28)"><tspan x="0" y="0">vo</tspan></text>
      <text class="cls-15" transform="translate(84.09 203.28)"><tspan x="0" y="0">rs</tspan></text>
      <text class="cls-18" transform="translate(93.16 203.28)"><tspan x="0" y="0">t</tspan></text>
      <text class="cls-17" transform="translate(96.55 203.28)"><tspan x="0" y="0">ell</tspan></text>
      <text class="cls-17" transform="translate(107.48 203.28)"><tspan x="0" y="0">en</tspan></text>
      <text class="cls-18" transform="translate(118.99 203.28)"><tspan x="0" y="0">?</tspan></text>
    </g>
  </g>
</svg>