<?xml version="1.0" encoding="UTF-8"?>
<svg xmlns="http://www.w3.org/2000/svg" xmlns:xlink="http://www.w3.org/1999/xlink" viewBox="0 0 167.24 260.79">
  <defs>
    <style>
      .cls-1, .cls-2, .cls-3, .cls-4, .cls-5, .cls-6, .cls-7 {
        fill: none;
      }

      .cls-8 {
        fill: #010101;
      }

      .cls-2, .cls-3, .cls-9, .cls-4, .cls-5, .cls-6, .cls-7 {
        stroke: #fff;
      }

      .cls-2, .cls-3, .cls-4, .cls-5, .cls-10, .cls-6, .cls-11, .cls-12, .cls-13, .cls-14, .cls-15, .cls-7 {
        font-family: QuicksandBold-Regular, Quicksand;
        font-size: 10px;
      }

      .cls-2, .cls-11 {
        letter-spacing: -.02em;
      }

      .cls-16 {
        fill: #171717;
      }

      .cls-9 {
        font-size: 12px;
        stroke-miterlimit: 10;
        stroke-width: .15px;
      }

      .cls-9, .cls-17, .cls-10, .cls-11, .cls-12, .cls-13, .cls-14, .cls-15 {
        fill: #fff;
      }

      .cls-9, .cls-18 {
        font-family: Namaku, Namaku;
      }

      .cls-19 {
        clip-path: url(#clippath-1);
      }

      .cls-20 {
        clip-path: url(#clippath-2);
      }

      .cls-4, .cls-10 {
        letter-spacing: -.05em;
      }

      .cls-5, .cls-12 {
        letter-spacing: -.02em;
      }

      .cls-6, .cls-14 {
        letter-spacing: -.08em;
      }

      .cls-21 {
        fill: #171715;
      }

      .cls-13, .cls-7 {
        letter-spacing: -.02em;
      }

      .cls-18 {
        font-size: 15px;
      }

      .cls-18, .cls-22 {
        fill: #0a90ce;
      }

      .cls-23 {
        clip-path: url(#clippath);
      }
    </style>
    <clipPath id="clippath">
      <rect class="cls-1" x="0" y="0" width="167.24" height="260.79"/>
    </clipPath>
    <clipPath id="clippath-1">
      <rect class="cls-1" x="0" y="0" width="167.24" height="260.79"/>
    </clipPath>
    <clipPath id="clippath-2">
      <rect class="cls-1" x="0" y="0" width="167.24" height="260.79"/>
    </clipPath>
  </defs>
  <g id="Background">
    <rect class="cls-22" width="167.24" height="260.79"/>
  </g>
  <g id="Rahmen">
    <path class="cls-8" d="M151.9,23.16c9.65,0,9.67-15,0-15s-9.67,15,0,15h0Z"/>
    <path class="cls-8" d="M152.22,254.59c9.65,0,9.67-15,0-15s-9.67,15,0,15h0Z"/>
    <path class="cls-8" d="M14.14,254.72c9.65,0,9.67-15,0-15s-9.67,15,0,15h0Z"/>
    <path class="cls-16" d="M11.56,15.67c18.49.32,36.98.69,55.46,1.04,19.51.36,39.05-.42,58.56-.82,10.18-.21,20.36-.38,30.54-.21l-3.75-3.75c-1.46,11.81-1.7,23.8-1.97,35.69-.33,14.15-.39,28.31-.37,42.46.01,9.3.14,18.61.07,27.91-.06,7.86-.43,15.71-.48,23.57-.07,11.29.08,22.59.37,33.88.56,22.38,1.59,44.74,2.18,67.12.07,2.79.14,5.57.2,8.36l3.75-3.75c-15.41-.13-30.81.06-46.22.48-24.85.69-49.67.84-74.52.24-8.25-.2-16.49-.49-24.74-.73l3.75,3.75c-.56-4.87-.34-9.89-.27-14.78.11-8.38.38-16.76.66-25.14.66-20.11,1.45-40.22,1.83-60.34.16-8.4.26-16.81.05-25.21-.13-5.24-.51-10.46-.61-15.7-.33-17.03-.19-34.08-.18-51.11,0-8.91,0-17.82-.06-26.73-.04-5.94-.04-11.89-.34-17.82-.04-.72-.08-1.43-.15-2.15-.19-1.95-1.59-3.85-3.75-3.75-1.87.08-3.96,1.66-3.75,3.75.48,4.83.39,9.76.44,14.61.09,8.42.1,16.84.11,25.25,0,17.78-.1,35.55.11,53.33.06,5.22.27,10.41.52,15.62.36,7.73.31,15.47.21,23.21-.24,20.03-1.02,40.04-1.7,60.06-.3,8.95-.6,17.9-.79,26.85-.13,5.9-.3,11.84,0,17.74.04.78.09,1.55.18,2.32.24,2.06,1.53,3.69,3.75,3.75,18.27.53,36.53,1.09,54.81,1.16,23.38.09,46.73-.97,70.1-1.19,6.85-.06,13.71-.03,20.56.02,2,.02,3.79-1.73,3.75-3.75-.48-22.44-1.5-44.87-2.16-67.3-.33-11.25-.57-22.51-.6-33.77-.03-10.16.25-20.29.47-30.44.18-8.23-.03-16.48-.05-24.72-.03-13.94,0-27.88.25-41.82.23-12.54.48-25.14,1.72-37.62.11-1.1.23-2.21.37-3.31.25-2.04-1.92-3.72-3.75-3.75-19.14-.32-38.3.42-57.44.81-9.78.2-19.58.45-29.37.27-7.76-.14-15.52-.3-23.28-.45-11.49-.22-22.99-.44-34.48-.63-1.96-.03-3.84,1.75-3.75,3.75s1.65,3.71,3.75,3.75h0Z"/>
    <polygon class="cls-16" points="26.61 14.43 14.5 29.16 14.18 13.04 26.61 14.43"/>
    <polygon class="cls-16" points="140.79 14.16 152.35 27.66 154.57 11.89 140.79 14.16"/>
    <polygon class="cls-16" points="139.48 248.15 153.14 235.93 156.07 248.65 139.48 248.15"/>
    <polygon class="cls-16" points="12.9 235.54 26.24 248.54 12.31 249.36 12.9 235.54"/>
    <rect class="cls-16" width="10.32" height="260.79"/>
    <rect class="cls-16" y="249.36" width="167.24" height="11.43"/>
    <rect class="cls-21" width="167.24" height="10.33"/>
    <rect class="cls-16" x="156.12" width="11.13" height="260.79"/>
    <path class="cls-16" d="M122.85,17.19c0-.85.35-3.85,0-4.78-.94-2.49-3.57-2.81-6.15-2.81H50.54c-2.58,0-5.21.32-6.15,2.81-.35.93,0,3.93,0,4.78l-.28,5.71c-.56,5.31,8.78,4.59,12.32,4.59l20.37.37,6.82-.07h0l6.82.07,20.37-.37c3.54,0,12.88.72,12.32-4.59l-.28-5.71Z"/>
  </g>
  <g id="Kategorie_Name" data-name="Kategorie Name">
    <text class="cls-18" transform="translate(48.55 22.56) scale(1 1.09)"><tspan x="0" y="0">Wahrheit</tspan></text>
  </g>
  <g id="Schlücke">
    <text class="cls-9" transform="translate(4.4 252.82)"><tspan x="0" y="0">+3</tspan></text>
    <text class="cls-9" transform="translate(147.68 19.77)"><tspan x="0" y="0">+3</tspan></text>
  </g>
  <g id="Kategorien">
    <g>
      <path class="cls-17" d="M16.88,11.24c-.78-.5-1.64-.67-2.56-.59-1.24.1-2.47.91-3.06,2-.13.23-.13.29.07.48.23.22.95.76,1.22.92.13.07.25.12.39.05.49-.52.81-1.14,1.61-1.2.66-.05,1.55.34,1.31,1.14-.15.5-.67.63-1.07.86-.58.35-1.31,1.02-1.37,1.73-.01.14-.02.52,0,.64.03.16.19.21.33.22.39.03,1.51.05,1.87,0,.3-.05.23-.25.3-.46.22-.67.92-.87,1.42-1.25,1.71-1.3,1.2-3.47-.46-4.54Z"/>
      <rect class="cls-17" x="13.41" y="18.19" width="2.49" height="2.49" rx=".42" ry=".42"/>
    </g>
    <g>
      <path class="cls-17" d="M153.52,243.89c-.78-.5-1.64-.67-2.56-.59-1.24.1-2.47.91-3.06,2-.13.23-.13.29.07.48.23.22.95.76,1.22.92.13.07.25.12.39.05.49-.52.81-1.14,1.61-1.2.66-.05,1.55.34,1.31,1.14-.15.5-.67.63-1.07.86-.58.35-1.31,1.02-1.37,1.73-.01.14-.02.52,0,.64.03.16.19.21.33.22.39.03,1.51.05,1.87,0,.3-.05.23-.25.3-.46.22-.67.92-.87,1.42-1.25,1.71-1.3,1.2-3.47-.46-4.54Z"/>
      <rect class="cls-17" x="150.05" y="250.83" width="2.49" height="2.49" rx=".42" ry=".42"/>
    </g>
    <g>
      <g>
        <path class="cls-16" d="M108.34,154.25h-24.72c-.39-5.31-.39-10.63,0-15.94,6.56-.58,24.93-.54,27.51,0l-.4-.19v-69.69l.4-.25c-2.51.54-20.89.6-27.51,0l-.4-.19v-15.51l.4-.24c7.6,0,16.6-.59,24.03,0,4.52.35,8.19,3.58,9.17,7.97.52,28.54.39,57.21.07,85.76-.66,4.06-4.44,7.8-8.55,8.29Z"/>
        <path class="cls-16" d="M83.62,52.24v15.94c-6.62.6-25,.54-27.51,0l.4.19v69.69l-.4.25c2.58-.54,20.95-.58,27.51,0,0,5.31,0,10.63,0,15.94h-24.72c-4.36-.8-7.85-4.03-8.57-8.47-.28-28.5-.45-57.09.09-85.58.98-4.38,4.65-7.61,9.17-7.97,7.42-.58,16.43,0,24.03,0Z"/>
      </g>
      <g>
        <path class="cls-16" d="M96.48,81.39c-1.41,4.28-2.42,9.71-.07,13.67.02.03.03.05.05.08l.26.35c.38.52.01,1.25-.63,1.25h-24.93c-.65,0-1.02-.74-.63-1.25l.26-.35s.03-.05.05-.07c2.35-3.93,1.33-9.41-.07-13.68-.17-.51.21-1.03.75-1.03h24.23c.53,0,.91.52.75,1.03Z"/>
        <path class="cls-16" d="M86.55,125.31l-.78-2.71c-.17-.61.42-1.16,1.01-.93.44.17,1.14.37,1.79.53.24.06.37-.27.16-.39-4.45-2.5-6.18-8.31-3.01-12.78,3.51-4.94,10.34-4.6,15.77-4.12.21.02.4.12.53.28,4.43,5.63,3,13.66,1.01,20.07-.1.32-.4.54-.73.54l-14.99.07c-.35,0-.65-.23-.75-.56Z"/>
        <path class="cls-16" d="M77.53,122.17c-.09.04-.05.17.04.15.79-.15,2.25-.54,2.99-.83.58-.23,1.17.31.99.91l-.8,2.71c-.1.35-.43.6-.8.59l-14.88-.09c-.36,0-.67-.23-.78-.57-2.13-6.31-3.45-14.37.93-19.94.14-.17.34-.28.56-.3.65-.07,1.31-.15,1.96-.19,4.6-.28,9.97-.12,13.21,3.62,4.09,4.71,2.14,11.71-3.43,13.93Z"/>
        <path class="cls-16" d="M100.04,102.58c-5.68-.57-12.35.47-15.79,5.29-.31.44-.96.44-1.27,0,0,0,0-.01-.01-.02-3.58-4.83-10.03-5.78-15.73-5.3-.57.05-.99-.52-.78-1.05.17-.44.37-.87.58-1.29.09-.19.64-1.25.69-1.3s.1-.09.18-.09l31.12.05c.28,0,.53.15.67.39.31.54.78,1.48,1.12,2.25.23.54-.2,1.13-.78,1.07Z"/>
      </g>
    </g>
  </g>
  <g id="Text_Karte" data-name="Text Karte">
    <g>
      <g class="cls-23">
        <text class="cls-5" transform="translate(24.4 179.29)"><tspan x="0" y="0">Ich h</tspan></text>
        <text class="cls-7" transform="translate(47.82 179.29)"><tspan x="0" y="0">abe noch nie Nud</tspan></text>
        <text class="cls-7" transform="translate(132.04 179.29)"><tspan x="0" y="0">es</tspan></text>
        <text class="cls-3" transform="translate(142.84 179.29)"><tspan x="0" y="0"> </tspan></text>
      </g>
      <text class="cls-12" transform="translate(24.4 179.29)"><tspan x="0" y="0">Ich h</tspan></text>
      <text class="cls-13" transform="translate(47.82 179.29)"><tspan x="0" y="0">abe noch nie Nud</tspan></text>
      <text class="cls-13" transform="translate(132.04 179.29)"><tspan x="0" y="0">es</tspan></text>
      <text class="cls-15" transform="translate(142.84 179.29)"><tspan x="0" y="0"> </tspan></text>
      <g class="cls-19">
        <text class="cls-4" transform="translate(24.59 191.28)"><tspan x="0" y="0">ve</tspan></text>
        <text class="cls-7" transform="translate(35.59 191.28)"><tspan x="0" y="0">rschickt. </tspan></text>
        <text class="cls-6" transform="translate(78.06 191.28)"><tspan x="0" y="0">We</tspan></text>
        <text class="cls-2" transform="translate(93.91 191.28)"><tspan x="0" y="0">r es schon</tspan></text>
        <text class="cls-3" transform="translate(142.65 191.28)"><tspan x="0" y="0"> </tspan></text>
      </g>
      <text class="cls-10" transform="translate(24.59 191.28)"><tspan x="0" y="0">ve</tspan></text>
      <text class="cls-13" transform="translate(35.59 191.28)"><tspan x="0" y="0">rschickt. </tspan></text>
      <text class="cls-14" transform="translate(78.06 191.28)"><tspan x="0" y="0">We</tspan></text>
      <text class="cls-11" transform="translate(93.91 191.28)"><tspan x="0" y="0">r es schon</tspan></text>
      <text class="cls-15" transform="translate(142.65 191.28)"><tspan x="0" y="0"> </tspan></text>
      <g class="cls-20">
        <text class="cls-3" transform="translate(41.87 203.28)"><tspan x="0" y="0">h</tspan></text>
        <text class="cls-7" transform="translate(48.2 203.28)"><tspan x="0" y="0">at, muss t</tspan></text>
        <text class="cls-2" transform="translate(93.37 203.28)"><tspan x="0" y="0">rink</tspan></text>
        <text class="cls-7" transform="translate(111.25 203.28)"><tspan x="0" y="0">en</tspan></text>
        <text class="cls-3" transform="translate(123.07 203.28)"><tspan x="0" y="0">.</tspan></text>
      </g>
      <text class="cls-15" transform="translate(41.87 203.28)"><tspan x="0" y="0">h</tspan></text>
      <text class="cls-13" transform="translate(48.2 203.28)"><tspan x="0" y="0">at, muss t</tspan></text>
      <text class="cls-11" transform="translate(93.37 203.28)"><tspan x="0" y="0">rink</tspan></text>
      <text class="cls-13" transform="translate(111.25 203.28)"><tspan x="0" y="0">en.</tspan></text>
    </g>
  </g>
</svg>