<?xml version="1.0" encoding="UTF-8"?>
<svg xmlns="http://www.w3.org/2000/svg" xmlns:xlink="http://www.w3.org/1999/xlink" viewBox="0 0 167.24 260.79">
  <defs>
    <style>
      .cls-1, .cls-2, .cls-3, .cls-4, .cls-5, .cls-6, .cls-7 {
        fill: none;
      }

      .cls-8 {
        fill: #010101;
      }

      .cls-2, .cls-3, .cls-9, .cls-4, .cls-5, .cls-6, .cls-7 {
        stroke: #fff;
      }

      .cls-2, .cls-3, .cls-4, .cls-5, .cls-6, .cls-10, .cls-11, .cls-12, .cls-13, .cls-14, .cls-15, .cls-7 {
        font-family: QuicksandBold-Regular, Quicksand;
        font-size: 10px;
      }

      .cls-2, .cls-11 {
        letter-spacing: -.02em;
      }

      .cls-16 {
        fill: #171717;
      }

      .cls-9 {
        font-size: 12px;
        stroke-miterlimit: 10;
        stroke-width: .15px;
      }

      .cls-9, .cls-17, .cls-10, .cls-11, .cls-12, .cls-13, .cls-14, .cls-15 {
        fill: #fff;
      }

      .cls-9, .cls-18 {
        font-family: Namaku, Namaku;
      }

      .cls-19 {
        clip-path: url(#clippath-1);
      }

      .cls-20 {
        clip-path: url(#clippath-2);
      }

      .cls-4, .cls-10 {
        letter-spacing: -.02em;
      }

      .cls-5, .cls-12 {
        letter-spacing: -.02em;
      }

      .cls-6, .cls-14 {
        letter-spacing: -.09em;
      }

      .cls-21 {
        fill: #171715;
      }

      .cls-13, .cls-7 {
        letter-spacing: -.02em;
      }

      .cls-18 {
        font-size: 15px;
      }

      .cls-18, .cls-22 {
        fill: #0a90ce;
      }

      .cls-23 {
        clip-path: url(#clippath);
      }
    </style>
    <clipPath id="clippath">
      <rect class="cls-1" x="0" y="0" width="167.24" height="260.79"/>
    </clipPath>
    <clipPath id="clippath-1">
      <rect class="cls-1" x="0" y="0" width="167.24" height="260.79"/>
    </clipPath>
    <clipPath id="clippath-2">
      <rect class="cls-1" x="0" y="0" width="167.24" height="260.79"/>
    </clipPath>
  </defs>
  <g id="Background">
    <rect class="cls-22" width="167.24" height="260.79"/>
  </g>
  <g id="Rahmen">
    <path class="cls-8" d="M151.9,23.16c9.65,0,9.67-15,0-15s-9.67,15,0,15h0Z"/>
    <path class="cls-8" d="M152.22,254.59c9.65,0,9.67-15,0-15s-9.67,15,0,15h0Z"/>
    <path class="cls-8" d="M14.14,254.72c9.65,0,9.67-15,0-15s-9.67,15,0,15h0Z"/>
    <path class="cls-16" d="M11.56,15.67c18.49.32,36.98.69,55.46,1.04,19.51.36,39.05-.42,58.56-.82,10.18-.21,20.36-.38,30.54-.21l-3.75-3.75c-1.46,11.81-1.7,23.8-1.97,35.69-.33,14.15-.39,28.31-.37,42.46.01,9.3.14,18.61.07,27.91-.06,7.86-.43,15.71-.48,23.57-.07,11.29.08,22.59.37,33.88.56,22.38,1.59,44.74,2.18,67.12.07,2.79.14,5.57.2,8.36l3.75-3.75c-15.41-.13-30.81.06-46.22.48-24.85.69-49.67.84-74.52.24-8.25-.2-16.49-.49-24.74-.73l3.75,3.75c-.56-4.87-.34-9.89-.27-14.78.11-8.38.38-16.76.66-25.14.66-20.11,1.45-40.22,1.83-60.34.16-8.4.26-16.81.05-25.21-.13-5.24-.51-10.46-.61-15.7-.33-17.03-.19-34.08-.18-51.11,0-8.91,0-17.82-.06-26.73-.04-5.94-.04-11.89-.34-17.82-.04-.72-.08-1.43-.15-2.15-.19-1.95-1.59-3.85-3.75-3.75-1.87.08-3.96,1.66-3.75,3.75.48,4.83.39,9.76.44,14.61.09,8.42.1,16.84.11,25.25,0,17.78-.1,35.55.11,53.33.06,5.22.27,10.41.52,15.62.36,7.73.31,15.47.21,23.21-.24,20.03-1.02,40.04-1.7,60.06-.3,8.95-.6,17.9-.79,26.85-.13,5.9-.3,11.84,0,17.74.04.78.09,1.55.18,2.32.24,2.06,1.53,3.69,3.75,3.75,18.27.53,36.53,1.09,54.81,1.16,23.38.09,46.73-.97,70.1-1.19,6.85-.06,13.71-.03,20.56.02,2,.02,3.79-1.73,3.75-3.75-.48-22.44-1.5-44.87-2.16-67.3-.33-11.25-.57-22.51-.6-33.77-.03-10.16.25-20.29.47-30.44.18-8.23-.03-16.48-.05-24.72-.03-13.94,0-27.88.25-41.82.23-12.54.48-25.14,1.72-37.62.11-1.1.23-2.21.37-3.31.25-2.04-1.92-3.72-3.75-3.75-19.14-.32-38.3.42-57.44.81-9.78.2-19.58.45-29.37.27-7.76-.14-15.52-.3-23.28-.45-11.49-.22-22.99-.44-34.48-.63-1.96-.03-3.84,1.75-3.75,3.75s1.65,3.71,3.75,3.75h0Z"/>
    <polygon class="cls-16" points="26.61 14.43 14.5 29.16 14.18 13.04 26.61 14.43"/>
    <polygon class="cls-16" points="140.79 14.16 152.35 27.66 154.57 11.89 140.79 14.16"/>
    <polygon class="cls-16" points="139.48 248.15 153.14 235.93 156.07 248.65 139.48 248.15"/>
    <polygon class="cls-16" points="12.9 235.54 26.24 248.54 12.31 249.36 12.9 235.54"/>
    <rect class="cls-16" width="10.32" height="260.79"/>
    <rect class="cls-16" y="249.36" width="167.24" height="11.43"/>
    <rect class="cls-21" width="167.24" height="10.33"/>
    <rect class="cls-16" x="156.12" width="11.13" height="260.79"/>
    <path class="cls-16" d="M122.85,17.19c0-.85.35-3.85,0-4.78-.94-2.49-3.57-2.81-6.15-2.81H50.54c-2.58,0-5.21.32-6.15,2.81-.35.93,0,3.93,0,4.78l-.28,5.71c-.56,5.31,8.78,4.59,12.32,4.59l20.37.37,6.82-.07h0l6.82.07,20.37-.37c3.54,0,12.88.72,12.32-4.59l-.28-5.71Z"/>
  </g>
  <g id="Kategorie_Name" data-name="Kategorie Name">
    <text class="cls-18" transform="translate(48.55 22.56) scale(1 1.09)"><tspan x="0" y="0">Wahrheit</tspan></text>
  </g>
  <g id="Schlücke">
    <text class="cls-9" transform="translate(4.4 252.82)"><tspan x="0" y="0">+3</tspan></text>
    <text class="cls-9" transform="translate(147.68 19.77)"><tspan x="0" y="0">+3</tspan></text>
  </g>
  <g id="Motive">
    <g>
      <path class="cls-16" d="M82.51,60.07c30.28-.75,51.94,29.21,41.57,57.83-11.23,30.98-52.28,38.32-73.47,12.94-23.06-27.62-4.06-69.88,31.9-70.77ZM106.19,75.27c-11.03-9.22-27.08-10.53-39.69-3.72-18.63,10.07-24.59,34.39-12.5,51.94.23.34,1.59,2.26,1.82,2.22l50.36-50.45ZM60.96,130.96c4.83,4.03,10.87,6.72,17.11,7.67,24.14,3.68,44.7-16.98,41.04-41.03-.94-6.2-3.66-12.3-7.67-17.1l-50.48,50.47Z"/>
      <g>
        <path class="cls-16" d="M80.09,107.71c.48,0,.91.06,1.32.16-.16-1.76-.65-3.36-1.53-4.77-1.07-1.72-2.58-3.04-4.53-3.97-1.95-.93-4.19-1.4-6.72-1.4-1.73,0-3.37.23-4.9.68-1.53.45-2.83,1.09-3.9,1.92v-3.5c0-1.53.6-2.78,1.8-3.73,1.2-.95,2.77-1.42,4.7-1.42,1.83,0,3.32.33,4.45.98,1.13.65,1.75,1.54,1.85,2.67h8.15c-.03-3.3-1.32-5.88-3.85-7.73-2.53-1.85-6.08-2.77-10.65-2.77-2.93,0-5.52.49-7.75,1.47-2.23.98-3.97,2.38-5.2,4.17-1.23,1.8-1.85,3.88-1.85,6.25v12.35c0,2.37.62,4.45,1.85,6.25,1.23,1.8,2.99,3.18,5.27,4.15,2.28.97,4.93,1.45,7.93,1.45,1.08,0,2.09-.09,3.07-.22.08-2.07,1.28-4.08,3.57-4.63.13-1.48.84-2.89,2.1-3.72.14-2.38,1.75-4.65,4.82-4.65ZM71.33,112.51c-1.23.88-2.85,1.33-4.85,1.33s-3.66-.43-4.88-1.3-1.82-2.03-1.82-3.5.61-2.64,1.82-3.53c1.22-.88,2.84-1.33,4.88-1.33s3.62.45,4.85,1.35c1.23.9,1.85,2.07,1.85,3.5s-.62,2.59-1.85,3.47Z"/>
        <path class="cls-16" d="M113.43,90.51c-1.27-1.78-3.03-3.17-5.3-4.17-2.27-1-4.88-1.5-7.85-1.5-1.3,0-2.53.11-3.69.31-.28,1.44-1.12,2.76-2.51,3.43.31,2.17-.62,4.55-2.81,5.44-.61,1.75-2.1,3.15-4.51,3.15-.43,0-.83-.05-1.21-.13.05,2.14.56,4.04,1.58,5.68,1.07,1.72,2.58,3.03,4.55,3.95,1.97.92,4.27,1.38,6.9,1.38,3.4,0,6.2-.83,8.4-2.5v3.2c0,1.6-.64,2.89-1.92,3.88-1.28.98-2.88,1.48-4.78,1.48s-3.33-.33-4.47-1c-1.15-.67-1.76-1.57-1.83-2.7h-8.2c.03,3.37,1.33,5.97,3.88,7.8,2.55,1.83,6.12,2.75,10.73,2.75,2.97,0,5.58-.49,7.85-1.47,2.27-.98,4.02-2.38,5.25-4.17,1.23-1.8,1.85-3.92,1.85-6.35v-12.25c0-2.33-.63-4.39-1.9-6.17ZM105.2,100.26c-1.22.88-2.81,1.33-4.77,1.33s-3.6-.44-4.8-1.33c-1.2-.88-1.8-2.06-1.8-3.53s.6-2.59,1.8-3.47c1.2-.88,2.8-1.33,4.8-1.33s3.56.44,4.77,1.33c1.22.88,1.83,2.04,1.83,3.47s-.61,2.64-1.83,3.53Z"/>
      </g>
    </g>
  </g>
  <g id="Kategorien">
    <g>
      <path class="cls-17" d="M16.88,11.24c-.78-.5-1.64-.67-2.56-.59-1.24.1-2.47.91-3.06,2-.13.23-.13.29.07.48.23.22.95.76,1.22.92.13.07.25.12.39.05.49-.52.81-1.14,1.61-1.2.66-.05,1.55.34,1.31,1.14-.15.5-.67.63-1.07.86-.58.35-1.31,1.02-1.37,1.73-.01.14-.02.52,0,.64.03.16.19.21.33.22.39.03,1.51.05,1.87,0,.3-.05.23-.25.3-.46.22-.67.92-.87,1.42-1.25,1.71-1.3,1.2-3.47-.46-4.54Z"/>
      <rect class="cls-17" x="13.41" y="18.19" width="2.49" height="2.49" rx=".42" ry=".42"/>
    </g>
    <g>
      <path class="cls-17" d="M153.52,243.89c-.78-.5-1.64-.67-2.56-.59-1.24.1-2.47.91-3.06,2-.13.23-.13.29.07.48.23.22.95.76,1.22.92.13.07.25.12.39.05.49-.52.81-1.14,1.61-1.2.66-.05,1.55.34,1.31,1.14-.15.5-.67.63-1.07.86-.58.35-1.31,1.02-1.37,1.73-.01.14-.02.52,0,.64.03.16.19.21.33.22.39.03,1.51.05,1.87,0,.3-.05.23-.25.3-.46.22-.67.92-.87,1.42-1.25,1.71-1.3,1.2-3.47-.46-4.54Z"/>
      <rect class="cls-17" x="150.05" y="250.83" width="2.49" height="2.49" rx=".42" ry=".42"/>
    </g>
  </g>
  <g id="Text_Karte" data-name="Text Karte">
    <g>
      <g class="cls-23">
        <text class="cls-5" transform="translate(33.38 179.29)"><tspan x="0" y="0">Ich h</tspan></text>
        <text class="cls-4" transform="translate(56.8 179.29)"><tspan x="0" y="0">abe noch nie 69</tspan></text>
        <text class="cls-3" transform="translate(133.87 179.29)"><tspan x="0" y="0"> </tspan></text>
      </g>
      <text class="cls-12" transform="translate(33.38 179.29)"><tspan x="0" y="0">Ich h</tspan></text>
      <text class="cls-10" transform="translate(56.8 179.29)"><tspan x="0" y="0">abe noch nie 69</tspan></text>
      <text class="cls-15" transform="translate(133.87 179.29)"><tspan x="0" y="0"> </tspan></text>
      <g class="cls-19">
        <text class="cls-7" transform="translate(20.96 191.28)"><tspan x="0" y="0">geh</tspan></text>
        <text class="cls-7" transform="translate(39.58 191.28)"><tspan x="0" y="0">abt. </tspan></text>
        <text class="cls-6" transform="translate(60.67 191.28)"><tspan x="0" y="0">We</tspan></text>
        <text class="cls-7" transform="translate(76.52 191.28)"><tspan x="0" y="0">r es schon h</tspan></text>
        <text class="cls-2" transform="translate(134.19 191.28)"><tspan x="0" y="0">at,</tspan></text>
        <text class="cls-3" transform="translate(146.28 191.28)"><tspan x="0" y="0"> </tspan></text>
      </g>
      <text class="cls-13" transform="translate(20.96 191.28)"><tspan x="0" y="0">geh</tspan></text>
      <text class="cls-13" transform="translate(39.59 191.28)"><tspan x="0" y="0">abt. </tspan></text>
      <text class="cls-14" transform="translate(60.67 191.28)"><tspan x="0" y="0">We</tspan></text>
      <text class="cls-13" transform="translate(76.52 191.28)"><tspan x="0" y="0">r es schon h</tspan></text>
      <text class="cls-11" transform="translate(134.19 191.28)"><tspan x="0" y="0">at,</tspan></text>
      <text class="cls-15" transform="translate(146.28 191.28)"><tspan x="0" y="0"> </tspan></text>
      <g class="cls-20">
        <text class="cls-5" transform="translate(52.38 203.28)"><tspan x="0" y="0">muss t</tspan></text>
        <text class="cls-2" transform="translate(82.86 203.28)"><tspan x="0" y="0">rink</tspan></text>
        <text class="cls-7" transform="translate(100.74 203.28)"><tspan x="0" y="0">en.</tspan></text>
      </g>
      <text class="cls-12" transform="translate(52.38 203.28)"><tspan x="0" y="0">muss t</tspan></text>
      <text class="cls-11" transform="translate(82.86 203.28)"><tspan x="0" y="0">rink</tspan></text>
      <text class="cls-13" transform="translate(100.74 203.28)"><tspan x="0" y="0">en.</tspan></text>
    </g>
  </g>
</svg>