<?xml version="1.0" encoding="UTF-8"?>
<svg xmlns="http://www.w3.org/2000/svg" xmlns:xlink="http://www.w3.org/1999/xlink" viewBox="0 0 167.24 260.79">
  <defs>
    <style>
      .cls-1, .cls-2, .cls-3, .cls-4, .cls-5, .cls-6 {
        fill: none;
      }

      .cls-7 {
        fill: #010101;
      }

      .cls-2, .cls-3, .cls-8, .cls-4, .cls-5, .cls-6 {
        stroke: #fff;
      }

      .cls-2, .cls-3, .cls-4, .cls-5, .cls-9, .cls-10, .cls-11, .cls-12, .cls-13, .cls-6 {
        font-family: QuicksandBold-Regular, Quicksand;
        font-size: 10px;
      }

      .cls-2, .cls-9 {
        letter-spacing: -.02em;
      }

      .cls-14 {
        fill: #171717;
      }

      .cls-8 {
        font-size: 12px;
        stroke-miterlimit: 10;
        stroke-width: .15px;
      }

      .cls-8, .cls-15, .cls-9, .cls-10, .cls-11, .cls-12, .cls-13 {
        fill: #fff;
      }

      .cls-8, .cls-16 {
        font-family: Namaku, Namaku;
      }

      .cls-17 {
        clip-path: url(#clippath-1);
      }

      .cls-18 {
        clip-path: url(#clippath-3);
      }

      .cls-19 {
        clip-path: url(#clippath-2);
      }

      .cls-4, .cls-10 {
        letter-spacing: -.02em;
      }

      .cls-5, .cls-12 {
        letter-spacing: -.08em;
      }

      .cls-20 {
        fill: #171715;
      }

      .cls-11, .cls-6 {
        letter-spacing: -.02em;
      }

      .cls-16 {
        font-size: 15px;
      }

      .cls-16, .cls-21 {
        fill: #0a90ce;
      }

      .cls-22 {
        clip-path: url(#clippath);
      }
    </style>
    <clipPath id="clippath">
      <rect class="cls-1" x="0" y="0" width="167.24" height="260.79"/>
    </clipPath>
    <clipPath id="clippath-1">
      <rect class="cls-1" x="0" y="0" width="167.24" height="260.79"/>
    </clipPath>
    <clipPath id="clippath-2">
      <rect class="cls-1" x="0" y="0" width="167.24" height="260.79"/>
    </clipPath>
    <clipPath id="clippath-3">
      <rect class="cls-1" x="0" y="0" width="167.24" height="260.79"/>
    </clipPath>
  </defs>
  <g id="Background">
    <rect class="cls-21" width="167.24" height="260.79"/>
  </g>
  <g id="Rahmen">
    <path class="cls-7" d="M151.9,23.16c9.65,0,9.67-15,0-15s-9.67,15,0,15h0Z"/>
    <path class="cls-7" d="M152.22,254.59c9.65,0,9.67-15,0-15s-9.67,15,0,15h0Z"/>
    <path class="cls-7" d="M14.14,254.72c9.65,0,9.67-15,0-15s-9.67,15,0,15h0Z"/>
    <path class="cls-14" d="M11.56,15.67c18.49.32,36.98.69,55.46,1.04,19.51.36,39.05-.42,58.56-.82,10.18-.21,20.36-.38,30.54-.21l-3.75-3.75c-1.46,11.81-1.7,23.8-1.97,35.69-.33,14.15-.39,28.31-.37,42.46.01,9.3.14,18.61.07,27.91-.06,7.86-.43,15.71-.48,23.57-.07,11.29.08,22.59.37,33.88.56,22.38,1.59,44.74,2.18,67.12.07,2.79.14,5.57.2,8.36l3.75-3.75c-15.41-.13-30.81.06-46.22.48-24.85.69-49.67.84-74.52.24-8.25-.2-16.49-.49-24.74-.73l3.75,3.75c-.56-4.87-.34-9.89-.27-14.78.11-8.38.38-16.76.66-25.14.66-20.11,1.45-40.22,1.83-60.34.16-8.4.26-16.81.05-25.21-.13-5.24-.51-10.46-.61-15.7-.33-17.03-.19-34.08-.18-51.11,0-8.91,0-17.82-.06-26.73-.04-5.94-.04-11.89-.34-17.82-.04-.72-.08-1.43-.15-2.15-.19-1.95-1.59-3.85-3.75-3.75-1.87.08-3.96,1.66-3.75,3.75.48,4.83.39,9.76.44,14.61.09,8.42.1,16.84.11,25.25,0,17.78-.1,35.55.11,53.33.06,5.22.27,10.41.52,15.62.36,7.73.31,15.47.21,23.21-.24,20.03-1.02,40.04-1.7,60.06-.3,8.95-.6,17.9-.79,26.85-.13,5.9-.3,11.84,0,17.74.04.78.09,1.55.18,2.32.24,2.06,1.53,3.69,3.75,3.75,18.27.53,36.53,1.09,54.81,1.16,23.38.09,46.73-.97,70.1-1.19,6.85-.06,13.71-.03,20.56.02,2,.02,3.79-1.73,3.75-3.75-.48-22.44-1.5-44.87-2.16-67.3-.33-11.25-.57-22.51-.6-33.77-.03-10.16.25-20.29.47-30.44.18-8.23-.03-16.48-.05-24.72-.03-13.94,0-27.88.25-41.82.23-12.54.48-25.14,1.72-37.62.11-1.1.23-2.21.37-3.31.25-2.04-1.92-3.72-3.75-3.75-19.14-.32-38.3.42-57.44.81-9.78.2-19.58.45-29.37.27-7.76-.14-15.52-.3-23.28-.45-11.49-.22-22.99-.44-34.48-.63-1.96-.03-3.84,1.75-3.75,3.75s1.65,3.71,3.75,3.75h0Z"/>
    <polygon class="cls-14" points="26.61 14.43 14.5 29.16 14.18 13.04 26.61 14.43"/>
    <polygon class="cls-14" points="140.79 14.16 152.35 27.66 154.57 11.89 140.79 14.16"/>
    <polygon class="cls-14" points="139.48 248.15 153.14 235.93 156.07 248.65 139.48 248.15"/>
    <polygon class="cls-14" points="12.9 235.54 26.24 248.54 12.31 249.36 12.9 235.54"/>
    <rect class="cls-14" width="10.32" height="260.79"/>
    <rect class="cls-14" y="249.36" width="167.24" height="11.43"/>
    <rect class="cls-20" width="167.24" height="10.33"/>
    <rect class="cls-14" x="156.12" width="11.13" height="260.79"/>
    <path class="cls-14" d="M122.85,17.19c0-.85.35-3.85,0-4.78-.94-2.49-3.57-2.81-6.15-2.81H50.54c-2.58,0-5.21.32-6.15,2.81-.35.93,0,3.93,0,4.78l-.28,5.71c-.56,5.31,8.78,4.59,12.32,4.59l20.37.37,6.82-.07h0l6.82.07,20.37-.37c3.54,0,12.88.72,12.32-4.59l-.28-5.71Z"/>
  </g>
  <g id="Kategorie_Name" data-name="Kategorie Name">
    <text class="cls-16" transform="translate(48.55 22.56) scale(1 1.09)"><tspan x="0" y="0">Wahrheit</tspan></text>
  </g>
  <g id="Schlücke">
    <text class="cls-8" transform="translate(4.4 252.82)"><tspan x="0" y="0">+3</tspan></text>
    <text class="cls-8" transform="translate(147.68 19.77)"><tspan x="0" y="0">+3</tspan></text>
  </g>
  <g id="Motive">
    <g id="f7kMtp">
      <g>
        <path class="cls-14" d="M94,125.37c-2.8,3.38-8.14,2.9-12.31,2.72-3.59-.15-6.17-1.09-7.65-4.52-1.3-3.01-.5-5.15-.2-8.27.68-7.09,1.3-14.18,2.06-21.26.56-2.75,2.99-4.91,5.8-5.11,2.28-.17,6.52-.26,8.47.84,2.59,1.47,3.03,3.53,3.35,6.28.8,6.85,1.31,13.78,1.93,20.64.31,3.43,1,5.74-1.44,8.67ZM80.97,91.96c-.69.24-1.38.88-1.47,1.63-.17,1.43,0,3.31,1.76,3.48,1.43.14,5.35.18,6.73-.01.68-.09,1.45-.7,1.62-1.38.11-.42.11-1.94,0-2.36-.16-.62-.75-1.12-1.34-1.34l-7.31-.03Z"/>
        <path class="cls-14" d="M87.2,130.66c-.09.7.08,1.43.11,2.09,0,.17-.29,1.12.16,1.12h2.3v3.21c-.11-.03-.23.11-.27.11h-2.03l-.16.16v2.99l.16.16h2.3v3.32c-.4.16-2.21-.16-2.41.1s-.08,1.71-.07,2.09-.23.76.18,1.12h2.3v3.32c-.52.33-2.14-.15-2.44.13-.11.1.01,2-.1,2.38l.15.38,2.39.1v3.32h-8.13v-2.99s-2.46-.11-2.46-.11v-3.32h2.35c-.03-.11.11-.23.11-.27v-2.78l-.16-.16h-2.3v-3.42h2.46v-3.05l-.16-.16h-2.3v-3.42h2.46l-.11-3.21h-2.35v-3.21h8.02Z"/>
        <path class="cls-14" d="M93.51,89.16c-1.69-1.69-3.74-2.65-6.14-2.79-1.68-.1-4.12-.11-5.79,0-2.2.15-4.27,1.15-5.82,2.68l-1.28-7.99c.01-1.28.79-2.22,2.08-2.39,5.19.33,10.93-.44,16.05,0,1.31.11,2.16.98,2.2,2.3l-1.29,8.18Z"/>
        <path class="cls-14" d="M106.12,49.48l3.43,7.01v.24s-2.41,1.28-2.41,1.28l-4.34-6.77c.42-.26,3.07-1.93,3.31-1.76Z"/>
        <path class="cls-14" d="M64.46,61.41c-.63-.47-1.13-1.15-1.82-1.56v-.22s4.93-6.18,4.93-6.18l2.72,2.39-5.45,5.78c-.11.05-.3-.15-.38-.21Z"/>
        <path class="cls-14" d="M75.1,61.44l-6.27,4.6-.24-.03-1.7-2.16,5.95-5.26c.33-.03,1.92,2.27,2.26,2.63v.23Z"/>
        <path class="cls-14" d="M90.04,64.34l6.74,4.27c-.23.37-1.23,2.4-1.45,2.52-.14.08-.26.04-.4-.03l-6.62-3.66c-.1-.16.17-.55.26-.71.15-.3,1.33-2.36,1.47-2.39Z"/>
        <path class="cls-14" d="M102.31,61.53l-5.26-5.6c-.06-.24.25-.46.42-.62.69-.66,1.51-1.21,2.2-1.87l4.96,6.17c.09.32-1,1.03-1.27,1.26-.29.24-.7.96-1.04.66Z"/>
        <path class="cls-14" d="M78.95,67.54l-6.89,3.65-.21-.11-1.34-2.42,6.6-4.31c.15-.02.22.11.3.21.34.44,1.26,1.98,1.47,2.48.07.16.13.32.07.49Z"/>
        <path class="cls-14" d="M80.53,70.67c.22-.02.46.61.55.8.14.29,1,2.29.93,2.4l-7.45,2.95-1.13-2.85,7.09-3.3Z"/>
        <polygon class="cls-14" points="86.62 70.66 93.78 73.97 93.78 74.29 92.66 76.81 85.21 73.87 86.62 70.66"/>
        <path class="cls-14" d="M94.33,58.58c.38-.1,5.22,4.62,5.97,5.13v.32c-.52.29-1.28,1.78-1.66,1.99-.11.06-.21.07-.32,0l-6.16-4.65c-.07-.16,2-2.73,2.17-2.77Z"/>
        <path class="cls-14" d="M60.23,58.03l-2.4-1.27-.14-.25,3.56-7.03c.87.42,1.86.89,2.66,1.41.14.09.51.25.49.44l-4.17,6.7Z"/>
      </g>
    </g>
  </g>
  <g id="Kategorien">
    <g>
      <path class="cls-15" d="M16.88,11.24c-.78-.5-1.64-.67-2.56-.59-1.24.1-2.47.91-3.06,2-.13.23-.13.29.07.48.23.22.95.76,1.22.92.13.07.25.12.39.05.49-.52.81-1.14,1.61-1.2.66-.05,1.55.34,1.31,1.14-.15.5-.67.63-1.07.86-.58.35-1.31,1.02-1.37,1.73-.01.14-.02.52,0,.64.03.16.19.21.33.22.39.03,1.51.05,1.87,0,.3-.05.23-.25.3-.46.22-.67.92-.87,1.42-1.25,1.71-1.3,1.2-3.47-.46-4.54Z"/>
      <rect class="cls-15" x="13.41" y="18.19" width="2.49" height="2.49" rx=".42" ry=".42"/>
    </g>
    <g>
      <path class="cls-15" d="M153.52,243.89c-.78-.5-1.64-.67-2.56-.59-1.24.1-2.47.91-3.06,2-.13.23-.13.29.07.48.23.22.95.76,1.22.92.13.07.25.12.39.05.49-.52.81-1.14,1.61-1.2.66-.05,1.55.34,1.31,1.14-.15.5-.67.63-1.07.86-.58.35-1.31,1.02-1.37,1.73-.01.14-.02.52,0,.64.03.16.19.21.33.22.39.03,1.51.05,1.87,0,.3-.05.23-.25.3-.46.22-.67.92-.87,1.42-1.25,1.71-1.3,1.2-3.47-.46-4.54Z"/>
      <rect class="cls-15" x="150.05" y="250.83" width="2.49" height="2.49" rx=".42" ry=".42"/>
    </g>
  </g>
  <g id="Text_Karte" data-name="Text Karte">
    <g>
      <g class="cls-22">
        <text class="cls-4" transform="translate(40.95 179.29)"><tspan x="0" y="0">Ich h</tspan></text>
        <text class="cls-6" transform="translate(64.37 179.29)"><tspan x="0" y="0">abe noch ni</tspan></text>
        <text class="cls-3" transform="translate(120.2 179.29)"><tspan x="0" y="0">e </tspan></text>
      </g>
      <text class="cls-10" transform="translate(40.95 179.29)"><tspan x="0" y="0">Ich h</tspan></text>
      <text class="cls-11" transform="translate(64.37 179.29)"><tspan x="0" y="0">abe noch nie</tspan></text>
      <text class="cls-13" transform="translate(126.3 179.29)"><tspan x="0" y="0"> </tspan></text>
      <g class="cls-17">
        <text class="cls-3" transform="translate(25.37 191.28)"><tspan x="0" y="0">u</tspan></text>
        <text class="cls-6" transform="translate(31.07 191.28)"><tspan x="0" y="0">npassen</tspan></text>
        <text class="cls-6" transform="translate(70.34 191.28)"><tspan x="0" y="0">d eine Er</tspan></text>
        <text class="cls-6" transform="translate(112.09 191.28)"><tspan x="0" y="0">ektion</tspan></text>
        <text class="cls-3" transform="translate(141.87 191.28)"><tspan x="0" y="0"> </tspan></text>
      </g>
      <text class="cls-13" transform="translate(25.37 191.28)"><tspan x="0" y="0">u</tspan></text>
      <text class="cls-11" transform="translate(31.07 191.28)"><tspan x="0" y="0">npassen</tspan></text>
      <text class="cls-11" transform="translate(70.34 191.28)"><tspan x="0" y="0">d eine Er</tspan></text>
      <text class="cls-11" transform="translate(112.09 191.28)"><tspan x="0" y="0">ektion</tspan></text>
      <text class="cls-13" transform="translate(141.87 191.28)"><tspan x="0" y="0"> </tspan></text>
      <g class="cls-19">
        <text class="cls-6" transform="translate(21.91 203.28)"><tspan x="0" y="0">bek</tspan></text>
        <text class="cls-6" transform="translate(39.35 203.28)"><tspan x="0" y="0">ommen. </tspan></text>
        <text class="cls-5" transform="translate(80.74 203.28)"><tspan x="0" y="0">We</tspan></text>
        <text class="cls-2" transform="translate(96.59 203.28)"><tspan x="0" y="0">r es schon</tspan></text>
        <text class="cls-3" transform="translate(145.33 203.28)"><tspan x="0" y="0"> </tspan></text>
      </g>
      <text class="cls-11" transform="translate(21.91 203.28)"><tspan x="0" y="0">bek</tspan></text>
      <text class="cls-11" transform="translate(39.35 203.28)"><tspan x="0" y="0">ommen. </tspan></text>
      <text class="cls-12" transform="translate(80.74 203.28)"><tspan x="0" y="0">We</tspan></text>
      <text class="cls-9" transform="translate(96.59 203.28)"><tspan x="0" y="0">r es schon</tspan></text>
      <text class="cls-13" transform="translate(145.33 203.28)"><tspan x="0" y="0"> </tspan></text>
      <g class="cls-18">
        <text class="cls-3" transform="translate(41.87 215.28)"><tspan x="0" y="0">h</tspan></text>
        <text class="cls-6" transform="translate(48.2 215.28)"><tspan x="0" y="0">at, muss t</tspan></text>
        <text class="cls-2" transform="translate(93.37 215.28)"><tspan x="0" y="0">rink</tspan></text>
        <text class="cls-6" transform="translate(111.25 215.28)"><tspan x="0" y="0">en</tspan></text>
        <text class="cls-3" transform="translate(123.07 215.28)"><tspan x="0" y="0">.</tspan></text>
      </g>
      <text class="cls-13" transform="translate(41.87 215.28)"><tspan x="0" y="0">h</tspan></text>
      <text class="cls-11" transform="translate(48.2 215.28)"><tspan x="0" y="0">at, muss t</tspan></text>
      <text class="cls-9" transform="translate(93.37 215.28)"><tspan x="0" y="0">rink</tspan></text>
      <text class="cls-11" transform="translate(111.25 215.28)"><tspan x="0" y="0">en.</tspan></text>
    </g>
  </g>
</svg>