<?xml version="1.0" encoding="UTF-8"?>
<svg xmlns="http://www.w3.org/2000/svg" xmlns:xlink="http://www.w3.org/1999/xlink" viewBox="0 0 167.24 260.79">
  <defs>
    <style>
      .cls-1, .cls-2, .cls-3, .cls-4, .cls-5, .cls-6, .cls-7, .cls-8, .cls-9 {
        fill: none;
      }

      .cls-10 {
        fill: #010101;
      }

      .cls-2, .cls-3, .cls-11, .cls-4, .cls-5, .cls-6, .cls-7, .cls-8, .cls-9 {
        stroke: #fff;
      }

      .cls-2, .cls-3, .cls-4, .cls-5, .cls-12, .cls-13, .cls-6, .cls-7, .cls-14, .cls-15, .cls-16, .cls-17, .cls-8, .cls-18, .cls-9 {
        font-family: QuicksandBold-Regular, Quicksand;
        font-size: 10px;
      }

      .cls-2, .cls-14 {
        letter-spacing: -.02em;
      }

      .cls-19 {
        fill: #171717;
      }

      .cls-11 {
        font-size: 12px;
        stroke-miterlimit: 10;
        stroke-width: .15px;
      }

      .cls-11, .cls-20, .cls-12, .cls-13, .cls-14, .cls-15, .cls-16, .cls-17, .cls-18 {
        fill: #fff;
      }

      .cls-11, .cls-21 {
        font-family: Namaku, Namaku;
      }

      .cls-4 {
        letter-spacing: -.09em;
      }

      .cls-22 {
        clip-path: url(#clippath-1);
      }

      .cls-23 {
        clip-path: url(#clippath-3);
      }

      .cls-24 {
        clip-path: url(#clippath-2);
      }

      .cls-5, .cls-15 {
        letter-spacing: -.02em;
      }

      .cls-12, .cls-8 {
        letter-spacing: -.04em;
      }

      .cls-13, .cls-6 {
        letter-spacing: -.04em;
      }

      .cls-7, .cls-17 {
        letter-spacing: -.08em;
      }

      .cls-25 {
        fill: #171715;
      }

      .cls-16, .cls-9 {
        letter-spacing: -.02em;
      }

      .cls-21 {
        font-size: 15px;
      }

      .cls-21, .cls-26 {
        fill: #0a90ce;
      }

      .cls-27 {
        clip-path: url(#clippath);
      }
    </style>
    <clipPath id="clippath">
      <rect class="cls-1" x="0" y="0" width="167.24" height="260.79"/>
    </clipPath>
    <clipPath id="clippath-1">
      <rect class="cls-1" x="0" y="0" width="167.24" height="260.79"/>
    </clipPath>
    <clipPath id="clippath-2">
      <rect class="cls-1" x="0" y="0" width="167.24" height="260.79"/>
    </clipPath>
    <clipPath id="clippath-3">
      <rect class="cls-1" x="0" y="0" width="167.24" height="260.79"/>
    </clipPath>
  </defs>
  <g id="Background">
    <rect class="cls-26" width="167.24" height="260.79"/>
  </g>
  <g id="Rahmen">
    <path class="cls-10" d="M151.9,23.16c9.65,0,9.67-15,0-15s-9.67,15,0,15h0Z"/>
    <path class="cls-10" d="M152.22,254.59c9.65,0,9.67-15,0-15s-9.67,15,0,15h0Z"/>
    <path class="cls-10" d="M14.14,254.72c9.65,0,9.67-15,0-15s-9.67,15,0,15h0Z"/>
    <path class="cls-19" d="M11.56,15.67c18.49.32,36.98.69,55.46,1.04,19.51.36,39.05-.42,58.56-.82,10.18-.21,20.36-.38,30.54-.21l-3.75-3.75c-1.46,11.81-1.7,23.8-1.97,35.69-.33,14.15-.39,28.31-.37,42.46.01,9.3.14,18.61.07,27.91-.06,7.86-.43,15.71-.48,23.57-.07,11.29.08,22.59.37,33.88.56,22.38,1.59,44.74,2.18,67.12.07,2.79.14,5.57.2,8.36l3.75-3.75c-15.41-.13-30.81.06-46.22.48-24.85.69-49.67.84-74.52.24-8.25-.2-16.49-.49-24.74-.73l3.75,3.75c-.56-4.87-.34-9.89-.27-14.78.11-8.38.38-16.76.66-25.14.66-20.11,1.45-40.22,1.83-60.34.16-8.4.26-16.81.05-25.21-.13-5.24-.51-10.46-.61-15.7-.33-17.03-.19-34.08-.18-51.11,0-8.91,0-17.82-.06-26.73-.04-5.94-.04-11.89-.34-17.82-.04-.72-.08-1.43-.15-2.15-.19-1.95-1.59-3.85-3.75-3.75-1.87.08-3.96,1.66-3.75,3.75.48,4.83.39,9.76.44,14.61.09,8.42.1,16.84.11,25.25,0,17.78-.1,35.55.11,53.33.06,5.22.27,10.41.52,15.62.36,7.73.31,15.47.21,23.21-.24,20.03-1.02,40.04-1.7,60.06-.3,8.95-.6,17.9-.79,26.85-.13,5.9-.3,11.84,0,17.74.04.78.09,1.55.18,2.32.24,2.06,1.53,3.69,3.75,3.75,18.27.53,36.53,1.09,54.81,1.16,23.38.09,46.73-.97,70.1-1.19,6.85-.06,13.71-.03,20.56.02,2,.02,3.79-1.73,3.75-3.75-.48-22.44-1.5-44.87-2.16-67.3-.33-11.25-.57-22.51-.6-33.77-.03-10.16.25-20.29.47-30.44.18-8.23-.03-16.48-.05-24.72-.03-13.94,0-27.88.25-41.82.23-12.54.48-25.14,1.72-37.62.11-1.1.23-2.21.37-3.31.25-2.04-1.92-3.72-3.75-3.75-19.14-.32-38.3.42-57.44.81-9.78.2-19.58.45-29.37.27-7.76-.14-15.52-.3-23.28-.45-11.49-.22-22.99-.44-34.48-.63-1.96-.03-3.84,1.75-3.75,3.75s1.65,3.71,3.75,3.75h0Z"/>
    <polygon class="cls-19" points="26.61 14.43 14.5 29.16 14.18 13.04 26.61 14.43"/>
    <polygon class="cls-19" points="140.79 14.16 152.35 27.66 154.57 11.89 140.79 14.16"/>
    <polygon class="cls-19" points="139.48 248.15 153.14 235.93 156.07 248.65 139.48 248.15"/>
    <polygon class="cls-19" points="12.9 235.54 26.24 248.54 12.31 249.36 12.9 235.54"/>
    <rect class="cls-19" width="10.32" height="260.79"/>
    <rect class="cls-19" y="249.36" width="167.24" height="11.43"/>
    <rect class="cls-25" width="167.24" height="10.33"/>
    <rect class="cls-19" x="156.12" width="11.13" height="260.79"/>
    <path class="cls-19" d="M122.85,17.19c0-.85.35-3.85,0-4.78-.94-2.49-3.57-2.81-6.15-2.81H50.54c-2.58,0-5.21.32-6.15,2.81-.35.93,0,3.93,0,4.78l-.28,5.71c-.56,5.31,8.78,4.59,12.32,4.59l20.37.37,6.82-.07h0l6.82.07,20.37-.37c3.54,0,12.88.72,12.32-4.59l-.28-5.71Z"/>
  </g>
  <g id="Kategorie_Name" data-name="Kategorie Name">
    <text class="cls-21" transform="translate(48.55 22.56) scale(1 1.09)"><tspan x="0" y="0">Wahrheit</tspan></text>
  </g>
  <g id="Schlücke">
    <text class="cls-11" transform="translate(4.4 252.82)"><tspan x="0" y="0">+3</tspan></text>
    <text class="cls-11" transform="translate(147.68 19.77)"><tspan x="0" y="0">+3</tspan></text>
  </g>
  <g id="Motive">
    <g>
      <g>
        <path class="cls-19" d="M73.87,65.26c.14.12.31-.34.41-.45,2.19-2.4,5.89-.36,5.46,2.76-.25,1.79-2.82,4.34-4.19,5.46-1.57,1.28-1.75,1.17-3.27-.08s-3.98-3.67-4.14-5.6c-.24-3.04,3.44-4.89,5.52-2.49.1.11.2.39.21.4Z"/>
        <path class="cls-19" d="M85.38,50.04c.21.18.48-.52.63-.69,3.37-3.7,9.07-.56,8.41,4.25-.38,2.76-4.34,6.69-6.47,8.42-2.42,1.98-2.69,1.81-5.04-.13s-6.14-5.65-6.38-8.64c-.37-4.68,5.31-7.54,8.51-3.84.15.17.3.6.33.62Z"/>
        <path class="cls-19" d="M92.91,70.79c.09.07.19-.21.26-.28,1.37-1.5,3.68-.23,3.41,1.73-.15,1.12-1.76,2.71-2.62,3.42-.98.8-1.09.73-2.04-.05s-2.49-2.29-2.59-3.5c-.15-1.9,2.15-3.06,3.45-1.56.06.07.12.24.13.25Z"/>
        <g id="x0tL9P">
          <path class="cls-19" d="M64.55,113.57c-.37-7.76,4.38-15.45,11.61-18.27.07-.3-.22-.24-.41-.45-3.09-3.52-4.1-8.2-1.95-12.53,3.85-7.77,14.92-8.16,19.3-.68,2.67,4.56,1.65,10.01-2,13.66,7.22,2.8,11.99,10.53,11.6,18.27h-38.15Z"/>
        </g>
      </g>
      <path class="cls-19" d="M61.22,138.37c-.26.01-.53.02-.8.03,0-.27.01-.53.02-.8.02-.27.03-.53.04-.8.23-.11.49-.23.77-.36.27-.13.54-.21.8-.24.24-.01.42.06.54.22.12.16.17.35.17.58-.01.23-.08.45-.21.68-.12.23-.31.4-.57.52-.23.11-.49.16-.76.17Z"/>
      <path class="cls-19" d="M62.97,141.85c.05.25.02.49-.09.73-.1.24-.26.45-.48.63-.21.18-.44.29-.69.33-.38.05-.75.07-1.12.06-.06-.43-.1-.85-.12-1.27-.03-.42-.05-.84-.05-1.27.17.01.34.01.52,0,.19,0,.38-.02.57-.03.2-.01.38,0,.55.03.18.03.33.08.46.16.26.17.41.38.45.63Z"/>
      <path class="cls-19" d="M78.22,138.02c-.2-.47-.45-.8-.77-1.01-.31-.21-.63-.3-.97-.28-.33.02-.65.14-.97.35-.31.21-.57.5-.78.87-.2.37-.33.8-.37,1.3s.05,1.04.26,1.63c.16.47.43.82.79,1.07.37.25.75.35,1.14.32.4-.03.77-.22,1.11-.55.35-.33.59-.84.72-1.52.07-.36.1-.73.08-1.1,0-.37-.09-.73-.24-1.08ZM78.22,138.02c-.2-.47-.45-.8-.77-1.01-.31-.21-.63-.3-.97-.28-.33.02-.65.14-.97.35-.31.21-.57.5-.78.87-.2.37-.33.8-.37,1.3s.05,1.04.26,1.63c.16.47.43.82.79,1.07.37.25.75.35,1.14.32.4-.03.77-.22,1.11-.55.35-.33.59-.84.72-1.52.07-.36.1-.73.08-1.1,0-.37-.09-.73-.24-1.08ZM122.46,118.56c-.12-.96-.96-1.56-1.89-1.55H46.45c-.79.06-1.57.76-1.67,1.55-.08.74-.1,3.68.03,4.35.09.45.87,1.34,1.3,1.34h2.24v32.7c.17.97,1.02,1.58,2.01,1.55h66.76c.84-.04,1.6-.6,1.78-1.44v-32.81h2.24s.72-.38.8-.45c.2-.18.44-.63.49-.89.14-.75.13-3.56.03-4.35ZM67.34,144.4c-.16.64-.53,1.17-1.12,1.6-.58.43-1.15.73-1.7.9-.54.17-1.17.28-1.88.34-.63.04-1.28.07-1.93.1-.66.03-1.31.03-1.95,0-.1,0-.25-.01-.43-.02-.19-.01-.38-.04-.57-.07-.18-.03-.36-.07-.53-.11-.16-.04-.29-.09-.37-.16-.06-.07-.13-.13-.18-.18-.07-.05-.11-.13-.13-.22-.11-.32-.17-.68-.19-1.07-.01-.39-.03-.76-.07-1.11-.15-1.36-.24-2.72-.27-4.08-.02-1.36,0-2.73.07-4.1.02-.47.05-.94.09-1.43.03-.49.04-.96.04-1.43v-.43c0-.09.01-.16.01-.23.01-.07.02-.11.03-.14.02-.05.12-.1.29-.13.18-.03.41-.06.67-.09.27-.03.57-.04.88-.05.32-.01.63-.01.92-.02.3-.01.56-.01.79-.01h.49c.07,0,.14,0,.21.01.06.01.13.03.2.07.08,0,.13.05.14.14.03.09.03.2.03.33s0,.25-.03.38c-.01.13-.02.22-.02.27.14-.13.29-.25.44-.36.16-.11.32-.21.49-.3.88-.44,1.67-.62,2.37-.54.71.08,1.29.32,1.77.73.48.41.83.92,1.06,1.55.22.63.28,1.27.19,1.92-.08.65-.34,1.26-.76,1.83-.42.57-1.03.99-1.83,1.27.69.23,1.26.61,1.74,1.15.47.54.8,1.13.99,1.77.18.64.2,1.28.05,1.92ZM82.31,141.2c-.11.6-.25,1.15-.43,1.66-.13.39-.35.77-.66,1.16-.3.39-.65.74-1.04,1.06-.38.32-.79.6-1.23.83-.43.23-.85.4-1.25.49-.3.07-.62.1-.95.1s-.65,0-.97-.04c-1.2-.12-2.2-.46-3-1.03-.8-.57-1.41-1.26-1.84-2.09-.42-.83-.68-1.73-.77-2.71-.08-.98-.02-1.94.19-2.88.22-.94.57-1.81,1.06-2.61.5-.8,1.11-1.44,1.84-1.92.3-.19.6-.33.92-.44s.65-.21.98-.3c.8-.21,1.57-.24,2.29-.09.73.15,1.45.42,2.17.79.55.28,1.01.64,1.39,1.09s.69.94.91,1.49c.23.55.39,1.13.48,1.75.1.62.13,1.24.11,1.86-.02.62-.08,1.23-.2,1.83ZM96.57,135.71c0,.13-.02.26-.04.39-.02.13-.04.26-.08.37-.03.11-.07.2-.11.25-.06.08-.25.13-.56.15-.3.02-.64.03-1.02.02-.37-.01-.73-.02-1.07-.04-.34-.02-.57-.04-.69-.05-.1-.01-.16-.1-.17-.27,0-.17-.02-.35-.04-.55-.02-.2-.08-.38-.18-.53-.1-.15-.3-.23-.61-.23-.25.01-.49.11-.72.28-.22.17-.36.39-.4.66-.05.32.03.6.24.85.22.25.5.48.84.71.35.23.74.45,1.18.68s.88.47,1.3.74c.43.27.82.57,1.16.91.35.34.6.74.76,1.19.14.37.21.81.21,1.31.01.5-.04,1-.16,1.5-.11.5-.29.96-.53,1.38-.24.42-.54.74-.9.95-.38.23-.79.39-1.23.49-.43.1-.86.18-1.29.23-.9.11-1.85.12-2.85.04-.99-.08-1.92-.27-2.79-.58-.3-.11-.56-.32-.78-.64-.21-.32-.38-.68-.52-1.07-.13-.39-.22-.79-.28-1.19-.05-.4-.07-.74-.06-1.02.02-.17.04-.35.06-.53.03-.18.11-.34.24-.47.1-.09.31-.16.64-.2.34-.04.69-.06,1.07-.07.38,0,.74.01,1.07.05.34.04.55.09.64.16.08.07.13.17.13.31.01.14.01.29-.01.45,0,.16,0,.32,0,.48.02.16.07.29.16.4.1.11.32.19.66.24.35.05.71.06,1.07.01.37-.05.69-.15.96-.3.28-.15.39-.39.33-.71-.06-.36-.25-.67-.55-.92-.3-.25-.66-.49-1.09-.72-.42-.23-.89-.45-1.39-.68s-.97-.49-1.41-.78c-.44-.29-.82-.64-1.16-1.05-.33-.41-.54-.9-.64-1.49-.09-.51-.09-1.01.01-1.51.1-.5.29-.96.55-1.39.32-.51.74-.91,1.26-1.22.43-.24.88-.41,1.34-.51.47-.1.94-.18,1.42-.23.34-.04.77-.07,1.3-.08.54-.01,1.07.01,1.61.06.54.05,1.05.16,1.51.31.47.15.82.38,1.04.67.23.31.38.7.46,1.18.08.48.12.91.12,1.3,0,.08,0,.18-.01.31ZM110.79,135.71c0,.13-.02.26-.04.39-.02.13-.04.26-.08.37-.03.11-.07.2-.11.25-.06.08-.25.13-.56.15-.3.02-.64.03-1.02.02-.37-.01-.73-.02-1.07-.04-.34-.02-.57-.04-.69-.05-.1-.01-.16-.1-.17-.27,0-.17-.02-.35-.04-.55-.02-.2-.08-.38-.18-.53-.1-.15-.3-.23-.61-.23-.25.01-.49.11-.72.28-.22.17-.36.39-.4.66-.05.32.03.6.24.85.22.25.5.48.84.71.35.23.74.45,1.18.68s.88.47,1.3.74c.43.27.82.57,1.16.91.35.34.6.74.76,1.19.14.37.21.81.21,1.31.01.5-.04,1-.16,1.5-.11.5-.29.96-.53,1.38-.24.42-.54.74-.9.95-.38.23-.79.39-1.23.49-.43.1-.86.18-1.29.23-.9.11-1.85.12-2.85.04-.99-.08-1.92-.27-2.79-.58-.3-.11-.56-.32-.78-.64-.21-.32-.38-.68-.52-1.07-.13-.39-.22-.79-.28-1.19-.05-.4-.07-.74-.06-1.02.02-.17.04-.35.06-.53.03-.18.11-.34.24-.47.1-.09.31-.16.64-.2.34-.04.69-.06,1.07-.07.38,0,.74.01,1.07.05.34.04.55.09.64.16.08.07.13.17.13.31.01.14.01.29-.01.45-.01.16-.01.32,0,.48.02.16.07.29.16.4.1.11.32.19.66.24.35.05.71.06,1.07.01.37-.05.69-.15.96-.3.28-.15.39-.39.33-.71-.06-.36-.25-.67-.55-.92s-.66-.49-1.09-.72c-.42-.23-.89-.45-1.39-.68s-.97-.49-1.41-.78c-.44-.29-.82-.64-1.16-1.05-.33-.41-.54-.9-.64-1.49-.09-.51-.09-1.01.01-1.51.1-.5.29-.96.55-1.39.32-.51.74-.91,1.26-1.22.43-.24.88-.41,1.34-.51.47-.1.94-.18,1.42-.23.34-.04.77-.07,1.3-.08.54-.01,1.07.01,1.61.06.54.05,1.05.16,1.51.31.47.15.82.38,1.04.67.23.31.38.7.46,1.18.08.48.12.91.12,1.3,0,.08,0,.18-.01.31ZM77.45,137.01c-.31-.21-.63-.3-.97-.28-.33.02-.65.14-.97.35-.31.21-.57.5-.78.87-.2.37-.33.8-.37,1.3s.05,1.04.26,1.63c.16.47.43.82.79,1.07.37.25.75.35,1.14.32.4-.03.77-.22,1.11-.55.35-.33.59-.84.72-1.52.07-.36.1-.73.08-1.1,0-.37-.09-.73-.24-1.08-.2-.47-.45-.8-.77-1.01ZM78.22,138.02c-.2-.47-.45-.8-.77-1.01-.31-.21-.63-.3-.97-.28-.33.02-.65.14-.97.35-.31.21-.57.5-.78.87-.2.37-.33.8-.37,1.3s.05,1.04.26,1.63c.16.47.43.82.79,1.07.37.25.75.35,1.14.32.4-.03.77-.22,1.11-.55.35-.33.59-.84.72-1.52.07-.36.1-.73.08-1.1,0-.37-.09-.73-.24-1.08ZM78.22,138.02c-.2-.47-.45-.8-.77-1.01-.31-.21-.63-.3-.97-.28-.33.02-.65.14-.97.35-.31.21-.57.5-.78.87-.2.37-.33.8-.37,1.3s.05,1.04.26,1.63c.16.47.43.82.79,1.07.37.25.75.35,1.14.32.4-.03.77-.22,1.11-.55.35-.33.59-.84.72-1.52.07-.36.1-.73.08-1.1,0-.37-.09-.73-.24-1.08Z"/>
    </g>
  </g>
  <g id="Kategorien">
    <g>
      <path class="cls-20" d="M16.88,11.24c-.78-.5-1.64-.67-2.56-.59-1.24.1-2.47.91-3.06,2-.13.23-.13.29.07.48.23.22.95.76,1.22.92.13.07.25.12.39.05.49-.52.81-1.14,1.61-1.2.66-.05,1.55.34,1.31,1.14-.15.5-.67.63-1.07.86-.58.35-1.31,1.02-1.37,1.73-.01.14-.02.52,0,.64.03.16.19.21.33.22.39.03,1.51.05,1.87,0,.3-.05.23-.25.3-.46.22-.67.92-.87,1.42-1.25,1.71-1.3,1.2-3.47-.46-4.54Z"/>
      <rect class="cls-20" x="13.41" y="18.19" width="2.49" height="2.49" rx=".42" ry=".42"/>
    </g>
    <g>
      <path class="cls-20" d="M153.52,243.89c-.78-.5-1.64-.67-2.56-.59-1.24.1-2.47.91-3.06,2-.13.23-.13.29.07.48.23.22.95.76,1.22.92.13.07.25.12.39.05.49-.52.81-1.14,1.61-1.2.66-.05,1.55.34,1.31,1.14-.15.5-.67.63-1.07.86-.58.35-1.31,1.02-1.37,1.73-.01.14-.02.52,0,.64.03.16.19.21.33.22.39.03,1.51.05,1.87,0,.3-.05.23-.25.3-.46.22-.67.92-.87,1.42-1.25,1.71-1.3,1.2-3.47-.46-4.54Z"/>
      <rect class="cls-20" x="150.05" y="250.83" width="2.49" height="2.49" rx=".42" ry=".42"/>
    </g>
  </g>
  <g id="Text_Karte" data-name="Text Karte">
    <g>
      <g class="cls-27">
        <text class="cls-5" transform="translate(26.42 179.29)"><tspan x="0" y="0">Ich h</tspan></text>
        <text class="cls-9" transform="translate(49.84 179.29)"><tspan x="0" y="0">abe noch nie einen</tspan></text>
        <text class="cls-3" transform="translate(140.82 179.29)"><tspan x="0" y="0"> </tspan></text>
      </g>
      <text class="cls-15" transform="translate(26.42 179.29)"><tspan x="0" y="0">Ich h</tspan></text>
      <text class="cls-16" transform="translate(49.84 179.29)"><tspan x="0" y="0">abe noch nie einen</tspan></text>
      <text class="cls-18" transform="translate(140.82 179.29)"><tspan x="0" y="0"> </tspan></text>
      <g class="cls-22">
        <text class="cls-9" transform="translate(29.03 191.28)"><tspan x="0" y="0">Crush auf einen Lehr</tspan></text>
        <text class="cls-6" transform="translate(128.14 191.28)"><tspan x="0" y="0">er</tspan></text>
        <text class="cls-3" transform="translate(138.21 191.28)"><tspan x="0" y="0"> </tspan></text>
      </g>
      <text class="cls-16" transform="translate(29.03 191.28)"><tspan x="0" y="0">Crush auf einen Lehr</tspan></text>
      <text class="cls-13" transform="translate(128.14 191.28)"><tspan x="0" y="0">er</tspan></text>
      <text class="cls-18" transform="translate(138.21 191.28)"><tspan x="0" y="0"> </tspan></text>
      <g class="cls-24">
        <text class="cls-9" transform="translate(21.69 203.28)"><tspan x="0" y="0">od</tspan></text>
        <text class="cls-8" transform="translate(33.98 203.28)"><tspan x="0" y="0">er</tspan></text>
        <text class="cls-9" transform="translate(43.85 203.28)"><tspan x="0" y="0" xml:space="preserve"> Chef geh</tspan></text>
        <text class="cls-2" transform="translate(90.82 203.28)"><tspan x="0" y="0">abt. </tspan></text>
        <text class="cls-7" transform="translate(111.91 203.28)"><tspan x="0" y="0">We</tspan></text>
        <text class="cls-2" transform="translate(127.77 203.28)"><tspan x="0" y="0">r es</tspan></text>
        <text class="cls-3" transform="translate(145.56 203.28)"><tspan x="0" y="0"> </tspan></text>
      </g>
      <text class="cls-16" transform="translate(21.69 203.28)"><tspan x="0" y="0">od</tspan></text>
      <text class="cls-12" transform="translate(33.98 203.28)"><tspan x="0" y="0">er</tspan></text>
      <text class="cls-16" transform="translate(43.85 203.28)"><tspan x="0" y="0" xml:space="preserve"> Chef geh</tspan></text>
      <text class="cls-14" transform="translate(90.82 203.28)"><tspan x="0" y="0">abt. </tspan></text>
      <text class="cls-17" transform="translate(111.91 203.28)"><tspan x="0" y="0">We</tspan></text>
      <text class="cls-14" transform="translate(127.77 203.28)"><tspan x="0" y="0">r es</tspan></text>
      <text class="cls-18" transform="translate(145.56 203.28)"><tspan x="0" y="0"> </tspan></text>
      <g class="cls-23">
        <text class="cls-9" transform="translate(26.4 215.28)"><tspan x="0" y="0">schon h</tspan></text>
        <text class="cls-9" transform="translate(63.67 215.28)"><tspan x="0" y="0">at, muss </tspan></text>
        <text class="cls-4" transform="translate(105.74 215.28)"><tspan x="0" y="0">tr</tspan></text>
        <text class="cls-2" transform="translate(113.03 215.28)"><tspan x="0" y="0">ink</tspan></text>
        <text class="cls-9" transform="translate(126.72 215.28)"><tspan x="0" y="0">en.</tspan></text>
      </g>
      <text class="cls-16" transform="translate(26.4 215.28)"><tspan x="0" y="0">schon h</tspan></text>
      <text class="cls-16" transform="translate(63.67 215.28)"><tspan x="0" y="0">at, muss t</tspan></text>
      <text class="cls-14" transform="translate(108.84 215.28)"><tspan x="0" y="0">rink</tspan></text>
      <text class="cls-16" transform="translate(126.73 215.28)"><tspan x="0" y="0">en.</tspan></text>
    </g>
  </g>
</svg>