<?xml version="1.0" encoding="UTF-8"?>
<svg xmlns="http://www.w3.org/2000/svg" xmlns:xlink="http://www.w3.org/1999/xlink" viewBox="0 0 167.24 260.79">
  <defs>
    <style>
      .cls-1, .cls-2, .cls-3, .cls-4, .cls-5 {
        fill: none;
      }

      .cls-6 {
        fill: #010101;
      }

      .cls-2, .cls-3, .cls-7, .cls-4, .cls-5 {
        stroke: #fff;
      }

      .cls-2, .cls-3, .cls-4, .cls-8, .cls-9, .cls-10, .cls-11, .cls-5 {
        font-family: QuicksandBold-Regular, Quicksand;
        font-size: 10px;
      }

      .cls-2, .cls-8 {
        letter-spacing: -.02em;
      }

      .cls-12 {
        fill: #171717;
      }

      .cls-7 {
        font-size: 12px;
        stroke-miterlimit: 10;
        stroke-width: .15px;
      }

      .cls-7, .cls-13, .cls-8, .cls-9, .cls-10, .cls-11 {
        fill: #fff;
      }

      .cls-7, .cls-14 {
        font-family: Namaku, Namaku;
      }

      .cls-4, .cls-10 {
        letter-spacing: -.06em;
      }

      .cls-15 {
        clip-path: url(#clippath-1);
      }

      .cls-16 {
        fill: #171715;
      }

      .cls-9, .cls-5 {
        letter-spacing: -.02em;
      }

      .cls-14 {
        font-size: 15px;
      }

      .cls-14, .cls-17 {
        fill: #0a90ce;
      }

      .cls-18 {
        clip-path: url(#clippath);
      }
    </style>
    <clipPath id="clippath">
      <rect class="cls-1" x="0" y="0" width="167.24" height="260.79"/>
    </clipPath>
    <clipPath id="clippath-1">
      <rect class="cls-1" x="0" y="0" width="167.24" height="260.79"/>
    </clipPath>
  </defs>
  <g id="Background">
    <rect class="cls-17" width="167.24" height="260.79"/>
  </g>
  <g id="Rahmen">
    <path class="cls-6" d="M151.9,23.16c9.65,0,9.67-15,0-15s-9.67,15,0,15h0Z"/>
    <path class="cls-6" d="M152.22,254.59c9.65,0,9.67-15,0-15s-9.67,15,0,15h0Z"/>
    <path class="cls-6" d="M14.14,254.72c9.65,0,9.67-15,0-15s-9.67,15,0,15h0Z"/>
    <path class="cls-12" d="M11.56,15.67c18.49.32,36.98.69,55.46,1.04,19.51.36,39.05-.42,58.56-.82,10.18-.21,20.36-.38,30.54-.21l-3.75-3.75c-1.46,11.81-1.7,23.8-1.97,35.69-.33,14.15-.39,28.31-.37,42.46.01,9.3.14,18.61.07,27.91-.06,7.86-.43,15.71-.48,23.57-.07,11.29.08,22.59.37,33.88.56,22.38,1.59,44.74,2.18,67.12.07,2.79.14,5.57.2,8.36l3.75-3.75c-15.41-.13-30.81.06-46.22.48-24.85.69-49.67.84-74.52.24-8.25-.2-16.49-.49-24.74-.73l3.75,3.75c-.56-4.87-.34-9.89-.27-14.78.11-8.38.38-16.76.66-25.14.66-20.11,1.45-40.22,1.83-60.34.16-8.4.26-16.81.05-25.21-.13-5.24-.51-10.46-.61-15.7-.33-17.03-.19-34.08-.18-51.11,0-8.91,0-17.82-.06-26.73-.04-5.94-.04-11.89-.34-17.82-.04-.72-.08-1.43-.15-2.15-.19-1.95-1.59-3.85-3.75-3.75-1.87.08-3.96,1.66-3.75,3.75.48,4.83.39,9.76.44,14.61.09,8.42.1,16.84.11,25.25,0,17.78-.1,35.55.11,53.33.06,5.22.27,10.41.52,15.62.36,7.73.31,15.47.21,23.21-.24,20.03-1.02,40.04-1.7,60.06-.3,8.95-.6,17.9-.79,26.85-.13,5.9-.3,11.84,0,17.74.04.78.09,1.55.18,2.32.24,2.06,1.53,3.69,3.75,3.75,18.27.53,36.53,1.09,54.81,1.16,23.38.09,46.73-.97,70.1-1.19,6.85-.06,13.71-.03,20.56.02,2,.02,3.79-1.73,3.75-3.75-.48-22.44-1.5-44.87-2.16-67.3-.33-11.25-.57-22.51-.6-33.77-.03-10.16.25-20.29.47-30.44.18-8.23-.03-16.48-.05-24.72-.03-13.94,0-27.88.25-41.82.23-12.54.48-25.14,1.72-37.62.11-1.1.23-2.21.37-3.31.25-2.04-1.92-3.72-3.75-3.75-19.14-.32-38.3.42-57.44.81-9.78.2-19.58.45-29.37.27-7.76-.14-15.52-.3-23.28-.45-11.49-.22-22.99-.44-34.48-.63-1.96-.03-3.84,1.75-3.75,3.75s1.65,3.71,3.75,3.75h0Z"/>
    <polygon class="cls-12" points="26.61 14.43 14.5 29.16 14.18 13.04 26.61 14.43"/>
    <polygon class="cls-12" points="140.79 14.16 152.35 27.66 154.57 11.89 140.79 14.16"/>
    <polygon class="cls-12" points="139.48 248.15 153.14 235.93 156.07 248.65 139.48 248.15"/>
    <polygon class="cls-12" points="12.9 235.54 26.24 248.54 12.31 249.36 12.9 235.54"/>
    <rect class="cls-12" width="10.32" height="260.79"/>
    <rect class="cls-12" y="249.36" width="167.24" height="11.43"/>
    <rect class="cls-16" width="167.24" height="10.33"/>
    <rect class="cls-12" x="156.12" width="11.13" height="260.79"/>
    <path class="cls-12" d="M122.85,17.19c0-.85.35-3.85,0-4.78-.94-2.49-3.57-2.81-6.15-2.81H50.54c-2.58,0-5.21.32-6.15,2.81-.35.93,0,3.93,0,4.78l-.28,5.71c-.56,5.31,8.78,4.59,12.32,4.59l20.37.37,6.82-.07h0l6.82.07,20.37-.37c3.54,0,12.88.72,12.32-4.59l-.28-5.71Z"/>
  </g>
  <g id="Kategorie_Name" data-name="Kategorie Name">
    <text class="cls-14" transform="translate(48.55 22.56) scale(1 1.09)"><tspan x="0" y="0">Wahrheit</tspan></text>
  </g>
  <g id="Schlücke">
    <text class="cls-7" transform="translate(4.25 252.82)"><tspan x="0" y="0">+4</tspan></text>
    <text class="cls-7" transform="translate(147.52 19.77)"><tspan x="0" y="0">+4</tspan></text>
  </g>
  <g id="Motive">
    <g id="b0GIRw">
      <g>
        <path class="cls-12" d="M64.08,90.79c2.38-.38,2.27,2.26,2.79,3.82,2.52,7.58,8.89,12.98,16.81,14.15,1.03.15,2.58-.03,3.39.54.9.63.88,1.82,1.29,2.78,2.4,5.65,6.08,11.96,8.96,17.49,1.28,2.45,3.03,5.17,4.13,7.65.57,1.28.03,2.11-1.36,2.24-.98.09-3.11.1-4.07,0-1.71-.19-1.67-1.21-2.27-2.38-3.08-5.97-7.14-5.22-13.12-5.33-4.23-.08-9.12.37-13.24.01-1.97-.17-2.69-1.1-2.81-3-.04-.68,0-1.58-.02-2.3-.03-1.48.25-4.09,0-5.38-.21-1.11-2.22-1.23-2.46.3-.26,1.67-.16,6.34-.01,8.14.2,2.56,1.9,4.36,4.44,4.72,6.39.38,13.45-.36,19.77.14,4.87.39,7.35,5.89,4.14,9.68-1.95,2.3-3.81,1.84-6.48,1.95-6.31.28-12.84.32-19.18.16-6.95-.18-12.18-.9-13.98-8.69.11-9.35-.76-19.44-.19-28.75.43-6.89,4.72-13.47,10.76-16.71.6-.32,2.13-1.1,2.73-1.2Z"/>
        <path class="cls-12" d="M88.06,106.27c-.22.19-1.79.2-2.21.18-11.03-.56-18.81-10.2-17.21-21.13.44-2.97,1.84-7.76,3.29-10.37,6.56-11.71,23.66-12.24,30.89-.91,4.21,6.6,3.25,13.08.81,20.12-.88,2.55-2.34,5.03-4.32,6.88-4.62-1.75-9.75.48-11.27,5.22Z"/>
        <path class="cls-12" d="M119.29,143.76c-2.69,2.77-7.22,3.11-10.25.69-2.37-1.88-6.17-9.83-7.79-12.85-2.62-4.9-5.21-9.86-7.71-14.82-.95-1.9-3.36-6.01-3.38-7.93-.04-5.64,7.38-8.11,10.7-3.32l9.9,17.82c.47.59,1.67.53,2.05-.1.44-.74-.06-1.48-.37-2.12-2.63-5.39-6.2-11.25-9.21-16.52-.35-.61-1.13-1.34-1.18-2.03-.07-.95,1.53-2.65,2.09-3.56,1.36-2.21,2.03-4.47,2.81-6.93,1.14-1.5,2.74-.44,4,.28,3.96,2.26,7.27,6.38,8.82,10.65,1.89,5.19,1.18,10.74,1.21,16.16.04,6.34.37,13,.09,19.32-.09,2.02-.32,3.73-1.79,5.24Z"/>
        <path class="cls-12" d="M55.94,59.98c3.48-.5,6.29,2.83,8.06,5.38.46.66,2.4,3.67,2.44,4.26.12,1.91-2.42.17-3.1-.11-2.43-1-4.61-1.09-6.86-1.86-3.68-1.26-5.03-7.02-.54-7.67Z"/>
        <path class="cls-12" d="M60.44,78.07c-.26.25-1.75.66-2.24.89-2.77,1.29-5.66,4.29-8.66,3.91-4.9-.63-4.4-5.98-.04-7.38,2.46-.79,8.16-.23,10.54.81.71.31.95,1.23.4,1.78Z"/>
      </g>
    </g>
  </g>
  <g id="Kategorien">
    <g>
      <path class="cls-13" d="M16.88,11.24c-.78-.5-1.64-.67-2.56-.59-1.24.1-2.47.91-3.06,2-.13.23-.13.29.07.48.23.22.95.76,1.22.92.13.07.25.12.39.05.49-.52.81-1.14,1.61-1.2.66-.05,1.55.34,1.31,1.14-.15.5-.67.63-1.07.86-.58.35-1.31,1.02-1.37,1.73-.01.14-.02.52,0,.64.03.16.19.21.33.22.39.03,1.51.05,1.87,0,.3-.05.23-.25.3-.46.22-.67.92-.87,1.42-1.25,1.71-1.3,1.2-3.47-.46-4.54Z"/>
      <rect class="cls-13" x="13.41" y="18.19" width="2.49" height="2.49" rx=".42" ry=".42"/>
    </g>
    <g>
      <path class="cls-13" d="M153.52,243.89c-.78-.5-1.64-.67-2.56-.59-1.24.1-2.47.91-3.06,2-.13.23-.13.29.07.48.23.22.95.76,1.22.92.13.07.25.12.39.05.49-.52.81-1.14,1.61-1.2.66-.05,1.55.34,1.31,1.14-.15.5-.67.63-1.07.86-.58.35-1.31,1.02-1.37,1.73-.01.14-.02.52,0,.64.03.16.19.21.33.22.39.03,1.51.05,1.87,0,.3-.05.23-.25.3-.46.22-.67.92-.87,1.42-1.25,1.71-1.3,1.2-3.47-.46-4.54Z"/>
      <rect class="cls-13" x="150.05" y="250.83" width="2.49" height="2.49" rx=".42" ry=".42"/>
    </g>
  </g>
  <g id="Text_Karte" data-name="Text Karte">
    <g>
      <g class="cls-18">
        <text class="cls-3" transform="translate(24.93 179.29)"><tspan x="0" y="0">W</tspan></text>
        <text class="cls-5" transform="translate(35.05 179.29)"><tspan x="0" y="0">as w</tspan></text>
        <text class="cls-5" transform="translate(56.77 179.29)"><tspan x="0" y="0">ar das Peinlichs</tspan></text>
        <text class="cls-4" transform="translate(130.83 179.29)"><tspan x="0" y="0">te</tspan></text>
        <text class="cls-3" transform="translate(140.02 179.29)"><tspan x="0" y="0">, </tspan></text>
      </g>
      <text class="cls-11" transform="translate(24.93 179.29)"><tspan x="0" y="0">W</tspan></text>
      <text class="cls-9" transform="translate(35.05 179.29)"><tspan x="0" y="0">as w</tspan></text>
      <text class="cls-9" transform="translate(56.77 179.29)"><tspan x="0" y="0">ar das Peinlichs</tspan></text>
      <text class="cls-10" transform="translate(130.83 179.29)"><tspan x="0" y="0">te</tspan></text>
      <text class="cls-11" transform="translate(140.02 179.29)"><tspan x="0" y="0">, </tspan></text>
      <g class="cls-15">
        <text class="cls-5" transform="translate(31.47 191.28)"><tspan x="0" y="0">das dir je passie</tspan></text>
        <text class="cls-2" transform="translate(108.38 191.28)"><tspan x="0" y="0">rt is</tspan></text>
        <text class="cls-5" transform="translate(126.64 191.28)"><tspan x="0" y="0">t?</tspan></text>
      </g>
      <text class="cls-9" transform="translate(31.47 191.28)"><tspan x="0" y="0">das dir je passie</tspan></text>
      <text class="cls-8" transform="translate(108.37 191.28)"><tspan x="0" y="0">rt is</tspan></text>
      <text class="cls-9" transform="translate(126.64 191.28)"><tspan x="0" y="0">t?</tspan></text>
    </g>
  </g>
</svg>