<?xml version="1.0" encoding="UTF-8"?>
<svg xmlns="http://www.w3.org/2000/svg" xmlns:xlink="http://www.w3.org/1999/xlink" viewBox="0 0 167.24 260.79">
  <defs>
    <style>
      .cls-1, .cls-2, .cls-3, .cls-4, .cls-5, .cls-6, .cls-7, .cls-8, .cls-9, .cls-10, .cls-11 {
        fill: none;
      }

      .cls-12 {
        fill: #010101;
      }

      .cls-2, .cls-3, .cls-13, .cls-4, .cls-5, .cls-6, .cls-7, .cls-8, .cls-9, .cls-10, .cls-11 {
        stroke: #fff;
      }

      .cls-2, .cls-3, .cls-4, .cls-5, .cls-6, .cls-7, .cls-14, .cls-15, .cls-16, .cls-8, .cls-17, .cls-18, .cls-19, .cls-20, .cls-21, .cls-22, .cls-9, .cls-10, .cls-23, .cls-11 {
        font-family: QuicksandBold-Regular, Quicksand;
        font-size: 10px;
      }

      .cls-2, .cls-18 {
        letter-spacing: -.02em;
      }

      .cls-24 {
        fill: #171717;
      }

      .cls-13 {
        font-size: 12px;
        stroke-miterlimit: 10;
        stroke-width: .15px;
      }

      .cls-13, .cls-25, .cls-14, .cls-15, .cls-16, .cls-17, .cls-18, .cls-19, .cls-20, .cls-21, .cls-22, .cls-23 {
        fill: #fff;
      }

      .cls-13, .cls-26 {
        font-family: Namaku, Namaku;
      }

      .cls-4, .cls-17 {
        letter-spacing: -.02em;
      }

      .cls-5, .cls-21 {
        letter-spacing: -.06em;
      }

      .cls-27 {
        clip-path: url(#clippath-1);
      }

      .cls-28 {
        clip-path: url(#clippath-2);
      }

      .cls-6, .cls-14 {
        letter-spacing: -.05em;
      }

      .cls-7, .cls-19 {
        letter-spacing: -.02em;
      }

      .cls-15, .cls-10 {
        letter-spacing: -.03em;
      }

      .cls-16, .cls-9 {
        letter-spacing: -.04em;
      }

      .cls-8, .cls-22 {
        letter-spacing: -.09em;
      }

      .cls-29 {
        fill: #171715;
      }

      .cls-20, .cls-11 {
        letter-spacing: -.02em;
      }

      .cls-26 {
        font-size: 15px;
      }

      .cls-26, .cls-30 {
        fill: #0a90ce;
      }

      .cls-31 {
        clip-path: url(#clippath);
      }
    </style>
    <clipPath id="clippath">
      <rect class="cls-1" x="0" y="0" width="167.24" height="260.79"/>
    </clipPath>
    <clipPath id="clippath-1">
      <rect class="cls-1" x="0" y="0" width="167.24" height="260.79"/>
    </clipPath>
    <clipPath id="clippath-2">
      <rect class="cls-1" x="0" y="0" width="167.24" height="260.79"/>
    </clipPath>
  </defs>
  <g id="Background">
    <rect class="cls-30" width="167.24" height="260.79"/>
  </g>
  <g id="Rahmen">
    <path class="cls-12" d="M151.9,23.16c9.65,0,9.67-15,0-15s-9.67,15,0,15h0Z"/>
    <path class="cls-12" d="M152.22,254.59c9.65,0,9.67-15,0-15s-9.67,15,0,15h0Z"/>
    <path class="cls-12" d="M14.14,254.72c9.65,0,9.67-15,0-15s-9.67,15,0,15h0Z"/>
    <path class="cls-24" d="M11.56,15.67c18.49.32,36.98.69,55.46,1.04,19.51.36,39.05-.42,58.56-.82,10.18-.21,20.36-.38,30.54-.21l-3.75-3.75c-1.46,11.81-1.7,23.8-1.97,35.69-.33,14.15-.39,28.31-.37,42.46.01,9.3.14,18.61.07,27.91-.06,7.86-.43,15.71-.48,23.57-.07,11.29.08,22.59.37,33.88.56,22.38,1.59,44.74,2.18,67.12.07,2.79.14,5.57.2,8.36l3.75-3.75c-15.41-.13-30.81.06-46.22.48-24.85.69-49.67.84-74.52.24-8.25-.2-16.49-.49-24.74-.73l3.75,3.75c-.56-4.87-.34-9.89-.27-14.78.11-8.38.38-16.76.66-25.14.66-20.11,1.45-40.22,1.83-60.34.16-8.4.26-16.81.05-25.21-.13-5.24-.51-10.46-.61-15.7-.33-17.03-.19-34.08-.18-51.11,0-8.91,0-17.82-.06-26.73-.04-5.94-.04-11.89-.34-17.82-.04-.72-.08-1.43-.15-2.15-.19-1.95-1.59-3.85-3.75-3.75-1.87.08-3.96,1.66-3.75,3.75.48,4.83.39,9.76.44,14.61.09,8.42.1,16.84.11,25.25,0,17.78-.1,35.55.11,53.33.06,5.22.27,10.41.52,15.62.36,7.73.31,15.47.21,23.21-.24,20.03-1.02,40.04-1.7,60.06-.3,8.95-.6,17.9-.79,26.85-.13,5.9-.3,11.84,0,17.74.04.78.09,1.55.18,2.32.24,2.06,1.53,3.69,3.75,3.75,18.27.53,36.53,1.09,54.81,1.16,23.38.09,46.73-.97,70.1-1.19,6.85-.06,13.71-.03,20.56.02,2,.02,3.79-1.73,3.75-3.75-.48-22.44-1.5-44.87-2.16-67.3-.33-11.25-.57-22.51-.6-33.77-.03-10.16.25-20.29.47-30.44.18-8.23-.03-16.48-.05-24.72-.03-13.94,0-27.88.25-41.82.23-12.54.48-25.14,1.72-37.62.11-1.1.23-2.21.37-3.31.25-2.04-1.92-3.72-3.75-3.75-19.14-.32-38.3.42-57.44.81-9.78.2-19.58.45-29.37.27-7.76-.14-15.52-.3-23.28-.45-11.49-.22-22.99-.44-34.48-.63-1.96-.03-3.84,1.75-3.75,3.75s1.65,3.71,3.75,3.75h0Z"/>
    <polygon class="cls-24" points="26.61 14.43 14.5 29.16 14.18 13.04 26.61 14.43"/>
    <polygon class="cls-24" points="140.79 14.16 152.35 27.66 154.57 11.89 140.79 14.16"/>
    <polygon class="cls-24" points="139.48 248.15 153.14 235.93 156.07 248.65 139.48 248.15"/>
    <polygon class="cls-24" points="12.9 235.54 26.24 248.54 12.31 249.36 12.9 235.54"/>
    <rect class="cls-24" width="10.32" height="260.79"/>
    <rect class="cls-24" y="249.36" width="167.24" height="11.43"/>
    <rect class="cls-29" width="167.24" height="10.33"/>
    <rect class="cls-24" x="156.12" width="11.13" height="260.79"/>
    <path class="cls-24" d="M122.85,17.19c0-.85.35-3.85,0-4.78-.94-2.49-3.57-2.81-6.15-2.81H50.54c-2.58,0-5.21.32-6.15,2.81-.35.93,0,3.93,0,4.78l-.28,5.71c-.56,5.31,8.78,4.59,12.32,4.59l20.37.37,6.82-.07h0l6.82.07,20.37-.37c3.54,0,12.88.72,12.32-4.59l-.28-5.71Z"/>
  </g>
  <g id="Kategorie_Name" data-name="Kategorie Name">
    <text class="cls-26" transform="translate(48.55 22.56) scale(1 1.09)"><tspan x="0" y="0">Wahrheit</tspan></text>
  </g>
  <g id="Schlücke">
    <text class="cls-13" transform="translate(4.4 252.82)"><tspan x="0" y="0">+3</tspan></text>
    <text class="cls-13" transform="translate(147.68 19.77)"><tspan x="0" y="0">+3</tspan></text>
  </g>
  <g id="Motive">
    <g>
      <path class="cls-24" d="M53.57,99.69l-5.94,4.39c-1.12.83-2.67.72-3.67-.25l-7.9-7.67c-1.07-1.04-1.15-2.74-.18-3.88l12.52-14.68c.34-.39.77-.69,1.26-.85l16.45-5.49c1.43-.48,2.95.25,3.53,1.64,2.21,5.32,9.41,7.61,14.88,7.34,4.95-.24,11.11-2.54,13.03-7.33.55-1.37,2.01-2.13,3.42-1.67,2.82.92,5.64,1.82,8.45,2.76s5.31,1.83,8.03,2.71c.5.16.94.45,1.28.85l12.6,14.73c.97,1.14.89,2.84-.18,3.88l-7.86,7.63c-1.01.99-2.6,1.07-3.72.21l-5.87-4.56c-1.87-1.45-4.58-.12-4.58,2.24v51.73c0,1.57-1.27,2.84-2.84,2.84h-45.36c-1.57,0-2.84-1.27-2.84-2.84v-51.45c0-2.33-2.65-3.67-4.53-2.28Z"/>
      <path class="cls-24" d="M82.31,63.19c.23-1.04.38-1.94,1.03-2.81,1.2-1.62,3.58-1.81,3.69-4.3.16-3.79-5.11-4.93-6.49-1.66-.41.97-.11,2.69-1.57,2.65-2.44-.07-.5-4.32.54-5.34,5.68-5.63,14.2,3.67,7.59,8.79-.98.76-2.23.95-2.27,2.57,1.28.43,2.52.52,3.8,1.02,1.73.67,3.37,1.85,4.64,3.19.34.36,2.39,2.73,2.45,2.98.1.39-.01.67-.1,1.04-.58,2.52-1.1,1.24-2.58.43-6.15-3.39-12.79-3.35-18.92.05-.36.2-1.57,1.2-1.86,1.02-.41-.68-.95-1.9-.72-2.69,2.8-3.64,5.97-6.48,10.78-6.91Z"/>
      <path class="cls-24" d="M74.06,74.96c-.06-.32.21-.41.4-.57.51-.41,1.69-1.02,2.31-1.3,5.36-2.39,11.69-1.87,16.4,1.65-5.35,4.21-13.57,3.96-19.12.22Z"/>
    </g>
  </g>
  <g id="Kategorien">
    <g>
      <path class="cls-25" d="M16.88,11.24c-.78-.5-1.64-.67-2.56-.59-1.24.1-2.47.91-3.06,2-.13.23-.13.29.07.48.23.22.95.76,1.22.92.13.07.25.12.39.05.49-.52.81-1.14,1.61-1.2.66-.05,1.55.34,1.31,1.14-.15.5-.67.63-1.07.86-.58.35-1.31,1.02-1.37,1.73-.01.14-.02.52,0,.64.03.16.19.21.33.22.39.03,1.51.05,1.87,0,.3-.05.23-.25.3-.46.22-.67.92-.87,1.42-1.25,1.71-1.3,1.2-3.47-.46-4.54Z"/>
      <rect class="cls-25" x="13.41" y="18.19" width="2.49" height="2.49" rx=".42" ry=".42"/>
    </g>
    <g>
      <path class="cls-25" d="M153.52,243.89c-.78-.5-1.64-.67-2.56-.59-1.24.1-2.47.91-3.06,2-.13.23-.13.29.07.48.23.22.95.76,1.22.92.13.07.25.12.39.05.49-.52.81-1.14,1.61-1.2.66-.05,1.55.34,1.31,1.14-.15.5-.67.63-1.07.86-.58.35-1.31,1.02-1.37,1.73-.01.14-.02.52,0,.64.03.16.19.21.33.22.39.03,1.51.05,1.87,0,.3-.05.23-.25.3-.46.22-.67.92-.87,1.42-1.25,1.71-1.3,1.2-3.47-.46-4.54Z"/>
      <rect class="cls-25" x="150.05" y="250.83" width="2.49" height="2.49" rx=".42" ry=".42"/>
    </g>
  </g>
  <g id="Text_Karte" data-name="Text Karte">
    <g>
      <g class="cls-31">
        <text class="cls-8" transform="translate(53.61 179.29)"><tspan x="0" y="0">We</tspan></text>
        <text class="cls-11" transform="translate(69.46 179.29)"><tspan x="0" y="0">r h</tspan></text>
        <text class="cls-2" transform="translate(82.78 179.29)"><tspan x="0" y="0">at </tspan></text>
        <text class="cls-10" transform="translate(95.37 179.29)"><tspan x="0" y="0">de</tspan></text>
        <text class="cls-3" transform="translate(107.51 179.29)"><tspan x="0" y="0">n </tspan></text>
      </g>
      <text class="cls-22" transform="translate(53.61 179.29)"><tspan x="0" y="0">We</tspan></text>
      <text class="cls-20" transform="translate(69.46 179.29)"><tspan x="0" y="0">r h</tspan></text>
      <text class="cls-18" transform="translate(82.78 179.29)"><tspan x="0" y="0">at </tspan></text>
      <text class="cls-15" transform="translate(95.37 179.29)"><tspan x="0" y="0">de</tspan></text>
      <text class="cls-23" transform="translate(107.51 179.29)"><tspan x="0" y="0">n </tspan></text>
      <g class="cls-27">
        <text class="cls-11" transform="translate(27.48 191.28)"><tspan x="0" y="0">schl</tspan></text>
        <text class="cls-7" transform="translate(46.38 191.28)"><tspan x="0" y="0">echt</tspan></text>
        <text class="cls-7" transform="translate(67.12 191.28)"><tspan x="0" y="0">es</tspan></text>
        <text class="cls-3" transform="translate(77.87 191.28)"><tspan x="0" y="0">t</tspan></text>
        <text class="cls-4" transform="translate(81.27 191.28)"><tspan x="0" y="0">en St</tspan></text>
        <text class="cls-6" transform="translate(106.11 191.28)"><tspan x="0" y="0">yl</tspan></text>
        <text class="cls-11" transform="translate(114.23 191.28)"><tspan x="0" y="0">e au</tspan></text>
        <text class="cls-3" transform="translate(134.84 191.28)"><tspan x="0" y="0">s </tspan></text>
      </g>
      <text class="cls-20" transform="translate(27.48 191.28)"><tspan x="0" y="0">schl</tspan></text>
      <text class="cls-19" transform="translate(46.38 191.28)"><tspan x="0" y="0">echt</tspan></text>
      <text class="cls-19" transform="translate(67.12 191.28)"><tspan x="0" y="0">es</tspan></text>
      <text class="cls-23" transform="translate(77.87 191.28)"><tspan x="0" y="0">t</tspan></text>
      <text class="cls-17" transform="translate(81.27 191.28)"><tspan x="0" y="0">en St</tspan></text>
      <text class="cls-14" transform="translate(106.11 191.28)"><tspan x="0" y="0">yl</tspan></text>
      <text class="cls-20" transform="translate(114.23 191.28)"><tspan x="0" y="0">e aus</tspan></text>
      <text class="cls-23" transform="translate(139.76 191.28)"><tspan x="0" y="0"> </tspan></text>
      <g class="cls-28">
        <text class="cls-9" transform="translate(53.37 203.28)"><tspan x="0" y="0">de</tspan></text>
        <text class="cls-11" transform="translate(65.3 203.28)"><tspan x="0" y="0">r Grupp</tspan></text>
        <text class="cls-5" transform="translate(103.05 203.28)"><tspan x="0" y="0">e?</tspan></text>
      </g>
      <text class="cls-16" transform="translate(53.37 203.28)"><tspan x="0" y="0">de</tspan></text>
      <text class="cls-20" transform="translate(65.3 203.28)"><tspan x="0" y="0">r Grupp</tspan></text>
      <text class="cls-21" transform="translate(103.05 203.28)"><tspan x="0" y="0">e?</tspan></text>
    </g>
  </g>
</svg>