<?xml version="1.0" encoding="UTF-8"?>
<svg xmlns="http://www.w3.org/2000/svg" xmlns:xlink="http://www.w3.org/1999/xlink" viewBox="0 0 167.24 260.79">
  <defs>
    <style>
      .cls-1, .cls-2, .cls-3, .cls-4 {
        fill: none;
      }

      .cls-5 {
        fill: #010101;
      }

      .cls-2, .cls-6, .cls-3, .cls-4 {
        stroke: #fff;
      }

      .cls-2, .cls-3, .cls-7, .cls-8, .cls-9, .cls-4 {
        font-family: QuicksandBold-Regular, Quicksand;
        font-size: 10px;
      }

      .cls-10 {
        fill: #171717;
      }

      .cls-6 {
        font-size: 12px;
        stroke-miterlimit: 10;
        stroke-width: .15px;
      }

      .cls-6, .cls-11, .cls-7, .cls-8, .cls-9 {
        fill: #fff;
      }

      .cls-6, .cls-12 {
        font-family: Namaku, Namaku;
      }

      .cls-13 {
        clip-path: url(#clippath-1);
      }

      .cls-14 {
        clip-path: url(#clippath-2);
      }

      .cls-3, .cls-7 {
        letter-spacing: -.02em;
      }

      .cls-15 {
        fill: #171715;
      }

      .cls-8, .cls-4 {
        letter-spacing: -.02em;
      }

      .cls-12 {
        font-size: 15px;
      }

      .cls-12, .cls-16 {
        fill: #0a90ce;
      }

      .cls-17 {
        clip-path: url(#clippath);
      }
    </style>
    <clipPath id="clippath">
      <rect class="cls-1" x="0" y="0" width="167.24" height="260.79"/>
    </clipPath>
    <clipPath id="clippath-1">
      <rect class="cls-1" x="0" y="0" width="167.24" height="260.79"/>
    </clipPath>
    <clipPath id="clippath-2">
      <rect class="cls-1" x="0" y="0" width="167.24" height="260.79"/>
    </clipPath>
  </defs>
  <g id="Background">
    <rect class="cls-16" width="167.24" height="260.79"/>
  </g>
  <g id="Rahmen">
    <path class="cls-5" d="M151.9,23.16c9.65,0,9.67-15,0-15s-9.67,15,0,15h0Z"/>
    <path class="cls-5" d="M152.22,254.59c9.65,0,9.67-15,0-15s-9.67,15,0,15h0Z"/>
    <path class="cls-5" d="M14.14,254.72c9.65,0,9.67-15,0-15s-9.67,15,0,15h0Z"/>
    <path class="cls-10" d="M11.56,15.67c18.49.32,36.98.69,55.46,1.04,19.51.36,39.05-.42,58.56-.82,10.18-.21,20.36-.38,30.54-.21l-3.75-3.75c-1.46,11.81-1.7,23.8-1.97,35.69-.33,14.15-.39,28.31-.37,42.46.01,9.3.14,18.61.07,27.91-.06,7.86-.43,15.71-.48,23.57-.07,11.29.08,22.59.37,33.88.56,22.38,1.59,44.74,2.18,67.12.07,2.79.14,5.57.2,8.36l3.75-3.75c-15.41-.13-30.81.06-46.22.48-24.85.69-49.67.84-74.52.24-8.25-.2-16.49-.49-24.74-.73l3.75,3.75c-.56-4.87-.34-9.89-.27-14.78.11-8.38.38-16.76.66-25.14.66-20.11,1.45-40.22,1.83-60.34.16-8.4.26-16.81.05-25.21-.13-5.24-.51-10.46-.61-15.7-.33-17.03-.19-34.08-.18-51.11,0-8.91,0-17.82-.06-26.73-.04-5.94-.04-11.89-.34-17.82-.04-.72-.08-1.43-.15-2.15-.19-1.95-1.59-3.85-3.75-3.75-1.87.08-3.96,1.66-3.75,3.75.48,4.83.39,9.76.44,14.61.09,8.42.1,16.84.11,25.25,0,17.78-.1,35.55.11,53.33.06,5.22.27,10.41.52,15.62.36,7.73.31,15.47.21,23.21-.24,20.03-1.02,40.04-1.7,60.06-.3,8.95-.6,17.9-.79,26.85-.13,5.9-.3,11.84,0,17.74.04.78.09,1.55.18,2.32.24,2.06,1.53,3.69,3.75,3.75,18.27.53,36.53,1.09,54.81,1.16,23.38.09,46.73-.97,70.1-1.19,6.85-.06,13.71-.03,20.56.02,2,.02,3.79-1.73,3.75-3.75-.48-22.44-1.5-44.87-2.16-67.3-.33-11.25-.57-22.51-.6-33.77-.03-10.16.25-20.29.47-30.44.18-8.23-.03-16.48-.05-24.72-.03-13.94,0-27.88.25-41.82.23-12.54.48-25.14,1.72-37.62.11-1.1.23-2.21.37-3.31.25-2.04-1.92-3.72-3.75-3.75-19.14-.32-38.3.42-57.44.81-9.78.2-19.58.45-29.37.27-7.76-.14-15.52-.3-23.28-.45-11.49-.22-22.99-.44-34.48-.63-1.96-.03-3.84,1.75-3.75,3.75s1.65,3.71,3.75,3.75h0Z"/>
    <polygon class="cls-10" points="26.61 14.43 14.5 29.16 14.18 13.04 26.61 14.43"/>
    <polygon class="cls-10" points="140.79 14.16 152.35 27.66 154.57 11.89 140.79 14.16"/>
    <polygon class="cls-10" points="139.48 248.15 153.14 235.93 156.07 248.65 139.48 248.15"/>
    <polygon class="cls-10" points="12.9 235.54 26.24 248.54 12.31 249.36 12.9 235.54"/>
    <rect class="cls-10" width="10.32" height="260.79"/>
    <rect class="cls-10" y="249.36" width="167.24" height="11.43"/>
    <rect class="cls-15" width="167.24" height="10.33"/>
    <rect class="cls-10" x="156.12" width="11.13" height="260.79"/>
    <path class="cls-10" d="M122.85,17.19c0-.85.35-3.85,0-4.78-.94-2.49-3.57-2.81-6.15-2.81H50.54c-2.58,0-5.21.32-6.15,2.81-.35.93,0,3.93,0,4.78l-.28,5.71c-.56,5.31,8.78,4.59,12.32,4.59l20.37.37,6.82-.07h0l6.82.07,20.37-.37c3.54,0,12.88.72,12.32-4.59l-.28-5.71Z"/>
  </g>
  <g id="Kategorie_Name" data-name="Kategorie Name">
    <text class="cls-12" transform="translate(48.55 22.56) scale(1 1.09)"><tspan x="0" y="0">Wahrheit</tspan></text>
  </g>
  <g id="Schlücke">
    <text class="cls-6" transform="translate(4.4 252.82)"><tspan x="0" y="0">+3</tspan></text>
    <text class="cls-6" transform="translate(147.68 19.77)"><tspan x="0" y="0">+3</tspan></text>
  </g>
  <g id="Motive">
    <g>
      <path class="cls-10" d="M65.69,94.7h-31.78c-1.16,0-2.1.94-2.1,2.1v2.12c0,1.16.94,2.1,2.1,2.1h.22c1.16,0,2.1.94,2.1,2.1v17.43c0,1.16.93,2.1,2.09,2.1h23.1c1.16,0,2.1-.94,2.1-2.1v-17.43c0-1.16.94-2.1,2.1-2.1h.07c1.16,0,2.09-.94,2.09-2.1v-2.12c0-1.16-.93-2.1-2.09-2.1ZM53.82,116.26c-.02.06-.08.1-.17.13-.08.03-.29.05-.62.05s-.73-.01-1.2-.02c-.47-.01-.98-.02-1.53-.04-.55-.01-1.07-.03-1.57-.04-.5-.02-.95-.03-1.34-.04-.4,0-.68,0-.85,0-.03,0-.09.01-.18.02-.09,0-.18.01-.28.01-.09,0-.18-.01-.25-.04-.07-.02-.1-.06-.09-.12.01-.12.02-.34.03-.65,0-.31.01-.63.01-.97.01-.33.01-.64.02-.91,0-.28.01-.43.03-.47.03-.06.16-.15.37-.25.22-.11.48-.23.79-.36.31-.14.64-.29,1-.47s.71-.38,1.04-.6c.33-.22.62-.46.88-.72.25-.26.42-.55.51-.86.03-.11.06-.25.09-.43.02-.17.03-.35.03-.53-.01-.18-.04-.35-.09-.51-.05-.16-.12-.28-.22-.36-.12-.1-.28-.14-.47-.12-.25.02-.45.08-.6.17-.15.09-.26.2-.33.35-.07.14-.1.31-.11.5,0,.19.01.39.04.6.01.07,0,.12-.04.15-.03.03-.08.05-.13.06-.06,0-.12,0-.18,0-.07,0-.12,0-.16,0-.26-.01-.51,0-.76.02-.24.03-.5.05-.76.07-.09.01-.2.02-.34.03-.14.01-.23-.04-.27-.15,0-.01-.01-.05-.02-.13-.01-.07-.02-.15-.03-.24-.02-.09-.03-.18-.04-.26s-.02-.13-.02-.15c-.07-.7.02-1.31.27-1.83.24-.52.59-.94,1.04-1.26.45-.32.97-.53,1.57-.63.6-.1,1.22-.08,1.85.06.67.15,1.22.41,1.66.77.43.37.75.8.94,1.3.2.5.27,1.04.21,1.63-.05.58-.24,1.16-.55,1.73-.18.34-.4.65-.66.92-.27.28-.55.54-.85.78s-.61.47-.92.69c-.32.23-.62.46-.91.7.2-.01.4-.03.61-.05.21-.03.42-.05.62-.07.11-.01.3-.02.58-.04.28,0,.58-.03.88-.04.31-.02.59-.02.85-.02s.42.01.49.03c.11.04.17.11.16.23,0,.11-.01.21-.01.29-.02.31-.02.62,0,.93.01.31.02.62.02.93,0,.09-.01.17-.04.23Z"/>
      <path class="cls-10" d="M99.54,83.52h-31.78c-1.16,0-2.1.94-2.1,2.1v2.23c0,1.16.94,2.1,2.1,2.1h.17c1.15,0,2.09.94,2.09,2.09v28.47c0,1.15.94,2.09,2.1,2.09h23.09c1.16,0,2.1-.94,2.1-2.09v-28.47c0-1.15.94-2.09,2.1-2.09h.13c1.16,0,2.1-.94,2.1-2.1v-2.23c0-1.16-.94-2.1-2.1-2.1ZM86.39,98.46c.02.78,0,1.55-.06,2.3-.06.76-.11,1.52-.14,2.29-.01.17-.02.4-.03.7-.01.29-.02.62-.03.97-.01.36-.02.73-.02,1.11-.01.39-.01.75-.01,1.09s.01.64.02.91.03.47.06.6c.01.03.02.06.03.09.02.03.02.06,0,.09-.04.08-.15.15-.33.19-.18.05-.4.08-.66.09-.25.02-.52.02-.8,0-.28-.01-.54-.04-.79-.07-.24-.04-.44-.08-.6-.13-.16-.05-.25-.11-.26-.17-.02-.2-.02-.41-.01-.65.02-.23.03-.46.03-.67.02-.75.03-1.5.05-2.25.01-.75.04-1.5.07-2.25.01-.29.01-.57,0-.85v-.86c-.2.16-.41.33-.62.51s-.42.34-.64.48c-.09.06-.19.05-.3-.03-.1-.08-.21-.19-.31-.34-.11-.15-.21-.32-.31-.51s-.18-.37-.25-.55c-.07-.17-.13-.32-.17-.45-.04-.12-.05-.19-.04-.22,0-.01.06-.06.19-.15.13-.09.29-.2.48-.33.19-.14.4-.29.63-.45.23-.16.45-.31.66-.45.21-.15.39-.28.55-.39.15-.11.26-.18.31-.2.13.01.36.03.69.03.33.01.67.01,1.02.01s.68,0,.96.01c.29,0,.46.02.51.05.08.05.12.12.12.2v.25Z"/>
      <path class="cls-10" d="M133.34,103.02h-31.71c-1.16,0-2.1.94-2.1,2.1v2.28c0,1.16.94,2.09,2.1,2.09.58,0,1.1.24,1.48.62.38.38.61.9.61,1.48v8.92c0,1.15.94,2.09,2.1,2.09h23.15c1.16,0,2.1-.94,2.1-2.09v-8.92c0-1.16.94-2.1,2.1-2.1h.17c1.16,0,2.1-.93,2.1-2.09v-2.28c0-1.16-.94-2.1-2.1-2.1ZM121.11,117.22c-.27.56-.7,1.04-1.28,1.43-.58.39-1.31.64-2.19.76-.89.11-1.93,0-3.12-.34-.08-.02-.18-.04-.3-.07-.13-.03-.24-.07-.35-.12-.1-.05-.19-.12-.25-.19-.06-.08-.06-.17-.01-.29.1-.25.18-.51.25-.77.06-.26.1-.52.12-.78.01-.08.02-.18.02-.31s.04-.22.12-.27c.02-.01.1,0,.23.03.14.03.3.06.5.1.2.04.43.07.68.1.25.02.5.02.74-.01.25-.03.48-.09.7-.19.22-.1.41-.26.57-.48.1-.13.16-.27.18-.42.02-.14.01-.28-.04-.42-.04-.13-.12-.25-.22-.37-.11-.1-.24-.19-.39-.25-.12-.04-.25-.06-.4-.07-.15-.01-.3-.01-.46,0-.15.02-.31.04-.46.06-.15.02-.29.03-.42.04h-.18c-.08,0-.13-.03-.15-.1.05-.26.1-.58.14-.96.04-.37.04-.69,0-.95.03-.05.17-.09.41-.11.25-.03.52-.07.81-.14.3-.06.57-.17.82-.31.25-.15.4-.36.45-.64.04-.22-.02-.42-.17-.59-.15-.18-.32-.29-.52-.35-.26-.08-.56-.07-.91.03-.34.1-.67.2-.99.3-.31.11-.58.17-.8.2-.22.02-.33-.07-.33-.29v-1.05c0-.22,0-.43.01-.61,0-.19.01-.3.03-.34.05-.11.14-.18.26-.22.98-.34,1.86-.5,2.65-.48.78.02,1.45.15,2.01.41.56.25,1.01.59,1.34,1.02.33.42.53.87.59,1.35.07.47-.01.94-.22,1.39-.22.46-.59.84-1.11,1.15.63.16,1.12.47,1.45.92.34.46.52.96.55,1.52.03.55-.09,1.11-.36,1.68Z"/>
    </g>
  </g>
  <g id="Kategorien">
    <g>
      <path class="cls-11" d="M16.88,11.24c-.78-.5-1.64-.67-2.56-.59-1.24.1-2.47.91-3.06,2-.13.23-.13.29.07.48.23.22.95.76,1.22.92.13.07.25.12.39.05.49-.52.81-1.14,1.61-1.2.66-.05,1.55.34,1.31,1.14-.15.5-.67.63-1.07.86-.58.35-1.31,1.02-1.37,1.73-.01.14-.02.52,0,.64.03.16.19.21.33.22.39.03,1.51.05,1.87,0,.3-.05.23-.25.3-.46.22-.67.92-.87,1.42-1.25,1.71-1.3,1.2-3.47-.46-4.54Z"/>
      <rect class="cls-11" x="13.41" y="18.19" width="2.49" height="2.49" rx=".42" ry=".42"/>
    </g>
    <g>
      <path class="cls-11" d="M153.52,243.89c-.78-.5-1.64-.67-2.56-.59-1.24.1-2.47.91-3.06,2-.13.23-.13.29.07.48.23.22.95.76,1.22.92.13.07.25.12.39.05.49-.52.81-1.14,1.61-1.2.66-.05,1.55.34,1.31,1.14-.15.5-.67.63-1.07.86-.58.35-1.31,1.02-1.37,1.73-.01.14-.02.52,0,.64.03.16.19.21.33.22.39.03,1.51.05,1.87,0,.3-.05.23-.25.3-.46.22-.67.92-.87,1.42-1.25,1.71-1.3,1.2-3.47-.46-4.54Z"/>
      <rect class="cls-11" x="150.05" y="250.83" width="2.49" height="2.49" rx=".42" ry=".42"/>
    </g>
  </g>
  <g id="Text_Karte" data-name="Text Karte">
    <g>
      <g class="cls-17">
        <text class="cls-4" transform="translate(26.11 179.29)"><tspan x="0" y="0">Rank</tspan></text>
        <text class="cls-3" transform="translate(49.13 179.29)"><tspan x="0" y="0">e d</tspan></text>
        <text class="cls-3" transform="translate(64.07 179.29)"><tspan x="0" y="0">eine Se</tspan></text>
        <text class="cls-4" transform="translate(99.25 179.29)"><tspan x="0" y="0">xpartne</tspan></text>
        <text class="cls-2" transform="translate(136.74 179.29)"><tspan x="0" y="0">r </tspan></text>
      </g>
      <text class="cls-8" transform="translate(26.11 179.29)"><tspan x="0" y="0">Rank</tspan></text>
      <text class="cls-7" transform="translate(49.13 179.29)"><tspan x="0" y="0">e d</tspan></text>
      <text class="cls-7" transform="translate(64.07 179.29)"><tspan x="0" y="0">eine Se</tspan></text>
      <text class="cls-8" transform="translate(99.25 179.29)"><tspan x="0" y="0">xpartne</tspan></text>
      <text class="cls-9" transform="translate(136.74 179.29)"><tspan x="0" y="0">r </tspan></text>
      <g class="cls-13">
        <text class="cls-2" transform="translate(43.9 191.28)"><tspan x="0" y="0">v</tspan></text>
        <text class="cls-4" transform="translate(49.23 191.28)"><tspan x="0" y="0">om bes</tspan></text>
        <text class="cls-2" transform="translate(84.54 191.28)"><tspan x="0" y="0">t</tspan></text>
        <text class="cls-4" transform="translate(87.94 191.28)"><tspan x="0" y="0">en zum</tspan></text>
        <text class="cls-2" transform="translate(123.34 191.28)"><tspan x="0" y="0"> </tspan></text>
      </g>
      <text class="cls-9" transform="translate(43.9 191.28)"><tspan x="0" y="0">v</tspan></text>
      <text class="cls-8" transform="translate(49.23 191.28)"><tspan x="0" y="0">om bes</tspan></text>
      <text class="cls-9" transform="translate(84.54 191.28)"><tspan x="0" y="0">t</tspan></text>
      <text class="cls-8" transform="translate(87.94 191.28)"><tspan x="0" y="0">en zum</tspan></text>
      <text class="cls-9" transform="translate(123.34 191.28)"><tspan x="0" y="0"> </tspan></text>
      <g class="cls-14">
        <text class="cls-4" transform="translate(49.67 203.28)"><tspan x="0" y="0">schl</tspan></text>
        <text class="cls-3" transform="translate(68.57 203.28)"><tspan x="0" y="0">echt</tspan></text>
        <text class="cls-4" transform="translate(89.3 203.28)"><tspan x="0" y="0">es</tspan></text>
        <text class="cls-2" transform="translate(100.06 203.28)"><tspan x="0" y="0">t</tspan></text>
        <text class="cls-4" transform="translate(103.45 203.28)"><tspan x="0" y="0">en.</tspan></text>
      </g>
      <text class="cls-8" transform="translate(49.67 203.28)"><tspan x="0" y="0">schl</tspan></text>
      <text class="cls-7" transform="translate(68.57 203.28)"><tspan x="0" y="0">echt</tspan></text>
      <text class="cls-8" transform="translate(89.3 203.28)"><tspan x="0" y="0">es</tspan></text>
      <text class="cls-9" transform="translate(100.06 203.28)"><tspan x="0" y="0">t</tspan></text>
      <text class="cls-8" transform="translate(103.45 203.28)"><tspan x="0" y="0">en.</tspan></text>
    </g>
  </g>
</svg>