<?xml version="1.0" encoding="UTF-8"?>
<svg xmlns="http://www.w3.org/2000/svg" xmlns:xlink="http://www.w3.org/1999/xlink" viewBox="0 0 167.24 260.79">
  <defs>
    <style>
      .cls-1, .cls-2, .cls-3, .cls-4 {
        fill: none;
      }

      .cls-5 {
        fill: #010101;
      }

      .cls-2, .cls-6, .cls-3, .cls-4 {
        stroke: #fff;
      }

      .cls-2, .cls-3, .cls-7, .cls-8, .cls-9, .cls-4 {
        font-family: QuicksandBold-Regular, Quicksand;
        font-size: 10px;
      }

      .cls-10 {
        fill: #171717;
      }

      .cls-6 {
        font-size: 12px;
        stroke-miterlimit: 10;
        stroke-width: .15px;
      }

      .cls-6, .cls-11, .cls-7, .cls-8, .cls-9 {
        fill: #fff;
      }

      .cls-6, .cls-12 {
        font-family: Namaku, Namaku;
      }

      .cls-13 {
        clip-path: url(#clippath-1);
      }

      .cls-3, .cls-7 {
        letter-spacing: -.02em;
      }

      .cls-14 {
        fill: #171715;
      }

      .cls-8, .cls-4 {
        letter-spacing: -.02em;
      }

      .cls-12 {
        font-size: 15px;
      }

      .cls-12, .cls-15 {
        fill: #0a90ce;
      }

      .cls-16 {
        clip-path: url(#clippath);
      }
    </style>
    <clipPath id="clippath">
      <rect class="cls-1" x="0" y="0" width="167.24" height="260.79"/>
    </clipPath>
    <clipPath id="clippath-1">
      <rect class="cls-1" x="0" y="0" width="167.24" height="260.79"/>
    </clipPath>
  </defs>
  <g id="Background">
    <rect class="cls-15" width="167.24" height="260.79"/>
    <rect class="cls-15" width="167.24" height="260.79"/>
  </g>
  <g id="Rahmen">
    <path class="cls-5" d="M151.9,23.16c9.65,0,9.67-15,0-15s-9.67,15,0,15h0Z"/>
    <path class="cls-5" d="M152.22,254.59c9.65,0,9.67-15,0-15s-9.67,15,0,15h0Z"/>
    <path class="cls-5" d="M14.14,254.72c9.65,0,9.67-15,0-15s-9.67,15,0,15h0Z"/>
    <path class="cls-10" d="M11.56,15.67c18.49.32,36.98.69,55.46,1.04,19.51.36,39.05-.42,58.56-.82,10.18-.21,20.36-.38,30.54-.21l-3.75-3.75c-1.46,11.81-1.7,23.8-1.97,35.69-.33,14.15-.39,28.31-.37,42.46.01,9.3.14,18.61.07,27.91-.06,7.86-.43,15.71-.48,23.57-.07,11.29.08,22.59.37,33.88.56,22.38,1.59,44.74,2.18,67.12.07,2.79.14,5.57.2,8.36l3.75-3.75c-15.41-.13-30.81.06-46.22.48-24.85.69-49.67.84-74.52.24-8.25-.2-16.49-.49-24.74-.73l3.75,3.75c-.56-4.87-.34-9.89-.27-14.78.11-8.38.38-16.76.66-25.14.66-20.11,1.45-40.22,1.83-60.34.16-8.4.26-16.81.05-25.21-.13-5.24-.51-10.46-.61-15.7-.33-17.03-.19-34.08-.18-51.11,0-8.91,0-17.82-.06-26.73-.04-5.94-.04-11.89-.34-17.82-.04-.72-.08-1.43-.15-2.15-.19-1.95-1.59-3.85-3.75-3.75-1.87.08-3.96,1.66-3.75,3.75.48,4.83.39,9.76.44,14.61.09,8.42.1,16.84.11,25.25,0,17.78-.1,35.55.11,53.33.06,5.22.27,10.41.52,15.62.36,7.73.31,15.47.21,23.21-.24,20.03-1.02,40.04-1.7,60.06-.3,8.95-.6,17.9-.79,26.85-.13,5.9-.3,11.84,0,17.74.04.78.09,1.55.18,2.32.24,2.06,1.53,3.69,3.75,3.75,18.27.53,36.53,1.09,54.81,1.16,23.38.09,46.73-.97,70.1-1.19,6.85-.06,13.71-.03,20.56.02,2,.02,3.79-1.73,3.75-3.75-.48-22.44-1.5-44.87-2.16-67.3-.33-11.25-.57-22.51-.6-33.77-.03-10.16.25-20.29.47-30.44.18-8.23-.03-16.48-.05-24.72-.03-13.94,0-27.88.25-41.82.23-12.54.48-25.14,1.72-37.62.11-1.1.23-2.21.37-3.31.25-2.04-1.92-3.72-3.75-3.75-19.14-.32-38.3.42-57.44.81-9.78.2-19.58.45-29.37.27-7.76-.14-15.52-.3-23.28-.45-11.49-.22-22.99-.44-34.48-.63-1.96-.03-3.84,1.75-3.75,3.75s1.65,3.71,3.75,3.75h0Z"/>
    <polygon class="cls-10" points="26.61 14.43 14.5 29.16 14.18 13.04 26.61 14.43"/>
    <polygon class="cls-10" points="140.79 14.16 152.35 27.66 154.57 11.89 140.79 14.16"/>
    <polygon class="cls-10" points="139.48 248.15 153.14 235.93 156.07 248.65 139.48 248.15"/>
    <polygon class="cls-10" points="12.9 235.54 26.24 248.54 12.31 249.36 12.9 235.54"/>
    <rect class="cls-10" width="10.32" height="260.79"/>
    <rect class="cls-10" y="249.36" width="167.24" height="11.43"/>
    <rect class="cls-14" width="167.24" height="10.33"/>
    <rect class="cls-10" x="156.12" width="11.13" height="260.79"/>
    <path class="cls-10" d="M122.85,17.19c0-.85.35-3.85,0-4.78-.94-2.49-3.57-2.81-6.15-2.81H50.54c-2.58,0-5.21.32-6.15,2.81-.35.93,0,3.93,0,4.78l-.28,5.71c-.56,5.31,8.78,4.59,12.32,4.59l20.37.37,6.82-.07h0l6.82.07,20.37-.37c3.54,0,12.88.72,12.32-4.59l-.28-5.71Z"/>
  </g>
  <g id="Kategorie_Name" data-name="Kategorie Name">
    <text class="cls-12" transform="translate(48.55 22.56) scale(1 1.09)"><tspan x="0" y="0">Wahrheit</tspan></text>
  </g>
  <g id="Schlücke">
    <text class="cls-6" transform="translate(4.4 252.82)"><tspan x="0" y="0">+3</tspan></text>
    <text class="cls-6" transform="translate(147.68 19.77)"><tspan x="0" y="0">+3</tspan></text>
  </g>
  <g id="Motive">
    <g>
      <path class="cls-10" d="M102.28,59.65c10.52,1.77,10.94,16.07.48,18.29h-36.67c-11.35-1.58-12.72-17.82-1.82-21.19,1.16-.36,4.25-.34,4.47-.47.09-.05.93-1.42,1.25-1.76,3.74-3.94,9.25-5.48,14.49-3.9,1.18.36,4.29,2.3,4.65,2.34.59.06,2.02-.63,2.88-.72,5.03-.5,9.22,2.47,10.28,7.4Z"/>
      <path class="cls-10" d="M71.38,105.24c.58.76.24,1.85-.67,2.14-1.09.35-2.15.84-3.04,1.49-.74.54-2.99,3.21-3.21,3.28-2.39.73-4.73-2.12-5.31,2.64-.16,1.28-.13,1.63,1.09,1.91,5.54,1.25,12.65,1.44,17.91,3.03,6.61,2,4.99,12.12-1.21,12.22-.1,0-.21-.01-.31-.03-6.55-1.47-13.48-2.13-19.99-3.66-13.37-3.15-5.69-15.51-1.02-23.01,2.69-4.32,5.91-8.93,9.86-12.32.89-.76,2.26-.11,2.24,1.05-.06,4.1,1.17,8,3.66,11.28Z"/>
      <path class="cls-10" d="M107.01,116.65c.68-.15,1.15-.77,1.11-1.46-.08-1.23-.64-2.87-1.16-3.12-1.06-.51-2.88.47-4.17.07-.23-.07-2.02-2.27-2.57-2.73-1.08-.9-2.31-1.59-3.62-2.03-.92-.31-1.29-1.42-.71-2.19,2.44-3.22,3.66-7.05,3.63-11.07,0-1.22,1.42-1.89,2.34-1.09,4.65,4.06,8.41,9.69,11.39,14.9,3.56,6.23,9.34,16.8-1.05,19.97-6.53,1.99-14.66,2.16-21.38,3.96-.09.03-.19.04-.29.05-4.34.2-6.65-4.95-5.34-8.65.84-2.38,2.83-3.25,5.12-3.79,5.38-1.25,11.24-1.66,16.7-2.83Z"/>
      <path class="cls-10" d="M81.73,81.2c18.45-2.24,20.79,25.12,3.51,26.86-18.15,1.83-20.33-24.83-3.51-26.86Z"/>
      <path class="cls-10" d="M104.42,133.84l1.91,16.04c.02.16.02.32,0,.48-1.1,6.58-10.88,8.24-13.47,1.73-.04-.1-.07-.2-.09-.3l-3.18-15.58c-.22-1.07.58-2.09,1.67-2.1,3.08-.03,8.33-1.3,11.11-1.78.99-.17,1.92.52,2.04,1.52Z"/>
      <path class="cls-10" d="M75.98,134.11c1.12.02,1.95,1.05,1.74,2.15-.82,4.35-1.47,8.76-2.49,13.05-.59,2.51-1.09,4.77-3.57,6.06-4.69,2.44-10.76-.74-10.77-6.18,0-3.61,1.39-9.66,1.91-13.51.07-.56.15-1.13.2-1.7.1-1.05,1.08-1.8,2.12-1.61,2.81.5,7.83,1.7,10.84,1.75Z"/>
      <path class="cls-10" d="M99.01,116.1c-3.39.57-6.97.75-10.1,2.03-1.15.48-2.3-.71-1.77-1.84,2.09-4.48,8.58-5.73,12.52-2.61.93.74.53,2.23-.64,2.42Z"/>
      <path class="cls-10" d="M78.63,118.33c-3.32-.92-6.63-2.28-10.01-2.44-1.25-.06-1.78-1.62-.83-2.42,3.79-3.17,10.2-1.56,12.44,2.94.53,1.06-.47,2.24-1.61,1.92Z"/>
      <path class="cls-10" d="M85.52,141.84h-3.56c-.68,0-1.19-.62-1.07-1.28l1.72-9.4c.02-.13.07-.26.15-.38h0c.46-.74,1.58-.67,1.92.13.08.18.14.37.2.56.83,2.81,1.06,6.08,1.71,9.05.15.68-.37,1.32-1.06,1.32Z"/>
    </g>
  </g>
  <g id="Kategorien">
    <g>
      <path class="cls-11" d="M16.88,11.24c-.78-.5-1.64-.67-2.56-.59-1.24.1-2.47.91-3.06,2-.13.23-.13.29.07.48.23.22.95.76,1.22.92.13.07.25.12.39.05.49-.52.81-1.14,1.61-1.2.66-.05,1.55.34,1.31,1.14-.15.5-.67.63-1.07.86-.58.35-1.31,1.02-1.37,1.73-.01.14-.02.52,0,.64.03.16.19.21.33.22.39.03,1.51.05,1.87,0,.3-.05.23-.25.3-.46.22-.67.92-.87,1.42-1.25,1.71-1.3,1.2-3.47-.46-4.54Z"/>
      <rect class="cls-11" x="13.41" y="18.19" width="2.49" height="2.49" rx=".42" ry=".42"/>
    </g>
    <g>
      <path class="cls-11" d="M153.52,243.89c-.78-.5-1.64-.67-2.56-.59-1.24.1-2.47.91-3.06,2-.13.23-.13.29.07.48.23.22.95.76,1.22.92.13.07.25.12.39.05.49-.52.81-1.14,1.61-1.2.66-.05,1.55.34,1.31,1.14-.15.5-.67.63-1.07.86-.58.35-1.31,1.02-1.37,1.73-.01.14-.02.52,0,.64.03.16.19.21.33.22.39.03,1.51.05,1.87,0,.3-.05.23-.25.3-.46.22-.67.92-.87,1.42-1.25,1.71-1.3,1.2-3.47-.46-4.54Z"/>
      <rect class="cls-11" x="150.05" y="250.83" width="2.49" height="2.49" rx=".42" ry=".42"/>
    </g>
  </g>
  <g id="Text_Karte" data-name="Text Karte">
    <g>
      <g class="cls-16">
        <text class="cls-2" transform="translate(33.94 179.29)"><tspan x="0" y="0">W</tspan></text>
        <text class="cls-4" transform="translate(44.06 179.29)"><tspan x="0" y="0">as is</tspan></text>
        <text class="cls-4" transform="translate(65.05 179.29)"><tspan x="0" y="0">t d</tspan></text>
        <text class="cls-3" transform="translate(77.9 179.29)"><tspan x="0" y="0">eine größt</tspan></text>
        <text class="cls-2" transform="translate(127.21 179.29)"><tspan x="0" y="0">e </tspan></text>
      </g>
      <text class="cls-9" transform="translate(33.94 179.29)"><tspan x="0" y="0">W</tspan></text>
      <text class="cls-8" transform="translate(44.06 179.29)"><tspan x="0" y="0">as is</tspan></text>
      <text class="cls-8" transform="translate(65.05 179.29)"><tspan x="0" y="0">t d</tspan></text>
      <text class="cls-7" transform="translate(77.9 179.29)"><tspan x="0" y="0">eine größt</tspan></text>
      <text class="cls-9" transform="translate(127.21 179.29)"><tspan x="0" y="0">e </tspan></text>
      <g class="cls-13">
        <text class="cls-3" transform="translate(57.45 191.28)"><tspan x="0" y="0">Insecurity</tspan></text>
        <text class="cls-2" transform="translate(104.46 191.28)"><tspan x="0" y="0">?</tspan></text>
      </g>
      <text class="cls-7" transform="translate(57.45 191.28)"><tspan x="0" y="0">Insecurity</tspan></text>
      <text class="cls-9" transform="translate(104.46 191.28)"><tspan x="0" y="0">?</tspan></text>
    </g>
  </g>
</svg>