<?xml version="1.0" encoding="UTF-8"?>
<svg xmlns="http://www.w3.org/2000/svg" xmlns:xlink="http://www.w3.org/1999/xlink" viewBox="0 0 167.24 260.79">
  <defs>
    <style>
      .cls-1, .cls-2, .cls-3, .cls-4, .cls-5, .cls-6, .cls-7 {
        fill: none;
      }

      .cls-8 {
        fill: #010101;
      }

      .cls-2, .cls-3, .cls-4, .cls-5, .cls-9, .cls-6, .cls-7 {
        stroke: #fff;
      }

      .cls-2, .cls-3, .cls-4, .cls-5, .cls-6, .cls-10, .cls-11, .cls-12, .cls-13, .cls-14, .cls-15, .cls-7 {
        font-family: QuicksandBold-Regular, Quicksand;
        font-size: 10px;
      }

      .cls-2, .cls-10 {
        letter-spacing: 0em;
      }

      .cls-16 {
        fill: #171717;
      }

      .cls-4, .cls-12 {
        letter-spacing: .02em;
      }

      .cls-5, .cls-11 {
        letter-spacing: .03em;
      }

      .cls-9 {
        font-size: 12px;
        stroke-miterlimit: 10;
        stroke-width: .15px;
      }

      .cls-9, .cls-17, .cls-10, .cls-11, .cls-12, .cls-13, .cls-14, .cls-15 {
        fill: #fff;
      }

      .cls-9, .cls-18 {
        font-family: Namaku, Namaku;
      }

      .cls-6, .cls-14 {
        letter-spacing: -.09em;
      }

      .cls-19 {
        clip-path: url(#clippath-1);
      }

      .cls-20 {
        clip-path: url(#clippath-2);
      }

      .cls-21 {
        fill: #171715;
      }

      .cls-13, .cls-7 {
        letter-spacing: -.02em;
      }

      .cls-18 {
        font-size: 15px;
      }

      .cls-18, .cls-22 {
        fill: #0a90ce;
      }

      .cls-23 {
        clip-path: url(#clippath);
      }
    </style>
    <clipPath id="clippath">
      <rect class="cls-1" x="0" y="0" width="167.24" height="260.79"/>
    </clipPath>
    <clipPath id="clippath-1">
      <rect class="cls-1" x="0" y="0" width="167.24" height="260.79"/>
    </clipPath>
    <clipPath id="clippath-2">
      <rect class="cls-1" x="0" y="0" width="167.24" height="260.79"/>
    </clipPath>
  </defs>
  <g id="Background">
    <rect class="cls-22" width="167.24" height="260.79"/>
  </g>
  <g id="Rahmen">
    <path class="cls-8" d="M151.9,23.16c9.65,0,9.67-15,0-15s-9.67,15,0,15h0Z"/>
    <path class="cls-8" d="M152.22,254.59c9.65,0,9.67-15,0-15s-9.67,15,0,15h0Z"/>
    <path class="cls-8" d="M14.14,254.72c9.65,0,9.67-15,0-15s-9.67,15,0,15h0Z"/>
    <path class="cls-16" d="M11.56,15.67c18.49.32,36.98.69,55.46,1.04,19.51.36,39.05-.42,58.56-.82,10.18-.21,20.36-.38,30.54-.21l-3.75-3.75c-1.46,11.81-1.7,23.8-1.97,35.69-.33,14.15-.39,28.31-.37,42.46.01,9.3.14,18.61.07,27.91-.06,7.86-.43,15.71-.48,23.57-.07,11.29.08,22.59.37,33.88.56,22.38,1.59,44.74,2.18,67.12.07,2.79.14,5.57.2,8.36l3.75-3.75c-15.41-.13-30.81.06-46.22.48-24.85.69-49.67.84-74.52.24-8.25-.2-16.49-.49-24.74-.73l3.75,3.75c-.56-4.87-.34-9.89-.27-14.78.11-8.38.38-16.76.66-25.14.66-20.11,1.45-40.22,1.83-60.34.16-8.4.26-16.81.05-25.21-.13-5.24-.51-10.46-.61-15.7-.33-17.03-.19-34.08-.18-51.11,0-8.91,0-17.82-.06-26.73-.04-5.94-.04-11.89-.34-17.82-.04-.72-.08-1.43-.15-2.15-.19-1.95-1.59-3.85-3.75-3.75-1.87.08-3.96,1.66-3.75,3.75.48,4.83.39,9.76.44,14.61.09,8.42.1,16.84.11,25.25,0,17.78-.1,35.55.11,53.33.06,5.22.27,10.41.52,15.62.36,7.73.31,15.47.21,23.21-.24,20.03-1.02,40.04-1.7,60.06-.3,8.95-.6,17.9-.79,26.85-.13,5.9-.3,11.84,0,17.74.04.78.09,1.55.18,2.32.24,2.06,1.53,3.69,3.75,3.75,18.27.53,36.53,1.09,54.81,1.16,23.38.09,46.73-.97,70.1-1.19,6.85-.06,13.71-.03,20.56.02,2,.02,3.79-1.73,3.75-3.75-.48-22.44-1.5-44.87-2.16-67.3-.33-11.25-.57-22.51-.6-33.77-.03-10.16.25-20.29.47-30.44.18-8.23-.03-16.48-.05-24.72-.03-13.94,0-27.88.25-41.82.23-12.54.48-25.14,1.72-37.62.11-1.1.23-2.21.37-3.31.25-2.04-1.92-3.72-3.75-3.75-19.14-.32-38.3.42-57.44.81-9.78.2-19.58.45-29.37.27-7.76-.14-15.52-.3-23.28-.45-11.49-.22-22.99-.44-34.48-.63-1.96-.03-3.84,1.75-3.75,3.75s1.65,3.71,3.75,3.75h0Z"/>
    <polygon class="cls-16" points="26.61 14.43 14.5 29.16 14.18 13.04 26.61 14.43"/>
    <polygon class="cls-16" points="140.79 14.16 152.35 27.66 154.57 11.89 140.79 14.16"/>
    <polygon class="cls-16" points="139.48 248.15 153.14 235.93 156.07 248.65 139.48 248.15"/>
    <polygon class="cls-16" points="12.9 235.54 26.24 248.54 12.31 249.36 12.9 235.54"/>
    <rect class="cls-16" width="10.32" height="260.79"/>
    <rect class="cls-16" y="249.36" width="167.24" height="11.43"/>
    <rect class="cls-21" width="167.24" height="10.33"/>
    <rect class="cls-16" x="156.12" width="11.13" height="260.79"/>
    <path class="cls-16" d="M122.85,17.19c0-.85.35-3.85,0-4.78-.94-2.49-3.57-2.81-6.15-2.81H50.54c-2.58,0-5.21.32-6.15,2.81-.35.93,0,3.93,0,4.78l-.28,5.71c-.56,5.31,8.78,4.59,12.32,4.59l20.37.37,6.82-.07h0l6.82.07,20.37-.37c3.54,0,12.88.72,12.32-4.59l-.28-5.71Z"/>
  </g>
  <g id="Kategorie_Name" data-name="Kategorie Name">
    <text class="cls-18" transform="translate(48.55 22.56) scale(1 1.09)"><tspan x="0" y="0">Wahrheit</tspan></text>
  </g>
  <g id="Schlücke">
    <text class="cls-9" transform="translate(4.25 252.82)"><tspan x="0" y="0">+4</tspan></text>
    <text class="cls-9" transform="translate(147.52 19.77)"><tspan x="0" y="0">+4</tspan></text>
  </g>
  <g id="Motive">
    <g>
      <g>
        <path class="cls-16" d="M79.74,115.38c.23.03.32.13.1.12,1.64-.12,3.33.56,4.81,1.25.06-.08.15-.19.21-.17.73.24,2.28,1.21,2.88,1.71v.29c.11.07.23.1.36.03,6.03,6.42,9.04,15.18,7.77,24.05-.9,6.29-3.87,12.93-9.43,16.32-.1.1,2.44.18,2.58.08l.2.21c-.13.19-.3.21-.51.23-2.45.23-3.42-.65-5.31-1.9-8.16-5.39-18.52-12.34-20.43-22.65-.9-4.83-.25-9.46,2.71-13.45.27-.37,2.45-2.82,2.63-2.92,0-.19.11-.26.32-.23.32-.69,4.23-2.61,4.5-2.48l.21.2c1.98-.5,4.11-.88,6.2-.82l.2.13Z"/>
        <path class="cls-16" d="M96.08,115.38s.04-.09.08-.12c.13-.1,2.9-.07,3.26.24,1.04,0,2.13.18,3.06.57.02-.1.06-.1.11,0,.56.18,1.09.41,1.6.69l.23-.17c1.15.48,2.19,1.21,3.19,1.93v.29c.3.23,1.31,1.02,1.49,1.23,5.29,6.27,5.11,14.57,1.16,21.47-3.05,5.33-7.93,9.05-12.85,12.53-1.33.94-7.06,5.05-8.2,5.22-.59.09-1.98.09-2.58,0-.18-.03-.57-.14-.62-.35,4.39-2.27,7.41-7.6,8.74-12.23,2.64-9.15.73-18.42-5.09-25.88-.52-.66-1.33-1.69-1.94-2.23.2-.21,1.61-1.28,1.78-1.26.11,0,.2.05.28.12,1.06-.62,2.05-1.08,2.97-1.37.18-.1.41-.18.69-.23-.02-.05-.04-.1-.04-.15-.01-.29,2.14-.49,2.5-.52l.17.22Z"/>
        <path class="cls-16" d="M68.31,118.58c-1.44-.96-2.84-2.2-4-3.48-.48-.53-1.69-1.86-1.71-2.52-.05-1.43,1.22-1.91,2.31-2.38,3.1-1.34,6.89-2.13,10.22-1.46,5.53,1.11,9.35,3.91,12.48,8.77.16.25.17.68.48.61.75-1.43,1.84-2.88,2.97-4.06,5.32-5.57,12.25-6.95,19.45-4.13.67.26,2.1.86,2.48,1.41.97,1.41-.12,2.36-1.01,3.41-1.29,1.52-2.81,2.8-4.34,4.06-.68-.53-2.68-1.87-3.43-2.06-.5-.28-1.03-.51-1.6-.69-.04,0-.08,0-.11,0-.73-.33-1.99-.59-3.03-.56-.98-.34-2.56-.4-3.37-.12-.47.02-2.31.23-2.63.46l-.08.12c-.27-.02-.41-.03-.61.11-1.04.33-2.03.78-2.97,1.37-.7.32-1,.62-1.57,1.02-.18.13-.22.18-.49.13-.47-.41-2.62-1.74-3.09-1.83-1.48-.68-3.17-1.38-4.8-1.25l-.11-.12c-.92-.25-2.31-.17-3.22.11-1.15.09-2.22.28-3.18.58-.82.08-3.09,1.3-3.92,1.85-.18.11-.64.62-.68.63-.16.07-.37,0-.42.03Z"/>
      </g>
      <g>
        <path class="cls-16" d="M92.2,58.6l.1.1-.67,1.27c-.52.56-1.05,1.15-1.57,1.76-.88.46-.55.89.98,1.28l.02.16c4.64,2.44,10.34,2.21,14.6-1.22.14-.04.28-.03.39.07.03.55.1,1.09.21,1.61.17.33.28,1.05.11,1.37.39.88.61,1.82.79,2.76l-.11.21c-.72,2.64-2.24,5.17-3.68,7.52-2.24,3.66-5.07,7.03-8.53,9.59-7.07,5.84-16.76,9.36-25.95,7.32-2.03-.45-4.38-1.25-6.09-2.35-.95-.62-1.04-.74-1.12-1.95-1.43.19-2.01-.51-2.7-1.61-1.4-2.23-2.22-4.32-2.24-7.05-.02-3.06,1.18-5.93,2.85-8.46.29-.15.47-.31.56-.63,1-1.48,2.43-2.56,3.93-3.52-.02-.32.67-.61.91-.46-.02-.39,1.01-.62,1.37-.57.03,0-.56.13-.46-.11,7.58-2.77,15.21-1.41,22.06-6.28.33-.08.63-.27.89-.58.29-.3,3.18-.63,3.31-.52.08.06.06.2.02.31Z"/>
        <path class="cls-16" d="M90.48,57.23c-.27.03-.57-.02-.86,0-.45.04-.67.1-1.11.14-.75,0-.87-1,0-1.19,5.02-2.41,5.75-8.93,12.76-7.4,1.29.28,2.51,1.21,3.66,1.6,1.21.4,1.7-1.58,2.4-2.4,1.31-1.54,2.51-1.65,4.16-.5,1.32.92,1.81,2.09,1.29,3.67-.29.87-1.2,1.69-1.37,2.52-.49,2.4,1.33,4.88,1.75,7.23.78,4.32-1.03,8.52-3.73,11.8,0,0-.67.38-.73-.54-.02-.36-.16-.7-.26-1.07-.05-.2.07-.43-.26-.36-.69-1.5-1.21-3.37-1.57-5.08-.01-.05.03-.11.09-.18-.78-2.36-.37-4.98.14-7.25-2.4,2.32-5.09,4.37-8.44,4.96-2.47.44-5.03.39-7.43-.2l-.88-.33c-1.08-.17-.42-.73.17-1.1.43-.56.89-1.09,1.37-1.57.86-1.51,1.75-3,2.68-4.47l.7-.74c-1.1.8-2.26,1.52-3.47,2.14l-.94.32c-.04.1-.08.1-.11,0Z"/>
        <path class="cls-16" d="M106.71,65.46c.6,1.43.75,3.46,1.58,4.89.06.15-.06.26-.09.37-1.22,4.12-4.17,9.64-6.7,13.13-4.52,6.25-12.64,12.86-20.39,14.29l-1.03.23c-.17.02-.35.09-.57.11l-1.03.23c-.34.04-.69.07-1.03.11-.42.06-.82.1-1.2.11-1.51.1-3.25.1-4.8,0-.39,0-.79-.04-1.2-.11-.34-.04-.68-.06-1.03-.11-.29-.1-.6-.18-.91-.23-6.75-.89-12.98-6.28-13.94-13.14l-.23-1.26c-.05-.45-.1-.79-.11-1.26-.11-1.14-.14-2.31,0-3.43.31-6.66,4.99-10.85,10.74-13.25.43-.19.5-.11.23.23-.41.19-.49.16-.91.46-1.54.96-2.93,2.09-3.99,3.56l-.12-.13q-.39-.3,0,0c.4.37-.25.9-.8.63l-.44.55c.2.01.32.13.34.33-.65,1.21-1.25,2.43-1.79,3.69-.39.05-.65.1-.2.25.44.42.08,1.02-.5,1.1.21.54-.2,1.05-.65,1.31-.11-.22-.88.48-.88.55.54,1.05.47,1.47-.27,2.24l.25.22c.55-.15,1.08.49.66.93-1.13.27-.9,1.19-.34,1.9-.16.26-.13.48.1.65.04.61.39,1.14,1.06,1.58.98.59,1.95,1.24.28,1.73.24,2.27.68,4.34,3.01,5.32.17.25.16.38.1.67.6-.18.89-.03.85.46h1.24c.14.04,1.76.41,1.75.15-.68-.45-2-2.21-.21-1.66.66.61,1.37,1.14,2.12,1.61.41-1.1,3.49-.44,2.05.47-1.1.02-1.18.75-.17,1.14.33.36.69.69,1.07.98.59-.81,1.86-.03.78.59l.08.15c.27-.49.59-.59.96-.3.76-.3,1.16-.16,1.2.43.91-.09,1.79.02,2.64.33l1.94-.13c.44.26.8.2,1.08-.18-.63-.52.17-1.07.78-.92.41.36.96.76,1.53.63-1.54-.37-.74-1.39.48-.66.54-.11.97-.14.91.58.38-.2.75-.44,1.04-.76-.24-.87.66-.97,1.25-.53-.02-.45.23-.54.62-.55l.35-.17c.41-.89,1.78-1.7,2.52-.89.17-.39.68-.51,1.04-.28.27-.14.56-.09.86.15.05,0,.24-.47.18-.53-.82.17-1.57.05-.97-.95l1.18-.27c-.7-.53-.67-1.49.38-.95.1-1.44,1.29-1.18,1.19.19-.24.6-.22.89.06.88-.13-.46.19-.53.58-.49-.01-.87.46-2.15,1.46-1.44-.28-.27-.57-.64-.1-.86-.01-.79.31-1.58,1.23-1.27-.18-.64.04-1.32.26-1.81l-.2.04c-.44.34-1.88,1.18-1.68.03.04-.22,1.94-1.8,2.33-1.18-.15-.12-.18-.28-.15-.46.04-.25,3.61-3.24,4.23-2.4.32-.41.65-.16.98.09.47.55.73.65.79.32-.45-.43-.51-.9.24-.88-.09-.53,0-.8.54-.94.27-.43.52-.68,1.02-.79.04-.44.24-.75.59-.93l.07-.32c-.71-.29-.67-.73.14-1.33-.21-.89-.22-2.58.67-3.12.68-.42.8.31.28.73.17.27.22.51.14.82.48-.53.74-.39.78.29,0,.02.14-.35.12-.43-.74-.41-.89-1.24,0-1.57-.34-1.26-.13-2.32.62-3.18.13-.56.36-1.04.7-1.45.54-.04.64-.36.3-.96.29-.49.43-.97.43-1.46-.23-1-.55-1.94-.69-2.97.13-.07.25.08.34.46Z"/>
        <path class="cls-16" d="M90.6,57.23c1.35-.34,2.48-1.13,3.56-1.97.1.05.17.13.22.24.07.17-1.73,2.7-2,3.07-.03.04-.1.04-.18.04-.11-.22-.39-.07-.55-.04-.69.11-2.23.13-2.74.35-.18.07-.66.82-.94.49.89-.63,1.68-1.47,2.51-2.17.04,0,.08,0,.11,0Z"/>
        <path class="cls-16" d="M77.46,98.82c-.28.03-.96.23-1.2.23h-4.91c-.22,0-.9-.21-1.09-.23.37-.12.95.11,1.2.11h4.8c.25,0,.83-.23,1.2-.11Z"/>
        <path class="cls-16" d="M54.03,82.83c-.2-.86-.13-1.9-.12-2.8,0-.19-.07-.51.12-.63-.05,1.08-.04,2.34,0,3.43Z"/>
        <path class="cls-16" d="M65.91,65.69l.46.11c-.34.19-.85.23-1.16.36-.13.05-.17.2-.21.22.03-.24.01-.26-.23-.23.39-.16.75-.31,1.14-.46Z"/>
        <path class="cls-16" d="M54.37,85.34c-.24-.38-.18-.84-.23-1.26.25.38.17.85.23,1.26Z"/>
        <path class="cls-16" d="M79.51,98.48c-.28.25-.69.18-1.03.23.28-.3.69-.19,1.03-.23Z"/>
        <path class="cls-16" d="M81.11,98.14c-.28.25-.69.18-1.03.23.27-.26.71-.17,1.03-.23Z"/>
        <path class="cls-16" d="M69.23,98.71c-.31-.05-.66,0-.91-.23.3.04.7-.1.91.23Z"/>
        <path class="cls-16" d="M64.09,66.83c-5.94,4.21-9.33,11.86-5.46,18.66.29.52,1.38,2.21,1.89,2.34.35.09,1.09-.07,1.29.08.24.17.15,1.05.28,1.32.19.39,2.75,1.65,3.28,1.86,8.86,3.47,18.46,1.18,26.18-3.82,5.44-3.53,9.04-7.47,12.33-13.04,1.19-2.01,2.23-4.12,3.18-6.25.03.11.24.28.22.52-.01.22-.41.46-.44.83-.02.3.4.58.1,1.09-.08.15-.38.02-.58.24-.29.32-.39,1.07-.58,1.37-.34.52-.32.04-.59,1.01s-.09.59,0,1.31c.01.1.05.72.05.76-.03.22-1.05.24-.4,1.1.09.12.33.15.38.31.1.29-.23.95-.5,1.07-.35.15.08-.76-.06-.91-.3-.08-.34.29-.45.38-.54.47-.27-.45-.29-.67-.01-.15-.18-.29-.18-.45,0-.22.48-.49.34-.63-.1-.1-.33.13-.4.23-.09.13-.53.91-.56,1.05-.13.55.2,1.46.11,1.81-.09.32-1.02.65-.49.94.31.17.46.15.29.69-.08.25-.36.24-.44.38-.11.19-.05.5-.22.67-.12.13-.41.13-.57.23-.2.14-.27.39-.47.57-.12.1-.4.14-.44.19-.1.15.03.68-.02.9-1.22-.35-.23.36-.22.51,0,.23-.5.81-.57.75.21-.35-1-1.16-1.09-1.14-.38.08.04,1.26.04,1.42.02.58-.43.64-.68.91-.22.24-.18.68-.68.63.08-.3-.18-.52-.22-.75-.15-.76.18-.37.52-.61.06-.04.73-.8.74-.87.06-.6-.46-.71-.94-.59-.43.1-2.35,1.62-2.89,2.03-.26.19-.43.45-.06.63.61.29.49-.33.73-.52.17-.14.49-.1.69-.23.17-.11.13-.41.35-.33.36.14,0,.47-.03.65-.11.61-.12,1.13-.03,1.74-.06.06-.95-.14-1.11-.2-.65-.27-.91-1.26-1.75-.88-.07.03-1.11.84-1.15.9-.16.24-.14.53.18.52.27,0,.97-.8,1.47-.67.05.01.8.62.83.67.15.3-.1.9-.29.69-.03-.03-.05-.73-.13-.79-.55-.44-.63.93-.56,1.3.06.3.43.46.43.57,0,.12-.69.92-.89.74-.05-.05.68-1.37-.31-.94-.57.25-.27.72-.45,1.15-.07.16-.3.12-.27.19.09.18.61.6.57.91-.08.6-.62-.61-1.09-.29-.74.5-.34,1.33-.64,1.59-.08.07-.41-.01-.56.01l.23.68c-.37-.12-.6-.33-1.03-.23.24-.61.73-1.64-.06-2.06-.35.29-.3.73-.29,1.14l-.91-.34c-.06.08.18.61.28.7.3.25.65-.23.64.16-.37.37-1.17.46-1.7.53-.51,1.18.78.27,1.08.67.09.12-.13.73-.26.81-.31.22-.49-.2-.72-.18-.47.04.02.58-.45.52.46-.64-.54-.68-.68-.27-.07.21.17.46.05.5-.45.14-.39-.66-.59-.7s-1.32.18-1.47.36c-.3.35-.22.74-.94,1-.48.17-.55-.26-.49.71-.1.11-.71-.54-1.11-.37s-.15.34-.16.55c-.02.33-1.45,1.21-1.59,1.08.27-1.16-.09-.64-.62-.69-.24-.02-.67-.41-1.09-.23-.02.38.58.31.89.54.45.32-.45.42-.71.38-.05,0-.79-.35-.83-.38-.24-.15-.18-.52-.86-.17-.59.3.46.51.26.77-.38-.12-.71.46-.76.47-.21.04-.45-.22-.68-.24-.54-.05-1.45.19-2.16.11-.42-.05-.7-.28-1.04-.34-.49-.08-1.13.08-1.59,0-.14-.03.03-.48-.25-.57s-.82.49-1.24-.12c-.26.71-.76.81-.86,0,.76-.09.6-.64-.15-.46-.13.03-.15.33-.25.34-.32.03-1.1-.88-1.32-1.07-.28-.24-.79-.25-.77-.77.04-1.06,1.12-.48,1.24-.95.12-.5-1.28-.42-1.59-.33-.37.11-.34.5-.62.48-.42-.04-1.83-1.33-2.24-1.64-.35-.27-.7-.18-.49.26.17.36.74.73,1,1.06.1.12.26.14.06.29-.62.44-1.41,0-2-.06-.49-.05-1.04.04-1.54,0l.11-.57c-.27.03-.53.21-.8.06-.22-.14.09-.43-.04-.63-.09-.14-.87-.45-1.1-.62-.41-.32-1.44-1.63-1.55-2.11-.13-.55-.26-1.28-.3-1.78-.03-.28-.14-.56-.09-.86-.71.24-.39-.08-.64-.56-.1-.18-.84-.79,0-.58.42.1.54.52.52.91.36-.43,1.07-.13.92-.73-.02-.06-.88-.56-1.09-.75-.12-.11-1-.96-1.03-1.03-.16-.35.15-.85-.51-.8-.09-.23.34-.43.34-.51,0-.03-.28-.26-.35-.45-.2-.54-.3-1.04.18-1.44.23-.19.67-.16.63-.4-.03-.22-.29-.47-.51-.4-.24.08-.03.56-.4.46.42-.82-.59-.71-.57-1.37.02-.03.54.36.68.22.02-.02,0-.22.07-.33.07-.09.25-.1.28-.2.17-.63-.39-1.07-.35-1.46s.58-.38.58-.69c0-.23-.79-.61-.64-1.08.12-.36.59-.6.86-.35.24.22-.52.32-.46.63.07.35.93-.27.57.74.14.16.63-.52.67-.66.05-.23-.14-.49-.05-.6.13-.16.77-.08.76-.51,0-.34-.43-.21-.47-.36-.04-.16.01-.56,0-.79,0-.16-.12-.38-.11-.46.08-.6.62.64.46.86.06.08.61-.93.64-1.02.27-1.08.24-.8.78-1.73,1.01-1.74-.01-.67-.34-.68-.15,0-.32-.13-.28-.28.03-.13.56-.25.75-.4.21-.17.3-.5.54-.61.35-.16.97.53.88-.42-.88.1-.66-.75-.13-.44.04.02.12.35.13.44.47-.06.27-.39.45-.64.05-.07.86-.99.91-1.03.23-.16.5-.14.56-.19s.03-.31.18-.44.47-.11.68-.23c.46-.27.74-.89,1.33-.9Z"/>
        <path class="cls-16" d="M91.06,63.17c.02-.1.07-.16.15-.14,1.74.3,3.5.57,5.2.37,2.77-.33,4.24-.59,6.74-2.17,1.24-.78,2.31-1.75,3.38-2.72.27.03.34.25.19.67l-.26.79c-.12,1.22-.19,2.43-.19,3.65-.39-.23-.03-1.59-.51-1.48-2.63,2.14-6.11,3.14-9.49,2.86-1.22-.1-3.85-.88-4.92-1.49-.15-.09-.3-.12-.28-.34Z"/>
        <path class="cls-16" d="M91.63,59.97c-.29.42-.6.89-.92,1.28-.2.23-.89.75-.97.89-.08.15-.08.19.06.28.38.26,2.48.68,3.03.74,6.08.74,9.85-1.02,13.94-5.21.07-.07.3-.41.4-.28.09.11-.45,1.75-.52,2.05-.4,1.98-.31,3.74.06,5.72-.04-.1-.26-.34-.34-.46-.07-.5-.08-.85-.11-1.37-.07-1.18-.1-2.3,0-3.48.05-.61.51-.75.34-1.43-.08-.11-.91.84-1.03.94-1.62,1.44-4.3,3.01-6.23,3.51-.88.23-1.99.07-2.72.24-.09.02-.03.21-.24.24-.44.06-1.87.06-2.3,0-.21-.03-.15-.21-.24-.24-.48-.11-1.29.07-1.81,0-.05,0-.74-.19-.96-.24-.31-.07-.94-.44-.99-.45-.18-.04-.5.05-.6-.01-.08-.05-.09-.83,0-.89.08-.05.27.02.41-.05.42-.22,1.22-1.62,1.43-1.77.09-.07.27,0,.31-.02Z"/>
        <path class="cls-16" d="M90.6,57.23l2.09-1.05c1.27-.86,2.47-2.05,3.96-2.49-.66.64-1.46,1.1-2.05,1.81-1.1,1.31-1.97,3.05-2.98,4.48.07-.04.32-.95.57-1.37.51-.86,1.38-1.9,1.87-2.74.1-.17.1-.26.08-.45l-.94.72c-.92.61-1.42.99-2.6,1.1Z"/>
        <path class="cls-16" d="M65.57,97c.75-.7-.68-1.18-.8-.62-.02.08.52.71-.09.37-.07-.04-.59-1.24-.37-1.41.46-.35,1.86.67,2.01.97.14.28-.57.82-.75.68Z"/>
        <path class="cls-16" d="M94.37,90.6c-.31-.33.75-.57.77-.86.01-.17-.39-.42-.43-.8-.09-.72.67.24.75.4.41.87-1.02,1.32-1.08,1.25Z"/>
        <path class="cls-16" d="M86.47,95.53c.07.11,0,.4.02.55-.34.04-.49-.28-.85-.23-.34.05-.4.48-.75.46-.26-.67,1.37-1.13,1.58-.78Z"/>
        <path class="cls-16" d="M62.14,95.85s0-.32.11-.41c.16-.12,1.59.18,1.6.46.01.46-1.12-.13-1.21-.14-.13-.02-.45.13-.5.08Z"/>
        <path class="cls-16" d="M56.31,73.69c-.2-.19.51-.55.54-.6.06-.1.03-.53.2-.54.62-.03-.4,1.45-.74,1.14Z"/>
        <path class="cls-16" d="M56.2,74.03c.35.3.17.89-.34.91-.06-.14.04-1.17.34-.91Z"/>
        <path class="cls-16" d="M100.2,84.31c.07.36-.17.77-.57.8-.06-.44.05-.85.57-.8Z"/>
        <path class="cls-16" d="M106.37,72.09c.12.12.02.77-.39.68-.52-.11.06-1.02.39-.68Z"/>
        <path class="cls-16" d="M107.35,69.96c-.07-.08-.29-.04-.17-.32.05-.11.43-.32.45-.29-.08.25.43,1.05-.06.91-.04-.01-.16-.22-.22-.3Z"/>
        <path class="cls-16" d="M107.84,70.93s-.32.2-.39.24c-.13.07-.21.17-.28-.05-.08-.24.47-.62.51-.63.1,0,.24.3.16.44Z"/>
        <path class="cls-16" d="M55.97,76.09c-.29.3-.71-.51-.17-.8.14.1.23.74.17.8Z"/>
        <path class="cls-16" d="M103.97,79.63c-.19.19-.8-.14-.46-.57.37-.17.6.43.46.57Z"/>
        <path class="cls-16" d="M98.14,86.83c.15.81-.76.69-.44.13.02-.04.4-.17.44-.13Z"/>
        <path class="cls-16" d="M89.79,93.35s.15.42.12.45h-.57c-.02-.26.18-.63.45-.45Z"/>
        <path class="cls-16" d="M54.37,80.2c-.03-.16,0-.68.17-.68.24,0,.27.79-.17.68Z"/>
        <path class="cls-16" d="M99.51,85.34c.19.19-.29.72-.46.28-.15-.39.41-.33.46-.28Z"/>
        <path class="cls-16" d="M104.2,77.69l-.34.8c.08-.19-.03-.88.34-.8Z"/>
        <path class="cls-16" d="M93.11,91.51c.16,0,.36-.15.51-.12.44.1-.24.68-.51.12Z"/>
        <path class="cls-16" d="M71.06,98.71c-.13.1-.5-.29-.46-.34.14.03.3-.13.4-.12.19.03.12.41.06.46Z"/>
      </g>
    </g>
  </g>
  <g id="Kategorien">
    <g>
      <path class="cls-17" d="M16.88,11.24c-.78-.5-1.64-.67-2.56-.59-1.24.1-2.47.91-3.06,2-.13.23-.13.29.07.48.23.22.95.76,1.22.92.13.07.25.12.39.05.49-.52.81-1.14,1.61-1.2.66-.05,1.55.34,1.31,1.14-.15.5-.67.63-1.07.86-.58.35-1.31,1.02-1.37,1.73-.01.14-.02.52,0,.64.03.16.19.21.33.22.39.03,1.51.05,1.87,0,.3-.05.23-.25.3-.46.22-.67.92-.87,1.42-1.25,1.71-1.3,1.2-3.47-.46-4.54Z"/>
      <rect class="cls-17" x="13.41" y="18.19" width="2.49" height="2.49" rx=".42" ry=".42"/>
    </g>
    <g>
      <path class="cls-17" d="M153.52,243.89c-.78-.5-1.64-.67-2.56-.59-1.24.1-2.47.91-3.06,2-.13.23-.13.29.07.48.23.22.95.76,1.22.92.13.07.25.12.39.05.49-.52.81-1.14,1.61-1.2.66-.05,1.55.34,1.31,1.14-.15.5-.67.63-1.07.86-.58.35-1.31,1.02-1.37,1.73-.01.14-.02.52,0,.64.03.16.19.21.33.22.39.03,1.51.05,1.87,0,.3-.05.23-.25.3-.46.22-.67.92-.87,1.42-1.25,1.71-1.3,1.2-3.47-.46-4.54Z"/>
      <rect class="cls-17" x="150.05" y="250.83" width="2.49" height="2.49" rx=".42" ry=".42"/>
    </g>
  </g>
  <g id="Text_Karte" data-name="Text Karte">
    <g>
      <g class="cls-23">
        <text class="cls-6" transform="translate(50.12 179.29)"><tspan x="0" y="0">Wa</tspan></text>
        <text class="cls-7" transform="translate(66.14 179.29)"><tspan x="0" y="0">nn </tspan></text>
        <text class="cls-4" transform="translate(80.8 179.29)"><tspan x="0" y="0">ha</tspan></text>
        <text class="cls-2" transform="translate(93.12 179.29)"><tspan x="0" y="0">st</tspan></text>
        <text class="cls-7" transform="translate(101.79 179.29)"><tspan x="0" y="0" xml:space="preserve"> du</tspan></text>
        <text class="cls-3" transform="translate(117.12 179.29)"><tspan x="0" y="0"> </tspan></text>
      </g>
      <text class="cls-14" transform="translate(50.12 179.29)"><tspan x="0" y="0">Wa</tspan></text>
      <text class="cls-13" transform="translate(66.14 179.29)"><tspan x="0" y="0">nn </tspan></text>
      <text class="cls-12" transform="translate(80.8 179.29)"><tspan x="0" y="0">ha</tspan></text>
      <text class="cls-10" transform="translate(93.12 179.29)"><tspan x="0" y="0">st</tspan></text>
      <text class="cls-13" transform="translate(101.79 179.29)"><tspan x="0" y="0" xml:space="preserve"> du</tspan></text>
      <text class="cls-15" transform="translate(117.12 179.29)"><tspan x="0" y="0"> </tspan></text>
      <g class="cls-19">
        <text class="cls-7" transform="translate(38.88 191.28)"><tspan x="0" y="0">dich das </tspan></text>
        <text class="cls-5" transform="translate(82.04 191.28)"><tspan x="0" y="0">le</tspan></text>
        <text class="cls-7" transform="translate(90.27 191.28)"><tspan x="0" y="0">tzt</tspan></text>
        <text class="cls-7" transform="translate(102.81 191.28)"><tspan x="0" y="0">e Ma</tspan></text>
        <text class="cls-3" transform="translate(125.87 191.28)"><tspan x="0" y="0">l </tspan></text>
      </g>
      <text class="cls-13" transform="translate(38.88 191.28)"><tspan x="0" y="0">dich das </tspan></text>
      <text class="cls-11" transform="translate(82.04 191.28)"><tspan x="0" y="0">le</tspan></text>
      <text class="cls-13" transform="translate(90.27 191.28)"><tspan x="0" y="0">tzt</tspan></text>
      <text class="cls-13" transform="translate(102.81 191.28)"><tspan x="0" y="0">e Ma</tspan></text>
      <text class="cls-15" transform="translate(125.87 191.28)"><tspan x="0" y="0">l </tspan></text>
      <g class="cls-20">
        <text class="cls-7" transform="translate(43.16 203.28)"><tspan x="0" y="0">selbs</tspan></text>
        <text class="cls-7" transform="translate(67.34 203.28)"><tspan x="0" y="0">tbefriedigt?</tspan></text>
      </g>
      <text class="cls-13" transform="translate(43.16 203.28)"><tspan x="0" y="0">selbs</tspan></text>
      <text class="cls-13" transform="translate(67.34 203.28)"><tspan x="0" y="0">tbefriedigt?</tspan></text>
    </g>
  </g>
</svg>