<?xml version="1.0" encoding="UTF-8"?>
<svg xmlns="http://www.w3.org/2000/svg" xmlns:xlink="http://www.w3.org/1999/xlink" viewBox="0 0 167.24 260.79">
  <defs>
    <style>
      .cls-1, .cls-2, .cls-3, .cls-4, .cls-5, .cls-6, .cls-7, .cls-8, .cls-9, .cls-10 {
        fill: none;
      }

      .cls-11 {
        fill: #010101;
      }

      .cls-2, .cls-3, .cls-12, .cls-4, .cls-5, .cls-6, .cls-7, .cls-8, .cls-9, .cls-10 {
        stroke: #fff;
      }

      .cls-2, .cls-3, .cls-4, .cls-5, .cls-13, .cls-14, .cls-15, .cls-16, .cls-6, .cls-17, .cls-18, .cls-19, .cls-20, .cls-7, .cls-8, .cls-21, .cls-9, .cls-10 {
        font-family: QuicksandBold-Regular, Quicksand;
        font-size: 10px;
      }

      .cls-2, .cls-17 {
        letter-spacing: -.02em;
      }

      .cls-22 {
        fill: #171717;
      }

      .cls-12 {
        font-size: 12px;
        stroke-miterlimit: 10;
        stroke-width: .15px;
      }

      .cls-12, .cls-23, .cls-13, .cls-14, .cls-15, .cls-16, .cls-17, .cls-18, .cls-19, .cls-20, .cls-21 {
        fill: #fff;
      }

      .cls-12, .cls-24 {
        font-family: Namaku, Namaku;
      }

      .cls-4, .cls-20 {
        letter-spacing: -.09em;
      }

      .cls-25 {
        clip-path: url(#clippath-1);
      }

      .cls-26 {
        clip-path: url(#clippath-2);
      }

      .cls-5, .cls-18 {
        letter-spacing: -.02em;
      }

      .cls-13, .cls-7 {
        letter-spacing: -.03em;
      }

      .cls-14, .cls-8 {
        letter-spacing: -.04em;
      }

      .cls-15, .cls-6 {
        letter-spacing: -.04em;
      }

      .cls-16, .cls-9 {
        letter-spacing: -.03em;
      }

      .cls-27 {
        fill: #171715;
      }

      .cls-19, .cls-10 {
        letter-spacing: -.02em;
      }

      .cls-24 {
        font-size: 15px;
      }

      .cls-24, .cls-28 {
        fill: #0a90ce;
      }

      .cls-29 {
        clip-path: url(#clippath);
      }
    </style>
    <clipPath id="clippath">
      <rect class="cls-1" x="0" y="0" width="167.24" height="260.79"/>
    </clipPath>
    <clipPath id="clippath-1">
      <rect class="cls-1" x="0" y="0" width="167.24" height="260.79"/>
    </clipPath>
    <clipPath id="clippath-2">
      <rect class="cls-1" x="0" y="0" width="167.24" height="260.79"/>
    </clipPath>
  </defs>
  <g id="Background">
    <rect class="cls-28" width="167.24" height="260.79"/>
  </g>
  <g id="Rahmen">
    <path class="cls-11" d="M151.9,23.16c9.65,0,9.67-15,0-15s-9.67,15,0,15h0Z"/>
    <path class="cls-11" d="M152.22,254.59c9.65,0,9.67-15,0-15s-9.67,15,0,15h0Z"/>
    <path class="cls-11" d="M14.14,254.72c9.65,0,9.67-15,0-15s-9.67,15,0,15h0Z"/>
    <path class="cls-22" d="M11.56,15.67c18.49.32,36.98.69,55.46,1.04,19.51.36,39.05-.42,58.56-.82,10.18-.21,20.36-.38,30.54-.21l-3.75-3.75c-1.46,11.81-1.7,23.8-1.97,35.69-.33,14.15-.39,28.31-.37,42.46.01,9.3.14,18.61.07,27.91-.06,7.86-.43,15.71-.48,23.57-.07,11.29.08,22.59.37,33.88.56,22.38,1.59,44.74,2.18,67.12.07,2.79.14,5.57.2,8.36l3.75-3.75c-15.41-.13-30.81.06-46.22.48-24.85.69-49.67.84-74.52.24-8.25-.2-16.49-.49-24.74-.73l3.75,3.75c-.56-4.87-.34-9.89-.27-14.78.11-8.38.38-16.76.66-25.14.66-20.11,1.45-40.22,1.83-60.34.16-8.4.26-16.81.05-25.21-.13-5.24-.51-10.46-.61-15.7-.33-17.03-.19-34.08-.18-51.11,0-8.91,0-17.82-.06-26.73-.04-5.94-.04-11.89-.34-17.82-.04-.72-.08-1.43-.15-2.15-.19-1.95-1.59-3.85-3.75-3.75-1.87.08-3.96,1.66-3.75,3.75.48,4.83.39,9.76.44,14.61.09,8.42.1,16.84.11,25.25,0,17.78-.1,35.55.11,53.33.06,5.22.27,10.41.52,15.62.36,7.73.31,15.47.21,23.21-.24,20.03-1.02,40.04-1.7,60.06-.3,8.95-.6,17.9-.79,26.85-.13,5.9-.3,11.84,0,17.74.04.78.09,1.55.18,2.32.24,2.06,1.53,3.69,3.75,3.75,18.27.53,36.53,1.09,54.81,1.16,23.38.09,46.73-.97,70.1-1.19,6.85-.06,13.71-.03,20.56.02,2,.02,3.79-1.73,3.75-3.75-.48-22.44-1.5-44.87-2.16-67.3-.33-11.25-.57-22.51-.6-33.77-.03-10.16.25-20.29.47-30.44.18-8.23-.03-16.48-.05-24.72-.03-13.94,0-27.88.25-41.82.23-12.54.48-25.14,1.72-37.62.11-1.1.23-2.21.37-3.31.25-2.04-1.92-3.72-3.75-3.75-19.14-.32-38.3.42-57.44.81-9.78.2-19.58.45-29.37.27-7.76-.14-15.52-.3-23.28-.45-11.49-.22-22.99-.44-34.48-.63-1.96-.03-3.84,1.75-3.75,3.75s1.65,3.71,3.75,3.75h0Z"/>
    <polygon class="cls-22" points="26.61 14.43 14.5 29.16 14.18 13.04 26.61 14.43"/>
    <polygon class="cls-22" points="140.79 14.16 152.35 27.66 154.57 11.89 140.79 14.16"/>
    <polygon class="cls-22" points="139.48 248.15 153.14 235.93 156.07 248.65 139.48 248.15"/>
    <polygon class="cls-22" points="12.9 235.54 26.24 248.54 12.31 249.36 12.9 235.54"/>
    <rect class="cls-22" width="10.32" height="260.79"/>
    <rect class="cls-22" y="249.36" width="167.24" height="11.43"/>
    <rect class="cls-27" width="167.24" height="10.33"/>
    <rect class="cls-22" x="156.12" width="11.13" height="260.79"/>
    <path class="cls-22" d="M122.85,17.19c0-.85.35-3.85,0-4.78-.94-2.49-3.57-2.81-6.15-2.81H50.54c-2.58,0-5.21.32-6.15,2.81-.35.93,0,3.93,0,4.78l-.28,5.71c-.56,5.31,8.78,4.59,12.32,4.59l20.37.37,6.82-.07h0l6.82.07,20.37-.37c3.54,0,12.88.72,12.32-4.59l-.28-5.71Z"/>
  </g>
  <g id="Kategorie_Name" data-name="Kategorie Name">
    <text class="cls-24" transform="translate(48.55 22.56) scale(1 1.09)"><tspan x="0" y="0">Wahrheit</tspan></text>
  </g>
  <g id="Schlücke">
    <text class="cls-12" transform="translate(4.4 252.82)"><tspan x="0" y="0">+3</tspan></text>
    <text class="cls-12" transform="translate(147.68 19.77)"><tspan x="0" y="0">+3</tspan></text>
  </g>
  <g id="Motive">
    <g>
      <path class="cls-22" d="M86.19,63.87l3.85.51c16.35,2.7,29.54,15.85,32.22,32.23l.51,3.86c-.07,1.72.1,3.49,0,5.21-1.94,33.23-43.1,48.87-66.87,25.17-23.8-23.74-8.18-65.02,25.08-66.97h5.2ZM81.88,68.81c-27.18,1.49-42.12,32.61-25.81,54.67,16.13,21.8,50.19,16.91,59.62-8.43,8.55-22.98-9.35-47.57-33.82-46.23Z"/>
      <path class="cls-22" d="M81.88,68.81c24.47-1.34,42.37,23.25,33.82,46.23-9.43,25.35-43.5,30.24-59.62,8.43-16.31-22.05-1.37-53.18,25.81-54.67ZM65.95,83.5c-1.15.19-1.99,1.34-1.96,2.49.02.97.5,1.46,1.16,2.06.85.78,6.71,4.73,6.8,5.15.04.19-.12.26-.22.37-1.54,1.64-4.78,3.27-6.58,4.9-2.71,2.46-.15,5.87,2.94,4.01,2.36-1.42,7.4-5.22,9.45-7.08,1.59-1.45,1.59-2.83,0-4.28-2.84-2.59-6.77-4.73-9.72-7.27-.58-.37-1.19-.47-1.87-.36ZM100.23,83.5c-.5.08-.83.36-1.23.6-2.42,1.49-7.26,5.11-9.36,7.02-1.59,1.45-1.59,2.83,0,4.28,2.79,2.54,6.65,4.63,9.54,7.14,2.95,1.75,5.56-1.6,2.85-4.07-.85-.78-6.71-4.73-6.8-5.15-.04-.19.12-.26.22-.37,1.54-1.64,4.78-3.27,6.58-4.9,2.21-2.01.92-5.01-1.8-4.55ZM73.3,112.9c-3.2,1.75-7.34,3.16-10.37,5.09-2.49,1.59-1.4,4.83,1.44,4.66l9.38-4.55c2.89,1.08,5.73,3.15,8.57,4.23.6.23,1.1.47,1.78.29l9.24-4.52,9.35,4.52c2.65.45,4.1-2.85,1.87-4.47l-10.66-5.26-.87-.02-9.48,4.55-9.38-4.55-.87.02Z"/>
    </g>
  </g>
  <g id="Kategorien">
    <g>
      <path class="cls-23" d="M16.88,11.24c-.78-.5-1.64-.67-2.56-.59-1.24.1-2.47.91-3.06,2-.13.23-.13.29.07.48.23.22.95.76,1.22.92.13.07.25.12.39.05.49-.52.81-1.14,1.61-1.2.66-.05,1.55.34,1.31,1.14-.15.5-.67.63-1.07.86-.58.35-1.31,1.02-1.37,1.73-.01.14-.02.52,0,.64.03.16.19.21.33.22.39.03,1.51.05,1.87,0,.3-.05.23-.25.3-.46.22-.67.92-.87,1.42-1.25,1.71-1.3,1.2-3.47-.46-4.54Z"/>
      <rect class="cls-23" x="13.41" y="18.19" width="2.49" height="2.49" rx=".42" ry=".42"/>
    </g>
    <g>
      <path class="cls-23" d="M153.52,243.89c-.78-.5-1.64-.67-2.56-.59-1.24.1-2.47.91-3.06,2-.13.23-.13.29.07.48.23.22.95.76,1.22.92.13.07.25.12.39.05.49-.52.81-1.14,1.61-1.2.66-.05,1.55.34,1.31,1.14-.15.5-.67.63-1.07.86-.58.35-1.31,1.02-1.37,1.73-.01.14-.02.52,0,.64.03.16.19.21.33.22.39.03,1.51.05,1.87,0,.3-.05.23-.25.3-.46.22-.67.92-.87,1.42-1.25,1.71-1.3,1.2-3.47-.46-4.54Z"/>
      <rect class="cls-23" x="150.05" y="250.83" width="2.49" height="2.49" rx=".42" ry=".42"/>
    </g>
  </g>
  <g id="Text_Karte" data-name="Text Karte">
    <g>
      <g class="cls-29">
        <text class="cls-10" transform="translate(31.23 179.29)"><tspan x="0" y="0">Die Gruppe wählt </tspan></text>
        <text class="cls-7" transform="translate(117.74 179.29)"><tspan x="0" y="0">de</tspan></text>
        <text class="cls-3" transform="translate(129.88 179.29)"><tspan x="0" y="0">n </tspan></text>
      </g>
      <text class="cls-19" transform="translate(31.23 179.29)"><tspan x="0" y="0">Die Gruppe wählt </tspan></text>
      <text class="cls-13" transform="translate(117.74 179.29)"><tspan x="0" y="0">de</tspan></text>
      <text class="cls-21" transform="translate(129.88 179.29)"><tspan x="0" y="0">n </tspan></text>
      <g class="cls-25">
        <text class="cls-10" transform="translate(21.61 191.28)"><tspan x="0" y="0">be</tspan></text>
        <text class="cls-4" transform="translate(33.5 191.28)"><tspan x="0" y="0">tr</tspan></text>
        <text class="cls-8" transform="translate(40.79 191.28)"><tspan x="0" y="0">un</tspan></text>
        <text class="cls-3" transform="translate(52.41 191.28)"><tspan x="0" y="0">k</tspan></text>
        <text class="cls-5" transform="translate(57.56 191.28)"><tspan x="0" y="0">ens</tspan></text>
        <text class="cls-3" transform="translate(74.25 191.28)"><tspan x="0" y="0">t</tspan></text>
        <text class="cls-5" transform="translate(77.65 191.28)"><tspan x="0" y="0">en Sp</tspan></text>
        <text class="cls-2" transform="translate(104.84 191.28)"><tspan x="0" y="0">iel</tspan></text>
        <text class="cls-6" transform="translate(116.07 191.28)"><tspan x="0" y="0">er</tspan></text>
        <text class="cls-10" transform="translate(125.05 191.28)"><tspan x="0" y="0">. Di</tspan></text>
        <text class="cls-3" transform="translate(139.54 191.28)"><tspan x="0" y="0">e </tspan></text>
      </g>
      <text class="cls-19" transform="translate(21.61 191.28)"><tspan x="0" y="0">be</tspan></text>
      <text class="cls-20" transform="translate(33.5 191.28)"><tspan x="0" y="0">tr</tspan></text>
      <text class="cls-14" transform="translate(40.79 191.28)"><tspan x="0" y="0">un</tspan></text>
      <text class="cls-21" transform="translate(52.41 191.28)"><tspan x="0" y="0">k</tspan></text>
      <text class="cls-18" transform="translate(57.56 191.28)"><tspan x="0" y="0">ens</tspan></text>
      <text class="cls-21" transform="translate(74.25 191.28)"><tspan x="0" y="0">t</tspan></text>
      <text class="cls-18" transform="translate(77.65 191.28)"><tspan x="0" y="0">en Sp</tspan></text>
      <text class="cls-17" transform="translate(104.84 191.28)"><tspan x="0" y="0">iel</tspan></text>
      <text class="cls-15" transform="translate(116.07 191.28)"><tspan x="0" y="0">er</tspan></text>
      <text class="cls-19" transform="translate(125.05 191.28)"><tspan x="0" y="0">. Die</tspan></text>
      <text class="cls-21" transform="translate(145.63 191.28)"><tspan x="0" y="0"> </tspan></text>
      <g class="cls-26">
        <text class="cls-9" transform="translate(34.93 203.28)"><tspan x="0" y="0">Pe</tspan></text>
        <text class="cls-10" transform="translate(46.14 203.28)"><tspan x="0" y="0">rson muss t</tspan></text>
        <text class="cls-2" transform="translate(100.31 203.28)"><tspan x="0" y="0">rink</tspan></text>
        <text class="cls-10" transform="translate(118.2 203.28)"><tspan x="0" y="0">en</tspan></text>
        <text class="cls-3" transform="translate(130.01 203.28)"><tspan x="0" y="0">.</tspan></text>
      </g>
      <text class="cls-16" transform="translate(34.93 203.28)"><tspan x="0" y="0">Pe</tspan></text>
      <text class="cls-19" transform="translate(46.14 203.28)"><tspan x="0" y="0">rson muss t</tspan></text>
      <text class="cls-17" transform="translate(100.31 203.28)"><tspan x="0" y="0">rink</tspan></text>
      <text class="cls-19" transform="translate(118.2 203.28)"><tspan x="0" y="0">en.</tspan></text>
    </g>
  </g>
</svg>