<?xml version="1.0" encoding="UTF-8"?>
<svg xmlns="http://www.w3.org/2000/svg" viewBox="0 0 167.24 260.79">
  <defs>
    <style>
      .cls-1 {
        fill: #010101;
      }

      .cls-2 {
        fill: #171717;
      }

      .cls-3 {
        stroke: #fff;
        stroke-miterlimit: 10;
        stroke-width: .15px;
      }

      .cls-3, .cls-4 {
        fill: #fff;
      }

      .cls-5 {
        fill: #171715;
      }

      .cls-6 {
        font-family: Namaku, Namaku;
        font-size: 15px;
      }

      .cls-6, .cls-7 {
        fill: #0a90ce;
      }
    </style>
  </defs>
  <g id="Background">
    <rect class="cls-7" width="167.24" height="260.79"/>
  </g>
  <g id="Rahmen">
    <path class="cls-1" d="M151.9,23.16c9.65,0,9.67-15,0-15s-9.67,15,0,15h0Z"/>
    <path class="cls-1" d="M152.22,254.59c9.65,0,9.67-15,0-15s-9.67,15,0,15h0Z"/>
    <path class="cls-1" d="M14.14,254.72c9.65,0,9.67-15,0-15s-9.67,15,0,15h0Z"/>
    <path class="cls-2" d="M11.56,15.67c18.49.32,36.98.69,55.46,1.04,19.51.36,39.05-.42,58.56-.82,10.18-.21,20.36-.38,30.54-.21l-3.75-3.75c-1.46,11.81-1.7,23.8-1.97,35.69-.33,14.15-.39,28.31-.37,42.46.01,9.3.14,18.61.07,27.91-.06,7.86-.43,15.71-.48,23.57-.07,11.29.08,22.59.37,33.88.56,22.38,1.59,44.74,2.18,67.12.07,2.79.14,5.57.2,8.36l3.75-3.75c-15.41-.13-30.81.06-46.22.48-24.85.69-49.67.84-74.52.24-8.25-.2-16.49-.49-24.74-.73l3.75,3.75c-.56-4.87-.34-9.89-.27-14.78.11-8.38.38-16.76.66-25.14.66-20.11,1.45-40.22,1.83-60.34.16-8.4.26-16.81.05-25.21-.13-5.24-.51-10.46-.61-15.7-.33-17.03-.19-34.08-.18-51.11,0-8.91,0-17.82-.06-26.73-.04-5.94-.04-11.89-.34-17.82-.04-.72-.08-1.43-.15-2.15-.19-1.95-1.59-3.85-3.75-3.75-1.87.08-3.96,1.66-3.75,3.75.48,4.83.39,9.76.44,14.61.09,8.42.1,16.84.11,25.25,0,17.78-.1,35.55.11,53.33.06,5.22.27,10.41.52,15.62.36,7.73.31,15.47.21,23.21-.24,20.03-1.02,40.04-1.7,60.06-.3,8.95-.6,17.9-.79,26.85-.13,5.9-.3,11.84,0,17.74.04.78.09,1.55.18,2.32.24,2.06,1.53,3.69,3.75,3.75,18.27.53,36.53,1.09,54.81,1.16,23.38.09,46.73-.97,70.1-1.19,6.85-.06,13.71-.03,20.56.02,2,.02,3.79-1.73,3.75-3.75-.48-22.44-1.5-44.87-2.16-67.3-.33-11.25-.57-22.51-.6-33.77-.03-10.16.25-20.29.47-30.44.18-8.23-.03-16.48-.05-24.72-.03-13.94,0-27.88.25-41.82.23-12.54.48-25.14,1.72-37.62.11-1.1.23-2.21.37-3.31.25-2.04-1.92-3.72-3.75-3.75-19.14-.32-38.3.42-57.44.81-9.78.2-19.58.45-29.37.27-7.76-.14-15.52-.3-23.28-.45-11.49-.22-22.99-.44-34.48-.63-1.96-.03-3.84,1.75-3.75,3.75s1.65,3.71,3.75,3.75h0Z"/>
    <polygon class="cls-2" points="26.61 14.43 14.5 29.16 14.18 13.04 26.61 14.43"/>
    <polygon class="cls-2" points="140.79 14.16 152.35 27.66 154.57 11.89 140.79 14.16"/>
    <polygon class="cls-2" points="139.48 248.15 153.14 235.93 156.07 248.65 139.48 248.15"/>
    <polygon class="cls-2" points="12.9 235.54 26.24 248.54 12.31 249.36 12.9 235.54"/>
    <rect class="cls-2" width="10.32" height="260.79"/>
    <rect class="cls-2" y="249.36" width="167.24" height="11.43"/>
    <rect class="cls-5" width="167.24" height="10.33"/>
    <rect class="cls-2" x="156.12" width="11.13" height="260.79"/>
    <path class="cls-2" d="M122.85,17.19c0-.85.35-3.85,0-4.78-.94-2.49-3.57-2.81-6.15-2.81H50.54c-2.58,0-5.21.32-6.15,2.81-.35.93,0,3.93,0,4.78l-.28,5.71c-.56,5.31,8.78,4.59,12.32,4.59l20.37.37,6.82-.07h0l6.82.07,20.37-.37c3.54,0,12.88.72,12.32-4.59l-.28-5.71Z"/>
  </g>
  <g id="Kategorie_Name" data-name="Kategorie Name">
    <text class="cls-6" transform="translate(48.55 22.56) scale(1 1.09)"><tspan x="0" y="0">Wahrheit</tspan></text>
  </g>
  <g id="Schlücke">
    <g>
      <path class="cls-3" d="M9.42,250.32s0,.17,0,.37c0,.2,0,.41-.01.64,0,.23-.01.43-.02.61s-.01.27-.01.28c-.03.08-.13.14-.31.17-.17.03-.36.05-.58.06s-.42,0-.62,0c-.2,0-.34-.01-.42-.01-.04,0-.09,0-.15,0s-.12,0-.18,0-.12,0-.17-.02c-.05-.02-.09-.04-.1-.08,0-.02-.01-.07-.01-.16s0-.21,0-.35.01-.29.02-.45.01-.31.02-.46c0-.15,0-.28.01-.39,0-.11,0-.19,0-.24-.07,0-.21,0-.43.01s-.43.01-.67.02c-.23,0-.44,0-.64,0-.19,0-.31-.02-.35-.04-.06-.03-.11-.09-.13-.17,0-.03-.01-.15-.01-.34s0-.41.01-.65c0-.24.02-.46.03-.66.01-.2.02-.33.03-.39.02-.11.07-.19.16-.24.04-.02.15-.04.33-.05s.38-.02.59-.03.42-.01.61-.02c.2,0,.33,0,.4,0,0-.07,0-.2-.02-.38-.02-.18-.03-.37-.04-.56s-.01-.37-.02-.53c0-.16,0-.27.03-.31.04-.07.1-.12.17-.14.02,0,.13-.01.33-.02.2,0,.41,0,.65,0,.24,0,.46,0,.67.01s.34,0,.39.02c.05,0,.09.02.14.04s.08.05.1.1c.02.06.05.17.07.34s.04.35.05.55c.01.2.02.38.04.56.01.18.02.31.02.39.12,0,.26,0,.41,0,.16,0,.31,0,.47.01.16,0,.32.01.47.02.15.01.28.03.4.05.06.05.11.09.14.13.03.04.05.1.05.19v.63c0,.16,0,.32,0,.5,0,.18,0,.34-.01.49,0,.15,0,.27-.01.37,0,.1-.01.15-.02.16-.02.04-.12.06-.3.06s-.37,0-.58-.02c-.21-.01-.42-.03-.61-.05-.2-.02-.33-.03-.39-.03Z"/>
      <path class="cls-3" d="M16.67,247.92c.5.13.89.37,1.16.74.27.37.41.77.44,1.21.02.44-.07.89-.29,1.34-.22.45-.56.83-1.02,1.15-.46.31-1.05.51-1.76.61s-1.54,0-2.49-.27c-.06-.02-.15-.04-.25-.06-.1-.02-.19-.06-.28-.1s-.15-.09-.2-.15c-.05-.06-.05-.14-.01-.23.08-.2.15-.4.2-.61.05-.21.09-.42.1-.62,0-.06.01-.15.01-.25s.03-.18.1-.22c.02,0,.08,0,.19.02.11.02.24.05.4.08.16.03.34.06.54.08.2.02.4.02.59,0,.2-.02.38-.08.56-.16s.33-.21.46-.38c.08-.1.13-.21.14-.33s0-.23-.03-.34c-.04-.11-.1-.21-.18-.29s-.19-.16-.31-.2c-.1-.03-.2-.05-.32-.06-.12,0-.24,0-.37,0s-.25.03-.37.04c-.12.02-.23.03-.34.04h-.15c-.06,0-.1-.03-.11-.08.04-.21.08-.46.11-.76.03-.3.03-.55,0-.76.02-.04.13-.07.33-.09.2-.02.41-.06.65-.11.24-.05.45-.14.65-.25.2-.12.32-.29.36-.51.03-.18-.01-.33-.13-.47s-.26-.23-.42-.28c-.21-.06-.45-.06-.73.02-.28.08-.54.16-.79.25s-.47.14-.64.16c-.18.02-.26-.06-.26-.23v-.84c0-.18,0-.34,0-.49,0-.15.01-.24.03-.27.04-.09.11-.15.2-.18.78-.27,1.49-.4,2.12-.38.63.02,1.17.13,1.61.33.45.21.8.48,1.07.82.26.34.42.7.47,1.08.05.38,0,.75-.18,1.12-.17.36-.47.67-.88.92Z"/>
    </g>
    <g>
      <path class="cls-3" d="M152.7,17.28s0,.17,0,.37c0,.2,0,.41-.01.64,0,.23,0,.43-.02.61,0,.18-.01.27-.01.28-.03.08-.13.14-.31.17-.17.03-.36.05-.58.06s-.42,0-.62,0c-.2,0-.34-.01-.42-.01-.04,0-.09,0-.15,0-.06,0-.12,0-.18,0s-.12,0-.17-.02c-.05-.02-.09-.04-.1-.08,0-.02-.01-.07-.01-.16s0-.21,0-.35,0-.29.02-.45.01-.31.02-.46c0-.15,0-.28.01-.39,0-.11,0-.19,0-.24-.07,0-.21,0-.43.01s-.43.01-.67.02c-.23,0-.44,0-.64,0-.19,0-.31-.02-.35-.04-.06-.03-.11-.09-.13-.17,0-.03-.01-.15-.01-.34s0-.41.01-.65c0-.24.02-.46.03-.66s.02-.33.03-.39c.02-.11.07-.19.16-.24.04-.02.15-.04.33-.05.18-.01.38-.02.59-.03s.42-.01.61-.02c.2,0,.33,0,.4,0,0-.07,0-.2-.02-.38s-.03-.37-.04-.56c0-.19-.01-.37-.02-.53s0-.27.03-.31c.04-.07.1-.12.17-.14.02,0,.13-.01.33-.02.2,0,.41,0,.65,0s.46,0,.67.01.34,0,.39.02c.05,0,.09.02.14.04.04.02.08.05.1.1.02.06.05.17.07.34.02.17.04.35.05.55s.02.38.04.56c.01.18.02.31.02.39.12,0,.26,0,.41,0,.16,0,.31,0,.47.01.16,0,.32.01.47.02.15.01.28.03.4.05.06.05.11.09.14.13.03.04.05.1.05.19v.63c0,.16,0,.32,0,.5s0,.34-.01.49c0,.15,0,.27-.01.37,0,.1,0,.15-.02.16-.02.04-.12.06-.3.06s-.37,0-.58-.02c-.21-.01-.42-.03-.61-.05-.2-.02-.33-.03-.39-.03Z"/>
      <path class="cls-3" d="M159.94,14.88c.5.13.89.37,1.16.74.27.36.41.77.44,1.21.02.44-.07.89-.29,1.34s-.56.83-1.02,1.15c-.46.31-1.05.51-1.76.61s-1.54,0-2.49-.27c-.06-.02-.15-.04-.25-.06-.1-.02-.19-.06-.28-.1s-.15-.09-.2-.15-.05-.14-.01-.23c.08-.2.15-.4.2-.61.05-.21.09-.42.1-.62,0-.06.01-.15.01-.25s.03-.18.1-.22c.02,0,.08,0,.19.02.11.02.24.05.4.08.16.03.34.06.54.08.2.02.4.02.59,0,.2-.02.38-.08.56-.16s.33-.21.46-.38c.08-.1.13-.21.14-.33.02-.12,0-.23-.03-.34-.04-.11-.1-.21-.18-.29s-.19-.16-.31-.2c-.1-.03-.2-.05-.32-.06-.12,0-.24,0-.37,0-.12.01-.25.03-.37.04-.12.02-.23.03-.34.04h-.15c-.06,0-.1-.03-.11-.08.04-.21.08-.46.11-.76s.03-.55,0-.76c.02-.04.13-.07.33-.09.2-.02.41-.06.65-.11.24-.05.45-.14.65-.25s.32-.29.36-.51c.03-.18-.01-.33-.13-.47-.12-.14-.26-.23-.42-.28-.21-.06-.45-.06-.73.02-.28.08-.54.16-.79.25s-.47.14-.64.16c-.18.02-.26-.06-.26-.23v-.84c0-.18,0-.34,0-.49,0-.15.01-.24.03-.27.04-.09.11-.15.2-.18.78-.27,1.49-.4,2.12-.38.63.02,1.17.13,1.61.33.45.2.8.48,1.07.82.26.34.42.7.47,1.08s0,.75-.18,1.12c-.17.36-.47.67-.88.92Z"/>
    </g>
  </g>
  <g id="Motive">
    <g>
      <path class="cls-2" d="M86.19,63.87l3.85.51c16.35,2.7,29.54,15.85,32.22,32.23l.51,3.86c-.07,1.72.1,3.49,0,5.21-1.94,33.23-43.1,48.87-66.87,25.17-23.8-23.74-8.18-65.02,25.08-66.97h5.2ZM81.88,68.81c-27.18,1.49-42.12,32.61-25.81,54.67,16.13,21.8,50.19,16.91,59.62-8.43,8.55-22.98-9.35-47.57-33.82-46.23Z"/>
      <path class="cls-2" d="M81.88,68.81c24.47-1.34,42.37,23.25,33.82,46.23-9.43,25.35-43.5,30.24-59.62,8.43-16.31-22.05-1.37-53.18,25.81-54.67ZM65.95,83.5c-1.15.19-1.99,1.34-1.96,2.49.02.97.5,1.46,1.16,2.06.85.78,6.71,4.73,6.8,5.15.04.19-.12.26-.22.37-1.54,1.64-4.78,3.27-6.58,4.9-2.71,2.46-.15,5.87,2.94,4.01,2.36-1.42,7.4-5.22,9.45-7.08,1.59-1.45,1.59-2.83,0-4.28-2.84-2.59-6.77-4.73-9.72-7.27-.58-.37-1.19-.47-1.87-.36ZM100.23,83.5c-.5.08-.83.36-1.23.6-2.42,1.49-7.26,5.11-9.36,7.02-1.59,1.45-1.59,2.83,0,4.28,2.79,2.54,6.65,4.63,9.54,7.14,2.95,1.75,5.56-1.6,2.85-4.07-.85-.78-6.71-4.73-6.8-5.15-.04-.19.12-.26.22-.37,1.54-1.64,4.78-3.27,6.58-4.9,2.21-2.01.92-5.01-1.8-4.55ZM73.3,112.9c-3.2,1.75-7.34,3.16-10.37,5.09-2.49,1.59-1.4,4.83,1.44,4.66l9.38-4.55c2.89,1.08,5.73,3.15,8.57,4.23.6.23,1.1.47,1.78.29l9.24-4.52,9.35,4.52c2.65.45,4.1-2.85,1.87-4.47l-10.66-5.26-.87-.02-9.48,4.55-9.38-4.55-.87.02Z"/>
    </g>
  </g>
  <g id="Kategorien">
    <g>
      <path class="cls-4" d="M16.88,11.24c-.78-.5-1.64-.67-2.56-.59-1.24.1-2.47.91-3.06,2-.13.23-.13.29.07.48.23.22.95.76,1.22.92.13.07.25.12.39.05.49-.52.81-1.14,1.61-1.2.66-.05,1.55.34,1.31,1.14-.15.5-.67.63-1.07.86-.58.35-1.31,1.02-1.37,1.73-.01.14-.02.52,0,.64.03.16.19.21.33.22.39.03,1.51.05,1.87,0,.3-.05.23-.25.3-.46.22-.67.92-.87,1.42-1.25,1.71-1.3,1.2-3.47-.46-4.54Z"/>
      <rect class="cls-4" x="13.41" y="18.19" width="2.49" height="2.49" rx=".42" ry=".42"/>
    </g>
    <g>
      <path class="cls-4" d="M153.52,243.89c-.78-.5-1.64-.67-2.56-.59-1.24.1-2.47.91-3.06,2-.13.23-.13.29.07.48.23.22.95.76,1.22.92.13.07.25.12.39.05.49-.52.81-1.14,1.61-1.2.66-.05,1.55.34,1.31,1.14-.15.5-.67.63-1.07.86-.58.35-1.31,1.02-1.37,1.73-.01.14-.02.52,0,.64.03.16.19.21.33.22.39.03,1.51.05,1.87,0,.3-.05.23-.25.3-.46.22-.67.92-.87,1.42-1.25,1.71-1.3,1.2-3.47-.46-4.54Z"/>
      <rect class="cls-4" x="150.05" y="250.83" width="2.49" height="2.49" rx=".42" ry=".42"/>
    </g>
  </g>
  <g id="Text_Karte" data-name="Text Karte">
    <g>
      <g>
        <path class="cls-4" d="M32.27,178.74v-5.9c0-.31.24-.55.55-.55h1.18c1.93,0,3.49,1.57,3.49,3.49s-1.56,3.51-3.49,3.51h-1.18c-.31,0-.55-.25-.55-.55ZM33.38,178.18h.62c1.32,0,2.38-1.07,2.38-2.4s-1.06-2.38-2.38-2.38h-.62v4.78Z"/>
        <path class="cls-4" d="M40.24,173.04c0,.3-.23.55-.54.55s-.54-.25-.54-.55v-.21c0-.3.24-.54.54-.54s.54.24.54.54v.21ZM40.24,174.85v3.9c0,.3-.23.54-.54.54s-.54-.24-.54-.54v-3.9c0-.32.24-.55.54-.55s.54.23.54.55Z"/>
        <path class="cls-4" d="M41.41,176.79c.01-1.36,1.07-2.5,2.44-2.5,1.3,0,2.33.97,2.41,2.32v.05s0,.07-.01.09c-.03.24-.24.4-.52.4h-3.18c.05.23.16.49.34.66.21.24.61.42.96.45.36.03.79-.06,1.04-.25.21-.22.62-.19.75-.03.13.14.23.44,0,.65-.49.45-1.08.66-1.79.66-1.37,0-2.43-1.14-2.44-2.5ZM42.5,176.3h2.83c-.1-.4-.61-.99-1.48-1.06-.85.04-1.27.65-1.35,1.06Z"/>
        <path class="cls-4" d="M50.25,175.7c0-2.01,1.66-3.61,3.69-3.61.85,0,1.66.29,2.28.78.26.19.3.56.11.81-.19.24-.56.29-.81.09-.43-.33-.98-.54-1.58-.54-.72,0-1.35.27-1.8.73-.47.45-.75,1.06-.75,1.74s.28,1.27.75,1.72c.45.46,1.08.73,1.8.73.5,0,.97-.15,1.37-.38v-1.37h-1.43c-.31,0-.57-.26-.57-.57s.26-.56.57-.56h1.99c.32,0,.58.24.58.56v2.21c0,.07-.02.11-.03.17,0,.02,0,.03-.02.05h0c-.03.1-.09.18-.19.25-.63.49-1.42.78-2.27.78-2.03,0-3.69-1.59-3.69-3.59Z"/>
        <path class="cls-4" d="M61.47,174.82c0,.28-.23.53-.53.53-.23,0-.43.06-.6.19-.19.12-.34.29-.46.48-.24.32-.36.7-.41.84v1.9c0,.29-.25.53-.55.53s-.53-.24-.53-.53v-3.94c0-.29.24-.52.53-.52s.55.23.55.52v.07c.06-.07.14-.15.21-.2.33-.22.76-.4,1.26-.39.3,0,.53.23.53.52Z"/>
        <path class="cls-4" d="M64.56,179.29c-1.14,0-2.08-.94-2.08-2.08v-2.39c0-.28.24-.53.53-.53s.53.25.53.53v2.39c0,.57.45,1.02,1.02,1.02s1.04-.45,1.05-1.02v-2.39c0-.28.22-.53.52-.53.28,0,.54.25.54.53v2.39c0,1.14-.96,2.08-2.11,2.08Z"/>
        <path class="cls-4" d="M68.51,180.63v-3.82h0v-1.99c0-.29.24-.53.53-.53s.51.19.55.41c.37-.24.85-.41,1.36-.41,1.33,0,2.42,1.14,2.42,2.51s-1.09,2.48-2.42,2.48c-.5,0-.98-.15-1.34-.41v1.76c0,.28-.25.54-.57.54-.29,0-.53-.26-.53-.54ZM69.61,176.8c0,.39.13.77.39,1,.25.28.58.42.95.42.34,0,.68-.14.94-.42.23-.23.39-.61.39-1s-.16-.75-.39-1.01c-.26-.27-.6-.41-.94-.41-.37,0-.7.14-.95.41-.26.26-.39.62-.39,1.01Z"/>
        <path class="cls-4" d="M74.91,180.63v-3.82h0v-1.99c0-.29.24-.53.53-.53s.51.19.55.41c.37-.24.85-.41,1.36-.41,1.33,0,2.42,1.14,2.42,2.51s-1.09,2.48-2.42,2.48c-.5,0-.98-.15-1.34-.41v1.76c0,.28-.25.54-.57.54-.29,0-.53-.26-.53-.54ZM76.01,176.8c0,.39.13.77.39,1,.25.28.58.42.95.42.34,0,.68-.14.94-.42.23-.23.39-.61.39-1s-.16-.75-.39-1.01c-.26-.27-.6-.41-.94-.41-.37,0-.7.14-.95.41-.26.26-.39.62-.39,1.01Z"/>
        <path class="cls-4" d="M80.96,176.79c.01-1.36,1.07-2.5,2.44-2.5,1.3,0,2.33.97,2.41,2.32v.05s0,.07,0,.09c-.03.24-.24.4-.52.4h-3.18c.05.23.16.49.34.66.21.24.61.42.96.45.36.03.79-.06,1.04-.25.21-.22.62-.19.75-.03.13.14.23.44,0,.65-.49.45-1.08.66-1.79.66-1.37,0-2.43-1.14-2.44-2.5ZM82.05,176.3h2.83c-.1-.4-.61-.99-1.48-1.06-.85.04-1.27.65-1.35,1.06Z"/>
        <path class="cls-4" d="M96.43,175.09l-1.65,3.88s-.02.05-.04.08c0,0,0,0,0,0-.01.02-.03.04-.05.06,0,0-.02,0-.02,0-.02.02-.04.04-.06.05,0,0-.01,0-.01.02-.03.02-.05.04-.09.05,0,0,0,0,0,0-.02,0-.05,0-.08.02h-.02s-.06,0-.1,0c-.03,0-.06,0-.09,0h-.02s-.04-.02-.07-.02h-.02s-.06-.04-.09-.07h0s-.04-.04-.06-.06c0,0-.02,0-.02,0-.02-.02-.04-.04-.05-.06,0,0-.01,0-.01,0-.02-.03-.03-.06-.04-.08l-.73-1.73-.71,1.73s-.03.05-.05.08h0s-.04.05-.06.07c0,0,0,0,0,0-.02.02-.04.04-.06.06-.04.03-.06.05-.09.06h-.02s0,0,0,0c-.02,0-.05,0-.06.02h-.02s-.07,0-.1,0c-.04,0-.07,0-.1,0h-.03s-.04-.02-.06-.02t-.02,0s-.07-.03-.09-.06t0,0s-.03-.03-.06-.05h-.02s-.03-.05-.04-.07t0,0s-.03-.06-.05-.08l-1.64-3.88c-.12-.27.01-.57.29-.69.24-.11.55,0,.66.3l1.18,2.69.7-1.67c.09-.2.28-.32.49-.32s.41.12.49.32l.71,1.67,1.18-2.69c.1-.29.42-.41.67-.3.27.12.41.42.29.69Z"/>
        <path class="cls-4" d="M102.87,176.8v1.96c0,.29-.24.53-.53.53-.26,0-.46-.19-.52-.43-.38.27-.83.43-1.33.43-.68,0-1.27-.28-1.7-.73-.43-.46-.68-1.08-.68-1.76s.25-1.31.68-1.76c.43-.46,1.02-.75,1.7-.75.5,0,.95.17,1.33.44.06-.25.26-.44.52-.44.29,0,.53.24.53.54v1.97ZM99.49,172.3c.36,0,.65.29.65.65s-.29.64-.65.64-.64-.28-.64-.64.28-.65.64-.65ZM101.81,176.8c0-.42-.15-.78-.39-1.03-.24-.27-.58-.41-.93-.41s-.7.14-.93.41c-.24.25-.38.61-.38,1.03s.14.77.38,1.03c.23.25.57.39.93.39s.69-.14.93-.39c.24-.26.39-.62.39-1.03ZM101.49,172.3c.36,0,.65.29.65.65s-.29.64-.65.64-.64-.28-.64-.64.28-.65.64-.65Z"/>
        <path class="cls-4" d="M105.06,178.74c0,.31-.25.55-.56.55-.25,0-.46-.18-.53-.41,0-.04-.02-.09-.02-.14v-5.9c0-.31.25-.55.55-.55s.56.24.56.55v1.74c.32-.17.68-.29,1.07-.29,1.21,0,2.18.99,2.18,2.19v2.26c0,.31-.24.55-.55.55s-.55-.24-.55-.55v-2.26c0-.59-.48-1.07-1.08-1.08-.59,0-1.06.49-1.07,1.08v2.26Z"/>
        <path class="cls-4" d="M110.5,172.29c.31,0,.56.25.56.55v5.9c0,.3-.25.55-.56.55s-.55-.25-.55-.55v-5.9c0-.3.25-.55.55-.55Z"/>
        <path class="cls-4" d="M114.42,174.84c0,.3-.26.55-.56.55h-.25v2.79c.31,0,.55.25.55.56s-.24.55-.55.55c-.61,0-1.11-.5-1.11-1.11v-2.79h-.29c-.31,0-.55-.25-.55-.55s.24-.55.55-.55h.29v-1.45c0-.31.25-.55.56-.55s.55.24.55.55v1.45h.25c.3,0,.56.24.56.55Z"/>
      </g>
      <g>
        <path class="cls-4" d="M123.2,178.75c0,.29-.24.54-.54.54-.27,0-.48-.19-.53-.43-.38.26-.86.43-1.36.43-1.35,0-2.43-1.14-2.43-2.49s1.08-2.51,2.43-2.51c.49,0,.97.16,1.34.42v-1.88c0-.29.24-.54.55-.54s.54.25.54.54v3.96h0v1.96ZM120.77,175.38c-.36,0-.69.15-.94.41-.25.25-.4.61-.4,1.01s.15.74.4.99c.25.26.58.41.94.41s.69-.15.94-.41c.25-.25.4-.61.4-.99,0-.4-.15-.76-.4-1.01-.25-.26-.57-.41-.94-.41Z"/>
        <path class="cls-4" d="M124.57,176.79c0-1.36,1.07-2.5,2.44-2.5,1.3,0,2.33.97,2.41,2.32v.05s0,.07,0,.09c-.03.24-.24.4-.52.4h-3.18c.05.23.16.49.34.66.21.24.61.42.96.45.36.03.79-.06,1.04-.25.21-.22.62-.19.75-.03.13.14.23.44,0,.65-.49.45-1.08.66-1.79.66-1.37,0-2.43-1.14-2.44-2.5ZM125.66,176.3h2.83c-.1-.4-.61-.99-1.48-1.06-.85.04-1.27.65-1.35,1.06Z"/>
      </g>
      <path class="cls-4" d="M134.98,176.37v2.39c0,.29-.23.53-.52.53s-.53-.24-.53-.53v-2.39c0-.56-.47-1.01-1.04-1.01s-1,.45-1,1.01v2.39s0,.06-.02.1c-.05.24-.27.43-.53.43-.3,0-.53-.24-.53-.53v-3.94c0-.29.23-.53.53-.53.21,0,.4.12.49.31.3-.19.67-.31,1.06-.31,1.16,0,2.09.95,2.09,2.08Z"/>
      <g>
        <path class="cls-4" d="M22.54,188.79h0v-3.97c0-.29.24-.54.54-.54s.55.25.55.54v1.88c.37-.26.85-.42,1.34-.42,1.35,0,2.43,1.14,2.43,2.51s-1.08,2.49-2.43,2.49c-.5,0-.98-.17-1.36-.43-.05.24-.26.43-.53.43-.3,0-.54-.25-.54-.54v-1.95ZM23.63,188.79c0,.38.15.74.4.99.25.26.57.41.94.41s.69-.15.94-.41c.25-.25.4-.61.4-.99,0-.4-.15-.76-.4-1.01-.25-.26-.58-.41-.94-.41s-.69.15-.94.41c-.25.25-.4.61-.4,1.01Z"/>
        <path class="cls-4" d="M28.59,188.78c.01-1.36,1.07-2.5,2.44-2.5,1.3,0,2.33.97,2.41,2.32v.05s0,.07-.01.09c-.03.24-.24.4-.52.4h-3.18c.05.23.16.49.34.66.21.24.61.42.96.45.36.03.79-.06,1.04-.25.21-.22.62-.19.75-.03.13.14.23.44,0,.65-.49.45-1.08.66-1.79.66-1.37,0-2.43-1.14-2.44-2.5ZM29.68,188.29h2.83c-.1-.4-.61-.99-1.48-1.06-.85.04-1.27.65-1.35,1.06Z"/>
      </g>
      <g>
        <path class="cls-4" d="M36.68,186.83c0,.3-.26.55-.56.55h-.25v2.79c.31,0,.55.25.55.56s-.24.55-.55.55c-.61,0-1.11-.5-1.11-1.11v-2.79h-.29c-.31,0-.55-.25-.55-.55s.24-.55.55-.55h.29v-1.45c0-.31.25-.55.56-.55s.55.24.55.55v1.45h.25c.3,0,.56.24.56.55Z"/>
        <path class="cls-4" d="M40.61,186.81c0,.28-.23.53-.53.53-.23,0-.43.06-.6.19-.19.12-.34.29-.46.48-.24.32-.36.7-.41.84v1.9c0,.29-.25.53-.55.53s-.53-.24-.53-.53v-3.94c0-.29.24-.52.53-.52s.55.23.55.52v.07c.06-.07.14-.15.21-.2.33-.22.76-.4,1.26-.39.3,0,.53.23.53.52Z"/>
      </g>
      <g>
        <path class="cls-4" d="M43.7,191.28c-1.14,0-2.08-.94-2.08-2.08v-2.39c0-.28.24-.53.53-.53s.53.25.53.53v2.39c0,.57.45,1.02,1.02,1.02s1.04-.45,1.05-1.02v-2.39c0-.28.22-.53.52-.53.28,0,.54.25.54.53v2.39c0,1.14-.96,2.08-2.11,2.08Z"/>
        <path class="cls-4" d="M51.58,188.36v2.39c0,.29-.23.53-.52.53s-.53-.24-.53-.53v-2.39c0-.56-.47-1.01-1.04-1.01s-1,.45-1,1.01v2.39s0,.06-.02.1c-.05.24-.27.43-.53.43-.3,0-.53-.24-.53-.53v-3.94c0-.29.23-.53.53-.53.21,0,.4.12.49.31.3-.19.67-.31,1.06-.31,1.16,0,2.09.95,2.09,2.08Z"/>
      </g>
      <path class="cls-4" d="M53.34,190.73v-5.9c0-.3.24-.55.55-.55s.56.25.56.55v3.46l2.05-2.05c.21-.21.57-.21.78,0,.22.22.22.57,0,.78l-1.5,1.5,1.54,1.85c.19.24.16.59-.08.78-.1.09-.23.13-.35.13-.16,0-.32-.07-.42-.2l-1.47-1.78-.55.55v.88c0,.3-.25.55-.56.55s-.55-.25-.55-.55Z"/>
      <g>
        <path class="cls-4" d="M58.14,188.78c.01-1.36,1.07-2.5,2.44-2.5,1.3,0,2.33.97,2.41,2.32v.05s0,.07-.01.09c-.03.24-.24.4-.52.4h-3.18c.05.23.16.49.34.66.21.24.61.42.96.45.36.03.79-.06,1.04-.25.21-.22.62-.19.75-.03.13.14.23.44,0,.65-.49.45-1.08.66-1.79.66-1.37,0-2.43-1.14-2.44-2.5ZM59.23,188.29h2.83c-.1-.4-.61-.99-1.48-1.06-.85.04-1.27.65-1.35,1.06Z"/>
        <path class="cls-4" d="M68.55,188.36v2.39c0,.29-.23.53-.52.53s-.53-.24-.53-.53v-2.39c0-.56-.47-1.01-1.04-1.01s-1,.45-1,1.01v2.39s0,.06-.02.1c-.05.24-.27.43-.53.43-.3,0-.53-.24-.53-.53v-3.94c0-.29.23-.53.53-.53.21,0,.4.12.49.31.3-.19.67-.31,1.06-.31,1.16,0,2.09.95,2.09,2.08Z"/>
        <path class="cls-4" d="M70.07,189.85c.18-.24.53-.27.75-.08.26.22.71.45,1.1.44.27,0,.52-.09.68-.19.14-.12.18-.22.18-.3,0-.05,0-.07-.03-.1-.01-.03-.05-.07-.13-.12-.14-.1-.44-.21-.8-.28h0c-.31-.06-.61-.14-.87-.26-.27-.13-.51-.31-.69-.58-.11-.18-.17-.4-.17-.63,0-.46.26-.85.59-1.1.35-.24.77-.37,1.23-.37.69,0,1.18.33,1.5.55.24.16.31.49.16.74-.16.24-.49.31-.74.14-.32-.21-.6-.37-.92-.37-.25,0-.47.08-.6.18-.13.09-.16.18-.16.23,0,.04,0,.05.02.08.01.02.04.06.11.1.13.09.39.18.73.24h0s.01,0,.01,0c.33.06.64.15.93.29.27.12.54.31.71.59.12.2.19.43.19.66,0,.49-.27.9-.63,1.16-.36.25-.81.4-1.3.4-.78,0-1.38-.37-1.78-.69-.22-.18-.25-.52-.07-.74Z"/>
      </g>
      <path class="cls-4" d="M77.43,186.83c0,.3-.26.55-.56.55h-.25v2.79c.31,0,.55.25.55.56s-.24.55-.55.55c-.61,0-1.11-.5-1.11-1.11v-2.79h-.29c-.31,0-.55-.25-.55-.55s.24-.55.55-.55h.29v-1.45c0-.31.25-.55.56-.55s.55.24.55.55v1.45h.25c.3,0,.56.24.56.55Z"/>
      <g>
        <path class="cls-4" d="M78.23,188.78c.01-1.36,1.07-2.5,2.44-2.5,1.3,0,2.33.97,2.41,2.32v.05s0,.07-.01.09c-.03.24-.24.4-.52.4h-3.18c.05.23.16.49.34.66.21.24.61.42.96.45.36.03.79-.06,1.04-.25.21-.22.62-.19.75-.03.13.14.23.44,0,.65-.49.45-1.08.66-1.79.66-1.37,0-2.43-1.14-2.44-2.5ZM79.32,188.29h2.83c-.1-.4-.61-.99-1.48-1.06-.85.04-1.27.65-1.35,1.06Z"/>
        <path class="cls-4" d="M88.64,188.36v2.39c0,.29-.23.53-.52.53s-.53-.24-.53-.53v-2.39c0-.56-.47-1.01-1.04-1.01s-1,.45-1,1.01v2.39s0,.06-.02.1c-.05.24-.27.43-.53.43-.3,0-.53-.24-.53-.53v-3.94c0-.29.23-.53.53-.53.21,0,.4.12.49.31.3-.19.67-.31,1.06-.31,1.16,0,2.09.95,2.09,2.08Z"/>
        <path class="cls-4" d="M93.09,189.54c.18-.22.51-.25.73-.07.44.36,1.2.78,1.91.77.5,0,.95-.15,1.25-.37s.43-.47.43-.72c0-.13-.03-.22-.09-.32-.06-.1-.15-.2-.3-.3-.29-.19-.78-.36-1.37-.47h-.02c-.47-.09-.91-.21-1.29-.39-.38-.18-.71-.43-.93-.78-.15-.24-.23-.52-.23-.82,0-.6.34-1.12.8-1.46.47-.34,1.08-.53,1.73-.53.96,0,1.67.47,2.18.8.23.16.3.48.14.71-.15.24-.47.31-.71.15-.51-.34-1-.64-1.61-.64-.45,0-.85.14-1.12.34-.27.2-.38.42-.38.63,0,.12.02.2.07.28s.14.17.27.26c.26.18.71.34,1.25.44h.02c.51.1.98.23,1.38.42.41.2.77.46,1,.83.15.24.24.54.24.85,0,.64-.36,1.19-.86,1.55-.49.36-1.14.57-1.85.57-1.08-.01-1.99-.55-2.56-1-.22-.18-.25-.51-.08-.73Z"/>
        <path class="cls-4" d="M99.67,192.62v-3.82h0v-1.99c0-.29.24-.53.53-.53s.51.19.55.41c.37-.24.85-.41,1.36-.41,1.33,0,2.42,1.14,2.42,2.51s-1.09,2.48-2.42,2.48c-.5,0-.98-.15-1.34-.41v1.76c0,.28-.25.54-.57.54-.29,0-.53-.26-.53-.54ZM100.77,188.79c0,.39.13.77.39,1,.25.28.58.42.95.42.34,0,.68-.14.94-.42.23-.23.39-.61.39-1s-.16-.75-.39-1.01c-.26-.27-.6-.41-.94-.41-.37,0-.7.14-.95.41-.26.26-.39.62-.39,1.01Z"/>
      </g>
      <g>
        <path class="cls-4" d="M106.85,185.03c0,.3-.23.55-.54.55s-.54-.25-.54-.55v-.21c0-.3.24-.54.54-.54s.54.24.54.54v.21ZM106.85,186.84v3.9c0,.3-.23.54-.54.54s-.54-.24-.54-.54v-3.9c0-.32.24-.55.54-.55s.54.23.54.55Z"/>
        <path class="cls-4" d="M108.03,188.78c0-1.36,1.07-2.5,2.44-2.5,1.3,0,2.33.97,2.41,2.32v.05s0,.07,0,.09c-.03.24-.24.4-.52.4h-3.18c.05.23.16.49.34.66.21.24.61.42.96.45.36.03.79-.06,1.04-.25.21-.22.62-.19.75-.03.13.14.23.44,0,.65-.49.45-1.08.66-1.79.66-1.37,0-2.43-1.14-2.44-2.5ZM109.12,188.29h2.83c-.1-.4-.61-.99-1.48-1.06-.85.04-1.27.65-1.35,1.06Z"/>
        <path class="cls-4" d="M114.88,184.28c.31,0,.56.25.56.55v5.9c0,.3-.25.55-.56.55s-.55-.25-.55-.55v-5.9c0-.3.25-.55.55-.55Z"/>
      </g>
      <g>
        <path class="cls-4" d="M116.65,188.78c0-1.36,1.07-2.5,2.44-2.5,1.3,0,2.33.97,2.41,2.32v.05s0,.07,0,.09c-.03.24-.24.4-.52.4h-3.18c.05.23.16.49.34.66.21.24.61.42.96.45.36.03.79-.06,1.04-.25.21-.22.62-.19.75-.03.13.14.23.44,0,.65-.49.45-1.08.66-1.79.66-1.37,0-2.43-1.14-2.44-2.5ZM117.74,188.29h2.83c-.1-.4-.61-.99-1.48-1.06-.85.04-1.27.65-1.35,1.06Z"/>
        <path class="cls-4" d="M125.76,186.81c0,.28-.23.53-.53.53-.23,0-.43.06-.6.19-.19.12-.34.29-.46.48-.24.32-.36.7-.41.84v1.9c0,.29-.25.53-.55.53s-.53-.24-.53-.53v-3.94c0-.29.24-.52.53-.52s.55.23.55.52v.07c.06-.07.14-.15.21-.2.33-.22.76-.4,1.26-.39.3,0,.53.23.53.52Z"/>
      </g>
      <g>
        <path class="cls-4" d="M126.61,189.86c.41,0,.75.34.75.75s-.34.74-.75.74-.74-.33-.74-.74.33-.75.74-.75Z"/>
        <path class="cls-4" d="M130.99,190.73v-5.9c0-.31.24-.55.55-.55h1.18c1.93,0,3.49,1.57,3.49,3.49s-1.56,3.51-3.49,3.51h-1.18c-.31,0-.55-.25-.55-.55ZM132.09,190.17h.62c1.32,0,2.38-1.07,2.38-2.4s-1.06-2.38-2.38-2.38h-.62v4.78Z"/>
        <path class="cls-4" d="M138.96,185.03c0,.3-.23.55-.54.55s-.54-.25-.54-.55v-.21c0-.3.24-.54.54-.54s.54.24.54.54v.21ZM138.96,186.84v3.9c0,.3-.23.54-.54.54s-.54-.24-.54-.54v-3.9c0-.32.24-.55.54-.55s.54.23.54.55Z"/>
        <path class="cls-4" d="M140.13,188.78c0-1.36,1.07-2.5,2.44-2.5,1.3,0,2.33.97,2.41,2.32v.05s0,.07,0,.09c-.03.24-.24.4-.52.4h-3.18c.05.23.16.49.34.66.21.24.61.42.96.45.36.03.79-.06,1.04-.25.21-.22.62-.19.75-.03.13.14.23.44,0,.65-.49.45-1.08.66-1.79.66-1.37,0-2.43-1.14-2.44-2.5ZM141.22,188.29h2.83c-.1-.4-.61-.99-1.48-1.06-.85.04-1.27.65-1.35,1.06Z"/>
      </g>
      <g>
        <path class="cls-4" d="M38.31,200.56h-1.23v2.17c0,.3-.25.55-.56.55s-.55-.25-.55-.55v-5.9c0-.31.25-.55.55-.55h1.79c1.19,0,2.15.96,2.15,2.15s-.96,2.13-2.15,2.13ZM37.08,199.45h1.23c.58,0,1.03-.46,1.04-1.02,0-.58-.46-1.04-1.04-1.04h-1.23v2.06Z"/>
        <path class="cls-4" d="M41.04,200.78c.01-1.36,1.07-2.5,2.44-2.5,1.3,0,2.33.97,2.41,2.32v.05s0,.07-.01.09c-.03.24-.24.4-.52.4h-3.18c.05.23.16.49.34.66.21.24.61.42.96.45.36.03.79-.06,1.04-.25.21-.22.62-.19.75-.03.13.14.23.44,0,.65-.49.45-1.08.66-1.79.66-1.37,0-2.43-1.14-2.44-2.5ZM42.13,200.29h2.83c-.1-.4-.61-.99-1.48-1.06-.85.04-1.27.65-1.35,1.06Z"/>
      </g>
      <g>
        <path class="cls-4" d="M50.15,198.81c0,.28-.23.53-.53.53-.23,0-.43.06-.6.19-.19.12-.34.29-.46.48-.24.32-.36.7-.41.84v1.9c0,.29-.25.53-.55.53s-.53-.24-.53-.53v-3.94c0-.29.24-.52.53-.52s.55.23.55.52v.07c.06-.07.14-.15.21-.2.33-.22.76-.4,1.26-.39.3,0,.53.23.53.52Z"/>
        <path class="cls-4" d="M51.02,201.85c.18-.24.53-.27.75-.08.26.22.71.45,1.1.44.27,0,.52-.09.68-.19.14-.12.18-.22.18-.3,0-.05,0-.07-.03-.1-.01-.03-.05-.07-.13-.12-.14-.1-.44-.21-.8-.28h0c-.31-.06-.61-.14-.87-.26-.27-.13-.51-.31-.69-.58-.11-.18-.17-.4-.17-.63,0-.46.26-.85.59-1.1.35-.24.77-.37,1.23-.37.69,0,1.18.33,1.5.55.24.16.31.49.16.74-.16.24-.49.31-.74.14-.32-.21-.6-.37-.92-.37-.25,0-.47.08-.6.18-.13.09-.16.18-.16.23,0,.04,0,.05.02.08.01.02.04.06.11.1.13.09.39.18.73.24h0s.01,0,.01,0c.33.06.64.15.93.29.27.12.54.31.71.59.12.2.19.43.19.66,0,.49-.27.9-.63,1.16-.36.25-.81.4-1.3.4-.78,0-1.38-.37-1.78-.69-.22-.18-.25-.52-.07-.74Z"/>
        <path class="cls-4" d="M56.44,202.55c-.43-.44-.69-1.06-.69-1.76s.26-1.27.69-1.75c.45-.47,1.03-.76,1.72-.76s1.26.29,1.67.76c.45.48.7,1.07.7,1.75s-.25,1.32-.7,1.76c-.41.47-1.01.76-1.67.76s-1.27-.29-1.72-.76ZM56.84,200.79c0,.43.13.78.36,1.06.25.24.58.37.96.37.35,0,.67-.13.92-.37.25-.28.39-.63.39-1.06s-.14-.77-.39-1.04c-.25-.22-.57-.38-.92-.38-.38,0-.71.16-.96.38-.23.27-.36.63-.36,1.04Z"/>
        <path class="cls-4" d="M66.2,200.36v2.39c0,.29-.23.53-.52.53s-.53-.24-.53-.53v-2.39c0-.56-.47-1.01-1.04-1.01s-1,.45-1,1.01v2.39s0,.06-.02.1c-.05.24-.27.43-.53.43-.3,0-.53-.24-.53-.53v-3.94c0-.29.23-.53.53-.53.21,0,.4.12.49.31.3-.19.67-.31,1.06-.31,1.16,0,2.09.95,2.09,2.08Z"/>
        <path class="cls-4" d="M74.94,200.35v2.4c0,.29-.24.53-.53.53s-.54-.24-.54-.53v-2.4c0-.55-.47-1-1.03-1s-1.01.46-1.01,1.03v2.37s-.01.05-.01.07v.03s0,.04-.03.06v.05c-.09.18-.29.32-.5.32-.04,0-.07,0-.1,0-.24-.06-.43-.26-.43-.52v-2.37h0v-1.56c0-.31.24-.54.53-.54.21,0,.4.11.48.3.32-.19.69-.3,1.07-.3.63,0,1.19.26,1.57.69.37-.43.94-.69,1.57-.69,1.15,0,2.08.94,2.08,2.1v2.37c0,.29-.24.53-.53.53s-.54-.24-.54-.53v-2.37c0-.57-.46-1.03-1.01-1.03s-1.02.45-1.04,1Z"/>
        <path class="cls-4" d="M82.05,203.28c-1.14,0-2.08-.94-2.08-2.08v-2.39c0-.28.24-.53.53-.53s.53.25.53.53v2.39c0,.57.45,1.02,1.02,1.02s1.04-.45,1.05-1.02v-2.39c0-.28.22-.53.52-.53.28,0,.54.25.54.53v2.39c0,1.14-.96,2.08-2.11,2.08Z"/>
        <path class="cls-4" d="M85.76,201.85c.18-.24.53-.27.75-.08.26.22.71.45,1.1.44.27,0,.52-.09.68-.19.14-.12.18-.22.18-.3,0-.05-.01-.07-.03-.1,0-.03-.05-.07-.13-.12-.14-.1-.44-.21-.8-.28h0c-.31-.06-.61-.14-.87-.26-.27-.13-.51-.31-.69-.58-.11-.18-.17-.4-.17-.63,0-.46.26-.85.59-1.1.35-.24.77-.37,1.23-.37.69,0,1.18.33,1.5.55.24.16.31.49.16.74-.16.24-.49.31-.74.14-.32-.21-.6-.37-.92-.37-.25,0-.47.08-.6.18-.13.09-.16.18-.16.23,0,.04,0,.05.02.08,0,.02.04.06.11.1.13.09.39.18.73.24h.01s0,0,0,0c.33.06.64.15.93.29.27.12.54.31.71.59.12.2.19.43.19.66,0,.49-.27.9-.63,1.16-.36.25-.81.4-1.3.4-.78,0-1.38-.37-1.78-.69-.22-.18-.25-.52-.07-.74Z"/>
        <path class="cls-4" d="M90.48,201.85c.18-.24.53-.27.75-.08.26.22.71.45,1.1.44.27,0,.52-.09.68-.19.14-.12.18-.22.18-.3,0-.05-.01-.07-.03-.1,0-.03-.05-.07-.13-.12-.14-.1-.44-.21-.8-.28h0c-.31-.06-.61-.14-.87-.26-.27-.13-.51-.31-.69-.58-.11-.18-.17-.4-.17-.63,0-.46.26-.85.59-1.1.35-.24.77-.37,1.23-.37.69,0,1.18.33,1.5.55.24.16.31.49.16.74-.16.24-.49.31-.74.14-.32-.21-.6-.37-.92-.37-.25,0-.47.08-.6.18-.13.09-.16.18-.16.23,0,.04,0,.05.02.08,0,.02.04.06.11.1.13.09.39.18.73.24h.01s0,0,0,0c.33.06.64.15.93.29.27.12.54.31.71.59.12.2.19.43.19.66,0,.49-.27.9-.63,1.16-.36.25-.81.4-1.3.4-.78,0-1.38-.37-1.78-.69-.22-.18-.25-.52-.07-.74Z"/>
        <path class="cls-4" d="M100.49,198.83c0,.3-.26.55-.56.55h-.25v2.79c.31,0,.55.25.55.56s-.24.55-.55.55c-.61,0-1.11-.5-1.11-1.11v-2.79h-.29c-.31,0-.55-.25-.55-.55s.24-.55.55-.55h.29v-1.45c0-.31.25-.55.56-.55s.55.24.55.55v1.45h.25c.3,0,.56.24.56.55Z"/>
      </g>
      <g>
        <path class="cls-4" d="M104.32,198.81c0,.28-.23.53-.53.53-.23,0-.43.06-.6.19-.19.12-.34.29-.46.48-.24.32-.36.7-.41.84v1.9c0,.29-.25.53-.55.53s-.53-.24-.53-.53v-3.94c0-.29.24-.52.53-.52s.55.23.55.52v.07c.06-.07.14-.15.21-.2.33-.22.76-.4,1.26-.39.3,0,.53.23.53.52Z"/>
        <path class="cls-4" d="M106.52,197.03c0,.3-.23.55-.54.55s-.54-.25-.54-.55v-.21c0-.3.24-.54.54-.54s.54.24.54.54v.21ZM106.52,198.84v3.9c0,.3-.23.54-.54.54s-.54-.24-.54-.54v-3.9c0-.32.24-.55.54-.55s.54.23.54.55Z"/>
        <path class="cls-4" d="M112.21,200.36v2.39c0,.29-.23.53-.52.53s-.53-.24-.53-.53v-2.39c0-.56-.47-1.01-1.04-1.01s-1,.45-1,1.01v2.39s0,.06-.02.1c-.05.24-.27.43-.53.43-.3,0-.53-.24-.53-.53v-3.94c0-.29.23-.53.53-.53.21,0,.4.12.49.31.3-.19.67-.31,1.06-.31,1.16,0,2.09.95,2.09,2.08Z"/>
        <path class="cls-4" d="M113.97,202.73v-5.9c0-.3.24-.55.55-.55s.56.25.56.55v3.46l2.05-2.05c.21-.21.57-.21.78,0s.22.57,0,.78l-1.5,1.5,1.54,1.85c.19.24.16.59-.08.78-.1.09-.23.13-.35.13-.16,0-.32-.07-.42-.2l-1.47-1.78-.55.55v.88c0,.3-.25.55-.56.55s-.55-.25-.55-.55Z"/>
      </g>
      <g>
        <path class="cls-4" d="M118.78,200.78c0-1.36,1.07-2.5,2.44-2.5,1.3,0,2.33.97,2.41,2.32v.05s0,.07,0,.09c-.03.24-.24.4-.52.4h-3.18c.05.23.16.49.34.66.21.24.61.42.96.45.36.03.79-.06,1.04-.25.21-.22.62-.19.75-.03.13.14.23.44,0,.65-.49.45-1.08.66-1.79.66-1.37,0-2.43-1.14-2.44-2.5ZM119.86,200.29h2.83c-.1-.4-.61-.99-1.48-1.06-.85.04-1.27.65-1.35,1.06Z"/>
        <path class="cls-4" d="M129.18,200.36v2.39c0,.29-.23.53-.52.53s-.53-.24-.53-.53v-2.39c0-.56-.47-1.01-1.04-1.01s-1,.45-1,1.01v2.39s0,.06-.02.1c-.05.24-.27.43-.53.43-.3,0-.53-.24-.53-.53v-3.94c0-.29.23-.53.53-.53.21,0,.4.12.49.31.3-.19.67-.31,1.06-.31,1.16,0,2.09.95,2.09,2.08Z"/>
        <path class="cls-4" d="M131.58,201.86c.41,0,.75.34.75.75s-.34.74-.75.74-.74-.33-.74-.74.33-.75.74-.75Z"/>
      </g>
    </g>
  </g>
</svg>