<?xml version="1.0" encoding="UTF-8"?>
<svg xmlns="http://www.w3.org/2000/svg" xmlns:xlink="http://www.w3.org/1999/xlink" viewBox="0 0 167.24 260.79">
  <defs>
    <style>
      .cls-1, .cls-2, .cls-3, .cls-4, .cls-5, .cls-6, .cls-7, .cls-8 {
        fill: none;
      }

      .cls-9 {
        fill: #010101;
      }

      .cls-2, .cls-3, .cls-10, .cls-4, .cls-5, .cls-6, .cls-7, .cls-8 {
        stroke: #fff;
      }

      .cls-2, .cls-3, .cls-4, .cls-11, .cls-12, .cls-13, .cls-5, .cls-14, .cls-15, .cls-16, .cls-6, .cls-17, .cls-7, .cls-8 {
        font-family: QuicksandBold-Regular, Quicksand;
        font-size: 10px;
      }

      .cls-2, .cls-14 {
        letter-spacing: -.02em;
      }

      .cls-18 {
        fill: #171717;
      }

      .cls-10 {
        font-size: 12px;
        stroke-miterlimit: 10;
        stroke-width: .15px;
      }

      .cls-10, .cls-19, .cls-11, .cls-12, .cls-13, .cls-14, .cls-15, .cls-16, .cls-17 {
        fill: #fff;
      }

      .cls-10, .cls-20 {
        font-family: Namaku, Namaku;
      }

      .cls-21 {
        clip-path: url(#clippath-1);
      }

      .cls-22 {
        clip-path: url(#clippath-2);
      }

      .cls-4, .cls-15 {
        letter-spacing: -.02em;
      }

      .cls-11, .cls-6 {
        letter-spacing: -.03em;
      }

      .cls-12, .cls-5 {
        letter-spacing: -.04em;
      }

      .cls-13, .cls-7 {
        letter-spacing: -.03em;
      }

      .cls-23 {
        fill: #171715;
      }

      .cls-16, .cls-8 {
        letter-spacing: -.02em;
      }

      .cls-20 {
        font-size: 15px;
      }

      .cls-20, .cls-24 {
        fill: #0a90ce;
      }

      .cls-25 {
        clip-path: url(#clippath);
      }
    </style>
    <clipPath id="clippath">
      <rect class="cls-1" x="0" y="0" width="167.24" height="260.79"/>
    </clipPath>
    <clipPath id="clippath-1">
      <rect class="cls-1" x="0" y="0" width="167.24" height="260.79"/>
    </clipPath>
    <clipPath id="clippath-2">
      <rect class="cls-1" x="0" y="0" width="167.24" height="260.79"/>
    </clipPath>
  </defs>
  <g id="Background">
    <rect class="cls-24" width="167.24" height="260.79"/>
  </g>
  <g id="Rahmen">
    <path class="cls-9" d="M151.9,23.16c9.65,0,9.67-15,0-15s-9.67,15,0,15h0Z"/>
    <path class="cls-9" d="M152.22,254.59c9.65,0,9.67-15,0-15s-9.67,15,0,15h0Z"/>
    <path class="cls-9" d="M14.14,254.72c9.65,0,9.67-15,0-15s-9.67,15,0,15h0Z"/>
    <path class="cls-18" d="M11.56,15.67c18.49.32,36.98.69,55.46,1.04,19.51.36,39.05-.42,58.56-.82,10.18-.21,20.36-.38,30.54-.21l-3.75-3.75c-1.46,11.81-1.7,23.8-1.97,35.69-.33,14.15-.39,28.31-.37,42.46.01,9.3.14,18.61.07,27.91-.06,7.86-.43,15.71-.48,23.57-.07,11.29.08,22.59.37,33.88.56,22.38,1.59,44.74,2.18,67.12.07,2.79.14,5.57.2,8.36l3.75-3.75c-15.41-.13-30.81.06-46.22.48-24.85.69-49.67.84-74.52.24-8.25-.2-16.49-.49-24.74-.73l3.75,3.75c-.56-4.87-.34-9.89-.27-14.78.11-8.38.38-16.76.66-25.14.66-20.11,1.45-40.22,1.83-60.34.16-8.4.26-16.81.05-25.21-.13-5.24-.51-10.46-.61-15.7-.33-17.03-.19-34.08-.18-51.11,0-8.91,0-17.82-.06-26.73-.04-5.94-.04-11.89-.34-17.82-.04-.72-.08-1.43-.15-2.15-.19-1.95-1.59-3.85-3.75-3.75-1.87.08-3.96,1.66-3.75,3.75.48,4.83.39,9.76.44,14.61.09,8.42.1,16.84.11,25.25,0,17.78-.1,35.55.11,53.33.06,5.22.27,10.41.52,15.62.36,7.73.31,15.47.21,23.21-.24,20.03-1.02,40.04-1.7,60.06-.3,8.95-.6,17.9-.79,26.85-.13,5.9-.3,11.84,0,17.74.04.78.09,1.55.18,2.32.24,2.06,1.53,3.69,3.75,3.75,18.27.53,36.53,1.09,54.81,1.16,23.38.09,46.73-.97,70.1-1.19,6.85-.06,13.71-.03,20.56.02,2,.02,3.79-1.73,3.75-3.75-.48-22.44-1.5-44.87-2.16-67.3-.33-11.25-.57-22.51-.6-33.77-.03-10.16.25-20.29.47-30.44.18-8.23-.03-16.48-.05-24.72-.03-13.94,0-27.88.25-41.82.23-12.54.48-25.14,1.72-37.62.11-1.1.23-2.21.37-3.31.25-2.04-1.92-3.72-3.75-3.75-19.14-.32-38.3.42-57.44.81-9.78.2-19.58.45-29.37.27-7.76-.14-15.52-.3-23.28-.45-11.49-.22-22.99-.44-34.48-.63-1.96-.03-3.84,1.75-3.75,3.75s1.65,3.71,3.75,3.75h0Z"/>
    <polygon class="cls-18" points="26.61 14.43 14.5 29.16 14.18 13.04 26.61 14.43"/>
    <polygon class="cls-18" points="140.79 14.16 152.35 27.66 154.57 11.89 140.79 14.16"/>
    <polygon class="cls-18" points="139.48 248.15 153.14 235.93 156.07 248.65 139.48 248.15"/>
    <polygon class="cls-18" points="12.9 235.54 26.24 248.54 12.31 249.36 12.9 235.54"/>
    <rect class="cls-18" width="10.32" height="260.79"/>
    <rect class="cls-18" y="249.36" width="167.24" height="11.43"/>
    <rect class="cls-23" width="167.24" height="10.33"/>
    <rect class="cls-18" x="156.12" width="11.13" height="260.79"/>
    <path class="cls-18" d="M122.85,17.19c0-.85.35-3.85,0-4.78-.94-2.49-3.57-2.81-6.15-2.81H50.54c-2.58,0-5.21.32-6.15,2.81-.35.93,0,3.93,0,4.78l-.28,5.71c-.56,5.31,8.78,4.59,12.32,4.59l20.37.37,6.82-.07h0l6.82.07,20.37-.37c3.54,0,12.88.72,12.32-4.59l-.28-5.71Z"/>
  </g>
  <g id="Kategorie_Name" data-name="Kategorie Name">
    <text class="cls-20" transform="translate(48.55 22.56) scale(1 1.09)"><tspan x="0" y="0">Wahrheit</tspan></text>
  </g>
  <g id="Schlücke">
    <text class="cls-10" transform="translate(4.4 252.82)"><tspan x="0" y="0">+3</tspan></text>
    <text class="cls-10" transform="translate(147.68 19.77)"><tspan x="0" y="0">+3</tspan></text>
  </g>
  <g id="Motive">
    <path class="cls-18" d="M121.12,85.66c1.25-1.51,1.86-3.54,1.66-5.5-.09-.84-.71-1.95-.74-2.48-.03-.51.66-2.12.74-2.92.55-5.42-3.16-9.95-8.4-10.93h-2.76c-.67.09-2.11.8-2.67.76-.49-.03-1.61-.7-2.23-.76h-2.3c-1.99.58-3.73,1.52-4.9,3.3l-.22.07c-3.14-1.38-6.45-2.28-9.82-2.89l-5.26-.48h-1.22l-5.26.48c-3.37.61-6.69,1.51-9.82,2.89-.77-.66-1.37-1.54-2.29-2.15-.88-.58-1.87-.85-2.83-1.22h-2.3c-.62.07-1.75.73-2.23.76-.55.04-2-.68-2.67-.76h-2.76c-4.01.48-7.94,4.41-8.42,8.42-.1.86.08,1.88,0,2.76.09.67.8,2.12.76,2.67-.03.49-.7,1.61-.76,2.23v2.3c.37.97.64,1.96,1.22,2.84.62.94,1.5,1.47,2.14,2.29l-2.1,5.87-1.27,7.23v5.21c.24.88.2,1.89.33,2.81,3.69,27.2,34.17,42.37,58.18,28.7,17.29-9.85,24.78-31.45,16.49-49.81,0-.25,1.37-1.3,1.69-1.68ZM97.36,83.48c8.97-1.08,11.57,11.9,3.02,14.35-10.18,2.93-13.18-13.13-3.02-14.35ZM82.67,98.18c7.9-.95,10.86,9,5.61,13.07-.71.55-1.57.99-2.59,1.28-2.87.82-5.16.15-6.76-1.28-4.07-3.65-3.56-12.19,3.74-13.07ZM71,97.83c-10.18,2.93-13.18-13.13-3.02-14.35,8.96-1.08,11.57,11.9,3.02,14.35ZM54.47,79.16c-.66.99-.14,1.4-.3,2.29-.43,2.38-3.87,2.69-4.64.34-.69-2.07,1.29-2.5,1.04-4.56-.09-.73-.68-1.27-.93-1.98-1.35-3.84,2.37-7.56,6.21-6.21.71.25,1.25.84,1.98.93,1.77.22,2.02-.94,3.21-1.08,2.27-.27,3.82,1.89,2.44,3.82-1.11,1.56-2.5.48-3.66,1.23-1.09.7-1.2,2.24-2.12,3.16-.91.91-2.6,1.1-3.23,2.05ZM104.59,123.63c-4.77,5.53-13.51,8.74-20.93,8.84-.24,0-.48,0-.72,0-.36,0-.72-.02-1.08-.04-6.5-.38-15.14-3.85-19.36-8.96-3.66-4.43-1.33-11.35,4.4-12.13.48-.07.92-.1,1.33-.1,3.33,0,4.34,2.06,7.08,3.85,4.94,3.23,11.68,3.24,16.62,0,2.11-1.38,3.38-3.45,6.17-3.78,6.92-.82,11.1,6.97,6.49,12.31ZM117.58,79.86c1.31,2.9-2.36,4.82-4.11,2.58-.71-.9-.34-1.47-.48-2.44-.24-1.72-2.41-1.86-3.45-2.9-1.08-1.08-1.13-3.23-2.8-3.56-.97-.19-1.49.38-2.6-.46-1.7-1.28-.85-3.99,1.29-4.2,1.75-.17,2.06,1.23,3.83,1.08.9-.07,1.32-.65,2.13-.93,1.71-.6,3.79-.16,5.08,1.13,1.25,1.25,1.72,3.28,1.17,4.96-.31.95-.92,1.33-.97,2.4-.06,1.34.46,1.33.91,2.32Z"/>
  </g>
  <g id="Kategorien">
    <g>
      <path class="cls-19" d="M16.88,11.24c-.78-.5-1.64-.67-2.56-.59-1.24.1-2.47.91-3.06,2-.13.23-.13.29.07.48.23.22.95.76,1.22.92.13.07.25.12.39.05.49-.52.81-1.14,1.61-1.2.66-.05,1.55.34,1.31,1.14-.15.5-.67.63-1.07.86-.58.35-1.31,1.02-1.37,1.73-.01.14-.02.52,0,.64.03.16.19.21.33.22.39.03,1.51.05,1.87,0,.3-.05.23-.25.3-.46.22-.67.92-.87,1.42-1.25,1.71-1.3,1.2-3.47-.46-4.54Z"/>
      <rect class="cls-19" x="13.41" y="18.19" width="2.49" height="2.49" rx=".42" ry=".42"/>
    </g>
    <g>
      <path class="cls-19" d="M153.52,243.89c-.78-.5-1.64-.67-2.56-.59-1.24.1-2.47.91-3.06,2-.13.23-.13.29.07.48.23.22.95.76,1.22.92.13.07.25.12.39.05.49-.52.81-1.14,1.61-1.2.66-.05,1.55.34,1.31,1.14-.15.5-.67.63-1.07.86-.58.35-1.31,1.02-1.37,1.73-.01.14-.02.52,0,.64.03.16.19.21.33.22.39.03,1.51.05,1.87,0,.3-.05.23-.25.3-.46.22-.67.92-.87,1.42-1.25,1.71-1.3,1.2-3.47-.46-4.54Z"/>
      <rect class="cls-19" x="150.05" y="250.83" width="2.49" height="2.49" rx=".42" ry=".42"/>
    </g>
  </g>
  <g id="Text_Karte" data-name="Text Karte">
    <g>
      <g class="cls-25">
        <text class="cls-8" transform="translate(31.23 179.29)"><tspan x="0" y="0">Die Gruppe wählt </tspan></text>
        <text class="cls-6" transform="translate(117.74 179.29)"><tspan x="0" y="0">de</tspan></text>
        <text class="cls-3" transform="translate(129.88 179.29)"><tspan x="0" y="0">n </tspan></text>
      </g>
      <text class="cls-16" transform="translate(31.23 179.29)"><tspan x="0" y="0">Die Gruppe wählt </tspan></text>
      <text class="cls-11" transform="translate(117.74 179.29)"><tspan x="0" y="0">de</tspan></text>
      <text class="cls-17" transform="translate(129.88 179.29)"><tspan x="0" y="0">n </tspan></text>
      <g class="cls-21">
        <text class="cls-3" transform="translate(26.73 191.28)"><tspan x="0" y="0">u</tspan></text>
        <text class="cls-8" transform="translate(32.43 191.28)"><tspan x="0" y="0">nlus</tspan></text>
        <text class="cls-8" transform="translate(51.45 191.28)"><tspan x="0" y="0">tigs</tspan></text>
        <text class="cls-3" transform="translate(69.12 191.28)"><tspan x="0" y="0">t</tspan></text>
        <text class="cls-4" transform="translate(72.53 191.28)"><tspan x="0" y="0">en Sp</tspan></text>
        <text class="cls-2" transform="translate(99.7 191.28)"><tspan x="0" y="0">iel</tspan></text>
        <text class="cls-5" transform="translate(110.95 191.28)"><tspan x="0" y="0">er</tspan></text>
        <text class="cls-8" transform="translate(119.91 191.28)"><tspan x="0" y="0">. Die</tspan></text>
        <text class="cls-3" transform="translate(140.51 191.28)"><tspan x="0" y="0"> </tspan></text>
      </g>
      <text class="cls-17" transform="translate(26.73 191.28)"><tspan x="0" y="0">u</tspan></text>
      <text class="cls-16" transform="translate(32.43 191.28)"><tspan x="0" y="0">nlus</tspan></text>
      <text class="cls-16" transform="translate(51.45 191.28)"><tspan x="0" y="0">tigs</tspan></text>
      <text class="cls-17" transform="translate(69.12 191.28)"><tspan x="0" y="0">t</tspan></text>
      <text class="cls-15" transform="translate(72.53 191.28)"><tspan x="0" y="0">en Sp</tspan></text>
      <text class="cls-14" transform="translate(99.7 191.28)"><tspan x="0" y="0">iel</tspan></text>
      <text class="cls-12" transform="translate(110.95 191.28)"><tspan x="0" y="0">er</tspan></text>
      <text class="cls-16" transform="translate(119.91 191.28)"><tspan x="0" y="0">. Die</tspan></text>
      <text class="cls-17" transform="translate(140.51 191.28)"><tspan x="0" y="0"> </tspan></text>
      <g class="cls-22">
        <text class="cls-7" transform="translate(34.93 203.28)"><tspan x="0" y="0">Pe</tspan></text>
        <text class="cls-8" transform="translate(46.14 203.28)"><tspan x="0" y="0">rson muss t</tspan></text>
        <text class="cls-2" transform="translate(100.31 203.28)"><tspan x="0" y="0">rink</tspan></text>
        <text class="cls-8" transform="translate(118.2 203.28)"><tspan x="0" y="0">en</tspan></text>
        <text class="cls-3" transform="translate(130.01 203.28)"><tspan x="0" y="0">.</tspan></text>
      </g>
      <text class="cls-13" transform="translate(34.93 203.28)"><tspan x="0" y="0">Pe</tspan></text>
      <text class="cls-16" transform="translate(46.14 203.28)"><tspan x="0" y="0">rson muss t</tspan></text>
      <text class="cls-14" transform="translate(100.31 203.28)"><tspan x="0" y="0">rink</tspan></text>
      <text class="cls-16" transform="translate(118.2 203.28)"><tspan x="0" y="0">en.</tspan></text>
    </g>
  </g>
</svg>