<?xml version="1.0" encoding="UTF-8"?>
<svg xmlns="http://www.w3.org/2000/svg" xmlns:xlink="http://www.w3.org/1999/xlink" viewBox="0 0 167.24 260.79">
  <defs>
    <style>
      .cls-1, .cls-2, .cls-3, .cls-4, .cls-5 {
        fill: none;
      }

      .cls-6 {
        fill: #010101;
      }

      .cls-2, .cls-7, .cls-3, .cls-4, .cls-5 {
        stroke: #fff;
      }

      .cls-2, .cls-3, .cls-8, .cls-9, .cls-10, .cls-4, .cls-11, .cls-5 {
        font-family: QuicksandBold-Regular, Quicksand;
        font-size: 10px;
      }

      .cls-12 {
        fill: #171717;
      }

      .cls-7 {
        font-size: 12px;
        stroke-miterlimit: 10;
        stroke-width: .15px;
      }

      .cls-7, .cls-13, .cls-8, .cls-9, .cls-10, .cls-11 {
        fill: #fff;
      }

      .cls-7, .cls-14 {
        font-family: Namaku, Namaku;
      }

      .cls-3, .cls-9 {
        letter-spacing: -.02em;
      }

      .cls-8, .cls-4 {
        letter-spacing: -.03em;
      }

      .cls-15 {
        fill: #171715;
      }

      .cls-10, .cls-5 {
        letter-spacing: -.02em;
      }

      .cls-14 {
        font-size: 15px;
      }

      .cls-14, .cls-16 {
        fill: #0a90ce;
      }

      .cls-17 {
        clip-path: url(#clippath);
      }
    </style>
    <clipPath id="clippath">
      <rect class="cls-1" x="0" y="0" width="167.24" height="260.79"/>
    </clipPath>
  </defs>
  <g id="Background">
    <rect class="cls-16" width="167.24" height="260.79"/>
  </g>
  <g id="Rahmen">
    <path class="cls-6" d="M151.9,23.16c9.65,0,9.67-15,0-15s-9.67,15,0,15h0Z"/>
    <path class="cls-6" d="M152.22,254.59c9.65,0,9.67-15,0-15s-9.67,15,0,15h0Z"/>
    <path class="cls-6" d="M14.14,254.72c9.65,0,9.67-15,0-15s-9.67,15,0,15h0Z"/>
    <path class="cls-12" d="M11.56,15.67c18.49.32,36.98.69,55.46,1.04,19.51.36,39.05-.42,58.56-.82,10.18-.21,20.36-.38,30.54-.21l-3.75-3.75c-1.46,11.81-1.7,23.8-1.97,35.69-.33,14.15-.39,28.31-.37,42.46.01,9.3.14,18.61.07,27.91-.06,7.86-.43,15.71-.48,23.57-.07,11.29.08,22.59.37,33.88.56,22.38,1.59,44.74,2.18,67.12.07,2.79.14,5.57.2,8.36l3.75-3.75c-15.41-.13-30.81.06-46.22.48-24.85.69-49.67.84-74.52.24-8.25-.2-16.49-.49-24.74-.73l3.75,3.75c-.56-4.87-.34-9.89-.27-14.78.11-8.38.38-16.76.66-25.14.66-20.11,1.45-40.22,1.83-60.34.16-8.4.26-16.81.05-25.21-.13-5.24-.51-10.46-.61-15.7-.33-17.03-.19-34.08-.18-51.11,0-8.91,0-17.82-.06-26.73-.04-5.94-.04-11.89-.34-17.82-.04-.72-.08-1.43-.15-2.15-.19-1.95-1.59-3.85-3.75-3.75-1.87.08-3.96,1.66-3.75,3.75.48,4.83.39,9.76.44,14.61.09,8.42.1,16.84.11,25.25,0,17.78-.1,35.55.11,53.33.06,5.22.27,10.41.52,15.62.36,7.73.31,15.47.21,23.21-.24,20.03-1.02,40.04-1.7,60.06-.3,8.95-.6,17.9-.79,26.85-.13,5.9-.3,11.84,0,17.74.04.78.09,1.55.18,2.32.24,2.06,1.53,3.69,3.75,3.75,18.27.53,36.53,1.09,54.81,1.16,23.38.09,46.73-.97,70.1-1.19,6.85-.06,13.71-.03,20.56.02,2,.02,3.79-1.73,3.75-3.75-.48-22.44-1.5-44.87-2.16-67.3-.33-11.25-.57-22.51-.6-33.77-.03-10.16.25-20.29.47-30.44.18-8.23-.03-16.48-.05-24.72-.03-13.94,0-27.88.25-41.82.23-12.54.48-25.14,1.72-37.62.11-1.1.23-2.21.37-3.31.25-2.04-1.92-3.72-3.75-3.75-19.14-.32-38.3.42-57.44.81-9.78.2-19.58.45-29.37.27-7.76-.14-15.52-.3-23.28-.45-11.49-.22-22.99-.44-34.48-.63-1.96-.03-3.84,1.75-3.75,3.75s1.65,3.71,3.75,3.75h0Z"/>
    <polygon class="cls-12" points="26.61 14.43 14.5 29.16 14.18 13.04 26.61 14.43"/>
    <polygon class="cls-12" points="140.79 14.16 152.35 27.66 154.57 11.89 140.79 14.16"/>
    <polygon class="cls-12" points="139.48 248.15 153.14 235.93 156.07 248.65 139.48 248.15"/>
    <polygon class="cls-12" points="12.9 235.54 26.24 248.54 12.31 249.36 12.9 235.54"/>
    <rect class="cls-12" width="10.32" height="260.79"/>
    <rect class="cls-12" y="249.36" width="167.24" height="11.43"/>
    <rect class="cls-15" width="167.24" height="10.33"/>
    <rect class="cls-12" x="156.12" width="11.13" height="260.79"/>
    <path class="cls-12" d="M122.85,17.19c0-.85.35-3.85,0-4.78-.94-2.49-3.57-2.81-6.15-2.81H50.54c-2.58,0-5.21.32-6.15,2.81-.35.93,0,3.93,0,4.78l-.28,5.71c-.56,5.31,8.78,4.59,12.32,4.59l20.37.37,6.82-.07h0l6.82.07,20.37-.37c3.54,0,12.88.72,12.32-4.59l-.28-5.71Z"/>
  </g>
  <g id="Kategorie_Name" data-name="Kategorie Name">
    <text class="cls-14" transform="translate(48.55 22.56) scale(1 1.09)"><tspan x="0" y="0">Wahrheit</tspan></text>
  </g>
  <g id="Schlücke">
    <text class="cls-7" transform="translate(4.4 252.82)"><tspan x="0" y="0">+3</tspan></text>
    <text class="cls-7" transform="translate(147.68 19.77)"><tspan x="0" y="0">+3</tspan></text>
  </g>
  <g id="Motive">
    <path class="cls-12" d="M112.78,92.52c-.91-.2-1.82-.3-2.73-.47-.91-1.6-1.63-3.33-2.54-4.93-1.66-2.96-4.54-4.24-7.79-2.78-.28.13-1.42.88-1.63.74-.09-.06-.81-1.6-1.02-1.9-.94-1.33-2.21-1.7-3.8-1.66-.32-.51-2.69-2.68-2.75-3.01-.03-.16.09-.79.06-1.1-.15-1.76-1.62-3.18-3.36-3.36-2.34.14-4.89-.18-7.2,0-2.19.17-3.72,2.37-3.32,4.51-.82.84-1.56,1.77-2.37,2.61-.6.63-.73.32-1.5.4-1.22.11-2.22.89-2.84,1.9-.16.26-.73,1.55-.84,1.62-.1.06-.15.02-.24,0-.51-.12-1.33-.75-1.96-.97-2.04-.72-4.31-.3-5.91,1.17-.71.65-1.13,1.54-1.59,2.37-.8,1.46-1.47,2.99-2.3,4.44-12.04,1.1-20.47,12.41-17.92,24.33,2.34,10.96,13.28,17.84,24.23,15.33,10.03-2.3,16.73-11.99,15.39-22.22-.35-2.64-1.27-5.21-2.57-7.52l2.93-5.73c1.23-3.15-.35-6.41-3.44-7.59.72-1.54,1.61-2.65,1.08-4.44-.05-.19-.37-.82-.36-.88.03-.15,1.94-2.22,2.09-2.25.07-.01.55.24.72.28,1.5.38,5.81.29,7.49.18.68-.04,1.27-.22,1.88-.48.22.45,1.96,1.94,2.01,2.27,0,.06-.33.79-.39,1-.44,1.71.39,2.83,1.12,4.28-3.21,1.38-4.72,4.52-3.34,7.84l2.83,5.52c-6.1,10.47-1.55,24.07,9.6,28.7,10.48,4.35,22.47-.72,26.54-11.24,4.44-11.47-2.35-24.27-14.3-26.93ZM68.11,92.16c-.19-.8-.3-1.56.3-2.23,1.33-1.49,3.88.04,3,2.05-.3.69-.87.83-1.5,1.11l-1.23,3.16c-.15.11-2.15-1.04-2.45-1.22l1.88-2.87ZM71.12,119.21c-5.26,9.15-18.52,9.38-24.13.44-5.81-9.24.69-21.4,11.56-21.63,10.97-.24,18.08,11.61,12.57,21.19ZM74.53,87.96l-4.11-2.06c.42-1.02.91-2.23,2.13-2.45-.05,1.21.96,2.04,2.13,1.62.21-.08.34-.24.55-.27.51,1.21-.3,2.1-.71,3.16ZM86.91,79.17c.14.19.4.35.51.52.05.07.13.07,0,.16-.14.1-.56.18-.75.2-1.52.14-4.58.14-6.09,0-.15-.01-.83-.16-.83-.28,1.57-1.13,1.28-3.33-.87-3.2.39-.72,1.14-1.05,1.93-1.11,1.46-.11,4.43-.15,5.85.01.68.08,1.38.5,1.71,1.1-1.59-.14-2.44,1.29-1.46,2.6ZM98.43,89.63c.97.54.96,1.57.7,2.53l1.88,2.87c-.3.17-2.29,1.33-2.45,1.22l-1.23-3.16c-.56-.24-1.14-.43-1.45-1.01-.89-1.68.86-3.41,2.54-2.46ZM92.72,87.96c-.43-1.07-1.21-1.94-.71-3.16.73.39,1.42.62,2.13.03.48-.4.46-.72.56-1.26.02-.1-.06-.14.12-.12,1,.14,1.71,1.61,2.02,2.45l-4.11,2.06ZM119.82,120.32c-6.49,9.16-20.65,7.31-24.65-3.15-3.48-9.08,3.18-18.96,12.87-19.15,11.54-.22,18.49,12.83,11.78,22.3Z"/>
  </g>
  <g id="Kategorien">
    <g>
      <path class="cls-13" d="M16.88,11.24c-.78-.5-1.64-.67-2.56-.59-1.24.1-2.47.91-3.06,2-.13.23-.13.29.07.48.23.22.95.76,1.22.92.13.07.25.12.39.05.49-.52.81-1.14,1.61-1.2.66-.05,1.55.34,1.31,1.14-.15.5-.67.63-1.07.86-.58.35-1.31,1.02-1.37,1.73-.01.14-.02.52,0,.64.03.16.19.21.33.22.39.03,1.51.05,1.87,0,.3-.05.23-.25.3-.46.22-.67.92-.87,1.42-1.25,1.71-1.3,1.2-3.47-.46-4.54Z"/>
      <rect class="cls-13" x="13.41" y="18.19" width="2.49" height="2.49" rx=".42" ry=".42"/>
    </g>
    <g>
      <path class="cls-13" d="M153.52,243.89c-.78-.5-1.64-.67-2.56-.59-1.24.1-2.47.91-3.06,2-.13.23-.13.29.07.48.23.22.95.76,1.22.92.13.07.25.12.39.05.49-.52.81-1.14,1.61-1.2.66-.05,1.55.34,1.31,1.14-.15.5-.67.63-1.07.86-.58.35-1.31,1.02-1.37,1.73-.01.14-.02.52,0,.64.03.16.19.21.33.22.39.03,1.51.05,1.87,0,.3-.05.23-.25.3-.46.22-.67.92-.87,1.42-1.25,1.71-1.3,1.2-3.47-.46-4.54Z"/>
      <rect class="cls-13" x="150.05" y="250.83" width="2.49" height="2.49" rx=".42" ry=".42"/>
    </g>
  </g>
  <g id="Text_Karte" data-name="Text Karte">
    <g>
      <g class="cls-17">
        <text class="cls-2" transform="translate(33.63 179.29)"><tspan x="0" y="0">W</tspan></text>
        <text class="cls-5" transform="translate(43.75 179.29)"><tspan x="0" y="0">as is</tspan></text>
        <text class="cls-5" transform="translate(64.73 179.29)"><tspan x="0" y="0">t d</tspan></text>
        <text class="cls-3" transform="translate(77.59 179.29)"><tspan x="0" y="0">ein </tspan></text>
        <text class="cls-4" transform="translate(94.81 179.29)"><tspan x="0" y="0">Fe</tspan></text>
        <text class="cls-5" transform="translate(106.01 179.29)"><tspan x="0" y="0">tisch</tspan></text>
        <text class="cls-2" transform="translate(128.27 179.29)"><tspan x="0" y="0">?</tspan></text>
      </g>
      <text class="cls-11" transform="translate(33.63 179.29)"><tspan x="0" y="0">W</tspan></text>
      <text class="cls-10" transform="translate(43.75 179.29)"><tspan x="0" y="0">as is</tspan></text>
      <text class="cls-10" transform="translate(64.73 179.29)"><tspan x="0" y="0">t d</tspan></text>
      <text class="cls-9" transform="translate(77.59 179.29)"><tspan x="0" y="0">ein </tspan></text>
      <text class="cls-8" transform="translate(94.81 179.29)"><tspan x="0" y="0">Fe</tspan></text>
      <text class="cls-10" transform="translate(106.01 179.29)"><tspan x="0" y="0">tisch</tspan></text>
      <text class="cls-11" transform="translate(128.27 179.29)"><tspan x="0" y="0">?</tspan></text>
    </g>
  </g>
</svg>