<?xml version="1.0" encoding="UTF-8"?>
<svg xmlns="http://www.w3.org/2000/svg" xmlns:xlink="http://www.w3.org/1999/xlink" viewBox="0 0 167.24 260.79">
  <defs>
    <style>
      .cls-1, .cls-2, .cls-3, .cls-4, .cls-5, .cls-6 {
        fill: none;
      }

      .cls-7 {
        fill: #010101;
      }

      .cls-2 {
        letter-spacing: -.02em;
      }

      .cls-2, .cls-3, .cls-8, .cls-4, .cls-5, .cls-6 {
        stroke: #fff;
      }

      .cls-2, .cls-3, .cls-9, .cls-10, .cls-4, .cls-5, .cls-11, .cls-6 {
        font-family: QuicksandBold-Regular, Quicksand;
        font-size: 10px;
      }

      .cls-12 {
        fill: #171717;
      }

      .cls-8 {
        font-size: 12px;
        stroke-miterlimit: 10;
        stroke-width: .15px;
      }

      .cls-8, .cls-13, .cls-9, .cls-10, .cls-11 {
        fill: #fff;
      }

      .cls-8, .cls-14 {
        font-family: Namaku, Namaku;
      }

      .cls-15 {
        clip-path: url(#clippath-1);
      }

      .cls-9, .cls-4 {
        letter-spacing: -.04em;
      }

      .cls-16 {
        fill: #171715;
      }

      .cls-10, .cls-6 {
        letter-spacing: -.02em;
      }

      .cls-14 {
        font-size: 15px;
      }

      .cls-14, .cls-17 {
        fill: #0a90ce;
      }

      .cls-5 {
        letter-spacing: -.03em;
      }

      .cls-18 {
        clip-path: url(#clippath);
      }
    </style>
    <clipPath id="clippath">
      <rect class="cls-1" x="0" y="0" width="167.24" height="260.79"/>
    </clipPath>
    <clipPath id="clippath-1">
      <rect class="cls-1" x="0" y="0" width="167.24" height="260.79"/>
    </clipPath>
  </defs>
  <g id="Background">
    <rect class="cls-17" width="167.24" height="260.79"/>
  </g>
  <g id="Rahmen">
    <path class="cls-7" d="M151.9,23.16c9.65,0,9.67-15,0-15s-9.67,15,0,15h0Z"/>
    <path class="cls-7" d="M152.22,254.59c9.65,0,9.67-15,0-15s-9.67,15,0,15h0Z"/>
    <path class="cls-7" d="M14.14,254.72c9.65,0,9.67-15,0-15s-9.67,15,0,15h0Z"/>
    <path class="cls-12" d="M11.56,15.67c18.49.32,36.98.69,55.46,1.04,19.51.36,39.05-.42,58.56-.82,10.18-.21,20.36-.38,30.54-.21l-3.75-3.75c-1.46,11.81-1.7,23.8-1.97,35.69-.33,14.15-.39,28.31-.37,42.46.01,9.3.14,18.61.07,27.91-.06,7.86-.43,15.71-.48,23.57-.07,11.29.08,22.59.37,33.88.56,22.38,1.59,44.74,2.18,67.12.07,2.79.14,5.57.2,8.36l3.75-3.75c-15.41-.13-30.81.06-46.22.48-24.85.69-49.67.84-74.52.24-8.25-.2-16.49-.49-24.74-.73l3.75,3.75c-.56-4.87-.34-9.89-.27-14.78.11-8.38.38-16.76.66-25.14.66-20.11,1.45-40.22,1.83-60.34.16-8.4.26-16.81.05-25.21-.13-5.24-.51-10.46-.61-15.7-.33-17.03-.19-34.08-.18-51.11,0-8.91,0-17.82-.06-26.73-.04-5.94-.04-11.89-.34-17.82-.04-.72-.08-1.43-.15-2.15-.19-1.95-1.59-3.85-3.75-3.75-1.87.08-3.96,1.66-3.75,3.75.48,4.83.39,9.76.44,14.61.09,8.42.1,16.84.11,25.25,0,17.78-.1,35.55.11,53.33.06,5.22.27,10.41.52,15.62.36,7.73.31,15.47.21,23.21-.24,20.03-1.02,40.04-1.7,60.06-.3,8.95-.6,17.9-.79,26.85-.13,5.9-.3,11.84,0,17.74.04.78.09,1.55.18,2.32.24,2.06,1.53,3.69,3.75,3.75,18.27.53,36.53,1.09,54.81,1.16,23.38.09,46.73-.97,70.1-1.19,6.85-.06,13.71-.03,20.56.02,2,.02,3.79-1.73,3.75-3.75-.48-22.44-1.5-44.87-2.16-67.3-.33-11.25-.57-22.51-.6-33.77-.03-10.16.25-20.29.47-30.44.18-8.23-.03-16.48-.05-24.72-.03-13.94,0-27.88.25-41.82.23-12.54.48-25.14,1.72-37.62.11-1.1.23-2.21.37-3.31.25-2.04-1.92-3.72-3.75-3.75-19.14-.32-38.3.42-57.44.81-9.78.2-19.58.45-29.37.27-7.76-.14-15.52-.3-23.28-.45-11.49-.22-22.99-.44-34.48-.63-1.96-.03-3.84,1.75-3.75,3.75s1.65,3.71,3.75,3.75h0Z"/>
    <polygon class="cls-12" points="26.61 14.43 14.5 29.16 14.18 13.04 26.61 14.43"/>
    <polygon class="cls-12" points="140.79 14.16 152.35 27.66 154.57 11.89 140.79 14.16"/>
    <polygon class="cls-12" points="139.48 248.15 153.14 235.93 156.07 248.65 139.48 248.15"/>
    <polygon class="cls-12" points="12.9 235.54 26.24 248.54 12.31 249.36 12.9 235.54"/>
    <rect class="cls-12" width="10.32" height="260.79"/>
    <rect class="cls-12" y="249.36" width="167.24" height="11.43"/>
    <rect class="cls-16" width="167.24" height="10.33"/>
    <rect class="cls-12" x="156.12" width="11.13" height="260.79"/>
    <path class="cls-12" d="M122.85,17.19c0-.85.35-3.85,0-4.78-.94-2.49-3.57-2.81-6.15-2.81H50.54c-2.58,0-5.21.32-6.15,2.81-.35.93,0,3.93,0,4.78l-.28,5.71c-.56,5.31,8.78,4.59,12.32,4.59l20.37.37,6.82-.07h0l6.82.07,20.37-.37c3.54,0,12.88.72,12.32-4.59l-.28-5.71Z"/>
  </g>
  <g id="Kategorie_Name" data-name="Kategorie Name">
    <text class="cls-14" transform="translate(48.55 22.56) scale(1 1.09)"><tspan x="0" y="0">Wahrheit</tspan></text>
  </g>
  <g id="Schlücke">
    <text class="cls-8" transform="translate(4.53 252.82)"><tspan x="0" y="0">+5</tspan></text>
    <text class="cls-8" transform="translate(147.81 19.77)"><tspan x="0" y="0">+5</tspan></text>
  </g>
  <g id="Motive">
    <path class="cls-12" d="M115.81,77.93c2.36-.83,7.11-4.15,9.43-4.15,2.74,0,5.2,3.26,3.71,5.79-1.13,1.92-9.79,5.6-12.28,7.1-.36.22-1.22.64-1.34.99-.48,7.13-.78,14.26-1.08,21.4-.25,5.94-.7,11.84-.52,17.84.11,3.86,1.26,8.07.03,11.89-.55,1.7-2.51,2.58-4.14,1.78-2.61-1.29-4.54-9.36-4.66-12.13-.29-12.34,2.04-24.53,2.84-36.81l-10.28,5.6-.06,12.1c.41,8.15,1.59,16.89.19,24.97-.24,1.41-.7,4.29-1.9,5.08-2.82,1.86-4.02-1.63-4.75-3.71-3.75-10.64-1.25-22.9-1.81-33.97l-9.05,4.82c.28,7.15,1.48,15.27-.43,22.25-.47,1.69-1.26,4.42-3.54,4.19-1.78-.18-2.71-3.69-3.12-5.17-1.42-5.07-1.63-11.07-1.16-16.27-.51-.09-.87.18-1.3.38-2.89,1.34-5.78,3.72-8.72,5.1-.22,6.19.17,13.06-1.79,19.01-1.33,4.03-4.25,8.88-6.73,2.19-1.73-4.67-.5-10.66-.58-15.57l-12.21,7.56c-2.35.81-3.69-2.46-1.88-3.95l14.56-10.49c.76-10.93,1.59-21.86,2.92-32.73.39-3.21.75-8.71,1.59-11.59.98-3.36,6.55-2.62,6.91.44l-2.85,37.85,10.03-6.63.04-20.63c.6-3.67.29-7.9,1.16-11.5.94-3.89,5.58-2.4,6.28,1.24.81,4.22.26,8.87.85,13.1l-.27,12.54c.4.1.61-.11.92-.24,2.72-1.21,5.45-3.86,8.34-4.96l.03-10.17c.56-3.39.23-7.19.81-10.55.3-1.71,1.03-3.29,2.94-3.52,5-.61,3.96,5.18,4.54,8.39l.25,10.73,11.22-6.22c.21-.45.27-.95.37-1.44.75-3.85.54-8.49,1.44-12.25.5-2.07,1.93-3.47,4.17-2.59s1.19,3.42,1.13,5.04c-.09,2.63-.2,5.26-.25,7.89Z"/>
  </g>
  <g id="Kategorien">
    <g>
      <path class="cls-13" d="M16.88,11.24c-.78-.5-1.64-.67-2.56-.59-1.24.1-2.47.91-3.06,2-.13.23-.13.29.07.48.23.22.95.76,1.22.92.13.07.25.12.39.05.49-.52.81-1.14,1.61-1.2.66-.05,1.55.34,1.31,1.14-.15.5-.67.63-1.07.86-.58.35-1.31,1.02-1.37,1.73-.01.14-.02.52,0,.64.03.16.19.21.33.22.39.03,1.51.05,1.87,0,.3-.05.23-.25.3-.46.22-.67.92-.87,1.42-1.25,1.71-1.3,1.2-3.47-.46-4.54Z"/>
      <rect class="cls-13" x="13.41" y="18.19" width="2.49" height="2.49" rx=".42" ry=".42"/>
    </g>
    <g>
      <path class="cls-13" d="M153.52,243.89c-.78-.5-1.64-.67-2.56-.59-1.24.1-2.47.91-3.06,2-.13.23-.13.29.07.48.23.22.95.76,1.22.92.13.07.25.12.39.05.49-.52.81-1.14,1.61-1.2.66-.05,1.55.34,1.31,1.14-.15.5-.67.63-1.07.86-.58.35-1.31,1.02-1.37,1.73-.01.14-.02.52,0,.64.03.16.19.21.33.22.39.03,1.51.05,1.87,0,.3-.05.23-.25.3-.46.22-.67.92-.87,1.42-1.25,1.71-1.3,1.2-3.47-.46-4.54Z"/>
      <rect class="cls-13" x="150.05" y="250.83" width="2.49" height="2.49" rx=".42" ry=".42"/>
    </g>
  </g>
  <g id="Text_Karte" data-name="Text Karte">
    <g>
      <g class="cls-18">
        <text class="cls-3" transform="translate(42.05 179.29)"><tspan x="0" y="0">W</tspan></text>
        <text class="cls-6" transform="translate(52.72 179.29)"><tspan x="0" y="0">ie hoch is</tspan></text>
        <text class="cls-6" transform="translate(97.72 179.29)"><tspan x="0" y="0">t </tspan></text>
        <text class="cls-5" transform="translate(104.31 179.29)"><tspan x="0" y="0">de</tspan></text>
        <text class="cls-2" transform="translate(116.45 179.29)"><tspan x="0" y="0">in</tspan></text>
        <text class="cls-3" transform="translate(125.2 179.29)"><tspan x="0" y="0"> </tspan></text>
      </g>
      <text class="cls-11" transform="translate(42.05 179.29)"><tspan x="0" y="0">W</tspan></text>
      <text class="cls-10" transform="translate(52.72 179.29)"><tspan x="0" y="0">ie hoch is</tspan></text>
      <text class="cls-10" transform="translate(97.72 179.29)"><tspan x="0" y="0">t d</tspan></text>
      <text class="cls-10" transform="translate(110.56 179.29)"><tspan x="0" y="0">ein</tspan></text>
      <text class="cls-11" transform="translate(125.2 179.29)"><tspan x="0" y="0"> </tspan></text>
      <g class="cls-15">
        <text class="cls-6" transform="translate(55.83 191.28)"><tspan x="0" y="0">Body</tspan></text>
        <text class="cls-4" transform="translate(79.4 191.28)"><tspan x="0" y="0">cou</tspan></text>
        <text class="cls-6" transform="translate(96.34 191.28)"><tspan x="0" y="0">nt?</tspan></text>
      </g>
      <text class="cls-10" transform="translate(55.83 191.28)"><tspan x="0" y="0">Body</tspan></text>
      <text class="cls-9" transform="translate(79.4 191.28)"><tspan x="0" y="0">cou</tspan></text>
      <text class="cls-10" transform="translate(96.34 191.28)"><tspan x="0" y="0">nt?</tspan></text>
    </g>
  </g>
</svg>