<?xml version="1.0" encoding="UTF-8"?>
<svg xmlns="http://www.w3.org/2000/svg" xmlns:xlink="http://www.w3.org/1999/xlink" viewBox="0 0 167.24 260.79">
  <defs>
    <style>
      .cls-1, .cls-2, .cls-3, .cls-4, .cls-5, .cls-6 {
        fill: none;
      }

      .cls-7 {
        fill: #010101;
      }

      .cls-2, .cls-8, .cls-3, .cls-4, .cls-5, .cls-6 {
        stroke: #fff;
      }

      .cls-2, .cls-3, .cls-4, .cls-5, .cls-9, .cls-10, .cls-11, .cls-12, .cls-6 {
        font-family: QuicksandBold-Regular, Quicksand;
        font-size: 10px;
      }

      .cls-13 {
        fill: #171717;
      }

      .cls-8 {
        font-size: 12px;
        stroke-miterlimit: 10;
        stroke-width: .15px;
      }

      .cls-8, .cls-14, .cls-9, .cls-10, .cls-11, .cls-12 {
        fill: #fff;
      }

      .cls-8, .cls-15 {
        font-family: Namaku, Namaku;
      }

      .cls-3 {
        letter-spacing: -.04em;
      }

      .cls-4, .cls-9 {
        letter-spacing: -.04em;
      }

      .cls-5, .cls-10 {
        letter-spacing: -.02em;
      }

      .cls-16 {
        fill: #171715;
      }

      .cls-11, .cls-6 {
        letter-spacing: -.02em;
      }

      .cls-15 {
        font-size: 15px;
      }

      .cls-15, .cls-17 {
        fill: #0a90ce;
      }

      .cls-18 {
        clip-path: url(#clippath);
      }
    </style>
    <clipPath id="clippath">
      <rect class="cls-1" x="0" y="0" width="167.24" height="260.79"/>
    </clipPath>
  </defs>
  <g id="Background">
    <rect class="cls-17" width="167.24" height="260.79"/>
  </g>
  <g id="Rahmen">
    <path class="cls-7" d="M151.9,23.16c9.65,0,9.67-15,0-15s-9.67,15,0,15h0Z"/>
    <path class="cls-7" d="M152.22,254.59c9.65,0,9.67-15,0-15s-9.67,15,0,15h0Z"/>
    <path class="cls-7" d="M14.14,254.72c9.65,0,9.67-15,0-15s-9.67,15,0,15h0Z"/>
    <path class="cls-13" d="M11.56,15.67c18.49.32,36.98.69,55.46,1.04,19.51.36,39.05-.42,58.56-.82,10.18-.21,20.36-.38,30.54-.21l-3.75-3.75c-1.46,11.81-1.7,23.8-1.97,35.69-.33,14.15-.39,28.31-.37,42.46.01,9.3.14,18.61.07,27.91-.06,7.86-.43,15.71-.48,23.57-.07,11.29.08,22.59.37,33.88.56,22.38,1.59,44.74,2.18,67.12.07,2.79.14,5.57.2,8.36l3.75-3.75c-15.41-.13-30.81.06-46.22.48-24.85.69-49.67.84-74.52.24-8.25-.2-16.49-.49-24.74-.73l3.75,3.75c-.56-4.87-.34-9.89-.27-14.78.11-8.38.38-16.76.66-25.14.66-20.11,1.45-40.22,1.83-60.34.16-8.4.26-16.81.05-25.21-.13-5.24-.51-10.46-.61-15.7-.33-17.03-.19-34.08-.18-51.11,0-8.91,0-17.82-.06-26.73-.04-5.94-.04-11.89-.34-17.82-.04-.72-.08-1.43-.15-2.15-.19-1.95-1.59-3.85-3.75-3.75-1.87.08-3.96,1.66-3.75,3.75.48,4.83.39,9.76.44,14.61.09,8.42.1,16.84.11,25.25,0,17.78-.1,35.55.11,53.33.06,5.22.27,10.41.52,15.62.36,7.73.31,15.47.21,23.21-.24,20.03-1.02,40.04-1.7,60.06-.3,8.95-.6,17.9-.79,26.85-.13,5.9-.3,11.84,0,17.74.04.78.09,1.55.18,2.32.24,2.06,1.53,3.69,3.75,3.75,18.27.53,36.53,1.09,54.81,1.16,23.38.09,46.73-.97,70.1-1.19,6.85-.06,13.71-.03,20.56.02,2,.02,3.79-1.73,3.75-3.75-.48-22.44-1.5-44.87-2.16-67.3-.33-11.25-.57-22.51-.6-33.77-.03-10.16.25-20.29.47-30.44.18-8.23-.03-16.48-.05-24.72-.03-13.94,0-27.88.25-41.82.23-12.54.48-25.14,1.72-37.62.11-1.1.23-2.21.37-3.31.25-2.04-1.92-3.72-3.75-3.75-19.14-.32-38.3.42-57.44.81-9.78.2-19.58.45-29.37.27-7.76-.14-15.52-.3-23.28-.45-11.49-.22-22.99-.44-34.48-.63-1.96-.03-3.84,1.75-3.75,3.75s1.65,3.71,3.75,3.75h0Z"/>
    <polygon class="cls-13" points="26.61 14.43 14.5 29.16 14.18 13.04 26.61 14.43"/>
    <polygon class="cls-13" points="140.79 14.16 152.35 27.66 154.57 11.89 140.79 14.16"/>
    <polygon class="cls-13" points="139.48 248.15 153.14 235.93 156.07 248.65 139.48 248.15"/>
    <polygon class="cls-13" points="12.9 235.54 26.24 248.54 12.31 249.36 12.9 235.54"/>
    <rect class="cls-13" width="10.32" height="260.79"/>
    <rect class="cls-13" y="249.36" width="167.24" height="11.43"/>
    <rect class="cls-16" width="167.24" height="10.33"/>
    <rect class="cls-13" x="156.12" width="11.13" height="260.79"/>
    <path class="cls-13" d="M122.85,17.19c0-.85.35-3.85,0-4.78-.94-2.49-3.57-2.81-6.15-2.81H50.54c-2.58,0-5.21.32-6.15,2.81-.35.93,0,3.93,0,4.78l-.28,5.71c-.56,5.31,8.78,4.59,12.32,4.59l20.37.37,6.82-.07h0l6.82.07,20.37-.37c3.54,0,12.88.72,12.32-4.59l-.28-5.71Z"/>
  </g>
  <g id="Kategorie_Name" data-name="Kategorie Name">
    <text class="cls-15" transform="translate(48.55 22.56) scale(1 1.09)"><tspan x="0" y="0">Wahrheit</tspan></text>
  </g>
  <g id="Schlücke">
    <text class="cls-8" transform="translate(4.53 252.82)"><tspan x="0" y="0">+5</tspan></text>
    <text class="cls-8" transform="translate(147.81 19.77)"><tspan x="0" y="0">+5</tspan></text>
  </g>
  <g id="Motive">
    <g>
      <path class="cls-13" d="M128.32,108.78c-1.63-.71-3.78-.99-5.41-1.82-.63-1.63-.92-3.32-1.57-4.95-1.36-3.44-3.46-6.19-6.15-8.67-.52-.48-2.45-1.76-2.61-2.22-.45-1.35,1.23-4.83,1.99-6.07.64-1.04,2.03-2.37,2.05-3.5.05-2.16-2.11-1.96-3.68-1.88-2.13.1-4.64.71-6.55,1.67-2.32,1.16-1.83,1.79-2.97,3.82-.43.77-1.03,1.67-1.56,2.37-.53.69-3.31,3.34-3.4,3.57-.05.14-.18.36.03.39,1.44.42,2.83,1.6,1.93,3.19-1.14,2.01-3.81.06-5.39-.47-5.43-1.8-11.52-1.72-16.92.12-.87.3-2.11,1.06-2.9,1.21-2.9.57-3.32-3.4-.59-3.9.37-.54-1.2-1.95-1.52-2.3-.6-.62-2.39-2.59-2.83-2.89-.27-.18-.37-.17-.68-.13-.58.07-2.34.86-2.99,1.13-5.32,2.28-10.63,6.35-13.05,11.69h-.51c-3.41-7.94-13.83-2.47-9.84,5.01-7.34,1.29-6.67,11.73,1.16,11.08,2.87-.24,4.37-2.16,6.16-4.11.04,4.64.57,9.76,3.46,13.42,2.37,2.99,4.62,5.43,6.99,7.66.87,4.19,1.11,8.53,1.92,12.73.2,1.02.37,1.3,1.46,1.4,2.5.22,7.52.23,10.02,0,.63-.06.96-.08,1.24-.72.9-2.07,1.06-5.2,1.96-7.15.19-.42.44-.73.92-.84,3.5.82,7.11,1.01,10.7.85,1.01-.05,2.5-.87,3.07.31.86,1.76.92,4.97,1.74,6.84.13.29.42.65.72.71.89.19,8.16.18,8.16.18,1.38-.13,3.3.46,3.81-1.24.82-2.74,1.09-6.26,1.77-9.13.18-.76.29-1.57.68-2.27,3.45-1.62,6.16-4.16,8.72-6.91l10.57-3.54c.81-.45,1.19-14.05-.13-14.62ZM46.52,110.34c-1.35,1.43-4.56,2.44-4.93-.22-.41-2.93,4.5-3.05,6.24-1.77.03.14-1.11,1.77-1.31,1.99ZM49.34,104.86c-1.56-.71-3.44-2.15-3.49-4.02-.04-1.8,2.05-2.76,3.35-1.46,1.31,1.31,1.11,4,.14,5.47ZM108.28,106.28c-3.99.1-4.66-5.94-.84-6.73,4.82-1,5.7,6.61.84,6.73Z"/>
      <path class="cls-13" d="M97.61,64.2c-7.29-7.23-19.54-5.39-24.44,3.57-4.2,7.68-1.53,17.44,6.2,21.55,4.46.06,10.47.19,14.97.04,2.04-.07,4.79-4.13,5.8-5.87,3.56-6.21,2.56-14.24-2.53-19.29ZM94.67,80.14c-.08.32-.17.63-.27.93-.1.3-.17.52-.23.66-.2.47-.45.89-.78,1.25-.32.37-.69.69-1.1.96-.95.65-1.94,1.11-2.94,1.39-1.01.28-1.99.39-2.95.34-.96-.06-1.89-.27-2.78-.62-.91-.37-1.72-.85-2.44-1.49-.74-.62-1.36-1.38-1.89-2.27-.53-.89-.91-1.89-1.15-3.01-.07.02-.2.04-.4.06-.2.01-.41.02-.62.01-.22-.01-.41-.03-.58-.07-.17-.03-.26-.1-.28-.18-.02-.09-.03-.19-.03-.3,0-.1,0-.22-.03-.32-.04-.35-.02-.59.06-.73.07-.14.19-.24.35-.27.16-.04.35-.04.58-.01.22.03.46.04.73.04-.01-.15-.01-.28-.01-.4v-.39c-.3.02-.55.04-.75.07-.2.03-.38.03-.51-.01-.14-.04-.24-.12-.31-.24-.07-.13-.12-.34-.14-.65-.02-.36.01-.61.08-.76.08-.14.19-.23.34-.27.15-.03.35-.03.58,0,.24.04.51.06.84.06.28-1.78.85-3.27,1.7-4.49.86-1.21,1.9-2.15,3.14-2.83,1.24-.67,2.63-1.08,4.18-1.25,1.55-.16,3.14-.08,4.8.25.18.03.39.07.64.11.25.05.51.12.76.2.25.07.48.17.7.28.21.1.38.24.51.4,0,.83-.01,1.65-.03,2.47-.02.81,0,1.63.03,2.46.02.29.04.57.07.83.03.27.03.55.03.84,0,.09-.01.19-.05.3-.03.1-.1.18-.21.22-.02,0-.15,0-.39-.02s-.54-.02-.89-.04c-.35-.02-.73-.04-1.15-.08-.41-.04-.8-.07-1.17-.09-.37-.03-.69-.05-.97-.07-.28-.02-.44-.04-.49-.05l-.14-.17c-.02-.08-.02-.18-.02-.28,0-.1.02-.19.02-.29-.02-.53-.23-.94-.62-1.24-.4-.28-.85-.39-1.37-.33s-1.05.32-1.57.78c-.52.46-.91,1.18-1.16,2.15h2.43c.52,0,.99,0,1.41.02.42.02.65.06.69.11.04.07.04.14.03.22-.02.06-.03.13-.03.21-.02.14-.01.33.03.55.03.22,0,.38-.11.48-.04.03-.16.05-.38.07-.22.02-.48.04-.81.04-.32.01-.67.02-1.03.02s-.72-.01-1.07-.02c-.34,0-.64-.01-.9-.01h-.53c0,.15.01.29.02.44s.02.31.04.45h2.51c.55,0,1.05.01,1.5.03.45.02.69.05.73.1.04.06.05.13.04.22-.01.09-.01.17-.01.21,0,.13.01.31.03.54.01.24-.02.4-.12.49-.05.05-.27.09-.67.09-.39.02-.83.02-1.32.02h-2.29c.16.41.39.79.7,1.16.31.35.65.64,1.03.83.37.2.77.27,1.18.21.42-.05.81-.29,1.19-.72.25-.27.41-.54.49-.82.09-.28.19-.58.31-.9.02-.06.16-.1.41-.13.25-.02.56-.03.93-.02.37,0,.77.03,1.2.06.43.04.84.09,1.22.15.39.06.72.14.99.24.27.08.44.17.51.26.09.14.12.36.09.65-.02.29-.08.59-.16.91Z"/>
    </g>
  </g>
  <g id="Kategorien">
    <g>
      <path class="cls-14" d="M16.88,11.24c-.78-.5-1.64-.67-2.56-.59-1.24.1-2.47.91-3.06,2-.13.23-.13.29.07.48.23.22.95.76,1.22.92.13.07.25.12.39.05.49-.52.81-1.14,1.61-1.2.66-.05,1.55.34,1.31,1.14-.15.5-.67.63-1.07.86-.58.35-1.31,1.02-1.37,1.73-.01.14-.02.52,0,.64.03.16.19.21.33.22.39.03,1.51.05,1.87,0,.3-.05.23-.25.3-.46.22-.67.92-.87,1.42-1.25,1.71-1.3,1.2-3.47-.46-4.54Z"/>
      <rect class="cls-14" x="13.41" y="18.19" width="2.49" height="2.49" rx=".42" ry=".42"/>
    </g>
    <g>
      <path class="cls-14" d="M153.52,243.89c-.78-.5-1.64-.67-2.56-.59-1.24.1-2.47.91-3.06,2-.13.23-.13.29.07.48.23.22.95.76,1.22.92.13.07.25.12.39.05.49-.52.81-1.14,1.61-1.2.66-.05,1.55.34,1.31,1.14-.15.5-.67.63-1.07.86-.58.35-1.31,1.02-1.37,1.73-.01.14-.02.52,0,.64.03.16.19.21.33.22.39.03,1.51.05,1.87,0,.3-.05.23-.25.3-.46.22-.67.92-.87,1.42-1.25,1.71-1.3,1.2-3.47-.46-4.54Z"/>
      <rect class="cls-14" x="150.05" y="250.83" width="2.49" height="2.49" rx=".42" ry=".42"/>
    </g>
  </g>
  <g id="Text_Karte" data-name="Text Karte">
    <g>
      <g class="cls-18">
        <text class="cls-2" transform="translate(31.03 179.29)"><tspan x="0" y="0">Z</tspan></text>
        <text class="cls-5" transform="translate(37.25 179.29)"><tspan x="0" y="0">eige d</tspan></text>
        <text class="cls-5" transform="translate(67.09 179.29)"><tspan x="0" y="0">ein Bank</tspan></text>
        <text class="cls-3" transform="translate(107.28 179.29)"><tspan x="0" y="0">ko</tspan></text>
        <text class="cls-6" transform="translate(118.48 179.29)"><tspan x="0" y="0">nt</tspan></text>
        <text class="cls-4" transform="translate(128.06 179.29)"><tspan x="0" y="0">o.</tspan></text>
      </g>
      <text class="cls-12" transform="translate(31.03 179.29)"><tspan x="0" y="0">Z</tspan></text>
      <text class="cls-10" transform="translate(37.25 179.29)"><tspan x="0" y="0">eige d</tspan></text>
      <text class="cls-10" transform="translate(67.09 179.29)"><tspan x="0" y="0">ein Bankk</tspan></text>
      <text class="cls-11" transform="translate(112.43 179.29)"><tspan x="0" y="0">ont</tspan></text>
      <text class="cls-9" transform="translate(128.06 179.29)"><tspan x="0" y="0">o.</tspan></text>
    </g>
  </g>
</svg>