<?xml version="1.0" encoding="UTF-8"?>
<svg xmlns="http://www.w3.org/2000/svg" xmlns:xlink="http://www.w3.org/1999/xlink" viewBox="0 0 167.24 260.79">
  <defs>
    <style>
      .cls-1, .cls-2, .cls-3, .cls-4, .cls-5, .cls-6, .cls-7, .cls-8, .cls-9 {
        fill: none;
      }

      .cls-10 {
        fill: #010101;
      }

      .cls-11, .cls-12 {
        fill: #e74258;
      }

      .cls-2, .cls-3, .cls-4, .cls-5, .cls-13, .cls-6, .cls-14, .cls-15, .cls-7, .cls-16, .cls-17, .cls-18, .cls-19, .cls-8, .cls-20, .cls-9 {
        font-family: QuicksandBold-Regular, Quicksand;
        font-size: 10px;
      }

      .cls-2, .cls-3, .cls-4, .cls-5, .cls-6, .cls-7, .cls-8, .cls-9 {
        stroke: #fff;
      }

      .cls-2, .cls-13 {
        letter-spacing: 0em;
      }

      .cls-3, .cls-17 {
        letter-spacing: -.02em;
      }

      .cls-21 {
        fill: #171717;
      }

      .cls-5, .cls-16 {
        letter-spacing: -.03em;
      }

      .cls-22 {
        clip-path: url(#clippath-1);
      }

      .cls-23, .cls-13, .cls-14, .cls-15, .cls-16, .cls-17, .cls-18, .cls-19, .cls-20 {
        fill: #fff;
      }

      .cls-6, .cls-18 {
        letter-spacing: -.02em;
      }

      .cls-14, .cls-8 {
        letter-spacing: -.04em;
      }

      .cls-15, .cls-7 {
        letter-spacing: -.04em;
      }

      .cls-24 {
        fill: #171715;
      }

      .cls-19, .cls-9 {
        letter-spacing: -.02em;
      }

      .cls-12 {
        font-family: Namaku, Namaku;
        font-size: 15px;
      }

      .cls-25 {
        clip-path: url(#clippath);
      }
    </style>
    <clipPath id="clippath">
      <rect class="cls-1" x="0" y="0" width="167.24" height="260.79"/>
    </clipPath>
    <clipPath id="clippath-1">
      <rect class="cls-1" x="0" y="0" width="167.24" height="260.79"/>
    </clipPath>
  </defs>
  <g id="Background">
    <rect class="cls-11" width="167.24" height="260.79"/>
  </g>
  <g id="Rahmen">
    <path class="cls-10" d="M151.9,23.16c9.65,0,9.67-15,0-15s-9.67,15,0,15h0Z"/>
    <path class="cls-10" d="M152.22,254.59c9.65,0,9.67-15,0-15s-9.67,15,0,15h0Z"/>
    <path class="cls-10" d="M14.14,254.72c9.65,0,9.67-15,0-15s-9.67,15,0,15h0Z"/>
    <path class="cls-21" d="M11.56,15.67c18.49.32,36.98.69,55.46,1.04,19.51.36,39.05-.42,58.56-.82,10.18-.21,20.36-.38,30.54-.21l-3.75-3.75c-1.46,11.81-1.7,23.8-1.97,35.69-.33,14.15-.39,28.31-.37,42.46.01,9.3.14,18.61.07,27.91-.06,7.86-.43,15.71-.48,23.57-.07,11.29.08,22.59.37,33.88.56,22.38,1.59,44.74,2.18,67.12.07,2.79.14,5.57.2,8.36l3.75-3.75c-15.41-.13-30.81.06-46.22.48-24.85.69-49.67.84-74.52.24-8.25-.2-16.49-.49-24.74-.73l3.75,3.75c-.56-4.87-.34-9.89-.27-14.78.11-8.38.38-16.76.66-25.14.66-20.11,1.45-40.22,1.83-60.34.16-8.4.26-16.81.05-25.21-.13-5.24-.51-10.46-.61-15.7-.33-17.03-.19-34.08-.18-51.11,0-8.91,0-17.82-.06-26.73-.04-5.94-.04-11.89-.34-17.82-.04-.72-.08-1.43-.15-2.15-.19-1.95-1.59-3.85-3.75-3.75-1.87.08-3.96,1.66-3.75,3.75.48,4.83.39,9.76.44,14.61.09,8.42.1,16.84.11,25.25,0,17.78-.1,35.55.11,53.33.06,5.22.27,10.41.52,15.62.36,7.73.31,15.47.21,23.21-.24,20.03-1.02,40.04-1.7,60.06-.3,8.95-.6,17.9-.79,26.85-.13,5.9-.3,11.84,0,17.74.04.78.09,1.55.18,2.32.24,2.06,1.53,3.69,3.75,3.75,18.27.53,36.53,1.09,54.81,1.16,23.38.09,46.73-.97,70.1-1.19,6.85-.06,13.71-.03,20.56.02,2,.02,3.79-1.73,3.75-3.75-.48-22.44-1.5-44.87-2.16-67.3-.33-11.25-.57-22.51-.6-33.77-.03-10.16.25-20.29.47-30.44.18-8.23-.03-16.48-.05-24.72-.03-13.94,0-27.88.25-41.82.23-12.54.48-25.14,1.72-37.62.11-1.1.23-2.21.37-3.31.25-2.04-1.92-3.72-3.75-3.75-19.14-.32-38.3.42-57.44.81-9.78.2-19.58.45-29.37.27-7.76-.14-15.52-.3-23.28-.45-11.49-.22-22.99-.44-34.48-.63-1.96-.03-3.84,1.75-3.75,3.75s1.65,3.71,3.75,3.75h0Z"/>
    <polygon class="cls-21" points="26.61 14.43 14.5 29.16 14.18 13.04 26.61 14.43"/>
    <polygon class="cls-21" points="140.79 14.16 152.35 27.66 154.57 11.89 140.79 14.16"/>
    <polygon class="cls-21" points="139.48 248.15 153.14 235.93 156.07 248.65 139.48 248.15"/>
    <polygon class="cls-21" points="12.9 235.54 26.24 248.54 12.31 249.36 12.9 235.54"/>
    <rect class="cls-21" width="10.32" height="260.79"/>
    <rect class="cls-21" y="249.36" width="167.24" height="11.43"/>
    <rect class="cls-24" width="167.24" height="10.33"/>
    <rect class="cls-21" x="156.12" width="11.13" height="260.79"/>
    <path class="cls-21" d="M125.63,17.19c0-.85.38-3.85,0-4.78-1.01-2.49-3.83-2.81-6.59-2.81H48.2c-2.76,0-5.58.32-6.59,2.81-.38.93,0,3.93,0,4.78l-.3,5.71c-.6,5.31,9.41,4.59,13.19,4.59l21.81.37,7.3-.07h0l7.3.07,21.81-.37c3.79,0,13.79.72,13.19-4.59l-.3-5.71Z"/>
    <path class="cls-10" d="M151.9,23.16c9.65,0,9.67-15,0-15s-9.67,15,0,15h0Z"/>
    <path class="cls-10" d="M152.22,254.59c9.65,0,9.67-15,0-15s-9.67,15,0,15h0Z"/>
    <path class="cls-10" d="M14.14,254.72c9.65,0,9.67-15,0-15s-9.67,15,0,15h0Z"/>
    <path class="cls-21" d="M11.56,15.67c18.49.32,36.98.69,55.46,1.04,19.51.36,39.05-.42,58.56-.82,10.18-.21,20.36-.38,30.54-.21l-3.75-3.75c-1.46,11.81-1.7,23.8-1.97,35.69-.33,14.15-.39,28.31-.37,42.46.01,9.3.14,18.61.07,27.91-.06,7.86-.43,15.71-.48,23.57-.07,11.29.08,22.59.37,33.88.56,22.38,1.59,44.74,2.18,67.12.07,2.79.14,5.57.2,8.36l3.75-3.75c-15.41-.13-30.81.06-46.22.48-24.85.69-49.67.84-74.52.24-8.25-.2-16.49-.49-24.74-.73l3.75,3.75c-.56-4.87-.34-9.89-.27-14.78.11-8.38.38-16.76.66-25.14.66-20.11,1.45-40.22,1.83-60.34.16-8.4.26-16.81.05-25.21-.13-5.24-.51-10.46-.61-15.7-.33-17.03-.19-34.08-.18-51.11,0-8.91,0-17.82-.06-26.73-.04-5.94-.04-11.89-.34-17.82-.04-.72-.08-1.43-.15-2.15-.19-1.95-1.59-3.85-3.75-3.75-1.87.08-3.96,1.66-3.75,3.75.48,4.83.39,9.76.44,14.61.09,8.42.1,16.84.11,25.25,0,17.78-.1,35.55.11,53.33.06,5.22.27,10.41.52,15.62.36,7.73.31,15.47.21,23.21-.24,20.03-1.02,40.04-1.7,60.06-.3,8.95-.6,17.9-.79,26.85-.13,5.9-.3,11.84,0,17.74.04.78.09,1.55.18,2.32.24,2.06,1.53,3.69,3.75,3.75,18.27.53,36.53,1.09,54.81,1.16,23.38.09,46.73-.97,70.1-1.19,6.85-.06,13.71-.03,20.56.02,2,.02,3.79-1.73,3.75-3.75-.48-22.44-1.5-44.87-2.16-67.3-.33-11.25-.57-22.51-.6-33.77-.03-10.16.25-20.29.47-30.44.18-8.23-.03-16.48-.05-24.72-.03-13.94,0-27.88.25-41.82.23-12.54.48-25.14,1.72-37.62.11-1.1.23-2.21.37-3.31.25-2.04-1.92-3.72-3.75-3.75-19.14-.32-38.3.42-57.44.81-9.78.2-19.58.45-29.37.27-7.76-.14-15.52-.3-23.28-.45-11.49-.22-22.99-.44-34.48-.63-1.96-.03-3.84,1.75-3.75,3.75s1.65,3.71,3.75,3.75h0Z"/>
    <polygon class="cls-21" points="26.61 14.43 14.5 29.16 14.18 13.04 26.61 14.43"/>
    <polygon class="cls-21" points="140.79 14.16 152.35 27.66 154.57 11.89 140.79 14.16"/>
    <polygon class="cls-21" points="139.48 248.15 153.14 235.93 156.07 248.65 139.48 248.15"/>
    <polygon class="cls-21" points="12.9 235.54 26.24 248.54 12.31 249.36 12.9 235.54"/>
    <rect class="cls-21" width="10.32" height="260.79"/>
    <rect class="cls-21" y="249.36" width="167.24" height="11.43"/>
    <rect class="cls-24" width="167.24" height="10.33"/>
    <rect class="cls-21" x="156.12" width="11.13" height="260.79"/>
  </g>
  <g id="Kategorie_Name" data-name="Kategorie Name">
    <text class="cls-12" transform="translate(45.94 22.56) scale(1 1.09)"><tspan x="0" y="0">WILD CARD</tspan></text>
  </g>
  <g id="Motive">
    <g>
      <path class="cls-21" d="M83.48,78.4c-6.68,3.27-13.86,5.51-21.23,6.7-.22,1.27.88,8.64,1.86,12.56.36,1.46,2.33,8.2,2.58,8.22h0c.36,1.49,1.57,4.24,1.94,5.06,2.04,4.55,5.62,10.06,9.13,13.6.63.64,5.02,4.39,5.52,4.53.81.23,2.17-1,2.84-1.55,4-3.27,7.89-8.08,10.2-12.69.5-.61,5.25-11.94,5.6-12.95,1.81-5.31,2.77-11.2,3.07-16.77-7.48-1.15-14.65-3.62-21.51-6.7Z"/>
      <path class="cls-21" d="M119.73,72.53c-1.22-1.03-7.04-1.21-9.11-1.58-7.48-1.32-16.72-3.36-22.96-7.79-1.28-.91-2.37-2.94-4.2-2.85-1.57.08-2.71,2.02-3.88,2.85-5.27,3.74-12.97,5.86-19.28,7.12-3.65.73-8.1.8-11.45,1.58-3.61.84-2.1,5.78-1.98,8.38.27,5.98.8,15.96,2.75,22.09,0,0,0,0,0,0,3.34,12,4.17,12.33,4.17,12.33.03.11.08.21.13.3.49,1.14,1.1,2.42,1.36,2.98,4.76,10.22,14.62,22.03,25,26.79,3.06,1.4,3.38,1.5,6.48.11,11.65-5.23,23.59-20.27,27.53-32.29.91-1.02,5.17-20.06,5.38-21.68.52-3.94.95-8.68,1.06-12.64.05-1.75.39-4.53-1-5.71ZM85.6,134.02c-3.11,1.69-5.39-.87-7.82-2.83-5.85-4.69-10.38-11.21-13.62-18.13-.68-1.51-3.79-8.62-4.89-14.35,0,0-.02,0-.03,0-.1-.44-.19-.87-.3-1.3-.8-3.34-1.4-6.75-1.73-10.15-.17-1.81-.86-4.84.64-6.04,1.03-.82,11.18-2.64,13.65-3.4,2.4-.73,4.77-1.65,7.08-2.61,1.22-.5,3.48-2.06,4.51-2.18,1.85-.21,3.58,1.37,5.3,2.08,2.39,1,4.84,1.95,7.32,2.7,3.88,1.18,9.41,1.65,12.78,2.93.61.23.97.45,1.33,1.01.91,1.4.06,6.54-.2,8.46-.45,3.35-1.1,6.81-2.05,10.12-.17.61-1.47,5.83-3.48,11.09-3.58,10.33-10.58,18.28-18.5,22.59Z"/>
    </g>
  </g>
  <g id="Kateg._Symbol" data-name="Kateg. Symbol">
    <path class="cls-23" d="M19.29,15.45c.5-.68.16-1.57-.67-1.73-.66-.13-1.38-.15-2.03-.29-.12-.03-.17-.06-.23-.17-.35-.59-.59-1.3-.94-1.89-.21-.35-.57-.56-.98-.54-.38.02-.7.23-.89.55-.34.58-.58,1.27-.91,1.85-.06.11-.12.17-.25.2-.67.15-1.44.15-2.11.31-.82.19-1.09,1.19-.51,1.8.36.39.8.76,1.18,1.14.11.11.37.33.39.47-.07.71-.27,1.42-.35,2.12-.06.5.17.97.65,1.16.39.15.66.07,1.01-.1.6-.3,1.18-.65,1.79-.93.13-.02.25.06.36.12.55.28,1.18.69,1.74.91.79.31,1.53-.31,1.46-1.14-.06-.66-.29-1.38-.35-2.04,0-.09,0-.18.07-.25l1.57-1.54Z"/>
    <path class="cls-23" d="M156.21,248.03c.5-.68.16-1.57-.67-1.73-.66-.13-1.38-.15-2.03-.29-.12-.03-.17-.06-.23-.17-.35-.59-.59-1.3-.94-1.89-.21-.35-.57-.56-.98-.54-.38.02-.7.23-.89.55-.34.58-.58,1.27-.91,1.85-.06.11-.12.17-.25.2-.67.15-1.44.15-2.11.31-.82.19-1.09,1.19-.51,1.8.36.39.8.76,1.18,1.14.11.11.37.33.39.47-.07.71-.27,1.42-.35,2.12-.06.5.17.97.65,1.16.39.15.66.07,1.01-.1.6-.3,1.18-.65,1.79-.93.13-.02.25.06.36.12.55.28,1.18.69,1.74.91.79.31,1.53-.31,1.46-1.14-.06-.66-.29-1.38-.35-2.04,0-.09,0-.18.07-.25l1.57-1.54Z"/>
  </g>
  <g id="Text_Karten" data-name="Text Karten">
    <g>
      <g class="cls-25">
        <text class="cls-9" transform="translate(35.77 179.29)"><tspan x="0" y="0">All</tspan></text>
        <text class="cls-5" transform="translate(47.05 179.29)"><tspan x="0" y="0">e an</tspan></text>
        <text class="cls-8" transform="translate(67.37 179.29)"><tspan x="0" y="0">der</tspan></text>
        <text class="cls-9" transform="translate(82.98 179.29)"><tspan x="0" y="0">en Sp</tspan></text>
        <text class="cls-3" transform="translate(110.16 179.29)"><tspan x="0" y="0">iel</tspan></text>
        <text class="cls-7" transform="translate(121.41 179.29)"><tspan x="0" y="0">er</tspan></text>
        <text class="cls-4" transform="translate(131.48 179.29)"><tspan x="0" y="0"> </tspan></text>
      </g>
      <text class="cls-19" transform="translate(35.77 179.29)"><tspan x="0" y="0">All</tspan></text>
      <text class="cls-16" transform="translate(47.05 179.29)"><tspan x="0" y="0">e an</tspan></text>
      <text class="cls-14" transform="translate(67.37 179.29)"><tspan x="0" y="0">der</tspan></text>
      <text class="cls-19" transform="translate(82.98 179.29)"><tspan x="0" y="0">en Sp</tspan></text>
      <text class="cls-17" transform="translate(110.16 179.29)"><tspan x="0" y="0">iel</tspan></text>
      <text class="cls-15" transform="translate(121.41 179.29)"><tspan x="0" y="0">er</tspan></text>
      <text class="cls-20" transform="translate(131.48 179.29)"><tspan x="0" y="0"> </tspan></text>
      <g class="cls-22">
        <text class="cls-4" transform="translate(46.45 191.28)"><tspan x="0" y="0">t</tspan></text>
        <text class="cls-9" transform="translate(49.55 191.28)"><tspan x="0" y="0">rink</tspan></text>
        <text class="cls-6" transform="translate(67.44 191.28)"><tspan x="0" y="0">en </tspan></text>
        <text class="cls-2" transform="translate(82.05 191.28)"><tspan x="0" y="0">st</tspan></text>
        <text class="cls-3" transform="translate(90.42 191.28)"><tspan x="0" y="0">at</tspan></text>
        <text class="cls-9" transform="translate(99.59 191.28)"><tspan x="0" y="0">t dir</tspan></text>
        <text class="cls-4" transform="translate(118.48 191.28)"><tspan x="0" y="0">.</tspan></text>
      </g>
      <text class="cls-20" transform="translate(46.45 191.28)"><tspan x="0" y="0">t</tspan></text>
      <text class="cls-19" transform="translate(49.55 191.28)"><tspan x="0" y="0">rink</tspan></text>
      <text class="cls-18" transform="translate(67.44 191.28)"><tspan x="0" y="0">en </tspan></text>
      <text class="cls-13" transform="translate(82.05 191.28)"><tspan x="0" y="0">st</tspan></text>
      <text class="cls-17" transform="translate(90.42 191.28)"><tspan x="0" y="0">at</tspan></text>
      <text class="cls-19" transform="translate(99.59 191.28)"><tspan x="0" y="0">t dir</tspan></text>
      <text class="cls-20" transform="translate(118.48 191.28)"><tspan x="0" y="0">.</tspan></text>
    </g>
  </g>
</svg>