<?xml version="1.0" encoding="UTF-8"?>
<svg xmlns="http://www.w3.org/2000/svg" viewBox="0 0 167.24 260.79">
  <defs>
    <style>
      .cls-1 {
        fill: #010101;
      }

      .cls-2, .cls-3 {
        fill: #e74258;
      }

      .cls-4, .cls-5 {
        fill: #171717;
      }

      .cls-5, .cls-3 {
        font-family: Namaku, Namaku;
      }

      .cls-6 {
        font-size: 41.36px;
      }

      .cls-7 {
        font-size: 82.73px;
      }

      .cls-8 {
        fill: #fff;
      }

      .cls-9 {
        fill: #171715;
      }

      .cls-3 {
        font-size: 15px;
      }
    </style>
  </defs>
  <g id="Background">
    <rect class="cls-2" width="167.24" height="260.79"/>
  </g>
  <g id="Rahmen">
    <path class="cls-1" d="M151.9,23.16c9.65,0,9.67-15,0-15s-9.67,15,0,15h0Z"/>
    <path class="cls-1" d="M152.22,254.59c9.65,0,9.67-15,0-15s-9.67,15,0,15h0Z"/>
    <path class="cls-1" d="M14.14,254.72c9.65,0,9.67-15,0-15s-9.67,15,0,15h0Z"/>
    <path class="cls-4" d="M11.56,15.67c18.49.32,36.98.69,55.46,1.04,19.51.36,39.05-.42,58.56-.82,10.18-.21,20.36-.38,30.54-.21l-3.75-3.75c-1.46,11.81-1.7,23.8-1.97,35.69-.33,14.15-.39,28.31-.37,42.46.01,9.3.14,18.61.07,27.91-.06,7.86-.43,15.71-.48,23.57-.07,11.29.08,22.59.37,33.88.56,22.38,1.59,44.74,2.18,67.12.07,2.79.14,5.57.2,8.36l3.75-3.75c-15.41-.13-30.81.06-46.22.48-24.85.69-49.67.84-74.52.24-8.25-.2-16.49-.49-24.74-.73l3.75,3.75c-.56-4.87-.34-9.89-.27-14.78.11-8.38.38-16.76.66-25.14.66-20.11,1.45-40.22,1.83-60.34.16-8.4.26-16.81.05-25.21-.13-5.24-.51-10.46-.61-15.7-.33-17.03-.19-34.08-.18-51.11,0-8.91,0-17.82-.06-26.73-.04-5.94-.04-11.89-.34-17.82-.04-.72-.08-1.43-.15-2.15-.19-1.95-1.59-3.85-3.75-3.75-1.87.08-3.96,1.66-3.75,3.75.48,4.83.39,9.76.44,14.61.09,8.42.1,16.84.11,25.25,0,17.78-.1,35.55.11,53.33.06,5.22.27,10.41.52,15.62.36,7.73.31,15.47.21,23.21-.24,20.03-1.02,40.04-1.7,60.06-.3,8.95-.6,17.9-.79,26.85-.13,5.9-.3,11.84,0,17.74.04.78.09,1.55.18,2.32.24,2.06,1.53,3.69,3.75,3.75,18.27.53,36.53,1.09,54.81,1.16,23.38.09,46.73-.97,70.1-1.19,6.85-.06,13.71-.03,20.56.02,2,.02,3.79-1.73,3.75-3.75-.48-22.44-1.5-44.87-2.16-67.3-.33-11.25-.57-22.51-.6-33.77-.03-10.16.25-20.29.47-30.44.18-8.23-.03-16.48-.05-24.72-.03-13.94,0-27.88.25-41.82.23-12.54.48-25.14,1.72-37.62.11-1.1.23-2.21.37-3.31.25-2.04-1.92-3.72-3.75-3.75-19.14-.32-38.3.42-57.44.81-9.78.2-19.58.45-29.37.27-7.76-.14-15.52-.3-23.28-.45-11.49-.22-22.99-.44-34.48-.63-1.96-.03-3.84,1.75-3.75,3.75s1.65,3.71,3.75,3.75h0Z"/>
    <polygon class="cls-4" points="26.61 14.43 14.5 29.16 14.18 13.04 26.61 14.43"/>
    <polygon class="cls-4" points="140.79 14.16 152.35 27.66 154.57 11.89 140.79 14.16"/>
    <polygon class="cls-4" points="139.48 248.15 153.14 235.93 156.07 248.65 139.48 248.15"/>
    <polygon class="cls-4" points="12.9 235.54 26.24 248.54 12.31 249.36 12.9 235.54"/>
    <rect class="cls-4" width="10.32" height="260.79"/>
    <rect class="cls-4" y="249.36" width="167.24" height="11.43"/>
    <rect class="cls-9" width="167.24" height="10.33"/>
    <rect class="cls-4" x="156.12" width="11.13" height="260.79"/>
    <path class="cls-4" d="M125.63,17.19c0-.85.38-3.85,0-4.78-1.01-2.49-3.83-2.81-6.59-2.81H48.2c-2.76,0-5.58.32-6.59,2.81-.38.93,0,3.93,0,4.78l-.3,5.71c-.6,5.31,9.41,4.59,13.19,4.59l21.81.37,7.3-.07h0l7.3.07,21.81-.37c3.79,0,13.79.72,13.19-4.59l-.3-5.71Z"/>
    <path class="cls-1" d="M151.9,23.16c9.65,0,9.67-15,0-15s-9.67,15,0,15h0Z"/>
    <path class="cls-1" d="M152.22,254.59c9.65,0,9.67-15,0-15s-9.67,15,0,15h0Z"/>
    <path class="cls-1" d="M14.14,254.72c9.65,0,9.67-15,0-15s-9.67,15,0,15h0Z"/>
    <path class="cls-4" d="M11.56,15.67c18.49.32,36.98.69,55.46,1.04,19.51.36,39.05-.42,58.56-.82,10.18-.21,20.36-.38,30.54-.21l-3.75-3.75c-1.46,11.81-1.7,23.8-1.97,35.69-.33,14.15-.39,28.31-.37,42.46.01,9.3.14,18.61.07,27.91-.06,7.86-.43,15.71-.48,23.57-.07,11.29.08,22.59.37,33.88.56,22.38,1.59,44.74,2.18,67.12.07,2.79.14,5.57.2,8.36l3.75-3.75c-15.41-.13-30.81.06-46.22.48-24.85.69-49.67.84-74.52.24-8.25-.2-16.49-.49-24.74-.73l3.75,3.75c-.56-4.87-.34-9.89-.27-14.78.11-8.38.38-16.76.66-25.14.66-20.11,1.45-40.22,1.83-60.34.16-8.4.26-16.81.05-25.21-.13-5.24-.51-10.46-.61-15.7-.33-17.03-.19-34.08-.18-51.11,0-8.91,0-17.82-.06-26.73-.04-5.94-.04-11.89-.34-17.82-.04-.72-.08-1.43-.15-2.15-.19-1.95-1.59-3.85-3.75-3.75-1.87.08-3.96,1.66-3.75,3.75.48,4.83.39,9.76.44,14.61.09,8.42.1,16.84.11,25.25,0,17.78-.1,35.55.11,53.33.06,5.22.27,10.41.52,15.62.36,7.73.31,15.47.21,23.21-.24,20.03-1.02,40.04-1.7,60.06-.3,8.95-.6,17.9-.79,26.85-.13,5.9-.3,11.84,0,17.74.04.78.09,1.55.18,2.32.24,2.06,1.53,3.69,3.75,3.75,18.27.53,36.53,1.09,54.81,1.16,23.38.09,46.73-.97,70.1-1.19,6.85-.06,13.71-.03,20.56.02,2,.02,3.79-1.73,3.75-3.75-.48-22.44-1.5-44.87-2.16-67.3-.33-11.25-.57-22.51-.6-33.77-.03-10.16.25-20.29.47-30.44.18-8.23-.03-16.48-.05-24.72-.03-13.94,0-27.88.25-41.82.23-12.54.48-25.14,1.72-37.62.11-1.1.23-2.21.37-3.31.25-2.04-1.92-3.72-3.75-3.75-19.14-.32-38.3.42-57.44.81-9.78.2-19.58.45-29.37.27-7.76-.14-15.52-.3-23.28-.45-11.49-.22-22.99-.44-34.48-.63-1.96-.03-3.84,1.75-3.75,3.75s1.65,3.71,3.75,3.75h0Z"/>
    <polygon class="cls-4" points="26.61 14.43 14.5 29.16 14.18 13.04 26.61 14.43"/>
    <polygon class="cls-4" points="140.79 14.16 152.35 27.66 154.57 11.89 140.79 14.16"/>
    <polygon class="cls-4" points="139.48 248.15 153.14 235.93 156.07 248.65 139.48 248.15"/>
    <polygon class="cls-4" points="12.9 235.54 26.24 248.54 12.31 249.36 12.9 235.54"/>
    <rect class="cls-4" width="10.32" height="260.79"/>
    <rect class="cls-4" y="249.36" width="167.24" height="11.43"/>
    <rect class="cls-9" width="167.24" height="10.33"/>
    <rect class="cls-4" x="156.12" width="11.13" height="260.79"/>
  </g>
  <g id="Kategorie_Name" data-name="Kategorie Name">
    <text class="cls-3" transform="translate(45.94 22.56) scale(1 1.09)"><tspan x="0" y="0">WILD CARD</tspan></text>
  </g>
  <g id="Motive">
    <text class="cls-5" transform="translate(44.08 128.15)"><tspan class="cls-6" x="0" y="0">x</tspan><tspan class="cls-7" x="29.2" y="0">2</tspan></text>
  </g>
  <g id="Kateg._Symbol" data-name="Kateg. Symbol">
    <path class="cls-8" d="M19.29,15.45c.5-.68.16-1.57-.67-1.73-.66-.13-1.38-.15-2.03-.29-.12-.03-.17-.06-.23-.17-.35-.59-.59-1.3-.94-1.89-.21-.35-.57-.56-.98-.54-.38.02-.7.23-.89.55-.34.58-.58,1.27-.91,1.85-.06.11-.12.17-.25.2-.67.15-1.44.15-2.11.31-.82.19-1.09,1.19-.51,1.8.36.39.8.76,1.18,1.14.11.11.37.33.39.47-.07.71-.27,1.42-.35,2.12-.06.5.17.97.65,1.16.39.15.66.07,1.01-.1.6-.3,1.18-.65,1.79-.93.13-.02.25.06.36.12.55.28,1.18.69,1.74.91.79.31,1.53-.31,1.46-1.14-.06-.66-.29-1.38-.35-2.04,0-.09,0-.18.07-.25l1.57-1.54Z"/>
    <path class="cls-8" d="M156.21,248.03c.5-.68.16-1.57-.67-1.73-.66-.13-1.38-.15-2.03-.29-.12-.03-.17-.06-.23-.17-.35-.59-.59-1.3-.94-1.89-.21-.35-.57-.56-.98-.54-.38.02-.7.23-.89.55-.34.58-.58,1.27-.91,1.85-.06.11-.12.17-.25.2-.67.15-1.44.15-2.11.31-.82.19-1.09,1.19-.51,1.8.36.39.8.76,1.18,1.14.11.11.37.33.39.47-.07.71-.27,1.42-.35,2.12-.06.5.17.97.65,1.16.39.15.66.07,1.01-.1.6-.3,1.18-.65,1.79-.93.13-.02.25.06.36.12.55.28,1.18.69,1.74.91.79.31,1.53-.31,1.46-1.14-.06-.66-.29-1.38-.35-2.04,0-.09,0-.18.07-.25l1.57-1.54Z"/>
  </g>
  <g id="Text_Karten" data-name="Text Karten">
    <g>
      <g>
        <path class="cls-8" d="M30.3,179.19s-.04-.03-.07-.05c0-.01,0-.01,0-.03-.02-.02-.04-.04-.05-.06,0,0-.01,0-.01-.01,0-.02-.03-.06-.05-.08l-2.45-5.84c-.12-.27,0-.6.3-.71.27-.12.59,0,.71.29l1.95,4.63,1.95-4.63c.12-.28.45-.41.72-.29.28.11.41.44.3.71l-2.47,5.84s-.02.06-.04.08t0,.01s-.04.04-.05.06t-.02.03s-.04.03-.06.05h-.02s-.05.05-.08.06t-.02.01s-.05,0-.08.02h-.02s-.07,0-.1,0-.07,0-.1,0h-.02s-.06-.02-.08-.02c0-.01,0-.01,0-.01h-.01s-.06-.04-.09-.06h0Z"/>
        <path class="cls-8" d="M34.16,176.79c.01-1.36,1.07-2.5,2.44-2.5,1.3,0,2.33.97,2.41,2.32v.05s0,.07-.01.09c-.03.24-.24.4-.52.4h-3.18c.05.23.16.49.34.66.21.24.61.42.96.45.36.03.79-.06,1.04-.25.21-.22.62-.19.75-.03.13.14.23.44,0,.65-.49.45-1.08.66-1.79.66-1.37,0-2.43-1.14-2.44-2.5ZM35.25,176.3h2.83c-.1-.4-.61-.99-1.48-1.06-.85.04-1.27.65-1.35,1.06Z"/>
      </g>
      <path class="cls-8" d="M43.27,174.82c0,.28-.23.53-.53.53-.23,0-.43.06-.6.19-.19.12-.34.29-.46.48-.24.32-.36.7-.41.84v1.9c0,.29-.25.53-.55.53s-.53-.24-.53-.53v-3.94c0-.29.24-.52.53-.52s.55.23.55.52v.07c.06-.07.14-.15.21-.2.33-.22.76-.4,1.26-.39.3,0,.53.23.53.52Z"/>
      <g>
        <path class="cls-8" d="M48.66,178.75c0,.29-.24.54-.54.54-.27,0-.48-.19-.53-.43-.38.26-.86.43-1.36.43-1.35,0-2.43-1.14-2.43-2.49s1.08-2.51,2.43-2.51c.49,0,.97.16,1.34.42v-1.88c0-.29.24-.54.55-.54s.54.25.54.54v3.96h0v1.96ZM46.23,175.38c-.36,0-.69.15-.94.41-.25.25-.4.61-.4,1.01s.15.74.4.99c.25.26.58.41.94.41s.69-.15.94-.41c.25-.25.4-.61.4-.99,0-.4-.15-.76-.4-1.01-.25-.26-.57-.41-.94-.41Z"/>
        <path class="cls-8" d="M50.99,178.56c-.43-.44-.69-1.06-.69-1.76s.26-1.27.69-1.75c.45-.47,1.03-.76,1.72-.76s1.26.29,1.67.76c.45.48.7,1.07.7,1.75s-.25,1.32-.7,1.76c-.41.47-1.01.76-1.67.76s-1.27-.29-1.72-.76ZM51.39,176.8c0,.43.13.78.36,1.06.25.24.58.37.96.37.35,0,.67-.13.92-.37.25-.28.39-.63.39-1.06s-.14-.77-.39-1.04c-.25-.22-.57-.38-.92-.38-.38,0-.71.16-.96.38-.23.27-.36.63-.36,1.04Z"/>
        <path class="cls-8" d="M56.58,180.63v-3.82h0v-1.99c0-.29.24-.53.53-.53s.51.19.55.41c.37-.24.85-.41,1.36-.41,1.33,0,2.42,1.14,2.42,2.51s-1.09,2.48-2.42,2.48c-.5,0-.98-.15-1.34-.41v1.76c0,.28-.25.54-.57.54-.29,0-.53-.26-.53-.54ZM57.68,176.8c0,.39.13.77.39,1,.25.28.58.42.95.42.34,0,.68-.14.94-.42.23-.23.39-.61.39-1s-.16-.75-.39-1.01c-.26-.27-.6-.41-.94-.41-.37,0-.7.14-.95.41-.26.26-.39.62-.39,1.01Z"/>
        <path class="cls-8" d="M62.98,180.63v-3.82h0v-1.99c0-.29.24-.53.53-.53s.51.19.55.41c.37-.24.85-.41,1.36-.41,1.33,0,2.42,1.14,2.42,2.51s-1.09,2.48-2.42,2.48c-.5,0-.98-.15-1.34-.41v1.76c0,.28-.25.54-.57.54-.29,0-.53-.26-.53-.54ZM64.08,176.8c0,.39.13.77.39,1,.25.28.58.42.95.42.34,0,.68-.14.94-.42.23-.23.39-.61.39-1s-.16-.75-.39-1.01c-.26-.27-.6-.41-.94-.41-.37,0-.7.14-.95.41-.26.26-.39.62-.39,1.01Z"/>
      </g>
      <g>
        <path class="cls-8" d="M69.8,172.29c.31,0,.56.25.56.55v5.9c0,.3-.25.55-.56.55s-.55-.25-.55-.55v-5.9c0-.3.25-.55.55-.55Z"/>
        <path class="cls-8" d="M71.57,176.79c.01-1.36,1.07-2.5,2.44-2.5,1.3,0,2.33.97,2.41,2.32v.05s0,.07-.01.09c-.03.24-.24.4-.52.4h-3.18c.05.23.16.49.34.66.21.24.61.42.96.45.36.03.79-.06,1.04-.25.21-.22.62-.19.75-.03.13.14.23.44,0,.65-.49.45-1.08.66-1.79.66-1.37,0-2.43-1.14-2.44-2.5ZM72.66,176.3h2.83c-.1-.4-.61-.99-1.48-1.06-.85.04-1.27.65-1.35,1.06Z"/>
      </g>
      <g>
        <path class="cls-8" d="M85.14,178.75c0,.29-.24.54-.54.54-.27,0-.48-.19-.53-.43-.38.26-.86.43-1.36.43-1.35,0-2.43-1.14-2.43-2.49s1.08-2.51,2.43-2.51c.49,0,.97.16,1.34.42v-1.88c0-.29.24-.54.55-.54s.54.25.54.54v3.96h0v1.96ZM82.71,175.38c-.36,0-.69.15-.94.41-.25.25-.4.61-.4,1.01s.15.74.4.99c.25.26.58.41.94.41s.69-.15.94-.41c.25-.25.4-.61.4-.99,0-.4-.15-.76-.4-1.01-.25-.26-.57-.41-.94-.41Z"/>
        <path class="cls-8" d="M88.1,173.04c0,.3-.23.55-.54.55s-.54-.25-.54-.55v-.21c0-.3.24-.54.54-.54s.54.24.54.54v.21ZM88.1,174.85v3.9c0,.3-.23.54-.54.54s-.54-.24-.54-.54v-3.9c0-.32.24-.55.54-.55s.54.23.54.55Z"/>
        <path class="cls-8" d="M89.27,176.79c0-1.36,1.07-2.5,2.44-2.5,1.3,0,2.33.97,2.41,2.32v.05s0,.07,0,.09c-.03.24-.24.4-.52.4h-3.18c.05.23.16.49.34.66.21.24.61.42.96.45.36.03.79-.06,1.04-.25.21-.22.62-.19.75-.03.13.14.23.44,0,.65-.49.45-1.08.66-1.79.66-1.37,0-2.43-1.14-2.44-2.5ZM90.36,176.3h2.83c-.1-.4-.61-.99-1.48-1.06-.85.04-1.27.65-1.35,1.06Z"/>
        <path class="cls-8" d="M98.2,177.55c.18-.22.51-.25.73-.07.44.36,1.2.78,1.91.77.5,0,.95-.15,1.25-.37s.43-.47.43-.72c0-.13-.03-.22-.09-.32-.06-.1-.15-.2-.3-.3-.29-.19-.78-.36-1.37-.47h-.02c-.47-.09-.91-.21-1.29-.39-.38-.18-.71-.43-.93-.78-.15-.24-.23-.52-.23-.82,0-.6.34-1.12.8-1.46.47-.34,1.08-.53,1.73-.53.96,0,1.67.47,2.18.8.23.16.3.48.14.71-.15.24-.47.31-.71.15-.51-.34-1-.64-1.61-.64-.45,0-.85.14-1.12.34-.27.2-.38.42-.38.63,0,.12.02.2.07.28s.14.17.27.26c.26.18.71.34,1.25.44h.02c.51.1.98.23,1.38.42.41.2.77.46,1,.83.15.24.24.54.24.85,0,.64-.36,1.19-.86,1.55-.49.36-1.14.57-1.85.57-1.08-.01-1.99-.55-2.56-1-.22-.18-.25-.51-.08-.73Z"/>
        <path class="cls-8" d="M104.43,176.8c0-1.39,1.16-2.5,2.54-2.51.6,0,1.16.22,1.59.55.23.18.27.52.11.74-.2.24-.52.28-.75.1-.26-.19-.58-.32-.95-.32-.81,0-1.48.67-1.48,1.44s.67,1.43,1.48,1.43c.36,0,.69-.13.95-.32.22-.17.55-.13.75.11.16.22.12.54-.11.74-.43.31-.99.53-1.59.53-1.38,0-2.54-1.12-2.54-2.49Z"/>
        <path class="cls-8" d="M111.4,178.74c0,.31-.25.55-.56.55-.25,0-.46-.18-.53-.41,0-.04-.02-.09-.02-.14v-5.9c0-.31.25-.55.55-.55s.56.24.56.55v1.74c.32-.17.68-.29,1.07-.29,1.21,0,2.18.99,2.18,2.19v2.26c0,.31-.24.55-.55.55s-.55-.24-.55-.55v-2.26c0-.59-.48-1.07-1.08-1.08-.59,0-1.06.49-1.07,1.08v2.26Z"/>
        <path class="cls-8" d="M116.84,172.29c.31,0,.56.25.56.55v5.9c0,.3-.25.55-.56.55s-.55-.25-.55-.55v-5.9c0-.3.25-.55.55-.55Z"/>
        <path class="cls-8" d="M120.49,179.29c-1.14,0-2.08-.94-2.08-2.08v-2.39c0-.28.24-.53.53-.53s.53.25.53.53v2.39c0,.57.45,1.02,1.02,1.02s1.04-.45,1.05-1.02v-2.39c0-.28.22-.53.52-.53.28,0,.54.25.54.53v2.39c0,1.14-.96,2.08-2.11,2.08ZM119.5,172.31c.36,0,.65.29.65.65s-.29.64-.65.64-.64-.28-.64-.64.28-.65.64-.65ZM121.5,172.31c.36,0,.65.29.65.65s-.29.64-.65.64-.64-.28-.64-.64.28-.65.64-.65Z"/>
        <path class="cls-8" d="M124.09,176.8c0-1.39,1.16-2.5,2.54-2.51.6,0,1.16.22,1.59.55.23.18.27.52.11.74-.2.24-.52.28-.75.1-.26-.19-.58-.32-.95-.32-.81,0-1.48.67-1.48,1.44s.67,1.43,1.48,1.43c.36,0,.69-.13.95-.32.22-.17.55-.13.75.11.16.22.12.54-.11.74-.43.31-.99.53-1.59.53-1.38,0-2.54-1.12-2.54-2.49Z"/>
        <path class="cls-8" d="M129.95,178.74v-5.9c0-.3.24-.55.55-.55s.56.25.56.55v3.46l2.05-2.05c.21-.21.57-.21.78,0s.22.57,0,.78l-1.5,1.5,1.54,1.85c.19.24.16.59-.08.78-.1.09-.23.13-.35.13-.16,0-.32-.07-.42-.2l-1.47-1.78-.55.55v.88c0,.3-.25.55-.56.55s-.55-.25-.55-.55Z"/>
      </g>
      <path class="cls-8" d="M134.75,176.79c0-1.36,1.07-2.5,2.44-2.5,1.3,0,2.33.97,2.41,2.32v.05s0,.07,0,.09c-.03.24-.24.4-.52.4h-3.18c.05.23.16.49.34.66.21.24.61.42.96.45.36.03.79-.06,1.04-.25.21-.22.62-.19.75-.03.13.14.23.44,0,.65-.49.45-1.08.66-1.79.66-1.37,0-2.43-1.14-2.44-2.5ZM135.84,176.3h2.83c-.1-.4-.61-.99-1.48-1.06-.85.04-1.27.65-1.35,1.06Z"/>
      <g>
        <path class="cls-8" d="M43.49,188.78c.01-1.36,1.07-2.5,2.44-2.5,1.3,0,2.33.97,2.41,2.32v.05s0,.07-.01.09c-.03.24-.24.4-.52.4h-3.18c.05.23.16.49.34.66.21.24.61.42.96.45.36.03.79-.06,1.04-.25.21-.22.62-.19.75-.03.13.14.23.44,0,.65-.49.45-1.08.66-1.79.66-1.37,0-2.43-1.14-2.44-2.5ZM44.58,188.29h2.83c-.1-.4-.61-.99-1.48-1.06-.85.04-1.27.65-1.35,1.06Z"/>
        <path class="cls-8" d="M50.82,185.03c0,.3-.23.55-.54.55s-.54-.25-.54-.55v-.21c0-.3.24-.54.54-.54s.54.24.54.54v.21ZM50.82,186.84v3.9c0,.3-.23.54-.54.54s-.54-.24-.54-.54v-3.9c0-.32.24-.55.54-.55s.54.23.54.55Z"/>
        <path class="cls-8" d="M56.5,188.36v2.39c0,.29-.23.53-.52.53s-.53-.24-.53-.53v-2.39c0-.56-.47-1.01-1.04-1.01s-1,.45-1,1.01v2.39s0,.06-.02.1c-.05.24-.27.43-.53.43-.3,0-.53-.24-.53-.53v-3.94c0-.29.23-.53.53-.53.21,0,.4.12.49.31.3-.19.67-.31,1.06-.31,1.16,0,2.09.95,2.09,2.08Z"/>
        <path class="cls-8" d="M57.92,188.78c.01-1.36,1.07-2.5,2.44-2.5,1.3,0,2.33.97,2.41,2.32v.05s0,.07-.01.09c-.03.24-.24.4-.52.4h-3.18c.05.23.16.49.34.66.21.24.61.42.96.45.36.03.79-.06,1.04-.25.21-.22.62-.19.75-.03.13.14.23.44,0,.65-.49.45-1.08.66-1.79.66-1.37,0-2.43-1.14-2.44-2.5ZM59.01,188.29h2.83c-.1-.4-.61-.99-1.48-1.06-.85.04-1.27.65-1.35,1.06Z"/>
        <path class="cls-8" d="M63.92,189.85c.18-.24.53-.27.75-.08.26.22.71.45,1.1.44.27,0,.52-.09.68-.19.14-.12.18-.22.18-.3,0-.05,0-.07-.03-.1-.01-.03-.05-.07-.13-.12-.14-.1-.44-.21-.8-.28h0c-.31-.06-.61-.14-.87-.26-.27-.13-.51-.31-.69-.58-.11-.18-.17-.4-.17-.63,0-.46.26-.85.59-1.1.35-.24.77-.37,1.23-.37.69,0,1.18.33,1.5.55.24.16.31.49.16.74-.16.24-.49.31-.74.14-.32-.21-.6-.37-.92-.37-.25,0-.47.08-.6.18-.13.09-.16.18-.16.23,0,.04,0,.05.02.08.01.02.04.06.11.1.13.09.39.18.73.24h0s.01.01.01.01c.33.06.64.15.93.29.27.12.54.31.71.59.12.2.19.43.19.66,0,.49-.27.9-.63,1.16-.36.25-.81.4-1.3.4-.78,0-1.38-.37-1.78-.69-.22-.18-.25-.52-.07-.74Z"/>
        <path class="cls-8" d="M77.8,184.83v5.9c0,.3-.26.55-.56.55s-.55-.25-.55-.55v-4.21l-1.44,2c-.11.15-.27.23-.45.23h-.02c-.18,0-.35-.08-.46-.23l-1.43-2v4.21c0,.3-.25.55-.56.55s-.55-.25-.55-.55v-5.9c0-.3.25-.55.55-.55h.03c.16,0,.34.08.44.23l1.99,2.76,1.99-2.76c.11-.15.27-.23.45-.23h.01c.3,0,.56.25.56.55Z"/>
        <path class="cls-8" d="M81.01,185.03c0,.3-.23.55-.54.55s-.54-.25-.54-.55v-.21c0-.3.24-.54.54-.54s.54.24.54.54v.21ZM81.01,186.84v3.9c0,.3-.23.54-.54.54s-.54-.24-.54-.54v-3.9c0-.32.24-.55.54-.55s.54.23.54.55Z"/>
        <path class="cls-8" d="M84.77,186.83c0,.3-.26.55-.56.55h-.25v2.79c.31,0,.55.25.55.56s-.24.55-.55.55c-.61,0-1.11-.5-1.11-1.11v-2.79h-.29c-.31,0-.55-.25-.55-.55s.24-.55.55-.55h.29v-1.45c0-.31.25-.55.56-.55s.55.24.55.55v1.45h.25c.3,0,.56.24.56.55Z"/>
        <path class="cls-8" d="M86.09,189.85c.18-.24.53-.27.75-.08.26.22.71.45,1.1.44.27,0,.52-.09.68-.19.14-.12.18-.22.18-.3,0-.05-.01-.07-.03-.1,0-.03-.05-.07-.13-.12-.14-.1-.44-.21-.8-.28h0c-.31-.06-.61-.14-.87-.26-.27-.13-.51-.31-.69-.58-.11-.18-.17-.4-.17-.63,0-.46.26-.85.59-1.1.35-.24.77-.37,1.23-.37.69,0,1.18.33,1.5.55.24.16.31.49.16.74-.16.24-.49.31-.74.14-.32-.21-.6-.37-.92-.37-.25,0-.47.08-.6.18-.13.09-.16.18-.16.23,0,.04,0,.05.02.08,0,.02.04.06.11.1.13.09.39.18.73.24h.01s0,.01,0,.01c.33.06.64.15.93.29.27.12.54.31.71.59.12.2.19.43.19.66,0,.49-.27.9-.63,1.16-.36.25-.81.4-1.3.4-.78,0-1.38-.37-1.78-.69-.22-.18-.25-.52-.07-.74Z"/>
        <path class="cls-8" d="M91.05,192.62v-3.82h0v-1.99c0-.29.24-.53.53-.53s.51.19.55.41c.37-.24.85-.41,1.36-.41,1.33,0,2.42,1.14,2.42,2.51s-1.09,2.48-2.42,2.48c-.5,0-.98-.15-1.34-.41v1.76c0,.28-.25.54-.57.54-.29,0-.53-.26-.53-.54ZM92.14,188.79c0,.39.13.77.39,1,.25.28.58.42.95.42.34,0,.68-.14.94-.42.23-.23.39-.61.39-1s-.16-.75-.39-1.01c-.26-.27-.6-.41-.94-.41-.37,0-.7.14-.95.41-.26.26-.39.62-.39,1.01Z"/>
      </g>
      <g>
        <path class="cls-8" d="M98.22,185.03c0,.3-.23.55-.54.55s-.54-.25-.54-.55v-.21c0-.3.24-.54.54-.54s.54.24.54.54v.21ZM98.22,186.84v3.9c0,.3-.23.54-.54.54s-.54-.24-.54-.54v-3.9c0-.32.24-.55.54-.55s.54.23.54.55Z"/>
        <path class="cls-8" d="M99.39,188.78c0-1.36,1.07-2.5,2.44-2.5,1.3,0,2.33.97,2.41,2.32v.05s0,.07,0,.09c-.03.24-.24.4-.52.4h-3.18c.05.23.16.49.34.66.21.24.61.42.96.45.36.03.79-.06,1.04-.25.21-.22.62-.19.75-.03.13.14.23.44,0,.65-.49.45-1.08.66-1.79.66-1.37,0-2.43-1.14-2.44-2.5ZM100.48,188.29h2.83c-.1-.4-.61-.99-1.48-1.06-.85.04-1.27.65-1.35,1.06Z"/>
        <path class="cls-8" d="M106.25,184.28c.31,0,.56.25.56.55v5.9c0,.3-.25.55-.56.55s-.55-.25-.55-.55v-5.9c0-.3.25-.55.55-.55Z"/>
      </g>
      <path class="cls-8" d="M108.03,188.78c0-1.36,1.07-2.5,2.44-2.5,1.3,0,2.33.97,2.41,2.32v.05s0,.07,0,.09c-.03.24-.24.4-.52.4h-3.18c.05.23.16.49.34.66.21.24.61.42.96.45.36.03.79-.06,1.04-.25.21-.22.62-.19.75-.03.13.14.23.44,0,.65-.49.45-1.08.66-1.79.66-1.37,0-2.43-1.14-2.44-2.5ZM109.11,188.29h2.83c-.1-.4-.61-.99-1.48-1.06-.85.04-1.27.65-1.35,1.06Z"/>
      <g>
        <path class="cls-8" d="M117.13,186.81c0,.28-.23.53-.53.53-.23,0-.43.06-.6.19-.19.12-.34.29-.46.48-.24.32-.36.7-.41.84v1.9c0,.29-.25.53-.55.53s-.53-.24-.53-.53v-3.94c0-.29.24-.52.53-.52s.55.23.55.52v.07c.06-.07.14-.15.21-.2.33-.22.76-.4,1.26-.39.3,0,.53.23.53.52Z"/>
        <path class="cls-8" d="M118.01,189.85c.18-.24.53-.27.75-.08.26.22.71.45,1.1.44.27,0,.52-.09.68-.19.14-.12.18-.22.18-.3,0-.05-.01-.07-.03-.1,0-.03-.05-.07-.13-.12-.14-.1-.44-.21-.8-.28h0c-.31-.06-.61-.14-.87-.26-.27-.13-.51-.31-.69-.58-.11-.18-.17-.4-.17-.63,0-.46.26-.85.59-1.1.35-.24.77-.37,1.23-.37.69,0,1.18.33,1.5.55.24.16.31.49.16.74-.16.24-.49.31-.74.14-.32-.21-.6-.37-.92-.37-.25,0-.47.08-.6.18-.13.09-.16.18-.16.23,0,.04,0,.05.02.08,0,.02.04.06.11.1.13.09.39.18.73.24h.01s0,.01,0,.01c.33.06.64.15.93.29.27.12.54.31.71.59.12.2.19.43.19.66,0,.49-.27.9-.63,1.16-.36.25-.81.4-1.3.4-.78,0-1.38-.37-1.78-.69-.22-.18-.25-.52-.07-.74Z"/>
        <path class="cls-8" d="M123.59,189.86c.41,0,.75.34.75.75s-.34.74-.75.74-.74-.33-.74-.74.33-.75.74-.75Z"/>
      </g>
    </g>
  </g>
</svg>