<?xml version="1.0" encoding="UTF-8"?>
<svg xmlns="http://www.w3.org/2000/svg" xmlns:xlink="http://www.w3.org/1999/xlink" viewBox="0 0 167.24 260.79">
  <defs>
    <style>
      .cls-1, .cls-2, .cls-3, .cls-4, .cls-5, .cls-6, .cls-7, .cls-8 {
        fill: none;
      }

      .cls-9 {
        fill: #010101;
      }

      .cls-10, .cls-11 {
        fill: #e74258;
      }

      .cls-2, .cls-3, .cls-4, .cls-5, .cls-6, .cls-12, .cls-7, .cls-13, .cls-14, .cls-15, .cls-16, .cls-17, .cls-8 {
        font-family: QuicksandBold-Regular, Quicksand;
        font-size: 10px;
      }

      .cls-2, .cls-3, .cls-4, .cls-5, .cls-6, .cls-7, .cls-8 {
        stroke: #fff;
      }

      .cls-2, .cls-13 {
        letter-spacing: -.02em;
      }

      .cls-18 {
        fill: #171717;
      }

      .cls-4 {
        letter-spacing: -.09em;
      }

      .cls-5, .cls-16 {
        letter-spacing: -.06em;
      }

      .cls-19 {
        clip-path: url(#clippath-1);
      }

      .cls-20, .cls-12, .cls-13, .cls-14, .cls-15, .cls-16, .cls-17 {
        fill: #fff;
      }

      .cls-6, .cls-14 {
        letter-spacing: -.02em;
      }

      .cls-12, .cls-7 {
        letter-spacing: -.04em;
      }

      .cls-21 {
        fill: #171715;
      }

      .cls-15, .cls-8 {
        letter-spacing: -.02em;
      }

      .cls-11 {
        font-family: Namaku, Namaku;
        font-size: 15px;
      }

      .cls-22 {
        clip-path: url(#clippath);
      }
    </style>
    <clipPath id="clippath">
      <rect class="cls-1" x="0" y="0" width="167.24" height="260.79"/>
    </clipPath>
    <clipPath id="clippath-1">
      <rect class="cls-1" x="0" y="0" width="167.24" height="260.79"/>
    </clipPath>
  </defs>
  <g id="Background">
    <rect class="cls-10" width="167.24" height="260.79"/>
  </g>
  <g id="Rahmen">
    <path class="cls-9" d="M151.9,23.16c9.65,0,9.67-15,0-15s-9.67,15,0,15h0Z"/>
    <path class="cls-9" d="M152.22,254.59c9.65,0,9.67-15,0-15s-9.67,15,0,15h0Z"/>
    <path class="cls-9" d="M14.14,254.72c9.65,0,9.67-15,0-15s-9.67,15,0,15h0Z"/>
    <path class="cls-18" d="M11.56,15.67c18.49.32,36.98.69,55.46,1.04,19.51.36,39.05-.42,58.56-.82,10.18-.21,20.36-.38,30.54-.21l-3.75-3.75c-1.46,11.81-1.7,23.8-1.97,35.69-.33,14.15-.39,28.31-.37,42.46.01,9.3.14,18.61.07,27.91-.06,7.86-.43,15.71-.48,23.57-.07,11.29.08,22.59.37,33.88.56,22.38,1.59,44.74,2.18,67.12.07,2.79.14,5.57.2,8.36l3.75-3.75c-15.41-.13-30.81.06-46.22.48-24.85.69-49.67.84-74.52.24-8.25-.2-16.49-.49-24.74-.73l3.75,3.75c-.56-4.87-.34-9.89-.27-14.78.11-8.38.38-16.76.66-25.14.66-20.11,1.45-40.22,1.83-60.34.16-8.4.26-16.81.05-25.21-.13-5.24-.51-10.46-.61-15.7-.33-17.03-.19-34.08-.18-51.11,0-8.91,0-17.82-.06-26.73-.04-5.94-.04-11.89-.34-17.82-.04-.72-.08-1.43-.15-2.15-.19-1.95-1.59-3.85-3.75-3.75-1.87.08-3.96,1.66-3.75,3.75.48,4.83.39,9.76.44,14.61.09,8.42.1,16.84.11,25.25,0,17.78-.1,35.55.11,53.33.06,5.22.27,10.41.52,15.62.36,7.73.31,15.47.21,23.21-.24,20.03-1.02,40.04-1.7,60.06-.3,8.95-.6,17.9-.79,26.85-.13,5.9-.3,11.84,0,17.74.04.78.09,1.55.18,2.32.24,2.06,1.53,3.69,3.75,3.75,18.27.53,36.53,1.09,54.81,1.16,23.38.09,46.73-.97,70.1-1.19,6.85-.06,13.71-.03,20.56.02,2,.02,3.79-1.73,3.75-3.75-.48-22.44-1.5-44.87-2.16-67.3-.33-11.25-.57-22.51-.6-33.77-.03-10.16.25-20.29.47-30.44.18-8.23-.03-16.48-.05-24.72-.03-13.94,0-27.88.25-41.82.23-12.54.48-25.14,1.72-37.62.11-1.1.23-2.21.37-3.31.25-2.04-1.92-3.72-3.75-3.75-19.14-.32-38.3.42-57.44.81-9.78.2-19.58.45-29.37.27-7.76-.14-15.52-.3-23.28-.45-11.49-.22-22.99-.44-34.48-.63-1.96-.03-3.84,1.75-3.75,3.75s1.65,3.71,3.75,3.75h0Z"/>
    <polygon class="cls-18" points="26.61 14.43 14.5 29.16 14.18 13.04 26.61 14.43"/>
    <polygon class="cls-18" points="140.79 14.16 152.35 27.66 154.57 11.89 140.79 14.16"/>
    <polygon class="cls-18" points="139.48 248.15 153.14 235.93 156.07 248.65 139.48 248.15"/>
    <polygon class="cls-18" points="12.9 235.54 26.24 248.54 12.31 249.36 12.9 235.54"/>
    <rect class="cls-18" width="10.32" height="260.79"/>
    <rect class="cls-18" y="249.36" width="167.24" height="11.43"/>
    <rect class="cls-21" width="167.24" height="10.33"/>
    <rect class="cls-18" x="156.12" width="11.13" height="260.79"/>
    <path class="cls-18" d="M125.63,17.19c0-.85.38-3.85,0-4.78-1.01-2.49-3.83-2.81-6.59-2.81H48.2c-2.76,0-5.58.32-6.59,2.81-.38.93,0,3.93,0,4.78l-.3,5.71c-.6,5.31,9.41,4.59,13.19,4.59l21.81.37,7.3-.07h0l7.3.07,21.81-.37c3.79,0,13.79.72,13.19-4.59l-.3-5.71Z"/>
    <path class="cls-9" d="M151.9,23.16c9.65,0,9.67-15,0-15s-9.67,15,0,15h0Z"/>
    <path class="cls-9" d="M152.22,254.59c9.65,0,9.67-15,0-15s-9.67,15,0,15h0Z"/>
    <path class="cls-9" d="M14.14,254.72c9.65,0,9.67-15,0-15s-9.67,15,0,15h0Z"/>
    <path class="cls-18" d="M11.56,15.67c18.49.32,36.98.69,55.46,1.04,19.51.36,39.05-.42,58.56-.82,10.18-.21,20.36-.38,30.54-.21l-3.75-3.75c-1.46,11.81-1.7,23.8-1.97,35.69-.33,14.15-.39,28.31-.37,42.46.01,9.3.14,18.61.07,27.91-.06,7.86-.43,15.71-.48,23.57-.07,11.29.08,22.59.37,33.88.56,22.38,1.59,44.74,2.18,67.12.07,2.79.14,5.57.2,8.36l3.75-3.75c-15.41-.13-30.81.06-46.22.48-24.85.69-49.67.84-74.52.24-8.25-.2-16.49-.49-24.74-.73l3.75,3.75c-.56-4.87-.34-9.89-.27-14.78.11-8.38.38-16.76.66-25.14.66-20.11,1.45-40.22,1.83-60.34.16-8.4.26-16.81.05-25.21-.13-5.24-.51-10.46-.61-15.7-.33-17.03-.19-34.08-.18-51.11,0-8.91,0-17.82-.06-26.73-.04-5.94-.04-11.89-.34-17.82-.04-.72-.08-1.43-.15-2.15-.19-1.95-1.59-3.85-3.75-3.75-1.87.08-3.96,1.66-3.75,3.75.48,4.83.39,9.76.44,14.61.09,8.42.1,16.84.11,25.25,0,17.78-.1,35.55.11,53.33.06,5.22.27,10.41.52,15.62.36,7.73.31,15.47.21,23.21-.24,20.03-1.02,40.04-1.7,60.06-.3,8.95-.6,17.9-.79,26.85-.13,5.9-.3,11.84,0,17.74.04.78.09,1.55.18,2.32.24,2.06,1.53,3.69,3.75,3.75,18.27.53,36.53,1.09,54.81,1.16,23.38.09,46.73-.97,70.1-1.19,6.85-.06,13.71-.03,20.56.02,2,.02,3.79-1.73,3.75-3.75-.48-22.44-1.5-44.87-2.16-67.3-.33-11.25-.57-22.51-.6-33.77-.03-10.16.25-20.29.47-30.44.18-8.23-.03-16.48-.05-24.72-.03-13.94,0-27.88.25-41.82.23-12.54.48-25.14,1.72-37.62.11-1.1.23-2.21.37-3.31.25-2.04-1.92-3.72-3.75-3.75-19.14-.32-38.3.42-57.44.81-9.78.2-19.58.45-29.37.27-7.76-.14-15.52-.3-23.28-.45-11.49-.22-22.99-.44-34.48-.63-1.96-.03-3.84,1.75-3.75,3.75s1.65,3.71,3.75,3.75h0Z"/>
    <polygon class="cls-18" points="26.61 14.43 14.5 29.16 14.18 13.04 26.61 14.43"/>
    <polygon class="cls-18" points="140.79 14.16 152.35 27.66 154.57 11.89 140.79 14.16"/>
    <polygon class="cls-18" points="139.48 248.15 153.14 235.93 156.07 248.65 139.48 248.15"/>
    <polygon class="cls-18" points="12.9 235.54 26.24 248.54 12.31 249.36 12.9 235.54"/>
    <rect class="cls-18" width="10.32" height="260.79"/>
    <rect class="cls-18" y="249.36" width="167.24" height="11.43"/>
    <rect class="cls-21" width="167.24" height="10.33"/>
    <rect class="cls-18" x="156.12" width="11.13" height="260.79"/>
  </g>
  <g id="Kategorie_Name" data-name="Kategorie Name">
    <text class="cls-11" transform="translate(45.94 22.56) scale(1 1.09)"><tspan x="0" y="0">WILD CARD</tspan></text>
  </g>
  <g id="Motive">
    <g>
      <path class="cls-18" d="M112.26,94.95c0,.6-.6,1.03-1.16.81-.03-.01-.06-.02-.1-.03-1.83-.57-3.19.84-4.77,1.65-.4.21-.89.05-1.13-.33-.6-.96-1.82-1.83-2.73-2.05-2.64-.63-11.28-.72-13.75.14-1.68.59-2.55,1.78-3.16,3.3-.13.34-.46.56-.82.55l-2.23-.04c-.37,0-.71-.25-.81-.6-.43-1.49-1.6-2.69-3.08-3.21-2.47-.87-11.11-.77-13.75-.14-.91.22-2.14,1.09-2.73,2.05-.24.38-.73.54-1.13.33-1.58-.82-2.94-2.23-4.77-1.65-.03.01-.07.02-.1.03-.56.22-1.16-.21-1.16-.81v-5.79c0-2.27,2.4-8.03,3.58-10.14,10.79-19.37,39.14-19.48,50.12-.2,1.22,2.14,3.69,8.03,3.69,10.34v5.79ZM90.02,76c-.28-.35-1.14-.67-1.61-.73-1.81-.23-8.24-.25-9.98.03-2.42.39-2.41,4.25,0,4.64,1.62.26,8.64.26,10.26,0,1.8-.29,2.33-2.7,1.33-3.95ZM94.7,85.35c-.28-.35-1.14-.67-1.61-.73-3.65-.46-15.4-.46-19.05,0-2.83.35-2.83,4.35,0,4.7,3.7.46,15.34.45,19.05,0,2-.24,2.75-2.56,1.61-3.98Z"/>
      <path class="cls-18" d="M45.21,88.11c.58-4.86,4.26-10.49,8.74-13.73,1.17-.84,2.67.53,1.95,1.78-2.81,4.86-4.55,10.31-4.52,16,0,.61-.41,1.14-1,1.31-1.11.31-2.16.74-3.16,1.28-.88.48-1.95-.16-1.98-1.16-.06-1.86-.24-3.79-.04-5.49Z"/>
      <path class="cls-18" d="M120.08,94.88c-1.01-.55-2.07-.98-3.19-1.3-.59-.17-1-.7-1-1.31.03-5.69-1.71-11.15-4.53-16.02-.72-1.25.77-2.61,1.95-1.78,3.2,2.26,5.84,5.62,7.25,9.01.36.87,1.5,4.02,1.5,4.73v5.46c0,1.02-1.09,1.68-1.98,1.2Z"/>
      <path class="cls-18" d="M65.79,99.6h11.07c1.54,2.45-.64,6.5-3.33,7.27-5,1.44-8.6-2.4-7.74-7.27Z"/>
      <path class="cls-18" d="M101.34,99.6c.86,4.88-2.75,8.72-7.74,7.27-2.69-.78-4.86-4.83-3.33-7.27h11.07Z"/>
      <path class="cls-18" d="M51.14,100.38v11.94c0,1.09-1.2,1.77-2.13,1.19-5.14-3.19-5.14-11.13,0-14.32.93-.58,2.13.1,2.13,1.19Z"/>
      <path class="cls-18" d="M116.13,112.43v-11.94c0-1.09,1.2-1.77,2.13-1.19,5.14,3.19,5.14,11.13,0,14.32-.93.58-2.13-.1-2.13-1.19Z"/>
      <path class="cls-18" d="M109.98,125.98c.67-.37,1.43.32,1.12,1.02-2.02,4.56-6.31,9.32-9.67,11.33-7.66,4.58-27.58,4.62-35.34.22-3.44-1.95-7.78-6.62-9.91-11.19-.36-.77.47-1.55,1.22-1.16,1.16.61,2.24,1.13,2.77,1.36,6.43,2.77,13.92,4.05,20.49,1.02.46-.21,1.1-.75,1.71-1.17s1.37-.4,1.96,0c7.74,5.09,17.95,2.86,25.64-1.42h.02Z"/>
      <path class="cls-18" d="M112.25,102.31v17.52c0,1.38-1.12,2.5-2.5,2.49-2.03-.02-4.31.15-5.39.06-1.82-.14-4.4-.72-6.12-1.35-4.99-1.83-8.16-7.47-13.92-3.48-.57.4-1.33.39-1.89-.02-5.68-4.11-9.7,2.5-15.24,4.01-1.26.34-3.3.74-4.59.84-1.06.08-3.25-.08-5.24-.07-1.37,0-2.49-1.11-2.49-2.49v-17.48c0-1.36,1.45-2.23,2.65-1.58,1.61.86,3.38,1.85,3.5,2.04.28.44.53,2.36.96,3.25,4.16,8.53,16.46,7.25,19.52-1.18.27-.73.95-1.22,1.73-1.21l.81.02c.77.01,1.43.52,1.68,1.25,2.87,8.46,15.29,9.58,19.4,1.13.43-.89.68-2.81.96-3.25.12-.19,1.84-1.19,3.43-2.08,1.21-.69,2.72.19,2.72,1.59Z"/>
    </g>
  </g>
  <g id="Kateg._Symbol" data-name="Kateg. Symbol">
    <path class="cls-20" d="M19.29,15.45c.5-.68.16-1.57-.67-1.73-.66-.13-1.38-.15-2.03-.29-.12-.03-.17-.06-.23-.17-.35-.59-.59-1.3-.94-1.89-.21-.35-.57-.56-.98-.54-.38.02-.7.23-.89.55-.34.58-.58,1.27-.91,1.85-.06.11-.12.17-.25.2-.67.15-1.44.15-2.11.31-.82.19-1.09,1.19-.51,1.8.36.39.8.76,1.18,1.14.11.11.37.33.39.47-.07.71-.27,1.42-.35,2.12-.06.5.17.97.65,1.16.39.15.66.07,1.01-.1.6-.3,1.18-.65,1.79-.93.13-.02.25.06.36.12.55.28,1.18.69,1.74.91.79.31,1.53-.31,1.46-1.14-.06-.66-.29-1.38-.35-2.04,0-.09,0-.18.07-.25l1.57-1.54Z"/>
    <path class="cls-20" d="M156.21,248.03c.5-.68.16-1.57-.67-1.73-.66-.13-1.38-.15-2.03-.29-.12-.03-.17-.06-.23-.17-.35-.59-.59-1.3-.94-1.89-.21-.35-.57-.56-.98-.54-.38.02-.7.23-.89.55-.34.58-.58,1.27-.91,1.85-.06.11-.12.17-.25.2-.67.15-1.44.15-2.11.31-.82.19-1.09,1.19-.51,1.8.36.39.8.76,1.18,1.14.11.11.37.33.39.47-.07.71-.27,1.42-.35,2.12-.06.5.17.97.65,1.16.39.15.66.07,1.01-.1.6-.3,1.18-.65,1.79-.93.13-.02.25.06.36.12.55.28,1.18.69,1.74.91.79.31,1.53-.31,1.46-1.14-.06-.66-.29-1.38-.35-2.04,0-.09,0-.18.07-.25l1.57-1.54Z"/>
  </g>
  <g id="Text_Karten" data-name="Text Karten">
    <g>
      <g class="cls-22">
        <text class="cls-8" transform="translate(25.95 179.29)"><tspan x="0" y="0">De</tspan></text>
        <text class="cls-8" transform="translate(38.62 179.29)"><tspan x="0" y="0">r ält</tspan></text>
        <text class="cls-6" transform="translate(56.84 179.29)"><tspan x="0" y="0">es</tspan></text>
        <text class="cls-5" transform="translate(67.6 179.29)"><tspan x="0" y="0">te</tspan></text>
        <text class="cls-8" transform="translate(76.89 179.29)"><tspan x="0" y="0" xml:space="preserve"> Sp</tspan></text>
        <text class="cls-2" transform="translate(92.25 179.29)"><tspan x="0" y="0">iel</tspan></text>
        <text class="cls-7" transform="translate(103.49 179.29)"><tspan x="0" y="0">er</tspan></text>
        <text class="cls-3" transform="translate(113.36 179.29)"><tspan x="0" y="0"> </tspan></text>
        <text class="cls-4" transform="translate(116.16 179.29)"><tspan x="0" y="0">tr</tspan></text>
        <text class="cls-2" transform="translate(123.45 179.29)"><tspan x="0" y="0">ink</tspan></text>
        <text class="cls-3" transform="translate(137.29 179.29)"><tspan x="0" y="0">t </tspan></text>
      </g>
      <text class="cls-15" transform="translate(25.95 179.29)"><tspan x="0" y="0">De</tspan></text>
      <text class="cls-15" transform="translate(38.62 179.29)"><tspan x="0" y="0">r ält</tspan></text>
      <text class="cls-14" transform="translate(56.84 179.29)"><tspan x="0" y="0">es</tspan></text>
      <text class="cls-16" transform="translate(67.6 179.29)"><tspan x="0" y="0">te</tspan></text>
      <text class="cls-15" transform="translate(76.89 179.29)"><tspan x="0" y="0" xml:space="preserve"> Sp</tspan></text>
      <text class="cls-13" transform="translate(92.25 179.29)"><tspan x="0" y="0">iel</tspan></text>
      <text class="cls-12" transform="translate(103.49 179.29)"><tspan x="0" y="0">er</tspan></text>
      <text class="cls-15" transform="translate(113.36 179.29)"><tspan x="0" y="0" xml:space="preserve"> t</tspan></text>
      <text class="cls-13" transform="translate(119.27 179.29)"><tspan x="0" y="0">rink</tspan></text>
      <text class="cls-17" transform="translate(137.29 179.29)"><tspan x="0" y="0">t </tspan></text>
      <g class="cls-19">
        <text class="cls-8" transform="translate(63.91 191.28)"><tspan x="0" y="0">doppelt.</tspan></text>
      </g>
      <text class="cls-15" transform="translate(63.91 191.28)"><tspan x="0" y="0">doppelt.</tspan></text>
    </g>
  </g>
</svg>