<?xml version="1.0" encoding="UTF-8"?>
<svg xmlns="http://www.w3.org/2000/svg" xmlns:xlink="http://www.w3.org/1999/xlink" viewBox="0 0 167.24 260.79">
  <defs>
    <style>
      .cls-1, .cls-2, .cls-3, .cls-4, .cls-5, .cls-6, .cls-7, .cls-8 {
        fill: none;
      }

      .cls-9 {
        fill: #010101;
      }

      .cls-10, .cls-11 {
        fill: #e74258;
      }

      .cls-2, .cls-3, .cls-4, .cls-5, .cls-6, .cls-7, .cls-12, .cls-13, .cls-14, .cls-15, .cls-16, .cls-17, .cls-18, .cls-8 {
        font-family: QuicksandBold-Regular, Quicksand;
        font-size: 10px;
      }

      .cls-2, .cls-3, .cls-4, .cls-5, .cls-6, .cls-7, .cls-8 {
        stroke: #fff;
      }

      .cls-19 {
        fill: #171717;
      }

      .cls-3, .cls-13 {
        letter-spacing: .03em;
      }

      .cls-4, .cls-14 {
        letter-spacing: -.03em;
      }

      .cls-5, .cls-17 {
        letter-spacing: -.09em;
      }

      .cls-20 {
        clip-path: url(#clippath-1);
      }

      .cls-6, .cls-12 {
        letter-spacing: -.04em;
      }

      .cls-21, .cls-12, .cls-13, .cls-14, .cls-15, .cls-16, .cls-17, .cls-18 {
        fill: #fff;
      }

      .cls-7, .cls-15 {
        letter-spacing: -.02em;
      }

      .cls-22 {
        fill: #171715;
      }

      .cls-16, .cls-8 {
        letter-spacing: -.02em;
      }

      .cls-11 {
        font-family: Namaku, Namaku;
        font-size: 15px;
      }

      .cls-23 {
        clip-path: url(#clippath);
      }
    </style>
    <clipPath id="clippath">
      <rect class="cls-1" x="0" y="0" width="167.24" height="260.79"/>
    </clipPath>
    <clipPath id="clippath-1">
      <rect class="cls-1" x="0" y="0" width="167.24" height="260.79"/>
    </clipPath>
  </defs>
  <g id="Background">
    <rect class="cls-10" width="167.24" height="260.79"/>
  </g>
  <g id="Rahmen">
    <path class="cls-9" d="M151.9,23.16c9.65,0,9.67-15,0-15s-9.67,15,0,15h0Z"/>
    <path class="cls-9" d="M152.22,254.59c9.65,0,9.67-15,0-15s-9.67,15,0,15h0Z"/>
    <path class="cls-9" d="M14.14,254.72c9.65,0,9.67-15,0-15s-9.67,15,0,15h0Z"/>
    <path class="cls-19" d="M11.56,15.67c18.49.32,36.98.69,55.46,1.04,19.51.36,39.05-.42,58.56-.82,10.18-.21,20.36-.38,30.54-.21l-3.75-3.75c-1.46,11.81-1.7,23.8-1.97,35.69-.33,14.15-.39,28.31-.37,42.46.01,9.3.14,18.61.07,27.91-.06,7.86-.43,15.71-.48,23.57-.07,11.29.08,22.59.37,33.88.56,22.38,1.59,44.74,2.18,67.12.07,2.79.14,5.57.2,8.36l3.75-3.75c-15.41-.13-30.81.06-46.22.48-24.85.69-49.67.84-74.52.24-8.25-.2-16.49-.49-24.74-.73l3.75,3.75c-.56-4.87-.34-9.89-.27-14.78.11-8.38.38-16.76.66-25.14.66-20.11,1.45-40.22,1.83-60.34.16-8.4.26-16.81.05-25.21-.13-5.24-.51-10.46-.61-15.7-.33-17.03-.19-34.08-.18-51.11,0-8.91,0-17.82-.06-26.73-.04-5.94-.04-11.89-.34-17.82-.04-.72-.08-1.43-.15-2.15-.19-1.95-1.59-3.85-3.75-3.75-1.87.08-3.96,1.66-3.75,3.75.48,4.83.39,9.76.44,14.61.09,8.42.1,16.84.11,25.25,0,17.78-.1,35.55.11,53.33.06,5.22.27,10.41.52,15.62.36,7.73.31,15.47.21,23.21-.24,20.03-1.02,40.04-1.7,60.06-.3,8.95-.6,17.9-.79,26.85-.13,5.9-.3,11.84,0,17.74.04.78.09,1.55.18,2.32.24,2.06,1.53,3.69,3.75,3.75,18.27.53,36.53,1.09,54.81,1.16,23.38.09,46.73-.97,70.1-1.19,6.85-.06,13.71-.03,20.56.02,2,.02,3.79-1.73,3.75-3.75-.48-22.44-1.5-44.87-2.16-67.3-.33-11.25-.57-22.51-.6-33.77-.03-10.16.25-20.29.47-30.44.18-8.23-.03-16.48-.05-24.72-.03-13.94,0-27.88.25-41.82.23-12.54.48-25.14,1.72-37.62.11-1.1.23-2.21.37-3.31.25-2.04-1.92-3.72-3.75-3.75-19.14-.32-38.3.42-57.44.81-9.78.2-19.58.45-29.37.27-7.76-.14-15.52-.3-23.28-.45-11.49-.22-22.99-.44-34.48-.63-1.96-.03-3.84,1.75-3.75,3.75s1.65,3.71,3.75,3.75h0Z"/>
    <polygon class="cls-19" points="26.61 14.43 14.5 29.16 14.18 13.04 26.61 14.43"/>
    <polygon class="cls-19" points="140.79 14.16 152.35 27.66 154.57 11.89 140.79 14.16"/>
    <polygon class="cls-19" points="139.48 248.15 153.14 235.93 156.07 248.65 139.48 248.15"/>
    <polygon class="cls-19" points="12.9 235.54 26.24 248.54 12.31 249.36 12.9 235.54"/>
    <rect class="cls-19" width="10.32" height="260.79"/>
    <rect class="cls-19" y="249.36" width="167.24" height="11.43"/>
    <rect class="cls-22" width="167.24" height="10.33"/>
    <rect class="cls-19" x="156.12" width="11.13" height="260.79"/>
    <path class="cls-19" d="M125.63,17.19c0-.85.38-3.85,0-4.78-1.01-2.49-3.83-2.81-6.59-2.81H48.2c-2.76,0-5.58.32-6.59,2.81-.38.93,0,3.93,0,4.78l-.3,5.71c-.6,5.31,9.41,4.59,13.19,4.59l21.81.37,7.3-.07h0l7.3.07,21.81-.37c3.79,0,13.79.72,13.19-4.59l-.3-5.71Z"/>
    <path class="cls-9" d="M151.9,23.16c9.65,0,9.67-15,0-15s-9.67,15,0,15h0Z"/>
    <path class="cls-9" d="M152.22,254.59c9.65,0,9.67-15,0-15s-9.67,15,0,15h0Z"/>
    <path class="cls-9" d="M14.14,254.72c9.65,0,9.67-15,0-15s-9.67,15,0,15h0Z"/>
    <path class="cls-19" d="M11.56,15.67c18.49.32,36.98.69,55.46,1.04,19.51.36,39.05-.42,58.56-.82,10.18-.21,20.36-.38,30.54-.21l-3.75-3.75c-1.46,11.81-1.7,23.8-1.97,35.69-.33,14.15-.39,28.31-.37,42.46.01,9.3.14,18.61.07,27.91-.06,7.86-.43,15.71-.48,23.57-.07,11.29.08,22.59.37,33.88.56,22.38,1.59,44.74,2.18,67.12.07,2.79.14,5.57.2,8.36l3.75-3.75c-15.41-.13-30.81.06-46.22.48-24.85.69-49.67.84-74.52.24-8.25-.2-16.49-.49-24.74-.73l3.75,3.75c-.56-4.87-.34-9.89-.27-14.78.11-8.38.38-16.76.66-25.14.66-20.11,1.45-40.22,1.83-60.34.16-8.4.26-16.81.05-25.21-.13-5.24-.51-10.46-.61-15.7-.33-17.03-.19-34.08-.18-51.11,0-8.91,0-17.82-.06-26.73-.04-5.94-.04-11.89-.34-17.82-.04-.72-.08-1.43-.15-2.15-.19-1.95-1.59-3.85-3.75-3.75-1.87.08-3.96,1.66-3.75,3.75.48,4.83.39,9.76.44,14.61.09,8.42.1,16.84.11,25.25,0,17.78-.1,35.55.11,53.33.06,5.22.27,10.41.52,15.62.36,7.73.31,15.47.21,23.21-.24,20.03-1.02,40.04-1.7,60.06-.3,8.95-.6,17.9-.79,26.85-.13,5.9-.3,11.84,0,17.74.04.78.09,1.55.18,2.32.24,2.06,1.53,3.69,3.75,3.75,18.27.53,36.53,1.09,54.81,1.16,23.38.09,46.73-.97,70.1-1.19,6.85-.06,13.71-.03,20.56.02,2,.02,3.79-1.73,3.75-3.75-.48-22.44-1.5-44.87-2.16-67.3-.33-11.25-.57-22.51-.6-33.77-.03-10.16.25-20.29.47-30.44.18-8.23-.03-16.48-.05-24.72-.03-13.94,0-27.88.25-41.82.23-12.54.48-25.14,1.72-37.62.11-1.1.23-2.21.37-3.31.25-2.04-1.92-3.72-3.75-3.75-19.14-.32-38.3.42-57.44.81-9.78.2-19.58.45-29.37.27-7.76-.14-15.52-.3-23.28-.45-11.49-.22-22.99-.44-34.48-.63-1.96-.03-3.84,1.75-3.75,3.75s1.65,3.71,3.75,3.75h0Z"/>
    <polygon class="cls-19" points="26.61 14.43 14.5 29.16 14.18 13.04 26.61 14.43"/>
    <polygon class="cls-19" points="140.79 14.16 152.35 27.66 154.57 11.89 140.79 14.16"/>
    <polygon class="cls-19" points="139.48 248.15 153.14 235.93 156.07 248.65 139.48 248.15"/>
    <polygon class="cls-19" points="12.9 235.54 26.24 248.54 12.31 249.36 12.9 235.54"/>
    <rect class="cls-19" width="10.32" height="260.79"/>
    <rect class="cls-19" y="249.36" width="167.24" height="11.43"/>
    <rect class="cls-22" width="167.24" height="10.33"/>
    <rect class="cls-19" x="156.12" width="11.13" height="260.79"/>
  </g>
  <g id="Kategorie_Name" data-name="Kategorie Name">
    <text class="cls-11" transform="translate(45.94 22.56) scale(1 1.09)"><tspan x="0" y="0">WILD CARD</tspan></text>
  </g>
  <g id="Motive">
    <g>
      <path class="cls-19" d="M65.83,107.29c0,.17,0,.59-.02,1.28-.01.69-.03,1.43-.04,2.21-.01.79-.03,1.49-.06,2.11-.03.62-.04.94-.04.97-.11.28-.46.47-1.05.58-.59.11-1.26.18-1.99.21-.73.03-1.44.03-2.13,0-.69-.03-1.17-.04-1.45-.04-.14,0-.31,0-.52.02-.21.01-.41.02-.62.02s-.4-.03-.58-.08c-.18-.05-.3-.15-.35-.29-.03-.05-.04-.24-.04-.56s0-.72.02-1.2c.01-.48.03-1,.06-1.55.03-.55.05-1.08.06-1.59.01-.51.03-.96.04-1.34.01-.39.02-.66.02-.83-.25,0-.74.01-1.47.04-.73.03-1.5.05-2.3.06-.8.01-1.53.01-2.19,0-.66-.01-1.06-.06-1.2-.15-.22-.11-.37-.3-.45-.58-.03-.11-.04-.5-.04-1.18s.01-1.42.04-2.23c.03-.81.06-1.57.1-2.27s.08-1.15.1-1.34c.06-.39.23-.66.54-.83.14-.08.52-.15,1.14-.19.62-.04,1.3-.08,2.03-.1.73-.03,1.43-.05,2.11-.06.68-.01,1.14-.02,1.39-.02,0-.25-.03-.68-.08-1.3-.06-.62-.1-1.26-.12-1.92-.03-.66-.05-1.28-.06-1.84-.01-.57.02-.92.1-1.05.14-.25.33-.41.58-.5.08-.03.46-.05,1.14-.06.68-.01,1.42-.01,2.23,0,.81.01,1.59.03,2.32.04.73.01,1.18.03,1.34.06.17.03.32.08.48.14.15.07.27.19.35.35.08.19.16.58.23,1.16.07.58.12,1.21.17,1.88.04.68.08,1.32.12,1.94.04.62.06,1.07.06,1.34.41,0,.89,0,1.43.02.54.01,1.08.03,1.63.04.55.01,1.09.04,1.61.08.52.04.98.1,1.36.19.22.17.38.31.48.43.1.12.16.34.19.64v2.17c0,.54,0,1.11-.02,1.72-.01.61-.03,1.17-.04,1.68-.01.51-.03.94-.04,1.28-.01.34-.03.53-.06.56-.08.14-.43.21-1.03.21s-1.28-.02-2.01-.06c-.73-.04-1.43-.1-2.11-.17-.68-.07-1.12-.1-1.34-.1Z"/>
      <path class="cls-19" d="M95.02,93.42c1.16-.22,2.38-.41,3.68-.58,1.29-.17,2.59-.22,3.89-.17,1.3.06,2.56.25,3.81.58,1.24.33,2.36.86,3.35,1.57,2.1,1.54,3.78,3.43,5.05,5.67,1.27,2.23,2.12,4.65,2.56,7.24.44,2.59.51,5.23.21,7.9-.3,2.68-.99,5.2-2.07,7.57-1.08,2.37-2.51,4.48-4.3,6.33-1.79,1.85-3.93,3.21-6.41,4.1-1.49.55-3.02.9-4.59,1.03-1.57.14-3.16.15-4.76.04-.44-.06-1.2-.18-2.27-.37-1.08-.19-2.29-.47-3.64-.83-1.35-.36-2.76-.75-4.22-1.16-1.46-.41-2.8-.85-4.01-1.32-1.21-.47-2.22-.95-3.02-1.45-.8-.5-1.2-.99-1.2-1.49,0-.11.22-.59.66-1.45.44-.85.95-1.82,1.53-2.9s1.12-2.11,1.61-3.1c.5-.99.83-1.71.99-2.15.05-.22.15-.52.29-.91.14-.39.29-.76.45-1.12.16-.36.37-.66.62-.91.25-.25.54-.34.87-.29,2.65,1.77,4.98,2.87,6.99,3.31,2.01.44,3.72.46,5.13.04,1.41-.41,2.51-1.14,3.31-2.19.8-1.05,1.3-2.19,1.49-3.43s.07-2.44-.37-3.6c-.44-1.16-1.19-2.1-2.23-2.81-.83-.55-1.83-.87-3.02-.95-1.19-.08-2.41-.04-3.68.12-1.27.17-2.56.4-3.89.7-1.32.3-2.54.59-3.64.87-1.1.28-2.08.45-2.94.54-.86.08-1.45-.01-1.78-.29-.44-.33-.79-1.34-1.03-3.02-.25-1.68-.43-3.68-.54-6-.11-2.32-.15-4.8-.12-7.45.03-2.65.11-5.11.25-7.4.14-2.29.3-4.22.5-5.79.19-1.57.4-2.47.62-2.69.17-.17,1.12-.39,2.85-.66,1.74-.28,3.85-.55,6.33-.83,2.48-.28,5.17-.57,8.07-.87,2.9-.3,5.6-.56,8.11-.79,2.51-.22,4.67-.4,6.49-.54,1.82-.14,2.9-.18,3.23-.12.44.06.77.24.99.54.22.3.37.65.46,1.03.08.39.14.8.16,1.24.03.44.04.83.04,1.16,0,.55.03,1.35.08,2.4.05,1.05.07,2.12.04,3.23-.03,1.1-.11,2.14-.25,3.1-.14.97-.4,1.64-.79,2.03-.44.5-1.03.76-1.78.79-.74.03-1.42-.01-2.03-.12-2.48-.39-5.16-.61-8.02-.66-2.87-.05-5.57,0-8.11.17-.06,1.21-.1,2.4-.12,3.56-.03,1.16.01,2.34.12,3.56Z"/>
    </g>
  </g>
  <g id="Kateg._Symbol" data-name="Kateg. Symbol">
    <path class="cls-21" d="M19.29,15.45c.5-.68.16-1.57-.67-1.73-.66-.13-1.38-.15-2.03-.29-.12-.03-.17-.06-.23-.17-.35-.59-.59-1.3-.94-1.89-.21-.35-.57-.56-.98-.54-.38.02-.7.23-.89.55-.34.58-.58,1.27-.91,1.85-.06.11-.12.17-.25.2-.67.15-1.44.15-2.11.31-.82.19-1.09,1.19-.51,1.8.36.39.8.76,1.18,1.14.11.11.37.33.39.47-.07.71-.27,1.42-.35,2.12-.06.5.17.97.65,1.16.39.15.66.07,1.01-.1.6-.3,1.18-.65,1.79-.93.13-.02.25.06.36.12.55.28,1.18.69,1.74.91.79.31,1.53-.31,1.46-1.14-.06-.66-.29-1.38-.35-2.04,0-.09,0-.18.07-.25l1.57-1.54Z"/>
    <path class="cls-21" d="M156.21,248.03c.5-.68.16-1.57-.67-1.73-.66-.13-1.38-.15-2.03-.29-.12-.03-.17-.06-.23-.17-.35-.59-.59-1.3-.94-1.89-.21-.35-.57-.56-.98-.54-.38.02-.7.23-.89.55-.34.58-.58,1.27-.91,1.85-.06.11-.12.17-.25.2-.67.15-1.44.15-2.11.31-.82.19-1.09,1.19-.51,1.8.36.39.8.76,1.18,1.14.11.11.37.33.39.47-.07.71-.27,1.42-.35,2.12-.06.5.17.97.65,1.16.39.15.66.07,1.01-.1.6-.3,1.18-.65,1.79-.93.13-.02.25.06.36.12.55.28,1.18.69,1.74.91.79.31,1.53-.31,1.46-1.14-.06-.66-.29-1.38-.35-2.04,0-.09,0-.18.07-.25l1.57-1.54Z"/>
  </g>
  <g id="Text_Karten" data-name="Text Karten">
    <g>
      <g class="cls-23">
        <text class="cls-5" transform="translate(30.75 179.29)"><tspan x="0" y="0">Ve</tspan></text>
        <text class="cls-8" transform="translate(43.03 179.29)"><tspan x="0" y="0">rt</tspan></text>
        <text class="cls-7" transform="translate(50.62 179.29)"><tspan x="0" y="0">ei</tspan></text>
        <text class="cls-3" transform="translate(58.91 179.29)"><tspan x="0" y="0">le</tspan></text>
        <text class="cls-8" transform="translate(67.55 179.29)"><tspan x="0" y="0" xml:space="preserve"> 5 Schlück</tspan></text>
        <text class="cls-4" transform="translate(115.78 179.29)"><tspan x="0" y="0">e an</tspan></text>
        <text class="cls-2" transform="translate(136.49 179.29)"><tspan x="0" y="0"> </tspan></text>
      </g>
      <text class="cls-17" transform="translate(30.75 179.29)"><tspan x="0" y="0">Ve</tspan></text>
      <text class="cls-16" transform="translate(43.03 179.29)"><tspan x="0" y="0">rt</tspan></text>
      <text class="cls-15" transform="translate(50.62 179.29)"><tspan x="0" y="0">ei</tspan></text>
      <text class="cls-13" transform="translate(58.91 179.29)"><tspan x="0" y="0">le</tspan></text>
      <text class="cls-16" transform="translate(67.55 179.29)"><tspan x="0" y="0" xml:space="preserve"> 5 Schlück</tspan></text>
      <text class="cls-14" transform="translate(115.78 179.29)"><tspan x="0" y="0">e an</tspan></text>
      <text class="cls-18" transform="translate(136.49 179.29)"><tspan x="0" y="0"> </tspan></text>
      <g class="cls-20">
        <text class="cls-7" transform="translate(58.88 191.28)"><tspan x="0" y="0">jema</tspan></text>
        <text class="cls-6" transform="translate(82.26 191.28)"><tspan x="0" y="0">nd</tspan></text>
        <text class="cls-8" transform="translate(94.24 191.28)"><tspan x="0" y="0">en.</tspan></text>
      </g>
      <text class="cls-15" transform="translate(58.88 191.28)"><tspan x="0" y="0">jema</tspan></text>
      <text class="cls-12" transform="translate(82.26 191.28)"><tspan x="0" y="0">nd</tspan></text>
      <text class="cls-16" transform="translate(94.24 191.28)"><tspan x="0" y="0">en.</tspan></text>
    </g>
  </g>
</svg>