<?xml version="1.0" encoding="UTF-8"?>
<svg xmlns="http://www.w3.org/2000/svg" xmlns:xlink="http://www.w3.org/1999/xlink" viewBox="0 0 167.24 260.79">
  <defs>
    <style>
      .cls-1, .cls-2, .cls-3, .cls-4, .cls-5 {
        fill: none;
      }

      .cls-6 {
        fill: #010101;
      }

      .cls-7, .cls-8 {
        fill: #e74258;
      }

      .cls-2, .cls-9, .cls-3, .cls-4, .cls-5 {
        stroke: #fff;
      }

      .cls-2, .cls-3, .cls-4, .cls-10, .cls-11, .cls-12, .cls-13, .cls-5 {
        font-family: QuicksandBold-Regular, Quicksand;
        font-size: 10px;
      }

      .cls-14 {
        fill: #171717;
      }

      .cls-9 {
        font-size: 12px;
        stroke-miterlimit: 10;
        stroke-width: .15px;
      }

      .cls-9, .cls-15, .cls-10, .cls-11, .cls-12, .cls-13 {
        fill: #fff;
      }

      .cls-9, .cls-8 {
        font-family: Namaku, Namaku;
      }

      .cls-3, .cls-10 {
        letter-spacing: -.02em;
      }

      .cls-16 {
        clip-path: url(#clippath-1);
      }

      .cls-4, .cls-11 {
        letter-spacing: -.02em;
      }

      .cls-17 {
        fill: #171715;
      }

      .cls-12, .cls-5 {
        letter-spacing: -.02em;
      }

      .cls-8 {
        font-size: 15px;
      }

      .cls-18 {
        clip-path: url(#clippath);
      }
    </style>
    <clipPath id="clippath">
      <rect class="cls-1" x="0" y="0" width="167.24" height="260.79"/>
    </clipPath>
    <clipPath id="clippath-1">
      <rect class="cls-1" x="0" y="0" width="167.24" height="260.79"/>
    </clipPath>
  </defs>
  <g id="Background">
    <rect class="cls-7" width="167.24" height="260.79"/>
  </g>
  <g id="Rahmen">
    <path class="cls-6" d="M151.9,23.16c9.65,0,9.67-15,0-15s-9.67,15,0,15h0Z"/>
    <path class="cls-6" d="M152.22,254.59c9.65,0,9.67-15,0-15s-9.67,15,0,15h0Z"/>
    <path class="cls-6" d="M14.14,254.72c9.65,0,9.67-15,0-15s-9.67,15,0,15h0Z"/>
    <path class="cls-14" d="M11.56,15.67c18.49.32,36.98.69,55.46,1.04,19.51.36,39.05-.42,58.56-.82,10.18-.21,20.36-.38,30.54-.21l-3.75-3.75c-1.46,11.81-1.7,23.8-1.97,35.69-.33,14.15-.39,28.31-.37,42.46.01,9.3.14,18.61.07,27.91-.06,7.86-.43,15.71-.48,23.57-.07,11.29.08,22.59.37,33.88.56,22.38,1.59,44.74,2.18,67.12.07,2.79.14,5.57.2,8.36l3.75-3.75c-15.41-.13-30.81.06-46.22.48-24.85.69-49.67.84-74.52.24-8.25-.2-16.49-.49-24.74-.73l3.75,3.75c-.56-4.87-.34-9.89-.27-14.78.11-8.38.38-16.76.66-25.14.66-20.11,1.45-40.22,1.83-60.34.16-8.4.26-16.81.05-25.21-.13-5.24-.51-10.46-.61-15.7-.33-17.03-.19-34.08-.18-51.11,0-8.91,0-17.82-.06-26.73-.04-5.94-.04-11.89-.34-17.82-.04-.72-.08-1.43-.15-2.15-.19-1.95-1.59-3.85-3.75-3.75-1.87.08-3.96,1.66-3.75,3.75.48,4.83.39,9.76.44,14.61.09,8.42.1,16.84.11,25.25,0,17.78-.1,35.55.11,53.33.06,5.22.27,10.41.52,15.62.36,7.73.31,15.47.21,23.21-.24,20.03-1.02,40.04-1.7,60.06-.3,8.95-.6,17.9-.79,26.85-.13,5.9-.3,11.84,0,17.74.04.78.09,1.55.18,2.32.24,2.06,1.53,3.69,3.75,3.75,18.27.53,36.53,1.09,54.81,1.16,23.38.09,46.73-.97,70.1-1.19,6.85-.06,13.71-.03,20.56.02,2,.02,3.79-1.73,3.75-3.75-.48-22.44-1.5-44.87-2.16-67.3-.33-11.25-.57-22.51-.6-33.77-.03-10.16.25-20.29.47-30.44.18-8.23-.03-16.48-.05-24.72-.03-13.94,0-27.88.25-41.82.23-12.54.48-25.14,1.72-37.62.11-1.1.23-2.21.37-3.31.25-2.04-1.92-3.72-3.75-3.75-19.14-.32-38.3.42-57.44.81-9.78.2-19.58.45-29.37.27-7.76-.14-15.52-.3-23.28-.45-11.49-.22-22.99-.44-34.48-.63-1.96-.03-3.84,1.75-3.75,3.75s1.65,3.71,3.75,3.75h0Z"/>
    <polygon class="cls-14" points="26.61 14.43 14.5 29.16 14.18 13.04 26.61 14.43"/>
    <polygon class="cls-14" points="140.79 14.16 152.35 27.66 154.57 11.89 140.79 14.16"/>
    <polygon class="cls-14" points="139.48 248.15 153.14 235.93 156.07 248.65 139.48 248.15"/>
    <polygon class="cls-14" points="12.9 235.54 26.24 248.54 12.31 249.36 12.9 235.54"/>
    <rect class="cls-14" width="10.32" height="260.79"/>
    <rect class="cls-14" y="249.36" width="167.24" height="11.43"/>
    <rect class="cls-17" width="167.24" height="10.33"/>
    <rect class="cls-14" x="156.12" width="11.13" height="260.79"/>
    <path class="cls-14" d="M125.63,17.19c0-.85.38-3.85,0-4.78-1.01-2.49-3.83-2.81-6.59-2.81H48.2c-2.76,0-5.58.32-6.59,2.81-.38.93,0,3.93,0,4.78l-.3,5.71c-.6,5.31,9.41,4.59,13.19,4.59l21.81.37,7.3-.07h0l7.3.07,21.81-.37c3.79,0,13.79.72,13.19-4.59l-.3-5.71Z"/>
    <path class="cls-6" d="M151.9,23.16c9.65,0,9.67-15,0-15s-9.67,15,0,15h0Z"/>
    <path class="cls-6" d="M152.22,254.59c9.65,0,9.67-15,0-15s-9.67,15,0,15h0Z"/>
    <path class="cls-6" d="M14.14,254.72c9.65,0,9.67-15,0-15s-9.67,15,0,15h0Z"/>
    <path class="cls-14" d="M11.56,15.67c18.49.32,36.98.69,55.46,1.04,19.51.36,39.05-.42,58.56-.82,10.18-.21,20.36-.38,30.54-.21l-3.75-3.75c-1.46,11.81-1.7,23.8-1.97,35.69-.33,14.15-.39,28.31-.37,42.46.01,9.3.14,18.61.07,27.91-.06,7.86-.43,15.71-.48,23.57-.07,11.29.08,22.59.37,33.88.56,22.38,1.59,44.74,2.18,67.12.07,2.79.14,5.57.2,8.36l3.75-3.75c-15.41-.13-30.81.06-46.22.48-24.85.69-49.67.84-74.52.24-8.25-.2-16.49-.49-24.74-.73l3.75,3.75c-.56-4.87-.34-9.89-.27-14.78.11-8.38.38-16.76.66-25.14.66-20.11,1.45-40.22,1.83-60.34.16-8.4.26-16.81.05-25.21-.13-5.24-.51-10.46-.61-15.7-.33-17.03-.19-34.08-.18-51.11,0-8.91,0-17.82-.06-26.73-.04-5.94-.04-11.89-.34-17.82-.04-.72-.08-1.43-.15-2.15-.19-1.95-1.59-3.85-3.75-3.75-1.87.08-3.96,1.66-3.75,3.75.48,4.83.39,9.76.44,14.61.09,8.42.1,16.84.11,25.25,0,17.78-.1,35.55.11,53.33.06,5.22.27,10.41.52,15.62.36,7.73.31,15.47.21,23.21-.24,20.03-1.02,40.04-1.7,60.06-.3,8.95-.6,17.9-.79,26.85-.13,5.9-.3,11.84,0,17.74.04.78.09,1.55.18,2.32.24,2.06,1.53,3.69,3.75,3.75,18.27.53,36.53,1.09,54.81,1.16,23.38.09,46.73-.97,70.1-1.19,6.85-.06,13.71-.03,20.56.02,2,.02,3.79-1.73,3.75-3.75-.48-22.44-1.5-44.87-2.16-67.3-.33-11.25-.57-22.51-.6-33.77-.03-10.16.25-20.29.47-30.44.18-8.23-.03-16.48-.05-24.72-.03-13.94,0-27.88.25-41.82.23-12.54.48-25.14,1.72-37.62.11-1.1.23-2.21.37-3.31.25-2.04-1.92-3.72-3.75-3.75-19.14-.32-38.3.42-57.44.81-9.78.2-19.58.45-29.37.27-7.76-.14-15.52-.3-23.28-.45-11.49-.22-22.99-.44-34.48-.63-1.96-.03-3.84,1.75-3.75,3.75s1.65,3.71,3.75,3.75h0Z"/>
    <polygon class="cls-14" points="26.61 14.43 14.5 29.16 14.18 13.04 26.61 14.43"/>
    <polygon class="cls-14" points="140.79 14.16 152.35 27.66 154.57 11.89 140.79 14.16"/>
    <polygon class="cls-14" points="139.48 248.15 153.14 235.93 156.07 248.65 139.48 248.15"/>
    <polygon class="cls-14" points="12.9 235.54 26.24 248.54 12.31 249.36 12.9 235.54"/>
    <rect class="cls-14" width="10.32" height="260.79"/>
    <rect class="cls-14" y="249.36" width="167.24" height="11.43"/>
    <rect class="cls-17" width="167.24" height="10.33"/>
    <rect class="cls-14" x="156.12" width="11.13" height="260.79"/>
  </g>
  <g id="Kategorie_Name" data-name="Kategorie Name">
    <text class="cls-8" transform="translate(45.94 22.56) scale(1 1.09)"><tspan x="0" y="0">WILD CARD</tspan></text>
  </g>
  <g id="Schlücke">
    <text class="cls-9" transform="translate(4.4 252.82)"><tspan x="0" y="0">+3</tspan></text>
  </g>
  <g id="Motive">
    <g>
      <path class="cls-14" d="M101.12,68.48c.45,5.01,4.88,9.3,9.85,9.82.55.06.97.53.97,1.08v32.35c.01.12,0,.23-.04.34h0c-.13.4-.48.69-.9.74-4.71.62-8.32,3.96-9.68,8.5-.15.5-.14,1.04-.22,1.52-.09.52-.55.89-1.08.89h-31.24c-.6,0-1.09-.49-1.09-1.09v-54.04c0-.6.49-1.09,1.09-1.09,5.07,0,26.3,0,31.26,0,.56,0,1.03.42,1.08.98ZM89.32,87.87c-1.37.28-3.78,4.45-5.23,6.14-.26.3-.67.44-1.06.35-2.95-.64-7.65-3.21-6.92,1.88.23,1.6,2.54,9.94,3.21,11.26.41.81.99,1.1,1.86,1.2,3.82.45,13.09.37,16.99,0,1.68-.16,1.79-.61,2.36-2.09.83-2.14,2.68-8.22,2.98-10.37.72-5.1-4-2.5-6.95-1.87-.38.08-.77-.04-1.03-.32-1.72-1.9-3.94-6.65-6.22-6.18Z"/>
      <path class="cls-14" d="M59.43,127.96l51.6.19c.43,0,.81.3.89.72,0,0,0,0,0,0,.23,1.21.19,7.31-.01,8.6-.11.72-.4,1.33-1.22,1.29l-50.76-.08c-.08,0-.15,0-.23-.03-5.63-1.39-6.01-8.66-.6-10.64.1-.04.21-.06.32-.05Z"/>
      <rect class="cls-14" x="55.16" y="83.92" width="8.35" height="25.33" rx="1.57" ry="1.57"/>
      <path class="cls-14" d="M63.51,69.03v9.15c0,.87-.7,1.57-1.57,1.57h-5.2c-.87,0-1.57-.7-1.57-1.57v-5.53c0-.38.96-2.18,1.28-2.62,1.37-1.86,3.34-2.51,5.47-2.58.88-.03,1.6.69,1.6,1.57Z"/>
      <path class="cls-14" d="M63.51,115v7.81c0,.5-.41.91-.91.91h-3.96c-.36,0-1.3.44-2.14.89-.61.33-1.34-.12-1.34-.81v-8.8c0-.87.7-1.57,1.57-1.57h5.2c.87,0,1.57.7,1.57,1.57Z"/>
      <path class="cls-14" d="M111.93,118.05v4.76c0,.5-.41.91-.91.91h-4.76c-.57,0-1-.52-.9-1.09.5-2.7,2.79-4.99,5.49-5.49.57-.11,1.09.32,1.09.9Z"/>
      <path class="cls-14" d="M110.84,74.08c-2.65-.51-4.99-2.8-5.49-5.48-.11-.56.32-1.09.9-1.09h3.24c1.34,0,2.44,1.1,2.44,2.44v3.23c0,.58-.53,1.01-1.09.9Z"/>
      <path class="cls-14" d="M98.11,99.75l-1.18,4.12c-.11.39-.47.66-.88.66l-12.61-.04c-.41,0-.77-.28-.88-.67l-1.12-4.1c-.19-.7.46-1.33,1.15-1.11.92.29,1.83.58,2.84.13.77-.34,2.59-3.11,3.64-4.52.36-.49,1.08-.5,1.45-.02,1.16,1.5,2.71,4.12,3.67,4.54.82.36,1.83.16,2.78-.12.69-.21,1.33.44,1.13,1.13Z"/>
    </g>
  </g>
  <g id="Kateg._Symbol" data-name="Kateg. Symbol">
    <path class="cls-15" d="M19.29,15.45c.5-.68.16-1.57-.67-1.73-.66-.13-1.38-.15-2.03-.29-.12-.03-.17-.06-.23-.17-.35-.59-.59-1.3-.94-1.89-.21-.35-.57-.56-.98-.54-.38.02-.7.23-.89.55-.34.58-.58,1.27-.91,1.85-.06.11-.12.17-.25.2-.67.15-1.44.15-2.11.31-.82.19-1.09,1.19-.51,1.8.36.39.8.76,1.18,1.14.11.11.37.33.39.47-.07.71-.27,1.42-.35,2.12-.06.5.17.97.65,1.16.39.15.66.07,1.01-.1.6-.3,1.18-.65,1.79-.93.13-.02.25.06.36.12.55.28,1.18.69,1.74.91.79.31,1.53-.31,1.46-1.14-.06-.66-.29-1.38-.35-2.04,0-.09,0-.18.07-.25l1.57-1.54Z"/>
    <path class="cls-15" d="M156.21,248.03c.5-.68.16-1.57-.67-1.73-.66-.13-1.38-.15-2.03-.29-.12-.03-.17-.06-.23-.17-.35-.59-.59-1.3-.94-1.89-.21-.35-.57-.56-.98-.54-.38.02-.7.23-.89.55-.34.58-.58,1.27-.91,1.85-.06.11-.12.17-.25.2-.67.15-1.44.15-2.11.31-.82.19-1.09,1.19-.51,1.8.36.39.8.76,1.18,1.14.11.11.37.33.39.47-.07.71-.27,1.42-.35,2.12-.06.5.17.97.65,1.16.39.15.66.07,1.01-.1.6-.3,1.18-.65,1.79-.93.13-.02.25.06.36.12.55.28,1.18.69,1.74.91.79.31,1.53-.31,1.46-1.14-.06-.66-.29-1.38-.35-2.04,0-.09,0-.18.07-.25l1.57-1.54Z"/>
  </g>
  <g id="Text_Karten" data-name="Text Karten">
    <g>
      <g class="cls-18">
        <text class="cls-3" transform="translate(35.02 179.29)"><tspan x="0" y="0">Du kanns</tspan></text>
        <text class="cls-5" transform="translate(78.66 179.29)"><tspan x="0" y="0">t eine neue</tspan></text>
        <text class="cls-2" transform="translate(132.22 179.29)"><tspan x="0" y="0"> </tspan></text>
      </g>
      <text class="cls-10" transform="translate(35.02 179.29)"><tspan x="0" y="0">Du kanns</tspan></text>
      <text class="cls-12" transform="translate(78.66 179.29)"><tspan x="0" y="0">t eine neue</tspan></text>
      <text class="cls-13" transform="translate(132.22 179.29)"><tspan x="0" y="0"> </tspan></text>
      <g class="cls-16">
        <text class="cls-2" transform="translate(44.69 191.28)"><tspan x="0" y="0">R</tspan></text>
        <text class="cls-4" transform="translate(50.64 191.28)"><tspan x="0" y="0">egel aufs</tspan></text>
        <text class="cls-2" transform="translate(94.12 191.28)"><tspan x="0" y="0">t</tspan></text>
        <text class="cls-5" transform="translate(97.52 191.28)"><tspan x="0" y="0">ell</tspan></text>
        <text class="cls-5" transform="translate(108.44 191.28)"><tspan x="0" y="0">en.</tspan></text>
      </g>
      <text class="cls-13" transform="translate(44.69 191.28)"><tspan x="0" y="0">R</tspan></text>
      <text class="cls-11" transform="translate(50.64 191.28)"><tspan x="0" y="0">egel aufs</tspan></text>
      <text class="cls-13" transform="translate(94.12 191.28)"><tspan x="0" y="0">t</tspan></text>
      <text class="cls-12" transform="translate(97.52 191.28)"><tspan x="0" y="0">ell</tspan></text>
      <text class="cls-12" transform="translate(108.44 191.28)"><tspan x="0" y="0">en.</tspan></text>
    </g>
  </g>
</svg>