<?xml version="1.0" encoding="UTF-8"?>
<svg xmlns="http://www.w3.org/2000/svg" xmlns:xlink="http://www.w3.org/1999/xlink" viewBox="0 0 167.24 260.79">
  <defs>
    <style>
      .cls-1, .cls-2, .cls-3, .cls-4, .cls-5, .cls-6 {
        fill: none;
      }

      .cls-7 {
        fill: #010101;
      }

      .cls-8, .cls-9 {
        fill: #e74258;
      }

      .cls-2, .cls-3, .cls-4, .cls-5, .cls-10, .cls-11, .cls-12, .cls-13, .cls-14, .cls-6 {
        font-family: QuicksandBold-Regular, Quicksand;
        font-size: 10px;
      }

      .cls-2, .cls-3, .cls-4, .cls-5, .cls-6 {
        stroke: #fff;
      }

      .cls-2, .cls-12 {
        letter-spacing: -.02em;
      }

      .cls-15 {
        fill: #171717;
      }

      .cls-4, .cls-11 {
        letter-spacing: -.02em;
      }

      .cls-16 {
        clip-path: url(#clippath-1);
      }

      .cls-5, .cls-10 {
        letter-spacing: -.05em;
      }

      .cls-17, .cls-10, .cls-11, .cls-12, .cls-13, .cls-14 {
        fill: #fff;
      }

      .cls-18 {
        fill: #171715;
      }

      .cls-13, .cls-6 {
        letter-spacing: -.02em;
      }

      .cls-9 {
        font-family: Namaku, Namaku;
        font-size: 15px;
      }

      .cls-19 {
        clip-path: url(#clippath);
      }
    </style>
    <clipPath id="clippath">
      <rect class="cls-1" x="0" y="0" width="167.24" height="260.79"/>
    </clipPath>
    <clipPath id="clippath-1">
      <rect class="cls-1" x="0" y="0" width="167.24" height="260.79"/>
    </clipPath>
  </defs>
  <g id="Background">
    <rect class="cls-8" width="167.24" height="260.79"/>
  </g>
  <g id="Rahmen">
    <path class="cls-7" d="M151.9,23.16c9.65,0,9.67-15,0-15s-9.67,15,0,15h0Z"/>
    <path class="cls-7" d="M152.22,254.59c9.65,0,9.67-15,0-15s-9.67,15,0,15h0Z"/>
    <path class="cls-7" d="M14.14,254.72c9.65,0,9.67-15,0-15s-9.67,15,0,15h0Z"/>
    <path class="cls-15" d="M11.56,15.67c18.49.32,36.98.69,55.46,1.04,19.51.36,39.05-.42,58.56-.82,10.18-.21,20.36-.38,30.54-.21l-3.75-3.75c-1.46,11.81-1.7,23.8-1.97,35.69-.33,14.15-.39,28.31-.37,42.46.01,9.3.14,18.61.07,27.91-.06,7.86-.43,15.71-.48,23.57-.07,11.29.08,22.59.37,33.88.56,22.38,1.59,44.74,2.18,67.12.07,2.79.14,5.57.2,8.36l3.75-3.75c-15.41-.13-30.81.06-46.22.48-24.85.69-49.67.84-74.52.24-8.25-.2-16.49-.49-24.74-.73l3.75,3.75c-.56-4.87-.34-9.89-.27-14.78.11-8.38.38-16.76.66-25.14.66-20.11,1.45-40.22,1.83-60.34.16-8.4.26-16.81.05-25.21-.13-5.24-.51-10.46-.61-15.7-.33-17.03-.19-34.08-.18-51.11,0-8.91,0-17.82-.06-26.73-.04-5.94-.04-11.89-.34-17.82-.04-.72-.08-1.43-.15-2.15-.19-1.95-1.59-3.85-3.75-3.75-1.87.08-3.96,1.66-3.75,3.75.48,4.83.39,9.76.44,14.61.09,8.42.1,16.84.11,25.25,0,17.78-.1,35.55.11,53.33.06,5.22.27,10.41.52,15.62.36,7.73.31,15.47.21,23.21-.24,20.03-1.02,40.04-1.7,60.06-.3,8.95-.6,17.9-.79,26.85-.13,5.9-.3,11.84,0,17.74.04.78.09,1.55.18,2.32.24,2.06,1.53,3.69,3.75,3.75,18.27.53,36.53,1.09,54.81,1.16,23.38.09,46.73-.97,70.1-1.19,6.85-.06,13.71-.03,20.56.02,2,.02,3.79-1.73,3.75-3.75-.48-22.44-1.5-44.87-2.16-67.3-.33-11.25-.57-22.51-.6-33.77-.03-10.16.25-20.29.47-30.44.18-8.23-.03-16.48-.05-24.72-.03-13.94,0-27.88.25-41.82.23-12.54.48-25.14,1.72-37.62.11-1.1.23-2.21.37-3.31.25-2.04-1.92-3.72-3.75-3.75-19.14-.32-38.3.42-57.44.81-9.78.2-19.58.45-29.37.27-7.76-.14-15.52-.3-23.28-.45-11.49-.22-22.99-.44-34.48-.63-1.96-.03-3.84,1.75-3.75,3.75s1.65,3.71,3.75,3.75h0Z"/>
    <polygon class="cls-15" points="26.61 14.43 14.5 29.16 14.18 13.04 26.61 14.43"/>
    <polygon class="cls-15" points="140.79 14.16 152.35 27.66 154.57 11.89 140.79 14.16"/>
    <polygon class="cls-15" points="139.48 248.15 153.14 235.93 156.07 248.65 139.48 248.15"/>
    <polygon class="cls-15" points="12.9 235.54 26.24 248.54 12.31 249.36 12.9 235.54"/>
    <rect class="cls-15" width="10.32" height="260.79"/>
    <rect class="cls-15" y="249.36" width="167.24" height="11.43"/>
    <rect class="cls-18" width="167.24" height="10.33"/>
    <rect class="cls-15" x="156.12" width="11.13" height="260.79"/>
    <path class="cls-15" d="M125.63,17.19c0-.85.38-3.85,0-4.78-1.01-2.49-3.83-2.81-6.59-2.81H48.2c-2.76,0-5.58.32-6.59,2.81-.38.93,0,3.93,0,4.78l-.3,5.71c-.6,5.31,9.41,4.59,13.19,4.59l21.81.37,7.3-.07h0l7.3.07,21.81-.37c3.79,0,13.79.72,13.19-4.59l-.3-5.71Z"/>
    <path class="cls-7" d="M151.9,23.16c9.65,0,9.67-15,0-15s-9.67,15,0,15h0Z"/>
    <path class="cls-7" d="M152.22,254.59c9.65,0,9.67-15,0-15s-9.67,15,0,15h0Z"/>
    <path class="cls-7" d="M14.14,254.72c9.65,0,9.67-15,0-15s-9.67,15,0,15h0Z"/>
    <path class="cls-15" d="M11.56,15.67c18.49.32,36.98.69,55.46,1.04,19.51.36,39.05-.42,58.56-.82,10.18-.21,20.36-.38,30.54-.21l-3.75-3.75c-1.46,11.81-1.7,23.8-1.97,35.69-.33,14.15-.39,28.31-.37,42.46.01,9.3.14,18.61.07,27.91-.06,7.86-.43,15.71-.48,23.57-.07,11.29.08,22.59.37,33.88.56,22.38,1.59,44.74,2.18,67.12.07,2.79.14,5.57.2,8.36l3.75-3.75c-15.41-.13-30.81.06-46.22.48-24.85.69-49.67.84-74.52.24-8.25-.2-16.49-.49-24.74-.73l3.75,3.75c-.56-4.87-.34-9.89-.27-14.78.11-8.38.38-16.76.66-25.14.66-20.11,1.45-40.22,1.83-60.34.16-8.4.26-16.81.05-25.21-.13-5.24-.51-10.46-.61-15.7-.33-17.03-.19-34.08-.18-51.11,0-8.91,0-17.82-.06-26.73-.04-5.94-.04-11.89-.34-17.82-.04-.72-.08-1.43-.15-2.15-.19-1.95-1.59-3.85-3.75-3.75-1.87.08-3.96,1.66-3.75,3.75.48,4.83.39,9.76.44,14.61.09,8.42.1,16.84.11,25.25,0,17.78-.1,35.55.11,53.33.06,5.22.27,10.41.52,15.62.36,7.73.31,15.47.21,23.21-.24,20.03-1.02,40.04-1.7,60.06-.3,8.95-.6,17.9-.79,26.85-.13,5.9-.3,11.84,0,17.74.04.78.09,1.55.18,2.32.24,2.06,1.53,3.69,3.75,3.75,18.27.53,36.53,1.09,54.81,1.16,23.38.09,46.73-.97,70.1-1.19,6.85-.06,13.71-.03,20.56.02,2,.02,3.79-1.73,3.75-3.75-.48-22.44-1.5-44.87-2.16-67.3-.33-11.25-.57-22.51-.6-33.77-.03-10.16.25-20.29.47-30.44.18-8.23-.03-16.48-.05-24.72-.03-13.94,0-27.88.25-41.82.23-12.54.48-25.14,1.72-37.62.11-1.1.23-2.21.37-3.31.25-2.04-1.92-3.72-3.75-3.75-19.14-.32-38.3.42-57.44.81-9.78.2-19.58.45-29.37.27-7.76-.14-15.52-.3-23.28-.45-11.49-.22-22.99-.44-34.48-.63-1.96-.03-3.84,1.75-3.75,3.75s1.65,3.71,3.75,3.75h0Z"/>
    <polygon class="cls-15" points="26.61 14.43 14.5 29.16 14.18 13.04 26.61 14.43"/>
    <polygon class="cls-15" points="140.79 14.16 152.35 27.66 154.57 11.89 140.79 14.16"/>
    <polygon class="cls-15" points="139.48 248.15 153.14 235.93 156.07 248.65 139.48 248.15"/>
    <polygon class="cls-15" points="12.9 235.54 26.24 248.54 12.31 249.36 12.9 235.54"/>
    <rect class="cls-15" width="10.32" height="260.79"/>
    <rect class="cls-15" y="249.36" width="167.24" height="11.43"/>
    <rect class="cls-18" width="167.24" height="10.33"/>
    <rect class="cls-15" x="156.12" width="11.13" height="260.79"/>
  </g>
  <g id="Kategorie_Name" data-name="Kategorie Name">
    <text class="cls-9" transform="translate(45.94 22.56) scale(1 1.09)"><tspan x="0" y="0">WILD CARD</tspan></text>
  </g>
  <g id="Motive">
    <g>
      <path class="cls-15" d="M98.11,106.22c-.18-.21-.42-.33-.73-.36-.31-.03-.67.14-1.09.48.02.37.04.73.04,1.09,0,.36.02.72.03,1.09.51.17.93.18,1.24.04.32-.14.54-.35.67-.63.13-.28.18-.58.15-.91-.03-.33-.13-.6-.31-.81Z"/>
      <path class="cls-15" d="M71.57,106.22c-.18-.21-.42-.33-.73-.36-.31-.03-.67.14-1.09.48.02.37.04.73.04,1.09,0,.36.02.72.03,1.09.51.17.93.18,1.25.04.31-.14.54-.35.67-.63.13-.28.18-.58.15-.91-.03-.33-.13-.6-.31-.81Z"/>
      <path class="cls-15" d="M109.93,95.26c-.19-.8-.62-1.41-1.53-1.53-3.07-.39-6.83.21-10.13.08-.89-.04-1.67-.62-1.97-1.46-.39-1.09-.82-2.52-1.08-3.01-1.69-3.28-4.29-5.34-7.17-6.33v-7.21l.19-.19h5.73c.08,0,.89-.53,1.01-.65.23-.24.5-.77.56-1.1.15-.89.14-3.75.03-4.69-.09-.79-.56-1.57-1.31-1.88-.1-.04-.75-.23-.79-.23h-5.41v-5.8c0-.56-.98-1.41-1.52-1.54-.66-.15-4.85-.15-5.46.03-.51.15-1.42.98-1.42,1.51v5.8h-5.41s-.69.19-.79.23c-.75.31-1.22,1.09-1.31,1.88-.11.94-.12,3.79.03,4.69.06.33.33.86.56,1.1.11.12.93.65,1.01.65h5.73l.19.19v7.17c-4.08,1.3-7.59,4.5-8.82,9.22-.25.96-1.12,1.64-2.12,1.64-3.45.01-9.83-.53-10.79.15-.71.5-.67,1.82-.62,2.63,0,.05,0,.09.01.14l5.02,39.77c.17,1.34,1.49,2.22,2.79,1.85,1.72-.49,3.42-1.05,5.17-1.43,10.78-2.39,21.46-1.75,31.91,1.37,1.31.39,2.66-.49,2.82-1.85l4.94-40.48c.03-.24.02-.49-.03-.72ZM75.85,114.77s-.18.12-.42.26c-.25.14-.52.29-.82.45-.3.16-.58.31-.85.44-.27.13-.44.21-.53.25-.08.11-.18.12-.29.04-.88-1.48-1.87-2.92-2.95-4.31.01.17.04.45.07.85.04.4.06.81.06,1.23,0,.42-.02.81-.07,1.16-.05.35-.16.56-.31.62-.11.04-.29.07-.55.1-.26.03-.54.05-.87.05s-.66,0-1-.02c-.35-.02-.66-.05-.95-.1-.29-.05-.52-.12-.71-.2-.18-.08-.28-.19-.28-.32,0-.42.03-.84.08-1.26.05-.42.09-.84.12-1.26.12-1.77.21-3.54.27-5.32.02-.69.04-1.38.04-2.06s-.01-1.37-.04-2.06c-.01-.13-.01-.26.01-.38.02-.12.1-.2.24-.25.09-.04.31-.07.63-.1.33-.03.67-.05,1.04-.05.37,0,.7,0,1,.02.3.02.49.06.55.14.01.02.03.07.04.15.02.08.04.16.05.25.02.09.03.18.05.26.01.08.02.14.02.18.76-.5,1.46-.8,2.08-.89.63-.1,1.18-.05,1.67.14.48.19.89.5,1.21.93.33.43.58.92.76,1.48.18.55.28,1.15.3,1.77.02.63-.03,1.23-.17,1.81-.14.58-.35,1.11-.65,1.6-.3.49-.68.87-1.15,1.15.33.5.72.98,1.15,1.44.44.46.8.91,1.1,1.33.06.09.1.18.13.24.02.07,0,.15-.09.24ZM80.65,114.31c0,.25-.02.47-.04.64-.02.18-.05.29-.09.32-.05.05-.14.08-.28.09-.14.01-.29.02-.45.03-.16,0-.31,0-.47,0-.15,0-.26,0-.35.01-.11.01-.26.03-.46.04-.2.02-.4.03-.6.04s-.4,0-.59-.02c-.19-.02-.33-.05-.41-.1-.11-.06-.19-.26-.24-.59-.05-.33-.08-.7-.1-1.1-.01-.4,0-.77.04-1.13.04-.35.09-.58.16-.67.06-.08.16-.15.29-.2.14-.05.29-.08.45-.1.16-.02.32-.03.48-.03h.38c.09,0,.25,0,.46-.01.21,0,.42,0,.64,0s.43.02.62.04c.19.03.31.08.36.15.02.05.05.16.08.34.03.18.05.39.07.64.02.25.03.52.05.8.01.28.02.55,0,.8ZM85.98,115.06c-.01.09-.04.16-.08.2-.04.04-.11.07-.2.1-.26.06-.58.09-.94.1-.36,0-.68.01-.96.01-.11,0-.27,0-.49,0-.22,0-.45,0-.68,0-.23-.01-.44-.05-.62-.1-.18-.05-.27-.14-.29-.26-.01-.08-.02-.31-.02-.69s0-.84,0-1.4c0-.56.01-1.19.02-1.89,0-.7.02-1.41.03-2.13.01-.72.02-1.43.04-2.12.01-.69.02-1.31.04-1.85.01-.54.03-.99.04-1.34.02-.35.03-.54.05-.58.01-.06.05-.1.13-.13.07-.03.15-.04.24-.05.09-.01.18-.02.27-.02h.22c.07,0,.27,0,.58-.02.32-.01.65-.02,1-.03.35,0,.67-.01.96-.02.29,0,.44,0,.47.01.02.01.04.04.06.07.02.04.03.06.05.09.02.07.04.24.04.51v.95c0,.37,0,.76-.02,1.19s-.03.84-.04,1.23c-.01.39-.02.75-.03,1.06,0,.32,0,.55,0,.69,0,.77,0,1.55.02,2.32s.03,1.54.05,2.32c.01.27.03.57.06.88.03.32.03.61.01.89ZM91.07,114.31c0,.25-.02.47-.04.64-.03.18-.05.29-.09.32-.05.05-.14.08-.28.09-.14.01-.29.02-.45.03-.16,0-.31,0-.47,0-.15,0-.26,0-.35.01-.11.01-.26.03-.46.04-.2.02-.4.03-.6.04s-.4,0-.59-.02c-.19-.02-.33-.05-.41-.1-.11-.06-.19-.26-.24-.59-.05-.33-.09-.7-.1-1.1-.01-.4,0-.77.04-1.13.04-.35.09-.58.16-.67.06-.08.16-.15.29-.2.14-.05.29-.08.45-.1.16-.02.32-.03.48-.03h.38c.09,0,.25,0,.46-.01.21,0,.42,0,.64,0s.43.02.62.04c.19.03.31.08.36.15.02.05.05.16.08.34.03.18.05.39.07.64.02.25.03.52.05.8.01.28.02.55,0,.8ZM102.07,107.58c-.04.67-.18,1.31-.41,1.9-.23.59-.56,1.11-.99,1.56s-.96.75-1.59.92c-.42.11-.84.15-1.28.14-.43-.01-.86-.08-1.26-.21.01.17.04.45.07.85.04.4.06.81.06,1.23,0,.42-.02.81-.07,1.16-.05.35-.16.56-.31.62-.11.04-.29.07-.55.1-.26.03-.54.05-.87.06-.32.01-.66,0-1-.01-.35-.02-.66-.05-.95-.1-.29-.05-.52-.12-.71-.21-.18-.09-.28-.2-.28-.33,0-.42.03-.84.08-1.26.05-.42.09-.84.12-1.26.12-1.77.21-3.54.27-5.32.02-.69.04-1.38.04-2.06s0-1.37-.04-2.06c-.01-.13-.01-.26,0-.38.02-.12.1-.2.24-.25.09-.04.31-.07.63-.1.33-.03.67-.05,1.04-.06.36-.01.7,0,1,.02.3.02.49.07.55.14.01.02.03.07.04.15.02.08.04.16.05.25.02.09.03.18.05.26.01.08.02.14.02.18.81-.53,1.55-.83,2.21-.91.66-.08,1.24,0,1.74.24.5.24.91.61,1.23,1.11s.56,1.06.71,1.67c.15.62.2,1.26.16,1.93Z"/>
      <path class="cls-15" d="M105.34,143.21c-7.12-3.36-14.44-4.95-21.72-4.74-7.28-.21-14.6,1.38-21.72,4.74-.58.27-.96.92-.96,1.63,0,.97.69,1.76,1.54,1.76h42.26c.85,0,1.54-.79,1.54-1.76,0-.72-.38-1.36-.96-1.63Z"/>
    </g>
  </g>
  <g id="Kateg._Symbol" data-name="Kateg. Symbol">
    <path class="cls-17" d="M19.29,15.45c.5-.68.16-1.57-.67-1.73-.66-.13-1.38-.15-2.03-.29-.12-.03-.17-.06-.23-.17-.35-.59-.59-1.3-.94-1.89-.21-.35-.57-.56-.98-.54-.38.02-.7.23-.89.55-.34.58-.58,1.27-.91,1.85-.06.11-.12.17-.25.2-.67.15-1.44.15-2.11.31-.82.19-1.09,1.19-.51,1.8.36.39.8.76,1.18,1.14.11.11.37.33.39.47-.07.71-.27,1.42-.35,2.12-.06.5.17.97.65,1.16.39.15.66.07,1.01-.1.6-.3,1.18-.65,1.79-.93.13-.02.25.06.36.12.55.28,1.18.69,1.74.91.79.31,1.53-.31,1.46-1.14-.06-.66-.29-1.38-.35-2.04,0-.09,0-.18.07-.25l1.57-1.54Z"/>
    <path class="cls-17" d="M156.21,248.03c.5-.68.16-1.57-.67-1.73-.66-.13-1.38-.15-2.03-.29-.12-.03-.17-.06-.23-.17-.35-.59-.59-1.3-.94-1.89-.21-.35-.57-.56-.98-.54-.38.02-.7.23-.89.55-.34.58-.58,1.27-.91,1.85-.06.11-.12.17-.25.2-.67.15-1.44.15-2.11.31-.82.19-1.09,1.19-.51,1.8.36.39.8.76,1.18,1.14.11.11.37.33.39.47-.07.71-.27,1.42-.35,2.12-.06.5.17.97.65,1.16.39.15.66.07,1.01-.1.6-.3,1.18-.65,1.79-.93.13-.02.25.06.36.12.55.28,1.18.69,1.74.91.79.31,1.53-.31,1.46-1.14-.06-.66-.29-1.38-.35-2.04,0-.09,0-.18.07-.25l1.57-1.54Z"/>
  </g>
  <g id="Text_Karten" data-name="Text Karten">
    <g>
      <g class="cls-19">
        <text class="cls-6" transform="translate(21.39 179.29)"><tspan x="0" y="0">W채hl</tspan></text>
        <text class="cls-4" transform="translate(46.41 179.29)"><tspan x="0" y="0">e eine Pe</tspan></text>
        <text class="cls-2" transform="translate(89.44 179.29)"><tspan x="0" y="0">rson, die ihr</tspan></text>
        <text class="cls-3" transform="translate(145.85 179.29)"><tspan x="0" y="0"> </tspan></text>
      </g>
      <text class="cls-13" transform="translate(21.39 179.29)"><tspan x="0" y="0">W채hl</tspan></text>
      <text class="cls-11" transform="translate(46.41 179.29)"><tspan x="0" y="0">e eine Pe</tspan></text>
      <text class="cls-12" transform="translate(89.44 179.29)"><tspan x="0" y="0">rson, die ihr</tspan></text>
      <text class="cls-14" transform="translate(145.85 179.29)"><tspan x="0" y="0"> </tspan></text>
      <g class="cls-16">
        <text class="cls-6" transform="translate(37.31 191.28)"><tspan x="0" y="0">Ge</tspan></text>
        <text class="cls-3" transform="translate(50.73 191.28)"><tspan x="0" y="0">t</tspan></text>
        <text class="cls-6" transform="translate(53.84 191.28)"><tspan x="0" y="0">r채nk </tspan></text>
        <text class="cls-5" transform="translate(77.7 191.28)"><tspan x="0" y="0">ex</tspan></text>
        <text class="cls-6" transform="translate(88.44 191.28)"><tspan x="0" y="0">en muss.</tspan></text>
      </g>
      <text class="cls-13" transform="translate(37.31 191.28)"><tspan x="0" y="0">Ge</tspan></text>
      <text class="cls-14" transform="translate(50.73 191.28)"><tspan x="0" y="0">t</tspan></text>
      <text class="cls-13" transform="translate(53.84 191.28)"><tspan x="0" y="0">r채nk </tspan></text>
      <text class="cls-10" transform="translate(77.7 191.28)"><tspan x="0" y="0">ex</tspan></text>
      <text class="cls-13" transform="translate(88.44 191.28)"><tspan x="0" y="0">en muss.</tspan></text>
    </g>
  </g>
</svg>