<?xml version="1.0" encoding="UTF-8"?>
<svg xmlns="http://www.w3.org/2000/svg" xmlns:xlink="http://www.w3.org/1999/xlink" viewBox="0 0 167.24 260.79">
  <defs>
    <style>
      .cls-1, .cls-2, .cls-3, .cls-4, .cls-5, .cls-6 {
        fill: none;
      }

      .cls-7 {
        fill: #010101;
      }

      .cls-8, .cls-9 {
        fill: #e74258;
      }

      .cls-2, .cls-3, .cls-4, .cls-10, .cls-11, .cls-12, .cls-13, .cls-14, .cls-5, .cls-6 {
        font-family: QuicksandBold-Regular, Quicksand;
        font-size: 10px;
      }

      .cls-2, .cls-3, .cls-4, .cls-5, .cls-6 {
        stroke: #fff;
      }

      .cls-2, .cls-10 {
        letter-spacing: 0em;
      }

      .cls-15 {
        fill: #171717;
      }

      .cls-16 {
        clip-path: url(#clippath-1);
      }

      .cls-17, .cls-10, .cls-11, .cls-12, .cls-13, .cls-14 {
        fill: #fff;
      }

      .cls-4, .cls-12 {
        letter-spacing: -.02em;
      }

      .cls-11, .cls-6 {
        letter-spacing: -.04em;
      }

      .cls-18 {
        fill: #171715;
      }

      .cls-13, .cls-5 {
        letter-spacing: -.02em;
      }

      .cls-9 {
        font-family: Namaku, Namaku;
        font-size: 15px;
      }

      .cls-19 {
        clip-path: url(#clippath);
      }
    </style>
    <clipPath id="clippath">
      <rect class="cls-1" x="0" y="0" width="167.24" height="260.79"/>
    </clipPath>
    <clipPath id="clippath-1">
      <rect class="cls-1" x="0" y="0" width="167.24" height="260.79"/>
    </clipPath>
  </defs>
  <g id="Background">
    <rect class="cls-8" width="167.24" height="260.79"/>
  </g>
  <g id="Rahmen">
    <path class="cls-7" d="M151.9,23.16c9.65,0,9.67-15,0-15s-9.67,15,0,15h0Z"/>
    <path class="cls-7" d="M152.22,254.59c9.65,0,9.67-15,0-15s-9.67,15,0,15h0Z"/>
    <path class="cls-7" d="M14.14,254.72c9.65,0,9.67-15,0-15s-9.67,15,0,15h0Z"/>
    <path class="cls-15" d="M11.56,15.67c18.49.32,36.98.69,55.46,1.04,19.51.36,39.05-.42,58.56-.82,10.18-.21,20.36-.38,30.54-.21l-3.75-3.75c-1.46,11.81-1.7,23.8-1.97,35.69-.33,14.15-.39,28.31-.37,42.46.01,9.3.14,18.61.07,27.91-.06,7.86-.43,15.71-.48,23.57-.07,11.29.08,22.59.37,33.88.56,22.38,1.59,44.74,2.18,67.12.07,2.79.14,5.57.2,8.36l3.75-3.75c-15.41-.13-30.81.06-46.22.48-24.85.69-49.67.84-74.52.24-8.25-.2-16.49-.49-24.74-.73l3.75,3.75c-.56-4.87-.34-9.89-.27-14.78.11-8.38.38-16.76.66-25.14.66-20.11,1.45-40.22,1.83-60.34.16-8.4.26-16.81.05-25.21-.13-5.24-.51-10.46-.61-15.7-.33-17.03-.19-34.08-.18-51.11,0-8.91,0-17.82-.06-26.73-.04-5.94-.04-11.89-.34-17.82-.04-.72-.08-1.43-.15-2.15-.19-1.95-1.59-3.85-3.75-3.75-1.87.08-3.96,1.66-3.75,3.75.48,4.83.39,9.76.44,14.61.09,8.42.1,16.84.11,25.25,0,17.78-.1,35.55.11,53.33.06,5.22.27,10.41.52,15.62.36,7.73.31,15.47.21,23.21-.24,20.03-1.02,40.04-1.7,60.06-.3,8.95-.6,17.9-.79,26.85-.13,5.9-.3,11.84,0,17.74.04.78.09,1.55.18,2.32.24,2.06,1.53,3.69,3.75,3.75,18.27.53,36.53,1.09,54.81,1.16,23.38.09,46.73-.97,70.1-1.19,6.85-.06,13.71-.03,20.56.02,2,.02,3.79-1.73,3.75-3.75-.48-22.44-1.5-44.87-2.16-67.3-.33-11.25-.57-22.51-.6-33.77-.03-10.16.25-20.29.47-30.44.18-8.23-.03-16.48-.05-24.72-.03-13.94,0-27.88.25-41.82.23-12.54.48-25.14,1.72-37.62.11-1.1.23-2.21.37-3.31.25-2.04-1.92-3.72-3.75-3.75-19.14-.32-38.3.42-57.44.81-9.78.2-19.58.45-29.37.27-7.76-.14-15.52-.3-23.28-.45-11.49-.22-22.99-.44-34.48-.63-1.96-.03-3.84,1.75-3.75,3.75s1.65,3.71,3.75,3.75h0Z"/>
    <polygon class="cls-15" points="26.61 14.43 14.5 29.16 14.18 13.04 26.61 14.43"/>
    <polygon class="cls-15" points="140.79 14.16 152.35 27.66 154.57 11.89 140.79 14.16"/>
    <polygon class="cls-15" points="139.48 248.15 153.14 235.93 156.07 248.65 139.48 248.15"/>
    <polygon class="cls-15" points="12.9 235.54 26.24 248.54 12.31 249.36 12.9 235.54"/>
    <rect class="cls-15" width="10.32" height="260.79"/>
    <rect class="cls-15" y="249.36" width="167.24" height="11.43"/>
    <rect class="cls-18" width="167.24" height="10.33"/>
    <rect class="cls-15" x="156.12" width="11.13" height="260.79"/>
    <path class="cls-15" d="M125.63,17.19c0-.85.38-3.85,0-4.78-1.01-2.49-3.83-2.81-6.59-2.81H48.2c-2.76,0-5.58.32-6.59,2.81-.38.93,0,3.93,0,4.78l-.3,5.71c-.6,5.31,9.41,4.59,13.19,4.59l21.81.37,7.3-.07h0l7.3.07,21.81-.37c3.79,0,13.79.72,13.19-4.59l-.3-5.71Z"/>
    <path class="cls-7" d="M151.9,23.16c9.65,0,9.67-15,0-15s-9.67,15,0,15h0Z"/>
    <path class="cls-7" d="M152.22,254.59c9.65,0,9.67-15,0-15s-9.67,15,0,15h0Z"/>
    <path class="cls-7" d="M14.14,254.72c9.65,0,9.67-15,0-15s-9.67,15,0,15h0Z"/>
    <path class="cls-15" d="M11.56,15.67c18.49.32,36.98.69,55.46,1.04,19.51.36,39.05-.42,58.56-.82,10.18-.21,20.36-.38,30.54-.21l-3.75-3.75c-1.46,11.81-1.7,23.8-1.97,35.69-.33,14.15-.39,28.31-.37,42.46.01,9.3.14,18.61.07,27.91-.06,7.86-.43,15.71-.48,23.57-.07,11.29.08,22.59.37,33.88.56,22.38,1.59,44.74,2.18,67.12.07,2.79.14,5.57.2,8.36l3.75-3.75c-15.41-.13-30.81.06-46.22.48-24.85.69-49.67.84-74.52.24-8.25-.2-16.49-.49-24.74-.73l3.75,3.75c-.56-4.87-.34-9.89-.27-14.78.11-8.38.38-16.76.66-25.14.66-20.11,1.45-40.22,1.83-60.34.16-8.4.26-16.81.05-25.21-.13-5.24-.51-10.46-.61-15.7-.33-17.03-.19-34.08-.18-51.11,0-8.91,0-17.82-.06-26.73-.04-5.94-.04-11.89-.34-17.82-.04-.72-.08-1.43-.15-2.15-.19-1.95-1.59-3.85-3.75-3.75-1.87.08-3.96,1.66-3.75,3.75.48,4.83.39,9.76.44,14.61.09,8.42.1,16.84.11,25.25,0,17.78-.1,35.55.11,53.33.06,5.22.27,10.41.52,15.62.36,7.73.31,15.47.21,23.21-.24,20.03-1.02,40.04-1.7,60.06-.3,8.95-.6,17.9-.79,26.85-.13,5.9-.3,11.84,0,17.74.04.78.09,1.55.18,2.32.24,2.06,1.53,3.69,3.75,3.75,18.27.53,36.53,1.09,54.81,1.16,23.38.09,46.73-.97,70.1-1.19,6.85-.06,13.71-.03,20.56.02,2,.02,3.79-1.73,3.75-3.75-.48-22.44-1.5-44.87-2.16-67.3-.33-11.25-.57-22.51-.6-33.77-.03-10.16.25-20.29.47-30.44.18-8.23-.03-16.48-.05-24.72-.03-13.94,0-27.88.25-41.82.23-12.54.48-25.14,1.72-37.62.11-1.1.23-2.21.37-3.31.25-2.04-1.92-3.72-3.75-3.75-19.14-.32-38.3.42-57.44.81-9.78.2-19.58.45-29.37.27-7.76-.14-15.52-.3-23.28-.45-11.49-.22-22.99-.44-34.48-.63-1.96-.03-3.84,1.75-3.75,3.75s1.65,3.71,3.75,3.75h0Z"/>
    <polygon class="cls-15" points="26.61 14.43 14.5 29.16 14.18 13.04 26.61 14.43"/>
    <polygon class="cls-15" points="140.79 14.16 152.35 27.66 154.57 11.89 140.79 14.16"/>
    <polygon class="cls-15" points="139.48 248.15 153.14 235.93 156.07 248.65 139.48 248.15"/>
    <polygon class="cls-15" points="12.9 235.54 26.24 248.54 12.31 249.36 12.9 235.54"/>
    <rect class="cls-15" width="10.32" height="260.79"/>
    <rect class="cls-15" y="249.36" width="167.24" height="11.43"/>
    <rect class="cls-18" width="167.24" height="10.33"/>
    <rect class="cls-15" x="156.12" width="11.13" height="260.79"/>
  </g>
  <g id="Kategorie_Name" data-name="Kategorie Name">
    <text class="cls-9" transform="translate(45.94 22.56) scale(1 1.09)"><tspan x="0" y="0">WILD CARD</tspan></text>
  </g>
  <g id="Motive">
    <g>
      <path class="cls-15" d="M89.83,90.91l9.24-2.45c.54-.14,1.1.13,1.32.64l3.27,7.5c.07.15.16.29.29.4,2.22,1.94,5.49,2.9,6.32,5.86.17.59-.2,1.2-.79,1.36l-20.06,5.63c-.61.17-1.24-.19-1.4-.8-.09-.33-.15-.65-.17-.78-.33-3.25,2.67-5.37,2.38-8.87-.19-2.32-.82-4.84-1.23-7.21-.1-.58.26-1.13.82-1.28Z"/>
      <path class="cls-15" d="M77.36,90.92c.55.14.89.68.8,1.24-.41,2.38-1.05,4.92-1.24,7.24-.29,3.5,2.72,5.62,2.38,8.87-.01.14-.08.47-.17.82-.16.59-.76.94-1.35.78l-20.13-5.66c-.57-.16-.92-.75-.76-1.32.81-3.01,4.24-3.85,6.37-5.91.1-.1.18-.22.24-.35l3.29-7.56c.22-.49.76-.76,1.28-.62l9.3,2.46Z"/>
      <path class="cls-15" d="M98.1,85.21l-9.11,2.56c-.32.09-.65-.11-.72-.43-.34-1.67-.83-6.36-1.18-7.28s-1.17-1.14-1.43-2.01c-.18-.58-.65-3.85-.63-4.42.02-.53.33-.81.78-1.01.98-.43,6.1-1.88,7.14-1.99.33-.04.47-.08.76.18.22.2,1.85,3.73,1.94,4.15.25,1.13-.22,1.82-.01,2.85.39,1.93,2.22,4.69,2.86,6.67,0,0,0,0,0,0,.1.31-.08.64-.39.73Z"/>
      <path class="cls-15" d="M78.18,87.77l-9.11-2.56c-.32-.09-.5-.42-.39-.74,0,0,0,0,0,0,.64-1.99,2.47-4.75,2.86-6.67.21-1.03-.27-1.72-.01-2.85.11-.47,1.4-3.37,1.68-3.79.16-.25.31-.49.63-.56.38-.09,6.84,1.72,7.53,2.02.34.15.62.33.73.71.08.27-.44,4.26-.58,4.72-.27.88-1.11,1.12-1.43,2.01-.35.95-.83,5.61-1.17,7.28-.07.33-.4.53-.72.44Z"/>
      <path class="cls-15" d="M90.41,60c1.23-.37,2.46.58,2.26,1.83-.07.42-2.01,3.17-2.39,3.51-1.31,1.16-3.09-.03-2.77-1.54.13-.59,2.37-3.64,2.9-3.8Z"/>
      <path class="cls-15" d="M79.26,65.57c-.54.59-1.37.58-2.04.24-.54-.28-2.65-3.19-2.73-3.78-.13-.99.88-1.97,1.87-1.87s3.47,3.55,3.33,4.51c-.03.19-.3.75-.43.9Z"/>
      <path class="cls-15" d="M82.42,63.95c-.6-.6-.61-4.02-.42-4.87.29-1.31,2.34-1.64,3.01-.46.26.47.32,4.24.15,4.83-.3,1.01-2.01,1.22-2.74.49Z"/>
      <path class="cls-15" d="M121.02,140.77c-.02-.3-.4-1.79-.65-2.59h0s-1.13-3.85-1.13-3.85l-7.17-25.29c-.29-1.03-1.36-1.62-2.39-1.33l-18.81,5.39c-.89.25-1.4,1.18-1.14,2.07l8.62,29.86h0c.45,1.76.93,3.47,3.17,3.3.12,0,.23-.03.35-.06,5.72-1.58,12.16-3.5,17.42-5.06.1-.03.2-.07.3-.12.92-.46,1.5-1.18,1.43-2.31Z"/>
      <path class="cls-15" d="M75.97,112.93l-18.52-5.23c-1.01-.29-2.07.3-2.36,1.32l-7.18,25.32-.99,3.43h0c-.71,1.56-1.44,4.74.79,5.38l17.57,5.1c.12.03.24.06.37.07,2.82.2,2.85-2.57,3.54-4.66h0s.83-3.12.83-3.12l7.28-25.24c.29-1.02-.3-2.08-1.32-2.37Z"/>
    </g>
  </g>
  <g id="Kateg._Symbol" data-name="Kateg. Symbol">
    <path class="cls-17" d="M19.29,15.45c.5-.68.16-1.57-.67-1.73-.66-.13-1.38-.15-2.03-.29-.12-.03-.17-.06-.23-.17-.35-.59-.59-1.3-.94-1.89-.21-.35-.57-.56-.98-.54-.38.02-.7.23-.89.55-.34.58-.58,1.27-.91,1.85-.06.11-.12.17-.25.2-.67.15-1.44.15-2.11.31-.82.19-1.09,1.19-.51,1.8.36.39.8.76,1.18,1.14.11.11.37.33.39.47-.07.71-.27,1.42-.35,2.12-.06.5.17.97.65,1.16.39.15.66.07,1.01-.1.6-.3,1.18-.65,1.79-.93.13-.02.25.06.36.12.55.28,1.18.69,1.74.91.79.31,1.53-.31,1.46-1.14-.06-.66-.29-1.38-.35-2.04,0-.09,0-.18.07-.25l1.57-1.54Z"/>
    <path class="cls-17" d="M156.21,248.03c.5-.68.16-1.57-.67-1.73-.66-.13-1.38-.15-2.03-.29-.12-.03-.17-.06-.23-.17-.35-.59-.59-1.3-.94-1.89-.21-.35-.57-.56-.98-.54-.38.02-.7.23-.89.55-.34.58-.58,1.27-.91,1.85-.06.11-.12.17-.25.2-.67.15-1.44.15-2.11.31-.82.19-1.09,1.19-.51,1.8.36.39.8.76,1.18,1.14.11.11.37.33.39.47-.07.71-.27,1.42-.35,2.12-.06.5.17.97.65,1.16.39.15.66.07,1.01-.1.6-.3,1.18-.65,1.79-.93.13-.02.25.06.36.12.55.28,1.18.69,1.74.91.79.31,1.53-.31,1.46-1.14-.06-.66-.29-1.38-.35-2.04,0-.09,0-.18.07-.25l1.57-1.54Z"/>
  </g>
  <g id="Text_Karten" data-name="Text Karten">
    <g>
      <g class="cls-19">
        <text class="cls-5" transform="translate(21.52 179.29)"><tspan x="0" y="0">All</tspan></text>
        <text class="cls-4" transform="translate(32.8 179.29)"><tspan x="0" y="0">e müssen an</tspan></text>
        <text class="cls-2" transform="translate(92.52 179.29)"><tspan x="0" y="0">st</tspan></text>
        <text class="cls-5" transform="translate(101.03 179.29)"><tspan x="0" y="0">oßen </tspan></text>
        <text class="cls-6" transform="translate(127.7 179.29)"><tspan x="0" y="0">un</tspan></text>
        <text class="cls-3" transform="translate(139.12 179.29)"><tspan x="0" y="0">d </tspan></text>
      </g>
      <text class="cls-13" transform="translate(21.52 179.29)"><tspan x="0" y="0">All</tspan></text>
      <text class="cls-12" transform="translate(32.8 179.29)"><tspan x="0" y="0">e müssen an</tspan></text>
      <text class="cls-10" transform="translate(92.52 179.29)"><tspan x="0" y="0">st</tspan></text>
      <text class="cls-13" transform="translate(101.03 179.29)"><tspan x="0" y="0">oßen </tspan></text>
      <text class="cls-11" transform="translate(127.7 179.29)"><tspan x="0" y="0">un</tspan></text>
      <text class="cls-14" transform="translate(139.12 179.29)"><tspan x="0" y="0">d </tspan></text>
      <g class="cls-16">
        <text class="cls-3" transform="translate(66.08 191.28)"><tspan x="0" y="0">t</tspan></text>
        <text class="cls-5" transform="translate(69.17 191.28)"><tspan x="0" y="0">rink</tspan></text>
        <text class="cls-5" transform="translate(87.05 191.28)"><tspan x="0" y="0">en.</tspan></text>
      </g>
      <text class="cls-14" transform="translate(66.08 191.28)"><tspan x="0" y="0">t</tspan></text>
      <text class="cls-13" transform="translate(69.17 191.28)"><tspan x="0" y="0">rink</tspan></text>
      <text class="cls-13" transform="translate(87.05 191.28)"><tspan x="0" y="0">en.</tspan></text>
    </g>
  </g>
</svg>