<?xml version="1.0" encoding="UTF-8"?>
<svg xmlns="http://www.w3.org/2000/svg" xmlns:xlink="http://www.w3.org/1999/xlink" viewBox="0 0 167.24 260.79">
  <defs>
    <style>
      .cls-1, .cls-2, .cls-3, .cls-4, .cls-5, .cls-6 {
        fill: none;
      }

      .cls-7 {
        fill: #010101;
      }

      .cls-8, .cls-9 {
        fill: #e74258;
      }

      .cls-2, .cls-10, .cls-3, .cls-4, .cls-5, .cls-6 {
        stroke: #fff;
      }

      .cls-2, .cls-3, .cls-4, .cls-11, .cls-12, .cls-13, .cls-14, .cls-15, .cls-5, .cls-6 {
        font-family: QuicksandBold-Regular, Quicksand;
        font-size: 10px;
      }

      .cls-16 {
        fill: #171717;
      }

      .cls-10 {
        font-size: 12px;
        stroke-miterlimit: 10;
        stroke-width: .15px;
      }

      .cls-10, .cls-17, .cls-11, .cls-12, .cls-13, .cls-14, .cls-15 {
        fill: #fff;
      }

      .cls-10, .cls-9 {
        font-family: Namaku, Namaku;
      }

      .cls-3, .cls-14 {
        letter-spacing: -.06em;
      }

      .cls-4 {
        letter-spacing: -.02em;
      }

      .cls-18 {
        clip-path: url(#clippath-1);
      }

      .cls-11, .cls-5 {
        letter-spacing: -.03em;
      }

      .cls-19 {
        fill: #171715;
      }

      .cls-12 {
        letter-spacing: -.02em;
      }

      .cls-13, .cls-6 {
        letter-spacing: -.02em;
      }

      .cls-9 {
        font-size: 15px;
      }

      .cls-20 {
        clip-path: url(#clippath);
      }
    </style>
    <clipPath id="clippath">
      <rect class="cls-1" x="0" y="0" width="167.24" height="260.79"/>
    </clipPath>
    <clipPath id="clippath-1">
      <rect class="cls-1" x="0" y="0" width="167.24" height="260.79"/>
    </clipPath>
  </defs>
  <g id="Background">
    <rect class="cls-8" width="167.24" height="260.79"/>
  </g>
  <g id="Rahmen">
    <path class="cls-7" d="M151.9,23.16c9.65,0,9.67-15,0-15s-9.67,15,0,15h0Z"/>
    <path class="cls-7" d="M152.22,254.59c9.65,0,9.67-15,0-15s-9.67,15,0,15h0Z"/>
    <path class="cls-7" d="M14.14,254.72c9.65,0,9.67-15,0-15s-9.67,15,0,15h0Z"/>
    <path class="cls-16" d="M11.56,15.67c18.49.32,36.98.69,55.46,1.04,19.51.36,39.05-.42,58.56-.82,10.18-.21,20.36-.38,30.54-.21l-3.75-3.75c-1.46,11.81-1.7,23.8-1.97,35.69-.33,14.15-.39,28.31-.37,42.46.01,9.3.14,18.61.07,27.91-.06,7.86-.43,15.71-.48,23.57-.07,11.29.08,22.59.37,33.88.56,22.38,1.59,44.74,2.18,67.12.07,2.79.14,5.57.2,8.36l3.75-3.75c-15.41-.13-30.81.06-46.22.48-24.85.69-49.67.84-74.52.24-8.25-.2-16.49-.49-24.74-.73l3.75,3.75c-.56-4.87-.34-9.89-.27-14.78.11-8.38.38-16.76.66-25.14.66-20.11,1.45-40.22,1.83-60.34.16-8.4.26-16.81.05-25.21-.13-5.24-.51-10.46-.61-15.7-.33-17.03-.19-34.08-.18-51.11,0-8.91,0-17.82-.06-26.73-.04-5.94-.04-11.89-.34-17.82-.04-.72-.08-1.43-.15-2.15-.19-1.95-1.59-3.85-3.75-3.75-1.87.08-3.96,1.66-3.75,3.75.48,4.83.39,9.76.44,14.61.09,8.42.1,16.84.11,25.25,0,17.78-.1,35.55.11,53.33.06,5.22.27,10.41.52,15.62.36,7.73.31,15.47.21,23.21-.24,20.03-1.02,40.04-1.7,60.06-.3,8.95-.6,17.9-.79,26.85-.13,5.9-.3,11.84,0,17.74.04.78.09,1.55.18,2.32.24,2.06,1.53,3.69,3.75,3.75,18.27.53,36.53,1.09,54.81,1.16,23.38.09,46.73-.97,70.1-1.19,6.85-.06,13.71-.03,20.56.02,2,.02,3.79-1.73,3.75-3.75-.48-22.44-1.5-44.87-2.16-67.3-.33-11.25-.57-22.51-.6-33.77-.03-10.16.25-20.29.47-30.44.18-8.23-.03-16.48-.05-24.72-.03-13.94,0-27.88.25-41.82.23-12.54.48-25.14,1.72-37.62.11-1.1.23-2.21.37-3.31.25-2.04-1.92-3.72-3.75-3.75-19.14-.32-38.3.42-57.44.81-9.78.2-19.58.45-29.37.27-7.76-.14-15.52-.3-23.28-.45-11.49-.22-22.99-.44-34.48-.63-1.96-.03-3.84,1.75-3.75,3.75s1.65,3.71,3.75,3.75h0Z"/>
    <polygon class="cls-16" points="26.61 14.43 14.5 29.16 14.18 13.04 26.61 14.43"/>
    <polygon class="cls-16" points="140.79 14.16 152.35 27.66 154.57 11.89 140.79 14.16"/>
    <polygon class="cls-16" points="139.48 248.15 153.14 235.93 156.07 248.65 139.48 248.15"/>
    <polygon class="cls-16" points="12.9 235.54 26.24 248.54 12.31 249.36 12.9 235.54"/>
    <rect class="cls-16" width="10.32" height="260.79"/>
    <rect class="cls-16" y="249.36" width="167.24" height="11.43"/>
    <rect class="cls-19" width="167.24" height="10.33"/>
    <rect class="cls-16" x="156.12" width="11.13" height="260.79"/>
    <path class="cls-16" d="M125.63,17.19c0-.85.38-3.85,0-4.78-1.01-2.49-3.83-2.81-6.59-2.81H48.2c-2.76,0-5.58.32-6.59,2.81-.38.93,0,3.93,0,4.78l-.3,5.71c-.6,5.31,9.41,4.59,13.19,4.59l21.81.37,7.3-.07h0l7.3.07,21.81-.37c3.79,0,13.79.72,13.19-4.59l-.3-5.71Z"/>
    <path class="cls-7" d="M151.9,23.16c9.65,0,9.67-15,0-15s-9.67,15,0,15h0Z"/>
    <path class="cls-7" d="M152.22,254.59c9.65,0,9.67-15,0-15s-9.67,15,0,15h0Z"/>
    <path class="cls-7" d="M14.14,254.72c9.65,0,9.67-15,0-15s-9.67,15,0,15h0Z"/>
    <path class="cls-16" d="M11.56,15.67c18.49.32,36.98.69,55.46,1.04,19.51.36,39.05-.42,58.56-.82,10.18-.21,20.36-.38,30.54-.21l-3.75-3.75c-1.46,11.81-1.7,23.8-1.97,35.69-.33,14.15-.39,28.31-.37,42.46.01,9.3.14,18.61.07,27.91-.06,7.86-.43,15.71-.48,23.57-.07,11.29.08,22.59.37,33.88.56,22.38,1.59,44.74,2.18,67.12.07,2.79.14,5.57.2,8.36l3.75-3.75c-15.41-.13-30.81.06-46.22.48-24.85.69-49.67.84-74.52.24-8.25-.2-16.49-.49-24.74-.73l3.75,3.75c-.56-4.87-.34-9.89-.27-14.78.11-8.38.38-16.76.66-25.14.66-20.11,1.45-40.22,1.83-60.34.16-8.4.26-16.81.05-25.21-.13-5.24-.51-10.46-.61-15.7-.33-17.03-.19-34.08-.18-51.11,0-8.91,0-17.82-.06-26.73-.04-5.94-.04-11.89-.34-17.82-.04-.72-.08-1.43-.15-2.15-.19-1.95-1.59-3.85-3.75-3.75-1.87.08-3.96,1.66-3.75,3.75.48,4.83.39,9.76.44,14.61.09,8.42.1,16.84.11,25.25,0,17.78-.1,35.55.11,53.33.06,5.22.27,10.41.52,15.62.36,7.73.31,15.47.21,23.21-.24,20.03-1.02,40.04-1.7,60.06-.3,8.95-.6,17.9-.79,26.85-.13,5.9-.3,11.84,0,17.74.04.78.09,1.55.18,2.32.24,2.06,1.53,3.69,3.75,3.75,18.27.53,36.53,1.09,54.81,1.16,23.38.09,46.73-.97,70.1-1.19,6.85-.06,13.71-.03,20.56.02,2,.02,3.79-1.73,3.75-3.75-.48-22.44-1.5-44.87-2.16-67.3-.33-11.25-.57-22.51-.6-33.77-.03-10.16.25-20.29.47-30.44.18-8.23-.03-16.48-.05-24.72-.03-13.94,0-27.88.25-41.82.23-12.54.48-25.14,1.72-37.62.11-1.1.23-2.21.37-3.31.25-2.04-1.92-3.72-3.75-3.75-19.14-.32-38.3.42-57.44.81-9.78.2-19.58.45-29.37.27-7.76-.14-15.52-.3-23.28-.45-11.49-.22-22.99-.44-34.48-.63-1.96-.03-3.84,1.75-3.75,3.75s1.65,3.71,3.75,3.75h0Z"/>
    <polygon class="cls-16" points="26.61 14.43 14.5 29.16 14.18 13.04 26.61 14.43"/>
    <polygon class="cls-16" points="140.79 14.16 152.35 27.66 154.57 11.89 140.79 14.16"/>
    <polygon class="cls-16" points="139.48 248.15 153.14 235.93 156.07 248.65 139.48 248.15"/>
    <polygon class="cls-16" points="12.9 235.54 26.24 248.54 12.31 249.36 12.9 235.54"/>
    <rect class="cls-16" width="10.32" height="260.79"/>
    <rect class="cls-16" y="249.36" width="167.24" height="11.43"/>
    <rect class="cls-19" width="167.24" height="10.33"/>
    <rect class="cls-16" x="156.12" width="11.13" height="260.79"/>
  </g>
  <g id="Kategorie_Name" data-name="Kategorie Name">
    <text class="cls-9" transform="translate(45.94 22.56) scale(1 1.09)"><tspan x="0" y="0">WILD CARD</tspan></text>
  </g>
  <g id="Schlücke">
    <text class="cls-10" transform="translate(4.4 252.82)"><tspan x="0" y="0">+3</tspan></text>
    <text class="cls-10" transform="translate(147.68 19.77)"><tspan x="0" y="0">+3</tspan></text>
  </g>
  <g id="Motive">
    <g>
      <path class="cls-16" d="M116.23,101.62c-.52-.55-.61-1.36-.23-2.01,5.2-8.8,3.59-20.25-4.35-26.97-.66-.56-1.88-1.36-2.83-1.96-.67-.42-1.54-.31-2.08.27-.43.46-.94.89-1.26,1.57-.86,1.85-.82,3.83.05,5.66.7,1.48,3.12,3.17,1.23,4.85-2.44,2.16-5-2.15-5.65-4.18-.95-2.98-.66-5.95.72-8.56.55-1.04-.1-2.3-1.27-2.43-4.64-.52-9.45.48-13.41,2.96-.7.44-1.61.31-2.14-.32-.69-.82-1.6-1.77-3.15-1.1-2.27.98-1.07,2.77-.09,3.95.49.6.52,1.46.04,2.06-13.27,16.78,12.73,42.79,29.52,29.53.65-.52,1.6-.45,2.18.15.71.73,1.65,1.49,3.02.7,2.01-1.14.92-2.89-.3-4.16ZM95.54,78.78c2.81-.16,3.1,4.93-.61,4.24-2.28-.42-1.91-4.1.61-4.24ZM98.76,95.51c-.35,3.64-5.96,1.38-7.57-.38-1.5-1.63-3.38-6.81.05-7.14,3-.29,1.72,3.2,3.68,4.56,1.36.94,4.09.27,3.84,2.96ZM106.11,93.37c-2.58.47-3.39-3.71-1.02-4.23,3.43-.76,3.61,3.75,1.02,4.23Z"/>
      <path class="cls-16" d="M69.3,116.07c.71.11,1.27.66,1.38,1.38.76,4.95,3.04,9.8,6.21,13.62.34.41,1.06,1.12,1.67,1.78.7.75.56,1.95-.31,2.5-17.61,11.16-38.11-9.5-26.75-26.91.57-.88,1.82-.98,2.54-.23.61.62,1.21,1.3,1.47,1.52,3.86,3.23,8.75,5.58,13.78,6.35Z"/>
      <path class="cls-16" d="M98.81,115.16l-.42.76-14.2,14.18c-.63.63-1.65.64-2.29.01-7.95-7.78-9.94-20.74-3.43-30.07,4.74,6.32,11.3,11.36,19.17,12.7,1.11.19,1.71,1.42,1.17,2.41Z"/>
      <path class="cls-16" d="M74.04,89.07c.38,2.25.94,4.45,1.97,6.52-3.13,4.35-4.96,9.28-5.7,14.54-.14.97-1.07,1.61-2.01,1.37-4.95-1.26-9.35-4.01-12.76-7.84l15.29-15.3.81-.45c.98-.54,2.22.04,2.41,1.15Z"/>
    </g>
  </g>
  <g id="Kateg._Symbol" data-name="Kateg. Symbol">
    <path class="cls-17" d="M19.29,15.45c.5-.68.16-1.57-.67-1.73-.66-.13-1.38-.15-2.03-.29-.12-.03-.17-.06-.23-.17-.35-.59-.59-1.3-.94-1.89-.21-.35-.57-.56-.98-.54-.38.02-.7.23-.89.55-.34.58-.58,1.27-.91,1.85-.06.11-.12.17-.25.2-.67.15-1.44.15-2.11.31-.82.19-1.09,1.19-.51,1.8.36.39.8.76,1.18,1.14.11.11.37.33.39.47-.07.71-.27,1.42-.35,2.12-.06.5.17.97.65,1.16.39.15.66.07,1.01-.1.6-.3,1.18-.65,1.79-.93.13-.02.25.06.36.12.55.28,1.18.69,1.74.91.79.31,1.53-.31,1.46-1.14-.06-.66-.29-1.38-.35-2.04,0-.09,0-.18.07-.25l1.57-1.54Z"/>
    <path class="cls-17" d="M156.21,248.03c.5-.68.16-1.57-.67-1.73-.66-.13-1.38-.15-2.03-.29-.12-.03-.17-.06-.23-.17-.35-.59-.59-1.3-.94-1.89-.21-.35-.57-.56-.98-.54-.38.02-.7.23-.89.55-.34.58-.58,1.27-.91,1.85-.06.11-.12.17-.25.2-.67.15-1.44.15-2.11.31-.82.19-1.09,1.19-.51,1.8.36.39.8.76,1.18,1.14.11.11.37.33.39.47-.07.71-.27,1.42-.35,2.12-.06.5.17.97.65,1.16.39.15.66.07,1.01-.1.6-.3,1.18-.65,1.79-.93.13-.02.25.06.36.12.55.28,1.18.69,1.74.91.79.31,1.53-.31,1.46-1.14-.06-.66-.29-1.38-.35-2.04,0-.09,0-.18.07-.25l1.57-1.54Z"/>
  </g>
  <g id="Text_Karten" data-name="Text Karten">
    <g>
      <g class="cls-20">
        <text class="cls-6" transform="translate(25.88 179.29)"><tspan x="0" y="0">Die jüngs</tspan></text>
        <text class="cls-3" transform="translate(69.59 179.29)"><tspan x="0" y="0">te</tspan></text>
        <text class="cls-5" transform="translate(78.88 179.29)"><tspan x="0" y="0" xml:space="preserve"> Pe</tspan></text>
        <text class="cls-4" transform="translate(92.89 179.29)"><tspan x="0" y="0">rson muss</tspan></text>
        <text class="cls-2" transform="translate(141.36 179.29)"><tspan x="0" y="0"> </tspan></text>
      </g>
      <text class="cls-13" transform="translate(25.88 179.29)"><tspan x="0" y="0">Die jüngs</tspan></text>
      <text class="cls-14" transform="translate(69.59 179.29)"><tspan x="0" y="0">te</tspan></text>
      <text class="cls-11" transform="translate(78.88 179.29)"><tspan x="0" y="0" xml:space="preserve"> Pe</tspan></text>
      <text class="cls-12" transform="translate(92.89 179.29)"><tspan x="0" y="0">rson mus</tspan></text>
      <text class="cls-15" transform="translate(136.44 179.29)"><tspan x="0" y="0">s </tspan></text>
      <g class="cls-18">
        <text class="cls-2" transform="translate(66.08 191.28)"><tspan x="0" y="0">t</tspan></text>
        <text class="cls-6" transform="translate(69.17 191.28)"><tspan x="0" y="0">rink</tspan></text>
        <text class="cls-6" transform="translate(87.05 191.28)"><tspan x="0" y="0">en.</tspan></text>
      </g>
      <text class="cls-15" transform="translate(66.08 191.28)"><tspan x="0" y="0">t</tspan></text>
      <text class="cls-13" transform="translate(69.17 191.28)"><tspan x="0" y="0">rink</tspan></text>
      <text class="cls-13" transform="translate(87.05 191.28)"><tspan x="0" y="0">en.</tspan></text>
    </g>
  </g>
</svg>