<?xml version="1.0" encoding="UTF-8"?>
<svg xmlns="http://www.w3.org/2000/svg" xmlns:xlink="http://www.w3.org/1999/xlink" viewBox="0 0 167.24 260.79">
  <defs>
    <style>
      .cls-1, .cls-2, .cls-3, .cls-4, .cls-5, .cls-6, .cls-7 {
        fill: none;
      }

      .cls-8 {
        fill: #010101;
      }

      .cls-9, .cls-10 {
        fill: #e74258;
      }

      .cls-2, .cls-3, .cls-4, .cls-5, .cls-6, .cls-11, .cls-12, .cls-13, .cls-14, .cls-15, .cls-16, .cls-7 {
        font-family: QuicksandBold-Regular, Quicksand;
        font-size: 10px;
      }

      .cls-2, .cls-3, .cls-4, .cls-5, .cls-6, .cls-7 {
        stroke: #fff;
      }

      .cls-17 {
        fill: #171717;
      }

      .cls-3, .cls-13 {
        letter-spacing: -.02em;
      }

      .cls-4, .cls-12 {
        letter-spacing: -.02em;
      }

      .cls-18 {
        clip-path: url(#clippath-1);
      }

      .cls-19 {
        clip-path: url(#clippath-2);
      }

      .cls-5, .cls-11 {
        letter-spacing: -.04em;
      }

      .cls-20, .cls-11, .cls-12, .cls-13, .cls-14, .cls-15, .cls-16 {
        fill: #fff;
      }

      .cls-6, .cls-14 {
        letter-spacing: -.02em;
      }

      .cls-21 {
        fill: #171715;
      }

      .cls-15, .cls-7 {
        letter-spacing: -.02em;
      }

      .cls-10 {
        font-family: Namaku, Namaku;
        font-size: 15px;
      }

      .cls-22 {
        clip-path: url(#clippath);
      }
    </style>
    <clipPath id="clippath">
      <rect class="cls-1" x="0" y="0" width="167.24" height="260.79"/>
    </clipPath>
    <clipPath id="clippath-1">
      <rect class="cls-1" x="0" y="0" width="167.24" height="260.79"/>
    </clipPath>
    <clipPath id="clippath-2">
      <rect class="cls-1" x="0" y="0" width="167.24" height="260.79"/>
    </clipPath>
  </defs>
  <g id="Background">
    <rect class="cls-9" width="167.24" height="260.79"/>
  </g>
  <g id="Rahmen">
    <path class="cls-8" d="M151.9,23.16c9.65,0,9.67-15,0-15s-9.67,15,0,15h0Z"/>
    <path class="cls-8" d="M152.22,254.59c9.65,0,9.67-15,0-15s-9.67,15,0,15h0Z"/>
    <path class="cls-8" d="M14.14,254.72c9.65,0,9.67-15,0-15s-9.67,15,0,15h0Z"/>
    <path class="cls-17" d="M11.56,15.67c18.49.32,36.98.69,55.46,1.04,19.51.36,39.05-.42,58.56-.82,10.18-.21,20.36-.38,30.54-.21l-3.75-3.75c-1.46,11.81-1.7,23.8-1.97,35.69-.33,14.15-.39,28.31-.37,42.46.01,9.3.14,18.61.07,27.91-.06,7.86-.43,15.71-.48,23.57-.07,11.29.08,22.59.37,33.88.56,22.38,1.59,44.74,2.18,67.12.07,2.79.14,5.57.2,8.36l3.75-3.75c-15.41-.13-30.81.06-46.22.48-24.85.69-49.67.84-74.52.24-8.25-.2-16.49-.49-24.74-.73l3.75,3.75c-.56-4.87-.34-9.89-.27-14.78.11-8.38.38-16.76.66-25.14.66-20.11,1.45-40.22,1.83-60.34.16-8.4.26-16.81.05-25.21-.13-5.24-.51-10.46-.61-15.7-.33-17.03-.19-34.08-.18-51.11,0-8.91,0-17.82-.06-26.73-.04-5.94-.04-11.89-.34-17.82-.04-.72-.08-1.43-.15-2.15-.19-1.95-1.59-3.85-3.75-3.75-1.87.08-3.96,1.66-3.75,3.75.48,4.83.39,9.76.44,14.61.09,8.42.1,16.84.11,25.25,0,17.78-.1,35.55.11,53.33.06,5.22.27,10.41.52,15.62.36,7.73.31,15.47.21,23.21-.24,20.03-1.02,40.04-1.7,60.06-.3,8.95-.6,17.9-.79,26.85-.13,5.9-.3,11.84,0,17.74.04.78.09,1.55.18,2.32.24,2.06,1.53,3.69,3.75,3.75,18.27.53,36.53,1.09,54.81,1.16,23.38.09,46.73-.97,70.1-1.19,6.85-.06,13.71-.03,20.56.02,2,.02,3.79-1.73,3.75-3.75-.48-22.44-1.5-44.87-2.16-67.3-.33-11.25-.57-22.51-.6-33.77-.03-10.16.25-20.29.47-30.44.18-8.23-.03-16.48-.05-24.72-.03-13.94,0-27.88.25-41.82.23-12.54.48-25.14,1.72-37.62.11-1.1.23-2.21.37-3.31.25-2.04-1.92-3.72-3.75-3.75-19.14-.32-38.3.42-57.44.81-9.78.2-19.58.45-29.37.27-7.76-.14-15.52-.3-23.28-.45-11.49-.22-22.99-.44-34.48-.63-1.96-.03-3.84,1.75-3.75,3.75s1.65,3.71,3.75,3.75h0Z"/>
    <polygon class="cls-17" points="26.61 14.43 14.5 29.16 14.18 13.04 26.61 14.43"/>
    <polygon class="cls-17" points="140.79 14.16 152.35 27.66 154.57 11.89 140.79 14.16"/>
    <polygon class="cls-17" points="139.48 248.15 153.14 235.93 156.07 248.65 139.48 248.15"/>
    <polygon class="cls-17" points="12.9 235.54 26.24 248.54 12.31 249.36 12.9 235.54"/>
    <rect class="cls-17" width="10.32" height="260.79"/>
    <rect class="cls-17" y="249.36" width="167.24" height="11.43"/>
    <rect class="cls-21" width="167.24" height="10.33"/>
    <rect class="cls-17" x="156.12" width="11.13" height="260.79"/>
    <path class="cls-17" d="M125.63,17.19c0-.85.38-3.85,0-4.78-1.01-2.49-3.83-2.81-6.59-2.81H48.2c-2.76,0-5.58.32-6.59,2.81-.38.93,0,3.93,0,4.78l-.3,5.71c-.6,5.31,9.41,4.59,13.19,4.59l21.81.37,7.3-.07h0l7.3.07,21.81-.37c3.79,0,13.79.72,13.19-4.59l-.3-5.71Z"/>
    <path class="cls-8" d="M151.9,23.16c9.65,0,9.67-15,0-15s-9.67,15,0,15h0Z"/>
    <path class="cls-8" d="M152.22,254.59c9.65,0,9.67-15,0-15s-9.67,15,0,15h0Z"/>
    <path class="cls-8" d="M14.14,254.72c9.65,0,9.67-15,0-15s-9.67,15,0,15h0Z"/>
    <path class="cls-17" d="M11.56,15.67c18.49.32,36.98.69,55.46,1.04,19.51.36,39.05-.42,58.56-.82,10.18-.21,20.36-.38,30.54-.21l-3.75-3.75c-1.46,11.81-1.7,23.8-1.97,35.69-.33,14.15-.39,28.31-.37,42.46.01,9.3.14,18.61.07,27.91-.06,7.86-.43,15.71-.48,23.57-.07,11.29.08,22.59.37,33.88.56,22.38,1.59,44.74,2.18,67.12.07,2.79.14,5.57.2,8.36l3.75-3.75c-15.41-.13-30.81.06-46.22.48-24.85.69-49.67.84-74.52.24-8.25-.2-16.49-.49-24.74-.73l3.75,3.75c-.56-4.87-.34-9.89-.27-14.78.11-8.38.38-16.76.66-25.14.66-20.11,1.45-40.22,1.83-60.34.16-8.4.26-16.81.05-25.21-.13-5.24-.51-10.46-.61-15.7-.33-17.03-.19-34.08-.18-51.11,0-8.91,0-17.82-.06-26.73-.04-5.94-.04-11.89-.34-17.82-.04-.72-.08-1.43-.15-2.15-.19-1.95-1.59-3.85-3.75-3.75-1.87.08-3.96,1.66-3.75,3.75.48,4.83.39,9.76.44,14.61.09,8.42.1,16.84.11,25.25,0,17.78-.1,35.55.11,53.33.06,5.22.27,10.41.52,15.62.36,7.73.31,15.47.21,23.21-.24,20.03-1.02,40.04-1.7,60.06-.3,8.95-.6,17.9-.79,26.85-.13,5.9-.3,11.84,0,17.74.04.78.09,1.55.18,2.32.24,2.06,1.53,3.69,3.75,3.75,18.27.53,36.53,1.09,54.81,1.16,23.38.09,46.73-.97,70.1-1.19,6.85-.06,13.71-.03,20.56.02,2,.02,3.79-1.73,3.75-3.75-.48-22.44-1.5-44.87-2.16-67.3-.33-11.25-.57-22.51-.6-33.77-.03-10.16.25-20.29.47-30.44.18-8.23-.03-16.48-.05-24.72-.03-13.94,0-27.88.25-41.82.23-12.54.48-25.14,1.72-37.62.11-1.1.23-2.21.37-3.31.25-2.04-1.92-3.72-3.75-3.75-19.14-.32-38.3.42-57.44.81-9.78.2-19.58.45-29.37.27-7.76-.14-15.52-.3-23.28-.45-11.49-.22-22.99-.44-34.48-.63-1.96-.03-3.84,1.75-3.75,3.75s1.65,3.71,3.75,3.75h0Z"/>
    <polygon class="cls-17" points="26.61 14.43 14.5 29.16 14.18 13.04 26.61 14.43"/>
    <polygon class="cls-17" points="140.79 14.16 152.35 27.66 154.57 11.89 140.79 14.16"/>
    <polygon class="cls-17" points="139.48 248.15 153.14 235.93 156.07 248.65 139.48 248.15"/>
    <polygon class="cls-17" points="12.9 235.54 26.24 248.54 12.31 249.36 12.9 235.54"/>
    <rect class="cls-17" width="10.32" height="260.79"/>
    <rect class="cls-17" y="249.36" width="167.24" height="11.43"/>
    <rect class="cls-21" width="167.24" height="10.33"/>
    <rect class="cls-17" x="156.12" width="11.13" height="260.79"/>
  </g>
  <g id="Kategorie_Name" data-name="Kategorie Name">
    <text class="cls-10" transform="translate(45.94 22.56) scale(1 1.09)"><tspan x="0" y="0">WILD CARD</tspan></text>
  </g>
  <g id="Motive">
    <g>
      <path class="cls-17" d="M79.14,109.8c-1.11.31-2.28-.18-2.94-1.12-6.41-9.13-14.23-19.16-11.77-28.2,1.63-5.98,4.83-8.34,9.61-11.81.3-.22.42-.61.28-.95-.84-2.05-5.57-6.62.65-8.23.39-.1.8-.12,1.2-.04,2.73.49,14.61,2.6,19.41,3.45,1.3.23,2.45.97,3.21,2.05h0c.77,1.1,1.07,2.46.83,3.77l-3.53,19.32c-.1.54-.35,1.05-.74,1.44-3.66,3.73-5.02.33-7.79-2.51-.25-.25-.63-.33-.94-.16-4.98,2.7-8.61,8.83-6.53,14.51.64,1.74,2.87,3.95,2.01,6.03-.43,1.06-1.68,2.09-2.97,2.45Z"/>
      <path class="cls-17" d="M88.11,96.37c1.11-.31,2.28.18,2.94,1.12,6.41,9.13,14.23,19.16,11.77,28.2-1.63,5.98-4.83,8.34-9.61,11.81-.3.22-.42.61-.28.95.84,2.05,5.57,6.62-.65,8.23-.39.1-.8.12-1.2.04-2.73-.49-14.61-2.6-19.41-3.45-1.3-.23-2.45-.97-3.21-2.05h0c-.77-1.1-1.07-2.46-.83-3.77l3.53-19.32c.1-.54.35-1.05.74-1.44,3.66-3.73,5.02-.33,7.79,2.51.25.25.63.33.94.16,4.98-2.7,8.61-8.83,6.53-14.51-.64-1.74-2.87-3.95-2.01-6.03.43-1.06,1.68-2.09,2.97-2.45Z"/>
    </g>
  </g>
  <g id="Kateg._Symbol" data-name="Kateg. Symbol">
    <path class="cls-20" d="M19.29,15.45c.5-.68.16-1.57-.67-1.73-.66-.13-1.38-.15-2.03-.29-.12-.03-.17-.06-.23-.17-.35-.59-.59-1.3-.94-1.89-.21-.35-.57-.56-.98-.54-.38.02-.7.23-.89.55-.34.58-.58,1.27-.91,1.85-.06.11-.12.17-.25.2-.67.15-1.44.15-2.11.31-.82.19-1.09,1.19-.51,1.8.36.39.8.76,1.18,1.14.11.11.37.33.39.47-.07.71-.27,1.42-.35,2.12-.06.5.17.97.65,1.16.39.15.66.07,1.01-.1.6-.3,1.18-.65,1.79-.93.13-.02.25.06.36.12.55.28,1.18.69,1.74.91.79.31,1.53-.31,1.46-1.14-.06-.66-.29-1.38-.35-2.04,0-.09,0-.18.07-.25l1.57-1.54Z"/>
    <path class="cls-20" d="M156.21,248.03c.5-.68.16-1.57-.67-1.73-.66-.13-1.38-.15-2.03-.29-.12-.03-.17-.06-.23-.17-.35-.59-.59-1.3-.94-1.89-.21-.35-.57-.56-.98-.54-.38.02-.7.23-.89.55-.34.58-.58,1.27-.91,1.85-.06.11-.12.17-.25.2-.67.15-1.44.15-2.11.31-.82.19-1.09,1.19-.51,1.8.36.39.8.76,1.18,1.14.11.11.37.33.39.47-.07.71-.27,1.42-.35,2.12-.06.5.17.97.65,1.16.39.15.66.07,1.01-.1.6-.3,1.18-.65,1.79-.93.13-.02.25.06.36.12.55.28,1.18.69,1.74.91.79.31,1.53-.31,1.46-1.14-.06-.66-.29-1.38-.35-2.04,0-.09,0-.18.07-.25l1.57-1.54Z"/>
  </g>
  <g id="Text_Karten" data-name="Text Karten">
    <g>
      <g class="cls-22">
        <text class="cls-3" transform="translate(45.12 179.29)"><tspan x="0" y="0">Du kanns</tspan></text>
        <text class="cls-7" transform="translate(88.76 179.29)"><tspan x="0" y="0">t d</tspan></text>
        <text class="cls-7" transform="translate(101.61 179.29)"><tspan x="0" y="0">eine</tspan></text>
        <text class="cls-2" transform="translate(122.12 179.29)"><tspan x="0" y="0"> </tspan></text>
      </g>
      <text class="cls-13" transform="translate(45.12 179.29)"><tspan x="0" y="0">Du kanns</tspan></text>
      <text class="cls-15" transform="translate(88.76 179.29)"><tspan x="0" y="0">t d</tspan></text>
      <text class="cls-15" transform="translate(101.61 179.29)"><tspan x="0" y="0">eine</tspan></text>
      <text class="cls-16" transform="translate(122.12 179.29)"><tspan x="0" y="0"> </tspan></text>
      <g class="cls-18">
        <text class="cls-7" transform="translate(29.88 191.28)"><tspan x="0" y="0">Schlück</tspan></text>
        <text class="cls-4" transform="translate(66.67 191.28)"><tspan x="0" y="0">e an jema</tspan></text>
        <text class="cls-5" transform="translate(113.36 191.28)"><tspan x="0" y="0">nd</tspan></text>
        <text class="cls-7" transform="translate(125.34 191.28)"><tspan x="0" y="0">en</tspan></text>
        <text class="cls-2" transform="translate(137.36 191.28)"><tspan x="0" y="0"> </tspan></text>
      </g>
      <text class="cls-15" transform="translate(29.88 191.28)"><tspan x="0" y="0">Schlück</tspan></text>
      <text class="cls-12" transform="translate(66.67 191.28)"><tspan x="0" y="0">e an jema</tspan></text>
      <text class="cls-11" transform="translate(113.36 191.28)"><tspan x="0" y="0">nd</tspan></text>
      <text class="cls-15" transform="translate(125.34 191.28)"><tspan x="0" y="0">en</tspan></text>
      <text class="cls-16" transform="translate(137.36 191.28)"><tspan x="0" y="0"> </tspan></text>
      <g class="cls-19">
        <text class="cls-2" transform="translate(52.43 203.28)"><tspan x="0" y="0">w</tspan></text>
        <text class="cls-6" transform="translate(60.24 203.28)"><tspan x="0" y="0">eit</tspan></text>
        <text class="cls-2" transform="translate(72.14 203.28)"><tspan x="0" y="0">e</tspan></text>
        <text class="cls-7" transform="translate(77.82 203.28)"><tspan x="0" y="0">rgeben.</tspan></text>
      </g>
      <text class="cls-16" transform="translate(52.43 203.28)"><tspan x="0" y="0">w</tspan></text>
      <text class="cls-14" transform="translate(60.24 203.28)"><tspan x="0" y="0">eit</tspan></text>
      <text class="cls-16" transform="translate(72.14 203.28)"><tspan x="0" y="0">e</tspan></text>
      <text class="cls-15" transform="translate(77.82 203.28)"><tspan x="0" y="0">rgeben.</tspan></text>
    </g>
  </g>
</svg>