<?xml version="1.0" encoding="UTF-8"?>
<svg xmlns="http://www.w3.org/2000/svg" xmlns:xlink="http://www.w3.org/1999/xlink" viewBox="0 0 167.24 260.79">
  <defs>
    <style>
      .cls-1, .cls-2, .cls-3, .cls-4, .cls-5 {
        fill: none;
      }

      .cls-6 {
        fill: #010101;
      }

      .cls-7, .cls-8 {
        fill: #e74258;
      }

      .cls-2, .cls-9, .cls-3, .cls-4, .cls-5 {
        stroke: #fff;
      }

      .cls-2, .cls-3, .cls-4, .cls-10, .cls-11, .cls-12, .cls-5 {
        font-family: QuicksandBold-Regular, Quicksand;
        font-size: 10px;
      }

      .cls-2, .cls-10 {
        letter-spacing: -.02em;
      }

      .cls-13 {
        fill: #171717;
      }

      .cls-9 {
        font-size: 12px;
        stroke-miterlimit: 10;
        stroke-width: .15px;
      }

      .cls-9, .cls-14, .cls-10, .cls-11, .cls-12 {
        fill: #fff;
      }

      .cls-9, .cls-8 {
        font-family: Namaku, Namaku;
      }

      .cls-3 {
        letter-spacing: -.09em;
      }

      .cls-4, .cls-11 {
        letter-spacing: -.02em;
      }

      .cls-15 {
        fill: #171715;
      }

      .cls-12, .cls-5 {
        letter-spacing: -.02em;
      }

      .cls-8 {
        font-size: 15px;
      }

      .cls-16 {
        clip-path: url(#clippath);
      }
    </style>
    <clipPath id="clippath">
      <rect class="cls-1" x="0" y="0" width="167.24" height="260.79"/>
    </clipPath>
  </defs>
  <g id="Background">
    <rect class="cls-7" x="0" width="167.24" height="260.79"/>
  </g>
  <g id="Rahmen">
    <path class="cls-6" d="M151.9,23.16c9.65,0,9.67-15,0-15s-9.67,15,0,15h0Z"/>
    <path class="cls-6" d="M152.22,254.59c9.65,0,9.67-15,0-15s-9.67,15,0,15h0Z"/>
    <path class="cls-6" d="M14.14,254.72c9.65,0,9.67-15,0-15s-9.67,15,0,15h0Z"/>
    <path class="cls-13" d="M11.56,15.67c18.49.32,36.98.69,55.46,1.04,19.51.36,39.05-.42,58.56-.82,10.18-.21,20.36-.38,30.54-.21l-3.75-3.75c-1.46,11.81-1.7,23.8-1.97,35.69-.33,14.15-.39,28.31-.37,42.46.01,9.3.14,18.61.07,27.91-.06,7.86-.43,15.71-.48,23.57-.07,11.29.08,22.59.37,33.88.56,22.38,1.59,44.74,2.18,67.12.07,2.79.14,5.57.2,8.36l3.75-3.75c-15.41-.13-30.81.06-46.22.48-24.85.69-49.67.84-74.52.24-8.25-.2-16.49-.49-24.74-.73l3.75,3.75c-.56-4.87-.34-9.89-.27-14.78.11-8.38.38-16.76.66-25.14.66-20.11,1.45-40.22,1.83-60.34.16-8.4.26-16.81.05-25.21-.13-5.24-.51-10.46-.61-15.7-.33-17.03-.19-34.08-.18-51.11,0-8.91,0-17.82-.06-26.73-.04-5.94-.04-11.89-.34-17.82-.04-.72-.08-1.43-.15-2.15-.19-1.95-1.59-3.85-3.75-3.75-1.87.08-3.96,1.66-3.75,3.75.48,4.83.39,9.76.44,14.61.09,8.42.1,16.84.11,25.25,0,17.78-.1,35.55.11,53.33.06,5.22.27,10.41.52,15.62.36,7.73.31,15.47.21,23.21-.24,20.03-1.02,40.04-1.7,60.06-.3,8.95-.6,17.9-.79,26.85-.13,5.9-.3,11.84,0,17.74.04.78.09,1.55.18,2.32.24,2.06,1.53,3.69,3.75,3.75,18.27.53,36.53,1.09,54.81,1.16,23.38.09,46.73-.97,70.1-1.19,6.85-.06,13.71-.03,20.56.02,2,.02,3.79-1.73,3.75-3.75-.48-22.44-1.5-44.87-2.16-67.3-.33-11.25-.57-22.51-.6-33.77-.03-10.16.25-20.29.47-30.44.18-8.23-.03-16.48-.05-24.72-.03-13.94,0-27.88.25-41.82.23-12.54.48-25.14,1.72-37.62.11-1.1.23-2.21.37-3.31.25-2.04-1.92-3.72-3.75-3.75-19.14-.32-38.3.42-57.44.81-9.78.2-19.58.45-29.37.27-7.76-.14-15.52-.3-23.28-.45-11.49-.22-22.99-.44-34.48-.63-1.96-.03-3.84,1.75-3.75,3.75s1.65,3.71,3.75,3.75h0Z"/>
    <polygon class="cls-13" points="26.61 14.43 14.5 29.16 14.18 13.04 26.61 14.43"/>
    <polygon class="cls-13" points="140.79 14.16 152.35 27.66 154.57 11.89 140.79 14.16"/>
    <polygon class="cls-13" points="139.48 248.15 153.14 235.93 156.07 248.65 139.48 248.15"/>
    <polygon class="cls-13" points="12.9 235.54 26.24 248.54 12.31 249.36 12.9 235.54"/>
    <rect class="cls-13" width="10.32" height="260.79"/>
    <rect class="cls-13" y="249.36" width="167.24" height="11.43"/>
    <rect class="cls-15" width="167.24" height="10.33"/>
    <rect class="cls-13" x="156.12" width="11.13" height="260.79"/>
    <path class="cls-13" d="M125.63,17.19c0-.85.38-3.85,0-4.78-1.01-2.49-3.83-2.81-6.59-2.81H48.2c-2.76,0-5.58.32-6.59,2.81-.38.93,0,3.93,0,4.78l-.3,5.71c-.6,5.31,9.41,4.59,13.19,4.59l21.81.37,7.3-.07h0l7.3.07,21.81-.37c3.79,0,13.79.72,13.19-4.59l-.3-5.71Z"/>
    <path class="cls-6" d="M151.9,23.16c9.65,0,9.67-15,0-15s-9.67,15,0,15h0Z"/>
    <path class="cls-6" d="M152.22,254.59c9.65,0,9.67-15,0-15s-9.67,15,0,15h0Z"/>
    <path class="cls-6" d="M14.14,254.72c9.65,0,9.67-15,0-15s-9.67,15,0,15h0Z"/>
    <path class="cls-13" d="M11.56,15.67c18.49.32,36.98.69,55.46,1.04,19.51.36,39.05-.42,58.56-.82,10.18-.21,20.36-.38,30.54-.21l-3.75-3.75c-1.46,11.81-1.7,23.8-1.97,35.69-.33,14.15-.39,28.31-.37,42.46.01,9.3.14,18.61.07,27.91-.06,7.86-.43,15.71-.48,23.57-.07,11.29.08,22.59.37,33.88.56,22.38,1.59,44.74,2.18,67.12.07,2.79.14,5.57.2,8.36l3.75-3.75c-15.41-.13-30.81.06-46.22.48-24.85.69-49.67.84-74.52.24-8.25-.2-16.49-.49-24.74-.73l3.75,3.75c-.56-4.87-.34-9.89-.27-14.78.11-8.38.38-16.76.66-25.14.66-20.11,1.45-40.22,1.83-60.34.16-8.4.26-16.81.05-25.21-.13-5.24-.51-10.46-.61-15.7-.33-17.03-.19-34.08-.18-51.11,0-8.91,0-17.82-.06-26.73-.04-5.94-.04-11.89-.34-17.82-.04-.72-.08-1.43-.15-2.15-.19-1.95-1.59-3.85-3.75-3.75-1.87.08-3.96,1.66-3.75,3.75.48,4.83.39,9.76.44,14.61.09,8.42.1,16.84.11,25.25,0,17.78-.1,35.55.11,53.33.06,5.22.27,10.41.52,15.62.36,7.73.31,15.47.21,23.21-.24,20.03-1.02,40.04-1.7,60.06-.3,8.95-.6,17.9-.79,26.85-.13,5.9-.3,11.84,0,17.74.04.78.09,1.55.18,2.32.24,2.06,1.53,3.69,3.75,3.75,18.27.53,36.53,1.09,54.81,1.16,23.38.09,46.73-.97,70.1-1.19,6.85-.06,13.71-.03,20.56.02,2,.02,3.79-1.73,3.75-3.75-.48-22.44-1.5-44.87-2.16-67.3-.33-11.25-.57-22.51-.6-33.77-.03-10.16.25-20.29.47-30.44.18-8.23-.03-16.48-.05-24.72-.03-13.94,0-27.88.25-41.82.23-12.54.48-25.14,1.72-37.62.11-1.1.23-2.21.37-3.31.25-2.04-1.92-3.72-3.75-3.75-19.14-.32-38.3.42-57.44.81-9.78.2-19.58.45-29.37.27-7.76-.14-15.52-.3-23.28-.45-11.49-.22-22.99-.44-34.48-.63-1.96-.03-3.84,1.75-3.75,3.75s1.65,3.71,3.75,3.75h0Z"/>
    <polygon class="cls-13" points="26.61 14.43 14.5 29.16 14.18 13.04 26.61 14.43"/>
    <polygon class="cls-13" points="140.79 14.16 152.35 27.66 154.57 11.89 140.79 14.16"/>
    <polygon class="cls-13" points="139.48 248.15 153.14 235.93 156.07 248.65 139.48 248.15"/>
    <polygon class="cls-13" points="12.9 235.54 26.24 248.54 12.31 249.36 12.9 235.54"/>
    <rect class="cls-13" width="10.32" height="260.79"/>
    <rect class="cls-13" y="249.36" width="167.24" height="11.43"/>
    <rect class="cls-15" width="167.24" height="10.33"/>
    <rect class="cls-13" x="156.12" width="11.13" height="260.79"/>
  </g>
  <g id="Kategorie_Name" data-name="Kategorie Name">
    <text class="cls-8" transform="translate(45.94 22.56) scale(1 1.09)"><tspan x="0" y="0">WILD CARD</tspan></text>
  </g>
  <g id="Schlücke">
    <text class="cls-9" transform="translate(4.4 252.82)"><tspan x="0" y="0">+3</tspan></text>
    <text class="cls-9" transform="translate(147.68 19.77)"><tspan x="0" y="0">+3</tspan></text>
  </g>
  <g id="Motive">
    <g>
      <path class="cls-13" d="M101.78,85.55l.52,1.48c.36,1.02-.29,2.13-1.36,2.28-3.1.42-6.07,2.86-6.75,5.9-.81,3.63-.83,16.63-.06,20.27.66,3.13,3.52,5.62,6.65,6.1,1.11.17,1.76,1.35,1.31,2.38l-.75,1.75c-.27.64-.9,1.05-1.59,1.04l-45.01-.22c-.71,0-1.35-.45-1.6-1.11l-.57-1.5c-.39-1.03.26-2.16,1.35-2.31,3.08-.44,6.02-2.88,6.69-5.89,1.02-4.55.16-10.07.38-14.88.03-.68.48-1.27,1.11-1.52,2.59-1.02,4.82-3.25,5.91-5.74.19-.44.92-2.31.92-2.59v-4.86c0-.95.77-1.72,1.72-1.72h29.52c.73,0,1.38.46,1.63,1.15ZM75.57,89.44c-4.29.73-6.1,4.98-6.37,8.84s-.45,15.15.84,18.48c2.69,6.94,13.23,6.24,15.13-1.06.88-3.4.71-13.88.42-17.7-.43-5.68-4.02-9.58-10.02-8.56Z"/>
      <path class="cls-13" d="M98.45,79.02c0,.92-.74,1.66-1.66,1.66h-27.72c-.36,0-1.98.59-2.4.82-3.71,2.02-1.2,7.78-2.71,11.33-2.48,5.83-11.43,4.53-12.26-1.79-.42-3.23-.38-12.45,0-15.73.69-5.84,7.25-7.73,11.77-4.61,2.88-3.39,8.2-3.69,11.15-.25,3.24-5.09,9.34-5.01,12.61-.02,3.7-2.34,8.76-1.37,10.61,2.83.12.27.62,1.59.62,1.72v4.04Z"/>
      <path class="cls-13" d="M103.63,138.92c-.12.15-.81.55-1.01.59l-50.21.06c-.3-.05-1.07-.43-1.24-.65-.5-.62-.56-6.07-.37-7.07.14-.73.85-1.34,1.59-1.34l50.3.02c.63.12,1.2.69,1.32,1.32.18.99.13,6.45-.37,7.07Z"/>
      <path class="cls-13" d="M104.66,121.74l.37-1.09c.2-.59.71-1.03,1.32-1.12,2.44-.37,4.78-2.32,5.41-4.68.7-2.62.69-16.52-.07-19.09-.65-2.22-2.98-4.08-5.31-4.45-.62-.1-1.15-.51-1.36-1.1l-.38-1.07c-.4-1.15.5-2.32,1.71-2.24,4.41.28,8.97,4.11,9.73,8.27.63,3.45.54,16.05.13,19.75-.5,4.6-5.17,8.61-9.85,9.03-1.2.11-2.1-1.08-1.71-2.23Z"/>
      <path class="cls-13" d="M99.47,93.8c.97-.22,2.99-.24,3.57.7.41.67.84,4.53.9,5.53.24,3.92.27,9.88-.33,13.7-.23,1.46-.13,3.09-1.88,3.38-2.13.35-3.88-.36-4.5-2.48.58-5.59-.85-13.03,0-18.39.15-.95,1.31-2.23,2.24-2.44Z"/>
      <path class="cls-13" d="M57.49,101.61l-.03,12.86c0,.46-.13.92-.41,1.3-1.09,1.47-3.83,2.02-5.08.93-.68-.59-1.11-4.71-1.18-5.84-.21-3.32-.07-6.79.1-10.2.09-1.75,2.05-2.75,3.51-1.77h0c.18.12.38.22.59.28l.88.27c.95.29,1.61,1.17,1.6,2.17Z"/>
      <path class="cls-13" d="M76.14,93.82c1.93-.44,4.41.29,4.75,2.44.85,5.36-.59,12.81,0,18.39-.97,3.49-6.05,3.44-6.98,0,.58-5.59-.85-13.03,0-18.39.15-.95,1.31-2.23,2.24-2.44Z"/>
    </g>
  </g>
  <g id="Kateg._Symbol" data-name="Kateg. Symbol">
    <path class="cls-14" d="M19.29,15.45c.5-.68.16-1.57-.67-1.73-.66-.13-1.38-.15-2.03-.29-.12-.03-.17-.06-.23-.17-.35-.59-.59-1.3-.94-1.89-.21-.35-.57-.56-.98-.54-.38.02-.7.23-.89.55-.34.58-.58,1.27-.91,1.85-.06.11-.12.17-.25.2-.67.15-1.44.15-2.11.31-.82.19-1.09,1.19-.51,1.8.36.39.8.76,1.18,1.14.11.11.37.33.39.47-.07.71-.27,1.42-.35,2.12-.06.5.17.97.65,1.16.39.15.66.07,1.01-.1.6-.3,1.18-.65,1.79-.93.13-.02.25.06.36.12.55.28,1.18.69,1.74.91.79.31,1.53-.31,1.46-1.14-.06-.66-.29-1.38-.35-2.04,0-.09,0-.18.07-.25l1.57-1.54Z"/>
    <path class="cls-14" d="M156.21,248.03c.5-.68.16-1.57-.67-1.73-.66-.13-1.38-.15-2.03-.29-.12-.03-.17-.06-.23-.17-.35-.59-.59-1.3-.94-1.89-.21-.35-.57-.56-.98-.54-.38.02-.7.23-.89.55-.34.58-.58,1.27-.91,1.85-.06.11-.12.17-.25.2-.67.15-1.44.15-2.11.31-.82.19-1.09,1.19-.51,1.8.36.39.8.76,1.18,1.14.11.11.37.33.39.47-.07.71-.27,1.42-.35,2.12-.06.5.17.97.65,1.16.39.15.66.07,1.01-.1.6-.3,1.18-.65,1.79-.93.13-.02.25.06.36.12.55.28,1.18.69,1.74.91.79.31,1.53-.31,1.46-1.14-.06-.66-.29-1.38-.35-2.04,0-.09,0-.18.07-.25l1.57-1.54Z"/>
  </g>
  <g id="Text_Karten" data-name="Text Karten">
    <g>
      <g class="cls-16">
        <text class="cls-5" transform="translate(20.84 179.29)"><tspan x="0" y="0">All</tspan></text>
        <text class="cls-4" transform="translate(32.13 179.29)"><tspan x="0" y="0">e Ju</tspan></text>
        <text class="cls-5" transform="translate(52.25 179.29)"><tspan x="0" y="0">ngs müssen </tspan></text>
        <text class="cls-3" transform="translate(111.3 179.29)"><tspan x="0" y="0">tr</tspan></text>
        <text class="cls-2" transform="translate(118.59 179.29)"><tspan x="0" y="0">ink</tspan></text>
        <text class="cls-5" transform="translate(132.28 179.29)"><tspan x="0" y="0">en.</tspan></text>
      </g>
      <text class="cls-12" transform="translate(20.84 179.29)"><tspan x="0" y="0">All</tspan></text>
      <text class="cls-11" transform="translate(32.13 179.29)"><tspan x="0" y="0">e Ju</tspan></text>
      <text class="cls-12" transform="translate(52.25 179.29)"><tspan x="0" y="0">ngs müssen t</tspan></text>
      <text class="cls-10" transform="translate(114.4 179.29)"><tspan x="0" y="0">rink</tspan></text>
      <text class="cls-12" transform="translate(132.28 179.29)"><tspan x="0" y="0">en.</tspan></text>
    </g>
  </g>
</svg>