<?xml version="1.0" encoding="UTF-8"?>
<svg id="Ebene_5" data-name="Ebene 5" xmlns="http://www.w3.org/2000/svg" viewBox="0 0 92.61 28.2">
  <defs>
    <style>
      .cls-1 {
        fill: #0d91ce;
      }

      .cls-2 {
        fill: #e74258;
      }

      .cls-3 {
        font-size: 20px;
      }

      .cls-3, .cls-4, .cls-5 {
        font-family: Namaku, Namaku;
      }

      .cls-3, .cls-4, .cls-5, .cls-6, .cls-7 {
        fill: #fff;
      }

      .cls-4 {
        font-size: 12px;
      }

      .cls-8 {
        fill: #f5af36;
      }

      .cls-9 {
        fill: #1090cf;
      }

      .cls-5 {
        font-size: 37px;
      }

      .cls-10 {
        fill: #e74158;
      }

      .cls-11 {
        fill: #5cb035;
      }

      .cls-6 {
        stroke: #fff;
        stroke-miterlimit: 10;
        stroke-width: .15px;
      }

      .cls-12 {
        fill: #8e73b0;
      }

      .cls-13 {
        fill: #f5ae36;
      }

      .cls-14 {
        fill: #8d73b1;
      }

      .cls-15 {
        fill: #5caf34;
      }
    </style>
  </defs>
  <text class="cls-3" transform="translate(0 15.19)"><tspan x="0" y="0">Schluck </tspan></text>
  <text class="cls-4" transform="translate(58.62 27.59)"><tspan x="0" y="0">MAL</tspan></text>
  <text class="cls-5" transform="translate(82.38 27.59)"><tspan x="0" y="0">!</tspan></text>
  <g>
    <g>
      <path class="cls-10" d="M56.24,26.96h-8.3l.62.62v-8.08l-.62.62h8.3l-.62-.62v8.08c0,.8,1.25.81,1.25,0v-8.08c0-.34-.29-.62-.62-.62h-8.3c-.34,0-.62.29-.62.62v8.08c0,.34.29.62.62.62h8.3c.8,0,.81-1.25,0-1.25Z"/>
    </g>
    <path class="cls-7" d="M55.45,23.39c.35-.48.11-1.1-.47-1.21-.46-.09-.97-.1-1.42-.21-.08-.02-.12-.04-.16-.12-.25-.41-.41-.91-.66-1.33-.14-.25-.4-.39-.69-.38-.27.01-.49.16-.62.39-.24.41-.41.89-.64,1.3-.04.08-.08.12-.17.14-.47.1-1.01.11-1.48.21-.58.13-.76.83-.36,1.26.25.27.56.53.83.8.07.07.26.23.27.33-.05.49-.19.99-.25,1.49-.04.35.12.68.46.82.27.11.46.05.71-.07.42-.21.83-.46,1.25-.65.09-.02.17.04.25.08.39.19.82.48,1.22.64.55.22,1.08-.22,1.03-.8-.04-.46-.2-.97-.25-1.43,0-.07,0-.13.05-.18l1.1-1.08Z"/>
  </g>
  <g>
    <g>
      <path class="cls-11" d="M32.88,26.96h-8.3l.62.62v-8.08l-.62.62h8.3l-.62-.62v8.08c0,.8,1.25.81,1.25,0v-8.08c0-.34-.29-.62-.62-.62h-8.3c-.34,0-.62.29-.62.62v8.08c0,.34.29.62.62.62h8.3c.8,0,.81-1.25,0-1.25Z"/>
    </g>
    <g>
      <path class="cls-6" d="M28.89,23.35c.42-.08,2.36-.08,2.79-.01.5.08.63.64.54,1.07-.08.38-.58,1.69-.76,2.05-.16.33-.27.45-.65.49-.4.05-1.3.08-1.58-.24-.02-.02-.03-.04-.03-.06-.19-.67-1-2.13-.88-2.73.06-.28.29-.52.57-.57Z"/>
      <g>
        <path class="cls-6" d="M28.2,23.12c.11-.11.03-.3-.12-.3h-2.32c-.19,0-.54.52-.55.72-.04.53.75,1.95.9,2.58,0,.02.01.05.03.06.29.35,1.35.32,1.75.24.98-.2.06-1.42-.06-1.99s.04-.96.37-1.31Z"/>
        <path class="cls-6" d="M27.55,20.16c-1.85-.42-1.97,2.3-.32,2.26,1.38-.03,1.43-2.02.32-2.26Z"/>
      </g>
      <path class="cls-6" d="M29.97,20.67c1.91-.39,1.9,2.44.19,2.26-1.29-.14-1.3-2.03-.19-2.26Z"/>
    </g>
  </g>
  <g>
    <g>
      <path class="cls-8" d="M44.52,26.96h-8.3l.62.62v-8.08l-.62.62h8.3l-.62-.62v8.08c0,.8,1.25.81,1.25,0v-8.08c0-.34-.29-.62-.62-.62h-8.3c-.34,0-.62.29-.62.62v8.08c0,.34.29.62.62.62h8.3c.8,0,.81-1.25,0-1.25Z"/>
    </g>
    <g>
      <path class="cls-7" d="M42.06,22.78l-1.49.02.55-2.28c0-.21-.26-.26-.36-.09l-2.24,3.57c-.08.12,0,.28.14.3h1.53l-.56,2.21c-.03.19.12.31.29.21.6-.93,1.2-1.86,1.78-2.8.15-.25.38-.56.51-.81.09-.18.04-.28-.15-.32Z"/>
      <path class="cls-7" d="M42.06,22.16l-1.49.02.6.79c.16-.67.33-1.34.49-2.01.02-.09.05-.18.06-.27.08-.41-.15-.85-.58-.96-.48-.12-.8.19-1.03.55l-1.23,1.96c-.3.48-.64.94-.91,1.44-.29.54.05,1.2.68,1.24.13,0,.25,0,.38,0h1.15l-.6-.79-.33,1.32c-.13.52-.45,1.24-.02,1.69.23.23.55.29.85.18.35-.12.52-.51.71-.8.33-.52.66-1.04.99-1.56.29-.46.61-.91.88-1.39.33-.57.24-1.18-.44-1.4-.77-.25-1.1.96-.33,1.21l-.19-.15-.09-.32s.04-.07-.02-.01c-.05.05-.09.15-.13.21-.08.13-.16.25-.25.37-.2.31-.4.63-.6.95-.42.66-.84,1.31-1.26,1.97l.37-.29h.01c.11.04.21.07.32.1l.02.02.16.28c.04.13-.04.23,0,.08.02-.09.04-.17.07-.26l.19-.75.28-1.11c.1-.39-.19-.79-.6-.79h-1.28c-.06,0-.12,0-.18,0-.09,0-.07-.04.02,0l.28.16h0c.03.11.06.22.09.32.01.2-.1.2-.03.12.03-.03.05-.08.08-.12l.24-.39.78-1.24.76-1.22.25-.41s.05-.07.07-.11c.1-.22.11.36-.4.16l-.28-.16-.07-.11v-.33c-.18.76-.37,1.52-.55,2.28-.09.39.19.8.6.79l1.49-.02c.8,0,.81-1.26,0-1.25Z"/>
    </g>
  </g>
  <g>
    <g>
      <path class="cls-9" d="M21.24,26.96h-8.3l.62.62v-8.08l-.62.62h8.3l-.62-.62v8.08c0,.8,1.25.81,1.25,0v-8.08c0-.34-.29-.62-.62-.62h-8.3c-.34,0-.62.29-.62.62v8.08c0,.34.29.62.62.62h8.3c.8,0,.81-1.25,0-1.25Z"/>
    </g>
    <g>
      <path class="cls-7" d="M18.56,20.45c-.55-.35-1.15-.47-1.79-.41-.87.07-1.73.64-2.15,1.4-.09.16-.09.2.05.33.16.15.66.54.85.65.09.05.18.08.28.03.34-.36.57-.8,1.13-.84.46-.03,1.09.24.92.8-.11.35-.47.44-.75.6-.41.24-.92.71-.96,1.22,0,.1-.01.36,0,.45.02.11.14.15.23.16.27.02,1.06.04,1.31,0,.21-.04.16-.17.21-.32.15-.47.64-.61.99-.87,1.2-.91.84-2.44-.32-3.18Z"/>
      <rect class="cls-7" x="16.12" y="25.32" width="1.75" height="1.74" rx=".29" ry=".29"/>
    </g>
  </g>
  <g>
    <g>
      <path class="cls-14" d="M9.6,26.96H1.29l.62.62v-8.08l-.62.62h8.3l-.62-.62v8.08c0,.8,1.25.81,1.25,0v-8.08c0-.34-.29-.62-.62-.62H1.29c-.34,0-.62.29-.62.62v8.08c0,.34.29.62.62.62h8.3c.8,0,.81-1.25,0-1.25Z"/>
    </g>
    <g id="jCvsG5">
      <path class="cls-7" d="M5.76,20.05c.09-.06.21,0,.2.11-.03.62.1,1.26.42,1.8.49.85,1.31,1.08,1.56,2.16.5,2.17-1.97,3.64-3.81,2.63-.8-.44-1.32-1.62-1.22-2.51.05-.46.26-.9.55-1.25.07-.08.2-.07.24.03.21.48.52.95,1.01,1.13.14.05.29.1.43,0,.23-.17.02-.44-.06-.63-.52-1.26-.4-2.55.67-3.47,0,0,0,0,0,0h0Z"/>
    </g>
  </g>
</svg>